<svg xmlns="http://www.w3.org/2000/svg" width="400" height="260" viewBox="0 0 400 260">
  <g id="Grupo_176826" data-name="Grupo 176826" transform="translate(11713 10214)">
    <g id="Grupo_176825" data-name="Grupo 176825">
      <g id="Grupo_176732" data-name="Grupo 176732" transform="translate(-56)">
        <rect id="Rectángulo_298433" data-name="Rectángulo 298433" width="400" height="260" transform="translate(-11657 -10214)" fill="none"/>
        <g id="Grupo_174869" data-name="Grupo 174869" transform="translate(-11997.945 -10450.435)">
          <g id="Grupo_174824" data-name="Grupo 174824" transform="translate(340.946 370.07)">
            <path id="Trazado_207702" data-name="Trazado 207702" d="M391.15,1126.981c-6.907-5.214-14.133-10.576-22.629-12.23-3.826-.746-8.748.025-10.5,3.18a5.111,5.111,0,0,0-.521,1.385,5.282,5.282,0,0,0,.04,2.455c.712,2.85,3.632,5.239,6.27,6.992l2.231,1.481h63.88c-.373-1.569-.746-3.137-1.1-4.708-5.342-23.989-5.142-48.977-10.894-72.874-1-4.161-2.284-8.464-5.249-11.555a9.793,9.793,0,0,0-8.359-3.146,7.314,7.314,0,0,0-1.609.494c-4.542,2.054-5.367,8.1-5.076,13.07.64,10.873,3.532,21.473,6.407,31.976,3.978,14.523,8,29.167,14.885,42.563a3.016,3.016,0,0,1-3.7-.292,8.972,8.972,0,0,1-2.18-3.335c-9.554-20.822-21.044-41.03-36.724-57.727-5.6-5.965-11.917-11.58-19.585-14.447a16.941,16.941,0,0,0-8.451-1.218,9.762,9.762,0,0,0-4.517,1.942c-.2.162-.389.325-.57.5a7.253,7.253,0,0,0-1.649,2.351c-1.372,3.2-.143,6.873,1.193,10.094A154.775,154.775,0,0,0,391.15,1126.981Z" transform="translate(-340.946 -1037.854)" fill="#e7f3fe"/>
            <path id="Trazado_207703" data-name="Trazado 207703" d="M492.038,1662.544c-7.442-4.3-15.043-8.33-22.642-12.312a5.017,5.017,0,0,0-.317.69c7.17,3.758,14.358,7.579,21.413,11.622Z" transform="translate(-452.323 -1570.155)" fill="#94b0c9"/>
            <path id="Trazado_207704" data-name="Trazado 207704" d="M423.833,1217.533h.973q-32.327-40.221-66.086-79.258c-.2.161-.389.325-.57.5q8.867,10.254,17.64,20.589Q400.2,1188.126,423.833,1217.533Z" transform="translate(-355.9 -1125.144)" fill="#94b0c9"/>
            <path id="Trazado_207705" data-name="Trazado 207705" d="M832.494,1096.37c2.646,11.573,5.554,23.084,8.511,34.582h.783q-2.1-8.172-4.151-16.359c-3.528-14.2-6.748-28.453-9.518-42.816-2.138-11.109-4.246-22.251-7.414-33.108a6.135,6.135,0,0,0-.736.175c1.462,4.993,2.7,10.05,3.813,15.137C826.862,1068.075,829.279,1082.3,832.494,1096.37Z" transform="translate(-757.329 -1038.563)" fill="#94b0c9"/>
          </g>
          <g id="Grupo_174837" data-name="Grupo 174837" transform="translate(435.359 334.665)">
            <path id="Trazado_207706" data-name="Trazado 207706" d="M2377.727,1337.788h19.822a6.491,6.491,0,0,1,6.35,7.836l-9.127,43.094h-22.381Z" transform="translate(-2201.165 -1263.162)" fill="#dae4ef"/>
            <path id="Trazado_207707" data-name="Trazado 207707" d="M2456.957,1497.8l-6.876,2.831-.876-7.415Z" transform="translate(-2267.934 -1398.269)" fill="#452a20"/>
            <path id="Rectángulo_297986" data-name="Rectángulo 297986" d="M0,0H11.225a0,0,0,0,1,0,0V4.786a0,0,0,0,1,0,0H4.786A4.786,4.786,0,0,1,0,0V0A0,0,0,0,1,0,0Z" transform="translate(69.3 114.972)" fill="#e86e41"/>
            <path id="Trazado_207708" data-name="Trazado 207708" d="M1668.651,1520.026l-7.685,26.425,25.347,1.618,6.231-21.807Z" transform="translate(-1582.768 -1421.57)" fill="#e86e41"/>
            <path id="Trazado_207709" data-name="Trazado 207709" d="M1694.373,1175.985a18.367,18.367,0,0,0-7.565,7.777c-3,5.663-12.438,37.346-12.438,37.346s11.693,3.371,20,5.528,9.527,2.292,9.527,2.292Z" transform="translate(-1594.419 -1122.517)" fill="#084a93"/>
            <g id="Grupo_174826" data-name="Grupo 174826" transform="translate(104.214 0)">
              <path id="Trazado_207710" data-name="Trazado 207710" d="M2001.593,971.205l-6.071,7.887-7.782-2.326s-1.379-3.778-2.56-6.912c-.3-.8-.591-1.553-.837-2.192-.408-1.048-.712-1.792-.8-1.917l.493-12.539,11.487,2.168Z" transform="translate(-1967.376 -928.87)" fill="#ff9c78"/>
              <path id="Trazado_207711" data-name="Trazado 207711" d="M1999.4,1002.091c-.643,2.8-3.495,4.854-5.691,5.392a18.57,18.57,0,0,1-3.208.469c-.3-.8-.591-1.553-.837-2.192l6.2-6.233,2.026-2.492A6.074,6.074,0,0,1,1999.4,1002.091Z" transform="translate(-1972.699 -966.967)" fill="#e86e41"/>
              <g id="Grupo_174825" data-name="Grupo 174825" transform="translate(0 2.9)">
                <circle id="Elipse_13208" data-name="Elipse 13208" cx="11.982" cy="11.982" r="11.982" transform="translate(0 16.945) rotate(-45)" fill="#ff9c78"/>
                <path id="Trazado_207712" data-name="Trazado 207712" d="M1902.458,913.241s2.062,7.791,4.9,11.581c3.531,4.709,5.487,5.3,8.588,4.38,3.736-1.112,5.386-2.979,7.536-6.995,1.891-3.533,2.257-14.124,2.257-14.124Z" transform="translate(-1896.896 -892.548)" fill="#ff9c78"/>
              </g>
              <path id="Trazado_207713" data-name="Trazado 207713" d="M1951.465,1063.108l6.573-4.247,13.9-3.417,14.011,5.742s-8.494,19.718-8.9,20.021-15.875,3.337-16.179,3.337S1951.465,1063.108,1951.465,1063.108Z" transform="translate(-1939.495 -1017.74)" fill="#ff9c78"/>
              <path id="Trazado_207714" data-name="Trazado 207714" d="M1937.951,962.261a1.932,1.932,0,0,0-.956-1.322.581.581,0,0,0-.522.041.716.716,0,0,0-.254.46,1.906,1.906,0,0,0,.337,1.5.872.872,0,0,0,.839.409C1937.94,963.222,1938.057,962.753,1937.951,962.261Z" transform="translate(-1926.211 -935.555)" fill="#452a20"/>
              <path id="Trazado_207715" data-name="Trazado 207715" d="M1996.023,940.3a1.932,1.932,0,0,0-.956-1.322.581.581,0,0,0-.522.041.715.715,0,0,0-.253.46,1.9,1.9,0,0,0,.337,1.5.871.871,0,0,0,.838.409C1996.012,941.264,1996.129,940.8,1996.023,940.3Z" transform="translate(-1976.689 -916.469)" fill="#452a20"/>
              <path id="Trazado_207716" data-name="Trazado 207716" d="M1962.693,959.747c-1.643-.278-.926-1.911-1.043-3.01a6.625,6.625,0,0,0-.967-2.469c-.253-.453-.98-.1-.725.359a6.223,6.223,0,0,1,.882,2.1c.1.711-.215,1.394-.091,2.1a2.163,2.163,0,0,0,1.888,1.725C1963.15,960.64,1963.2,959.833,1962.693,959.747Z" transform="translate(-1946.83 -929.611)" fill="#e86e41"/>
              <path id="Trazado_207717" data-name="Trazado 207717" d="M1977.5,998.423a3.15,3.15,0,0,1-3.709,1.943c-.507-.115-.723.665-.215.78a3.987,3.987,0,0,0,4.7-2.508C1978.469,998.152,1977.687,997.942,1977.5,998.423Z" transform="translate(-1958.462 -967.938)" fill="#e86e41"/>
              <path id="Trazado_207718" data-name="Trazado 207718" d="M1916.965,934.986a1.6,1.6,0,0,0-.366-.048,4.1,4.1,0,0,0-3.41,1.586.81.81,0,0,0-.131.389c-.013.785,1.155.124,1.461-.032a7.717,7.717,0,0,1,2.115-.711c.346-.063.772-.167.851-.509a.558.558,0,0,0-.259-.56A.878.878,0,0,0,1916.965,934.986Z" transform="translate(-1906.11 -912.989)" fill="#452a20"/>
              <path id="Trazado_207719" data-name="Trazado 207719" d="M1977.984,916.252a1.6,1.6,0,0,1,.273-.248,4.1,4.1,0,0,1,3.706-.639.809.809,0,0,1,.33.245c.458.638-.879.76-1.219.807a7.717,7.717,0,0,0-2.143.62c-.32.146-.73.3-.99.066a.558.558,0,0,1-.106-.608A.871.871,0,0,1,1977.984,916.252Z" transform="translate(-1962.377 -895.787)" fill="#452a20"/>
              <path id="Trazado_207720" data-name="Trazado 207720" d="M1886.926,771.514c-.92-2.09-2.605-3.034-5.369-2.225s-2.375-1.348-5.872-2.022-6.464.741-7.071,2.966-2.7,0-5.309,1.129a4.551,4.551,0,0,0-2.336,5.16,4.471,4.471,0,0,1,.513,2.444c-.144.634-.5,1.2-.662,1.832a4.259,4.259,0,0,0,.188,2.665,7.288,7.288,0,0,0,4.54,4.315s.09-3.24,4.806-5.343a12.163,12.163,0,0,1,10.622.155c.82.506,3.158,6.367,3.714,6.62s1.466.253,1.517-1.213a6.465,6.465,0,0,1,1.638-3.6,7.579,7.579,0,0,1,1.132-1S1887.846,773.6,1886.926,771.514Z" transform="translate(-1860.587 -767.098)" fill="#452a20"/>
            </g>
            <path id="Trazado_207721" data-name="Trazado 207721" d="M1956.994,1079.722c-.028.263-.061.534-.093.809-.32,2.88-.72,6.435-1.141,10.338-.028.267-.057.538-.089.809-.319,3.025-.651,6.241-.966,9.5-.024.271-.053.538-.077.809-.267,2.807-.518,5.634-.732,8.385-.024.275-.044.55-.065.821-.708,9.149-1.015,17.316-.267,20.875a166.451,166.451,0,0,1,2.831,20.357l-35.962.809s-.255-2.884-.647-7.374c-.024-.267-.049-.538-.073-.817-.2-2.225-.425-4.8-.671-7.58-.02-.267-.045-.538-.069-.813-.728-8.239-1.606-18.145-2.326-26.263-.024-.283-.052-.562-.077-.841-.251-2.835-.481-5.432-.684-7.632-.02-.275-.044-.546-.069-.809-.263-2.928-.457-5.048-.546-5.946-.125-1.307-.315-3.082-.534-5.036-.028-.267-.061-.538-.089-.809-.247-2.217-.522-4.6-.773-6.759-.032-.275-.065-.546-.093-.813-.412-3.519-.736-6.233-.736-6.233l8.15-3.81s3.211,5.913,5.833,10.261c.158.263.315.522.469.772,1.3,2.124,2.386,3.717,2.738,3.762.332.041,1.6-1.7,3.2-4.138.178-.267.356-.546.542-.829,3.6-5.582,8.466-13.874,8.466-13.874s14.763,5.493,15.168,5.63C1957.7,1073.311,1957.435,1075.786,1956.994,1079.722Z" transform="translate(-1801.887 -1028.35)" fill="#fff"/>
            <path id="Trazado_207722" data-name="Trazado 207722" d="M1932.393,1176.378a102.074,102.074,0,0,1-13.623-.178c-.032-.275-.064-.546-.093-.813a98.506,98.506,0,0,0,13.246.219C1932.082,1175.868,1932.239,1176.127,1932.393,1176.378Z" transform="translate(-1806.78 -1121.998)" fill="#dae4ef"/>
            <path id="Trazado_207723" data-name="Trazado 207723" d="M2092.5,1159.952c-.028.263-.061.534-.093.809-7.826.279-15.649,1.225-23.468,1.824.178-.267.356-.546.542-.829C2077.15,1161.149,2084.827,1160.227,2092.5,1159.952Z" transform="translate(-1937.396 -1108.581)" fill="#dae4ef"/>
            <path id="Trazado_207724" data-name="Trazado 207724" d="M1966.408,1234.848c-.028.267-.056.538-.089.809a268.244,268.244,0,0,1-40.933-1.557c-.028-.267-.061-.538-.089-.809A267.465,267.465,0,0,0,1966.408,1234.848Z" transform="translate(-1812.534 -1172.33)" fill="#dae4ef"/>
            <path id="Trazado_207725" data-name="Trazado 207725" d="M1973.122,1323.529c-.024.271-.052.538-.077.809q-19.372.109-38.74-.073c-.02-.275-.044-.546-.069-.809Q1953.675,1323.638,1973.122,1323.529Z" transform="translate(-1820.304 -1250.705)" fill="#dae4ef"/>
            <path id="Trazado_207726" data-name="Trazado 207726" d="M1952.033,1383.965c-.024.275-.045.55-.065.821a106.746,106.746,0,0,1-37.183-.8c-1.2-.239-2.4-.5-3.592-.781-.505-.122-.291-.9.219-.781q1.644.388,3.3.72A106.009,106.009,0,0,0,1952.033,1383.965Z" transform="translate(-1800.024 -1301.947)" fill="#dae4ef"/>
            <path id="Trazado_207727" data-name="Trazado 207727" d="M1958.042,1594.007q-19.727.582-39.45-.408c-.52-.026-.519.783,0,.809q19.71.99,39.45.408C1958.561,1594.8,1958.563,1593.991,1958.042,1594.007Z" transform="translate(-1806.367 -1485.522)" fill="#dae4ef"/>
            <path id="Trazado_207728" data-name="Trazado 207728" d="M1998.48,1661.3c-11.467.316-23.027.583-34.384-1.015-.024-.267-.049-.538-.073-.817,11.382,1.618,22.966,1.339,34.457,1.023C1999,1660.473,1999,1661.282,1998.48,1661.3Z" transform="translate(-1846.196 -1542.777)" fill="#dae4ef"/>
            <path id="Trazado_207729" data-name="Trazado 207729" d="M1825.034,1117.638s1.588,26.732,2.991,39.54,4.492,41.121,4.492,41.121h-10.3s-6.808-26.83-9.235-38.155-5.528-30.023-4.045-32.9S1825.034,1117.638,1825.034,1117.638Z" transform="translate(-1711.052 -1071.8)" fill="#084a93"/>
            <path id="Trazado_207730" data-name="Trazado 207730" d="M2150.3,1085.422s-3.751,29.461-4.83,49.82a308,308,0,0,0,0,35.054h34.65s.943-65.659-1.483-70.917S2150.3,1085.422,2150.3,1085.422Z" transform="translate(-2003.497 -1043.797)" fill="#084a93"/>
            <path id="Trazado_207731" data-name="Trazado 207731" d="M2059.856,1465.436c-4.045,5.8-13.885,3.64-17.8,2.427-2.738-.849-21.7-8.656-32.807-13.247l-.97-.4c-1.578-.655-2.965-1.229-4.081-1.695l-.04-.016c-1.849-.765-2.953-1.226-2.953-1.226l6.714-15.908,2.819.7.037.008,4.3,1.068.809.2,22.986,5.719,1.841-8.648,19.953,6.876S2063.9,1459.64,2059.856,1465.436Z" transform="translate(-1878.518 -1347.163)" fill="#ff9c78"/>
            <path id="Trazado_207732" data-name="Trazado 207732" d="M1880.456,1332.491c3.368,1.275,5.234,2.879,4.957,5.325s-3.872,1.984-7.24.71-5.5-3.629-4.957-5.325C1874.205,1330.121,1877.088,1331.217,1880.456,1332.491Z" transform="translate(-1767.19 -1257.444)" fill="#ff9c78"/>
            <path id="Trazado_207733" data-name="Trazado 207733" d="M2271.293,1175.985a23.9,23.9,0,0,1,7.448,8.99c3.236,6.337,8.359,37.077,8.359,37.077l-28.669-3.622s-5-28.735-4.614-30.084S2271.293,1175.985,2271.293,1175.985Z" transform="translate(-2098.077 -1122.517)" fill="#084a93"/>
            <path id="Trazado_207734" data-name="Trazado 207734" d="M1907.311,1345.435s-6.311-9.3-13.22-12.134-8.159-2.3-8.159-2.3l-.473,4.905s12.71,6.229,12.979,6.431S1907.311,1345.435,1907.311,1345.435Z" transform="translate(-1777.905 -1257.226)" fill="#ff9c78"/>
            <path id="Trazado_207735" data-name="Trazado 207735" d="M1806.509,1355.495s-8.063-6.539-10.827-7.887a93.2,93.2,0,0,0-14.831-4.719c-3.505-.674-6.067-.573-6.067,1.888,0,2.7,11.46,6.2,11.46,6.2s-8.561-1.564-11.932-1.961-4.584.848-4.786,2.331.539,2.327,2.225,3.2,3.3,1.685,3.3,1.685-3.158-.5-3.505,1.685c-.457,2.865,3.792,4.382,8.949,6.253,4.393,1.593,19.3,7.23,19.3,7.23l11.056-5.393Z" transform="translate(-1677.104 -1267.286)" fill="#ff9c78"/>
            <rect id="Rectángulo_297987" data-name="Rectángulo 297987" width="195.225" height="4.314" rx="2.157" transform="translate(0 123.398)" fill="#bdacac"/>
            <path id="Trazado_207736" data-name="Trazado 207736" d="M1662.31,1576.919c-1.015,4.119-2.442,6.611-5.427,6.611s-2.525-4.237-1.51-8.357,2.388-7.726,5.641-6.522C1663.044,1569.4,1663.325,1572.8,1662.31,1576.919Z" transform="translate(-1577.236 -1463.633)" fill="#ff9c78"/>
            <path id="Trazado_207737" data-name="Trazado 207737" d="M1563.106,1574.277c-1.04,4.113-1.217,8.331,1.683,8.386,2.213.042,4.22-2.554,5.26-6.667s2.738-9.144-1.915-8.408C1565.964,1567.932,1564.146,1570.164,1563.106,1574.277Z" transform="translate(-1497.103 -1462.85)" fill="#ff9c78"/>
            <path id="Trazado_207738" data-name="Trazado 207738" d="M1611.266,1566.191c-1.143,4.64-2.96,7.355-6.226,7.378s-3.23-4.786-2.087-9.426,3.906-7.826,6.226-7.378C1613.395,1557.579,1612.41,1561.551,1611.266,1566.191Z" transform="translate(-1531.729 -1453.469)" fill="#ff9c78"/>
            <path id="Trazado_207739" data-name="Trazado 207739" d="M1676.669,1572.158s4.618,4.609,6.135,8.856,1.416,5.629,1.416,5.629l-12.168.139Z" transform="translate(-1592.404 -1466.885)" fill="#ff9c78"/>
            <path id="Trazado_207740" data-name="Trazado 207740" d="M1687.207,1616.812c-2.033.041-5.425.022-6.016-2.55-.756-3.29,3.893-2.758,5.707-2.2.5.154.712-.627.215-.78a10.8,10.8,0,0,0-2.474-.44,12.56,12.56,0,0,0,.543-2.132c.083-.51-.7-.728-.78-.215a12.578,12.578,0,0,1-.578,2.234.375.375,0,0,0-.015.1c-1.83.068-3.508.774-3.489,2.9.03,3.514,4.287,3.937,6.885,3.885A.4.4,0,0,0,1687.207,1616.812Z" transform="translate(-1599.592 -1498.218)" fill="#e86e41"/>
            <path id="Trazado_207741" data-name="Trazado 207741" d="M1659.54,1581.4a31.8,31.8,0,0,0-1.97,9.195c-.034.52.775.518.809,0a31.069,31.069,0,0,1,1.941-8.979C1660.5,1581.124,1659.721,1580.913,1659.54,1581.4Z" transform="translate(-1579.815 -1474.678)" fill="#e86e41"/>
            <path id="Trazado_207742" data-name="Trazado 207742" d="M1608.294,1575.929c-.923,3.121-2.136,6.678-1.951,9.968.029.518.838.521.809,0-.181-3.21,1.019-6.7,1.922-9.752A.4.4,0,0,0,1608.294,1575.929Z" transform="translate(-1535.271 -1469.916)" fill="#e86e41"/>
            <path id="Trazado_207743" data-name="Trazado 207743" d="M1832.328,1450.8a84.363,84.363,0,0,0-9.615-2.56c-.5-.112-.774.651-.266.764a84.322,84.322,0,0,1,9.615,2.56A.4.4,0,0,0,1832.328,1450.8Z" transform="translate(-1722.896 -1359.164)" fill="#e86e41"/>
            <path id="Trazado_207744" data-name="Trazado 207744" d="M1895.305,1353.413q-4.6-2.113-9.335-3.884c-.488-.182-.7.6-.215.78q4.641,1.735,9.142,3.8C1895.367,1354.327,1895.779,1353.63,1895.305,1353.413Z" transform="translate(-1777.924 -1273.344)" fill="#e86e41"/>
            <path id="Trazado_207745" data-name="Trazado 207745" d="M1904.278,1407.9l-2.37-.927c-.485-.189-.7.592-.215.78l2.37.926C1904.548,1408.871,1904.758,1408.089,1904.278,1407.9Z" transform="translate(-1791.781 -1323.276)" fill="#e86e41"/>
            <g id="Grupo_174827" data-name="Grupo 174827" transform="translate(0.325 76.197)">
              <path id="Trazado_207746" data-name="Trazado 207746" d="M1130.776,1397h-54.334l-10.966-45.705a1.213,1.213,0,0,1,1.18-1.5h51.838a1.214,1.214,0,0,1,1.18.93Z" transform="translate(-1065.442 -1349.803)" fill="#dae4ef"/>
              <path id="Rectángulo_297988" data-name="Rectángulo 297988" d="M0,0H52.817a3.64,3.64,0,0,1,3.64,3.64v0a0,0,0,0,1,0,0H0a0,0,0,0,1,0,0V0A0,0,0,0,1,0,0Z" transform="translate(59.402 43.561)" fill="#dae4ef"/>
            </g>
            <g id="Grupo_174828" data-name="Grupo 174828" transform="translate(158.766 69.225)">
              <path id="Trazado_207747" data-name="Trazado 207747" d="M2277.483,1322.591l-.042,0a.379.379,0,0,1-.336-.418l2.779-25.347a.379.379,0,0,1,.753.082l-2.779,25.347A.378.378,0,0,1,2277.483,1322.591Z" transform="translate(-2277.104 -1296.487)" fill="#452a20"/>
            </g>
            <g id="Grupo_174829" data-name="Grupo 174829" transform="translate(144.624 43.069)">
              <path id="Trazado_207748" data-name="Trazado 207748" d="M2169.333,1120.208a.379.379,0,0,1-.065-.752c2.755-.486,5.783-1.1,6.542-1.376-.21-1.777-1.9-14.4-2.806-21.189a.379.379,0,0,1,.751-.1c.473,3.528,2.834,21.143,2.834,21.487,0,.366,0,.655-7.189,1.923A.37.37,0,0,1,2169.333,1120.208Z" transform="translate(-2168.955 -1096.464)" fill="#452a20"/>
            </g>
            <g id="Grupo_174830" data-name="Grupo 174830" transform="translate(108.096 47.45)">
              <path id="Trazado_207749" data-name="Trazado 207749" d="M1896.316,1151.656a.375.375,0,0,1-.092-.011c-6.4-1.6-6.534-1.992-6.6-2.2-.109-.327.84-6.772,2.819-19.156a.379.379,0,0,1,.748.119c-1.106,6.92-2.72,17.3-2.827,18.735a53.419,53.419,0,0,0,6.049,1.77.379.379,0,0,1-.092.746Z" transform="translate(-1889.611 -1129.967)" fill="#452a20"/>
            </g>
            <g id="Grupo_174834" data-name="Grupo 174834" transform="translate(110.974 21.109)">
              <g id="Grupo_174831" data-name="Grupo 174831" transform="translate(0 2.867)">
                <path id="Trazado_207750" data-name="Trazado 207750" d="M1914.83,956.882a3.213,3.213,0,1,1,3.022-4.3h0a3.213,3.213,0,0,1-3.022,4.3Zm-.006-6.047a2.834,2.834,0,1,0,2.671,1.879A2.822,2.822,0,0,0,1914.825,950.835Z" transform="translate(-1911.615 -950.456)" fill="#fff"/>
              </g>
              <g id="Grupo_174832" data-name="Grupo 174832" transform="translate(8.009)">
                <path id="Trazado_207751" data-name="Trazado 207751" d="M1976.08,934.957a3.213,3.213,0,1,1,1.079-.188A3.218,3.218,0,0,1,1976.08,934.957Zm0-6.048a2.835,2.835,0,1,0,2.666,1.881h0a2.84,2.84,0,0,0-2.666-1.881Z" transform="translate(-1972.863 -928.53)" fill="#fff"/>
              </g>
              <g id="Grupo_174833" data-name="Grupo 174833" transform="translate(5.995 4.054)">
                <rect id="Rectángulo_297989" data-name="Rectángulo 297989" width="2.462" height="0.379" transform="matrix(0.942, -0.337, 0.337, 0.942, 0, 0.829)" fill="#fff"/>
              </g>
            </g>
            <g id="Grupo_174835" data-name="Grupo 174835" transform="translate(125.037 17.968)">
              <rect id="Rectángulo_297990" data-name="Rectángulo 297990" width="8.136" height="0.379" transform="translate(0 5.043) rotate(-38.303)" fill="#fff"/>
            </g>
            <path id="Trazado_207752" data-name="Trazado 207752" d="M2062.728,893.647c-.578,4.629-4.8,6.978-4.8,6.978a37.279,37.279,0,0,1-1.635-6.41c-.278-2.544,1.075-4.778,3.022-4.991S2063.045,891.108,2062.728,893.647Z" transform="translate(-1926.365 -873.242)" fill="#ff9c78"/>
            <path id="Trazado_207753" data-name="Trazado 207753" d="M2064.469,919.838c-.333-.4-.9.174-.572.572a2.645,2.645,0,0,1,.154,3.153c-.284.438.416.844.7.408A3.471,3.471,0,0,0,2064.469,919.838Z" transform="translate(-1932.924 -899.747)" fill="#e86e41"/>
            <path id="Trazado_207754" data-name="Trazado 207754" d="M1260.727,1486.3c0,1.3-2.958,2.359-6.607,2.359s-6.606-1.057-6.606-2.359,2.958-2.359,6.606-2.359S1260.727,1485,1260.727,1486.3Z" transform="translate(-1223.38 -1390.202)" fill="#fff"/>
            <path id="Trazado_207755" data-name="Trazado 207755" d="M2036.131,1448.411c-2.188,5.719-4.255,11.681-6.6,17.336-1.577-.655-4.322-1.79-5.438-2.255q3.385-8.172,6.54-16.446l.037.008Z" transform="translate(-1898.414 -1358.133)" fill="#452a20"/>
            <circle id="Elipse_13209" data-name="Elipse 13209" cx="4.261" cy="4.261" r="4.261" transform="translate(126.961 100.831) rotate(-79.099)" fill="#fff"/>
            <g id="Grupo_174836" data-name="Grupo 174836" transform="translate(1.091 77.778)">
              <path id="Trazado_207756" data-name="Trazado 207756" d="M1132.756,1404.594a.379.379,0,0,1-.368-.29l-10.042-41.655h-50.665a.379.379,0,1,1,0-.758h51.262l10.182,42.235a.379.379,0,0,1-.28.457A.383.383,0,0,1,1132.756,1404.594Z" transform="translate(-1071.302 -1361.892)" fill="#bdacac"/>
            </g>
          </g>
          <g id="Grupo_174845" data-name="Grupo 174845" transform="translate(578.773 269.612)">
            <path id="Trazado_207757" data-name="Trazado 207757" d="M2199.832,351.024c.011.016.025.036.038.052a5.313,5.313,0,0,0,3.6,2.047,5.143,5.143,0,0,0,.687.044h121.809c3.1,0,5.741-.049,5.887-3.147l2.353-45.141a5.306,5.306,0,0,0-4.778-5.583c-.194-.019-.386-.03-.583-.03H2207.032a5.947,5.947,0,0,0-5.887,5.613l-2.353,45.141C2198.729,351.328,2199.123,350.069,2199.832,351.024Z" transform="translate(-2193.675 -295.388)" fill="#452a20"/>
            <path id="Trazado_207758" data-name="Trazado 207758" d="M2159.705,318.771a5.4,5.4,0,0,0,5.459,5.7h124.01a6.047,6.047,0,0,0,5.991-5.7l2.164-41.1.109-2.329a5.4,5.4,0,0,0-5.457-5.7H2167.972a6.047,6.047,0,0,0-5.993,5.7l-.109,2.329Z" transform="translate(-2159.699 -269.635)" fill="#fff"/>
            <path id="Trazado_207759" data-name="Trazado 207759" d="M2162.169,352.781l1.9-44.157a2.133,2.133,0,0,1-.278.092l-1.894,44.065a5.522,5.522,0,0,0,4.642,5.753,1.155,1.155,0,0,1,0-.277A5.264,5.264,0,0,1,2162.169,352.781Z" transform="translate(-2161.602 -303.523)" fill="#c2a59b"/>
            <path id="Trazado_207760" data-name="Trazado 207760" d="M2311.737,275.316a5.4,5.4,0,0,0-5.457-5.7l-124.139,0a6.047,6.047,0,0,0-5.993,5.7Z" transform="translate(-2173.997 -269.612)" fill="#dae4ef"/>
            <g id="Grupo_174844" data-name="Grupo 174844" transform="translate(8.616 11.842)">
              <g id="Grupo_174838" data-name="Grupo 174838" transform="translate(7.251 4.049)">
                <path id="Trazado_207761" data-name="Trazado 207761" d="M2288.956,391.8l-.119,2.03a.7.7,0,0,0,.7.738h3.712a.7.7,0,0,0,.7-.656l.119-2.03a.7.7,0,0,0-.7-.738h-3.712A.7.7,0,0,0,2288.956,391.8Z" transform="translate(-2287.816 -391.139)" fill="#b9ddfc"/>
                <path id="Trazado_207762" data-name="Trazado 207762" d="M2285.608,482.2h3.712a.7.7,0,0,0,.7-.656l.119-2.03a.7.7,0,0,0-.7-.738h-3.712a.7.7,0,0,0-.7.656l-.12,2.03A.7.7,0,0,0,2285.608,482.2Z" transform="translate(-2284.405 -467.318)" fill="#b9ddfc"/>
                <path id="Trazado_207763" data-name="Trazado 207763" d="M2281.866,571.673h3.463a.821.821,0,0,0,.82-.773l.1-1.782a.821.821,0,0,0-.82-.87h-3.463a.822.822,0,0,0-.82.773l-.1,1.782A.821.821,0,0,0,2281.866,571.673Z" transform="translate(-2281.044 -545.089)" fill="#b9ddfc"/>
              </g>
              <g id="Grupo_174839" data-name="Grupo 174839" transform="translate(24.225 4.066)">
                <path id="Trazado_207764" data-name="Trazado 207764" d="M2420.964,394.682h10.286a.7.7,0,0,0,.7-.651l.135-2.019a.7.7,0,0,0-.7-.744H2421.1a.7.7,0,0,0-.7.651l-.135,2.019A.7.7,0,0,0,2420.964,394.682Z" transform="translate(-2419.036 -391.269)" fill="#f7efec"/>
                <path id="Trazado_207765" data-name="Trazado 207765" d="M2416.081,482.235h13.844a.7.7,0,0,0,.7-.651l.135-2.019a.7.7,0,0,0-.7-.744h-13.843a.7.7,0,0,0-.7.651l-.135,2.019A.7.7,0,0,0,2416.081,482.235Z" transform="translate(-2414.791 -467.373)" fill="#f7efec"/>
                <path id="Trazado_207766" data-name="Trazado 207766" d="M2411.546,571.531h10.56a.7.7,0,0,0,.7-.651l.135-2.019a.7.7,0,0,0-.7-.744h-10.559a.7.7,0,0,0-.7.651l-.135,2.019A.7.7,0,0,0,2411.546,571.531Z" transform="translate(-2410.849 -544.993)" fill="#dae4ef"/>
              </g>
              <g id="Grupo_174840" data-name="Grupo 174840" transform="translate(74.045 4.066)">
                <path id="Trazado_207767" data-name="Trazado 207767" d="M2796.985,482.235h13.843a.7.7,0,0,0,.7-.651l.135-2.019a.7.7,0,0,0-.7-.744H2797.12a.7.7,0,0,0-.7.651l-.135,2.019A.7.7,0,0,0,2796.985,482.235Z" transform="translate(-2795.706 -467.373)" fill="#f7efec"/>
                <path id="Trazado_207768" data-name="Trazado 207768" d="M2975.577,482.235h13.843a.7.7,0,0,0,.7-.651l.135-2.019a.7.7,0,0,0-.7-.744h-13.843a.7.7,0,0,0-.7.651l-.135,2.019A.7.7,0,0,0,2975.577,482.235Z" transform="translate(-2950.945 -467.373)" fill="#f7efec"/>
                <path id="Trazado_207769" data-name="Trazado 207769" d="M2792.537,569.656h13.844a.7.7,0,0,0,.7-.651l.135-2.019a.7.7,0,0,0-.7-.744h-13.843a.7.7,0,0,0-.7.651l-.135,2.019A.7.7,0,0,0,2792.537,569.656Z" transform="translate(-2791.84 -543.363)" fill="#b9ddfc"/>
                <path id="Trazado_207770" data-name="Trazado 207770" d="M2801.519,394.682H2811.8a.7.7,0,0,0,.7-.651l.135-2.019a.7.7,0,0,0-.7-.744h-10.285a.7.7,0,0,0-.7.651l-.135,2.019A.7.7,0,0,0,2801.519,394.682Z" transform="translate(-2799.647 -391.269)" fill="#b9ddfc"/>
              </g>
              <g id="Grupo_174841" data-name="Grupo 174841" transform="translate(48.599 15.532)">
                <path id="Trazado_207771" data-name="Trazado 207771" d="M2602.217,482.366h13.3a.7.7,0,0,0,.7-.651l.135-2.019a.7.7,0,0,0-.7-.744h-13.3a.7.7,0,0,0-.7.651l-.135,2.019A.7.7,0,0,0,2602.217,482.366Z" transform="translate(-2600.961 -478.953)" fill="#f7efec"/>
                <path id="Trazado_207772" data-name="Trazado 207772" d="M2597.943,571.661h10.286a.7.7,0,0,0,.7-.651l.135-2.019a.7.7,0,0,0-.7-.744h-10.285a.7.7,0,0,0-.7.651l-.135,2.019A.7.7,0,0,0,2597.943,571.661Z" transform="translate(-2597.246 -556.571)" fill="#ffe4a9"/>
              </g>
              <g id="Grupo_174842" data-name="Grupo 174842" transform="translate(98.436 4.043)">
                <path id="Trazado_207773" data-name="Trazado 207773" d="M2979.065,569.612h10.286a.7.7,0,0,0,.7-.651l.135-2.019a.7.7,0,0,0-.7-.744H2979.2a.7.7,0,0,0-.7.651l-.135,2.019A.7.7,0,0,0,2979.065,569.612Z" transform="translate(-2978.368 -543.302)" fill="#f7efec"/>
                <path id="Trazado_207774" data-name="Trazado 207774" d="M2987.96,394.508h12.748a.7.7,0,0,0,.7-.651l.135-2.019a.7.7,0,0,0-.7-.744H2988.1a.7.7,0,0,0-.7.651l-.135,2.019A.7.7,0,0,0,2987.96,394.508Z" transform="translate(-2986.1 -391.095)" fill="#f7efec"/>
              </g>
              <path id="Trazado_207775" data-name="Trazado 207775" d="M2269.689,395.512l-.013.26v.014h25.049v-.014l.014-.26Zm-25.027,0-.014.26v.014h24.206v-.014l.014-.26Zm25.027,0-.013.26v.014h25.049v-.014l.014-.26Zm-25.027,0-.014.26v.014h24.206v-.014l.014-.26Zm98.926-23.72-.014.274-.967,19.131a4.313,4.313,0,0,1-1.453,2.633,6.022,6.022,0,0,1-3.044,1.669,1.228,1.228,0,0,1-.2.014H2231.23c-.331,0-.607-.006-.845-.014a7.4,7.4,0,0,1-1.19-.123c-2.124-.391-3.361-2.942-3.331-4.2l.969-19.112.014-.274.342-7.025a5.253,5.253,0,0,1,3.747-4.182,8.084,8.084,0,0,1,1.494-.134h106.683c2.723,0,4.863,2.622,4.817,4.335Zm-98.926,23.72-.014.26v.014h24.206v-.014l.014-.26Zm25.027,0-.013.26v.014h25.049v-.014l.014-.26Zm70.954-35.079a4.573,4.573,0,0,0-1.5-.257H2232.458a8.435,8.435,0,0,0-1.546.14,3.385,3.385,0,0,0-.455.118,5.727,5.727,0,0,0-3.544,4.351l-.342,7.006-.014.274-.967,19.131a5.1,5.1,0,0,0,2.991,4.3,2.992,2.992,0,0,0,.536.151,8.535,8.535,0,0,0,1.223.123c.244.008.526.014.862.014h106.683a1.394,1.394,0,0,0,.208-.014,3.736,3.736,0,0,0,1-.274,7.223,7.223,0,0,0,2.247-1.486,4.611,4.611,0,0,0,1.546-2.835l.967-19.112.014-.274.342-7.022v0C2344.245,363.285,2342.751,361.164,2340.644,360.433Z" transform="translate(-2225.59 -360.176)" fill="#084a93"/>
              <path id="Trazado_207776" data-name="Trazado 207776" d="M2371.842,360.176l-.014.257v.016l-.613,11.341-.017.274-.613,11.311-.014.274-.643,11.858-.014.274-.056,0h-.274l.055,0,.014-.274.643-11.858.014-.274.613-11.311.016-.274.613-11.341v-.016l.014-.257Z" transform="translate(-2350.757 -360.176)" fill="#084a93"/>
              <path id="Trazado_207777" data-name="Trazado 207777" d="M2559.05,360.176l-.014.257v.016l-.613,11.341-.016.274-.613,11.311-.014.274-.643,11.858-.014.274-.056,0h-.274l.056,0,.014-.274.643-11.858.013-.274.613-11.311.016-.274.613-11.341v-.016l.013-.257Z" transform="translate(-2513.484 -360.176)" fill="#084a93"/>
              <path id="Trazado_207778" data-name="Trazado 207778" d="M2746.4,362.186l-.013.274-1.922,35.072h-.273l1.922-35.072.013-.274Z" transform="translate(-2676.376 -361.923)" fill="#084a93"/>
              <path id="Trazado_207779" data-name="Trazado 207779" d="M2933.5,362.143l-.013.274-1.922,35.078h-.274l1.922-35.078.014-.274Z" transform="translate(-2839.013 -361.886)" fill="#084a93"/>
              <g id="Grupo_174843" data-name="Grupo 174843" transform="translate(0.403 11.616)">
                <path id="Trazado_207780" data-name="Trazado 207780" d="M2350.291,449.005l-.013.274H2232.984l.014-.274Z" transform="translate(-2232.42 -449.005)" fill="#084a93"/>
                <path id="Trazado_207781" data-name="Trazado 207781" d="M2345.978,537.6l-.011.274H2228.674l.014-.274Z" transform="translate(-2228.674 -526.012)" fill="#084a93"/>
              </g>
            </g>
            <path id="Trazado_207782" data-name="Trazado 207782" d="M3077.052,280.969h2.706a.792.792,0,0,0,.791-.739l.122-1.829a.792.792,0,0,0-.79-.845h-2.706a.792.792,0,0,0-.79.74l-.123,1.829A.793.793,0,0,0,3077.052,280.969Z" transform="translate(-2956.407 -276.517)" fill="#084a93"/>
            <path id="Trazado_207783" data-name="Trazado 207783" d="M3124.142,281.493h2.706a.792.792,0,0,0,.79-.739l.122-1.829a.792.792,0,0,0-.79-.845h-2.706a.792.792,0,0,0-.79.739l-.122,1.829A.792.792,0,0,0,3124.142,281.493Z" transform="translate(-2997.34 -276.973)" fill="#084a93"/>
          </g>
          <g id="Grupo_174851" data-name="Grupo 174851" transform="translate(598.627 343.105)">
            <g id="Grupo_174846" data-name="Grupo 174846" transform="translate(4.045 6.404)">
              <path id="Trazado_207784" data-name="Trazado 207784" d="M2429.453,884.275l-.545,11.568-.762,18.019-.23,4.88-.123,2.627a3.816,3.816,0,0,1-.142.851l-.063,1.338a3.883,3.883,0,0,1-1.672,3,0,0,0,0,1,0,0,3.638,3.638,0,0,1-2.072.657l-14.231,0-9.811,0-50.49.008c-4.723-.03-6.459-1.314-6.85-5.079l.41-8.892,1.015-23.61c.063-1.366.671,1.262,1.779.632l.282-6.012a3.834,3.834,0,0,1,3.747-3.665h76.357A3.425,3.425,0,0,1,2429.453,884.275Z" transform="translate(-2342.459 -880.61)" fill="#452a20"/>
              <path id="Trazado_207785" data-name="Trazado 207785" d="M2428.911,936.861l-.765,18.016-.23,4.88-.123,2.627a3.816,3.816,0,0,1-.142.851l-.063,1.338a3.883,3.883,0,0,1-1.672,3,0,0,0,0,1,0,0,3.638,3.638,0,0,1-2.072.657l-14.231,0-9.811,0-50.49.008c-4.723-.03-6.459-1.314-6.85-5.079l.41-8.892c12.28-.238,22.053,2.562,34.325,2.554,8.114-.006,17.334-.3,24.9-1.793,3.922-.769,7.443,4.715,10.929,2.723-.4-.3-.791-.6-1.185-.9a2.711,2.711,0,0,1-.931-3.4,2.812,2.812,0,0,1,2.9-1.645l-1.128-.818c-2.761-2.009-.128-6.136,2.906-4.707q2.78,1.314,5.561,2.622-3.3-2.422-6.612-4.849a2.834,2.834,0,0,1,1-4.989c-.189-.153-.375-.3-.561-.452a2.783,2.783,0,0,1,.783-4.866l-1.155-.862a2.77,2.77,0,0,1-.78-3.727,2.719,2.719,0,0,1,3.683-.977q5.76,4.265,11.412,8.673Z" transform="translate(-2342.459 -921.625)" fill="#452a20"/>
            </g>
            <path id="Trazado_207786" data-name="Trazado 207786" d="M2313.456,835.3l-1.91,42.775a3.473,3.473,0,0,0,3.508,3.664h79.711a3.736,3.736,0,0,0,1.087-.161,3.892,3.892,0,0,0,2.764-3.5l1.909-42.775a3.462,3.462,0,0,0-2.436-3.5,3.591,3.591,0,0,0-1.073-.161h-79.711A3.888,3.888,0,0,0,2313.456,835.3Z" transform="translate(-2311.541 -831.639)" fill="#fff"/>
            <path id="Trazado_207787" data-name="Trazado 207787" d="M2313.712,860.718l-1.9,42.671a3.347,3.347,0,0,0,3.378,3.528h.454a1.283,1.283,0,0,0,.066.273h-.532a3.605,3.605,0,0,1-3.639-3.8l1.9-42.643A1.254,1.254,0,0,0,2313.712,860.718Z" transform="translate(-2311.529 -856.916)" fill="#dae4ef"/>
            <path id="Trazado_207788" data-name="Trazado 207788" d="M2325.369,835.3l-.122,2.358h87.071l.121-2.358a3.462,3.462,0,0,0-2.436-3.5,3.588,3.588,0,0,0-1.073-.161H2329.22A3.888,3.888,0,0,0,2325.369,835.3Z" transform="translate(-2323.453 -831.639)" fill="#b9ddfc"/>
            <g id="Grupo_174850" data-name="Grupo 174850" transform="translate(7.833 12.111)">
              <path id="Trazado_207789" data-name="Trazado 207789" d="M2591.686,960.716h10.978a.541.541,0,0,0,.541-.519l.065-1.6a.541.541,0,0,0-.54-.563h-10.978a.541.541,0,0,0-.541.519l-.066,1.6A.541.541,0,0,0,2591.686,960.716Z" transform="translate(-2562.414 -953.616)" fill="#084a93"/>
              <path id="Trazado_207790" data-name="Trazado 207790" d="M2429.81,959.209h3.964a.541.541,0,0,0,.541-.519l.065-1.6a.541.541,0,0,0-.541-.563h-3.964a.541.541,0,0,0-.541.519l-.066,1.6A.541.541,0,0,0,2429.81,959.209Z" transform="translate(-2421.705 -952.306)" fill="#084a93"/>
              <path id="Trazado_207791" data-name="Trazado 207791" d="M2784.587,959.578l-.039,1.6a.541.541,0,0,0,.541.554h11.4a.541.541,0,0,0,.541-.528l.039-1.6a.541.541,0,0,0-.541-.554h-11.4A.541.541,0,0,0,2784.587,959.578Z" transform="translate(-2730.527 -954.501)" fill="#084a93"/>
              <path id="Trazado_207792" data-name="Trazado 207792" d="M2584.709,1106.52h8.789a.54.54,0,0,0,.541-.519l.066-1.6a.541.541,0,0,0-.541-.563h-8.789a.541.541,0,0,0-.54.519l-.066,1.6A.541.541,0,0,0,2584.709,1106.52Z" transform="translate(-2556.35 -1080.354)" fill="#084a93"/>
              <path id="Trazado_207793" data-name="Trazado 207793" d="M2422.833,1105.013h3.964a.541.541,0,0,0,.54-.519l.066-1.6a.541.541,0,0,0-.541-.563H2422.9a.541.541,0,0,0-.541.519l-.065,1.6A.541.541,0,0,0,2422.833,1105.013Z" transform="translate(-2415.641 -1079.044)" fill="#084a93"/>
              <path id="Trazado_207794" data-name="Trazado 207794" d="M2777.61,1105.381l-.039,1.6a.541.541,0,0,0,.541.554h10.031a.541.541,0,0,0,.541-.528l.039-1.6a.541.541,0,0,0-.541-.554h-10.031A.541.541,0,0,0,2777.61,1105.381Z" transform="translate(-2724.462 -1081.238)" fill="#084a93"/>
              <path id="Trazado_207795" data-name="Trazado 207795" d="M2588.582,1033.354h13.686a.541.541,0,0,0,.54-.525l.048-1.6a.541.541,0,0,0-.541-.557H2588.63a.541.541,0,0,0-.541.525l-.047,1.6A.541.541,0,0,0,2588.582,1033.354Z" transform="translate(-2559.716 -1016.756)" fill="#084a93"/>
              <path id="Trazado_207796" data-name="Trazado 207796" d="M2782,1031.84l-.034,1.6a.541.541,0,0,0,.541.553h7.947a.541.541,0,0,0,.541-.529l.034-1.6a.541.541,0,0,0-.541-.552h-7.947A.541.541,0,0,0,2782,1031.84Z" transform="translate(-2728.278 -1017.313)" fill="#084a93"/>
              <path id="Trazado_207797" data-name="Trazado 207797" d="M2426,1033.855h5.609a.541.541,0,0,0,.541-.519l.065-1.6a.541.541,0,0,0-.54-.563h-5.609a.541.541,0,0,0-.54.519l-.066,1.6A.541.541,0,0,0,2426,1033.855Z" transform="translate(-2418.394 -1017.191)" fill="#084a93"/>
              <g id="Grupo_174848" data-name="Grupo 174848">
                <path id="Trazado_207798" data-name="Trazado 207798" d="M2396.944,953.962h25.049l.014-.274h-25.049Zm25.323,0h.944l.013-.274h-.944Zm-25.323,0h25.049l.014-.274h-25.049Zm25.337-.274-.014.274h.944l.013-.274Zm-50.572-4.316,1.084-20.5a5.086,5.086,0,0,1,4.724-4.335h61.253a7.887,7.887,0,0,1,1.48.134,4.583,4.583,0,0,1,3.309,4.182l-1.084,20.5c-.1,1.256-1.6,3.809-3.768,4.2a8.222,8.222,0,0,1-1.5.134h-61.253a3.839,3.839,0,0,1-3.187-1.382A4.321,4.321,0,0,1,2371.709,949.373Zm50.559,4.589h.944l.013-.274h-.944Zm-25.323,0h25.049l.014-.274h-25.049Zm43.358-29.555a8.228,8.228,0,0,0-1.532-.139h-61.253a5.4,5.4,0,0,0-5,4.589v0l-1.084,20.5a4.609,4.609,0,0,0,1.126,3.139,4.115,4.115,0,0,0,3.389,1.47H2437.2a8.765,8.765,0,0,0,1.552-.137,5.669,5.669,0,0,0,3.993-4.453l.251-4.748.014-.274.512-9.669.014-.274.293-5.534A4.9,4.9,0,0,0,2440.3,924.408Z" transform="translate(-2371.427 -924.267)" fill="#084a93"/>
                <g id="Grupo_174847" data-name="Grupo 174847" transform="translate(21.138)">
                  <path id="Trazado_207799" data-name="Trazado 207799" d="M2728.058,924.534l.014-.274h.273l-.014.274-1.313,29.148-.014.274h-.274l.014-.274Z" transform="translate(-2701.408 -924.26)" fill="#084a93"/>
                  <path id="Trazado_207800" data-name="Trazado 207800" d="M2534.4,924.534l.014-.274h.276l-.013.274-1.313,29.148-.014.274h-.274l.014-.274Z" transform="translate(-2533.077 -924.26)" fill="#084a93"/>
                </g>
              </g>
              <g id="Grupo_174849" data-name="Grupo 174849" transform="translate(0.415 10.143)">
                <path id="Trazado_207801" data-name="Trazado 207801" d="M2450.231,1001.83l-.013.274h-71.092l.013-.274Z" transform="translate(-2378.534 -1001.83)" fill="#084a93"/>
                <path id="Trazado_207802" data-name="Trazado 207802" d="M2445.776,1077.864l-.014.274H2374.6l.014-.274Z" transform="translate(-2374.605 -1067.922)" fill="#084a93"/>
              </g>
            </g>
            <path id="Trazado_207803" data-name="Trazado 207803" d="M2919.938,843.7h2.706a.792.792,0,0,0,.791-.739l.123-1.829a.792.792,0,0,0-.791-.845h-2.706a.793.793,0,0,0-.791.739l-.122,1.829A.792.792,0,0,0,2919.938,843.7Z" transform="translate(-2839.692 -839.155)" fill="#084a93"/>
            <path id="Trazado_207804" data-name="Trazado 207804" d="M2871.1,843.7h2.706a.792.792,0,0,0,.791-.739l.122-1.829a.792.792,0,0,0-.791-.845h-2.706a.793.793,0,0,0-.791.739l-.122,1.829A.792.792,0,0,0,2871.1,843.7Z" transform="translate(-2797.244 -839.155)" fill="#084a93"/>
          </g>
          <g id="Grupo_174859" data-name="Grupo 174859" transform="translate(388.788 288.96)">
            <path id="Trazado_207805" data-name="Trazado 207805" d="M738.7,450.408l-2.572,55.665c.643,5.734,3.425,7.688,11,7.734l68.35-.014,48.082-.011a5.986,5.986,0,0,0,5.986-5.577l.072-1.531a5.356,5.356,0,0,0,.141-.978l3.128-66.838a5.346,5.346,0,0,0-5.464-5.577H748.056a5.986,5.986,0,0,0-5.986,5.577l-.315,6.745A5.871,5.871,0,0,0,738.7,450.408Z" transform="translate(-732.291 -431.228)" fill="#452a20"/>
            <path id="Trazado_207806" data-name="Trazado 207806" d="M1302.773,814.959c1.28.827-2.639,1.65-1.358,2.477l53.282-.011a5.986,5.986,0,0,0,5.986-5.577l.072-1.531a5.38,5.38,0,0,0,.141-.978l.9-19.226c-5.74-2.553-6.878-5.013-12.709-7.376a2.7,2.7,0,0,0-3.138,1.49,2.442,2.442,0,0,0,.609,2.956,2.729,2.729,0,0,0-1.219.843,2.8,2.8,0,0,0-.6,2.184,2.506,2.506,0,0,0-.332,2.306c-.678.978-.725.108.286.962l2.585,2.187a2.792,2.792,0,0,0-3.219,1.119,2.534,2.534,0,0,0,.571,3.366,2.225,2.225,0,0,0-.127.252c-.253-.152-.505-.306-.761-.455a2.69,2.69,0,0,0-3.416.772q-1.275-.736-2.556-1.458a2.69,2.69,0,0,0-3.384.661q-.078.093-.149.2-2.02-1.3-4.052-2.6a2.715,2.715,0,0,0-3.6.921,2.49,2.49,0,0,0-.4,1.165q-2.483-1.5-4.99-2.97a2.729,2.729,0,0,0-3.6.924,2.412,2.412,0,0,0-.372,1.745c-.563-.3-1.126-.61-1.693-.91a2.618,2.618,0,0,0-3.9,2.33.117.117,0,0,0-.019-.011c-2.76-1.555-5.282,1.244-3.067,3.143a3.056,3.056,0,0,0-1.065,1.588c-.342-.187-.683-.377-1.027-.564-2.912-1.58-5.482,2.583-2.833,4.447.01.008.021.014.032.022-.063.062-.124.127-.185.2a2.637,2.637,0,0,0-.511.989C1301.566,811.494,1300.979,813.8,1302.773,814.959Z" transform="translate(-1223.436 -734.871)" fill="#a84230"/>
            <path id="Trazado_207807" data-name="Trazado 207807" d="M707.853,491.717a5.4,5.4,0,0,0,5.46,5.7H836.854a6.047,6.047,0,0,0,5.993-5.7l3.164-67.644.038-.8a5.4,5.4,0,0,0-5.457-5.7H717.048a6.049,6.049,0,0,0-5.991,5.7l-.038.791Z" transform="translate(-707.711 -417.576)" fill="#fff"/>
            <path id="Trazado_207808" data-name="Trazado 207808" d="M716.14,420.128H839.682a5.538,5.538,0,0,1,5.589,5.838l-.023.484a1.127,1.127,0,0,0-.269-.1l.018-.381a5.28,5.28,0,0,0-5.328-5.565H716.128a5.911,5.911,0,0,0-5.849,5.565l-3.184,67.947a5.261,5.261,0,0,0,3.409,5.214,1.038,1.038,0,0,0,.057.316,5.52,5.52,0,0,1-3.74-5.53L710,425.966A6.2,6.2,0,0,1,716.14,420.128Z" transform="translate(-706.815 -419.794)" fill="#dae4ef"/>
            <path id="Trazado_207809" data-name="Trazado 207809" d="M730.948,424.124l135.144-.051.038-.8a5.4,5.4,0,0,0-5.457-5.7H737.129a6.07,6.07,0,0,0-6.147,5.556Z" transform="translate(-727.792 -417.576)" fill="#b9ddfc"/>
            <g id="Grupo_174858" data-name="Grupo 174858" transform="translate(11.544 17.721)">
              <g id="Grupo_174852" data-name="Grupo 174852" transform="translate(7.22 4.049)">
                <path id="Trazado_207810" data-name="Trazado 207810" d="M862.724,584.716l-.119,2.03a.7.7,0,0,0,.7.738h3.712a.7.7,0,0,0,.7-.656l.119-2.03a.7.7,0,0,0-.7-.738H863.42A.7.7,0,0,0,862.724,584.716Z" transform="translate(-860.996 -584.06)" fill="#ffe4a9"/>
                <path id="Trazado_207811" data-name="Trazado 207811" d="M859.377,675.124h3.712a.7.7,0,0,0,.7-.656l.119-2.03a.7.7,0,0,0-.7-.738H859.5a.7.7,0,0,0-.7.656l-.119,2.03A.7.7,0,0,0,859.377,675.124Z" transform="translate(-857.585 -660.239)" fill="#ffe4a9"/>
                <path id="Trazado_207812" data-name="Trazado 207812" d="M855.635,764.595H859.1a.821.821,0,0,0,.82-.773l.1-1.782a.822.822,0,0,0-.82-.87h-3.463a.821.821,0,0,0-.82.773l-.1,1.782A.821.821,0,0,0,855.635,764.595Z" transform="translate(-854.224 -738.01)" fill="#ffe4a9"/>
                <path id="Trazado_207813" data-name="Trazado 207813" d="M851.006,857.728h3.712a.7.7,0,0,0,.7-.656l.119-2.03a.7.7,0,0,0-.7-.738h-3.712a.7.7,0,0,0-.7.656l-.119,2.03A.7.7,0,0,0,851.006,857.728Z" transform="translate(-850.309 -818.965)" fill="#ffe4a9"/>
              </g>
              <g id="Grupo_174853" data-name="Grupo 174853" transform="translate(24.144 4.066)">
                <path id="Trazado_207814" data-name="Trazado 207814" d="M994.733,587.6h10.286a.7.7,0,0,0,.7-.651l.135-2.019a.7.7,0,0,0-.7-.744H994.868a.7.7,0,0,0-.7.651l-.135,2.019A.7.7,0,0,0,994.733,587.6Z" transform="translate(-992.166 -584.191)" fill="#dae4ef"/>
                <path id="Trazado_207815" data-name="Trazado 207815" d="M989.85,675.156h13.843a.7.7,0,0,0,.7-.651l.135-2.019a.7.7,0,0,0-.7-.744H989.985a.7.7,0,0,0-.7.651l-.135,2.019A.7.7,0,0,0,989.85,675.156Z" transform="translate(-987.921 -660.294)" fill="#dae4ef"/>
                <path id="Trazado_207816" data-name="Trazado 207816" d="M985.315,764.452h10.559a.7.7,0,0,0,.7-.651l.135-2.019a.7.7,0,0,0-.7-.744H985.45a.7.7,0,0,0-.7.651l-.135,2.019A.7.7,0,0,0,985.315,764.452Z" transform="translate(-983.98 -737.914)" fill="#dae4ef"/>
                <path id="Trazado_207817" data-name="Trazado 207817" d="M980.432,858.283h13.022a.7.7,0,0,0,.7-.651l.135-2.019a.7.7,0,0,0-.7-.744H980.567a.7.7,0,0,0-.7.651l-.135,2.019A.7.7,0,0,0,980.432,858.283Z" transform="translate(-979.735 -819.475)" fill="#dae4ef"/>
              </g>
              <g id="Grupo_174854" data-name="Grupo 174854" transform="translate(73.793 4.066)">
                <path id="Trazado_207818" data-name="Trazado 207818" d="M1370.754,675.156H1384.6a.7.7,0,0,0,.7-.651l.135-2.019a.7.7,0,0,0-.7-.744h-13.843a.7.7,0,0,0-.7.651l-.135,2.019A.7.7,0,0,0,1370.754,675.156Z" transform="translate(-1368.666 -660.294)" fill="#dae4ef"/>
                <path id="Trazado_207819" data-name="Trazado 207819" d="M1366.306,762.577h13.843a.7.7,0,0,0,.7-.651l.135-2.019a.7.7,0,0,0-.7-.744h-13.843a.7.7,0,0,0-.7.651l-.135,2.019A.7.7,0,0,0,1366.306,762.577Z" transform="translate(-1364.799 -736.284)" fill="#ffe4a9"/>
                <path id="Trazado_207820" data-name="Trazado 207820" d="M1375.288,587.6h10.286a.7.7,0,0,0,.7-.651l.135-2.019a.7.7,0,0,0-.7-.744h-10.286a.7.7,0,0,0-.7.651l-.135,2.019A.7.7,0,0,0,1375.288,587.6Z" transform="translate(-1372.607 -584.191)" fill="#ffe4a9"/>
                <path id="Trazado_207821" data-name="Trazado 207821" d="M1360.115,849.824H1370.4a.7.7,0,0,0,.7-.651l.135-2.019a.7.7,0,0,0-.7-.744H1360.25a.7.7,0,0,0-.7.651l-.135,2.019A.7.7,0,0,0,1360.115,849.824Z" transform="translate(-1359.418 -812.122)" fill="#dae4ef"/>
              </g>
              <g id="Grupo_174855" data-name="Grupo 174855" transform="translate(48.552 4.066)">
                <path id="Trazado_207822" data-name="Trazado 207822" d="M1175.985,675.287h13.3a.7.7,0,0,0,.7-.651l.135-2.019a.7.7,0,0,0-.7-.744h-13.3a.7.7,0,0,0-.7.651l-.135,2.019A.7.7,0,0,0,1175.985,675.287Z" transform="translate(-1174.125 -660.408)" fill="#dae4ef"/>
                <path id="Trazado_207823" data-name="Trazado 207823" d="M1171.712,764.583H1182a.7.7,0,0,0,.7-.651l.135-2.019a.7.7,0,0,0-.7-.744h-10.286a.7.7,0,0,0-.7.651l-.135,2.019A.7.7,0,0,0,1171.712,764.583Z" transform="translate(-1170.41 -738.028)" fill="#b9ddfc"/>
                <path id="Trazado_207824" data-name="Trazado 207824" d="M1181.871,587.6h10.286a.7.7,0,0,0,.7-.651l.135-2.019a.7.7,0,0,0-.7-.744h-10.286a.7.7,0,0,0-.7.651l-.135,2.019A.7.7,0,0,0,1181.871,587.6Z" transform="translate(-1179.241 -584.191)" fill="#b9ddfc"/>
                <path id="Trazado_207825" data-name="Trazado 207825" d="M1167.09,858.152h12.749a.7.7,0,0,0,.7-.651l.135-2.019a.7.7,0,0,0-.7-.744h-12.749a.7.7,0,0,0-.7.651l-.135,2.019A.7.7,0,0,0,1167.09,858.152Z" transform="translate(-1166.393 -819.361)" fill="#dae4ef"/>
              </g>
              <g id="Grupo_174856" data-name="Grupo 174856" transform="translate(98.264 4.043)">
                <path id="Trazado_207826" data-name="Trazado 207826" d="M1547.253,849.737h11.928a.7.7,0,0,0,.7-.651l.135-2.019a.7.7,0,0,0-.7-.744h-11.927a.7.7,0,0,0-.7.651l-.135,2.019A.7.7,0,0,0,1547.253,849.737Z" transform="translate(-1546.556 -812.024)" fill="#dae4ef"/>
                <path id="Trazado_207827" data-name="Trazado 207827" d="M1552.834,762.534h10.286a.7.7,0,0,0,.7-.651l.135-2.019a.7.7,0,0,0-.7-.744h-10.285a.7.7,0,0,0-.7.651l-.135,2.019A.7.7,0,0,0,1552.834,762.534Z" transform="translate(-1551.407 -736.224)" fill="#dae4ef"/>
                <path id="Trazado_207828" data-name="Trazado 207828" d="M1561.729,587.429h12.749a.7.7,0,0,0,.7-.651l.135-2.019a.7.7,0,0,0-.7-.744h-12.748a.7.7,0,0,0-.7.651l-.135,2.019A.7.7,0,0,0,1561.729,587.429Z" transform="translate(-1559.139 -584.016)" fill="#dae4ef"/>
              </g>
              <path id="Trazado_207829" data-name="Trazado 207829" d="M839.2,600.578l-.014.26v.014h25.049v-.014l.014-.26Zm-25.028,0-.014.26v.014h24.206v-.014l.014-.26Zm25.028,0-.014.26v.014h25.049v-.014l.014-.26Zm-25.028,0-.014.26v.014h24.206v-.014l.014-.26Zm99.483-35.865-.014.274-.55,11.311-.014.274L912.5,588.43l-.014.274-.37,7.559a4.313,4.313,0,0,1-1.453,2.633,6.021,6.021,0,0,1-3.043,1.669,1.256,1.256,0,0,1-.2.014H800.737c-.331,0-.608-.005-.846-.014a7.422,7.422,0,0,1-1.19-.123c-2.124-.391-3.361-2.942-3.331-4.2l.369-7.54.011-.274.58-11.858.014-.274.553-11.311.014-.274.342-7.025A5.253,5.253,0,0,1,801,553.507a8.1,8.1,0,0,1,1.494-.134H909.178c2.723,0,4.863,2.622,4.816,4.335Zm-99.483,35.865-.014.26v.014h24.206v-.014l.014-.26Zm25.028,0-.014.26v.014h25.049v-.014l.014-.26Zm71.511-47.223a4.567,4.567,0,0,0-1.5-.257H802.523a8.434,8.434,0,0,0-1.546.139,3.343,3.343,0,0,0-.454.118,5.727,5.727,0,0,0-3.544,4.351l-.342,7.006-.014.274-.55,11.311-.014.274-.577,11.858-.014.274-.37,7.559a5.1,5.1,0,0,0,2.991,4.3,3.019,3.019,0,0,0,.536.151,8.553,8.553,0,0,0,1.223.123c.243.008.526.014.862.014H907.394a1.392,1.392,0,0,0,.208-.014,3.733,3.733,0,0,0,1-.274,7.216,7.216,0,0,0,2.247-1.486,4.611,4.611,0,0,0,1.546-2.835l.367-7.54.014-.274.58-11.858.011-.274.553-11.311.014-.274.342-7.022v0C914.31,556.207,912.816,554.086,910.708,553.355Z" transform="translate(-795.097 -553.098)" fill="#084a93"/>
              <path id="Trazado_207830" data-name="Trazado 207830" d="M941.907,553.1l-.014.257v.016l-.613,11.341-.016.274-.613,11.311-.014.274-.643,11.858-.014.274-.613,12.148h-.274l.613-12.148.014-.274.643-11.858.014-.274.613-11.311.016-.274.613-11.341v-.016l.014-.257Z" transform="translate(-920.264 -553.098)" fill="#084a93"/>
              <path id="Trazado_207831" data-name="Trazado 207831" d="M1129.114,553.1l-.014.257v.016l-.613,11.341-.016.274-.613,11.311-.014.274-.643,11.858-.013.274-.613,12.148h-.274l.613-12.148.014-.274.643-11.858.014-.274.613-11.311.016-.274.613-11.341v-.016l.014-.257Z" transform="translate(-1082.992 -553.098)" fill="#084a93"/>
              <path id="Trazado_207832" data-name="Trazado 207832" d="M1316.464,555.107l-.014.274-2.479,47.217h-.274l2.48-47.217.014-.274Z" transform="translate(-1245.883 -554.844)" fill="#dae4ef"/>
              <path id="Trazado_207833" data-name="Trazado 207833" d="M1503.568,555.065l-.014.274-2.479,47.222h-.274l2.48-47.222.014-.274Z" transform="translate(-1408.52 -554.808)" fill="#dae4ef"/>
              <g id="Grupo_174857" data-name="Grupo 174857" transform="translate(0.369 11.616)">
                <path id="Trazado_207834" data-name="Trazado 207834" d="M924.06,641.927l-.014.274H806.753l.014-.274Z" transform="translate(-805.598 -641.927)" fill="#084a93"/>
                <path id="Trazado_207835" data-name="Trazado 207835" d="M919.747,730.518l-.011.274H802.443l.014-.274Z" transform="translate(-801.851 -718.933)" fill="#084a93"/>
                <path id="Trazado_207836" data-name="Trazado 207836" d="M915.226,823.3l-.014.274H797.922l.014-.274Z" transform="translate(-797.922 -799.579)" fill="#084a93"/>
              </g>
            </g>
          </g>
          <g id="Grupo_174863" data-name="Grupo 174863" transform="translate(350.676 349.599)">
            <path id="Trazado_207837" data-name="Trazado 207837" d="M457.235,953.319c.586,5.947,3.416,8.454,10.578,8.5l90.536-.025a5.606,5.606,0,0,0,4.475-2.356,6.268,6.268,0,0,0,1.215-3.426l.06-1.336,1.256-24.228.249-5.509a5.307,5.307,0,0,0-5.151-5.783H464.561a5.937,5.937,0,0,0-5.69,5.783L457.32,956.92Z" transform="translate(-451.759 -914.206)" fill="#452a20"/>
            <path id="Trazado_207838" data-name="Trazado 207838" d="M1181.13,1007.483c.378-.449-1.01-.791-.4-.925-.189-.137-.375-.266-.564-.4C1179.792,1005.887,1181.39,1006.429,1181.13,1007.483Z" transform="translate(-1080.109 -989.771)" fill="#c25a3d"/>
            <path id="Trazado_207839" data-name="Trazado 207839" d="M1183.394,1019.259a21.017,21.017,0,0,1,.41-2.512A2.331,2.331,0,0,0,1183.394,1019.259Z" transform="translate(-1082.783 -999.036)" fill="#c25a3d"/>
            <path id="Trazado_207840" data-name="Trazado 207840" d="M1182.083,1093.87c0,.112,0,.224,0,.337a2.438,2.438,0,0,1,.547.019Z" transform="translate(-1081.823 -1066.074)" fill="#c25a3d"/>
            <path id="Trazado_207841" data-name="Trazado 207841" d="M1169.9,1062.422l.577.375c-.011-1.546.027-3.161.112-4.674C1168.756,1058.753,1167.855,1061.1,1169.9,1062.422Z" transform="translate(-1070.217 -1035.001)" fill="#c25a3d"/>
            <path id="Trazado_207842" data-name="Trazado 207842" d="M417.021,887l-1.66,33.669a5.4,5.4,0,0,0,5.458,5.7h98.309a6.048,6.048,0,0,0,5.992-5.7L526.78,887a5.4,5.4,0,0,0-5.458-5.7H423.013A6.05,6.05,0,0,0,417.021,887Z" transform="translate(-415.355 -881.302)" fill="#b9ddfc"/>
            <path id="Trazado_207843" data-name="Trazado 207843" d="M698.2,975.837h10.978a.541.541,0,0,0,.54-.519l.066-1.6a.541.541,0,0,0-.541-.563H698.263a.541.541,0,0,0-.54.519l-.066,1.6A.541.541,0,0,0,698.2,975.837Z" transform="translate(-660.742 -961.142)" fill="#084a93"/>
            <path id="Trazado_207844" data-name="Trazado 207844" d="M536.32,974.33h3.964a.541.541,0,0,0,.54-.519l.066-1.6a.541.541,0,0,0-.54-.563h-3.964a.541.541,0,0,0-.54.519l-.066,1.6A.541.541,0,0,0,536.32,974.33Z" transform="translate(-520.032 -959.832)" fill="#084a93"/>
            <path id="Trazado_207845" data-name="Trazado 207845" d="M891.1,974.7l-.039,1.6a.541.541,0,0,0,.541.554H903a.541.541,0,0,0,.541-.528l.039-1.6a.541.541,0,0,0-.541-.554h-11.4A.541.541,0,0,0,891.1,974.7Z" transform="translate(-828.854 -962.026)" fill="#084a93"/>
            <path id="Trazado_207846" data-name="Trazado 207846" d="M1079.339,977.138h3.964a.541.541,0,0,0,.54-.519l.066-1.6a.541.541,0,0,0-.54-.563H1079.4a.541.541,0,0,0-.54.519l-.065,1.6A.541.541,0,0,0,1079.339,977.138Z" transform="translate(-992.044 -962.273)" fill="#084a93"/>
            <path id="Trazado_207847" data-name="Trazado 207847" d="M691.22,1121.64h8.789a.541.541,0,0,0,.541-.519l.066-1.6a.541.541,0,0,0-.54-.563h-8.789a.541.541,0,0,0-.54.519l-.066,1.6A.541.541,0,0,0,691.22,1121.64Z" transform="translate(-654.677 -1087.879)" fill="#084a93"/>
            <path id="Trazado_207848" data-name="Trazado 207848" d="M529.344,1120.134h3.964a.541.541,0,0,0,.54-.519l.066-1.6a.541.541,0,0,0-.541-.563H529.41a.541.541,0,0,0-.541.519l-.065,1.6A.541.541,0,0,0,529.344,1120.134Z" transform="translate(-513.968 -1086.57)" fill="#084a93"/>
            <path id="Trazado_207849" data-name="Trazado 207849" d="M884.121,1120.5l-.039,1.6a.541.541,0,0,0,.541.554h10.032a.541.541,0,0,0,.541-.528l.039-1.6a.541.541,0,0,0-.541-.554H884.662A.541.541,0,0,0,884.121,1120.5Z" transform="translate(-822.789 -1088.764)" fill="#084a93"/>
            <path id="Trazado_207850" data-name="Trazado 207850" d="M1072.362,1122.942h7.522a.541.541,0,0,0,.54-.519l.066-1.6a.541.541,0,0,0-.54-.563h-7.522a.541.541,0,0,0-.54.519l-.066,1.6A.541.541,0,0,0,1072.362,1122.942Z" transform="translate(-985.979 -1089.011)" fill="#084a93"/>
            <path id="Trazado_207851" data-name="Trazado 207851" d="M695.093,1048.474h13.685a.541.541,0,0,0,.541-.525l.047-1.6a.541.541,0,0,0-.541-.557H695.141a.541.541,0,0,0-.541.525l-.047,1.6A.541.541,0,0,0,695.093,1048.474Z" transform="translate(-658.043 -1024.281)" fill="#084a93"/>
            <path id="Trazado_207852" data-name="Trazado 207852" d="M888.506,1046.961l-.034,1.6a.541.541,0,0,0,.541.552h7.947a.541.541,0,0,0,.541-.529l.034-1.6a.541.541,0,0,0-.541-.552h-7.947A.541.541,0,0,0,888.506,1046.961Z" transform="translate(-826.605 -1024.838)" fill="#084a93"/>
            <path id="Trazado_207853" data-name="Trazado 207853" d="M532.51,1048.976h5.609a.541.541,0,0,0,.54-.519l.066-1.6a.541.541,0,0,0-.54-.563h-5.609a.541.541,0,0,0-.54.519l-.066,1.6A.541.541,0,0,0,532.51,1048.976Z" transform="translate(-516.72 -1024.717)" fill="#084a93"/>
            <path id="Trazado_207854" data-name="Trazado 207854" d="M1075.965,1048.063h5.609a.541.541,0,0,0,.541-.519l.066-1.6a.541.541,0,0,0-.541-.563h-5.609a.541.541,0,0,0-.54.519l-.066,1.6A.541.541,0,0,0,1075.965,1048.063Z" transform="translate(-989.11 -1023.924)" fill="#084a93"/>
            <g id="Grupo_174861" data-name="Grupo 174861" transform="translate(8.185 7.595)">
              <path id="Trazado_207855" data-name="Trazado 207855" d="M503.466,969.076h25.049l.014-.274H503.48Zm25.323,0H553l.014-.274H528.8Zm-25.323,0h25.049l.014-.274H503.48ZM528.8,968.8l-.014.274H553l.014-.274Zm-50.572-4.316,1.084-20.5c.134-1.713,2.548-4.335,5.271-4.335h83.968a7.882,7.882,0,0,1,1.48.134,4.583,4.583,0,0,1,3.309,4.182l-1.084,20.5c-.1,1.256-1.6,3.809-3.769,4.2a8.214,8.214,0,0,1-1.5.134H483.02a5,5,0,0,1-3.613-1.683A3.835,3.835,0,0,1,478.231,964.487Zm50.558,4.59H553l.014-.274H528.8Zm-25.323,0h25.049l.014-.274H503.48Zm66.62-29.556a8.212,8.212,0,0,0-1.532-.14H484.586c-2.863,0-5.4,2.778-5.545,4.59v0l-1.084,20.5a4.112,4.112,0,0,0,1.248,2.838,5.283,5.283,0,0,0,3.815,1.771h83.968a8.775,8.775,0,0,0,1.552-.137,5.668,5.668,0,0,0,3.993-4.453l.252-4.748.014-.273.512-9.669.014-.274.293-5.534A4.9,4.9,0,0,0,570.086,939.521Z" transform="translate(-477.951 -939.381)" fill="#084a93"/>
              <g id="Grupo_174860" data-name="Grupo 174860" transform="translate(21.136)">
                <path id="Trazado_207856" data-name="Trazado 207856" d="M1021.777,939.654l.014-.274h.274l-.014.274-1.314,29.148-.014.274h-.274l.014-.274Z" transform="translate(-970.647 -939.38)" fill="#084a93"/>
                <path id="Trazado_207857" data-name="Trazado 207857" d="M834.569,939.654l.014-.274h.274l-.014.274L833.529,968.8l-.014.274h-.274l.014-.274Z" transform="translate(-807.919 -939.38)" fill="#084a93"/>
                <path id="Trazado_207858" data-name="Trazado 207858" d="M640.912,939.654l.014-.274h.276l-.014.274L639.875,968.8l-.014.274h-.274l.014-.274Z" transform="translate(-639.588 -939.38)" fill="#084a93"/>
              </g>
            </g>
            <g id="Grupo_174862" data-name="Grupo 174862" transform="translate(8.599 17.737)">
              <path id="Trazado_207859" data-name="Trazado 207859" d="M580,1016.943l-.014.274H485.636l.014-.274Z" transform="translate(-485.045 -1016.943)" fill="#084a93"/>
              <path id="Trazado_207860" data-name="Trazado 207860" d="M575.55,1092.978l-.014.274h-94.42l.014-.274Z" transform="translate(-481.116 -1083.035)" fill="#084a93"/>
            </g>
          </g>
          <g id="Grupo_174864" data-name="Grupo 174864" transform="translate(690.907 317.13)">
            <path id="Trazado_207861" data-name="Trazado 207861" d="M3040.279,684.5c.585,5.947.4,8.454,7.567,8.5l33.065-.025a5.605,5.605,0,0,0,4.474-2.356,6.263,6.263,0,0,0,1.215-3.426l.061-1.336.276-3.713.249-5.509a5.307,5.307,0,0,0-5.151-5.783h-35.41a5.937,5.937,0,0,0-5.69,5.783l-.572,11.466Z" transform="translate(-3037.266 -665.901)" fill="#452a20"/>
            <path id="Trazado_207862" data-name="Trazado 207862" d="M3017.922,638.7l-.68,13.153a5.4,5.4,0,0,0,5.458,5.7h35.364a6.048,6.048,0,0,0,5.992-5.7l.681-13.153a5.4,5.4,0,0,0-5.458-5.7h-35.364A6.05,6.05,0,0,0,3017.922,638.7Z" transform="translate(-3017.235 -632.997)" fill="#b9ddfc"/>
            <path id="Trazado_207863" data-name="Trazado 207863" d="M3091.608,682.395h-27.533a3.549,3.549,0,0,1-3.584-3.744l.429-8.307a3.963,3.963,0,0,1,3.921-3.731h27.533a3.548,3.548,0,0,1,3.583,3.743l-.429,8.307A3.963,3.963,0,0,1,3091.608,682.395Zm-26.766-15.507a3.685,3.685,0,0,0-3.647,3.47h0l-.43,8.307a3.275,3.275,0,0,0,3.31,3.456h27.533a3.685,3.685,0,0,0,3.647-3.47l.43-8.307a3.275,3.275,0,0,0-3.31-3.456Z" transform="translate(-3054.831 -662.218)" fill="#084a93"/>
            <path id="Trazado_207864" data-name="Trazado 207864" d="M3070.395,821.679l-7.471-6.994h7.205Q3070.425,818.174,3070.395,821.679Z" transform="translate(-3056.949 -790.927)" fill="#b9ddfc"/>
          </g>
          <g id="Grupo_174865" data-name="Grupo 174865" transform="translate(489.373 381.629)">
            <path id="Trazado_207865" data-name="Trazado 207865" d="M1499.069,1177.752c.586,5.947.405,8.454,7.567,8.5l33.065-.025a5.606,5.606,0,0,0,4.475-2.356,6.266,6.266,0,0,0,1.215-3.426l.06-1.336.277-3.713.249-5.509a5.307,5.307,0,0,0-5.151-5.783h-35.41a5.937,5.937,0,0,0-5.69,5.783l-.573,11.466Z" transform="translate(-1496.056 -1159.155)" fill="#452a20"/>
            <path id="Trazado_207866" data-name="Trazado 207866" d="M1476.712,1131.952l-.68,13.153a5.4,5.4,0,0,0,5.458,5.7h35.364a6.048,6.048,0,0,0,5.992-5.7l.68-13.153a5.4,5.4,0,0,0-5.458-5.7H1482.7A6.05,6.05,0,0,0,1476.712,1131.952Z" transform="translate(-1476.025 -1126.251)" fill="#b9ddfc"/>
            <path id="Trazado_207867" data-name="Trazado 207867" d="M1560.383,1183.046h-24.522a3.549,3.549,0,0,1-3.583-3.744l.277-4.193a3.963,3.963,0,0,1,3.921-3.73H1561a3.548,3.548,0,0,1,3.583,3.743l-.277,4.193A3.962,3.962,0,0,1,1560.383,1183.046Zm-23.908-11.393a3.686,3.686,0,0,0-3.648,3.47h0l-.277,4.192a3.275,3.275,0,0,0,3.31,3.456h24.522a3.686,3.686,0,0,0,3.647-3.47l.277-4.193a3.275,3.275,0,0,0-3.31-3.456Z" transform="translate(-1524.918 -1165.478)" fill="#084a93"/>
            <path id="Trazado_207868" data-name="Trazado 207868" d="M1734.809,1314.409l-7.472-6.993h7.205Q1734.84,1310.9,1734.809,1314.409Z" transform="translate(-1694.475 -1283.726)" fill="#b9ddfc"/>
          </g>
          <g id="Grupo_174868" data-name="Grupo 174868" transform="translate(639.861 404.149)">
            <path id="Trazado_207869" data-name="Trazado 207869" d="M2671.283,1303.358a5.216,5.216,0,0,0-3.667-4.67c-.052-.016-.108-.029-.16-.041-.129-.033-.262-.061-.392-.081a10.861,10.861,0,0,0-5.724.915c-4.262,1.737-7.99,5.151-11.081,8.52-6.462,7.046-10.861,15.537-14.619,23.931a163.508,163.508,0,0,0-8.772,24.748H2656c.789-2.148,1.578-4.3,2.351-6.453q1.383-3.838,2.73-7.685,1.622-4.589,3.19-9.191c1.767-5.163,3.6-10.338,5.01-15.562a68.727,68.727,0,0,0,1.62-7.445A24.673,24.673,0,0,0,2671.283,1303.358Z" transform="translate(-2626.866 -1298.467)" fill="#e7f3fe"/>
            <path id="Trazado_207870" data-name="Trazado 207870" d="M2873.4,1551.542c-.191-4.077-1.651-8.552-5.875-9.817a7.92,7.92,0,0,0-2.331-.321c-.142,0-.287,0-.43.016-3.3.175-6.734,2.108-9.387,4.223a37.928,37.928,0,0,0-7.493,8.068,38.807,38.807,0,0,0-6.071,13.886l-.038.268h30.257a.168.168,0,0,1-.018-.11A76.889,76.889,0,0,0,2873.4,1551.542Z" transform="translate(-2813.669 -1509.636)" fill="#e7f3fe"/>
            <g id="Grupo_174866" data-name="Grupo 174866" transform="translate(16.215 0.079)">
              <path id="Trazado_207871" data-name="Trazado 207871" d="M2775.365,1299.22l.007-.018c-.043-.012-.089-.023-.132-.033-.129-.033-.262-.061-.392-.081-.046-.008-.092-.013-.138-.02l-14.755,36.093c-1.655,4.044-3.354,8.153-5,12.127q-2.039,4.93-4.07,9.863l-.021.051h.8q8.816-21.59,17.648-43.18Q2772.342,1306.625,2775.365,1299.22Z" transform="translate(-2750.865 -1299.068)" fill="#94b0c9"/>
            </g>
            <g id="Grupo_174867" data-name="Grupo 174867" transform="translate(41.915 31.767)">
              <path id="Trazado_207872" data-name="Trazado 207872" d="M2957.14,1541.453l.017-.044c-.048,0-.1,0-.143,0-.141,0-.287,0-.43.016-.05,0-.1.009-.149.013-3.3,8.729-6.338,17.608-9.016,26.393l-.012.039h.7c1.764-5.781,3.673-11.581,5.674-17.242C2954.826,1547.655,2955.958,1544.569,2957.14,1541.453Z" transform="translate(-2947.407 -1541.405)" fill="#94b0c9"/>
            </g>
          </g>
          <path id="Trazado_207873" data-name="Trazado 207873" d="M381.242,1144.3c.109-.083.221-.16.337-.233q-2.551-3.023-5.26-5.916c-5.6-5.965-11.917-11.58-19.585-14.447a16.939,16.939,0,0,0-8.451-1.218,9.761,9.761,0,0,0-4.517,1.942c-.2.162-.389.325-.57.5a7.251,7.251,0,0,0-1.649,2.351c-1.372,3.2-.143,6.873,1.193,10.094a153.168,153.168,0,0,0,12.367,23.667C363.467,1154.94,372.972,1150.579,381.242,1144.3Z" transform="translate(0 -741.228)" fill="#e7f3fe"/>
          <path id="Trazado_207874" data-name="Trazado 207874" d="M382.311,1167.085l.66-.391q-12.035-14.287-24.25-28.42c-.2.161-.389.325-.57.5q8.867,10.254,17.64,20.589Q379.06,1163.217,382.311,1167.085Z" transform="translate(-14.955 -755.073)" fill="#94b0c9"/>
        </g>
      </g>
    </g>
  </g>
</svg>
