<svg xmlns="http://www.w3.org/2000/svg" width="400" height="260" viewBox="0 0 400 260">
  <g id="Grupo_176828" data-name="Grupo 176828" transform="translate(11713 9074)">
    <g id="Grupo_176737" data-name="Grupo 176737" transform="translate(-56)">
      <rect id="Rectángulo_298433" data-name="Rectángulo 298433" width="400" height="260" transform="translate(-11657 -9074)" fill="none"/>
      <g id="Grupo_174888" data-name="Grupo 174888" transform="translate(-9193.361 -10733.021)">
        <g id="Grupo_174887" data-name="Grupo 174887" transform="translate(-2463.639 1678)">
          <g id="back" transform="translate(0 0)">
            <path id="Trazado_207877" data-name="Trazado 207877" d="M312.895,518.8s22.186-38.117,16.834-74.42c-6.09-41.311,19.158-41.544,43.37-63.714,23.231-21.272-6.006-58.665,37.035-77.316,48.651-21.081,57.5,31.129,81.244,32.473,47.991,2.716,62.6-36.113,95.966-7.6,33.8,28.883-2.492,60.691,14.491,91.916,12.821,23.573,61.542,29.7,40.227,98.662H312.895Z" transform="translate(-278.804 -298.342)" fill="#042c58"/>
            <circle id="Elipse_13225" data-name="Elipse 13225" cx="1.23" cy="1.23" r="1.23" transform="translate(311.077 145.746)" fill="#ffb30b"/>
            <circle id="Elipse_13226" data-name="Elipse 13226" cx="1.23" cy="1.23" r="1.23" transform="translate(218.12 60.561)" fill="#ffb30b"/>
            <circle id="Elipse_13227" data-name="Elipse 13227" cx="1.23" cy="1.23" r="1.23" transform="translate(166.561 21.337)" fill="#ffb30b"/>
            <circle id="Elipse_13228" data-name="Elipse 13228" cx="1.23" cy="1.23" r="1.23" transform="translate(319.876 175.585)" fill="#084a93"/>
            <circle id="Elipse_13229" data-name="Elipse 13229" cx="1.23" cy="1.23" r="1.23" transform="translate(346.494 165.166)" fill="#a8c0d9"/>
            <circle id="Elipse_13230" data-name="Elipse 13230" cx="1.23" cy="1.23" r="1.23" transform="translate(65.135 190.9)" fill="#a8c0d9"/>
            <circle id="Elipse_13231" data-name="Elipse 13231" cx="1.23" cy="1.23" r="1.23" transform="translate(276.543 31.792)" fill="#a8c0d9"/>
            <circle id="Elipse_13232" data-name="Elipse 13232" cx="1.23" cy="1.23" r="1.23" transform="translate(54.825 208.488)" fill="#084a93"/>
            <circle id="Elipse_13233" data-name="Elipse 13233" cx="1.23" cy="1.23" r="1.23" transform="translate(175.13 54.766)" fill="#084a93"/>
            <circle id="Elipse_13234" data-name="Elipse 13234" cx="1.23" cy="1.23" r="1.23" transform="translate(135.136 16.166)" fill="#a6f4fe"/>
            <circle id="Elipse_13235" data-name="Elipse 13235" cx="1.23" cy="1.23" r="1.23" transform="translate(347.724 201)" fill="#a6f4fe"/>
            <circle id="Elipse_13236" data-name="Elipse 13236" cx="1.23" cy="1.23" r="1.23" transform="translate(299.898 114.313)" fill="#a6f4fe"/>
            <circle id="Elipse_13237" data-name="Elipse 13237" cx="1.23" cy="1.23" r="1.23" transform="translate(249.358 48.851)" fill="#a6f4fe"/>
            <path id="Trazado_207878" data-name="Trazado 207878" d="M616.647,2535.34a1.323,1.323,0,0,0-1.4-1.23H219.418a1.24,1.24,0,1,0,0,2.46H615.249A1.323,1.323,0,0,0,616.647,2535.34Z" transform="translate(-218.02 -2314.144)" fill="#1e355d"/>
          </g>
          <g id="front" transform="translate(62.658 15.302)">
            <path id="Trazado_207879" data-name="Trazado 207879" d="M737.3,658.557a4.689,4.689,0,0,0-4.687-4.687H648.253a4.689,4.689,0,0,0-4.687,4.687V797.014a4.689,4.689,0,0,0,4.687,4.687h84.361a4.689,4.689,0,0,0,4.687-4.687V658.557Z" transform="translate(-639.6 -634.193)" fill="#2b4b78"/>
            <g id="Grupo_174876" data-name="Grupo 174876" transform="translate(67.965 157.374)">
              <path id="Trazado_207880" data-name="Trazado 207880" d="M1462.021,2055.663a2.224,2.224,0,0,0-2.223-2.223h-163.5a2.224,2.224,0,0,0-2.223,2.223v40.024a2.225,2.225,0,0,0,2.223,2.223h163.5a2.225,2.225,0,0,0,2.223-2.223Z" transform="translate(-1294.07 -2053.44)" fill="#edf3fd"/>
              <path id="Trazado_207881" data-name="Trazado 207881" d="M1323.8,2053.44H1296.29a2.224,2.224,0,0,0-2.224,2.223v7.911h25.048a4.689,4.689,0,0,0,4.687-4.687v-5.447Z" transform="translate(-1294.067 -2053.44)" fill="#d0e1f7"/>
              <path id="Trazado_207882" data-name="Trazado 207882" d="M1820.169,2135.834a.319.319,0,0,0-.319-.319H1757a.319.319,0,0,0-.319.319v5.747a.32.32,0,0,0,.319.319h62.852a.32.32,0,0,0,.319-.319Z" transform="translate(-1711.164 -2127.439)" fill="#c2d8f1"/>
              <path id="Trazado_207883" data-name="Trazado 207883" d="M1867.768,2267.744a.212.212,0,0,0-.213-.212H1756.9a.212.212,0,0,0-.212.212v3.822a.212.212,0,0,0,.212.212h110.66a.213.213,0,0,0,.213-.212Z" transform="translate(-1711.169 -2246.469)" fill="#c2d8f1"/>
              <path id="Trazado_207884" data-name="Trazado 207884" d="M1842.618,2336.923a.212.212,0,0,0-.212-.212H1756.9a.212.212,0,0,0-.212.212v3.822a.212.212,0,0,0,.212.212h85.51a.212.212,0,0,0,.212-.212Z" transform="translate(-1711.169 -2308.841)" fill="#c2d8f1"/>
              <circle id="Elipse_13238" data-name="Elipse 13238" cx="14.16" cy="14.16" r="14.16" transform="translate(11.61 8.075)" fill="#a6f4fe"/>
              <path id="Trazado_207885" data-name="Trazado 207885" d="M1481.26,2137.575a14.189,14.189,0,0,1,10.285-1.754,4.679,4.679,0,0,1-3.655,1.754Z" transform="translate(-1462.843 -2127.441)" fill="#00defc"/>
              <path id="Trazado_207886" data-name="Trazado 207886" d="M1472.79,2231.286l.257-3.9a5.529,5.529,0,0,1,5.517-5.164h4.823a5.529,5.529,0,0,1,5.517,5.164l.257,3.9a14.151,14.151,0,0,1-16.372,0Zm8.186-18.066a3.741,3.741,0,1,1-3.741,3.741A3.743,3.743,0,0,1,1480.976,2213.22Z" transform="translate(-1455.206 -2197.5)" fill="#084a93"/>
            </g>
            <g id="Grupo_174877" data-name="Grupo 174877" transform="translate(67.965 104.21)">
              <path id="Trazado_207887" data-name="Trazado 207887" d="M1462.021,1515.3a2.224,2.224,0,0,0-2.223-2.224h-163.5a2.224,2.224,0,0,0-2.223,2.224v40.023a2.225,2.225,0,0,0,2.223,2.224h163.5a2.225,2.225,0,0,0,2.223-2.224Z" transform="translate(-1294.07 -1513.08)" fill="#edf3fd"/>
              <path id="Trazado_207888" data-name="Trazado 207888" d="M1323.8,1513.08H1296.29a2.224,2.224,0,0,0-2.224,2.224v40.023a2.225,2.225,0,0,0,2.224,2.224H1323.8v-44.47Z" transform="translate(-1294.067 -1513.08)" fill="#c1d4f8"/>
              <path id="Trazado_207889" data-name="Trazado 207889" d="M1820.169,1595.484a.319.319,0,0,0-.319-.319H1757a.32.32,0,0,0-.319.319v5.747a.32.32,0,0,0,.319.319h62.852a.32.32,0,0,0,.319-.319Z" transform="translate(-1711.164 -1587.089)" fill="#c2d8f1"/>
              <path id="Trazado_207890" data-name="Trazado 207890" d="M1867.768,1727.384a.213.213,0,0,0-.213-.212H1756.9a.212.212,0,0,0-.212.212v3.822a.212.212,0,0,0,.212.212h110.66a.212.212,0,0,0,.213-.212Z" transform="translate(-1711.169 -1706.108)" fill="#c2d8f1"/>
              <path id="Trazado_207891" data-name="Trazado 207891" d="M1842.618,1796.564a.212.212,0,0,0-.212-.213H1756.9a.212.212,0,0,0-.212.213v3.822a.212.212,0,0,0,.212.213h85.51a.212.212,0,0,0,.212-.213Z" transform="translate(-1711.169 -1768.482)" fill="#c2d8f1"/>
              <circle id="Elipse_13239" data-name="Elipse 13239" cx="14.16" cy="14.16" r="14.16" transform="translate(11.61 8.075)" fill="#a8c0d9"/>
              <path id="Trazado_207892" data-name="Trazado 207892" d="M1430.2,1622.913a14.16,14.16,0,1,1,0-27.192Z" transform="translate(-1400.466 -1587.082)" fill="#cc8f08"/>
              <path id="Trazado_207893" data-name="Trazado 207893" d="M1472.79,1690.936l.257-3.9a5.53,5.53,0,0,1,5.517-5.165h4.823a5.529,5.529,0,0,1,5.517,5.165l.257,3.9a14.153,14.153,0,0,1-16.372,0Zm8.186-18.066a3.741,3.741,0,1,1-3.741,3.741A3.743,3.743,0,0,1,1480.976,1672.87Z" transform="translate(-1455.206 -1657.149)" fill="#ffe4a9"/>
              <path id="Trazado_207894" data-name="Trazado 207894" d="M1472.881,1691l-.095-.067.257-3.9a5.529,5.529,0,0,1,5.517-5.165h4.823a5.529,5.529,0,0,1,1.554.222v10.885l-.047.013h-.005l-.064.018-.066.019-.063.017-.01,0-.053.014-.015,0-.048.013-.017,0-.047.012-.018,0-.047.012-.018,0-.048.012-.016,0-.053.013-.011,0-.064.015-.067.016-.065.015-.011,0-.053.012-.017,0-.047.01-.02,0-.045.01-.021,0-.045.009-.021,0-.046.009-.02,0-.048.01-.017,0-.057.011h-.008l-.067.012-.066.012-.013,0-.052.009-.02,0-.045.008-.022,0-.043.007-.024,0-.042.007-.024,0-.042.006-.023,0-.044.007-.022,0-.049.007-.017,0-.066.009-.067.009-.015,0-.051.007-.022,0-.044.006-.025,0-.041.005-.026,0-.041,0-.026,0-.041,0-.026,0-.042,0-.025,0-.044,0-.022,0-.055.005h-.012l-.067.006h-.016l-.051,0-.024,0-.043,0-.027,0-.041,0-.028,0-.039,0-.028,0-.039,0-.028,0-.04,0-.027,0-.042,0-.025,0-.048,0h-.019l-.068,0h-.012l-.055,0h-.024l-.044,0h-.784l-.083,0h-.019l-.064,0h-.027l-.058,0h-.026l-.076,0h-.007l-.082,0h-.025l-.059,0-.028,0-.061,0h-.022l-.081-.006h-.017l-.065,0-.027,0-.057,0-.027,0-.069-.006h-.013l-.08-.007-.025,0-.057-.006-.028,0-.057-.006-.025,0-.079-.009-.016,0-.064-.008-.029,0-.054-.007-.029,0-.061-.008-.019,0-.078-.011-.026,0-.054-.008-.031,0-.052-.008-.028,0-.077-.012-.019,0-.061-.01-.031-.005-.049-.008-.032-.005-.053-.009-.026,0-.075-.014-.03-.005-.049-.009-.034-.006-.046-.009-.033-.006-.058-.012-.017,0-.023,0-.053-.011-.035-.007-.042-.009-.036-.008-.043-.009-.034-.008-.07-.016-.036-.008-.04-.01-.039-.009-.038-.009-.039-.009-.04-.01-.033-.008-.032-.008-.039-.01-.041-.01-.034-.009-.042-.011-.033-.009-.043-.011-.022-.006-.044-.012-.043-.012-.03-.008-.045-.013-.029-.008-.046-.013-.024-.007-.046-.013-.053-.016-.014,0-.049-.015-.024-.007-.048-.015-.022-.007-.05-.016-.064-.021-.053-.018-.015,0-.052-.017-.019-.006-.053-.018-.01,0-.056-.019-.064-.022-.056-.02-.013,0-.055-.02-.012,0-.241-.09-.009,0q-.124-.047-.246-.1h0l-.061-.025h0a14.113,14.113,0,0,1-2.136-1.1h0l-.22-.141-.005,0-.051-.033-.009-.006-.05-.033-.055-.037-.05-.034-.006,0-.044-.03-.018-.012-.042-.029-.019-.013Zm8.091-18.133a3.741,3.741,0,1,1-3.741,3.741A3.743,3.743,0,0,1,1480.972,1672.862Z" transform="translate(-1455.203 -1657.142)" fill="#ffaf26"/>
            </g>
            <g id="Grupo_174878" data-name="Grupo 174878" transform="translate(67.965 51.047)">
              <path id="Trazado_207895" data-name="Trazado 207895" d="M1462.021,974.947a2.224,2.224,0,0,0-2.223-2.224h-163.5a2.224,2.224,0,0,0-2.223,2.224v40.023a2.224,2.224,0,0,0,2.223,2.224h163.5a2.224,2.224,0,0,0,2.223-2.224Z" transform="translate(-1294.07 -972.723)" fill="#edf3fd"/>
              <path id="Trazado_207896" data-name="Trazado 207896" d="M2615.49,972.723v36.615a2.818,2.818,0,0,0,2.816,2.816h35.126V974.947a2.225,2.225,0,0,0-2.223-2.224Z" transform="translate(-2485.481 -972.723)" fill="#d0e1f7"/>
              <path id="Trazado_207897" data-name="Trazado 207897" d="M1323.8,972.723H1296.29a2.224,2.224,0,0,0-2.224,2.224v40.023a2.224,2.224,0,0,0,2.224,2.224H1323.8Z" transform="translate(-1294.067 -972.723)" fill="#d0e1f7"/>
              <path id="Trazado_207898" data-name="Trazado 207898" d="M1842.618,1074.807a.212.212,0,0,0-.212-.212H1756.9a.212.212,0,0,0-.212.212v3.822a.212.212,0,0,0,.212.212h85.51a.212.212,0,0,0,.212-.212Zm25.15-6.806a.212.212,0,0,0-.213-.212H1756.9a.212.212,0,0,0-.212.212v3.822a.212.212,0,0,0,.212.212h110.66a.212.212,0,0,0,.213-.212Zm-47.594-12.881a.319.319,0,0,0-.319-.319H1757a.319.319,0,0,0-.319.319v5.747a.32.32,0,0,0,.319.32h62.852a.32.32,0,0,0,.319-.32Z" transform="translate(-1711.169 -1046.726)" fill="#c2d8f1"/>
              <path id="Trazado_207899" data-name="Trazado 207899" d="M2615.49,1193.627v4.246h1.229a.212.212,0,0,0,.212-.212v-3.822a.213.213,0,0,0-.212-.212Zm0-6.806v4.247h26.378a.212.212,0,0,0,.212-.212v-3.822a.212.212,0,0,0-.212-.213Z" transform="translate(-2485.481 -1165.757)" fill="#aac2e4"/>
              <circle id="Elipse_13240" data-name="Elipse 13240" cx="14.16" cy="14.16" r="14.16" transform="translate(11.61 8.076)" fill="#ffe4a9"/>
              <path id="Trazado_207900" data-name="Trazado 207900" d="M1430.2,1082.562a14.16,14.16,0,1,1,0-27.192Z" transform="translate(-1400.466 -1046.73)" fill="#ffb30b"/>
              <path id="Trazado_207901" data-name="Trazado 207901" d="M1472.79,1150.576l.257-3.9a5.53,5.53,0,0,1,5.517-5.165h4.823a5.529,5.529,0,0,1,5.517,5.165l.257,3.9a14.152,14.152,0,0,1-16.372,0Zm8.186-18.067a3.741,3.741,0,1,1-3.741,3.741A3.743,3.743,0,0,1,1480.976,1132.509Z" transform="translate(-1455.206 -1116.788)" fill="#a6f4fe"/>
              <path id="Trazado_207902" data-name="Trazado 207902" d="M1472.881,1150.644l-.095-.067.257-3.9a5.529,5.529,0,0,1,5.517-5.165h4.823a5.524,5.524,0,0,1,1.554.222v10.885l-.047.014h-.005l-.064.019-.066.018-.063.017-.01,0-.053.014-.015,0-.048.013-.017,0-.047.012-.018,0-.047.012-.018,0-.048.012-.016,0-.053.013-.011,0-.064.016-.067.016-.065.015-.011,0-.053.012-.017,0-.047.01-.02,0-.045.01-.021,0-.045.009-.021,0-.046.009-.02,0-.048.01-.017,0-.057.011h-.008l-.067.013-.066.012-.013,0-.052.009-.02,0-.045.008-.022,0-.043.007-.024,0-.042.007-.024,0-.042.007-.023,0-.044.007-.022,0-.049.007-.017,0-.066.01-.067.009-.015,0-.051.007-.022,0-.044.005-.025,0-.041.005-.026,0-.041,0-.026,0-.041,0-.026,0-.042,0-.025,0-.044,0-.022,0-.055.005h-.012l-.067.006h-.016l-.051,0-.024,0-.043,0-.027,0-.041,0-.028,0-.039,0-.028,0-.039,0-.028,0-.04,0-.027,0-.042,0h-.025l-.048,0h-.019l-.068,0h-.012l-.055,0h-.024l-.044,0h-.784l-.083,0h-.019l-.064,0h-.027l-.058,0h-.026l-.076,0h-.007l-.082,0h-.025l-.059,0-.028,0-.061,0h-.022l-.081-.005h-.017l-.065,0-.027,0-.057,0-.027,0-.069-.006h-.013l-.08-.007-.025,0-.057-.006-.028,0-.057-.006-.025,0-.079-.009-.016,0-.064-.008-.029,0-.054-.007-.029,0-.061-.008-.019,0-.078-.011-.026,0-.054-.008-.031,0-.052-.008-.028,0-.077-.012-.019,0-.061-.01-.031-.005-.049-.008-.032-.005-.053-.009-.026,0-.075-.014-.03-.006-.049-.009-.034-.007-.046-.009-.033-.007-.058-.012-.017,0-.023,0-.053-.011-.035-.007-.042-.009-.036-.008-.043-.01-.034-.008-.07-.016-.036-.008-.04-.01-.039-.009-.038-.009-.039-.009-.04-.01-.033-.008-.032-.008-.039-.01-.041-.011-.034-.009-.042-.011-.033-.009-.043-.012-.022-.006-.044-.012-.043-.012-.03-.008-.045-.013-.029-.008-.046-.013-.024-.007-.046-.013-.053-.016-.014,0-.049-.015-.024-.008-.048-.015-.022-.007-.05-.016-.064-.021-.053-.017-.015,0-.052-.017-.019-.006-.053-.018-.01,0-.056-.019-.064-.022-.056-.02-.013,0-.055-.02-.012,0-.241-.09-.009,0-.246-.1h0l-.061-.025h0a14.114,14.114,0,0,1-2.136-1.1h0c-.074-.046-.147-.093-.22-.141l-.005,0-.051-.033-.009-.006-.05-.033-.055-.037-.05-.034-.006,0-.044-.03-.018-.012-.042-.029-.019-.013Zm8.091-18.133a3.741,3.741,0,1,1-3.741,3.741A3.743,3.743,0,0,1,1480.972,1132.511Z" transform="translate(-1455.203 -1116.79)" fill="#64b57b"/>
            </g>
            <g id="Grupo_174881" data-name="Grupo 174881" transform="translate(0 14.007)">
              <path id="Trazado_207903" data-name="Trazado 207903" d="M696.991,600.93a4.689,4.689,0,0,0-4.687-4.687H607.943a4.689,4.689,0,0,0-4.687,4.687V739.387a4.689,4.689,0,0,0,4.687,4.687H692.3a4.689,4.689,0,0,0,4.687-4.687V600.93Z" transform="translate(-603.256 -596.243)" fill="#f5faff"/>
              <path id="Trazado_207904" data-name="Trazado 207904" d="M670.88,1753h80.43a40.3,40.3,0,0,0-39.881-37.734h-.46a40.294,40.294,0,0,0-27.022,10.517l-.1.1-.1.093-.1.093-.1.094-.05.047A40.3,40.3,0,0,0,670.88,1753Z" transform="translate(-664.227 -1605.168)" fill="#d0e1f7"/>
              <path id="Trazado_207905" data-name="Trazado 207905" d="M764.885,1470.12a.248.248,0,0,0-.248-.248h-48.7a.248.248,0,0,0-.248.248v4.46a.248.248,0,0,0,.248.248h48.7a.248.248,0,0,0,.248-.248Zm22.412-8.651a.248.248,0,0,0-.248-.248H715.933a.248.248,0,0,0-.248.248v4.46a.248.248,0,0,0,.248.248h71.117a.248.248,0,0,0,.248-.248Zm0-8.651a.248.248,0,0,0-.248-.248H715.933a.248.248,0,0,0-.248.248v4.46a.248.248,0,0,0,.248.248h71.117a.248.248,0,0,0,.248-.248Zm0-8.651a.248.248,0,0,0-.248-.248H715.933a.248.248,0,0,0-.248.248v4.46a.248.248,0,0,0,.248.248h71.117a.248.248,0,0,0,.248-.248Zm-9.831-16.227a.427.427,0,0,0-.427-.427h-51.1a.427.427,0,0,0-.427.427v7.684a.427.427,0,0,0,.427.427h51.1a.427.427,0,0,0,.427-.427Z" transform="translate(-704.624 -1345.728)" fill="#c2d8f1"/>
              <path id="Trazado_207906" data-name="Trazado 207906" d="M735.53,1729.318a40.27,40.27,0,0,0-3.636,4.956h47.358a.248.248,0,0,0,.248-.248v-4.46a.248.248,0,0,0-.248-.248Zm50.735-8.651h-40.3a40.3,40.3,0,0,0-6.821,4.956h53.933A40.394,40.394,0,0,0,786.265,1720.667Zm-31.746-3.7h23.211a40.27,40.27,0,0,0-11.289-1.7h-.46a40.274,40.274,0,0,0-11.462,1.7Z" transform="translate(-719.238 -1605.174)" fill="#a5c3ea"/>
              <circle id="Elipse_13241" data-name="Elipse 13241" cx="30.891" cy="30.891" r="30.891" transform="translate(15.977 12.134)" fill="#00b1c9"/>
              <g id="Grupo_174880" data-name="Grupo 174880" transform="translate(23.181 18.767)">
                <g id="Grupo_174879" data-name="Grupo 174879" transform="translate(15.549)">
                  <path id="Trazado_207907" data-name="Trazado 207907" d="M1151.02,875.252s.035.757-.015,1.719a8.011,8.011,0,0,1-.727,3.343l-1.11-4.692Z" transform="translate(-1134.189 -866.568)" fill="#17284f"/>
                  <path id="Trazado_207908" data-name="Trazado 207908" d="M1029.054,940.821l.173,6.241s-2.565,2.091-4.223,1.8c-2.842-.5-5.44-4.2-5.44-4.2l.5-8.459h.785C1022.231,939.465,1024.981,940.985,1029.054,940.821Z" transform="translate(-1017.336 -921.526)" fill="#d8738a"/>
                  <path id="Trazado_207909" data-name="Trazado 207909" d="M1029.131,943.631l.095,3.43s-2.565,2.091-4.223,1.8c-2.842-.5-5.44-4.2-5.44-4.2l.5-8.459.5.247C1022.132,942.522,1025.058,943.8,1029.131,943.631Z" transform="translate(-1017.335 -921.526)" fill="#edb0be"/>
                  <path id="Trazado_207910" data-name="Trazado 207910" d="M1033.7,943.631l-.078,1.859s-2.13,1.374-3.787,1.084c-2.842-.5-4.705-3.573-4.705-3.573l-.5-6.8.5.247C1026.7,942.522,1029.629,943.8,1033.7,943.631Z" transform="translate(-1021.906 -921.526)" fill="#f1c2cd"/>
                  <path id="Trazado_207911" data-name="Trazado 207911" d="M1010.743,876.136s-.164-3-2.311-2.6c-1.818.333-1.345,4.367,1.165,3.553a8.358,8.358,0,0,0,2.214,3.885c2,1.631,8.155,1.123,9.315-.311,1.861-2.3,1.411-7.746.358-10.384l-10.741,1.1v4.763Z" transform="translate(-1006.309 -862.083)" fill="#e9a1b2"/>
                  <path id="Trazado_207912" data-name="Trazado 207912" d="M1057.974,889.824c-.741,1.34-1.576,6.076,0,7.364,1.995,1.631,6.843,1.434,8,0,1.464-1.81,1.5-5.562.934-8.366-.878.947-3.312-.8-5.143,0-1.178.513-3.473.423-3.793,1Z" transform="translate(-1051.16 -878.61)" fill="#f1c2cd"/>
                  <path id="Trazado_207913" data-name="Trazado 207913" d="M1070.618,902.524a2.555,2.555,0,0,1,2.574-.931.148.148,0,1,0,.062-.289,2.849,2.849,0,0,0-2.878,1.051.148.148,0,0,0,.242.169Z" transform="translate(-1063.125 -889.995)" fill="#da6820"/>
                  <path id="Trazado_207914" data-name="Trazado 207914" d="M1124.295,900.367a2.849,2.849,0,0,0-2.878-1.051.148.148,0,0,0,.061.289,2.555,2.555,0,0,1,2.574.931.148.148,0,1,0,.242-.169Z" transform="translate(-1109.063 -888.203)" fill="#da6820"/>
                  <path id="Trazado_207915" data-name="Trazado 207915" d="M1085.691,913.478c.188,0,.341.291.341.651s-.153.651-.341.651-.341-.291-.341-.651S1085.5,913.478,1085.691,913.478Z" transform="translate(-1076.65 -901.034)" fill="#19346d"/>
                  <path id="Trazado_207916" data-name="Trazado 207916" d="M1116.786,923.012a16.647,16.647,0,0,0,.648,1.854,2.528,2.528,0,0,0,.363.621,1.486,1.486,0,0,1-.734.318.1.1,0,0,0,.011.2,1.887,1.887,0,0,0,.939-.437l-.012-.157a.553.553,0,0,1-.137-.151,3.092,3.092,0,0,1-.251-.472,16.393,16.393,0,0,1-.638-1.827.1.1,0,1,0-.189.053Z" transform="translate(-1104.99 -909.517)" fill="#de6d87"/>
                  <path id="Trazado_207917" data-name="Trazado 207917" d="M1093.939,963.8a2.892,2.892,0,0,0,2.072.522.178.178,0,0,0,.174-.192.2.2,0,0,0-.219-.161,2.518,2.518,0,0,1-1.754-.421.215.215,0,0,0-.28,0A.164.164,0,0,0,1093.939,963.8Z" transform="translate(-1084.337 -946.128)" fill="#ee2121"/>
                  <path id="Trazado_207918" data-name="Trazado 207918" d="M1019.347,919.227a1.105,1.105,0,0,0-1.16-.748.148.148,0,1,0,.047.291.8.8,0,0,1,.835.553.148.148,0,1,0,.279-.1Z" transform="translate(-1015.982 -905.529)" fill="#d84b6b"/>
                  <path id="Trazado_207919" data-name="Trazado 207919" d="M1133.521,913.478c.188,0,.341.291.341.651s-.153.651-.341.651-.341-.291-.341-.651S1133.333,913.478,1133.521,913.478Z" transform="translate(-1119.774 -901.034)" fill="#19346d"/>
                  <path id="Trazado_207920" data-name="Trazado 207920" d="M1001.353,801.045s.11,1.411.7,1.277.9-4.069.726-4.928c0,0,2.445.382,3.8-.764s2.911-.138,4.155,0c2.321.258,3.679-.43,3.651-1.982-.032-1.727-.969-1.533-.969-1.533s.871-2.779-.41-3.6-1.987-.458-2.637-.707-1.829-1.89-3.357-1.813-2.261,1.08-2.784,1.193c-1.466.315-4.833-1.533-5.119,2.206,0,0-2.111.611-2.187,2.2s.716,2.214.372,3.456-.442,2.641.647,3.5c.934-2.038,3.237-1.085,3.41,1.5Z" transform="translate(-996.919 -786.992)" fill="#1b305d"/>
                  <path id="Trazado_207921" data-name="Trazado 207921" d="M997.97,795.415c-.344,1.242,2.521,1.487,3.113,1.353a2.381,2.381,0,0,0,1.181-2.3s2.708,2.354,4.064,1.208,3.462-.138,4.706,0c2.321.258,3.408.525,3.38-1.027-.032-1.727-.969-1.533-.969-1.533s.87-2.779-.41-3.6-1.987-.458-2.637-.707-1.829-1.89-3.357-1.813-2.261,1.08-2.784,1.193c-1.466.315-4.833-1.533-5.119,2.206,0,0-2.111.611-2.187,2.2s1.363,1.583,1.019,2.825Z" transform="translate(-996.945 -786.992)" fill="#213a71"/>
                </g>
                <path id="Trazado_207922" data-name="Trazado 207922" d="M838.872,1030.968c1.457-6.543,3.324-13.807,4.97-16.714,2.349-4.15,12.46-5.551,12.46-5.551s3.482,5.1,6.854,4.844c2.684-.207,3.206-4.225,3.206-4.225s9.621.273,12.123,4.225c1.925,3.041,4.638,11.31,6.793,18.522a30.874,30.874,0,0,1-46.406-1.1Z" transform="translate(-838.872 -986.89)" fill="#ffe4a9"/>
                <path id="Trazado_207923" data-name="Trazado 207923" d="M1004.436,999.933a24.621,24.621,0,0,0,4.615,4.707,4.923,4.923,0,0,0,3.365,1.118,4.549,4.549,0,0,0,3.051-2.149,9.864,9.864,0,0,0,1.282-3.1.689.689,0,0,0-1.351-.271l-1.08,2.608a3.189,3.189,0,0,1-2.112,1.548,2.525,2.525,0,0,1-1.466-.341,9.215,9.215,0,0,1-1.814-1.261,25.441,25.441,0,0,1-3.38-3.677.689.689,0,1,0-1.11.816Z" transform="translate(-988.026 -977.994)" fill="#fff"/>
                <path id="Trazado_207924" data-name="Trazado 207924" d="M943.914,1164.6a.423.423,0,0,1-.012-.051l-2.5-15.33a.394.394,0,1,1,.777-.126l2.461,15.1Q944.28,1164.4,943.914,1164.6Zm-31.109-1,1.9-14.491a.394.394,0,1,1,.78.1l-1.933,14.765a.394.394,0,0,1-.015.069q-.368-.218-.729-.445Z" transform="translate(-905.531 -1113.172)" fill="#9e6900"/>
              </g>
            </g>
            <g id="Grupo_174882" data-name="Grupo 174882" transform="translate(160.559 101.929)">
              <path id="Trazado_207925" data-name="Trazado 207925" d="M2827.273,1991.53l-5.81,7.755L2863.622,2034a7.36,7.36,0,0,0,10.568-1.269h0a7.36,7.36,0,0,0-1.752-10.5l-45.165-30.706Z" transform="translate(-2763.783 -1942.176)" fill="#a8c0d9"/>
              <path id="Trazado_207926" data-name="Trazado 207926" d="M2904.006,2035.27l-4.458,6.8,35.153,28.963a6.414,6.414,0,0,0,8.059.079h0a6.042,6.042,0,0,0-.353-9.734l-38.4-26.108Z" transform="translate(-2834.187 -1981.612)" fill="#084a93"/>
              <path id="Trazado_207927" data-name="Trazado 207927" d="M2242.35,1530.684a35.814,35.814,0,1,1,7.189,50.136,35.831,35.831,0,0,1-7.189-50.136Z" transform="translate(-2235.203 -1513.745)" fill="#a8c0d9"/>
              <path id="Trazado_207928" data-name="Trazado 207928" d="M2257.8,1504.224a35.814,35.814,0,1,1,7.188,50.136,35.831,35.831,0,0,1-7.188-50.136Z" transform="translate(-2249.133 -1489.888)" fill="#084a93"/>
              <path id="Trazado_207929" data-name="Trazado 207929" d="M2325.128,1570.191a29.057,29.057,0,1,1,5.832,40.677,29.071,29.071,0,0,1-5.832-40.677Z" transform="translate(-2311.053 -1551.804)" fill="#d9eafc"/>
              <path id="Trazado_207930" data-name="Trazado 207930" d="M2373.473,1617.562a24.2,24.2,0,1,1,4.858,33.884,24.216,24.216,0,0,1-4.858-33.884Z" transform="translate(-2355.514 -1596.265)" fill="#ecf4fe"/>
              <path id="Trazado_207931" data-name="Trazado 207931" d="M2492.882,1825.986a7.321,7.321,0,1,1,1.469,10.248,7.324,7.324,0,0,1-1.469-10.248Z" transform="translate(-2466.213 -1790.277)" fill="#f5fafe"/>
              <path id="Trazado_207932" data-name="Trazado 207932" d="M2641.176,1801.762a4.8,4.8,0,1,1,.964,6.723A4.805,4.805,0,0,1,2641.176,1801.762Z" transform="translate(-2600.371 -1769.345)" fill="#f5fafe"/>
            </g>
            <g id="Grupo_174884" data-name="Grupo 174884" transform="translate(201.049 31.597)">
              <path id="Trazado_207933" data-name="Trazado 207933" d="M2745.11,777.845a2.818,2.818,0,0,0-2.816-2.816h-92.726a2.818,2.818,0,0,0-2.816,2.816v50.693a2.818,2.818,0,0,0,2.816,2.816h92.726a2.818,2.818,0,0,0,2.816-2.816V777.845Z" transform="translate(-2646.752 -775.029)" fill="#a6f4fe"/>
              <g id="Grupo_174883" data-name="Grupo 174883" transform="translate(0 0)">
                <path id="Trazado_207934" data-name="Trazado 207934" d="M2745.11,892.584h-98.358V891.8h98.358Zm0-10.135h-98.358v-.787h98.358Zm0-10.135h-98.358v-.787h98.358Zm0-10.135h-98.358v-.787h98.358Zm0-10.135h-98.358v-.787h98.358Z" transform="translate(-2646.752 -843.758)" fill="#d9faff"/>
                <path id="Trazado_207935" data-name="Trazado 207935" d="M2710.937,831.355h-.787V775.03h.787Zm10.135,0h-.787V775.03h.787Zm10.135,0h-.787V775.03h.787Zm10.135,0h-.787V775.03h.787Zm10.135,0h-.787V775.03h.787Zm10.135,0h-.787V775.03h.787Zm10.135,0h-.787V775.03h.787Zm10.135,0h-.787V775.03h.787Zm9.484,0h-.787V775.03h.787Zm9.347-56.03V831.06a2.829,2.829,0,0,0,.787-.584V775.909A2.827,2.827,0,0,0,2800.71,775.326Z" transform="translate(-2703.912 -775.03)" fill="#d9faff"/>
              </g>
              <path id="Trazado_207936" data-name="Trazado 207936" d="M2646.75,942.335v2.636l.655-.583,13.606-12.128,8.655,8.333,1.514-.183,8.655-13.677,14.044-9.754,5.337,6.9,1.48.087,10.189-10.376,10.665,18.858,1.642.108,8.326-11.051,13.59-4.825v-2.088L2730.3,919.85l-7.779,10.325-10.569-18.689-1.558-.205-10.314,10.5-5.79-7.488-15.907,11.047-8.223,12.995-9.1-8.76-14.312,12.757Z" transform="translate(-2646.75 -897.876)" fill="#fffcf6"/>
              <path id="Trazado_207937" data-name="Trazado 207937" d="M2782.437,931.708a2.051,2.051,0,1,0,2.052,2.052A2.053,2.053,0,0,0,2782.437,931.708Zm-9.284-8.293a2.051,2.051,0,1,0,2.051,2.052A2.052,2.052,0,0,0,2773.153,923.415Zm61.473,0a2.051,2.051,0,1,0,2.051,2.052A2.052,2.052,0,0,0,2834.625,923.415Zm-43.9-4.761a2.051,2.051,0,1,0,2.052,2.051A2.052,2.052,0,0,0,2790.73,918.654Zm21.385-3.733a2.051,2.051,0,1,0,2.052,2.052A2.052,2.052,0,0,0,2812.115,914.921Zm30.756-1.853a2.052,2.052,0,1,0,2.052,2.052,2.053,2.053,0,0,0-2.052-2.052Zm-37.145-4.928a2.052,2.052,0,1,0,2.052,2.052A2.052,2.052,0,0,0,2805.726,908.14Zm17.341-3.316a2.051,2.051,0,1,0,2.052,2.052A2.052,2.052,0,0,0,2823.067,904.824Z" transform="translate(-2758.867 -892.054)" fill="#ffb30b"/>
            </g>
            <g id="Grupo_174885" data-name="Grupo 174885" transform="translate(9.422 126.953)">
              <path id="Trazado_207938" data-name="Trazado 207938" d="M790.389,2108.78a37.445,37.445,0,0,0,65.642-28.747l-37.185,4.408-28.457,24.339Z" transform="translate(-781.4 -2046.996)" fill="#2a81e1"/>
              <path id="Trazado_207939" data-name="Trazado 207939" d="M815.532,2126.618l26.709-26.3,34.9-.682q.086,1.238.086,2.479a35.713,35.713,0,0,1-61.7,24.5Z" transform="translate(-804.069 -2064.671)" fill="#084a93"/>
              <path id="Trazado_207940" data-name="Trazado 207940" d="M712.1,1835.85a37.445,37.445,0,0,0-2.11,54.91l26.478-26.478L712.1,1835.85Z" transform="translate(-699.024 -1826.837)" fill="#549ad9"/>
              <path id="Trazado_207941" data-name="Trazado 207941" d="M729.664,1864s19.855,20.193,24.543,25.663L728.875,1915c-5.824-6.5-10.177-16.563-10.177-25.333A35.511,35.511,0,0,1,729.664,1864Z" transform="translate(-716.762 -1852.217)" fill="#a8c0d9"/>
              <path id="Trazado_207942" data-name="Trazado 207942" d="M1117.074,1781.684a37.445,37.445,0,0,0-37.445-37.445v37.445Z" transform="translate(-1042.183 -1744.239)" fill="#ffba3b"/>
              <path id="Trazado_207943" data-name="Trazado 207943" d="M1115.088,1799.9H1079.63l1.936-35.458a35.513,35.513,0,0,1,33.522,33.522Z" transform="translate(-1042.184 -1762.453)" fill="#ffb30b"/>
              <path id="Trazado_207944" data-name="Trazado 207944" d="M840.1,1744.371q-1.554-.13-3.114-.13a37.445,37.445,0,0,0-26.478,10.968l26.478,26.478Z" transform="translate(-799.537 -1744.241)" fill="#00defc"/>
              <path id="Trazado_207945" data-name="Trazado 207945" d="M850.371,1764.176s-2.162,26.589-2.9,35.458l-25.333-25.386c6.607-6.061,17.793-10.1,26.8-10.1q.72,0,1.439.029Z" transform="translate(-810.024 -1762.188)" fill="#a6f4fe"/>
            </g>
            <g id="Grupo_174886" data-name="Grupo 174886" transform="translate(126.936)">
              <path id="Trazado_207946" data-name="Trazado 207946" d="M1932.8,459.773a5.906,5.906,0,0,0-5.9-5.9h-27.548a5.906,5.906,0,0,0-5.9,5.9v27.548a5.906,5.906,0,0,0,5.9,5.9H1926.9a5.906,5.906,0,0,0,5.9-5.9Z" transform="translate(-1893.45 -453.87)" fill="#ffb30b"/>
              <path id="Trazado_207947" data-name="Trazado 207947" d="M1998.075,568.138a5.529,5.529,0,0,0-5.517-5.164H1982.05a5.529,5.529,0,0,0-5.517,5.164c-.34,5.149-.812,12.3-.812,12.3h23.166ZM1987.3,550.6a5.143,5.143,0,1,1-5.142,5.143A5.145,5.145,0,0,1,1987.3,550.6Z" transform="translate(-1967.627 -541.08)" fill="#00b1c9"/>
            </g>
          </g>
        </g>
      </g>
    </g>
  </g>
</svg>
