<svg xmlns="http://www.w3.org/2000/svg" width="400" height="260" viewBox="0 0 400 260">
  <g id="Grupo_176829" data-name="Grupo 176829" transform="translate(11713 8504)">
    <g id="Grupo_176765" data-name="Grupo 176765">
      <rect id="Rectángulo_298433" data-name="Rectángulo 298433" width="400" height="260" transform="translate(-11713 -8504)" fill="none"/>
      <g id="Grupo_175025" data-name="Grupo 175025" transform="translate(-11752.306 -8809.405)">
        <g id="Grupo_174896" data-name="Grupo 174896" transform="translate(60.902 376.265)">
          <g id="Grupo_174895" data-name="Grupo 174895" transform="translate(7.439)">
            <g id="Grupo_174891" data-name="Grupo 174891" transform="translate(38.685)">
              <rect id="Rectángulo_298000" data-name="Rectángulo 298000" width="221.431" height="162.151" rx="2.882" fill="#352c38" stroke="#765e69" stroke-miterlimit="10" stroke-width="2.284"/>
              <rect id="Rectángulo_298001" data-name="Rectángulo 298001" width="205.293" height="137.298" transform="translate(8.074 8.546)" fill="#fff"/>
            </g>
            <g id="Grupo_174894" data-name="Grupo 174894" transform="translate(0 154.752)">
              <g id="Grupo_174892" data-name="Grupo 174892">
                <path id="Trazado_207949" data-name="Trazado 207949" d="M359.53,456.289H65.09a2.181,2.181,0,0,0-2.181,2.181v4.794a2.18,2.18,0,0,0,.086.573,6.535,6.535,0,0,0,6.453,5.53H355.171a6.534,6.534,0,0,0,6.453-5.53,2.12,2.12,0,0,0,.086-.573V458.47A2.18,2.18,0,0,0,359.53,456.289Z" transform="translate(-62.909 -456.289)" fill="#758395"/>
              </g>
              <g id="Grupo_174893" data-name="Grupo 174893" transform="translate(111.965)" opacity="0.4">
                <path id="Trazado_207950" data-name="Trazado 207950" d="M136.948,456.289a8.924,8.924,0,0,0,8.872,7.971h57.126a8.927,8.927,0,0,0,8.874-7.971Z" transform="translate(-136.948 -456.289)" fill="#352c38"/>
              </g>
            </g>
          </g>
          <path id="Trazado_207951" data-name="Trazado 207951" d="M370.892,470.831c-.433,0-.86,0-1.29,0,1.969-.614,3.011-1.249,3.011-1.9,0-5.365-70.431-9.716-157.312-9.716S57.99,463.571,57.99,468.936s70.431,9.718,157.311,9.718c42.736,0,81.484-1.053,109.835-2.761-1.134.593-1.753,1.216-1.753,1.862,0,3.824,21.271,6.924,47.509,6.924s47.51-3.1,47.51-6.924S397.131,470.831,370.892,470.831Z" transform="translate(-57.99 -300.036)" fill="#352c38" opacity="0.1"/>
        </g>
        <g id="Grupo_174956" data-name="Grupo 174956" transform="translate(295.404 310.405)">
          <g id="Grupo_174951" data-name="Grupo 174951" transform="translate(0)">
            <g id="Grupo_174919" data-name="Grupo 174919" transform="translate(45.304 97.061)">
              <g id="Grupo_174907" data-name="Grupo 174907" transform="translate(0 121.482)">
                <g id="Grupo_174901" data-name="Grupo 174901" transform="translate(0 1.012)">
                  <g id="Grupo_174897" data-name="Grupo 174897" transform="translate(0.084)">
                    <path id="Trazado_207952" data-name="Trazado 207952" d="M264.094,464.922l-.681,15s-39.625,11.228-8.261-4.157l.293-20.175Z" transform="translate(-243.074 -455.59)" fill="#352c38"/>
                    <path id="Trazado_207953" data-name="Trazado 207953" d="M256.433,475.9a17.526,17.526,0,0,0,3.077-.224L260,464.922l-8.648-9.332-.283,19.438A14.871,14.871,0,0,0,256.433,475.9Z" transform="translate(-238.979 -455.59)" fill="#161826" opacity="0.3"/>
                  </g>
                  <g id="Grupo_174900" data-name="Grupo 174900" transform="translate(0 20.111)">
                    <path id="Trazado_207954" data-name="Trazado 207954" d="M250.322,470.552c-14.217,7.529-4.578,6.035,4.015,4.038A7.048,7.048,0,0,0,250.322,470.552Z" transform="translate(-242.987 -468.037)" fill="#fff"/>
                    <g id="Grupo_174898" data-name="Grupo 174898" transform="translate(0 3.516)">
                      <path id="Trazado_207955" data-name="Trazado 207955" d="M243.4,474.66c-3.638,4.068,20.078-2.581,20.078-2.581l.036-.865C261.622,471.74,244.52,476.442,243.4,474.66Z" transform="translate(-243.018 -471.214)" fill="#fff"/>
                    </g>
                    <g id="Grupo_174899" data-name="Grupo 174899" transform="translate(8.156)">
                      <path id="Trazado_207956" data-name="Trazado 207956" d="M250.656,468.889a3.771,3.771,0,0,1,2.869,1.208" transform="translate(-247.261 -468.889)" fill="none" stroke="#fff" stroke-linecap="round" stroke-miterlimit="10" stroke-width="0.983"/>
                      <path id="Trazado_207957" data-name="Trazado 207957" d="M249.6,469.517a3.774,3.774,0,0,1,2.869,1.21" transform="translate(-247.802 -468.567)" fill="none" stroke="#fff" stroke-linecap="round" stroke-miterlimit="10" stroke-width="0.983"/>
                      <path id="Trazado_207958" data-name="Trazado 207958" d="M248.411,470.175a3.774,3.774,0,0,1,2.869,1.21" transform="translate(-248.411 -468.23)" fill="none" stroke="#fff" stroke-linecap="round" stroke-miterlimit="10" stroke-width="0.983"/>
                    </g>
                  </g>
                </g>
                <g id="Grupo_174906" data-name="Grupo 174906" transform="translate(46.146)">
                  <g id="Grupo_174902" data-name="Grupo 174902">
                    <path id="Trazado_207959" data-name="Trazado 207959" d="M273.533,464.7l1.509,14.942s40.188,9.12,8.019-4.588l-1.408-20.129Z" transform="translate(-273.533 -454.921)" fill="#352c38"/>
                    <path id="Trazado_207960" data-name="Trazado 207960" d="M277.7,475.474a17.762,17.762,0,0,1-3.085-.06L273.533,464.7l8.121-9.775,1.356,19.4A14.865,14.865,0,0,1,277.7,475.474Z" transform="translate(-273.533 -454.921)" fill="#161826" opacity="0.3"/>
                  </g>
                  <g id="Grupo_174905" data-name="Grupo 174905" transform="translate(1.4 20.034)">
                    <path id="Trazado_207961" data-name="Trazado 207961" d="M284.391,469.833c-1.91.615-3.381,2.347-2.624,4.3C289.839,475.468,297.41,475.935,284.391,469.833Z" transform="translate(-270.819 -467.317)" fill="#fff"/>
                    <g id="Grupo_174903" data-name="Grupo 174903" transform="translate(0 3.983)">
                      <path id="Trazado_207962" data-name="Trazado 207962" d="M294.735,473.182c3.858,3.87-20.191-1.517-20.191-1.517l-.085-.862C276.375,471.228,293.713,475.021,294.735,473.182Z" transform="translate(-274.459 -470.803)" fill="#fff"/>
                    </g>
                    <g id="Grupo_174904" data-name="Grupo 174904" transform="translate(5.939)">
                      <path id="Trazado_207963" data-name="Trazado 207963" d="M281.184,468.169a3.759,3.759,0,0,0-2.8,1.358" transform="translate(-278.386 -468.169)" fill="none" stroke="#fff" stroke-linecap="round" stroke-miterlimit="10" stroke-width="0.983"/>
                      <path id="Trazado_207964" data-name="Trazado 207964" d="M282.275,468.741a3.761,3.761,0,0,0-2.8,1.358" transform="translate(-277.828 -467.876)" fill="none" stroke="#fff" stroke-linecap="round" stroke-miterlimit="10" stroke-width="0.983"/>
                      <path id="Trazado_207965" data-name="Trazado 207965" d="M283.5,469.335a3.765,3.765,0,0,0-2.8,1.358" transform="translate(-277.201 -467.572)" fill="none" stroke="#fff" stroke-linecap="round" stroke-miterlimit="10" stroke-width="0.983"/>
                    </g>
                  </g>
                </g>
              </g>
              <g id="Grupo_174918" data-name="Grupo 174918" transform="translate(9.3)">
                <g id="Grupo_174910" data-name="Grupo 174910" transform="translate(0.433)">
                  <g id="Grupo_174908" data-name="Grupo 174908" transform="translate(0)">
                    <path id="Trazado_207966" data-name="Trazado 207966" d="M253.372,385.648s-6.2,71.626-3,129.357c0,0,8.184,2.671,10.7.439,1.831-13.758,1.511-40.315,4.278-60.231,2.606-18.753,5.506-40.93,5.506-40.93l1.615.224s11.336,93.432,13,100.243c8.532,1.94,11.38-1.744,11.38-1.744S293.508,403.155,290.641,385C286.885,361.2,253.372,385.648,253.372,385.648Z" transform="translate(-249.455 -374.589)" fill="#2c4b90"/>
                  </g>
                  <g id="Grupo_174909" data-name="Grupo 174909" transform="translate(0 34.702)" opacity="0.1">
                    <path id="Trazado_207967" data-name="Trazado 207967" d="M251.7,397.536c-1.567,25.89-3.384,68.662-1.331,105.715,0,0,8.184,2.671,10.7.439,1.831-13.758,1.511-40.315,4.278-60.231,2.435-17.531,5.128-38.053,5.47-40.652A59.5,59.5,0,0,1,251.7,397.536Z" transform="translate(-249.454 -397.536)" fill="#352c38"/>
                  </g>
                </g>
                <g id="Grupo_174914" data-name="Grupo 174914" transform="translate(3.475 0.006)">
                  <g id="Grupo_174911" data-name="Grupo 174911" transform="translate(0 6.806)">
                    <path id="Trazado_207968" data-name="Trazado 207968" d="M259,379.093c-3.956,2.278-6.658,4.248-6.658,4.248s-.367,4.24-.876,11.473c1.6.47,3.835,1.074,6.546,1.657C258.294,390.677,258.6,384.882,259,379.093Z" transform="translate(-251.466 -379.093)" fill="#352c38"/>
                  </g>
                  <g id="Grupo_174912" data-name="Grupo 174912" transform="translate(10.065)">
                    <path id="Trazado_207969" data-name="Trazado 207969" d="M276.393,374.64c-5.3-.425-11.779,2.045-17.113,4.756-.487,6.686-.835,13.377-1.158,20.072a83.873,83.873,0,0,0,19.139,1.269C277.016,392.037,276.655,383.339,276.393,374.64Z" transform="translate(-258.122 -374.592)" fill="#352c38"/>
                  </g>
                  <g id="Grupo_174913" data-name="Grupo 174913" transform="translate(31.922 0.895)">
                    <path id="Trazado_207970" data-name="Trazado 207970" d="M273.408,400.133a57.139,57.139,0,0,0,6.742-1.151c-.452-6.463-.907-11.478-1.352-14.291-.835-5.288-3.142-8.187-6.223-9.508C272.834,383.5,273.172,391.816,273.408,400.133Z" transform="translate(-272.575 -375.184)" fill="#352c38"/>
                  </g>
                </g>
                <g id="Grupo_174917" data-name="Grupo 174917" transform="translate(0 132.786)">
                  <g id="Grupo_174915" data-name="Grupo 174915" transform="translate(34.862)">
                    <path id="Trazado_207971" data-name="Trazado 207971" d="M273.009,469.659a13.74,13.74,0,0,0,13.406-1.816l-.473-5.447a52.6,52.6,0,0,1-13.721,1.65Z" transform="translate(-272.221 -462.396)" fill="#c3dcfb"/>
                  </g>
                  <g id="Grupo_174916" data-name="Grupo 174916" transform="translate(0 1.158)">
                    <path id="Trazado_207972" data-name="Trazado 207972" d="M261.747,470.587s-5.117,2.146-12.55-1.589l-.029-5.836a44.864,44.864,0,0,0,13.143.686Z" transform="translate(-249.168 -463.162)" fill="#c3dcfb"/>
                  </g>
                </g>
              </g>
            </g>
            <g id="Grupo_174932" data-name="Grupo 174932" transform="translate(57.082)">
              <g id="Grupo_174920" data-name="Grupo 174920" transform="translate(0 29.216)">
                <path id="Trazado_207973" data-name="Trazado 207973" d="M285.213,332.567s-4.49,15.485,1.789,18.141,18.676,3.466,18.909,15.048-55.1-.614-55.1-.614-.062-12.978,10.909-13.993,8.3-2.285,9.107-14.684S285.213,332.567,285.213,332.567Z" transform="translate(-250.806 -329.724)" fill="#ffac9d"/>
                <path id="Trazado_207974" data-name="Trazado 207974" d="M277.66,344.88a15.461,15.461,0,0,1-8.559,4.547,28.024,28.024,0,0,1-6.392.2c2.473-1.606,1.481-4.931,2.017-13.156.811-12.4,14.391-3.9,14.391-3.9S277.111,339.5,277.66,344.88Z" transform="translate(-244.709 -329.724)" fill="#dd938a"/>
              </g>
              <g id="Grupo_174923" data-name="Grupo 174923" transform="translate(7.93)">
                <path id="Trazado_207975" data-name="Trazado 207975" d="M280.679,345.945s9.931-13.084,1.612-23.992-18.619-4.476-20.477,2.344-8.263,27.081,4.163,28.193S280.679,345.945,280.679,345.945Z" transform="translate(-254.791 -307.489)" fill="#ffac9d"/>
                <g id="Grupo_174922" data-name="Grupo 174922">
                  <g id="Grupo_174921" data-name="Grupo 174921">
                    <path id="Trazado_207976" data-name="Trazado 207976" d="M259.693,312.383l1.1,2.727s1.1-3.6,3.827-4.7c0,0-1.105,4.015,3.233,4s14.218-4.833,18.179,4.612c4.186,9.981-4.8,2.382-4.364,3.339,1.444-.206,4.28-4.9,8.156-1.588,4.3,3.679,4.747,19.29-8.316,29.746l1.718-5.683s1.418.927,3-1.27c2.743-3.808,1.024-5.966-.768-5.341s-2.335,4.6-2.335,4.6l-1.379-.129,1.5-8.467c-2.84-2.324-.73-7.85-.73-7.85s-14.03,3.182-21.2-.467C250.5,320.4,259.693,312.383,259.693,312.383Z" transform="translate(-256.05 -310.405)" fill="#352c38"/>
                  </g>
                  <path id="Trazado_207977" data-name="Trazado 207977" d="M273.417,338.418s4.038.268,5.232-5.188-2.293-6.06-3.561-2.731A35.246,35.246,0,0,0,273.417,338.418Z" transform="translate(-247.154 -301.161)" fill="#ffac9d"/>
                </g>
              </g>
              <g id="Grupo_174931" data-name="Grupo 174931" transform="translate(15.298 20.168)">
                <g id="Grupo_174924" data-name="Grupo 174924" transform="translate(0.558 14.955)">
                  <path id="Trazado_207978" data-name="Trazado 207978" d="M261.291,333.631l11.377,1.848S264.308,340.95,261.291,333.631Z" transform="translate(-261.291 -333.631)" fill="#fff"/>
                </g>
                <g id="Grupo_174925" data-name="Grupo 174925" transform="translate(2.166 4.815)">
                  <path id="Trazado_207979" data-name="Trazado 207979" d="M266.812,326.926a11.935,11.935,0,0,1-.431,1.981,17.8,17.8,0,0,1-.7,1.893c-.148.3-.29.611-.454.91s-.346.591-.525.883a6.567,6.567,0,0,1-.646.835,3.666,3.666,0,0,1-.393.387,3.51,3.51,0,0,1-.49.331l-.021-.665c.339.206.665.434.992.661s.646.472.953.74c-.4-.086-.78-.2-1.161-.324s-.756-.251-1.122-.4l-.455-.185.434-.481a2.883,2.883,0,0,0,.284-.29c.089-.121.194-.213.277-.349s.178-.248.257-.387.169-.266.253-.4c.162-.277.315-.557.475-.841s.311-.569.467-.856c.315-.573.626-1.152.954-1.729.171-.286.33-.576.51-.86S266.622,327.209,266.812,326.926Z" transform="translate(-262.354 -326.926)" fill="#e27c71"/>
                </g>
                <g id="Grupo_174926" data-name="Grupo 174926" transform="translate(20.03 8.846)">
                  <path id="Trazado_207980" data-name="Trazado 207980" d="M274.707,335.832a.911.911,0,0,0,.148-.768.63.63,0,0,0-.231-.28,1.377,1.377,0,0,0-.342-.177l-.115-.045.029-.136a16.712,16.712,0,0,1,.59-2.057,9.313,9.313,0,0,1,.935-1.957,2.892,2.892,0,0,1,.357-.448,1.285,1.285,0,0,1,.54-.348.7.7,0,0,1,.4.008.886.886,0,0,1,.268.133.868.868,0,0,1,.355.564,1.7,1.7,0,0,1,0,.581,2.856,2.856,0,0,1-.124.537,5.006,5.006,0,0,1-.439.98,7.573,7.573,0,0,0,.231-1.028,2.445,2.445,0,0,0-.02-.981.509.509,0,0,0-.209-.3c-.012-.033-.138-.054-.212-.082a.459.459,0,0,0-.126.015,1.643,1.643,0,0,0-.612.638,12.258,12.258,0,0,0-.9,1.859c-.265.646-.508,1.307-.744,1.966l-.086-.181a1.656,1.656,0,0,1,.383.269.823.823,0,0,1,.233.423A.92.92,0,0,1,274.707,335.832Z" transform="translate(-274.167 -329.591)" fill="#e27c71"/>
                </g>
                <g id="Grupo_174927" data-name="Grupo 174927" transform="translate(11.153 5.279)">
                  <path id="Trazado_207981" data-name="Trazado 207981" d="M269.9,329.39c-.213,1.107-.723,1.942-1.139,1.862s-.579-1.043-.366-2.152.724-1.942,1.139-1.862S270.109,328.281,269.9,329.39Z" transform="translate(-268.297 -327.233)" fill="#352c38"/>
                </g>
                <g id="Grupo_174928" data-name="Grupo 174928" transform="translate(1.555 3.674)">
                  <ellipse id="Elipse_13249" data-name="Elipse 13249" cx="2.043" cy="0.766" rx="2.043" ry="0.766" transform="translate(0 4.013) rotate(-79.094)" fill="#352c38"/>
                </g>
                <g id="Grupo_174929" data-name="Grupo 174929" transform="translate(9.092 1.036)">
                  <path id="Trazado_207982" data-name="Trazado 207982" d="M266.934,327a3.164,3.164,0,0,1,.647-1.288,3.379,3.379,0,0,1,.507-.517,3.476,3.476,0,0,1,.7-.46,3.08,3.08,0,0,1,.9-.268,3.494,3.494,0,0,1,.989,0,3.984,3.984,0,0,1,.91.325,3.3,3.3,0,0,1,.741.5,4.348,4.348,0,0,1,.563.573c.15.2.281.4.4.578a2.626,2.626,0,0,1,.26.523c.071.159.121.3.162.42a3.731,3.731,0,0,1,.115.374s-.133-.073-.336-.21c-.1-.07-.224-.151-.352-.253a5.358,5.358,0,0,0-.441-.316c-.165-.107-.336-.224-.51-.351s-.378-.212-.563-.334a4.062,4.062,0,0,0-.591-.283,1.088,1.088,0,0,0-.3-.1l-.3-.085a3.373,3.373,0,0,0-.6-.032,3.068,3.068,0,0,0-.6.079,4.607,4.607,0,0,0-.587.2,5.582,5.582,0,0,0-.541.246c-.337.174-.629.345-.832.473Z" transform="translate(-266.934 -324.427)" fill="#352c38"/>
                </g>
                <g id="Grupo_174930" data-name="Grupo 174930">
                  <path id="Trazado_207983" data-name="Trazado 207983" d="M260.922,326.422a3.112,3.112,0,0,1,.535-1.291,3.425,3.425,0,0,1,.457-.534,3.387,3.387,0,0,1,.653-.493,2.882,2.882,0,0,1,.87-.309,3.1,3.1,0,0,1,.975-.029l.466.126.228.07.2.107a3,3,0,0,1,.726.481,3.717,3.717,0,0,1,.549.555c.145.2.274.383.387.557a2.65,2.65,0,0,1,.253.51c.07.153.116.293.157.407a3.477,3.477,0,0,1,.11.363s-.13-.068-.33-.2c-.1-.065-.221-.141-.346-.237s-.265-.207-.432-.3-.33-.212-.5-.331a5.844,5.844,0,0,0-.546-.316,3.312,3.312,0,0,0-.569-.262l-.142-.064c-.048-.008-.1-.018-.144-.029l-.284-.073a2.817,2.817,0,0,0-.564-.014,3.122,3.122,0,0,0-.567.1,4.778,4.778,0,0,0-.549.219,5.541,5.541,0,0,0-.508.268c-.316.186-.588.366-.78.5Z" transform="translate(-260.922 -323.742)" fill="#352c38"/>
                </g>
              </g>
            </g>
            <g id="Grupo_174950" data-name="Grupo 174950" transform="translate(0 44.982)">
              <g id="Grupo_174937" data-name="Grupo 174937" transform="translate(0 6.932)">
                <path id="Trazado_207984" data-name="Trazado 207984" d="M279.073,355.823c1.411-3.852.361-11.089.361-11.089l-17.991,1.155-14.36,24.1-14.855-16.012s-7.56,2.781-7.924,6.6c0,0,18.982,30.866,24.76,30.866C252.891,391.446,278.076,358.544,279.073,355.823Z" transform="translate(-207.3 -344.734)" fill="#f3faff"/>
                <g id="Grupo_174936" data-name="Grupo 174936">
                  <path id="Trazado_207985" data-name="Trazado 207985" d="M240.132,357.841s-4.621-6.767-6.436-6.932-13.2.495-13.2.495-8.748-5.942-1.487,1.32l3.962.661h-4.786s-2.807-2.311-3.962-1.981,3.962,3.8,3.962,3.8-5.282-1.981-5.117-1.157,4.457,2.972,6.273,3.468,10.4-.826,10.4-.826l6.108,6.106Z" transform="translate(-213.059 -342.49)" fill="#ffac9d"/>
                  <g id="Grupo_174935" data-name="Grupo 174935" transform="translate(17.004)">
                    <g id="Grupo_174933" data-name="Grupo 174933">
                      <path id="Trazado_207986" data-name="Trazado 207986" d="M279.073,355.823c1.411-3.852.361-11.089.361-11.089l-17.991,1.155-14.36,24.1-14.855-16.012s-7.56,2.781-7.924,6.6c0,0,18.982,30.866,24.76,30.866C252.891,391.446,278.076,358.544,279.073,355.823Z" transform="translate(-224.304 -344.734)" fill="#c3dcfb"/>
                    </g>
                    <g id="Grupo_174934" data-name="Grupo 174934" transform="translate(28.404)">
                      <path id="Trazado_207987" data-name="Trazado 207987" d="M269.813,344.734l-17.991,1.155-8.735,14.657a44.724,44.724,0,0,0,4.724,10.549,51.94,51.94,0,0,0,5.136,6.7c7.752-9.394,15.945-20.445,16.5-21.974C270.862,351.972,269.813,344.734,269.813,344.734Z" transform="translate(-243.087 -344.734)" fill="#c3dcdb"/>
                    </g>
                  </g>
                </g>
              </g>
              <g id="Grupo_174945" data-name="Grupo 174945" transform="translate(53.21)">
                <g id="Grupo_174939" data-name="Grupo 174939" transform="translate(0 4.702)">
                  <g id="Grupo_174938" data-name="Grupo 174938">
                    <path id="Trazado_207988" data-name="Trazado 207988" d="M289.582,343.5a20.182,20.182,0,0,1-14.324,5.291c-7.655-.194-9.078-5.447-9.078-5.447s-15.115-.919-17,3.3-.33,18.982-.33,18.982,2.25,38.951,2.475,49.353c0,0,6.876,7.368,15.184,7.923,1.022.068,1.084-8.473,2.155-8.417.649.033,2.465,8.553,3.127,8.582,7.962.333,20.084-4.257,21.457-7.593,0,0,2.483-50.267,6.782-67.913Z" transform="translate(-248.246 -343.259)" fill="#c3dcfb"/>
                  </g>
                </g>
                <g id="Grupo_174944" data-name="Grupo 174944" transform="translate(16.577)">
                  <g id="Grupo_174940" data-name="Grupo 174940" transform="translate(0.202 7.923)">
                    <path id="Trazado_207989" data-name="Trazado 207989" d="M264.953,350.093l2.063,3.384-7.675,43.905,4.7,6.767,6.438-5.2.66-45.144,4.7-4.952-3.631-2.806-5.034-.66Z" transform="translate(-259.341 -345.389)" fill="#758395"/>
                  </g>
                  <g id="Grupo_174943" data-name="Grupo 174943">
                    <g id="Grupo_174941" data-name="Grupo 174941" transform="translate(0 1.981)">
                      <path id="Trazado_207990" data-name="Trazado 207990" d="M259.244,343.606s-.826,4.868,5.364,11.8l4.186-7.8-6.745-6.144Z" transform="translate(-259.208 -341.46)" fill="#eaf3fe"/>
                    </g>
                    <g id="Grupo_174942" data-name="Grupo 174942" transform="translate(10.972)">
                      <path id="Trazado_207991" data-name="Trazado 207991" d="M277.315,340.15l-10.852,8.216,4.085,7.959s7.189-5.3,9.7-11.233Z" transform="translate(-266.463 -340.15)" fill="#eaf3fe"/>
                    </g>
                  </g>
                </g>
              </g>
              <g id="Grupo_174949" data-name="Grupo 174949" transform="translate(88.719 4.942)">
                <g id="Grupo_174947" data-name="Grupo 174947" transform="translate(0 10.602)">
                  <g id="Grupo_174946" data-name="Grupo 174946">
                    <path id="Trazado_207992" data-name="Trazado 207992" d="M295.3,350.429s16.821,26.712,15.19,31.275-23.617,24.941-26.892,24.754-3.315-4.3-3.315-4.3-13.683,9.352-.452-1.668c0,0-17.778,9.116-.662-2.778,0,0-16.6,2.884.656-1.88,0,0-12.784-1.555,1.7-1l1.949,4.221,14.168-17.814-17.6-22.647Z" transform="translate(-271.727 -350.429)" fill="#ffac9d"/>
                  </g>
                </g>
                <g id="Grupo_174948" data-name="Grupo 174948" transform="translate(5.698)">
                  <path id="Trazado_207993" data-name="Trazado 207993" d="M306.612,375.116c-5.069-8.9-14.026-24.329-16.24-26.2-3.135-2.645-14.749-5.5-14.749-5.5l-.129,19.322L294.147,384.2,281.6,401.033s2.477,5.942,5.943,7.593c0,0,23.768-22.283,23.768-24.923C311.312,382.03,308.6,377.915,306.612,375.116Z" transform="translate(-275.495 -343.418)" fill="#c3dcfb"/>
                </g>
              </g>
            </g>
          </g>
        </g>
        <g id="Grupo_175024" data-name="Grupo 175024" transform="translate(52.306 311.548)">
          <g id="Grupo_174963" data-name="Grupo 174963" transform="translate(201.907 77.364)">
            <g id="Grupo_174960" data-name="Grupo 174960">
              <g id="Grupo_174959" data-name="Grupo 174959">
                <g id="Grupo_174958" data-name="Grupo 174958">
                  <g id="Grupo_174957" data-name="Grupo 174957">
                    <rect id="Rectángulo_298003" data-name="Rectángulo 298003" width="24.227" height="24.227" rx="1.335" fill="#ecb12d"/>
                  </g>
                </g>
              </g>
            </g>
            <g id="Grupo_174962" data-name="Grupo 174962" transform="translate(4.169 2.613)">
              <rect id="Rectángulo_298004" data-name="Rectángulo 298004" width="15.807" height="10.613" transform="translate(0 6.549)" fill="none" stroke="#fff" stroke-linecap="round" stroke-linejoin="round" stroke-width="3.399"/>
              <g id="Grupo_174961" data-name="Grupo 174961" transform="translate(4.516)">
                <line id="Línea_415" data-name="Línea 415" y1="12.194" transform="translate(3.613 0.677)" fill="none" stroke="#fff" stroke-linecap="round" stroke-linejoin="round" stroke-width="3.399"/>
                <path id="Trazado_207995" data-name="Trazado 207995" d="M191.565,367.435l3.387-3.387,3.5,3.5" transform="translate(-191.565 -364.047)" fill="none" stroke="#fff" stroke-linecap="round" stroke-linejoin="round" stroke-width="3.399"/>
              </g>
            </g>
          </g>
          <g id="Grupo_174968" data-name="Grupo 174968" transform="translate(215.954 106.408)">
            <g id="Grupo_174964" data-name="Grupo 174964">
              <path id="Trazado_207996" data-name="Trazado 207996" d="M238.434,421.758c0,1.028-.591,1.863-1.32,1.863H196.432c-.729,0-1.322-.835-1.322-1.863V383.387c0-1.028.593-1.862,1.322-1.862h40.682c.729,0,1.32.833,1.32,1.862Z" transform="translate(-195.11 -381.525)" fill="#2c4b90"/>
            </g>
            <g id="Grupo_174967" data-name="Grupo 174967" transform="translate(5.577 5.837)">
              <g id="Grupo_174965" data-name="Grupo 174965" transform="translate(0 0.547)">
                <path id="Trazado_207997" data-name="Trazado 207997" d="M232.895,412.024H198.8l10.838-26.277,7.529,14.454,4.138-3.859Zm-31.04-2.046h26.984L221.02,399.4l-4.425,4.131-6.743-12.945Z" transform="translate(-198.798 -385.747)" fill="#fff"/>
              </g>
              <g id="Grupo_174966" data-name="Grupo 174966" transform="translate(18.219)">
                <path id="Trazado_207998" data-name="Trazado 207998" d="M215.721,395.136a4.875,4.875,0,1,1,4.875-4.875A4.88,4.88,0,0,1,215.721,395.136Zm0-7.706a2.831,2.831,0,1,0,2.831,2.831A2.835,2.835,0,0,0,215.721,387.43Z" transform="translate(-210.846 -385.385)" fill="#fff"/>
              </g>
            </g>
          </g>
          <g id="Grupo_174977" data-name="Grupo 174977" transform="translate(132.224)">
            <g id="Grupo_174969" data-name="Grupo 174969">
              <circle id="Elipse_13250" data-name="Elipse 13250" cx="21.84" cy="21.84" r="21.84" fill="#2c4b90"/>
            </g>
            <g id="Grupo_174976" data-name="Grupo 174976" transform="translate(5.621 5.622)">
              <g id="Grupo_174970" data-name="Grupo 174970">
                <path id="Trazado_207999" data-name="Trazado 207999" d="M159.678,347.314A16.218,16.218,0,1,1,175.9,331.1,16.236,16.236,0,0,1,159.678,347.314Zm0-30.962A14.744,14.744,0,1,0,174.422,331.1,14.76,14.76,0,0,0,159.678,316.353Z" transform="translate(-143.459 -314.878)" fill="#fff"/>
              </g>
              <g id="Grupo_174971" data-name="Grupo 174971" transform="translate(4.447 4.54)">
                <path id="Trazado_208000" data-name="Trazado 208000" d="M158.171,323.956a16.07,16.07,0,0,1-11.771-5.063l1.069-1.013a14.744,14.744,0,0,0,20.845.558l1.015,1.071A16.158,16.158,0,0,1,158.171,323.956Z" transform="translate(-146.4 -317.88)" fill="#fff"/>
              </g>
              <g id="Grupo_174972" data-name="Grupo 174972" transform="translate(4.475 22.002)">
                <path id="Trazado_208001" data-name="Trazado 208001" d="M168.276,335.5a14.746,14.746,0,0,0-20.843-.558l-1.015-1.071a16.217,16.217,0,0,1,22.929.615Z" transform="translate(-146.418 -329.427)" fill="#fff"/>
              </g>
              <g id="Grupo_174973" data-name="Grupo 174973" transform="translate(6.524)">
                <path id="Trazado_208002" data-name="Trazado 208002" d="M157.468,347.314c-5.437,0-9.695-7.123-9.695-16.217s4.258-16.219,9.695-16.219,9.693,7.124,9.693,16.219S162.9,347.314,157.468,347.314Zm0-30.962c-4.532,0-8.221,6.613-8.221,14.744s3.688,14.743,8.221,14.743,8.219-6.613,8.219-14.743S162,316.353,157.468,316.353Z" transform="translate(-147.773 -314.878)" fill="#fff"/>
              </g>
              <g id="Grupo_174974" data-name="Grupo 174974" transform="translate(15.481 0.737)">
                <rect id="Rectángulo_298005" data-name="Rectángulo 298005" width="1.475" height="30.963" fill="#fff"/>
              </g>
              <g id="Grupo_174975" data-name="Grupo 174975" transform="translate(0.737 15.481)">
                <rect id="Rectángulo_298006" data-name="Rectángulo 298006" width="30.963" height="1.475" fill="#fff"/>
              </g>
            </g>
          </g>
          <g id="Grupo_174983" data-name="Grupo 174983" transform="translate(78.056 35.521)">
            <g id="Grupo_174978" data-name="Grupo 174978">
              <rect id="Rectángulo_298007" data-name="Rectángulo 298007" width="45.338" height="45.338" rx="1.304" fill="#ecb12d"/>
            </g>
            <g id="Grupo_174982" data-name="Grupo 174982" transform="translate(5.89 12.329)">
              <g id="Grupo_174979" data-name="Grupo 174979" transform="translate(0 3.25)">
                <path id="Trazado_208003" data-name="Trazado 208003" d="M107.817,350.4l8.948-5.446v4.263l-3.124,2.005,3.124,1.836v4.473l-8.948-5.276Z" transform="translate(-107.817 -344.951)" fill="#fff"/>
              </g>
              <g id="Grupo_174980" data-name="Grupo 174980" transform="translate(9.291)">
                <path id="Trazado_208004" data-name="Trazado 208004" d="M127.34,342.8l-8.968,20.68h-4.411l8.948-20.68Z" transform="translate(-113.961 -342.802)" fill="#fff"/>
              </g>
              <g id="Grupo_174981" data-name="Grupo 174981" transform="translate(24.612 3.25)">
                <path id="Trazado_208005" data-name="Trazado 208005" d="M133.038,352.252l-8.946,5.276v-4.473l3.123-1.836-3.123-2.005v-4.263l8.946,5.446Z" transform="translate(-124.092 -344.951)" fill="#fff"/>
              </g>
            </g>
          </g>
          <g id="Grupo_174994" data-name="Grupo 174994" transform="translate(180.248 138.272)">
            <g id="Grupo_174984" data-name="Grupo 174984" transform="translate(0 0)">
              <circle id="Elipse_13251" data-name="Elipse 13251" cx="21.148" cy="21.148" r="21.148" transform="translate(0 38.921) rotate(-66.955)" fill="#ecb12d"/>
            </g>
            <g id="Grupo_174993" data-name="Grupo 174993" transform="translate(9.231 9.538)">
              <g id="Grupo_174985" data-name="Grupo 174985" transform="translate(2.857 2.721)">
                <path id="Trazado_208006" data-name="Trazado 208006" d="M194.973,441.664a15.481,15.481,0,1,1,15.482-15.481A15.5,15.5,0,0,1,194.973,441.664Zm0-28.751a13.27,13.27,0,1,0,13.27,13.27A13.286,13.286,0,0,0,194.973,412.913Z" transform="translate(-179.492 -410.702)" fill="#fff"/>
              </g>
              <g id="Grupo_174986" data-name="Grupo 174986" transform="translate(9.491 9.355)">
                <path id="Trazado_208007" data-name="Trazado 208007" d="M192.726,432.782a8.847,8.847,0,1,1,8.847-8.847A8.857,8.857,0,0,1,192.726,432.782Zm0-15.481a6.635,6.635,0,1,0,6.636,6.634A6.642,6.642,0,0,0,192.726,417.3Z" transform="translate(-183.879 -415.089)" fill="#fff"/>
              </g>
              <g id="Grupo_174989" data-name="Grupo 174989" transform="translate(17.233)">
                <g id="Grupo_174987" data-name="Grupo 174987">
                  <rect id="Rectángulo_298008" data-name="Rectángulo 298008" width="2.211" height="13.454" fill="#fff"/>
                </g>
                <g id="Grupo_174988" data-name="Grupo 174988" transform="translate(0 23.222)">
                  <rect id="Rectángulo_298009" data-name="Rectángulo 298009" width="2.211" height="13.454" fill="#fff"/>
                </g>
              </g>
              <g id="Grupo_174992" data-name="Grupo 174992" transform="translate(0 17.232)">
                <g id="Grupo_174990" data-name="Grupo 174990">
                  <rect id="Rectángulo_298010" data-name="Rectángulo 298010" width="13.454" height="2.211" fill="#fff"/>
                </g>
                <g id="Grupo_174991" data-name="Grupo 174991" transform="translate(23.222)">
                  <rect id="Rectángulo_298011" data-name="Rectángulo 298011" width="13.455" height="2.211" fill="#fff"/>
                </g>
              </g>
            </g>
          </g>
          <g id="Grupo_175010" data-name="Grupo 175010" transform="translate(23.967 117.769)">
            <g id="Grupo_174995" data-name="Grupo 174995">
              <rect id="Rectángulo_298012" data-name="Rectángulo 298012" width="117.216" height="79.065" rx="1.828" fill="#ecb12d"/>
            </g>
            <g id="Grupo_175009" data-name="Grupo 175009" transform="translate(5.258 5.657)">
              <g id="Grupo_174999" data-name="Grupo 174999" transform="translate(1.145 19.463)">
                <g id="Grupo_174996" data-name="Grupo 174996">
                  <circle id="Elipse_13252" data-name="Elipse 13252" cx="6.583" cy="6.583" r="6.583" fill="#fff"/>
                </g>
                <g id="Grupo_174997" data-name="Grupo 174997" transform="translate(16.887 3.149)">
                  <path id="Trazado_208008" data-name="Trazado 208008" d="M166.843,409.447H84.412a.858.858,0,0,1,0-1.716h82.431a.858.858,0,1,1,0,1.716Z" transform="translate(-83.555 -407.731)" fill="#fff"/>
                </g>
                <g id="Grupo_174998" data-name="Grupo 174998" transform="translate(16.887 7.728)">
                  <path id="Trazado_208009" data-name="Trazado 208009" d="M132.211,412.477h-47.8a.859.859,0,0,1,0-1.718h47.8a.859.859,0,0,1,0,1.718Z" transform="translate(-83.555 -410.759)" fill="#fff"/>
                </g>
              </g>
              <g id="Grupo_175003" data-name="Grupo 175003" transform="translate(1.145 37.637)">
                <g id="Grupo_175000" data-name="Grupo 175000">
                  <circle id="Elipse_13253" data-name="Elipse 13253" cx="6.583" cy="6.583" r="6.583" fill="#fff"/>
                </g>
                <g id="Grupo_175001" data-name="Grupo 175001" transform="translate(16.887 3.149)">
                  <path id="Trazado_208010" data-name="Trazado 208010" d="M166.843,421.467H84.412a.859.859,0,0,1,0-1.718h82.431a.859.859,0,0,1,0,1.718Z" transform="translate(-83.555 -419.749)" fill="#fff"/>
                </g>
                <g id="Grupo_175002" data-name="Grupo 175002" transform="translate(16.887 7.728)">
                  <path id="Trazado_208011" data-name="Trazado 208011" d="M161.405,424.495H84.412a.859.859,0,0,1,0-1.718h76.993a.859.859,0,1,1,0,1.718Z" transform="translate(-83.555 -422.777)" fill="#fff"/>
                </g>
              </g>
              <g id="Grupo_175007" data-name="Grupo 175007" transform="translate(1.145 55.812)">
                <g id="Grupo_175004" data-name="Grupo 175004">
                  <circle id="Elipse_13254" data-name="Elipse 13254" cx="6.583" cy="6.583" r="6.583" fill="#fff"/>
                </g>
                <g id="Grupo_175005" data-name="Grupo 175005" transform="translate(16.887 3.148)">
                  <path id="Trazado_208012" data-name="Trazado 208012" d="M166.843,433.485H84.412a.859.859,0,0,1,0-1.718h82.431a.859.859,0,0,1,0,1.718Z" transform="translate(-83.555 -431.767)" fill="#fff"/>
                </g>
                <g id="Grupo_175006" data-name="Grupo 175006" transform="translate(16.887 7.729)">
                  <path id="Trazado_208013" data-name="Trazado 208013" d="M109.314,436.512h-24.9a.858.858,0,0,1,0-1.716h24.9a.858.858,0,0,1,0,1.716Z" transform="translate(-83.555 -434.796)" fill="#fff"/>
                </g>
              </g>
              <g id="Grupo_175008" data-name="Grupo 175008">
                <rect id="Rectángulo_298013" data-name="Rectángulo 298013" width="71.84" height="12.593" rx="1.893" fill="#fff"/>
              </g>
            </g>
          </g>
          <g id="Grupo_175013" data-name="Grupo 175013" transform="translate(129.88 158.63)">
            <g id="Grupo_175011" data-name="Grupo 175011">
              <circle id="Elipse_13255" data-name="Elipse 13255" cx="23.36" cy="23.36" r="23.36" fill="#2c4b90"/>
            </g>
            <g id="Grupo_175012" data-name="Grupo 175012" transform="translate(6.958 7.683)">
              <path id="Trazado_208014" data-name="Trazado 208014" d="M171.913,437.249a12.65,12.65,0,0,0-.782-4.342l3.458-1.273a16.366,16.366,0,0,0-2.867-4.918L168.9,429.1a12.8,12.8,0,0,0-3.389-2.828l1.837-3.2a16.265,16.265,0,0,0-5.362-1.933l-.625,3.634a12.547,12.547,0,0,0-4.416.014l-.646-3.629a16.278,16.278,0,0,0-5.35,1.963l1.857,3.189a12.826,12.826,0,0,0-3.374,2.846l-2.831-2.367a16.34,16.34,0,0,0-2.838,4.938l3.466,1.254a12.653,12.653,0,0,0-.758,4.323v.026l-3.682.008a16.387,16.387,0,0,0,1,5.606l3.462-1.267a12.715,12.715,0,0,0,2.218,3.812l-2.822,2.379a16.4,16.4,0,0,0,4.363,3.652l1.843-3.2A12.643,12.643,0,0,0,157,449.829l-.632,3.632a16.5,16.5,0,0,0,2.826.243h.006a16.526,16.526,0,0,0,2.855-.248l-.64-3.632a12.6,12.6,0,0,0,4.142-1.514l1.849,3.194a16.414,16.414,0,0,0,4.355-3.661l-2.826-2.373a12.716,12.716,0,0,0,2.212-3.818l3.465,1.26a16.4,16.4,0,0,0,.984-5.633v-.03Zm-12.718-7.888a7.952,7.952,0,1,1-7.953,7.951A7.96,7.96,0,0,1,159.195,429.361Z" transform="translate(-142.793 -421.139)" fill="#fff"/>
            </g>
          </g>
          <g id="Grupo_175020" data-name="Grupo 175020" transform="translate(108.138 85.147)">
            <g id="Grupo_175016" data-name="Grupo 175016">
              <g id="Grupo_175014" data-name="Grupo 175014">
                <rect id="Rectángulo_298014" data-name="Rectángulo 298014" width="75.195" height="58.331" rx="1.828" fill="#2c4b90"/>
              </g>
              <g id="Grupo_175015" data-name="Grupo 175015" transform="translate(53.493 53.908)">
                <path id="Trazado_208015" data-name="Trazado 208015" d="M159.188,403.114l13.823,13.823V403.363Z" transform="translate(-159.188 -403.114)" fill="#2c4b90"/>
              </g>
            </g>
            <g id="Grupo_175019" data-name="Grupo 175019" transform="translate(5.667 6.635)">
              <rect id="Rectángulo_298015" data-name="Rectángulo 298015" width="19.352" height="19.352" transform="translate(0.415)" fill="#fff"/>
              <g id="Grupo_175018" data-name="Grupo 175018" transform="translate(0 0.553)">
                <path id="Trazado_208016" data-name="Trazado 208016" d="M182.725,373.74a1.52,1.52,0,0,1-1.52,1.52H144.713a1.521,1.521,0,0,1-1.521-1.52h0a1.522,1.522,0,0,1,1.521-1.521h36.492a1.52,1.52,0,0,1,1.52,1.521Z" transform="translate(-119.556 -372.219)" fill="#fff"/>
                <path id="Trazado_208017" data-name="Trazado 208017" d="M182.725,378.95a1.52,1.52,0,0,1-1.52,1.52H144.713a1.521,1.521,0,0,1-1.521-1.52h0a1.522,1.522,0,0,1,1.521-1.521h36.492a1.52,1.52,0,0,1,1.52,1.521Z" transform="translate(-119.556 -369.55)" fill="#fff"/>
                <path id="Trazado_208018" data-name="Trazado 208018" d="M182.725,384.16a1.52,1.52,0,0,1-1.52,1.52H144.713a1.521,1.521,0,0,1-1.521-1.52h0a1.521,1.521,0,0,1,1.521-1.521h36.492a1.52,1.52,0,0,1,1.52,1.521Z" transform="translate(-119.556 -366.882)" fill="#fff"/>
                <g id="Grupo_175017" data-name="Grupo 175017" transform="translate(0 23.775)">
                  <path id="Trazado_208019" data-name="Trazado 208019" d="M190.731,389.461a1.521,1.521,0,0,1-1.52,1.521H129.083a1.522,1.522,0,0,1-1.521-1.521h0a1.52,1.52,0,0,1,1.521-1.52h60.128a1.52,1.52,0,0,1,1.52,1.52Z" transform="translate(-127.562 -387.941)" fill="#fff"/>
                  <path id="Trazado_208020" data-name="Trazado 208020" d="M190.731,394.671a1.52,1.52,0,0,1-1.52,1.521H129.083a1.521,1.521,0,0,1-1.521-1.521h0a1.52,1.52,0,0,1,1.521-1.52h60.128a1.52,1.52,0,0,1,1.52,1.52Z" transform="translate(-127.562 -385.272)" fill="#fff"/>
                  <path id="Trazado_208021" data-name="Trazado 208021" d="M190.731,399.881a1.52,1.52,0,0,1-1.52,1.521H129.083a1.521,1.521,0,0,1-1.521-1.521h0a1.52,1.52,0,0,1,1.521-1.52h60.128a1.52,1.52,0,0,1,1.52,1.52Z" transform="translate(-127.562 -382.604)" fill="#fff"/>
                </g>
              </g>
            </g>
          </g>
          <g id="Grupo_175023" data-name="Grupo 175023" transform="translate(0 90.153)">
            <g id="Grupo_175021" data-name="Grupo 175021">
              <circle id="Elipse_13256" data-name="Elipse 13256" cx="21.84" cy="21.84" r="21.84" fill="#2c4b90"/>
            </g>
            <g id="Grupo_175022" data-name="Grupo 175022" transform="translate(14.115 10.005)">
              <path id="Trazado_208022" data-name="Trazado 208022" d="M61.64,377.392l20.607,11.9-20.607,11.9Z" transform="translate(-61.64 -377.392)" fill="#fff"/>
            </g>
          </g>
        </g>
      </g>
    </g>
  </g>
</svg>
