<svg xmlns="http://www.w3.org/2000/svg" width="120" height="120" viewBox="0 0 120 120">
  <g id="Grupo_176831" data-name="Grupo 176831" transform="translate(4648 9693)">
    <g id="Grupo_176802" data-name="Grupo 176802">
      <rect id="Figura9" width="120" height="120" transform="translate(-4648 -9693)" fill="none"/>
      <g id="Grupo_175856" data-name="Grupo 175856" transform="translate(-554 1006)">
        <g id="Grupo_175855" data-name="Grupo 175855" transform="translate(-4090 -10695)">
          <g id="Grupo_175854" data-name="Grupo 175854" transform="translate(0 0)">
            <g id="Grupo_175852" data-name="Grupo 175852" transform="translate(1.806 1.806)">
              <g id="Grupo_175832" data-name="Grupo 175832" transform="translate(74.065)">
                <g id="Grupo_175831" data-name="Grupo 175831">
                  <path id="Trazado_209212" data-name="Trazado 209212" d="M913.734,1201.076v14.452H895.67v-14.452Z" transform="translate(-895.67 -1201.076)" fill="#e7f3fe"/>
                </g>
              </g>
              <g id="Grupo_175834" data-name="Grupo 175834" transform="translate(16.258)">
                <g id="Grupo_175833" data-name="Grupo 175833">
                  <path id="Trazado_209213" data-name="Trazado 209213" d="M649.476,1201.076v14.452H631.412v-14.452Z" transform="translate(-631.412 -1201.076)" fill="#e7f3fe"/>
                </g>
              </g>
              <g id="Grupo_175836" data-name="Grupo 175836" transform="translate(45.161)">
                <g id="Grupo_175835" data-name="Grupo 175835">
                  <path id="Trazado_209214" data-name="Trazado 209214" d="M781.605,1201.076v14.452H763.541v-14.452Z" transform="translate(-763.541 -1201.076)" fill="#e7f3fe"/>
                </g>
              </g>
              <g id="Grupo_175837" data-name="Grupo 175837" transform="translate(7.226 25.29)">
                <path id="Trazado_209215" data-name="Trazado 209215" d="M684.057,1385.334H590.121v-61.419a7.226,7.226,0,0,1,7.226-7.226h79.484a7.226,7.226,0,0,1,7.226,7.226Z" transform="translate(-590.121 -1316.689)" fill="#ccd1d9"/>
              </g>
              <g id="Grupo_175839" data-name="Grupo 175839" transform="translate(14.452 32.516)">
                <g id="Grupo_175838" data-name="Grupo 175838">
                  <path id="Trazado_209216" data-name="Trazado 209216" d="M700.831,1403.915H624.96a1.807,1.807,0,0,1-1.806-1.807v-50.58a1.807,1.807,0,0,1,1.806-1.807h75.871a1.807,1.807,0,0,1,1.806,1.807v50.58A1.807,1.807,0,0,1,700.831,1403.915Z" transform="translate(-623.154 -1349.722)" fill="#00defc"/>
                </g>
              </g>
              <g id="Grupo_175841" data-name="Grupo 175841" transform="translate(0 93.936)">
                <g id="Grupo_175840" data-name="Grupo 175840">
                  <path id="Trazado_209217" data-name="Trazado 209217" d="M661.863,1630.5H560.7a3.639,3.639,0,0,0-3.613,3.613,10.847,10.847,0,0,0,10.839,10.839h86.71a10.855,10.855,0,0,0,10.839-10.839,3.623,3.623,0,0,0-3.613-3.613Z" transform="translate(-557.089 -1630.496)" fill="#6f8497"/>
                </g>
              </g>
              <g id="Grupo_175843" data-name="Grupo 175843" transform="translate(90.322 101.161)">
                <g id="Grupo_175842" data-name="Grupo 175842">
                  <path id="Trazado_209218" data-name="Trazado 209218" d="M969.992,1663.528h7.226v7.226h-7.226Z" transform="translate(-969.992 -1663.528)" fill="#dae4ef"/>
                </g>
              </g>
              <g id="Grupo_175845" data-name="Grupo 175845" transform="translate(75.871 101.161)">
                <g id="Grupo_175844" data-name="Grupo 175844">
                  <path id="Trazado_209219" data-name="Trazado 209219" d="M903.928,1663.528h7.226v7.226h-7.226Z" transform="translate(-903.928 -1663.528)" fill="#dae4ef"/>
                </g>
              </g>
              <g id="Grupo_175847" data-name="Grupo 175847" transform="translate(41.548 93.936)">
                <g id="Grupo_175846" data-name="Grupo 175846">
                  <path id="Trazado_209220" data-name="Trazado 209220" d="M772.315,1630.5v3.613a3.623,3.623,0,0,1-3.613,3.613H750.638a3.623,3.623,0,0,1-3.613-3.613V1630.5Z" transform="translate(-747.025 -1630.496)" fill="#dae4ef"/>
                </g>
              </g>
              <g id="Grupo_175849" data-name="Grupo 175849" transform="translate(25.29 52.387)">
                <g id="Grupo_175848" data-name="Grupo 175848">
                  <path id="Trazado_209221" data-name="Trazado 209221" d="M730.508,1464.044v10.839H718.857v-.054a18.065,18.065,0,1,0-35.316-5.365,17.9,17.9,0,0,0,.831,5.419H672.7v-10.839l4.588-1.463a26.247,26.247,0,0,1,2.24-5.455l-2.2-4.263,7.677-7.677,4.263,2.2a26.24,26.24,0,0,1,5.456-2.24l1.463-4.589h10.839l1.463,4.589a26.24,26.24,0,0,1,5.456,2.24l4.263-2.2,7.677,7.677-2.2,4.263a26.247,26.247,0,0,1,2.24,5.455Z" transform="translate(-672.702 -1440.56)" fill="#ffb30b"/>
                </g>
              </g>
              <g id="Grupo_175851" data-name="Grupo 175851" transform="translate(36.129 63.226)">
                <g id="Grupo_175850" data-name="Grupo 175850">
                  <path id="Trazado_209222" data-name="Trazado 209222" d="M758.379,1508.173a18.105,18.105,0,0,1-.813,5.365v.054H745.084a7.134,7.134,0,0,0,2.457-5.419,7.226,7.226,0,1,0-14.452,0,7.134,7.134,0,0,0,2.457,5.419H723.081a18.065,18.065,0,1,1,35.3-5.419Z" transform="translate(-722.25 -1490.109)" fill="#ffe4a9"/>
                </g>
              </g>
            </g>
            <g id="Grupo_175853" data-name="Grupo 175853">
              <path id="Trazado_209223" data-name="Trazado 209223" d="M655.412,1377.076h-1.806v-59.613a9.043,9.043,0,0,0-9.032-9.032h-5.419v3.613h5.419a5.426,5.426,0,0,1,5.42,5.419v59.613H559.67v-59.613a5.426,5.426,0,0,1,5.419-5.419h5.419v-3.613h-5.419a9.043,9.043,0,0,0-9.032,9.032v59.613H554.25a5.426,5.426,0,0,0-5.419,5.419,12.661,12.661,0,0,0,12.645,12.645h86.71a12.661,12.661,0,0,0,12.645-12.645A5.426,5.426,0,0,0,655.412,1377.076Zm-61.419,3.613H615.67v1.806a1.807,1.807,0,0,1-1.807,1.806H595.8a1.807,1.807,0,0,1-1.806-1.806Zm37.935,10.839h-3.613v-3.613h3.613Zm14.451,0h-3.613v-3.613h3.613Zm3.613-.182V1384.3H639.154v7.226h-3.613V1384.3H624.7v7.226H561.476a9.043,9.043,0,0,1-9.032-9.032,1.807,1.807,0,0,1,1.806-1.806h36.129v1.806a5.426,5.426,0,0,0,5.42,5.419h18.064a5.426,5.426,0,0,0,5.419-5.419v-1.806h36.129a1.807,1.807,0,0,1,1.806,1.806,9.049,9.049,0,0,1-7.226,8.85Z" transform="translate(-548.831 -1283.141)"/>
              <path id="Trazado_209224" data-name="Trazado 209224" d="M640.185,1345.076v-3.613H618.508a3.617,3.617,0,0,0-3.613,3.613v50.58a3.617,3.617,0,0,0,3.613,3.613h75.871a3.617,3.617,0,0,0,3.613-3.613v-50.58a3.617,3.617,0,0,0-3.613-3.613H672.7v3.613h21.677v50.58h-7.226v-10.349l-4.939-1.583a27.178,27.178,0,0,0-1.66-4.027l2.37-4.6-9.527-9.527-4.6,2.37a27.333,27.333,0,0,0-4.027-1.66l-1.586-4.942H649.705l-1.582,4.939a27.185,27.185,0,0,0-4.026,1.66l-4.6-2.37-9.527,9.527,2.37,4.6a27.263,27.263,0,0,0-1.66,4.026l-4.941,1.586v10.349h-7.226v-50.58Zm0,46.968a16.259,16.259,0,1,1,32.066,3.613h-7.536a9.032,9.032,0,1,0-16.544,0h-7.535A16.259,16.259,0,0,1,640.185,1392.044Zm10.839,0a5.419,5.419,0,1,1,9.415,3.613h-7.994a5.4,5.4,0,0,1-1.422-3.613Zm-21.677-4.1,4.256-1.362.264-.934a23.291,23.291,0,0,1,2.083-5.053l.473-.847-2.041-3.963,5.8-5.8,3.963,2.041.847-.473a23.289,23.289,0,0,1,5.053-2.083l.934-.264,1.36-4.254h8.2l1.362,4.256.934.264a23.275,23.275,0,0,1,5.053,2.083l.847.473,3.963-2.041,5.8,5.8-2.041,3.964.473.847a23.29,23.29,0,0,1,2.083,5.052l.264.934,4.256,1.36v7.715h-7.567a19.871,19.871,0,1,0-39.059,0h-7.567Z" transform="translate(-600.444 -1308.947)"/>
              <path id="Trazado_209225" data-name="Trazado 209225" d="M656.186,1225.851h7.226v3.613h-7.226Z" transform="translate(-632.702 -1218.625)"/>
              <path id="Trazado_209226" data-name="Trazado 209226" d="M788.315,1225.851h7.226v3.613h-7.226Z" transform="translate(-735.928 -1218.625)"/>
              <path id="Trazado_209227" data-name="Trazado 209227" d="M920.444,1225.851h7.226v3.613h-7.226Z" transform="translate(-839.154 -1218.625)"/>
              <path id="Trazado_209228" data-name="Trazado 209228" d="M764.315,1241.592h3.613v-30.71h9.032v-18.065H755.283v18.065h9.032Zm-5.419-45.161h14.451v10.839H758.9Z" transform="translate(-710.122 -1192.818)"/>
              <path id="Trazado_209229" data-name="Trazado 209229" d="M864.186,1218.108H846.121v23.484h3.613v-19.871H867.8v-10.839h9.032v-18.065H855.153v18.065h9.032Zm-5.419-21.677h14.451v10.839H858.766Z" transform="translate(-781.089 -1192.818)"/>
              <path id="Trazado_209230" data-name="Trazado 209230" d="M632.186,1221.721h18.065v19.871h3.613v-23.484H635.8v-7.226h9.032v-18.065H623.154v18.065h9.032Zm-5.419-25.29h14.452v10.839H626.767Z" transform="translate(-606.896 -1192.818)"/>
            </g>
          </g>
        </g>
      </g>
    </g>
  </g>
</svg>
