<svg xmlns="http://www.w3.org/2000/svg" width="610" height="300" viewBox="0 0 610 300">
  <g id="Grupo_176822" data-name="Grupo 176822" transform="translate(9046 5423)">
    <g id="Grupo_176754" data-name="Grupo 176754">
      <rect id="Rectángulo_298450" data-name="Rectángulo 298450" width="610" height="300" transform="translate(-9046 -5423)" fill="none"/>
      <g id="Grupo_175639" data-name="Grupo 175639" transform="translate(-9294.979 -5509.335)">
        <g id="Grupo_175585" data-name="Grupo 175585" transform="translate(291.516 225.817)">
          <g id="Grupo_175573" data-name="Grupo 175573" transform="translate(120.623 48.814)">
            <path id="Trazado_208825" data-name="Trazado 208825" d="M536.036,538.856l-.03,41.28,35.545-20.659.03-41.28Z" transform="translate(-535.544 -517.734)" fill="#a6f4fe" fill-rule="evenodd"/>
            <path id="Trazado_208826" data-name="Trazado 208826" d="M535.718,580.31a.462.462,0,0,1-.462-.463l.03-41.28a.462.462,0,0,1,.23-.4l35.545-20.66a.462.462,0,0,1,.694.4l-.03,41.28a.462.462,0,0,1-.23.4l-35.545,20.66A.462.462,0,0,1,535.718,580.31Zm.492-41.476-.029,40.21,34.62-20.122.029-40.21Z" transform="translate(-535.256 -517.446)"/>
          </g>
          <g id="Grupo_175574" data-name="Grupo 175574" transform="translate(82.346 48.133)">
            <path id="Trazado_208827" data-name="Trazado 208827" d="M509.459,537.8l-.029,41.28-35.538-20.71.029-41.28Z" transform="translate(-473.43 -516.628)" fill="#b9ddfc" fill-rule="evenodd"/>
            <path id="Trazado_208828" data-name="Trazado 208828" d="M509.142,579.255a.458.458,0,0,1-.232-.063l-35.538-20.711a.46.46,0,0,1-.229-.4l.029-41.28a.462.462,0,0,1,.7-.4l35.538,20.71a.464.464,0,0,1,.229.4l-.03,41.28a.461.461,0,0,1-.462.462Zm-35.075-21.438,34.614,20.173.029-40.21-34.614-20.173Z" transform="translate(-473.142 -516.341)"/>
          </g>
          <g id="Grupo_175575" data-name="Grupo 175575" transform="translate(83.836 26.306)">
            <path id="Trazado_208829" data-name="Trazado 208829" d="M476.31,502.354l35.65,20.755L547.6,502.427l-35.65-20.755Z" transform="translate(-475.848 -481.21)" fill="#ffe4a9" fill-rule="evenodd"/>
            <path id="Trazado_208830" data-name="Trazado 208830" d="M511.672,523.283a.461.461,0,0,1-.232-.063l-35.65-20.755a.462.462,0,0,1,0-.8l35.635-20.682a.465.465,0,0,1,.465,0l35.65,20.755a.462.462,0,0,1,0,.8L511.9,523.221A.464.464,0,0,1,511.672,523.283Zm-34.73-21.217,34.731,20.22,34.715-20.148-34.731-20.22Z" transform="translate(-475.56 -480.923)"/>
          </g>
          <g id="Grupo_175576" data-name="Grupo 175576" transform="translate(79.439 71.985)">
            <path id="Trazado_208831" data-name="Trazado 208831" d="M469.2,576.434l-.029,41.28,35.567-20.637.03-41.28Z" transform="translate(-468.713 -555.335)" fill="#a6f4fe" fill-rule="evenodd"/>
            <path id="Trazado_208832" data-name="Trazado 208832" d="M468.887,617.888a.462.462,0,0,1-.462-.462l.03-41.28a.462.462,0,0,1,.23-.4l35.568-20.637a.463.463,0,0,1,.694.4l-.03,41.28a.462.462,0,0,1-.23.4l-35.568,20.637A.464.464,0,0,1,468.887,617.888Zm.492-41.476-.028,40.21,34.643-20.1.029-40.211Z" transform="translate(-468.425 -555.047)"/>
          </g>
          <g id="Grupo_175577" data-name="Grupo 175577" transform="translate(41.184 71.304)">
            <path id="Trazado_208833" data-name="Trazado 208833" d="M442.665,575.378l-.03,41.28L407.1,595.97l.03-41.28Z" transform="translate(-406.635 -554.229)" fill="#b9ddfc" fill-rule="evenodd"/>
            <path id="Trazado_208834" data-name="Trazado 208834" d="M442.347,616.833a.471.471,0,0,1-.232-.063l-35.538-20.688a.462.462,0,0,1-.23-.4l.03-41.28a.462.462,0,0,1,.695-.4l35.538,20.687a.462.462,0,0,1,.23.4l-.03,41.28a.463.463,0,0,1-.463.462Zm-35.075-21.416,34.614,20.149.029-40.21L407.3,555.207Z" transform="translate(-406.347 -553.942)"/>
          </g>
          <g id="Grupo_175578" data-name="Grupo 175578" transform="translate(42.674 49.478)">
            <path id="Trazado_208835" data-name="Trazado 208835" d="M409.515,539.954l35.65,20.755,35.612-20.682L445.15,519.272Z" transform="translate(-409.053 -518.811)" fill="#ffe4a9" fill-rule="evenodd"/>
            <path id="Trazado_208836" data-name="Trazado 208836" d="M444.877,560.884a.46.46,0,0,1-.232-.063l-35.651-20.756a.463.463,0,0,1,0-.8l35.635-20.681a.464.464,0,0,1,.465,0l35.627,20.755a.461.461,0,0,1,0,.8L445.11,560.822A.466.466,0,0,1,444.877,560.884Zm-34.731-21.217,34.731,20.221,34.693-20.148-34.709-20.22Z" transform="translate(-408.765 -518.523)"/>
          </g>
          <g id="Grupo_175579" data-name="Grupo 175579" transform="translate(38.255 95.155)">
            <path id="Trazado_208837" data-name="Trazado 208837" d="M402.373,614.034l-.03,41.28,35.568-20.637.029-41.28Z" transform="translate(-401.882 -592.934)" fill="#a6f4fe" fill-rule="evenodd"/>
            <path id="Trazado_208838" data-name="Trazado 208838" d="M402.056,655.488a.462.462,0,0,1-.462-.463l.03-41.28a.46.46,0,0,1,.23-.4l35.568-20.637a.461.461,0,0,1,.694.4l-.029,41.28a.464.464,0,0,1-.23.4l-35.568,20.637A.464.464,0,0,1,402.056,655.488Zm.492-41.476-.028,40.21,34.643-20.1.029-40.21Z" transform="translate(-401.594 -592.646)"/>
          </g>
          <g id="Grupo_175580" data-name="Grupo 175580" transform="translate(0 94.452)">
            <path id="Trazado_208839" data-name="Trazado 208839" d="M375.833,612.964l-.029,41.28-35.538-20.688.03-41.3Z" transform="translate(-339.804 -591.792)" fill="#b9ddfc" fill-rule="evenodd"/>
            <path id="Trazado_208840" data-name="Trazado 208840" d="M375.516,654.419a.461.461,0,0,1-.232-.063l-35.537-20.688a.462.462,0,0,1-.23-.4l.03-41.3a.462.462,0,0,1,.694-.4l35.538,20.711a.463.463,0,0,1,.23.4l-.03,41.28a.462.462,0,0,1-.463.462ZM340.44,633l34.614,20.15.028-40.21-34.614-20.172Z" transform="translate(-339.516 -591.504)"/>
          </g>
          <g id="Grupo_175581" data-name="Grupo 175581" transform="translate(1.49 72.626)">
            <path id="Trazado_208841" data-name="Trazado 208841" d="M342.684,577.518l35.65,20.778,35.635-20.7-35.65-20.755Z" transform="translate(-342.222 -556.374)" fill="#ffe4a9" fill-rule="evenodd"/>
            <path id="Trazado_208842" data-name="Trazado 208842" d="M378.046,598.47a.465.465,0,0,1-.232-.063l-35.65-20.777a.462.462,0,0,1,0-.8L377.8,556.149a.463.463,0,0,1,.465,0l35.65,20.755a.462.462,0,0,1,0,.8l-35.635,20.7A.462.462,0,0,1,378.046,598.47Zm-34.731-21.239,34.731,20.242,34.715-20.17-34.732-20.22Z" transform="translate(-341.934 -556.087)"/>
          </g>
          <g id="Grupo_175582" data-name="Grupo 175582" transform="translate(79.474 22.507)">
            <path id="Trazado_208843" data-name="Trazado 208843" d="M469.262,496.145l-.03,41.3L504.8,516.788l.03-41.28Z" transform="translate(-468.77 -475.046)" fill="#a6f4fe" fill-rule="evenodd"/>
            <path id="Trazado_208844" data-name="Trazado 208844" d="M468.944,537.622a.462.462,0,0,1-.462-.462l.03-41.3a.462.462,0,0,1,.23-.4l35.567-20.637a.463.463,0,0,1,.695.4l-.03,41.28a.463.463,0,0,1-.23.4l-35.568,20.66A.468.468,0,0,1,468.944,537.622Zm.492-41.5-.029,40.233,34.643-20.123.029-40.21Z" transform="translate(-468.482 -474.758)"/>
          </g>
          <g id="Grupo_175583" data-name="Grupo 175583" transform="translate(41.219 21.826)">
            <path id="Trazado_208845" data-name="Trazado 208845" d="M442.722,495.089l-.029,41.28-35.538-20.688.029-41.28Z" transform="translate(-406.692 -473.94)" fill="#b9ddfc" fill-rule="evenodd"/>
            <path id="Trazado_208846" data-name="Trazado 208846" d="M442.4,536.543a.466.466,0,0,1-.232-.062l-35.538-20.688a.462.462,0,0,1-.23-.4l.03-41.28a.463.463,0,0,1,.7-.4L442.667,494.4a.463.463,0,0,1,.229.4l-.03,41.28a.461.461,0,0,1-.462.462Zm-35.075-21.415,34.614,20.149.029-40.21-34.614-20.149Z" transform="translate(-406.404 -473.652)"/>
          </g>
          <g id="Grupo_175584" data-name="Grupo 175584" transform="translate(42.709)">
            <path id="Trazado_208847" data-name="Trazado 208847" d="M409.573,459.665l35.65,20.755,35.612-20.682-35.628-20.755Z" transform="translate(-409.11 -438.522)" fill="#ffe4a9" fill-rule="evenodd"/>
            <path id="Trazado_208848" data-name="Trazado 208848" d="M444.934,480.6a.462.462,0,0,1-.232-.063l-35.65-20.755a.462.462,0,0,1,0-.8L444.687,438.3a.464.464,0,0,1,.465,0l35.628,20.755a.462.462,0,0,1,0,.8l-35.613,20.682A.464.464,0,0,1,444.934,480.6ZM410.2,459.379l34.731,20.22,34.693-20.148-34.709-20.22Z" transform="translate(-408.822 -438.234)"/>
          </g>
        </g>
        <g id="Grupo_175595" data-name="Grupo 175595" transform="translate(663.67 233.166)">
          <g id="Grupo_175586" data-name="Grupo 175586" transform="translate(76.145 22.53)">
            <path id="Trazado_208849" data-name="Trazado 208849" d="M890.585,505.928l-.03,41.28,35.568-20.637.029-41.28Z" transform="translate(-890.094 -484.829)" fill="#a6f4fe" fill-rule="evenodd"/>
            <path id="Trazado_208850" data-name="Trazado 208850" d="M890.268,547.383a.475.475,0,0,1-.23-.062.463.463,0,0,1-.231-.4l.03-41.28a.462.462,0,0,1,.23-.4L925.633,484.6a.462.462,0,0,1,.694.4l-.03,41.28a.461.461,0,0,1-.23.4L890.5,547.32A.46.46,0,0,1,890.268,547.383Zm.492-41.477-.029,40.211,34.643-20.1.028-40.21Z" transform="translate(-889.806 -484.542)"/>
          </g>
          <g id="Grupo_175587" data-name="Grupo 175587" transform="translate(37.89 21.826)">
            <path id="Trazado_208851" data-name="Trazado 208851" d="M864.046,504.859l-.03,41.28-35.538-20.688.029-41.3Z" transform="translate(-828.016 -483.687)" fill="#b9ddfc" fill-rule="evenodd"/>
            <path id="Trazado_208852" data-name="Trazado 208852" d="M863.728,546.314a.466.466,0,0,1-.232-.063l-35.537-20.688a.463.463,0,0,1-.23-.4l.03-41.3a.461.461,0,0,1,.695-.4l35.538,20.71a.461.461,0,0,1,.229.4l-.029,41.28a.462.462,0,0,1-.463.462ZM828.652,524.9l34.614,20.15.029-40.21-34.614-20.173Z" transform="translate(-827.728 -483.399)"/>
          </g>
          <g id="Grupo_175588" data-name="Grupo 175588" transform="translate(39.38)">
            <path id="Trazado_208853" data-name="Trazado 208853" d="M830.9,469.412l35.65,20.755,35.613-20.682-35.628-20.755Z" transform="translate(-830.434 -448.269)" fill="#ffe4a9" fill-rule="evenodd"/>
            <path id="Trazado_208854" data-name="Trazado 208854" d="M866.258,490.342a.46.46,0,0,1-.232-.063l-35.65-20.755a.462.462,0,0,1,0-.8l35.635-20.682a.465.465,0,0,1,.465,0L902.1,468.8a.462.462,0,0,1,0,.8L866.491,490.28A.465.465,0,0,1,866.258,490.342Zm-34.73-21.217,34.731,20.22L900.952,469.2l-34.709-20.22Z" transform="translate(-830.146 -447.982)"/>
          </g>
          <g id="Grupo_175589" data-name="Grupo 175589" transform="translate(38.277 87.927)">
            <path id="Trazado_208855" data-name="Trazado 208855" d="M829.136,612.072l-.029,41.28,35.545-20.659.03-41.28Z" transform="translate(-828.644 -590.951)" fill="#a6f4fe" fill-rule="evenodd"/>
            <path id="Trazado_208856" data-name="Trazado 208856" d="M828.818,653.527a.462.462,0,0,1-.462-.463l.029-41.28a.462.462,0,0,1,.23-.4l35.546-20.66a.461.461,0,0,1,.694.4l-.03,41.28a.462.462,0,0,1-.23.4l-35.545,20.66A.463.463,0,0,1,828.818,653.527Zm.492-41.476-.029,40.21L863.9,632.138l.028-40.21Z" transform="translate(-828.356 -590.663)"/>
          </g>
          <g id="Grupo_175590" data-name="Grupo 175590" transform="translate(0 87.244)">
            <path id="Trazado_208857" data-name="Trazado 208857" d="M802.559,610.994l-.029,41.3-35.538-20.71.029-41.28Z" transform="translate(-766.53 -589.844)" fill="#b9ddfc" fill-rule="evenodd"/>
            <path id="Trazado_208858" data-name="Trazado 208858" d="M802.242,652.471a.459.459,0,0,1-.232-.063L766.472,631.7a.462.462,0,0,1-.23-.4l.029-41.28a.462.462,0,0,1,.695-.4L802.5,610.307a.46.46,0,0,1,.229.4l-.03,41.3a.461.461,0,0,1-.462.462Zm-35.075-21.438,34.614,20.173.029-40.233L767.2,590.822Z" transform="translate(-766.242 -589.556)"/>
          </g>
          <g id="Grupo_175591" data-name="Grupo 175591" transform="translate(1.49 65.419)">
            <path id="Trazado_208859" data-name="Trazado 208859" d="M769.41,575.57l35.65,20.755L840.7,575.643l-35.65-20.755Z" transform="translate(-768.948 -554.426)" fill="#ffe4a9" fill-rule="evenodd"/>
            <path id="Trazado_208860" data-name="Trazado 208860" d="M804.772,596.5a.466.466,0,0,1-.232-.062l-35.65-20.755a.462.462,0,0,1,0-.8L804.525,554.2a.464.464,0,0,1,.465,0l35.65,20.755a.463.463,0,0,1,0,.8L805,596.437A.46.46,0,0,1,804.772,596.5Zm-34.73-21.216,34.731,20.22,34.715-20.148-34.731-20.22Z" transform="translate(-768.66 -554.139)"/>
          </g>
          <g id="Grupo_175592" data-name="Grupo 175592" transform="translate(116.009 87.982)">
            <path id="Trazado_208861" data-name="Trazado 208861" d="M955.273,612.162l-.029,41.28,35.568-20.659.029-41.28Z" transform="translate(-954.781 -591.04)" fill="#a6f4fe" fill-rule="evenodd"/>
            <path id="Trazado_208862" data-name="Trazado 208862" d="M954.956,653.616a.461.461,0,0,1-.462-.463l.03-41.28a.462.462,0,0,1,.23-.4l35.567-20.66a.462.462,0,0,1,.694.4l-.03,41.28a.462.462,0,0,1-.23.4l-35.568,20.66A.465.465,0,0,1,954.956,653.616Zm.492-41.476-.028,40.21,34.642-20.123.029-40.21Z" transform="translate(-954.494 -590.753)"/>
          </g>
          <g id="Grupo_175593" data-name="Grupo 175593" transform="translate(77.753 87.3)">
            <path id="Trazado_208863" data-name="Trazado 208863" d="M928.733,611.084l-.03,41.3-35.538-20.71.029-41.28Z" transform="translate(-892.703 -589.934)" fill="#b9ddfc" fill-rule="evenodd"/>
            <path id="Trazado_208864" data-name="Trazado 208864" d="M928.415,652.561a.46.46,0,0,1-.232-.063l-35.539-20.71a.463.463,0,0,1-.229-.4l.03-41.28a.462.462,0,0,1,.695-.4L928.678,610.4a.462.462,0,0,1,.229.4l-.03,41.3a.461.461,0,0,1-.462.462Zm-35.076-21.438L927.954,651.3l.029-40.233-34.614-20.149Z" transform="translate(-892.415 -589.646)"/>
          </g>
          <g id="Grupo_175594" data-name="Grupo 175594" transform="translate(79.243 65.474)">
            <path id="Trazado_208865" data-name="Trazado 208865" d="M895.583,575.66l35.65,20.755,35.635-20.682-35.65-20.755Z" transform="translate(-895.121 -554.516)" fill="#ffe4a9" fill-rule="evenodd"/>
            <path id="Trazado_208866" data-name="Trazado 208866" d="M930.945,596.59a.466.466,0,0,1-.232-.063l-35.65-20.755a.462.462,0,0,1,0-.8L930.7,554.291a.463.463,0,0,1,.465,0l35.65,20.755a.462.462,0,0,1,0,.8l-35.635,20.682A.461.461,0,0,1,930.945,596.59Zm-34.731-21.217,34.731,20.219,34.715-20.148L930.93,555.225Z" transform="translate(-894.833 -554.229)"/>
          </g>
        </g>
        <g id="Grupo_175638" data-name="Grupo 175638" transform="translate(459.958 89.335)">
          <g id="Grupo_175597" data-name="Grupo 175597" transform="translate(143.756 114.391)">
            <path id="Trazado_208867" data-name="Trazado 208867" d="M765.389,300.492l-.035,49.016,42.221-24.513.035-49.033Z" transform="translate(-764.738 -275.345)" fill="#a6f4fe" fill-rule="evenodd"/>
            <g id="Grupo_175596" data-name="Grupo 175596">
              <path id="Trazado_208868" data-name="Trazado 208868" d="M764.97,349.74a.616.616,0,0,1-.616-.617l.035-49.016a.615.615,0,0,1,.306-.532l42.221-24.531a.617.617,0,0,1,.926.534l-.035,49.033a.614.614,0,0,1-.306.532L765.28,349.656A.612.612,0,0,1,764.97,349.74Zm.651-49.277-.034,47.59,40.988-23.8.034-47.608Z" transform="translate(-764.354 -274.961)"/>
            </g>
          </g>
          <g id="Grupo_175599" data-name="Grupo 175599" transform="translate(98.32 114.211)">
            <path id="Trazado_208869" data-name="Trazado 208869" d="M733.846,300.242l-.035,49.016-42.186-24.573.035-49.016Z" transform="translate(-691.008 -275.053)" fill="#a6f4fe" fill-rule="evenodd"/>
            <g id="Grupo_175598" data-name="Grupo 175598">
              <path id="Trazado_208870" data-name="Trazado 208870" d="M733.426,349.491a.612.612,0,0,1-.31-.084L690.93,324.834a.616.616,0,0,1-.306-.533l.035-49.016a.617.617,0,0,1,.927-.532l42.186,24.573a.616.616,0,0,1,.306.532l-.035,49.017a.614.614,0,0,1-.616.616Zm-41.569-25.543L732.811,347.8l.034-47.591-40.954-23.855Z" transform="translate(-690.624 -274.67)"/>
            </g>
          </g>
          <g id="Grupo_175601" data-name="Grupo 175601" transform="translate(100.086 88.284)">
            <path id="Trazado_208871" data-name="Trazado 208871" d="M694.49,258.145l42.326,24.661,42.308-24.565L736.8,233.6Z" transform="translate(-693.874 -232.981)" fill="#b9ddfc" fill-rule="evenodd"/>
            <g id="Grupo_175600" data-name="Grupo 175600">
              <path id="Trazado_208872" data-name="Trazado 208872" d="M736.431,283.038a.619.619,0,0,1-.31-.084L693.8,258.294a.617.617,0,0,1,0-1.065l42.309-24.548a.617.617,0,0,1,.62,0l42.325,24.643a.617.617,0,0,1,0,1.065l-42.309,24.565A.617.617,0,0,1,736.431,283.038Zm-41.1-25.275,41.1,23.946,41.082-23.853-41.1-23.929Z" transform="translate(-693.49 -232.597)"/>
            </g>
          </g>
          <g id="Grupo_175603" data-name="Grupo 175603" transform="translate(46.492 114.257)">
            <path id="Trazado_208873" data-name="Trazado 208873" d="M607.556,300.256l-.035,49.016,42.238-24.513.035-49.016Z" transform="translate(-606.905 -275.127)" fill="#b9ddfc" fill-rule="evenodd"/>
            <g id="Grupo_175602" data-name="Grupo 175602">
              <path id="Trazado_208874" data-name="Trazado 208874" d="M607.137,349.5a.616.616,0,0,1-.616-.617l.035-49.016a.616.616,0,0,1,.307-.532L649.1,274.826a.617.617,0,0,1,.926.534l-.035,49.016a.614.614,0,0,1-.307.532l-42.238,24.514A.619.619,0,0,1,607.137,349.5Zm.651-49.277-.034,47.59,41.005-23.8.035-47.591Z" transform="translate(-606.521 -274.743)"/>
            </g>
          </g>
          <g id="Grupo_175605" data-name="Grupo 175605" transform="translate(1.075 113.443)">
            <path id="Trazado_208875" data-name="Trazado 208875" d="M576.042,299l-.035,49.016-42.186-24.573.035-49.016Z" transform="translate(-533.205 -273.807)" fill="#b9ddfc" fill-rule="evenodd"/>
            <g id="Grupo_175604" data-name="Grupo 175604">
              <path id="Trazado_208876" data-name="Trazado 208876" d="M575.623,348.245a.62.62,0,0,1-.31-.084l-42.185-24.573a.616.616,0,0,1-.306-.532l.035-49.016a.616.616,0,0,1,.927-.532l42.186,24.573a.616.616,0,0,1,.306.533l-.034,49.016a.617.617,0,0,1-.617.616ZM534.054,322.7l40.954,23.856.034-47.591L534.088,275.11Z" transform="translate(-532.821 -273.423)"/>
            </g>
          </g>
          <g id="Grupo_175607" data-name="Grupo 175607" transform="translate(2.841 87.516)">
            <path id="Trazado_208877" data-name="Trazado 208877" d="M536.686,256.916l42.326,24.643,42.308-24.548-42.326-24.661Z" transform="translate(-536.07 -231.734)" fill="#b9ddfc" fill-rule="evenodd"/>
            <g id="Grupo_175606" data-name="Grupo 175606">
              <path id="Trazado_208878" data-name="Trazado 208878" d="M578.627,281.792a.623.623,0,0,1-.309-.084l-42.325-24.643a.616.616,0,0,1,0-1.065L578.3,231.434a.616.616,0,0,1,.62,0l42.325,24.66a.616.616,0,0,1,0,1.065l-42.309,24.548A.618.618,0,0,1,578.627,281.792Zm-41.1-25.259,41.1,23.929,41.082-23.836-41.1-23.947Z" transform="translate(-535.686 -231.351)"/>
            </g>
          </g>
          <g id="Grupo_175609" data-name="Grupo 175609" transform="translate(92.729 141.068)">
            <path id="Trazado_208879" data-name="Trazado 208879" d="M682.586,343.782l-.035,49.016,42.238-24.513.035-49.034Z" transform="translate(-681.935 -318.635)" fill="#a6f4fe" fill-rule="evenodd"/>
            <g id="Grupo_175608" data-name="Grupo 175608" transform="translate(0 0)">
              <path id="Trazado_208880" data-name="Trazado 208880" d="M682.167,393.03a.616.616,0,0,1-.616-.617l.035-49.016a.616.616,0,0,1,.307-.532l42.238-24.53a.616.616,0,0,1,.926.533l-.035,49.034a.617.617,0,0,1-.306.532l-42.238,24.513A.621.621,0,0,1,682.167,393.03Zm.651-49.277-.035,47.591,41.006-23.8.034-47.607Z" transform="translate(-681.551 -318.251)"/>
            </g>
          </g>
          <g id="Grupo_175611" data-name="Grupo 175611" transform="translate(47.313 140.273)">
            <path id="Trazado_208881" data-name="Trazado 208881" d="M651.072,342.533l-.035,49.016-42.186-24.573.035-49.016Z" transform="translate(-608.236 -317.344)" fill="#b9ddfc" fill-rule="evenodd"/>
            <g id="Grupo_175610" data-name="Grupo 175610">
              <path id="Trazado_208882" data-name="Trazado 208882" d="M650.653,391.782a.621.621,0,0,1-.31-.084l-42.185-24.573a.615.615,0,0,1-.306-.532l.035-49.016a.616.616,0,0,1,.927-.532L651,341.617a.615.615,0,0,1,.306.532l-.035,49.016a.616.616,0,0,1-.617.616Zm-41.569-25.544,40.954,23.856.034-47.591-40.954-23.856Z" transform="translate(-607.852 -316.96)"/>
            </g>
          </g>
          <g id="Grupo_175613" data-name="Grupo 175613" transform="translate(49.078 114.346)">
            <path id="Trazado_208883" data-name="Trazado 208883" d="M611.716,300.435,654.042,325.1l42.308-24.565-42.326-24.643Z" transform="translate(-611.1 -275.272)" fill="#b9ddfc" fill-rule="evenodd"/>
            <g id="Grupo_175612" data-name="Grupo 175612">
              <path id="Trazado_208884" data-name="Trazado 208884" d="M653.658,325.329a.611.611,0,0,1-.31-.084l-42.325-24.661a.616.616,0,0,1,0-1.065l42.308-24.547a.616.616,0,0,1,.62,0l42.326,24.643a.616.616,0,0,1,0,1.065l-42.308,24.565A.618.618,0,0,1,653.658,325.329Zm-41.1-25.276L653.658,324l41.082-23.853-41.1-23.929Z" transform="translate(-610.716 -274.888)"/>
            </g>
          </g>
          <g id="Grupo_175615" data-name="Grupo 175615" transform="translate(95.134 26.74)">
            <path id="Trazado_208885" data-name="Trazado 208885" d="M686.489,158.24l-.035,49.016,42.221-24.513.035-49.016Z" transform="translate(-685.838 -133.111)" fill="#ffe4a9" fill-rule="evenodd"/>
            <g id="Grupo_175614" data-name="Grupo 175614">
              <path id="Trazado_208886" data-name="Trazado 208886" d="M686.07,207.488a.617.617,0,0,1-.616-.617l.035-49.016a.616.616,0,0,1,.307-.532l42.221-24.513a.616.616,0,0,1,.926.534l-.035,49.016a.616.616,0,0,1-.307.532L686.38,207.4A.615.615,0,0,1,686.07,207.488Zm.651-49.277-.034,47.59L727.675,182l.034-47.59Z" transform="translate(-685.454 -132.727)"/>
            </g>
          </g>
          <g id="Grupo_175617" data-name="Grupo 175617" transform="translate(49.7 25.926)">
            <path id="Trazado_208887" data-name="Trazado 208887" d="M654.964,156.98,654.929,206l-42.2-24.573.035-49.016Z" transform="translate(-612.11 -131.79)" fill="#ffe4a9" fill-rule="evenodd"/>
            <g id="Grupo_175616" data-name="Grupo 175616">
              <path id="Trazado_208888" data-name="Trazado 208888" d="M654.545,206.228a.617.617,0,0,1-.309-.083l-42.2-24.573a.617.617,0,0,1-.306-.533l.035-49.016a.616.616,0,0,1,.926-.532l42.2,24.573a.616.616,0,0,1,.306.533l-.035,49.016a.617.617,0,0,1-.617.616Zm-41.587-25.543,40.971,23.856.035-47.591-40.972-23.856Z" transform="translate(-611.726 -131.406)"/>
            </g>
          </g>
          <g id="Grupo_175619" data-name="Grupo 175619" transform="translate(51.483)">
            <path id="Trazado_208889" data-name="Trazado 208889" d="M615.619,114.9l42.308,24.643L700.235,115,657.91,90.335Z" transform="translate(-615.003 -89.718)" fill="#ffe4a9" fill-rule="evenodd"/>
            <g id="Grupo_175618" data-name="Grupo 175618">
              <path id="Trazado_208890" data-name="Trazado 208890" d="M657.543,139.776a.617.617,0,0,1-.31-.084l-42.308-24.644a.616.616,0,0,1,0-1.065l42.291-24.565a.616.616,0,0,1,.62,0l42.325,24.661a.616.616,0,0,1,0,1.065l-42.308,24.547A.622.622,0,0,1,657.543,139.776Zm-41.082-25.259,41.082,23.929,41.082-23.836-41.1-23.947Z" transform="translate(-614.619 -89.335)"/>
            </g>
          </g>
          <g id="Grupo_175621" data-name="Grupo 175621" transform="translate(142.679 55.562)">
            <path id="Trazado_208891" data-name="Trazado 208891" d="M763.643,205.01l-.035,49.016,42.221-24.513.035-49.016Z" transform="translate(-762.991 -179.881)" fill="#a6f4fe" fill-rule="evenodd"/>
            <g id="Grupo_175620" data-name="Grupo 175620">
              <path id="Trazado_208892" data-name="Trazado 208892" d="M763.223,254.258a.616.616,0,0,1-.616-.617l.035-49.016a.617.617,0,0,1,.307-.532L805.17,179.58a.616.616,0,0,1,.926.534l-.035,49.016a.617.617,0,0,1-.306.532l-42.221,24.513A.619.619,0,0,1,763.223,254.258Zm.651-49.277-.034,47.591,40.988-23.8.034-47.59Z" transform="translate(-762.607 -179.497)"/>
            </g>
          </g>
          <g id="Grupo_175623" data-name="Grupo 175623" transform="translate(97.246 54.748)">
            <path id="Trazado_208893" data-name="Trazado 208893" d="M732.1,203.75l-.035,49.016L689.88,228.193l.035-49.016Z" transform="translate(-689.264 -178.56)" fill="#ffe4a9" fill-rule="evenodd"/>
            <g id="Grupo_175622" data-name="Grupo 175622">
              <path id="Trazado_208894" data-name="Trazado 208894" d="M731.681,253a.62.62,0,0,1-.31-.084l-42.186-24.573a.616.616,0,0,1-.306-.532l.035-49.016a.615.615,0,0,1,.926-.532l42.186,24.573a.617.617,0,0,1,.306.533l-.035,49.016a.616.616,0,0,1-.617.616Zm-41.569-25.543,40.954,23.855.034-47.59-40.953-23.855Z" transform="translate(-688.88 -178.177)"/>
            </g>
          </g>
          <g id="Grupo_175625" data-name="Grupo 175625" transform="translate(99.011 28.821)">
            <path id="Trazado_208895" data-name="Trazado 208895" d="M692.744,161.67l42.326,24.643,42.308-24.565L735.053,137.1Z" transform="translate(-692.128 -136.488)" fill="#ffe4a9" fill-rule="evenodd"/>
            <g id="Grupo_175624" data-name="Grupo 175624">
              <path id="Trazado_208896" data-name="Trazado 208896" d="M734.686,186.545a.619.619,0,0,1-.31-.084L692.05,161.819a.616.616,0,0,1,0-1.065l42.308-24.565a.616.616,0,0,1,.62,0L777.3,160.831a.616.616,0,0,1,0,1.065L735,186.462A.619.619,0,0,1,734.686,186.545Zm-41.1-25.259,41.1,23.929,41.083-23.853-41.1-23.93Z" transform="translate(-691.744 -136.104)"/>
            </g>
          </g>
          <g id="Grupo_175627" data-name="Grupo 175627" transform="translate(45.417 54.794)">
            <path id="Trazado_208897" data-name="Trazado 208897" d="M605.811,203.763l-.035,49.016,42.239-24.513.035-49.016Z" transform="translate(-605.16 -178.634)" fill="#b9ddfc" fill-rule="evenodd"/>
            <g id="Grupo_175626" data-name="Grupo 175626">
              <path id="Trazado_208898" data-name="Trazado 208898" d="M605.392,253.012a.617.617,0,0,1-.616-.617l.035-49.017a.616.616,0,0,1,.307-.532l42.238-24.513a.616.616,0,0,1,.926.534l-.035,49.016a.615.615,0,0,1-.306.532L605.7,252.929A.626.626,0,0,1,605.392,253.012Zm.651-49.278-.034,47.591,41.005-23.8.034-47.591Z" transform="translate(-604.776 -178.25)"/>
            </g>
          </g>
          <g id="Grupo_175629" data-name="Grupo 175629" transform="translate(0 53.98)">
            <path id="Trazado_208899" data-name="Trazado 208899" d="M574.3,202.5l-.035,49.016-42.186-24.573.035-49.016Z" transform="translate(-531.46 -177.314)" fill="#b9ddfc" fill-rule="evenodd"/>
            <g id="Grupo_175628" data-name="Grupo 175628">
              <path id="Trazado_208900" data-name="Trazado 208900" d="M573.878,251.752a.621.621,0,0,1-.31-.084l-42.186-24.573a.616.616,0,0,1-.306-.533l.035-49.016a.616.616,0,0,1,.926-.532l42.186,24.573a.615.615,0,0,1,.306.532l-.035,49.016a.617.617,0,0,1-.617.616Zm-41.569-25.544,40.954,23.856.034-47.591-40.954-23.855Z" transform="translate(-531.076 -176.931)"/>
            </g>
          </g>
          <g id="Grupo_175631" data-name="Grupo 175631" transform="translate(1.766 28.053)">
            <path id="Trazado_208901" data-name="Trazado 208901" d="M534.941,160.423l42.326,24.643,42.308-24.548-42.326-24.661Z" transform="translate(-534.325 -135.242)" fill="#ffe4a9" fill-rule="evenodd"/>
            <g id="Grupo_175630" data-name="Grupo 175630">
              <path id="Trazado_208902" data-name="Trazado 208902" d="M576.882,185.3a.612.612,0,0,1-.309-.084l-42.325-24.643a.616.616,0,0,1,0-1.065l42.308-24.565a.618.618,0,0,1,.62,0L619.5,159.6a.617.617,0,0,1,0,1.065l-42.308,24.547A.617.617,0,0,1,576.882,185.3Zm-41.1-25.259,41.1,23.929,41.082-23.836-41.1-23.947Z" transform="translate(-533.941 -134.858)"/>
            </g>
          </g>
          <g id="Grupo_175633" data-name="Grupo 175633" transform="translate(91.671 81.623)">
            <path id="Trazado_208903" data-name="Trazado 208903" d="M680.869,247.3l-.035,49.016L723.055,271.8l.035-49.016Z" transform="translate(-680.218 -222.171)" fill="#a6f4fe" fill-rule="evenodd"/>
            <g id="Grupo_175632" data-name="Grupo 175632">
              <path id="Trazado_208904" data-name="Trazado 208904" d="M680.45,296.549a.624.624,0,0,1-.308-.083.617.617,0,0,1-.308-.534l.035-49.017a.616.616,0,0,1,.307-.532L722.4,221.871a.616.616,0,0,1,.926.533l-.035,49.016a.615.615,0,0,1-.307.532L680.76,296.465A.618.618,0,0,1,680.45,296.549Zm.651-49.278-.034,47.591,40.988-23.8.034-47.591Z" transform="translate(-679.834 -221.787)"/>
            </g>
          </g>
          <g id="Grupo_175635" data-name="Grupo 175635" transform="translate(46.237 80.81)">
            <path id="Trazado_208905" data-name="Trazado 208905" d="M649.327,246.04l-.035,49.016-42.186-24.573.035-49.016Z" transform="translate(-606.49 -220.851)" fill="#b9ddfc" fill-rule="evenodd"/>
            <g id="Grupo_175634" data-name="Grupo 175634">
              <path id="Trazado_208906" data-name="Trazado 208906" d="M648.908,295.289a.624.624,0,0,1-.31-.084l-42.185-24.573a.616.616,0,0,1-.306-.533l.035-49.016a.616.616,0,0,1,.926-.532l42.186,24.573a.615.615,0,0,1,.306.532l-.035,49.016a.616.616,0,0,1-.616.616Zm-41.569-25.543L648.293,293.6l.034-47.591-40.954-23.855Z" transform="translate(-606.106 -220.468)"/>
            </g>
          </g>
          <g id="Grupo_175637" data-name="Grupo 175637" transform="translate(48.002 54.883)">
            <path id="Trazado_208907" data-name="Trazado 208907" d="M609.971,203.96,652.3,228.6,694.6,204.038,652.279,179.4Z" transform="translate(-609.355 -178.779)" fill="#ffe4a9" fill-rule="evenodd"/>
            <g id="Grupo_175636" data-name="Grupo 175636">
              <path id="Trazado_208908" data-name="Trazado 208908" d="M651.912,228.836a.614.614,0,0,1-.31-.084l-42.325-24.643a.616.616,0,0,1,0-1.065l42.308-24.565a.617.617,0,0,1,.62,0l42.325,24.643a.617.617,0,0,1,0,1.065l-42.309,24.565A.617.617,0,0,1,651.912,228.836Zm-41.1-25.259,41.1,23.929L693,203.654l-41.1-23.929Z" transform="translate(-608.971 -178.395)"/>
            </g>
          </g>
        </g>
      </g>
    </g>
  </g>
</svg>
