<svg xmlns="http://www.w3.org/2000/svg" width="610" height="300" viewBox="0 0 610 300">
  <g id="Grupo_176823" data-name="Grupo 176823" transform="translate(9046 4743)">
    <g id="Grupo_176755" data-name="Grupo 176755">
      <rect id="Rectángulo_298450" data-name="Rectángulo 298450" width="610" height="300" transform="translate(-9046 -4743)" fill="none"/>
      <g id="Grupo_175774" data-name="Grupo 175774" transform="translate(-10.516 -21)">
        <g id="Grupo_175772" data-name="Grupo 175772" transform="translate(-9035 -4653)">
          <g id="Grupo_175642" data-name="Grupo 175642" transform="translate(0 79.922)">
            <path id="Trazado_208909" data-name="Trazado 208909" d="M219.994,350.236l-34.407-19.853v40.2l34.407,19.872Z" transform="translate(-184.919 -329.715)" fill="#0f67b7" fill-rule="evenodd"/>
            <path id="Trazado_208910" data-name="Trazado 208910" d="M219.162,390.289a.667.667,0,0,1-.334-.09l-34.407-19.873a.667.667,0,0,1-.334-.579v-40.2a.668.668,0,0,1,1-.579L219.5,348.825a.667.667,0,0,1,.334.578v40.217a.668.668,0,0,1-.668.668Zm-33.739-20.927,33.071,19.1V349.79l-33.071-19.081Z" transform="translate(-184.087 -328.883)"/>
          </g>
          <g id="Grupo_175643" data-name="Grupo 175643" transform="translate(0 60.069)">
            <path id="Trazado_208911" data-name="Trazado 208911" d="M185.587,305.676l34.407-19.853,34.387,19.853-34.387,19.853Z" transform="translate(-184.919 -285.155)" fill="#00defc" fill-rule="evenodd"/>
            <path id="Trazado_208912" data-name="Trazado 208912" d="M219.162,325.365a.665.665,0,0,1-.334-.09l-34.408-19.853a.668.668,0,0,1,0-1.158l34.408-19.853a.667.667,0,0,1,.668,0l34.388,19.852a.668.668,0,0,1,0,1.158L219.5,325.276A.668.668,0,0,1,219.162,325.365Zm-33.07-20.521,33.07,19.081,33.051-19.081-33.051-19.081Z" transform="translate(-184.087 -284.323)"/>
          </g>
          <g id="Grupo_175644" data-name="Grupo 175644" transform="translate(68.795 100.267)">
            <path id="Trazado_208913" data-name="Trazado 208913" d="M340,395.9l34.387-19.853L408.791,395.9l-34.407,19.872Z" transform="translate(-339.328 -375.379)" fill="#00defc" fill-rule="evenodd"/>
            <path id="Trazado_208914" data-name="Trazado 208914" d="M373.552,415.609a.668.668,0,0,1-.334-.09l-34.388-19.872a.668.668,0,0,1,0-1.157l34.387-19.853a.67.67,0,0,1,.668,0l34.407,19.853a.668.668,0,0,1,0,1.157l-34.407,19.872A.668.668,0,0,1,373.552,415.609ZM340.5,395.069l33.051,19.1,33.07-19.1-33.07-19.082Z" transform="translate(-338.497 -374.548)"/>
          </g>
          <g id="Grupo_175645" data-name="Grupo 175645" transform="translate(34.407 19.853)">
            <path id="Trazado_208915" data-name="Trazado 208915" d="M297.2,215.409l-34.387-19.853v40.217L297.2,255.626Z" transform="translate(-262.146 -194.888)" fill="#00defc" fill-rule="evenodd"/>
            <path id="Trazado_208916" data-name="Trazado 208916" d="M296.37,255.463a.667.667,0,0,1-.334-.09l-34.388-19.852a.668.668,0,0,1-.334-.579V194.725a.668.668,0,0,1,1-.579L296.7,214a.668.668,0,0,1,.334.579v40.217a.668.668,0,0,1-.668.668Zm-33.719-20.907L295.7,253.637V214.963l-33.051-19.081Z" transform="translate(-261.314 -194.056)"/>
          </g>
          <g id="Grupo_175646" data-name="Grupo 175646" transform="translate(68.795 19.853)">
            <path id="Trazado_208917" data-name="Trazado 208917" d="M340,215.409l34.387-19.853v40.217L340,255.626Z" transform="translate(-339.328 -194.888)" fill="#00defc" fill-rule="evenodd"/>
            <path id="Trazado_208918" data-name="Trazado 208918" d="M339.165,255.463a.668.668,0,0,1-.668-.668V214.577a.668.668,0,0,1,.334-.579l34.387-19.853a.668.668,0,0,1,1,.579v40.217a.668.668,0,0,1-.334.579L339.5,255.373A.669.669,0,0,1,339.165,255.463Zm.668-40.5v38.674l33.05-19.081V195.882Z" transform="translate(-338.497 -194.056)"/>
          </g>
          <g id="Grupo_175647" data-name="Grupo 175647" transform="translate(34.407 0)">
            <path id="Trazado_208919" data-name="Trazado 208919" d="M262.814,170.85,297.2,151l34.387,19.853L297.2,190.7Z" transform="translate(-262.146 -150.329)" fill="#d9faff" fill-rule="evenodd"/>
            <path id="Trazado_208920" data-name="Trazado 208920" d="M296.37,190.539a.668.668,0,0,1-.334-.09L261.648,170.6a.668.668,0,0,1,0-1.158l34.388-19.852a.666.666,0,0,1,.668,0l34.387,19.852a.668.668,0,0,1,0,1.158L296.7,190.45A.669.669,0,0,1,296.37,190.539Zm-33.051-20.521L296.37,189.1l33.051-19.081L296.37,150.938Z" transform="translate(-261.314 -149.497)"/>
          </g>
          <g id="Grupo_175648" data-name="Grupo 175648" transform="translate(103.182 19.853)">
            <path id="Trazado_208921" data-name="Trazado 208921" d="M451.586,215.409l-34.407-19.853v40.217l34.407,19.852Z" transform="translate(-416.511 -194.888)" fill="#00defc" fill-rule="evenodd"/>
            <path id="Trazado_208922" data-name="Trazado 208922" d="M450.754,255.463a.668.668,0,0,1-.334-.09l-34.407-19.852a.668.668,0,0,1-.335-.579V194.725a.669.669,0,0,1,1-.579L451.088,214a.669.669,0,0,1,.335.579v40.217a.668.668,0,0,1-.668.668Zm-33.739-20.907,33.071,19.081V214.964l-33.071-19.081Z" transform="translate(-415.679 -194.057)"/>
          </g>
          <g id="Grupo_175649" data-name="Grupo 175649" transform="translate(103.182 60.07)">
            <path id="Trazado_208923" data-name="Trazado 208923" d="M451.586,305.676l-34.407-19.853v40.2l34.407,19.853Z" transform="translate(-416.511 -285.156)" fill="#00defc" fill-rule="evenodd"/>
            <path id="Trazado_208924" data-name="Trazado 208924" d="M450.754,345.71a.668.668,0,0,1-.334-.09l-34.407-19.853a.668.668,0,0,1-.335-.579v-40.2a.669.669,0,0,1,1-.579l34.407,19.853a.668.668,0,0,1,.335.579v40.2a.668.668,0,0,1-.668.668ZM417.016,324.8l33.071,19.081V305.231l-33.071-19.081Z" transform="translate(-415.679 -284.324)"/>
          </g>
          <g id="Grupo_175650" data-name="Grupo 175650" transform="translate(68.795 60.069)">
            <path id="Trazado_208925" data-name="Trazado 208925" d="M340,305.676l34.387-19.853v40.2L340,345.874Z" transform="translate(-339.328 -285.155)" fill="#00defc" fill-rule="evenodd"/>
            <path id="Trazado_208926" data-name="Trazado 208926" d="M339.165,345.71a.668.668,0,0,1-.668-.668v-40.2a.668.668,0,0,1,.334-.579l34.387-19.853a.668.668,0,0,1,1,.579v40.2a.668.668,0,0,1-.334.579L339.5,345.62A.669.669,0,0,1,339.165,345.71Zm.668-40.48v38.654l33.05-19.081V286.149Z" transform="translate(-338.497 -284.323)"/>
          </g>
          <g id="Grupo_175651" data-name="Grupo 175651" transform="translate(34.407 99.775)">
            <path id="Trazado_208927" data-name="Trazado 208927" d="M297.2,394.795l-34.387-19.853v40.217L297.2,435.012Z" transform="translate(-262.146 -374.274)" fill="#a6f4fe" fill-rule="evenodd"/>
            <path id="Trazado_208928" data-name="Trazado 208928" d="M296.37,434.849a.669.669,0,0,1-.334-.09l-34.388-19.852a.668.668,0,0,1-.334-.579V374.111a.668.668,0,0,1,1-.578L296.7,393.385a.668.668,0,0,1,.334.579v40.217a.669.669,0,0,1-.668.668Zm-33.719-20.907L295.7,433.023V394.349l-33.051-19.081Z" transform="translate(-261.314 -373.443)"/>
          </g>
          <g id="Grupo_175652" data-name="Grupo 175652" transform="translate(68.795 99.775)">
            <path id="Trazado_208929" data-name="Trazado 208929" d="M340,394.795l34.387-19.853v40.217L340,435.012Z" transform="translate(-339.328 -374.274)" fill="#00b1c9" fill-rule="evenodd"/>
            <path id="Trazado_208930" data-name="Trazado 208930" d="M339.165,434.849a.669.669,0,0,1-.668-.668V393.963a.668.668,0,0,1,.334-.579l34.387-19.852a.668.668,0,0,1,1,.578v40.217a.668.668,0,0,1-.334.579L339.5,434.759A.67.67,0,0,1,339.165,434.849Zm.668-40.5v38.674l33.05-19.081V375.268Z" transform="translate(-338.497 -373.443)"/>
          </g>
          <g id="Grupo_175653" data-name="Grupo 175653" transform="translate(34.407 79.922)">
            <path id="Trazado_208931" data-name="Trazado 208931" d="M262.814,350.236,297.2,330.383l34.387,19.853L297.2,370.088Z" transform="translate(-262.146 -329.714)" fill="#00defc" fill-rule="evenodd"/>
            <path id="Trazado_208932" data-name="Trazado 208932" d="M296.37,369.924a.668.668,0,0,1-.334-.09l-34.388-19.852a.668.668,0,0,1,0-1.157l34.388-19.853a.666.666,0,0,1,.668,0l34.387,19.853a.668.668,0,0,1,0,1.157L296.7,369.835A.669.669,0,0,1,296.37,369.924ZM263.319,349.4l33.051,19.081L329.42,349.4,296.37,330.323Z" transform="translate(-261.314 -328.882)"/>
          </g>
          <g id="Grupo_175657" data-name="Grupo 175657" transform="translate(0.014 19.967)">
            <g id="Grupo_175654" data-name="Grupo 175654" transform="translate(0 19.852)">
              <path id="Trazado_208933" data-name="Trazado 208933" d="M220,260.224l-34.387-19.852v40.217L220,300.441Z" transform="translate(-184.948 -239.704)" fill="#0f67b7" fill-rule="evenodd"/>
              <path id="Trazado_208934" data-name="Trazado 208934" d="M219.172,300.278a.668.668,0,0,1-.334-.09l-34.387-19.853a.668.668,0,0,1-.334-.579V239.54a.668.668,0,0,1,1-.579l34.387,19.852a.668.668,0,0,1,.334.579V299.61a.668.668,0,0,1-.668.668Zm-33.719-20.907L218.5,298.452V259.779L185.454,240.7Z" transform="translate(-184.117 -238.872)"/>
            </g>
            <g id="Grupo_175655" data-name="Grupo 175655" transform="translate(34.387 19.852)">
              <path id="Trazado_208935" data-name="Trazado 208935" d="M262.8,260.224l34.407-19.852v40.217L262.8,300.441Z" transform="translate(-262.131 -239.704)" fill="#00defc" fill-rule="evenodd"/>
              <path id="Trazado_208936" data-name="Trazado 208936" d="M261.967,300.278a.668.668,0,0,1-.668-.668V259.393a.668.668,0,0,1,.335-.579l34.407-19.852a.668.668,0,0,1,1,.579v40.217a.668.668,0,0,1-.334.579L262.3,300.188A.668.668,0,0,1,261.967,300.278Zm.668-40.5v38.674l33.071-19.081V240.7Z" transform="translate(-261.299 -238.872)"/>
            </g>
            <g id="Grupo_175656" data-name="Grupo 175656" transform="translate(0 0)">
              <path id="Trazado_208937" data-name="Trazado 208937" d="M185.617,215.665,220,195.813l34.407,19.853L220,235.518Z" transform="translate(-184.948 -195.145)" fill="#d9faff" fill-rule="evenodd"/>
              <path id="Trazado_208938" data-name="Trazado 208938" d="M219.172,235.355a.668.668,0,0,1-.334-.09l-34.387-19.853a.668.668,0,0,1,0-1.158L218.838,194.4a.668.668,0,0,1,.668,0l34.407,19.852a.668.668,0,0,1,0,1.158l-34.407,19.853A.668.668,0,0,1,219.172,235.355Zm-33.051-20.521,33.051,19.081,33.07-19.081-33.07-19.081Z" transform="translate(-184.117 -194.313)"/>
            </g>
          </g>
          <g id="Grupo_175661" data-name="Grupo 175661" transform="translate(68.625 60.065)">
            <g id="Grupo_175658" data-name="Grupo 175658" transform="translate(0 19.853)">
              <path id="Trazado_208939" data-name="Trazado 208939" d="M374,350.224l-34.387-19.853v40.217L374,390.441Z" transform="translate(-338.948 -329.704)" fill="#a6f4fe" fill-rule="evenodd"/>
              <path id="Trazado_208940" data-name="Trazado 208940" d="M373.172,390.278a.668.668,0,0,1-.334-.09l-34.387-19.852a.668.668,0,0,1-.334-.579V329.54a.668.668,0,0,1,1-.579l34.387,19.852a.668.668,0,0,1,.334.579V389.61a.669.669,0,0,1-.668.668Zm-33.719-20.907,33.05,19.081V349.779L339.454,330.7Z" transform="translate(-338.117 -328.872)"/>
            </g>
            <g id="Grupo_175659" data-name="Grupo 175659" transform="translate(34.387 19.853)">
              <path id="Trazado_208941" data-name="Trazado 208941" d="M416.8,350.224l34.407-19.853v40.217L416.8,390.441Z" transform="translate(-416.131 -329.704)" fill="#00defc" fill-rule="evenodd"/>
              <path id="Trazado_208942" data-name="Trazado 208942" d="M415.967,390.278a.669.669,0,0,1-.668-.668V349.393a.668.668,0,0,1,.335-.579l34.407-19.852a.668.668,0,0,1,1,.579v40.217a.668.668,0,0,1-.334.579L416.3,390.188A.668.668,0,0,1,415.967,390.278Zm.668-40.5v38.674l33.071-19.081V330.7Z" transform="translate(-415.299 -328.872)"/>
            </g>
            <g id="Grupo_175660" data-name="Grupo 175660" transform="translate(0 0)">
              <path id="Trazado_208943" data-name="Trazado 208943" d="M339.617,305.665,374,285.813l34.407,19.853L374,325.518Z" transform="translate(-338.948 -285.145)" fill="#a6f4fe" fill-rule="evenodd"/>
              <path id="Trazado_208944" data-name="Trazado 208944" d="M373.172,325.355a.668.668,0,0,1-.334-.09l-34.387-19.853a.668.668,0,0,1,0-1.158L372.838,284.4a.668.668,0,0,1,.668,0l34.407,19.852a.668.668,0,0,1,0,1.158l-34.407,19.853A.668.668,0,0,1,373.172,325.355Zm-33.051-20.521,33.051,19.081,33.07-19.081-33.07-19.081Z" transform="translate(-338.117 -284.313)"/>
            </g>
          </g>
          <g id="Grupo_175665" data-name="Grupo 175665" transform="translate(68.625 19.967)">
            <g id="Grupo_175662" data-name="Grupo 175662" transform="translate(0 19.852)">
              <path id="Trazado_208945" data-name="Trazado 208945" d="M374,260.224l-34.387-19.852v40.217L374,300.441Z" transform="translate(-338.948 -239.704)" fill="#a6f4fe" fill-rule="evenodd"/>
              <path id="Trazado_208946" data-name="Trazado 208946" d="M373.172,300.278a.668.668,0,0,1-.334-.09l-34.387-19.853a.668.668,0,0,1-.334-.579V239.54a.668.668,0,0,1,1-.579l34.387,19.852a.668.668,0,0,1,.334.579V299.61a.668.668,0,0,1-.668.668Zm-33.719-20.907,33.05,19.081V259.779L339.454,240.7Z" transform="translate(-338.117 -238.872)"/>
            </g>
            <g id="Grupo_175663" data-name="Grupo 175663" transform="translate(34.387 19.852)">
              <path id="Trazado_208947" data-name="Trazado 208947" d="M416.8,260.224l34.407-19.852v40.217L416.8,300.441Z" transform="translate(-416.131 -239.704)" fill="#00defc" fill-rule="evenodd"/>
              <path id="Trazado_208948" data-name="Trazado 208948" d="M415.967,300.278a.668.668,0,0,1-.668-.668V259.393a.668.668,0,0,1,.335-.579l34.407-19.852a.668.668,0,0,1,1,.579v40.217a.668.668,0,0,1-.334.579L416.3,300.188A.668.668,0,0,1,415.967,300.278Zm.668-40.5v38.674l33.071-19.081V240.7Z" transform="translate(-415.299 -238.872)"/>
            </g>
            <g id="Grupo_175664" data-name="Grupo 175664" transform="translate(0 0)">
              <path id="Trazado_208949" data-name="Trazado 208949" d="M339.617,215.665,374,195.813l34.407,19.853L374,235.518Z" transform="translate(-338.948 -195.145)" fill="#d9faff" fill-rule="evenodd"/>
              <path id="Trazado_208950" data-name="Trazado 208950" d="M373.172,235.355a.668.668,0,0,1-.334-.09l-34.387-19.853a.668.668,0,0,1,0-1.158L372.838,194.4a.668.668,0,0,1,.668,0l34.407,19.852a.668.668,0,0,1,0,1.158l-34.407,19.853A.668.668,0,0,1,373.172,235.355Zm-33.051-20.521,33.051,19.081,33.07-19.081-33.07-19.081Z" transform="translate(-338.117 -194.313)"/>
            </g>
          </g>
          <g id="Grupo_175669" data-name="Grupo 175669" transform="translate(34.319 80.114)">
            <g id="Grupo_175666" data-name="Grupo 175666" transform="translate(0 19.853)">
              <path id="Trazado_208951" data-name="Trazado 208951" d="M297,395.224l-34.387-19.853v40.217L297,435.441Z" transform="translate(-261.948 -374.704)" fill="#0f67b7" fill-rule="evenodd"/>
              <path id="Trazado_208952" data-name="Trazado 208952" d="M296.172,435.278a.667.667,0,0,1-.334-.09l-34.387-19.853a.668.668,0,0,1-.334-.579V374.54a.668.668,0,0,1,1-.579l34.387,19.853a.668.668,0,0,1,.334.579V434.61a.668.668,0,0,1-.668.668Zm-33.719-20.907,33.05,19.081V394.779L262.454,375.7Z" transform="translate(-261.117 -373.872)"/>
            </g>
            <g id="Grupo_175667" data-name="Grupo 175667" transform="translate(34.387 19.853)">
              <path id="Trazado_208953" data-name="Trazado 208953" d="M339.8,395.224l34.407-19.853v40.217L339.8,435.441Z" transform="translate(-339.131 -374.704)" fill="#00defc" fill-rule="evenodd"/>
              <path id="Trazado_208954" data-name="Trazado 208954" d="M338.967,435.278a.668.668,0,0,1-.668-.668V394.393a.668.668,0,0,1,.335-.579l34.407-19.853a.668.668,0,0,1,1,.579v40.217a.668.668,0,0,1-.334.579L339.3,435.188A.667.667,0,0,1,338.967,435.278Zm.668-40.5v38.674l33.071-19.081V375.7Z" transform="translate(-338.299 -373.872)"/>
            </g>
            <g id="Grupo_175668" data-name="Grupo 175668" transform="translate(0)">
              <path id="Trazado_208955" data-name="Trazado 208955" d="M262.617,350.665,297,330.813l34.407,19.853L297,370.518Z" transform="translate(-261.948 -330.145)" fill="#a6f4fe" fill-rule="evenodd"/>
              <path id="Trazado_208956" data-name="Trazado 208956" d="M296.172,370.355a.668.668,0,0,1-.334-.09l-34.387-19.852a.668.668,0,0,1,0-1.158L295.838,329.4a.668.668,0,0,1,.668,0l34.407,19.852a.668.668,0,0,1,0,1.158l-34.407,19.852A.667.667,0,0,1,296.172,370.355Zm-33.051-20.521,33.051,19.081,33.07-19.081-33.07-19.081Z" transform="translate(-261.117 -329.313)"/>
            </g>
          </g>
          <g id="Grupo_175673" data-name="Grupo 175673" transform="translate(34.319 40.016)">
            <g id="Grupo_175670" data-name="Grupo 175670" transform="translate(0 19.852)">
              <path id="Trazado_208957" data-name="Trazado 208957" d="M297,305.224l-34.387-19.853v40.217L297,345.441Z" transform="translate(-261.948 -284.704)" fill="#0f67b7" fill-rule="evenodd"/>
              <path id="Trazado_208958" data-name="Trazado 208958" d="M296.172,345.278a.668.668,0,0,1-.334-.09l-34.387-19.853a.668.668,0,0,1-.334-.579V284.54a.668.668,0,0,1,1-.579l34.387,19.852a.668.668,0,0,1,.334.579V344.61a.668.668,0,0,1-.668.668Zm-33.719-20.907,33.05,19.081V304.779L262.454,285.7Z" transform="translate(-261.117 -283.872)"/>
            </g>
            <g id="Grupo_175671" data-name="Grupo 175671" transform="translate(34.387 19.852)">
              <path id="Trazado_208959" data-name="Trazado 208959" d="M339.8,305.224l34.407-19.853v40.217L339.8,345.441Z" transform="translate(-339.131 -284.704)" fill="#00defc" fill-rule="evenodd"/>
              <path id="Trazado_208960" data-name="Trazado 208960" d="M338.967,345.278a.668.668,0,0,1-.668-.668V304.393a.668.668,0,0,1,.335-.579l34.407-19.852a.668.668,0,0,1,1,.579v40.217a.668.668,0,0,1-.334.579L339.3,345.188A.668.668,0,0,1,338.967,345.278Zm.668-40.5v38.674l33.071-19.081V285.7Z" transform="translate(-338.299 -283.872)"/>
            </g>
            <g id="Grupo_175672" data-name="Grupo 175672" transform="translate(0)">
              <path id="Trazado_208961" data-name="Trazado 208961" d="M262.617,260.665,297,240.813l34.407,19.853L297,280.518Z" transform="translate(-261.948 -240.145)" fill="#d9faff" fill-rule="evenodd"/>
              <path id="Trazado_208962" data-name="Trazado 208962" d="M296.172,280.355a.668.668,0,0,1-.334-.09l-34.387-19.852a.668.668,0,0,1,0-1.158L295.838,239.4a.668.668,0,0,1,.668,0l34.407,19.852a.668.668,0,0,1,0,1.158l-34.407,19.852A.668.668,0,0,1,296.172,280.355Zm-33.051-20.521,33.051,19.081,33.07-19.081-33.07-19.081Z" transform="translate(-261.117 -239.313)"/>
            </g>
          </g>
        </g>
        <g id="Grupo_175771" data-name="Grupo 175771" transform="translate(-8878.491 -4653)">
          <g id="Grupo_175674" data-name="Grupo 175674" transform="translate(0 79.922)">
            <path id="Trazado_208963" data-name="Trazado 208963" d="M219.994,752.735l-34.407-19.852v40.2l34.407,19.872Z" transform="translate(-184.919 -732.214)" fill="#00defc" fill-rule="evenodd"/>
            <path id="Trazado_208964" data-name="Trazado 208964" d="M219.162,792.788a.668.668,0,0,1-.334-.089l-34.407-19.872a.668.668,0,0,1-.334-.579v-40.2a.668.668,0,0,1,1-.579L219.5,751.324a.668.668,0,0,1,.334.579V792.12a.668.668,0,0,1-.668.668Zm-33.739-20.927,33.071,19.1V752.289l-33.071-19.081Z" transform="translate(-184.087 -731.382)"/>
          </g>
          <g id="Grupo_175675" data-name="Grupo 175675" transform="translate(0 60.07)">
            <path id="Trazado_208965" data-name="Trazado 208965" d="M185.587,708.176l34.407-19.853,34.387,19.853-34.387,19.852Z" transform="translate(-184.919 -687.655)" fill="#00defc" fill-rule="evenodd"/>
            <path id="Trazado_208966" data-name="Trazado 208966" d="M219.162,727.865a.665.665,0,0,1-.334-.09l-34.408-19.852a.668.668,0,0,1,0-1.158l34.408-19.853a.668.668,0,0,1,.668,0l34.388,19.853a.668.668,0,0,1,0,1.158L219.5,727.775A.668.668,0,0,1,219.162,727.865Zm-33.07-20.521,33.07,19.081,33.051-19.081-33.051-19.081Z" transform="translate(-184.087 -686.823)"/>
          </g>
          <g id="Grupo_175676" data-name="Grupo 175676" transform="translate(68.795 100.267)">
            <path id="Trazado_208967" data-name="Trazado 208967" d="M340,798.4l34.387-19.853L408.791,798.4l-34.407,19.872Z" transform="translate(-339.328 -777.878)" fill="#00defc" fill-rule="evenodd"/>
            <path id="Trazado_208968" data-name="Trazado 208968" d="M373.552,818.108a.669.669,0,0,1-.334-.089l-34.388-19.872a.668.668,0,0,1,0-1.157l34.387-19.853a.67.67,0,0,1,.668,0l34.407,19.853a.668.668,0,0,1,0,1.157l-34.407,19.872A.668.668,0,0,1,373.552,818.108ZM340.5,797.568l33.051,19.1,33.07-19.1-33.07-19.082Z" transform="translate(-338.497 -777.047)"/>
          </g>
          <g id="Grupo_175677" data-name="Grupo 175677" transform="translate(34.407 19.853)">
            <path id="Trazado_208969" data-name="Trazado 208969" d="M297.2,617.908l-34.387-19.852v40.217L297.2,658.125Z" transform="translate(-262.146 -597.388)" fill="#00defc" fill-rule="evenodd"/>
            <path id="Trazado_208970" data-name="Trazado 208970" d="M296.37,657.962a.668.668,0,0,1-.334-.09L261.648,638.02a.668.668,0,0,1-.334-.579V597.224a.668.668,0,0,1,1-.579L296.7,616.5a.669.669,0,0,1,.334.579v40.217a.668.668,0,0,1-.668.668Zm-33.719-20.907L295.7,656.136V617.463l-33.051-19.081Z" transform="translate(-261.314 -596.556)"/>
          </g>
          <g id="Grupo_175678" data-name="Grupo 175678" transform="translate(68.795 19.853)">
            <path id="Trazado_208971" data-name="Trazado 208971" d="M340,617.908l34.387-19.852v40.217L340,658.125Z" transform="translate(-339.328 -597.388)" fill="#00defc" fill-rule="evenodd"/>
            <path id="Trazado_208972" data-name="Trazado 208972" d="M339.165,657.962a.668.668,0,0,1-.668-.668V617.077a.669.669,0,0,1,.334-.579l34.387-19.852a.668.668,0,0,1,1,.579v40.217a.668.668,0,0,1-.334.579L339.5,657.872A.67.67,0,0,1,339.165,657.962Zm.668-40.5v38.674l33.05-19.081V598.382Z" transform="translate(-338.497 -596.556)"/>
          </g>
          <g id="Grupo_175679" data-name="Grupo 175679" transform="translate(34.407)">
            <path id="Trazado_208973" data-name="Trazado 208973" d="M262.814,573.349,297.2,553.5l34.387,19.853L297.2,593.2Z" transform="translate(-262.146 -552.828)" fill="#008597" fill-rule="evenodd"/>
            <path id="Trazado_208974" data-name="Trazado 208974" d="M296.37,593.038a.667.667,0,0,1-.334-.09L261.648,573.1a.668.668,0,0,1,0-1.158l34.388-19.852a.666.666,0,0,1,.668,0l34.387,19.852a.668.668,0,0,1,0,1.158L296.7,592.949A.668.668,0,0,1,296.37,593.038Zm-33.051-20.521L296.37,591.6l33.051-19.081L296.37,553.436Z" transform="translate(-261.314 -551.996)"/>
          </g>
          <g id="Grupo_175680" data-name="Grupo 175680" transform="translate(103.182 19.853)">
            <path id="Trazado_208975" data-name="Trazado 208975" d="M451.586,617.908l-34.407-19.852v40.217l34.407,19.853Z" transform="translate(-416.511 -597.388)" fill="#00defc" fill-rule="evenodd"/>
            <path id="Trazado_208976" data-name="Trazado 208976" d="M450.754,657.962a.669.669,0,0,1-.334-.09L416.014,638.02a.668.668,0,0,1-.335-.579V597.224a.668.668,0,0,1,1-.579L451.088,616.5a.668.668,0,0,1,.335.579v40.217a.668.668,0,0,1-.668.668Zm-33.739-20.907,33.071,19.081V617.463l-33.071-19.081Z" transform="translate(-415.679 -596.556)"/>
          </g>
          <g id="Grupo_175681" data-name="Grupo 175681" transform="translate(103.182 60.07)">
            <path id="Trazado_208977" data-name="Trazado 208977" d="M451.586,708.176l-34.407-19.853v40.2l34.407,19.853Z" transform="translate(-416.511 -687.655)" fill="#00defc" fill-rule="evenodd"/>
            <path id="Trazado_208978" data-name="Trazado 208978" d="M450.754,748.21a.672.672,0,0,1-.334-.09l-34.407-19.853a.668.668,0,0,1-.335-.579v-40.2a.668.668,0,0,1,1-.579l34.407,19.853a.668.668,0,0,1,.335.579v40.2a.668.668,0,0,1-.668.668ZM417.016,727.3l33.071,19.081V707.73l-33.071-19.081Z" transform="translate(-415.679 -686.823)"/>
          </g>
          <g id="Grupo_175682" data-name="Grupo 175682" transform="translate(68.795 60.07)">
            <path id="Trazado_208979" data-name="Trazado 208979" d="M340,708.176l34.387-19.853v40.2L340,748.373Z" transform="translate(-339.328 -687.655)" fill="#00defc" fill-rule="evenodd"/>
            <path id="Trazado_208980" data-name="Trazado 208980" d="M339.165,748.21a.668.668,0,0,1-.668-.668v-40.2a.668.668,0,0,1,.334-.579l34.387-19.853a.668.668,0,0,1,1,.579v40.2a.668.668,0,0,1-.334.579L339.5,748.12A.673.673,0,0,1,339.165,748.21Zm.668-40.48v38.654l33.05-19.081V688.649Z" transform="translate(-338.497 -686.823)"/>
          </g>
          <g id="Grupo_175683" data-name="Grupo 175683" transform="translate(34.407 99.775)">
            <path id="Trazado_208981" data-name="Trazado 208981" d="M297.2,797.294l-34.387-19.853v40.217L297.2,837.511Z" transform="translate(-262.146 -776.773)" fill="#a6f4fe" fill-rule="evenodd"/>
            <path id="Trazado_208982" data-name="Trazado 208982" d="M296.37,837.348a.673.673,0,0,1-.334-.09l-34.388-19.853a.668.668,0,0,1-.334-.579V776.61a.668.668,0,0,1,1-.579L296.7,795.884a.668.668,0,0,1,.334.579V836.68a.668.668,0,0,1-.668.668Zm-33.719-20.907L295.7,835.522V796.848l-33.051-19.081Z" transform="translate(-261.314 -775.942)"/>
          </g>
          <g id="Grupo_175684" data-name="Grupo 175684" transform="translate(68.795 99.775)">
            <path id="Trazado_208983" data-name="Trazado 208983" d="M340,797.294l34.387-19.853v40.217L340,837.511Z" transform="translate(-339.328 -776.773)" fill="#00b1c9" fill-rule="evenodd"/>
            <path id="Trazado_208984" data-name="Trazado 208984" d="M339.165,837.348a.668.668,0,0,1-.668-.668V796.462a.668.668,0,0,1,.334-.579l34.387-19.852a.668.668,0,0,1,1,.579v40.217a.668.668,0,0,1-.334.579L339.5,837.258A.674.674,0,0,1,339.165,837.348Zm.668-40.5v38.674l33.05-19.081V777.767Z" transform="translate(-338.497 -775.942)"/>
          </g>
          <g id="Grupo_175685" data-name="Grupo 175685" transform="translate(34.407 79.922)">
            <path id="Trazado_208985" data-name="Trazado 208985" d="M262.814,752.735,297.2,732.882l34.387,19.852L297.2,772.587Z" transform="translate(-262.146 -732.214)" fill="#00defc" fill-rule="evenodd"/>
            <path id="Trazado_208986" data-name="Trazado 208986" d="M296.37,772.424a.668.668,0,0,1-.334-.09l-34.388-19.852a.668.668,0,0,1,0-1.157l34.388-19.853a.668.668,0,0,1,.668,0l34.387,19.853a.668.668,0,0,1,0,1.157L296.7,772.334A.67.67,0,0,1,296.37,772.424ZM263.319,751.9l33.051,19.08L329.42,751.9,296.37,732.822Z" transform="translate(-261.314 -731.382)"/>
          </g>
          <g id="Grupo_175689" data-name="Grupo 175689" transform="translate(0.014 19.967)">
            <g id="Grupo_175686" data-name="Grupo 175686" transform="translate(0 19.853)">
              <path id="Trazado_208987" data-name="Trazado 208987" d="M220,662.723l-34.387-19.853v40.217L220,702.941Z" transform="translate(-184.948 -642.203)" fill="#00defc" fill-rule="evenodd"/>
              <path id="Trazado_208988" data-name="Trazado 208988" d="M219.172,702.777a.667.667,0,0,1-.334-.09l-34.387-19.852a.668.668,0,0,1-.334-.579V642.039a.668.668,0,0,1,1-.579l34.387,19.853a.668.668,0,0,1,.334.579v40.217a.668.668,0,0,1-.668.668ZM185.454,681.87,218.5,700.951V662.278L185.454,643.2Z" transform="translate(-184.117 -641.371)"/>
            </g>
            <g id="Grupo_175687" data-name="Grupo 175687" transform="translate(34.387 19.853)">
              <path id="Trazado_208989" data-name="Trazado 208989" d="M262.8,662.723l34.407-19.853v40.217L262.8,702.941Z" transform="translate(-262.131 -642.203)" fill="#00defc" fill-rule="evenodd"/>
              <path id="Trazado_208990" data-name="Trazado 208990" d="M261.967,702.777a.668.668,0,0,1-.668-.668V661.892a.668.668,0,0,1,.335-.579l34.407-19.853a.668.668,0,0,1,1,.579v40.217a.669.669,0,0,1-.334.579L262.3,702.688A.672.672,0,0,1,261.967,702.777Zm.668-40.5v38.674l33.071-19.081V643.2Z" transform="translate(-261.299 -641.371)"/>
            </g>
            <g id="Grupo_175688" data-name="Grupo 175688" transform="translate(0)">
              <path id="Trazado_208991" data-name="Trazado 208991" d="M185.617,618.164,220,598.312l34.407,19.852L220,638.017Z" transform="translate(-184.948 -597.644)" fill="#008597" fill-rule="evenodd"/>
              <path id="Trazado_208992" data-name="Trazado 208992" d="M219.172,637.854a.667.667,0,0,1-.334-.09l-34.387-19.852a.668.668,0,0,1,0-1.158L218.838,596.9a.668.668,0,0,1,.668,0l34.407,19.852a.669.669,0,0,1,0,1.158l-34.407,19.853A.672.672,0,0,1,219.172,637.854Zm-33.051-20.521,33.051,19.081,33.07-19.081-33.07-19.081Z" transform="translate(-184.117 -596.812)"/>
            </g>
          </g>
          <g id="Grupo_175693" data-name="Grupo 175693" transform="translate(68.625 60.065)">
            <g id="Grupo_175690" data-name="Grupo 175690" transform="translate(0 19.853)">
              <path id="Trazado_208993" data-name="Trazado 208993" d="M374,752.724l-34.387-19.853v40.217L374,792.941Z" transform="translate(-338.948 -732.203)" fill="#a6f4fe" fill-rule="evenodd"/>
              <path id="Trazado_208994" data-name="Trazado 208994" d="M373.172,792.777a.667.667,0,0,1-.334-.09l-34.387-19.852a.668.668,0,0,1-.334-.579V732.039a.668.668,0,0,1,1-.579l34.387,19.852a.668.668,0,0,1,.334.579v40.217a.668.668,0,0,1-.668.668ZM339.454,771.87l33.05,19.081V752.278L339.454,733.2Z" transform="translate(-338.117 -731.371)"/>
            </g>
            <g id="Grupo_175691" data-name="Grupo 175691" transform="translate(34.387 19.853)">
              <path id="Trazado_208995" data-name="Trazado 208995" d="M416.8,752.724l34.407-19.853v40.217L416.8,792.941Z" transform="translate(-416.131 -732.203)" fill="#ffb30b" fill-rule="evenodd"/>
              <path id="Trazado_208996" data-name="Trazado 208996" d="M415.967,792.777a.668.668,0,0,1-.668-.668V751.892a.668.668,0,0,1,.335-.579l34.407-19.852a.668.668,0,0,1,1,.579v40.217a.669.669,0,0,1-.334.579L416.3,792.688A.672.672,0,0,1,415.967,792.777Zm.668-40.5v38.674l33.071-19.081V733.2Z" transform="translate(-415.299 -731.371)"/>
            </g>
            <g id="Grupo_175692" data-name="Grupo 175692" transform="translate(0 0)">
              <path id="Trazado_208997" data-name="Trazado 208997" d="M339.617,708.164,374,688.312l34.407,19.852L374,728.017Z" transform="translate(-338.948 -687.644)" fill="#a6f4fe" fill-rule="evenodd"/>
              <path id="Trazado_208998" data-name="Trazado 208998" d="M373.172,727.854a.668.668,0,0,1-.334-.089l-34.387-19.853a.668.668,0,0,1,0-1.157L372.838,686.9a.668.668,0,0,1,.668,0l34.407,19.853a.669.669,0,0,1,0,1.158l-34.407,19.853A.672.672,0,0,1,373.172,727.854Zm-33.051-20.521,33.051,19.081,33.07-19.081-33.07-19.081Z" transform="translate(-338.117 -686.812)"/>
            </g>
          </g>
          <g id="Grupo_175697" data-name="Grupo 175697" transform="translate(68.625 19.967)">
            <g id="Grupo_175694" data-name="Grupo 175694" transform="translate(0 19.853)">
              <path id="Trazado_208999" data-name="Trazado 208999" d="M374,662.723l-34.387-19.853v40.217L374,702.941Z" transform="translate(-338.948 -642.203)" fill="#a6f4fe" fill-rule="evenodd"/>
              <path id="Trazado_209000" data-name="Trazado 209000" d="M373.172,702.777a.667.667,0,0,1-.334-.09l-34.387-19.852a.668.668,0,0,1-.334-.579V642.039a.668.668,0,0,1,1-.579l34.387,19.853a.668.668,0,0,1,.334.579v40.217a.668.668,0,0,1-.668.668ZM339.454,681.87l33.05,19.081V662.278L339.454,643.2Z" transform="translate(-338.117 -641.371)"/>
            </g>
            <g id="Grupo_175695" data-name="Grupo 175695" transform="translate(34.387 19.853)">
              <path id="Trazado_209001" data-name="Trazado 209001" d="M416.8,662.723l34.407-19.853v40.217L416.8,702.941Z" transform="translate(-416.131 -642.203)" fill="#ffb30b" fill-rule="evenodd"/>
              <path id="Trazado_209002" data-name="Trazado 209002" d="M415.967,702.777a.668.668,0,0,1-.668-.668V661.892a.668.668,0,0,1,.335-.579l34.407-19.853a.668.668,0,0,1,1,.579v40.217a.669.669,0,0,1-.334.579L416.3,702.688A.672.672,0,0,1,415.967,702.777Zm.668-40.5v38.674l33.071-19.081V643.2Z" transform="translate(-415.299 -641.371)"/>
            </g>
            <g id="Grupo_175696" data-name="Grupo 175696" transform="translate(0)">
              <path id="Trazado_209003" data-name="Trazado 209003" d="M339.617,618.164,374,598.312l34.407,19.852L374,638.017Z" transform="translate(-338.948 -597.644)" fill="#008597" fill-rule="evenodd"/>
              <path id="Trazado_209004" data-name="Trazado 209004" d="M373.172,637.854a.667.667,0,0,1-.334-.09l-34.387-19.852a.668.668,0,0,1,0-1.158L372.838,596.9a.668.668,0,0,1,.668,0l34.407,19.852a.669.669,0,0,1,0,1.158l-34.407,19.853A.672.672,0,0,1,373.172,637.854Zm-33.051-20.521,33.051,19.081,33.07-19.081-33.07-19.081Z" transform="translate(-338.117 -596.812)"/>
            </g>
          </g>
          <g id="Grupo_175701" data-name="Grupo 175701" transform="translate(34.319 80.114)">
            <g id="Grupo_175698" data-name="Grupo 175698" transform="translate(0 19.853)">
              <path id="Trazado_209005" data-name="Trazado 209005" d="M297,797.723l-34.387-19.852v40.217L297,837.941Z" transform="translate(-261.948 -777.203)" fill="#00defc" fill-rule="evenodd"/>
              <path id="Trazado_209006" data-name="Trazado 209006" d="M296.172,837.777a.667.667,0,0,1-.334-.09l-34.387-19.852a.668.668,0,0,1-.334-.579V777.039a.668.668,0,0,1,1-.579l34.387,19.852a.668.668,0,0,1,.334.579v40.217a.668.668,0,0,1-.668.668ZM262.454,816.87l33.05,19.081V797.278L262.454,778.2Z" transform="translate(-261.117 -776.371)"/>
            </g>
            <g id="Grupo_175699" data-name="Grupo 175699" transform="translate(34.387 19.853)">
              <path id="Trazado_209007" data-name="Trazado 209007" d="M339.8,797.723l34.407-19.852v40.217L339.8,837.941Z" transform="translate(-339.131 -777.203)" fill="#ffb30b" fill-rule="evenodd"/>
              <path id="Trazado_209008" data-name="Trazado 209008" d="M338.967,837.777a.669.669,0,0,1-.668-.668V796.892a.668.668,0,0,1,.335-.579l34.407-19.852a.668.668,0,0,1,1,.579v40.217a.669.669,0,0,1-.334.579L339.3,837.688A.672.672,0,0,1,338.967,837.777Zm.668-40.5v38.674l33.071-19.081V778.2Z" transform="translate(-338.299 -776.371)"/>
            </g>
            <g id="Grupo_175700" data-name="Grupo 175700" transform="translate(0 0)">
              <path id="Trazado_209009" data-name="Trazado 209009" d="M262.617,753.164,297,733.312l34.407,19.853L297,773.017Z" transform="translate(-261.948 -732.644)" fill="#a6f4fe" fill-rule="evenodd"/>
              <path id="Trazado_209010" data-name="Trazado 209010" d="M296.172,772.854a.667.667,0,0,1-.334-.09l-34.387-19.852a.668.668,0,0,1,0-1.157L295.838,731.9a.668.668,0,0,1,.668,0l34.407,19.853a.669.669,0,0,1,0,1.158l-34.407,19.853A.672.672,0,0,1,296.172,772.854Zm-33.051-20.521,33.051,19.081,33.07-19.081-33.07-19.081Z" transform="translate(-261.117 -731.812)"/>
            </g>
          </g>
          <g id="Grupo_175705" data-name="Grupo 175705" transform="translate(34.319 40.016)">
            <g id="Grupo_175702" data-name="Grupo 175702" transform="translate(0 19.853)">
              <path id="Trazado_209011" data-name="Trazado 209011" d="M297,707.724l-34.387-19.853v40.217L297,747.941Z" transform="translate(-261.948 -687.203)" fill="#00defc" fill-rule="evenodd"/>
              <path id="Trazado_209012" data-name="Trazado 209012" d="M296.172,747.777a.667.667,0,0,1-.334-.09l-34.387-19.852a.668.668,0,0,1-.334-.579V687.039a.668.668,0,0,1,1-.579l34.387,19.852a.668.668,0,0,1,.334.579v40.217a.668.668,0,0,1-.668.668ZM262.454,726.87l33.05,19.081V707.278L262.454,688.2Z" transform="translate(-261.117 -686.371)"/>
            </g>
            <g id="Grupo_175703" data-name="Grupo 175703" transform="translate(34.387 19.853)">
              <path id="Trazado_209013" data-name="Trazado 209013" d="M339.8,707.724l34.407-19.853v40.217L339.8,747.941Z" transform="translate(-339.131 -687.203)" fill="#ffb30b" fill-rule="evenodd"/>
              <path id="Trazado_209014" data-name="Trazado 209014" d="M338.967,747.777a.669.669,0,0,1-.668-.668V706.892a.668.668,0,0,1,.335-.579l34.407-19.852a.668.668,0,0,1,1,.579v40.217a.669.669,0,0,1-.334.579L339.3,747.688A.672.672,0,0,1,338.967,747.777Zm.668-40.5v38.674l33.071-19.081V688.2Z" transform="translate(-338.299 -686.371)"/>
            </g>
            <g id="Grupo_175704" data-name="Grupo 175704" transform="translate(0 0)">
              <path id="Trazado_209015" data-name="Trazado 209015" d="M262.617,663.164,297,643.312l34.407,19.852L297,683.017Z" transform="translate(-261.948 -642.644)" fill="#008597" fill-rule="evenodd"/>
              <path id="Trazado_209016" data-name="Trazado 209016" d="M296.172,682.854a.668.668,0,0,1-.334-.089l-34.387-19.853a.668.668,0,0,1,0-1.157L295.838,641.9a.668.668,0,0,1,.668,0l34.407,19.853a.669.669,0,0,1,0,1.158l-34.407,19.853A.672.672,0,0,1,296.172,682.854Zm-33.051-20.521,33.051,19.081,33.07-19.081-33.07-19.081Z" transform="translate(-261.117 -641.812)"/>
            </g>
          </g>
        </g>
        <g id="Grupo_175773" data-name="Grupo 175773" transform="translate(-8564.41 -4653)">
          <g id="Grupo_175706" data-name="Grupo 175706" transform="translate(0 79.922)">
            <path id="Trazado_209017" data-name="Trazado 209017" d="M636.675,350.236l-34.407-19.853v40.2l34.407,19.872Z" transform="translate(-601.6 -329.715)" fill="#0f67b7" fill-rule="evenodd"/>
            <path id="Trazado_209018" data-name="Trazado 209018" d="M635.843,390.289a.668.668,0,0,1-.334-.09L601.1,370.327a.666.666,0,0,1-.334-.579v-40.2a.668.668,0,0,1,1-.579l34.407,19.853a.667.667,0,0,1,.335.578v40.217a.668.668,0,0,1-.668.668ZM602.1,369.363l33.07,19.1V349.79L602.1,330.709Z" transform="translate(-600.768 -328.883)"/>
          </g>
          <g id="Grupo_175707" data-name="Grupo 175707" transform="translate(0 60.069)">
            <path id="Trazado_209019" data-name="Trazado 209019" d="M602.268,305.676l34.407-19.853,34.387,19.853-34.387,19.853Z" transform="translate(-601.6 -285.155)" fill="#00defc" fill-rule="evenodd"/>
            <path id="Trazado_209020" data-name="Trazado 209020" d="M635.843,325.365a.668.668,0,0,1-.334-.09L601.1,305.423a.668.668,0,0,1,0-1.158l34.407-19.853a.668.668,0,0,1,.668,0l34.388,19.852a.668.668,0,0,1,0,1.158l-34.388,19.853A.668.668,0,0,1,635.843,325.365Zm-33.07-20.521,33.07,19.081,33.051-19.081-33.051-19.081Z" transform="translate(-600.768 -284.323)"/>
          </g>
          <g id="Grupo_175708" data-name="Grupo 175708" transform="translate(68.795 100.267)">
            <path id="Trazado_209021" data-name="Trazado 209021" d="M756.677,395.9l34.387-19.853L825.472,395.9l-34.407,19.872Z" transform="translate(-756.009 -375.379)" fill="#00defc" fill-rule="evenodd"/>
            <path id="Trazado_209022" data-name="Trazado 209022" d="M790.233,415.609a.668.668,0,0,1-.334-.09l-34.388-19.872a.668.668,0,0,1,0-1.157L789.9,374.637a.67.67,0,0,1,.668,0l34.407,19.853a.668.668,0,0,1,0,1.157l-34.407,19.872A.668.668,0,0,1,790.233,415.609Zm-33.051-20.54,33.051,19.1,33.07-19.1-33.07-19.082Z" transform="translate(-755.178 -374.548)"/>
          </g>
          <g id="Grupo_175709" data-name="Grupo 175709" transform="translate(34.408 19.853)">
            <path id="Trazado_209023" data-name="Trazado 209023" d="M713.882,215.409l-34.387-19.853v40.217l34.387,19.852Z" transform="translate(-678.826 -194.888)" fill="#00defc" fill-rule="evenodd"/>
            <path id="Trazado_209024" data-name="Trazado 209024" d="M713.051,255.463a.667.667,0,0,1-.334-.09l-34.388-19.852a.668.668,0,0,1-.334-.579V194.725a.668.668,0,0,1,1-.579L713.385,214a.669.669,0,0,1,.334.579v40.217a.668.668,0,0,1-.668.668Zm-33.719-20.907,33.051,19.081V214.963l-33.051-19.081Z" transform="translate(-677.995 -194.056)"/>
          </g>
          <g id="Grupo_175710" data-name="Grupo 175710" transform="translate(68.795 19.853)">
            <path id="Trazado_209025" data-name="Trazado 209025" d="M756.677,215.409l34.387-19.853v40.217l-34.387,19.852Z" transform="translate(-756.009 -194.888)" fill="#00defc" fill-rule="evenodd"/>
            <path id="Trazado_209026" data-name="Trazado 209026" d="M755.846,255.463a.668.668,0,0,1-.668-.668V214.577a.668.668,0,0,1,.334-.579L789.9,194.146a.668.668,0,0,1,1,.579v40.217a.668.668,0,0,1-.334.579L756.18,255.373A.668.668,0,0,1,755.846,255.463Zm.668-40.5v38.674l33.05-19.081V195.882Z" transform="translate(-755.178 -194.056)"/>
          </g>
          <g id="Grupo_175711" data-name="Grupo 175711" transform="translate(34.408 0)">
            <path id="Trazado_209027" data-name="Trazado 209027" d="M679.495,170.85,713.882,151,748.27,170.85,713.882,190.7Z" transform="translate(-678.826 -150.329)" fill="#dae4ef" fill-rule="evenodd"/>
            <path id="Trazado_209028" data-name="Trazado 209028" d="M713.051,190.539a.667.667,0,0,1-.334-.09L678.329,170.6a.668.668,0,0,1,0-1.158l34.388-19.852a.666.666,0,0,1,.668,0l34.387,19.852a.668.668,0,0,1,0,1.158L713.385,190.45A.669.669,0,0,1,713.051,190.539ZM680,170.018,713.051,189.1,746.1,170.018l-33.051-19.081Z" transform="translate(-677.995 -149.497)"/>
          </g>
          <g id="Grupo_175712" data-name="Grupo 175712" transform="translate(103.182 19.853)">
            <path id="Trazado_209029" data-name="Trazado 209029" d="M868.267,215.409,833.86,195.557v40.217l34.407,19.852Z" transform="translate(-833.192 -194.888)" fill="#00defc" fill-rule="evenodd"/>
            <path id="Trazado_209030" data-name="Trazado 209030" d="M867.435,255.463a.667.667,0,0,1-.334-.09l-34.407-19.852a.668.668,0,0,1-.335-.579V194.725a.669.669,0,0,1,1-.579L867.769,214a.669.669,0,0,1,.335.579v40.217a.668.668,0,0,1-.668.668ZM833.7,234.556l33.071,19.081V214.964L833.7,195.882Z" transform="translate(-832.36 -194.057)"/>
          </g>
          <g id="Grupo_175713" data-name="Grupo 175713" transform="translate(103.182 60.07)">
            <path id="Trazado_209031" data-name="Trazado 209031" d="M868.267,305.676,833.86,285.824v40.2l34.407,19.853Z" transform="translate(-833.192 -285.156)" fill="#00defc" fill-rule="evenodd"/>
            <path id="Trazado_209032" data-name="Trazado 209032" d="M867.435,345.71a.667.667,0,0,1-.334-.09l-34.407-19.853a.668.668,0,0,1-.335-.579v-40.2a.669.669,0,0,1,1-.579l34.407,19.853a.668.668,0,0,1,.335.579v40.2a.668.668,0,0,1-.668.668ZM833.7,324.8l33.071,19.081V305.231L833.7,286.149Z" transform="translate(-832.36 -284.324)"/>
          </g>
          <g id="Grupo_175714" data-name="Grupo 175714" transform="translate(68.795 60.069)">
            <path id="Trazado_209033" data-name="Trazado 209033" d="M756.677,305.676l34.387-19.853v40.2l-34.387,19.853Z" transform="translate(-756.009 -285.155)" fill="#00defc" fill-rule="evenodd"/>
            <path id="Trazado_209034" data-name="Trazado 209034" d="M755.846,345.71a.668.668,0,0,1-.668-.668v-40.2a.668.668,0,0,1,.334-.579L789.9,284.413a.668.668,0,0,1,1,.579v40.2a.668.668,0,0,1-.334.579L756.18,345.62A.669.669,0,0,1,755.846,345.71Zm.668-40.48v38.654l33.05-19.081V286.149Z" transform="translate(-755.178 -284.323)"/>
          </g>
          <g id="Grupo_175715" data-name="Grupo 175715" transform="translate(34.408 99.775)">
            <path id="Trazado_209035" data-name="Trazado 209035" d="M713.882,394.795l-34.387-19.853v40.217l34.387,19.853Z" transform="translate(-678.826 -374.274)" fill="#a6f4fe" fill-rule="evenodd"/>
            <path id="Trazado_209036" data-name="Trazado 209036" d="M713.051,434.849a.668.668,0,0,1-.334-.09l-34.388-19.852a.668.668,0,0,1-.334-.579V374.111a.668.668,0,0,1,1-.578l34.387,19.852a.669.669,0,0,1,.334.579v40.217a.669.669,0,0,1-.668.668Zm-33.719-20.907,33.051,19.081V394.349l-33.051-19.081Z" transform="translate(-677.995 -373.443)"/>
          </g>
          <g id="Grupo_175716" data-name="Grupo 175716" transform="translate(68.795 99.775)">
            <path id="Trazado_209037" data-name="Trazado 209037" d="M756.677,394.795l34.387-19.853v40.217l-34.387,19.853Z" transform="translate(-756.009 -374.274)" fill="#00b1c9" fill-rule="evenodd"/>
            <path id="Trazado_209038" data-name="Trazado 209038" d="M755.846,434.849a.67.67,0,0,1-.668-.668V393.963a.668.668,0,0,1,.334-.579L789.9,373.533a.668.668,0,0,1,1,.578v40.217a.668.668,0,0,1-.334.579L756.18,434.759A.67.67,0,0,1,755.846,434.849Zm.668-40.5v38.674l33.05-19.081V375.268Z" transform="translate(-755.178 -373.443)"/>
          </g>
          <g id="Grupo_175717" data-name="Grupo 175717" transform="translate(34.408 79.922)">
            <path id="Trazado_209039" data-name="Trazado 209039" d="M679.495,350.236l34.387-19.853,34.388,19.853-34.388,19.852Z" transform="translate(-678.826 -329.714)" fill="#00defc" fill-rule="evenodd"/>
            <path id="Trazado_209040" data-name="Trazado 209040" d="M713.051,369.924a.667.667,0,0,1-.334-.09l-34.388-19.852a.668.668,0,0,1,0-1.157l34.388-19.853a.666.666,0,0,1,.668,0l34.387,19.853a.668.668,0,0,1,0,1.157l-34.387,19.852A.669.669,0,0,1,713.051,369.924ZM680,349.4l33.051,19.081L746.1,349.4l-33.051-19.081Z" transform="translate(-677.995 -328.882)"/>
          </g>
          <g id="Grupo_175721" data-name="Grupo 175721" transform="translate(0.014 19.967)">
            <g id="Grupo_175718" data-name="Grupo 175718" transform="translate(0 19.852)">
              <path id="Trazado_209041" data-name="Trazado 209041" d="M636.685,260.224,602.3,240.372v40.217l34.387,19.853Z" transform="translate(-601.629 -239.704)" fill="#0f67b7" fill-rule="evenodd"/>
              <path id="Trazado_209042" data-name="Trazado 209042" d="M635.853,300.278a.668.668,0,0,1-.334-.09l-34.388-19.853a.669.669,0,0,1-.334-.579V239.54a.668.668,0,0,1,1-.579l34.388,19.852a.668.668,0,0,1,.334.579V299.61a.668.668,0,0,1-.668.668Zm-33.719-20.907,33.051,19.081V259.779L602.134,240.7Z" transform="translate(-600.797 -238.872)"/>
            </g>
            <g id="Grupo_175719" data-name="Grupo 175719" transform="translate(34.388 19.852)">
              <path id="Trazado_209043" data-name="Trazado 209043" d="M679.48,260.224l34.407-19.852v40.217L679.48,300.441Z" transform="translate(-678.812 -239.704)" fill="#00defc" fill-rule="evenodd"/>
              <path id="Trazado_209044" data-name="Trazado 209044" d="M678.648,300.278a.668.668,0,0,1-.668-.668V259.393a.668.668,0,0,1,.334-.579l34.408-19.852a.668.668,0,0,1,1,.579v40.217a.668.668,0,0,1-.334.579l-34.407,19.853A.668.668,0,0,1,678.648,300.278Zm.668-40.5v38.674l33.071-19.081V240.7Z" transform="translate(-677.98 -238.872)"/>
            </g>
            <g id="Grupo_175720" data-name="Grupo 175720" transform="translate(0 0)">
              <path id="Trazado_209045" data-name="Trazado 209045" d="M602.3,215.665l34.387-19.853,34.407,19.853-34.407,19.853Z" transform="translate(-601.629 -195.145)" fill="#dae4ef" fill-rule="evenodd"/>
              <path id="Trazado_209046" data-name="Trazado 209046" d="M635.853,235.355a.667.667,0,0,1-.334-.09l-34.388-19.853a.668.668,0,0,1,0-1.158L635.519,194.4a.668.668,0,0,1,.668,0l34.407,19.852a.668.668,0,0,1,0,1.158l-34.407,19.853A.667.667,0,0,1,635.853,235.355ZM602.8,214.834l33.051,19.081,33.07-19.081-33.07-19.081Z" transform="translate(-600.797 -194.313)"/>
            </g>
          </g>
          <g id="Grupo_175725" data-name="Grupo 175725" transform="translate(68.625 60.065)">
            <g id="Grupo_175722" data-name="Grupo 175722" transform="translate(0 19.853)">
              <path id="Trazado_209047" data-name="Trazado 209047" d="M790.685,350.224,756.3,330.372v40.217l34.387,19.853Z" transform="translate(-755.629 -329.704)" fill="#a6f4fe" fill-rule="evenodd"/>
              <path id="Trazado_209048" data-name="Trazado 209048" d="M789.853,390.278a.668.668,0,0,1-.334-.09l-34.388-19.852a.669.669,0,0,1-.334-.579V329.54a.668.668,0,0,1,1-.579l34.388,19.852a.668.668,0,0,1,.334.579V389.61a.669.669,0,0,1-.668.668Zm-33.719-20.907,33.051,19.081V349.779L756.133,330.7Z" transform="translate(-754.797 -328.872)"/>
            </g>
            <g id="Grupo_175723" data-name="Grupo 175723" transform="translate(34.388 19.853)">
              <path id="Trazado_209049" data-name="Trazado 209049" d="M833.48,350.224l34.407-19.853v40.217L833.48,390.441Z" transform="translate(-832.812 -329.704)" fill="#ffb30b" fill-rule="evenodd"/>
              <path id="Trazado_209050" data-name="Trazado 209050" d="M832.648,390.278a.668.668,0,0,1-.668-.668V349.393a.668.668,0,0,1,.334-.579l34.408-19.852a.668.668,0,0,1,1,.579v40.217a.668.668,0,0,1-.334.579l-34.407,19.852A.667.667,0,0,1,832.648,390.278Zm.668-40.5v38.674l33.071-19.081V330.7Z" transform="translate(-831.98 -328.872)"/>
            </g>
            <g id="Grupo_175724" data-name="Grupo 175724" transform="translate(0 0)">
              <path id="Trazado_209051" data-name="Trazado 209051" d="M756.3,305.665l34.387-19.853,34.407,19.853-34.407,19.853Z" transform="translate(-755.629 -285.145)" fill="#a6f4fe" fill-rule="evenodd"/>
              <path id="Trazado_209052" data-name="Trazado 209052" d="M789.853,325.355a.668.668,0,0,1-.334-.09l-34.388-19.853a.668.668,0,0,1,0-1.158L789.519,284.4a.668.668,0,0,1,.668,0l34.407,19.852a.668.668,0,0,1,0,1.158l-34.407,19.853A.668.668,0,0,1,789.853,325.355ZM756.8,304.834l33.051,19.081,33.07-19.081-33.07-19.081Z" transform="translate(-754.797 -284.313)"/>
            </g>
          </g>
          <g id="Grupo_175729" data-name="Grupo 175729" transform="translate(68.625 19.967)">
            <g id="Grupo_175726" data-name="Grupo 175726" transform="translate(0 19.852)">
              <path id="Trazado_209053" data-name="Trazado 209053" d="M790.685,260.224,756.3,240.372v40.217l34.387,19.853Z" transform="translate(-755.629 -239.704)" fill="#a6f4fe" fill-rule="evenodd"/>
              <path id="Trazado_209054" data-name="Trazado 209054" d="M789.853,300.278a.668.668,0,0,1-.334-.09l-34.388-19.853a.669.669,0,0,1-.334-.579V239.54a.668.668,0,0,1,1-.579l34.388,19.852a.668.668,0,0,1,.334.579V299.61a.668.668,0,0,1-.668.668Zm-33.719-20.907,33.051,19.081V259.779L756.133,240.7Z" transform="translate(-754.797 -238.872)"/>
            </g>
            <g id="Grupo_175727" data-name="Grupo 175727" transform="translate(34.388 19.852)">
              <path id="Trazado_209055" data-name="Trazado 209055" d="M833.48,260.224l34.407-19.852v40.217L833.48,300.441Z" transform="translate(-832.812 -239.704)" fill="#ffb30b" fill-rule="evenodd"/>
              <path id="Trazado_209056" data-name="Trazado 209056" d="M832.648,300.278a.668.668,0,0,1-.668-.668V259.393a.668.668,0,0,1,.334-.579l34.408-19.852a.668.668,0,0,1,1,.579v40.217a.668.668,0,0,1-.334.579l-34.407,19.853A.667.667,0,0,1,832.648,300.278Zm.668-40.5v38.674l33.071-19.081V240.7Z" transform="translate(-831.98 -238.872)"/>
            </g>
            <g id="Grupo_175728" data-name="Grupo 175728" transform="translate(0 0)">
              <path id="Trazado_209057" data-name="Trazado 209057" d="M756.3,215.665l34.387-19.853,34.407,19.853-34.407,19.853Z" transform="translate(-755.629 -195.145)" fill="#dae4ef" fill-rule="evenodd"/>
              <path id="Trazado_209058" data-name="Trazado 209058" d="M789.853,235.355a.668.668,0,0,1-.334-.09l-34.388-19.853a.668.668,0,0,1,0-1.158L789.519,194.4a.668.668,0,0,1,.668,0l34.407,19.852a.668.668,0,0,1,0,1.158l-34.407,19.853A.668.668,0,0,1,789.853,235.355ZM756.8,214.834l33.051,19.081,33.07-19.081-33.07-19.081Z" transform="translate(-754.797 -194.313)"/>
            </g>
          </g>
          <g id="Grupo_175733" data-name="Grupo 175733" transform="translate(34.319 80.114)">
            <g id="Grupo_175730" data-name="Grupo 175730" transform="translate(0 19.853)">
              <path id="Trazado_209059" data-name="Trazado 209059" d="M713.685,395.224,679.3,375.372v40.217l34.387,19.853Z" transform="translate(-678.629 -374.704)" fill="#0f67b7" fill-rule="evenodd"/>
              <path id="Trazado_209060" data-name="Trazado 209060" d="M712.853,435.278a.668.668,0,0,1-.334-.09l-34.387-19.853a.669.669,0,0,1-.334-.579V374.54a.668.668,0,0,1,1-.579l34.388,19.853a.668.668,0,0,1,.334.579V434.61a.668.668,0,0,1-.668.668Zm-33.719-20.907,33.051,19.081V394.779L679.133,375.7Z" transform="translate(-677.797 -373.872)"/>
            </g>
            <g id="Grupo_175731" data-name="Grupo 175731" transform="translate(34.388 19.853)">
              <path id="Trazado_209061" data-name="Trazado 209061" d="M756.48,395.224l34.407-19.853v40.217L756.48,435.441Z" transform="translate(-755.812 -374.704)" fill="#ffb30b" fill-rule="evenodd"/>
              <path id="Trazado_209062" data-name="Trazado 209062" d="M755.648,435.278a.668.668,0,0,1-.668-.668V394.393a.668.668,0,0,1,.334-.579l34.408-19.853a.668.668,0,0,1,1,.579v40.217a.668.668,0,0,1-.334.579l-34.407,19.853A.668.668,0,0,1,755.648,435.278Zm.668-40.5v38.674l33.071-19.081V375.7Z" transform="translate(-754.98 -373.872)"/>
            </g>
            <g id="Grupo_175732" data-name="Grupo 175732">
              <path id="Trazado_209063" data-name="Trazado 209063" d="M679.3,350.665l34.387-19.853,34.407,19.853-34.407,19.853Z" transform="translate(-678.629 -330.145)" fill="#a6f4fe" fill-rule="evenodd"/>
              <path id="Trazado_209064" data-name="Trazado 209064" d="M712.853,370.355a.668.668,0,0,1-.334-.09l-34.387-19.852a.668.668,0,0,1,0-1.158L712.519,329.4a.668.668,0,0,1,.668,0l34.407,19.852a.668.668,0,0,1,0,1.158l-34.407,19.852A.667.667,0,0,1,712.853,370.355ZM679.8,349.834l33.051,19.081,33.07-19.081-33.07-19.081Z" transform="translate(-677.797 -329.313)"/>
            </g>
          </g>
          <g id="Grupo_175737" data-name="Grupo 175737" transform="translate(34.319 40.016)">
            <g id="Grupo_175734" data-name="Grupo 175734" transform="translate(0 19.852)">
              <path id="Trazado_209065" data-name="Trazado 209065" d="M713.685,305.224,679.3,285.372v40.217l34.387,19.853Z" transform="translate(-678.629 -284.704)" fill="#0f67b7" fill-rule="evenodd"/>
              <path id="Trazado_209066" data-name="Trazado 209066" d="M712.853,345.278a.668.668,0,0,1-.334-.09l-34.387-19.853a.669.669,0,0,1-.334-.579V284.54a.668.668,0,0,1,1-.579l34.388,19.852a.668.668,0,0,1,.334.579V344.61a.668.668,0,0,1-.668.668Zm-33.719-20.907,33.051,19.081V304.779L679.133,285.7Z" transform="translate(-677.797 -283.872)"/>
            </g>
            <g id="Grupo_175735" data-name="Grupo 175735" transform="translate(34.388 19.852)">
              <path id="Trazado_209067" data-name="Trazado 209067" d="M756.48,305.224l34.407-19.853v40.217L756.48,345.441Z" transform="translate(-755.812 -284.704)" fill="#ffb30b" fill-rule="evenodd"/>
              <path id="Trazado_209068" data-name="Trazado 209068" d="M755.648,345.278a.668.668,0,0,1-.668-.668V304.393a.668.668,0,0,1,.334-.579l34.408-19.852a.668.668,0,0,1,1,.579v40.217a.668.668,0,0,1-.334.579l-34.407,19.853A.668.668,0,0,1,755.648,345.278Zm.668-40.5v38.674l33.071-19.081V285.7Z" transform="translate(-754.98 -283.872)"/>
            </g>
            <g id="Grupo_175736" data-name="Grupo 175736">
              <path id="Trazado_209069" data-name="Trazado 209069" d="M679.3,260.665l34.387-19.853,34.407,19.853-34.407,19.853Z" transform="translate(-678.629 -240.145)" fill="#dae4ef" fill-rule="evenodd"/>
              <path id="Trazado_209070" data-name="Trazado 209070" d="M712.853,280.355a.668.668,0,0,1-.334-.09l-34.387-19.852a.668.668,0,0,1,0-1.158L712.519,239.4a.668.668,0,0,1,.668,0l34.407,19.852a.668.668,0,0,1,0,1.158l-34.407,19.852A.668.668,0,0,1,712.853,280.355ZM679.8,259.834l33.051,19.081,33.07-19.081-33.07-19.081Z" transform="translate(-677.797 -239.313)"/>
            </g>
          </g>
        </g>
        <g id="Grupo_175770" data-name="Grupo 175770" transform="translate(-8720.919 -4653)">
          <g id="Grupo_175738" data-name="Grupo 175738" transform="translate(0 79.922)">
            <path id="Trazado_209071" data-name="Trazado 209071" d="M636.675,752.735l-34.407-19.852v40.2l34.407,19.872Z" transform="translate(-601.6 -732.214)" fill="#ffb30b" fill-rule="evenodd"/>
            <path id="Trazado_209072" data-name="Trazado 209072" d="M635.843,792.788a.668.668,0,0,1-.334-.089L601.1,772.827a.667.667,0,0,1-.334-.579v-40.2a.668.668,0,0,1,1-.579l34.407,19.853a.668.668,0,0,1,.335.579V792.12a.668.668,0,0,1-.668.668ZM602.1,771.862l33.07,19.1V752.289L602.1,733.208Z" transform="translate(-600.768 -731.382)"/>
          </g>
          <g id="Grupo_175739" data-name="Grupo 175739" transform="translate(0 60.07)">
            <path id="Trazado_209073" data-name="Trazado 209073" d="M602.268,708.176l34.407-19.853,34.387,19.853-34.387,19.852Z" transform="translate(-601.6 -687.655)" fill="#00defc" fill-rule="evenodd"/>
            <path id="Trazado_209074" data-name="Trazado 209074" d="M635.843,727.865a.668.668,0,0,1-.334-.09L601.1,707.922a.668.668,0,0,1,0-1.158l34.407-19.853a.669.669,0,0,1,.668,0l34.388,19.853a.668.668,0,0,1,0,1.158l-34.388,19.852A.668.668,0,0,1,635.843,727.865Zm-33.07-20.521,33.07,19.081,33.051-19.081-33.051-19.081Z" transform="translate(-600.768 -686.823)"/>
          </g>
          <g id="Grupo_175740" data-name="Grupo 175740" transform="translate(68.795 100.267)">
            <path id="Trazado_209075" data-name="Trazado 209075" d="M756.677,798.4l34.387-19.853L825.472,798.4l-34.407,19.872Z" transform="translate(-756.009 -777.878)" fill="#00defc" fill-rule="evenodd"/>
            <path id="Trazado_209076" data-name="Trazado 209076" d="M790.233,818.108a.668.668,0,0,1-.334-.089l-34.388-19.872a.668.668,0,0,1,0-1.157L789.9,777.136a.67.67,0,0,1,.668,0l34.407,19.853a.668.668,0,0,1,0,1.157l-34.407,19.872A.668.668,0,0,1,790.233,818.108Zm-33.051-20.54,33.051,19.1,33.07-19.1-33.07-19.082Z" transform="translate(-755.178 -777.047)"/>
          </g>
          <g id="Grupo_175741" data-name="Grupo 175741" transform="translate(34.408 19.853)">
            <path id="Trazado_209077" data-name="Trazado 209077" d="M713.882,617.908l-34.387-19.852v40.217l34.387,19.853Z" transform="translate(-678.826 -597.388)" fill="#00defc" fill-rule="evenodd"/>
            <path id="Trazado_209078" data-name="Trazado 209078" d="M713.051,657.962a.667.667,0,0,1-.334-.09L678.329,638.02a.668.668,0,0,1-.334-.579V597.224a.668.668,0,0,1,1-.579L713.385,616.5a.669.669,0,0,1,.334.579v40.217a.668.668,0,0,1-.668.668Zm-33.719-20.907,33.051,19.081V617.463l-33.051-19.081Z" transform="translate(-677.995 -596.556)"/>
          </g>
          <g id="Grupo_175742" data-name="Grupo 175742" transform="translate(68.795 19.853)">
            <path id="Trazado_209079" data-name="Trazado 209079" d="M756.677,617.908l34.387-19.852v40.217l-34.387,19.853Z" transform="translate(-756.009 -597.388)" fill="#00defc" fill-rule="evenodd"/>
            <path id="Trazado_209080" data-name="Trazado 209080" d="M755.846,657.962a.668.668,0,0,1-.668-.668V617.077a.668.668,0,0,1,.334-.579L789.9,596.646a.668.668,0,0,1,1,.579v40.217a.668.668,0,0,1-.334.579L756.18,657.872A.669.669,0,0,1,755.846,657.962Zm.668-40.5v38.674l33.05-19.081V598.382Z" transform="translate(-755.178 -596.556)"/>
          </g>
          <g id="Grupo_175743" data-name="Grupo 175743" transform="translate(34.408)">
            <path id="Trazado_209081" data-name="Trazado 209081" d="M679.495,573.349,713.882,553.5l34.388,19.853L713.882,593.2Z" transform="translate(-678.826 -552.828)" fill="#ff01ff" fill-rule="evenodd"/>
            <path id="Trazado_209082" data-name="Trazado 209082" d="M713.051,593.038a.666.666,0,0,1-.334-.09L678.329,573.1a.668.668,0,0,1,0-1.158l34.388-19.852a.666.666,0,0,1,.668,0l34.387,19.852a.668.668,0,0,1,0,1.158l-34.387,19.852A.668.668,0,0,1,713.051,593.038ZM680,572.517,713.051,591.6,746.1,572.517l-33.051-19.081Z" transform="translate(-677.995 -551.996)"/>
          </g>
          <g id="Grupo_175744" data-name="Grupo 175744" transform="translate(103.182 19.853)">
            <path id="Trazado_209083" data-name="Trazado 209083" d="M868.267,617.908,833.86,598.056v40.217l34.407,19.853Z" transform="translate(-833.192 -597.388)" fill="#00defc" fill-rule="evenodd"/>
            <path id="Trazado_209084" data-name="Trazado 209084" d="M867.435,657.962a.668.668,0,0,1-.334-.09L832.694,638.02a.668.668,0,0,1-.335-.579V597.224a.668.668,0,0,1,1-.579L867.769,616.5a.668.668,0,0,1,.335.579v40.217a.668.668,0,0,1-.668.668ZM833.7,637.055l33.071,19.081V617.463L833.7,598.381Z" transform="translate(-832.36 -596.556)"/>
          </g>
          <g id="Grupo_175745" data-name="Grupo 175745" transform="translate(103.182 60.07)">
            <path id="Trazado_209085" data-name="Trazado 209085" d="M868.267,708.176,833.86,688.323v40.2l34.407,19.853Z" transform="translate(-833.192 -687.655)" fill="#00defc" fill-rule="evenodd"/>
            <path id="Trazado_209086" data-name="Trazado 209086" d="M867.435,748.21a.672.672,0,0,1-.334-.09l-34.407-19.853a.668.668,0,0,1-.335-.579v-40.2a.668.668,0,0,1,1-.579l34.407,19.853a.668.668,0,0,1,.335.579v40.2a.668.668,0,0,1-.668.668ZM833.7,727.3l33.071,19.081V707.73L833.7,688.649Z" transform="translate(-832.36 -686.823)"/>
          </g>
          <g id="Grupo_175746" data-name="Grupo 175746" transform="translate(68.795 60.07)">
            <path id="Trazado_209087" data-name="Trazado 209087" d="M756.677,708.176l34.387-19.853v40.2l-34.387,19.853Z" transform="translate(-756.009 -687.655)" fill="#00defc" fill-rule="evenodd"/>
            <path id="Trazado_209088" data-name="Trazado 209088" d="M755.846,748.21a.669.669,0,0,1-.668-.668v-40.2a.668.668,0,0,1,.334-.579L789.9,686.912a.668.668,0,0,1,1,.579v40.2a.669.669,0,0,1-.334.579L756.18,748.12A.673.673,0,0,1,755.846,748.21Zm.668-40.48v38.654l33.05-19.081V688.649Z" transform="translate(-755.178 -686.823)"/>
          </g>
          <g id="Grupo_175747" data-name="Grupo 175747" transform="translate(34.408 99.775)">
            <path id="Trazado_209089" data-name="Trazado 209089" d="M713.882,797.294l-34.387-19.853v40.217l34.387,19.852Z" transform="translate(-678.826 -776.773)" fill="#a6f4fe" fill-rule="evenodd"/>
            <path id="Trazado_209090" data-name="Trazado 209090" d="M713.051,837.348a.672.672,0,0,1-.334-.09l-34.388-19.853a.668.668,0,0,1-.334-.579V776.61a.668.668,0,0,1,1-.579l34.387,19.852a.669.669,0,0,1,.334.579V836.68a.668.668,0,0,1-.668.668Zm-33.719-20.907,33.051,19.081V796.848l-33.051-19.081Z" transform="translate(-677.995 -775.942)"/>
          </g>
          <g id="Grupo_175748" data-name="Grupo 175748" transform="translate(68.795 99.775)">
            <path id="Trazado_209091" data-name="Trazado 209091" d="M756.677,797.294l34.387-19.853v40.217l-34.387,19.852Z" transform="translate(-756.009 -776.773)" fill="#00b1c9" fill-rule="evenodd"/>
            <path id="Trazado_209092" data-name="Trazado 209092" d="M755.846,837.348a.668.668,0,0,1-.668-.668V796.462a.668.668,0,0,1,.334-.579L789.9,776.032a.668.668,0,0,1,1,.579v40.217a.668.668,0,0,1-.334.579L756.18,837.258A.674.674,0,0,1,755.846,837.348Zm.668-40.5v38.674l33.05-19.081V777.767Z" transform="translate(-755.178 -775.942)"/>
          </g>
          <g id="Grupo_175749" data-name="Grupo 175749" transform="translate(34.408 79.922)">
            <path id="Trazado_209093" data-name="Trazado 209093" d="M679.495,752.735l34.387-19.852,34.388,19.852-34.388,19.853Z" transform="translate(-678.826 -732.214)" fill="#00defc" fill-rule="evenodd"/>
            <path id="Trazado_209094" data-name="Trazado 209094" d="M713.051,772.424a.667.667,0,0,1-.334-.09l-34.388-19.852a.668.668,0,0,1,0-1.157l34.388-19.853a.668.668,0,0,1,.668,0l34.387,19.853a.668.668,0,0,1,0,1.157l-34.387,19.852A.669.669,0,0,1,713.051,772.424ZM680,751.9l33.051,19.08L746.1,751.9l-33.051-19.081Z" transform="translate(-677.995 -731.382)"/>
          </g>
          <g id="Grupo_175753" data-name="Grupo 175753" transform="translate(0.014 19.967)">
            <g id="Grupo_175750" data-name="Grupo 175750" transform="translate(0 19.853)">
              <path id="Trazado_209095" data-name="Trazado 209095" d="M636.685,662.723,602.3,642.871v40.217l34.387,19.853Z" transform="translate(-601.629 -642.203)" fill="#ffb30b" fill-rule="evenodd"/>
              <path id="Trazado_209096" data-name="Trazado 209096" d="M635.853,702.777a.667.667,0,0,1-.334-.09l-34.388-19.852a.669.669,0,0,1-.334-.579V642.039a.668.668,0,0,1,1-.579l34.388,19.853a.668.668,0,0,1,.334.579v40.217a.668.668,0,0,1-.668.668ZM602.134,681.87l33.051,19.081V662.278L602.134,643.2Z" transform="translate(-600.797 -641.371)"/>
            </g>
            <g id="Grupo_175751" data-name="Grupo 175751" transform="translate(34.388 19.853)">
              <path id="Trazado_209097" data-name="Trazado 209097" d="M679.48,662.723l34.407-19.853v40.217L679.48,702.941Z" transform="translate(-678.812 -642.203)" fill="#00defc" fill-rule="evenodd"/>
              <path id="Trazado_209098" data-name="Trazado 209098" d="M678.648,702.777a.668.668,0,0,1-.668-.668V661.892a.668.668,0,0,1,.334-.579l34.408-19.853a.668.668,0,0,1,1,.579v40.217a.669.669,0,0,1-.334.579l-34.407,19.852A.672.672,0,0,1,678.648,702.777Zm.668-40.5v38.674l33.071-19.081V643.2Z" transform="translate(-677.98 -641.371)"/>
            </g>
            <g id="Grupo_175752" data-name="Grupo 175752">
              <path id="Trazado_209099" data-name="Trazado 209099" d="M602.3,618.164l34.387-19.852,34.407,19.852-34.407,19.853Z" transform="translate(-601.629 -597.644)" fill="#ff01ff" fill-rule="evenodd"/>
              <path id="Trazado_209100" data-name="Trazado 209100" d="M635.853,637.854a.667.667,0,0,1-.334-.09l-34.388-19.852a.668.668,0,0,1,0-1.158L635.519,596.9a.668.668,0,0,1,.668,0l34.407,19.852a.669.669,0,0,1,0,1.158l-34.407,19.853A.671.671,0,0,1,635.853,637.854ZM602.8,617.333l33.051,19.081,33.07-19.081-33.07-19.081Z" transform="translate(-600.797 -596.812)"/>
            </g>
          </g>
          <g id="Grupo_175757" data-name="Grupo 175757" transform="translate(68.625 60.065)">
            <g id="Grupo_175754" data-name="Grupo 175754" transform="translate(0 19.853)">
              <path id="Trazado_209101" data-name="Trazado 209101" d="M790.685,752.724,756.3,732.871v40.217l34.387,19.853Z" transform="translate(-755.629 -732.203)" fill="#a6f4fe" fill-rule="evenodd"/>
              <path id="Trazado_209102" data-name="Trazado 209102" d="M789.853,792.777a.667.667,0,0,1-.334-.09l-34.388-19.852a.669.669,0,0,1-.334-.579V732.039a.668.668,0,0,1,1-.579l34.388,19.852a.668.668,0,0,1,.334.579v40.217a.668.668,0,0,1-.668.668ZM756.133,771.87l33.051,19.081V752.278L756.133,733.2Z" transform="translate(-754.797 -731.371)"/>
            </g>
            <g id="Grupo_175755" data-name="Grupo 175755" transform="translate(34.388 19.853)">
              <path id="Trazado_209103" data-name="Trazado 209103" d="M833.48,752.724l34.407-19.853v40.217L833.48,792.941Z" transform="translate(-832.812 -732.203)" fill="#008597" fill-rule="evenodd"/>
              <path id="Trazado_209104" data-name="Trazado 209104" d="M832.648,792.777a.668.668,0,0,1-.668-.668V751.892a.668.668,0,0,1,.334-.579l34.408-19.852a.668.668,0,0,1,1,.579v40.217a.669.669,0,0,1-.334.579l-34.407,19.853A.671.671,0,0,1,832.648,792.777Zm.668-40.5v38.674l33.071-19.081V733.2Z" transform="translate(-831.98 -731.371)"/>
            </g>
            <g id="Grupo_175756" data-name="Grupo 175756" transform="translate(0 0)">
              <path id="Trazado_209105" data-name="Trazado 209105" d="M756.3,708.164l34.387-19.852,34.407,19.852-34.407,19.853Z" transform="translate(-755.629 -687.644)" fill="#a6f4fe" fill-rule="evenodd"/>
              <path id="Trazado_209106" data-name="Trazado 209106" d="M789.853,727.854a.668.668,0,0,1-.334-.089l-34.388-19.853a.668.668,0,0,1,0-1.157L789.519,686.9a.668.668,0,0,1,.668,0l34.407,19.853a.669.669,0,0,1,0,1.158l-34.407,19.853A.672.672,0,0,1,789.853,727.854ZM756.8,707.333l33.051,19.081,33.07-19.081-33.07-19.081Z" transform="translate(-754.797 -686.812)"/>
            </g>
          </g>
          <g id="Grupo_175761" data-name="Grupo 175761" transform="translate(68.625 19.967)">
            <g id="Grupo_175758" data-name="Grupo 175758" transform="translate(0 19.853)">
              <path id="Trazado_209107" data-name="Trazado 209107" d="M790.685,662.723,756.3,642.871v40.217l34.387,19.853Z" transform="translate(-755.629 -642.203)" fill="#a6f4fe" fill-rule="evenodd"/>
              <path id="Trazado_209108" data-name="Trazado 209108" d="M789.853,702.777a.667.667,0,0,1-.334-.09l-34.388-19.852a.669.669,0,0,1-.334-.579V642.039a.668.668,0,0,1,1-.579l34.388,19.853a.668.668,0,0,1,.334.579v40.217a.668.668,0,0,1-.668.668ZM756.133,681.87l33.051,19.081V662.278L756.133,643.2Z" transform="translate(-754.797 -641.371)"/>
            </g>
            <g id="Grupo_175759" data-name="Grupo 175759" transform="translate(34.388 19.853)">
              <path id="Trazado_209109" data-name="Trazado 209109" d="M833.48,662.723l34.407-19.853v40.217L833.48,702.941Z" transform="translate(-832.812 -642.203)" fill="#008597" fill-rule="evenodd"/>
              <path id="Trazado_209110" data-name="Trazado 209110" d="M832.648,702.777a.668.668,0,0,1-.668-.668V661.892a.668.668,0,0,1,.334-.579l34.408-19.853a.668.668,0,0,1,1,.579v40.217a.669.669,0,0,1-.334.579l-34.407,19.852A.671.671,0,0,1,832.648,702.777Zm.668-40.5v38.674l33.071-19.081V643.2Z" transform="translate(-831.98 -641.371)"/>
            </g>
            <g id="Grupo_175760" data-name="Grupo 175760">
              <path id="Trazado_209111" data-name="Trazado 209111" d="M756.3,618.164l34.387-19.852,34.407,19.852-34.407,19.853Z" transform="translate(-755.629 -597.644)" fill="#ff01ff" fill-rule="evenodd"/>
              <path id="Trazado_209112" data-name="Trazado 209112" d="M789.853,637.854a.667.667,0,0,1-.334-.09l-34.388-19.852a.668.668,0,0,1,0-1.158L789.519,596.9a.668.668,0,0,1,.668,0l34.407,19.852a.669.669,0,0,1,0,1.158l-34.407,19.853A.672.672,0,0,1,789.853,637.854ZM756.8,617.333l33.051,19.081,33.07-19.081-33.07-19.081Z" transform="translate(-754.797 -596.812)"/>
            </g>
          </g>
          <g id="Grupo_175765" data-name="Grupo 175765" transform="translate(34.319 80.114)">
            <g id="Grupo_175762" data-name="Grupo 175762" transform="translate(0 19.853)">
              <path id="Trazado_209113" data-name="Trazado 209113" d="M713.685,797.723,679.3,777.871v40.217l34.387,19.853Z" transform="translate(-678.629 -777.203)" fill="#ffb30b" fill-rule="evenodd"/>
              <path id="Trazado_209114" data-name="Trazado 209114" d="M712.853,837.777a.667.667,0,0,1-.334-.09l-34.387-19.852a.669.669,0,0,1-.334-.579V777.039a.668.668,0,0,1,1-.579l34.388,19.852a.669.669,0,0,1,.334.579v40.217a.668.668,0,0,1-.668.668ZM679.133,816.87l33.051,19.081V797.278L679.133,778.2Z" transform="translate(-677.797 -776.371)"/>
            </g>
            <g id="Grupo_175763" data-name="Grupo 175763" transform="translate(34.388 19.853)">
              <path id="Trazado_209115" data-name="Trazado 209115" d="M756.48,797.723l34.407-19.852v40.217L756.48,837.941Z" transform="translate(-755.812 -777.203)" fill="#008597" fill-rule="evenodd"/>
              <path id="Trazado_209116" data-name="Trazado 209116" d="M755.648,837.777a.668.668,0,0,1-.668-.668V796.892a.668.668,0,0,1,.334-.579l34.408-19.852a.668.668,0,0,1,1,.579v40.217a.669.669,0,0,1-.334.579l-34.407,19.853A.673.673,0,0,1,755.648,837.777Zm.668-40.5v38.674l33.071-19.081V778.2Z" transform="translate(-754.98 -776.371)"/>
            </g>
            <g id="Grupo_175764" data-name="Grupo 175764" transform="translate(0 0)">
              <path id="Trazado_209117" data-name="Trazado 209117" d="M679.3,753.164l34.387-19.853,34.407,19.853-34.407,19.852Z" transform="translate(-678.629 -732.644)" fill="#a6f4fe" fill-rule="evenodd"/>
              <path id="Trazado_209118" data-name="Trazado 209118" d="M712.853,772.854a.667.667,0,0,1-.334-.09l-34.387-19.852a.668.668,0,0,1,0-1.157L712.519,731.9a.668.668,0,0,1,.668,0l34.407,19.853a.669.669,0,0,1,0,1.158l-34.407,19.853A.672.672,0,0,1,712.853,772.854ZM679.8,752.333l33.051,19.081,33.07-19.081-33.07-19.081Z" transform="translate(-677.797 -731.812)"/>
            </g>
          </g>
          <g id="Grupo_175769" data-name="Grupo 175769" transform="translate(34.319 40.016)">
            <g id="Grupo_175766" data-name="Grupo 175766" transform="translate(0 19.853)">
              <path id="Trazado_209119" data-name="Trazado 209119" d="M713.685,707.724,679.3,687.871v40.217l34.387,19.853Z" transform="translate(-678.629 -687.203)" fill="#ffb30b" fill-rule="evenodd"/>
              <path id="Trazado_209120" data-name="Trazado 209120" d="M712.853,747.777a.667.667,0,0,1-.334-.09l-34.387-19.852a.669.669,0,0,1-.334-.579V687.039a.668.668,0,0,1,1-.579l34.388,19.852a.668.668,0,0,1,.334.579v40.217a.668.668,0,0,1-.668.668ZM679.133,726.87l33.051,19.081V707.278L679.133,688.2Z" transform="translate(-677.797 -686.371)"/>
            </g>
            <g id="Grupo_175767" data-name="Grupo 175767" transform="translate(34.388 19.853)">
              <path id="Trazado_209121" data-name="Trazado 209121" d="M756.48,707.724l34.407-19.853v40.217L756.48,747.941Z" transform="translate(-755.812 -687.203)" fill="#008597" fill-rule="evenodd"/>
              <path id="Trazado_209122" data-name="Trazado 209122" d="M755.648,747.777a.668.668,0,0,1-.668-.668V706.892a.668.668,0,0,1,.334-.579l34.408-19.852a.668.668,0,0,1,1,.579v40.217a.669.669,0,0,1-.334.579l-34.407,19.853A.672.672,0,0,1,755.648,747.777Zm.668-40.5v38.674l33.071-19.081V688.2Z" transform="translate(-754.98 -686.371)"/>
            </g>
            <g id="Grupo_175768" data-name="Grupo 175768" transform="translate(0 0)">
              <path id="Trazado_209123" data-name="Trazado 209123" d="M679.3,663.164l34.387-19.852,34.407,19.852-34.407,19.852Z" transform="translate(-678.629 -642.644)" fill="#ff01ff" fill-rule="evenodd"/>
              <path id="Trazado_209124" data-name="Trazado 209124" d="M712.853,682.854a.668.668,0,0,1-.334-.089l-34.387-19.853a.668.668,0,0,1,0-1.157L712.519,641.9a.668.668,0,0,1,.668,0l34.407,19.853a.669.669,0,0,1,0,1.158l-34.407,19.853A.672.672,0,0,1,712.853,682.854ZM679.8,662.333l33.051,19.081,33.07-19.081-33.07-19.081Z" transform="translate(-677.797 -641.812)"/>
            </g>
          </g>
        </g>
      </g>
    </g>
  </g>
</svg>
