<svg xmlns="http://www.w3.org/2000/svg" width="400" height="260" viewBox="0 0 400 260">
  <g id="Grupo_176830" data-name="Grupo 176830" transform="translate(11713 7906)">
    <g id="Grupo_176766" data-name="Grupo 176766">
      <rect id="Rectángulo_298443" data-name="Rectángulo 298443" width="400" height="260" transform="translate(-11713 -7906)" fill="none"/>
      <g id="Grupo_175037" data-name="Grupo 175037" transform="translate(17.298 -285.916)">
        <g id="Grupo_175036" data-name="Grupo 175036" transform="translate(-11719.899 -7614.592)">
          <path id="Trazado_212693" data-name="Trazado 212693" d="M-20.966,1.4v-7.73h2.378a3.612,3.612,0,0,1,1.824.459A3.2,3.2,0,0,1-15.509-4.56a4.028,4.028,0,0,1,.451,1.924v.356A4.039,4.039,0,0,1-15.5-.364a3.175,3.175,0,0,1-1.25,1.3,3.639,3.639,0,0,1-1.821.467Zm1.593-6.44V.125h.77a1.73,1.73,0,0,0,1.428-.611,2.759,2.759,0,0,0,.5-1.747v-.409a2.8,2.8,0,0,0-.488-1.786,1.724,1.724,0,0,0-1.428-.608Zm6.992,6.44h-1.54V-4.34h1.54Zm-1.63-7.231a.756.756,0,0,1,.231-.568.868.868,0,0,1,.629-.223.87.87,0,0,1,.626.223.751.751,0,0,1,.234.568.753.753,0,0,1-.236.573.872.872,0,0,1-.624.223.872.872,0,0,1-.624-.223A.753.753,0,0,1-14.012-5.826ZM-9.68-4.34l.048.642a2.019,2.019,0,0,1,1.651-.749,1.532,1.532,0,0,1,1.524.876,1.972,1.972,0,0,1,1.725-.876A1.713,1.713,0,0,1-3.341-3.9a2.5,2.5,0,0,1,.457,1.638V1.4h-1.54V-2.259a1.094,1.094,0,0,0-.191-.714A.847.847,0,0,0-5.289-3.2a.958.958,0,0,0-.956.658L-6.24,1.4H-7.774V-2.253a1.08,1.08,0,0,0-.2-.722A.855.855,0,0,0-8.639-3.2a.994.994,0,0,0-.945.541V1.4h-1.534V-4.34ZM.938,1.511A2.82,2.82,0,0,1-1.119.735,2.755,2.755,0,0,1-1.913-1.33v-.149a3.47,3.47,0,0,1,.334-1.548A2.455,2.455,0,0,1-.631-4.077a2.66,2.66,0,0,1,1.4-.369A2.384,2.384,0,0,1,2.623-3.7,3.02,3.02,0,0,1,3.3-1.6v.626H-.358a1.425,1.425,0,0,0,.449.9,1.356,1.356,0,0,0,.948.34A1.656,1.656,0,0,0,2.424-.369l.754.844a2.3,2.3,0,0,1-.934.762A3.065,3.065,0,0,1,.938,1.511ZM.763-3.209A.959.959,0,0,0,.022-2.9a1.6,1.6,0,0,0-.364.885H1.793v-.123a1.142,1.142,0,0,0-.276-.792A.989.989,0,0,0,.763-3.209ZM5.583-4.34l.048.664a2.005,2.005,0,0,1,1.651-.77,1.667,1.667,0,0,1,1.359.536,2.5,2.5,0,0,1,.457,1.6V1.4H7.563V-2.269a1,1,0,0,0-.212-.709.951.951,0,0,0-.706-.22,1.055,1.055,0,0,0-.972.552V1.4H4.139V-4.34ZM13.371-.183a.494.494,0,0,0-.279-.443A3.166,3.166,0,0,0,12.2-.916q-2.049-.43-2.049-1.741a1.578,1.578,0,0,1,.634-1.277,2.559,2.559,0,0,1,1.659-.512,2.754,2.754,0,0,1,1.749.515,1.623,1.623,0,0,1,.656,1.338H13.313a.742.742,0,0,0-.212-.544.9.9,0,0,0-.664-.215.918.918,0,0,0-.6.175.553.553,0,0,0-.212.446.473.473,0,0,0,.242.411,2.485,2.485,0,0,0,.815.271,6.656,6.656,0,0,1,.966.257A1.587,1.587,0,0,1,14.863-.247a1.5,1.5,0,0,1-.674,1.271,2.908,2.908,0,0,1-1.741.486,3.038,3.038,0,0,1-1.282-.257,2.151,2.151,0,0,1-.879-.706,1.641,1.641,0,0,1-.319-.969h1.455a.8.8,0,0,0,.3.626,1.2,1.2,0,0,0,.754.218,1.111,1.111,0,0,0,.666-.167A.52.52,0,0,0,13.371-.183Zm4.1,1.587H15.93V-4.34h1.54ZM15.84-5.826a.756.756,0,0,1,.231-.568.868.868,0,0,1,.629-.223.87.87,0,0,1,.626.223.751.751,0,0,1,.234.568.753.753,0,0,1-.236.573.872.872,0,0,1-.624.223.872.872,0,0,1-.624-.223A.753.753,0,0,1,15.84-5.826Zm2.654,4.305a3.407,3.407,0,0,1,.329-1.524,2.41,2.41,0,0,1,.948-1.035,2.765,2.765,0,0,1,1.436-.366,2.616,2.616,0,0,1,1.9.711,2.855,2.855,0,0,1,.82,1.932l.011.393A3,3,0,0,1,23.2.712a2.565,2.565,0,0,1-1.98.8,2.578,2.578,0,0,1-1.983-.8,3.055,3.055,0,0,1-.741-2.166Zm1.534.109A2.147,2.147,0,0,0,20.336-.16a1.016,1.016,0,0,0,.881.433,1.018,1.018,0,0,0,.871-.428A2.349,2.349,0,0,0,22.4-1.524a2.126,2.126,0,0,0-.313-1.244,1.018,1.018,0,0,0-.881-.441,1,1,0,0,0-.871.439A2.389,2.389,0,0,0,20.028-1.412ZM21.509-6.75h1.672L21.711-5.1H20.464Zm4.783,2.41.048.664a2.005,2.005,0,0,1,1.651-.77,1.667,1.667,0,0,1,1.359.536,2.5,2.5,0,0,1,.457,1.6V1.4H28.273V-2.269a1,1,0,0,0-.212-.709.951.951,0,0,0-.706-.22,1.055,1.055,0,0,0-.972.552V1.4H24.849V-4.34ZM-7.713,8.253h-2.368v6.44h-1.593V8.253h-2.336V6.963h6.3Zm2.426,6.44h-1.54V8.949h1.54Zm-1.63-7.231a.756.756,0,0,1,.231-.568.868.868,0,0,1,.629-.223.87.87,0,0,1,.626.223.751.751,0,0,1,.234.568.753.753,0,0,1-.236.573.872.872,0,0,1-.624.223.872.872,0,0,1-.624-.223A.753.753,0,0,1-6.917,7.462ZM-1.379,14.8a2.82,2.82,0,0,1-2.057-.775,2.755,2.755,0,0,1-.794-2.065V11.81A3.47,3.47,0,0,1-3.9,10.263a2.455,2.455,0,0,1,.948-1.051,2.66,2.66,0,0,1,1.4-.369,2.384,2.384,0,0,1,1.855.743,3.02,3.02,0,0,1,.677,2.108v.626H-2.675a1.425,1.425,0,0,0,.449.9,1.356,1.356,0,0,0,.948.34A1.656,1.656,0,0,0,.107,12.92l.754.844a2.3,2.3,0,0,1-.934.762A3.065,3.065,0,0,1-1.379,14.8Zm-.175-4.72a.959.959,0,0,0-.741.309,1.6,1.6,0,0,0-.364.885H-.525v-.123A1.142,1.142,0,0,0-.8,10.359.989.989,0,0,0-1.555,10.08ZM3.292,8.949l.048.642a2.019,2.019,0,0,1,1.651-.749,1.532,1.532,0,0,1,1.524.876A1.972,1.972,0,0,1,8.24,8.843a1.713,1.713,0,0,1,1.391.544,2.5,2.5,0,0,1,.457,1.638v3.668H8.548V11.03a1.094,1.094,0,0,0-.191-.714.847.847,0,0,0-.674-.226.958.958,0,0,0-.956.658l.005,3.944H5.2V11.035a1.08,1.08,0,0,0-.2-.722.855.855,0,0,0-.669-.223.994.994,0,0,0-.945.541v4.061H1.854V8.949Zm13.145,2.925a3.445,3.445,0,0,1-.6,2.126,1.932,1.932,0,0,1-1.627.8,1.79,1.79,0,0,1-1.407-.605V16.9H11.266V8.949h1.423l.053.563A1.8,1.8,0,0,1,14.2,8.843a1.945,1.945,0,0,1,1.651.786,3.538,3.538,0,0,1,.589,2.166ZM14.9,11.762a2.261,2.261,0,0,0-.284-1.237.925.925,0,0,0-.826-.435,1,1,0,0,0-.993.552v2.352a1.022,1.022,0,0,0,1,.568Q14.9,13.562,14.9,11.762Zm2.246.005a3.407,3.407,0,0,1,.329-1.524,2.41,2.41,0,0,1,.948-1.035,2.765,2.765,0,0,1,1.436-.366,2.616,2.616,0,0,1,1.9.711,2.855,2.855,0,0,1,.82,1.932l.011.393A3,3,0,0,1,21.852,14a2.565,2.565,0,0,1-1.98.8,2.578,2.578,0,0,1-1.983-.8,3.055,3.055,0,0,1-.741-2.166Zm1.534.109a2.147,2.147,0,0,0,.308,1.252,1.106,1.106,0,0,0,1.752.005,2.349,2.349,0,0,0,.313-1.369,2.126,2.126,0,0,0-.313-1.244,1.018,1.018,0,0,0-.881-.441,1,1,0,0,0-.871.439A2.389,2.389,0,0,0,18.683,11.877Z" transform="translate(186.453 20.71)"/>
          <path id="Trazado_208024" data-name="Trazado 208024" d="M911.075,374.763H824.568l-26.68-61.848L770.8,375.572H682.277l72.762,39.211-23.446,66.7,66.3-40.019,70.337,40.019-24.659-63.465Zm-55.5,91.812-57.9-32.942L743.1,466.575l19.3-54.9L703.17,381.5H776.04l21.634-53.678L820.3,380.835H891.5l-56.228,33.5Z" transform="translate(-605.876 -262.79)" fill="#a7c7e3"/>
          <g id="Grupo_175029" data-name="Grupo 175029" transform="translate(155.328 0)">
            <rect id="Rectángulo_298019" data-name="Rectángulo 298019" width="76.401" height="50.125" fill="none" stroke="#084a93" stroke-miterlimit="10" stroke-width="1"/>
            <line id="Línea_416" data-name="Línea 416" x2="76.401" transform="translate(0 9.929)" fill="none" stroke="#084a93" stroke-miterlimit="10" stroke-width="1"/>
          </g>
          <g id="Grupo_175031" data-name="Grupo 175031" transform="translate(157.614 120.566)">
            <path id="Trazado_212694" data-name="Trazado 212694" d="M-20.966,1.4v-7.73h2.378a3.612,3.612,0,0,1,1.824.459A3.2,3.2,0,0,1-15.509-4.56a4.028,4.028,0,0,1,.451,1.924v.356A4.039,4.039,0,0,1-15.5-.364a3.175,3.175,0,0,1-1.25,1.3,3.639,3.639,0,0,1-1.821.467Zm1.593-6.44V.125h.77a1.73,1.73,0,0,0,1.428-.611,2.759,2.759,0,0,0,.5-1.747v-.409a2.8,2.8,0,0,0-.488-1.786,1.724,1.724,0,0,0-1.428-.608Zm6.992,6.44h-1.54V-4.34h1.54Zm-1.63-7.231a.756.756,0,0,1,.231-.568.868.868,0,0,1,.629-.223.87.87,0,0,1,.626.223.751.751,0,0,1,.234.568.753.753,0,0,1-.236.573.872.872,0,0,1-.624.223.872.872,0,0,1-.624-.223A.753.753,0,0,1-14.012-5.826ZM-9.68-4.34l.048.642a2.019,2.019,0,0,1,1.651-.749,1.532,1.532,0,0,1,1.524.876,1.972,1.972,0,0,1,1.725-.876A1.713,1.713,0,0,1-3.341-3.9a2.5,2.5,0,0,1,.457,1.638V1.4h-1.54V-2.259a1.094,1.094,0,0,0-.191-.714A.847.847,0,0,0-5.289-3.2a.958.958,0,0,0-.956.658L-6.24,1.4H-7.774V-2.253a1.08,1.08,0,0,0-.2-.722A.855.855,0,0,0-8.639-3.2a.994.994,0,0,0-.945.541V1.4h-1.534V-4.34ZM.938,1.511A2.82,2.82,0,0,1-1.119.735,2.755,2.755,0,0,1-1.913-1.33v-.149a3.47,3.47,0,0,1,.334-1.548A2.455,2.455,0,0,1-.631-4.077a2.66,2.66,0,0,1,1.4-.369A2.384,2.384,0,0,1,2.623-3.7,3.02,3.02,0,0,1,3.3-1.6v.626H-.358a1.425,1.425,0,0,0,.449.9,1.356,1.356,0,0,0,.948.34A1.656,1.656,0,0,0,2.424-.369l.754.844a2.3,2.3,0,0,1-.934.762A3.065,3.065,0,0,1,.938,1.511ZM.763-3.209A.959.959,0,0,0,.022-2.9a1.6,1.6,0,0,0-.364.885H1.793v-.123a1.142,1.142,0,0,0-.276-.792A.989.989,0,0,0,.763-3.209ZM5.583-4.34l.048.664a2.005,2.005,0,0,1,1.651-.77,1.667,1.667,0,0,1,1.359.536,2.5,2.5,0,0,1,.457,1.6V1.4H7.563V-2.269a1,1,0,0,0-.212-.709.951.951,0,0,0-.706-.22,1.055,1.055,0,0,0-.972.552V1.4H4.139V-4.34ZM13.371-.183a.494.494,0,0,0-.279-.443A3.166,3.166,0,0,0,12.2-.916q-2.049-.43-2.049-1.741a1.578,1.578,0,0,1,.634-1.277,2.559,2.559,0,0,1,1.659-.512,2.754,2.754,0,0,1,1.749.515,1.623,1.623,0,0,1,.656,1.338H13.313a.742.742,0,0,0-.212-.544.9.9,0,0,0-.664-.215.918.918,0,0,0-.6.175.553.553,0,0,0-.212.446.473.473,0,0,0,.242.411,2.485,2.485,0,0,0,.815.271,6.656,6.656,0,0,1,.966.257A1.587,1.587,0,0,1,14.863-.247a1.5,1.5,0,0,1-.674,1.271,2.908,2.908,0,0,1-1.741.486,3.038,3.038,0,0,1-1.282-.257,2.151,2.151,0,0,1-.879-.706,1.641,1.641,0,0,1-.319-.969h1.455a.8.8,0,0,0,.3.626,1.2,1.2,0,0,0,.754.218,1.111,1.111,0,0,0,.666-.167A.52.52,0,0,0,13.371-.183Zm4.1,1.587H15.93V-4.34h1.54ZM15.84-5.826a.756.756,0,0,1,.231-.568.868.868,0,0,1,.629-.223.87.87,0,0,1,.626.223.751.751,0,0,1,.234.568.753.753,0,0,1-.236.573.872.872,0,0,1-.624.223.872.872,0,0,1-.624-.223A.753.753,0,0,1,15.84-5.826Zm2.654,4.305a3.407,3.407,0,0,1,.329-1.524,2.41,2.41,0,0,1,.948-1.035,2.765,2.765,0,0,1,1.436-.366,2.616,2.616,0,0,1,1.9.711,2.855,2.855,0,0,1,.82,1.932l.011.393A3,3,0,0,1,23.2.712a2.565,2.565,0,0,1-1.98.8,2.578,2.578,0,0,1-1.983-.8,3.055,3.055,0,0,1-.741-2.166Zm1.534.109A2.147,2.147,0,0,0,20.336-.16a1.016,1.016,0,0,0,.881.433,1.018,1.018,0,0,0,.871-.428A2.349,2.349,0,0,0,22.4-1.524a2.126,2.126,0,0,0-.313-1.244,1.018,1.018,0,0,0-.881-.441,1,1,0,0,0-.871.439A2.389,2.389,0,0,0,20.028-1.412ZM21.509-6.75h1.672L21.711-5.1H20.464Zm4.783,2.41.048.664a2.005,2.005,0,0,1,1.651-.77,1.667,1.667,0,0,1,1.359.536,2.5,2.5,0,0,1,.457,1.6V1.4H28.273V-2.269a1,1,0,0,0-.212-.709.951.951,0,0,0-.706-.22,1.055,1.055,0,0,0-.972.552V1.4H24.849V-4.34ZM-9.059,12.776l1.752-5.813h1.773l-2.692,7.73H-9.887l-2.681-7.73H-10.8ZM-2.5,14.8a2.82,2.82,0,0,1-2.057-.775,2.755,2.755,0,0,1-.794-2.065V11.81a3.47,3.47,0,0,1,.334-1.548,2.455,2.455,0,0,1,.948-1.051,2.66,2.66,0,0,1,1.4-.369,2.384,2.384,0,0,1,1.855.743,3.02,3.02,0,0,1,.677,2.108v.626H-3.792a1.425,1.425,0,0,0,.449.9,1.356,1.356,0,0,0,.948.34,1.656,1.656,0,0,0,1.386-.642l.754.844a2.3,2.3,0,0,1-.934.762A3.065,3.065,0,0,1-2.5,14.8Zm-.175-4.72a.959.959,0,0,0-.741.309,1.6,1.6,0,0,0-.364.885h2.134v-.123a1.142,1.142,0,0,0-.276-.792A.989.989,0,0,0-2.672,10.08Zm4.82-1.131.048.664a2.005,2.005,0,0,1,1.651-.77,1.667,1.667,0,0,1,1.359.536,2.5,2.5,0,0,1,.457,1.6v3.711H4.128V11.019a1,1,0,0,0-.212-.709.951.951,0,0,0-.706-.22,1.055,1.055,0,0,0-.972.552v4.051H.7V8.949ZM8.662,7.537V8.949h.982v1.125H8.662v2.867a.685.685,0,0,0,.122.457.613.613,0,0,0,.467.138A2.447,2.447,0,0,0,9.7,13.5v1.163a3.158,3.158,0,0,1-.929.138,1.465,1.465,0,0,1-1.646-1.63v-3.1H6.289V8.949h.839V7.537Zm5.165,7.156a1.7,1.7,0,0,1-.154-.515,1.856,1.856,0,0,1-1.449.621,2.039,2.039,0,0,1-1.4-.488,1.571,1.571,0,0,1-.555-1.232,1.623,1.623,0,0,1,.677-1.4,3.34,3.34,0,0,1,1.956-.494h.706v-.329a.947.947,0,0,0-.2-.637.8.8,0,0,0-.645-.239.914.914,0,0,0-.608.186.631.631,0,0,0-.22.51H10.4a1.541,1.541,0,0,1,.308-.924,2.035,2.035,0,0,1,.871-.666,3.173,3.173,0,0,1,1.263-.242,2.507,2.507,0,0,1,1.686.534,1.866,1.866,0,0,1,.624,1.5v2.49a2.746,2.746,0,0,0,.228,1.237v.09Zm-1.269-1.067a1.321,1.321,0,0,0,.626-.151.994.994,0,0,0,.425-.406v-.987h-.573q-1.152,0-1.226.8l-.005.09a.614.614,0,0,0,.2.472A.784.784,0,0,0,12.559,13.626Zm6.88-.52a.494.494,0,0,0-.279-.443,3.166,3.166,0,0,0-.895-.289q-2.049-.43-2.049-1.741a1.578,1.578,0,0,1,.634-1.277,2.559,2.559,0,0,1,1.659-.512,2.754,2.754,0,0,1,1.749.515,1.623,1.623,0,0,1,.656,1.338H19.381a.742.742,0,0,0-.212-.544.9.9,0,0,0-.664-.215.918.918,0,0,0-.6.175.553.553,0,0,0-.212.446.473.473,0,0,0,.242.411,2.485,2.485,0,0,0,.815.271,6.656,6.656,0,0,1,.966.257,1.587,1.587,0,0,1,1.216,1.545,1.5,1.5,0,0,1-.674,1.271,2.908,2.908,0,0,1-1.741.486,3.038,3.038,0,0,1-1.282-.257,2.151,2.151,0,0,1-.879-.706,1.641,1.641,0,0,1-.319-.969h1.455a.8.8,0,0,0,.3.626,1.2,1.2,0,0,0,.754.218,1.111,1.111,0,0,0,.666-.167A.52.52,0,0,0,19.439,13.106Z" transform="translate(28.825 25.542)"/>
            <g id="Grupo_175030" data-name="Grupo 175030" transform="translate(0 0)">
              <rect id="Rectángulo_298020" data-name="Rectángulo 298020" width="66.373" height="50.125" fill="none" stroke="#084a93" stroke-miterlimit="10" stroke-width="1"/>
              <line id="Línea_417" data-name="Línea 417" x2="66.373" transform="translate(0 9.929)" fill="none" stroke="#084a93" stroke-miterlimit="10" stroke-width="1"/>
            </g>
          </g>
          <text id="Dimensión_Cliente" data-name="Dimensión
Cliente" transform="translate(33.702 107.195)" font-size="11" font-family="Roboto-Bold, Roboto" font-weight="700" opacity="0.8"><tspan x="-26.324" y="0">Dimensión</tspan><tspan x="-17.4" y="13">Cliente</tspan></text>
          <g id="Grupo_175032" data-name="Grupo 175032" transform="translate(0 85.953)">
            <rect id="Rectángulo_298021" data-name="Rectángulo 298021" width="76.401" height="50.125" fill="none" stroke="#084a93" stroke-miterlimit="10" stroke-width="1"/>
            <line id="Línea_418" data-name="Línea 418" x2="76.401" transform="translate(0 9.929)" fill="none" stroke="#084a93" stroke-miterlimit="10" stroke-width="1"/>
          </g>
          <text id="Dimensión_Vendedor" data-name="Dimensión
Vendedor" transform="translate(82.136 220.89)" font-size="11" font-family="Roboto-Bold, Roboto" font-weight="700" opacity="0.8"><tspan x="-26.324" y="0">Dimensión</tspan><tspan x="-23.936" y="13">Vendedor</tspan></text>
          <g id="Grupo_175033" data-name="Grupo 175033" transform="translate(48.434 199.648)">
            <rect id="Rectángulo_298022" data-name="Rectángulo 298022" width="76.401" height="50.125" transform="translate(0)" fill="none" stroke="#084a93" stroke-miterlimit="10" stroke-width="1"/>
            <line id="Línea_419" data-name="Línea 419" x2="76.401" transform="translate(0 9.929)" fill="none" stroke="#084a93" stroke-miterlimit="10" stroke-width="1"/>
          </g>
          <path id="Trazado_212696" data-name="Trazado 212696" d="M-20.966,1.4v-7.73h2.378a3.612,3.612,0,0,1,1.824.459A3.2,3.2,0,0,1-15.509-4.56a4.028,4.028,0,0,1,.451,1.924v.356A4.039,4.039,0,0,1-15.5-.364a3.175,3.175,0,0,1-1.25,1.3,3.639,3.639,0,0,1-1.821.467Zm1.593-6.44V.125h.77a1.73,1.73,0,0,0,1.428-.611,2.759,2.759,0,0,0,.5-1.747v-.409a2.8,2.8,0,0,0-.488-1.786,1.724,1.724,0,0,0-1.428-.608Zm6.992,6.44h-1.54V-4.34h1.54Zm-1.63-7.231a.756.756,0,0,1,.231-.568.868.868,0,0,1,.629-.223.87.87,0,0,1,.626.223.751.751,0,0,1,.234.568.753.753,0,0,1-.236.573.872.872,0,0,1-.624.223.872.872,0,0,1-.624-.223A.753.753,0,0,1-14.012-5.826ZM-9.68-4.34l.048.642a2.019,2.019,0,0,1,1.651-.749,1.532,1.532,0,0,1,1.524.876,1.972,1.972,0,0,1,1.725-.876A1.713,1.713,0,0,1-3.341-3.9a2.5,2.5,0,0,1,.457,1.638V1.4h-1.54V-2.259a1.094,1.094,0,0,0-.191-.714A.847.847,0,0,0-5.289-3.2a.958.958,0,0,0-.956.658L-6.24,1.4H-7.774V-2.253a1.08,1.08,0,0,0-.2-.722A.855.855,0,0,0-8.639-3.2a.994.994,0,0,0-.945.541V1.4h-1.534V-4.34ZM.938,1.511A2.82,2.82,0,0,1-1.119.735,2.755,2.755,0,0,1-1.913-1.33v-.149a3.47,3.47,0,0,1,.334-1.548A2.455,2.455,0,0,1-.631-4.077a2.66,2.66,0,0,1,1.4-.369A2.384,2.384,0,0,1,2.623-3.7,3.02,3.02,0,0,1,3.3-1.6v.626H-.358a1.425,1.425,0,0,0,.449.9,1.356,1.356,0,0,0,.948.34A1.656,1.656,0,0,0,2.424-.369l.754.844a2.3,2.3,0,0,1-.934.762A3.065,3.065,0,0,1,.938,1.511ZM.763-3.209A.959.959,0,0,0,.022-2.9a1.6,1.6,0,0,0-.364.885H1.793v-.123a1.142,1.142,0,0,0-.276-.792A.989.989,0,0,0,.763-3.209ZM5.583-4.34l.048.664a2.005,2.005,0,0,1,1.651-.77,1.667,1.667,0,0,1,1.359.536,2.5,2.5,0,0,1,.457,1.6V1.4H7.563V-2.269a1,1,0,0,0-.212-.709.951.951,0,0,0-.706-.22,1.055,1.055,0,0,0-.972.552V1.4H4.139V-4.34ZM13.371-.183a.494.494,0,0,0-.279-.443A3.166,3.166,0,0,0,12.2-.916q-2.049-.43-2.049-1.741a1.578,1.578,0,0,1,.634-1.277,2.559,2.559,0,0,1,1.659-.512,2.754,2.754,0,0,1,1.749.515,1.623,1.623,0,0,1,.656,1.338H13.313a.742.742,0,0,0-.212-.544.9.9,0,0,0-.664-.215.918.918,0,0,0-.6.175.553.553,0,0,0-.212.446.473.473,0,0,0,.242.411,2.485,2.485,0,0,0,.815.271,6.656,6.656,0,0,1,.966.257A1.587,1.587,0,0,1,14.863-.247a1.5,1.5,0,0,1-.674,1.271,2.908,2.908,0,0,1-1.741.486,3.038,3.038,0,0,1-1.282-.257,2.151,2.151,0,0,1-.879-.706,1.641,1.641,0,0,1-.319-.969h1.455a.8.8,0,0,0,.3.626,1.2,1.2,0,0,0,.754.218,1.111,1.111,0,0,0,.666-.167A.52.52,0,0,0,13.371-.183Zm4.1,1.587H15.93V-4.34h1.54ZM15.84-5.826a.756.756,0,0,1,.231-.568.868.868,0,0,1,.629-.223.87.87,0,0,1,.626.223.751.751,0,0,1,.234.568.753.753,0,0,1-.236.573.872.872,0,0,1-.624.223.872.872,0,0,1-.624-.223A.753.753,0,0,1,15.84-5.826Zm2.654,4.305a3.407,3.407,0,0,1,.329-1.524,2.41,2.41,0,0,1,.948-1.035,2.765,2.765,0,0,1,1.436-.366,2.616,2.616,0,0,1,1.9.711,2.855,2.855,0,0,1,.82,1.932l.011.393A3,3,0,0,1,23.2.712a2.565,2.565,0,0,1-1.98.8,2.578,2.578,0,0,1-1.983-.8,3.055,3.055,0,0,1-.741-2.166Zm1.534.109A2.147,2.147,0,0,0,20.336-.16a1.016,1.016,0,0,0,.881.433,1.018,1.018,0,0,0,.871-.428A2.349,2.349,0,0,0,22.4-1.524a2.126,2.126,0,0,0-.313-1.244,1.018,1.018,0,0,0-.881-.441,1,1,0,0,0-.871.439A2.389,2.389,0,0,0,20.028-1.412ZM21.509-6.75h1.672L21.711-5.1H20.464Zm4.783,2.41.048.664a2.005,2.005,0,0,1,1.651-.77,1.667,1.667,0,0,1,1.359.536,2.5,2.5,0,0,1,.457,1.6V1.4H28.273V-2.269a1,1,0,0,0-.212-.709.951.951,0,0,0-.706-.22,1.055,1.055,0,0,0-.972.552V1.4H24.849V-4.34ZM-15.594,11.969v2.723h-1.593V6.963h3.015a3.489,3.489,0,0,1,1.532.319,2.347,2.347,0,0,1,1.017.905,2.524,2.524,0,0,1,.356,1.335,2.219,2.219,0,0,1-.778,1.792,3.239,3.239,0,0,1-2.153.656Zm0-1.29h1.423a1.4,1.4,0,0,0,.964-.3,1.081,1.081,0,0,0,.332-.849,1.275,1.275,0,0,0-.334-.918,1.249,1.249,0,0,0-.924-.361h-1.46Zm8.547-.292a4.168,4.168,0,0,0-.552-.042,1.124,1.124,0,0,0-1.141.589v3.759h-1.534V8.949h1.449l.042.685A1.422,1.422,0,0,1-7.5,8.843a1.608,1.608,0,0,1,.478.069Zm.308,1.38a3.407,3.407,0,0,1,.329-1.524,2.41,2.41,0,0,1,.948-1.035,2.765,2.765,0,0,1,1.436-.366,2.616,2.616,0,0,1,1.9.711,2.855,2.855,0,0,1,.82,1.932l.011.393A3,3,0,0,1-2.035,14a2.565,2.565,0,0,1-1.98.8A2.578,2.578,0,0,1-6,14a3.055,3.055,0,0,1-.741-2.166Zm1.534.109A2.147,2.147,0,0,0-4.9,13.129a1.016,1.016,0,0,0,.881.433,1.018,1.018,0,0,0,.871-.428,2.349,2.349,0,0,0,.313-1.369,2.126,2.126,0,0,0-.313-1.244,1.018,1.018,0,0,0-.881-.441,1,1,0,0,0-.871.439A2.389,2.389,0,0,0-5.2,11.877Zm4.613-.1a3.462,3.462,0,0,1,.6-2.139,1.955,1.955,0,0,1,1.648-.8,1.759,1.759,0,0,1,1.386.626V6.539h1.54v8.154H3.2l-.074-.611a1.805,1.805,0,0,1-1.476.717A1.95,1.95,0,0,1,.022,14,3.573,3.573,0,0,1-.591,11.778Zm1.534.114a2.268,2.268,0,0,0,.281,1.239.917.917,0,0,0,.818.431,1.027,1.027,0,0,0,1-.6v-2.27a1.012,1.012,0,0,0-.993-.6Q.943,10.09.943,11.893Zm8.271,2.216a1.924,1.924,0,0,1-1.571.69,1.815,1.815,0,0,1-1.409-.531,2.266,2.266,0,0,1-.5-1.555V8.949H7.271v3.715q0,.9.818.9a1.108,1.108,0,0,0,1.072-.542V8.949H10.7v5.744H9.257Zm5.033-.547a1.006,1.006,0,0,0,.69-.234.818.818,0,0,0,.276-.621h1.439a1.968,1.968,0,0,1-.319,1.07,2.1,2.1,0,0,1-.857.754,2.683,2.683,0,0,1-1.2.268,2.494,2.494,0,0,1-1.943-.783,3.1,3.1,0,0,1-.711-2.163v-.1a3.063,3.063,0,0,1,.706-2.118,2.465,2.465,0,0,1,1.938-.791,2.416,2.416,0,0,1,1.728.613,2.171,2.171,0,0,1,.661,1.632H15.213a1.054,1.054,0,0,0-.276-.728,1.026,1.026,0,0,0-1.51.111,2.265,2.265,0,0,0-.273,1.268v.16a2.294,2.294,0,0,0,.271,1.276A.936.936,0,0,0,14.247,13.562Zm5.118-6.025V8.949h.982v1.125h-.982v2.867a.685.685,0,0,0,.122.457.613.613,0,0,0,.467.138,2.447,2.447,0,0,0,.451-.037v1.163a3.158,3.158,0,0,1-.929.138,1.465,1.465,0,0,1-1.646-1.63v-3.1h-.839V8.949h.839V7.537ZM20.8,11.768a3.407,3.407,0,0,1,.329-1.524,2.41,2.41,0,0,1,.948-1.035,2.765,2.765,0,0,1,1.436-.366,2.616,2.616,0,0,1,1.9.711,2.855,2.855,0,0,1,.82,1.932l.011.393A3,3,0,0,1,25.507,14a2.86,2.86,0,0,1-3.963,0,3.055,3.055,0,0,1-.741-2.166Zm1.534.109a2.147,2.147,0,0,0,.308,1.252,1.106,1.106,0,0,0,1.752.005,2.349,2.349,0,0,0,.313-1.369,2.126,2.126,0,0,0-.313-1.244,1.018,1.018,0,0,0-.881-.441,1,1,0,0,0-.871.439A2.389,2.389,0,0,0,22.338,11.877Z" transform="translate(294.215 220.358)"/>
          <g id="Grupo_175034" data-name="Grupo 175034" transform="translate(263.09 199.648)">
            <rect id="Rectángulo_298023" data-name="Rectángulo 298023" width="76.401" height="50.125" transform="translate(0)" fill="none" stroke="#084a93" stroke-miterlimit="10" stroke-width="1"/>
            <line id="Línea_420" data-name="Línea 420" x2="76.401" transform="translate(0 9.929)" fill="none" stroke="#084a93" stroke-miterlimit="10" stroke-width="1"/>
          </g>
          <path id="Trazado_212695" data-name="Trazado 212695" d="M-20.081,1.4v-7.73H-17.7a3.612,3.612,0,0,1,1.824.459A3.2,3.2,0,0,1-14.624-4.56a4.028,4.028,0,0,1,.451,1.924v.356a4.039,4.039,0,0,1-.443,1.916,3.175,3.175,0,0,1-1.25,1.3,3.639,3.639,0,0,1-1.821.467Zm1.593-6.44V.125h.77a1.73,1.73,0,0,0,1.428-.611,2.759,2.759,0,0,0,.5-1.747v-.409a2.8,2.8,0,0,0-.488-1.786A1.724,1.724,0,0,0-17.7-5.035ZM-11.5,1.4h-1.54V-4.34h1.54Zm-1.63-7.231a.756.756,0,0,1,.231-.568.868.868,0,0,1,.629-.223.87.87,0,0,1,.626.223.751.751,0,0,1,.234.568.753.753,0,0,1-.236.573.872.872,0,0,1-.624.223.872.872,0,0,1-.624-.223A.753.753,0,0,1-13.127-5.826ZM-8.795-4.34l.048.642A2.019,2.019,0,0,1-7.1-4.446a1.532,1.532,0,0,1,1.524.876,1.972,1.972,0,0,1,1.725-.876A1.713,1.713,0,0,1-2.456-3.9,2.5,2.5,0,0,1-2-2.264V1.4h-1.54V-2.259a1.094,1.094,0,0,0-.191-.714A.847.847,0,0,0-4.4-3.2a.958.958,0,0,0-.956.658L-5.355,1.4H-6.889V-2.253a1.08,1.08,0,0,0-.2-.722A.855.855,0,0,0-7.754-3.2a.994.994,0,0,0-.945.541V1.4h-1.534V-4.34ZM1.823,1.511A2.82,2.82,0,0,1-.234.735,2.755,2.755,0,0,1-1.028-1.33v-.149A3.47,3.47,0,0,1-.694-3.026,2.455,2.455,0,0,1,.254-4.077a2.66,2.66,0,0,1,1.4-.369A2.384,2.384,0,0,1,3.508-3.7,3.02,3.02,0,0,1,4.185-1.6v.626H.527a1.425,1.425,0,0,0,.449.9,1.356,1.356,0,0,0,.948.34A1.656,1.656,0,0,0,3.309-.369l.754.844a2.3,2.3,0,0,1-.934.762A3.065,3.065,0,0,1,1.823,1.511Zm-.175-4.72A.959.959,0,0,0,.907-2.9a1.6,1.6,0,0,0-.364.885H2.678v-.123A1.142,1.142,0,0,0,2.4-2.929.989.989,0,0,0,1.648-3.209ZM6.468-4.34l.048.664a2.005,2.005,0,0,1,1.651-.77,1.667,1.667,0,0,1,1.359.536,2.5,2.5,0,0,1,.457,1.6V1.4H8.448V-2.269a1,1,0,0,0-.212-.709A.951.951,0,0,0,7.53-3.2a1.055,1.055,0,0,0-.972.552V1.4H5.024V-4.34ZM14.256-.183a.494.494,0,0,0-.279-.443,3.166,3.166,0,0,0-.895-.289q-2.049-.43-2.049-1.741a1.578,1.578,0,0,1,.634-1.277,2.559,2.559,0,0,1,1.659-.512,2.754,2.754,0,0,1,1.749.515,1.623,1.623,0,0,1,.656,1.338H14.2a.742.742,0,0,0-.212-.544.9.9,0,0,0-.664-.215.918.918,0,0,0-.6.175.553.553,0,0,0-.212.446.473.473,0,0,0,.242.411,2.485,2.485,0,0,0,.815.271,6.656,6.656,0,0,1,.966.257A1.587,1.587,0,0,1,15.748-.247a1.5,1.5,0,0,1-.674,1.271,2.908,2.908,0,0,1-1.741.486,3.038,3.038,0,0,1-1.282-.257,2.151,2.151,0,0,1-.879-.706,1.641,1.641,0,0,1-.319-.969h1.455a.8.8,0,0,0,.3.626,1.2,1.2,0,0,0,.754.218A1.111,1.111,0,0,0,14.03.255.52.52,0,0,0,14.256-.183Zm4.1,1.587h-1.54V-4.34h1.54Zm-1.63-7.231a.756.756,0,0,1,.231-.568.868.868,0,0,1,.629-.223.87.87,0,0,1,.626.223.751.751,0,0,1,.234.568.753.753,0,0,1-.236.573.872.872,0,0,1-.624.223.872.872,0,0,1-.624-.223A.753.753,0,0,1,16.725-5.826Zm2.654,4.305a3.407,3.407,0,0,1,.329-1.524,2.41,2.41,0,0,1,.948-1.035,2.765,2.765,0,0,1,1.436-.366,2.616,2.616,0,0,1,1.9.711A2.855,2.855,0,0,1,24.81-1.8l.011.393A3,3,0,0,1,24.083.712a2.565,2.565,0,0,1-1.98.8,2.578,2.578,0,0,1-1.983-.8,3.055,3.055,0,0,1-.741-2.166Zm1.534.109A2.147,2.147,0,0,0,21.221-.16,1.016,1.016,0,0,0,22.1.274a1.018,1.018,0,0,0,.871-.428,2.349,2.349,0,0,0,.313-1.369,2.126,2.126,0,0,0-.313-1.244,1.018,1.018,0,0,0-.881-.441,1,1,0,0,0-.871.439A2.389,2.389,0,0,0,20.913-1.412ZM22.394-6.75h1.672L22.6-5.1H21.349Zm4.783,2.41.048.664a2.005,2.005,0,0,1,1.651-.77,1.667,1.667,0,0,1,1.359.536,2.5,2.5,0,0,1,.457,1.6V1.4H29.158V-2.269a1,1,0,0,0-.212-.709.951.951,0,0,0-.706-.22,1.055,1.055,0,0,0-.972.552V1.4H25.734V-4.34ZM-14.632,13.413h3.382v1.279h-4.974V6.963h1.593Zm3.955-1.646a3.407,3.407,0,0,1,.329-1.524A2.41,2.41,0,0,1-9.4,9.209a2.765,2.765,0,0,1,1.436-.366,2.616,2.616,0,0,1,1.9.711,2.855,2.855,0,0,1,.82,1.932l.011.393A3,3,0,0,1-5.973,14a2.565,2.565,0,0,1-1.98.8A2.578,2.578,0,0,1-9.936,14a3.055,3.055,0,0,1-.741-2.166Zm1.534.109a2.147,2.147,0,0,0,.308,1.252,1.016,1.016,0,0,0,.881.433,1.018,1.018,0,0,0,.871-.428,2.349,2.349,0,0,0,.313-1.369,2.126,2.126,0,0,0-.313-1.244,1.018,1.018,0,0,0-.881-.441,1,1,0,0,0-.871.439A2.389,2.389,0,0,0-9.142,11.877ZM-1.9,13.562a1.006,1.006,0,0,0,.69-.234.818.818,0,0,0,.276-.621H.5a1.968,1.968,0,0,1-.319,1.07,2.1,2.1,0,0,1-.857.754,2.683,2.683,0,0,1-1.2.268,2.494,2.494,0,0,1-1.943-.783,3.1,3.1,0,0,1-.711-2.163v-.1a3.063,3.063,0,0,1,.706-2.118,2.465,2.465,0,0,1,1.938-.791,2.416,2.416,0,0,1,1.728.613A2.171,2.171,0,0,1,.5,11.088H-.935a1.054,1.054,0,0,0-.276-.728.92.92,0,0,0-.7-.28.924.924,0,0,0-.81.391,2.265,2.265,0,0,0-.273,1.268v.16a2.294,2.294,0,0,0,.271,1.276A.936.936,0,0,0-1.9,13.562Zm6.609,1.131a1.7,1.7,0,0,1-.154-.515A1.856,1.856,0,0,1,3.1,14.8a2.039,2.039,0,0,1-1.4-.488,1.571,1.571,0,0,1-.555-1.232,1.623,1.623,0,0,1,.677-1.4,3.34,3.34,0,0,1,1.956-.494h.706v-.329a.947.947,0,0,0-.2-.637.8.8,0,0,0-.645-.239.914.914,0,0,0-.608.186.631.631,0,0,0-.22.51H1.279a1.541,1.541,0,0,1,.308-.924,2.035,2.035,0,0,1,.871-.666,3.173,3.173,0,0,1,1.263-.242,2.507,2.507,0,0,1,1.686.534,1.866,1.866,0,0,1,.624,1.5v2.49A2.746,2.746,0,0,0,6.258,14.6v.09ZM3.439,13.626a1.321,1.321,0,0,0,.626-.151.994.994,0,0,0,.425-.406v-.987H3.917q-1.152,0-1.226.8l-.005.09a.614.614,0,0,0,.2.472A.784.784,0,0,0,3.439,13.626ZM9.6,13.562a1.006,1.006,0,0,0,.69-.234.818.818,0,0,0,.276-.621H12a1.968,1.968,0,0,1-.319,1.07,2.1,2.1,0,0,1-.857.754,2.683,2.683,0,0,1-1.2.268,2.494,2.494,0,0,1-1.943-.783,3.1,3.1,0,0,1-.711-2.163v-.1a3.063,3.063,0,0,1,.706-2.118,2.465,2.465,0,0,1,1.938-.791,2.416,2.416,0,0,1,1.728.613A2.171,2.171,0,0,1,12,11.088H10.564a1.054,1.054,0,0,0-.276-.728,1.026,1.026,0,0,0-1.51.111A2.265,2.265,0,0,0,8.5,11.738v.16a2.294,2.294,0,0,0,.271,1.276A.936.936,0,0,0,9.6,13.562Zm4.9,1.131h-1.54V8.949H14.5Zm-1.63-7.231a.756.756,0,0,1,.231-.568,1,1,0,0,1,1.256,0,.811.811,0,0,1,0,1.141.984.984,0,0,1-1.248,0A.753.753,0,0,1,12.868,7.462Zm2.654,4.305a3.407,3.407,0,0,1,.329-1.524A2.41,2.41,0,0,1,16.8,9.209a2.765,2.765,0,0,1,1.436-.366,2.616,2.616,0,0,1,1.9.711,2.855,2.855,0,0,1,.82,1.932l.011.393A3,3,0,0,1,20.226,14a2.565,2.565,0,0,1-1.98.8,2.578,2.578,0,0,1-1.983-.8,3.055,3.055,0,0,1-.741-2.166Zm1.534.109a2.147,2.147,0,0,0,.308,1.252,1.106,1.106,0,0,0,1.752.005,2.349,2.349,0,0,0,.313-1.369,2.126,2.126,0,0,0-.313-1.244,1.018,1.018,0,0,0-.881-.441,1,1,0,0,0-.871.439A2.389,2.389,0,0,0,17.056,11.877Zm1.481-5.338H20.21L18.739,8.184H17.492Zm4.783,2.41.048.664a2.005,2.005,0,0,1,1.651-.77,1.667,1.667,0,0,1,1.359.536,2.5,2.5,0,0,1,.457,1.6v3.711H25.3V11.019a1,1,0,0,0-.212-.709.951.951,0,0,0-.706-.22,1.055,1.055,0,0,0-.972.552v4.051H21.877V8.949Zm-46.46,11.3,1.985,5.606,1.975-5.606h2.092v7.73h-1.6V25.868l.159-3.647-2.086,5.76h-1.094l-2.081-5.755.159,3.642v2.113H-25.22v-7.73Zm10.671,7.73a1.7,1.7,0,0,1-.154-.515,1.856,1.856,0,0,1-1.449.621,2.039,2.039,0,0,1-1.4-.488,1.571,1.571,0,0,1-.555-1.232,1.623,1.623,0,0,1,.677-1.4,3.34,3.34,0,0,1,1.956-.494h.706v-.329a.947.947,0,0,0-.2-.637.8.8,0,0,0-.645-.239.914.914,0,0,0-.608.186.631.631,0,0,0-.22.51H-15.9a1.541,1.541,0,0,1,.308-.924,2.035,2.035,0,0,1,.871-.666,3.173,3.173,0,0,1,1.263-.242,2.507,2.507,0,0,1,1.686.534,1.866,1.866,0,0,1,.624,1.5v2.49a2.746,2.746,0,0,0,.228,1.237v.09Zm-1.269-1.067a1.321,1.321,0,0,0,.626-.151.994.994,0,0,0,.425-.406v-.987h-.573q-1.152,0-1.226.8l-.005.09a.614.614,0,0,0,.2.472A.784.784,0,0,0-13.737,26.914Zm5.181-4.677.048.664a2.005,2.005,0,0,1,1.651-.77,1.667,1.667,0,0,1,1.359.536,2.5,2.5,0,0,1,.457,1.6v3.711H-6.576V24.308a1,1,0,0,0-.212-.709.951.951,0,0,0-.706-.22,1.055,1.055,0,0,0-.972.552v4.051H-10V22.237ZM-.439,27.4a1.924,1.924,0,0,1-1.571.69,1.815,1.815,0,0,1-1.409-.531A2.266,2.266,0,0,1-3.916,26V22.237h1.534v3.715q0,.9.818.9a1.108,1.108,0,0,0,1.072-.542V22.237h1.54v5.744H-.4Zm3.063.584V23.363H1.77V22.237h.855v-.488a1.983,1.983,0,0,1,.555-1.5,2.149,2.149,0,0,1,1.553-.534,3.587,3.587,0,0,1,.78.106L5.5,21.011a1.956,1.956,0,0,0-.467-.048q-.865,0-.865.812v.462H5.305v1.125H4.164v4.619Zm6.806,0a1.7,1.7,0,0,1-.154-.515,1.856,1.856,0,0,1-1.449.621,2.039,2.039,0,0,1-1.4-.488,1.571,1.571,0,0,1-.555-1.232,1.623,1.623,0,0,1,.677-1.4,3.34,3.34,0,0,1,1.956-.494h.706v-.329a.947.947,0,0,0-.2-.637.8.8,0,0,0-.645-.239.914.914,0,0,0-.608.186.631.631,0,0,0-.22.51H6a1.541,1.541,0,0,1,.308-.924,2.035,2.035,0,0,1,.871-.666,3.173,3.173,0,0,1,1.263-.242,2.507,2.507,0,0,1,1.686.534,1.866,1.866,0,0,1,.624,1.5v2.49a2.746,2.746,0,0,0,.228,1.237v.09ZM8.162,26.914a1.321,1.321,0,0,0,.626-.151.994.994,0,0,0,.425-.406v-.987H8.639q-1.152,0-1.226.8l-.005.09a.614.614,0,0,0,.2.472A.784.784,0,0,0,8.162,26.914Zm6.158-.064a1.006,1.006,0,0,0,.69-.234A.818.818,0,0,0,15.286,26h1.439a1.968,1.968,0,0,1-.319,1.07,2.1,2.1,0,0,1-.857.754,2.683,2.683,0,0,1-1.2.268A2.494,2.494,0,0,1,12.4,27.3a3.1,3.1,0,0,1-.711-2.163v-.1a3.063,3.063,0,0,1,.706-2.118,2.465,2.465,0,0,1,1.938-.791,2.416,2.416,0,0,1,1.728.613,2.171,2.171,0,0,1,.661,1.632H15.286a1.054,1.054,0,0,0-.276-.728,1.026,1.026,0,0,0-1.51.111,2.265,2.265,0,0,0-.273,1.268v.16a2.294,2.294,0,0,0,.271,1.276A.936.936,0,0,0,14.32,26.851Zm5.118-6.025v1.412h.982v1.125h-.982v2.867a.685.685,0,0,0,.122.457.613.613,0,0,0,.467.138,2.447,2.447,0,0,0,.451-.037V27.95a3.158,3.158,0,0,1-.929.138,1.465,1.465,0,0,1-1.646-1.63v-3.1h-.839V22.237H17.9V20.825ZM24.714,27.4a1.924,1.924,0,0,1-1.571.69,1.815,1.815,0,0,1-1.409-.531,2.266,2.266,0,0,1-.5-1.555V22.237h1.534v3.715q0,.9.818.9a1.108,1.108,0,0,0,1.072-.542V22.237H26.2v5.744H24.757Zm5.872-3.721a4.168,4.168,0,0,0-.552-.042,1.124,1.124,0,0,0-1.141.589v3.759H27.358V22.237h1.449l.042.685a1.422,1.422,0,0,1,1.279-.791,1.608,1.608,0,0,1,.478.069Zm3.907,4.305a1.7,1.7,0,0,1-.154-.515,1.856,1.856,0,0,1-1.449.621,2.039,2.039,0,0,1-1.4-.488,1.571,1.571,0,0,1-.555-1.232,1.623,1.623,0,0,1,.677-1.4,3.34,3.34,0,0,1,1.956-.494h.706v-.329a.947.947,0,0,0-.2-.637.8.8,0,0,0-.645-.239.914.914,0,0,0-.608.186.631.631,0,0,0-.22.51H31.064a1.541,1.541,0,0,1,.308-.924,2.035,2.035,0,0,1,.871-.666,3.173,3.173,0,0,1,1.263-.242,2.507,2.507,0,0,1,1.686.534,1.866,1.866,0,0,1,.624,1.5v2.49a2.746,2.746,0,0,0,.228,1.237v.09Zm-1.269-1.067a1.321,1.321,0,0,0,.626-.151.994.994,0,0,0,.425-.406v-.987H33.7q-1.152,0-1.226.8l-.005.09a.614.614,0,0,0,.2.472A.784.784,0,0,0,33.224,26.914Z" transform="translate(329.869 97.201)"/>
          <g id="Grupo_175035" data-name="Grupo 175035" transform="translate(302.201 76.63)">
            <rect id="Rectángulo_298024" data-name="Rectángulo 298024" width="76.401" height="57.779" transform="translate(0)" fill="none" stroke="#084a93" stroke-miterlimit="10" stroke-width="1"/>
            <line id="Línea_421" data-name="Línea 421" x2="76.401" transform="translate(0 9.929)" fill="none" stroke="#084a93" stroke-miterlimit="10" stroke-width="1"/>
          </g>
        </g>
      </g>
    </g>
  </g>
</svg>
