<svg xmlns="http://www.w3.org/2000/svg" width="610" height="274" viewBox="0 0 610 274">
  <g id="Grupo_176820" data-name="Grupo 176820" transform="translate(8843 8330)">
    <g id="Grupo_176748" data-name="Grupo 176748">
      <rect id="Rectángulo_298447" data-name="Rectángulo 298447" width="610" height="274" transform="translate(-8843 -8330)" fill="none"/>
      <g id="Grupo_175416" data-name="Grupo 175416" transform="translate(-9893.026 -12122.799)">
        <g id="Grupo_175413" data-name="Grupo 175413" transform="translate(1161.951 3810.365)">
          <g id="Grupo_175308" data-name="Grupo 175308" transform="translate(211.531 0)">
            <g id="Grupo_175257" data-name="Grupo 175257" transform="translate(58.144 151.893)">
              <path id="Trazado_208314" data-name="Trazado 208314" d="M1130.01,308.576,1100.946,291.8v33.974l29.063,16.8Z" transform="translate(-1100.382 -291.232)" fill="#a6f4fe" fill-rule="evenodd"/>
              <path id="Trazado_208315" data-name="Trazado 208315" d="M1129.931,343.053a.568.568,0,0,1-.282-.076l-29.064-16.8a.564.564,0,0,1-.282-.489V291.718a.565.565,0,0,1,.847-.489l29.064,16.779a.565.565,0,0,1,.281.49v33.991a.564.564,0,0,1-.281.489A.571.571,0,0,1,1129.931,343.053Zm-28.5-17.686,27.933,16.142V308.823L1101.433,292.7Z" transform="translate(-1100.303 -291.154)"/>
            </g>
            <g id="Grupo_175258" data-name="Grupo 175258" transform="translate(87.207 151.893)">
              <path id="Trazado_208316" data-name="Trazado 208316" d="M1134.059,308.576l29.063-16.779v33.974l-29.063,16.8Z" transform="translate(-1133.494 -291.232)" fill="#00defc" fill-rule="evenodd"/>
              <path id="Trazado_208317" data-name="Trazado 208317" d="M1133.98,343.053a.565.565,0,0,1-.565-.564V308.5a.566.566,0,0,1,.283-.49l29.064-16.779a.565.565,0,0,1,.847.489v33.974a.565.565,0,0,1-.283.489l-29.063,16.8A.571.571,0,0,1,1133.98,343.053Zm.564-34.229v32.685l27.934-16.142V292.7Z" transform="translate(-1133.415 -291.154)"/>
            </g>
            <g id="Grupo_175259" data-name="Grupo 175259" transform="translate(29.063 101.123)">
              <path id="Trazado_208318" data-name="Trazado 208318" d="M1096.9,250.733l-29.08-16.779v33.974l29.08,16.8Z" transform="translate(-1067.25 -233.389)" fill="#ffb30b" fill-rule="evenodd"/>
              <path id="Trazado_208319" data-name="Trazado 208319" d="M1096.816,285.211a.558.558,0,0,1-.282-.076l-29.081-16.8a.565.565,0,0,1-.283-.489V233.875a.565.565,0,0,1,.847-.489l29.081,16.779a.565.565,0,0,1,.283.489v33.991a.567.567,0,0,1-.565.565ZM1068.3,267.524l27.951,16.143V250.981L1068.3,234.854Z" transform="translate(-1067.171 -233.311)"/>
            </g>
            <g id="Grupo_175260" data-name="Grupo 175260" transform="translate(29.063 84.344)">
              <path id="Trazado_208320" data-name="Trazado 208320" d="M1067.815,231.617l29.08-16.779,29.064,16.779L1096.9,248.4Z" transform="translate(-1067.25 -214.273)" fill="#00defc" fill-rule="evenodd"/>
              <path id="Trazado_208321" data-name="Trazado 208321" d="M1096.816,248.882a.559.559,0,0,1-.282-.076l-29.081-16.779a.565.565,0,0,1,0-.979l29.081-16.779a.564.564,0,0,1,.564,0l29.064,16.778a.566.566,0,0,1,0,.979L1097.1,248.806A.56.56,0,0,1,1096.816,248.882Zm-27.949-17.345,27.949,16.127,27.934-16.127-27.934-16.126Z" transform="translate(-1067.171 -214.194)"/>
            </g>
            <g id="Grupo_175261" data-name="Grupo 175261" transform="translate(29.063 135.098)">
              <path id="Trazado_208322" data-name="Trazado 208322" d="M1096.9,289.457l-29.08-16.8v33.991l29.08,16.779Z" transform="translate(-1067.25 -272.097)" fill="#a6f4fe" fill-rule="evenodd"/>
              <path id="Trazado_208323" data-name="Trazado 208323" d="M1096.816,323.918a.558.558,0,0,1-.282-.076l-29.081-16.779a.565.565,0,0,1-.283-.489V272.583a.565.565,0,0,1,.848-.49l29.08,16.8a.565.565,0,0,1,.283.489v33.974a.567.567,0,0,1-.565.565Zm-28.516-17.67,27.951,16.127v-32.67L1068.3,273.561Z" transform="translate(-1067.171 -272.018)"/>
            </g>
            <g id="Grupo_175262" data-name="Grupo 175262" transform="translate(116.271 135.098)">
              <path id="Trazado_208324" data-name="Trazado 208324" d="M1167.171,289.457l29.081-16.8v33.991l-29.081,16.779Z" transform="translate(-1166.607 -272.097)" fill="#00defc" fill-rule="evenodd"/>
              <path id="Trazado_208325" data-name="Trazado 208325" d="M1167.092,323.918a.567.567,0,0,1-.564-.565V289.379a.563.563,0,0,1,.283-.489l29.08-16.8a.564.564,0,0,1,.847.49v33.991a.563.563,0,0,1-.282.489l-29.08,16.779A.559.559,0,0,1,1167.092,323.918Zm.565-34.213v32.67l27.951-16.127V273.561Z" transform="translate(-1166.528 -272.018)"/>
            </g>
            <g id="Grupo_175263" data-name="Grupo 175263" transform="translate(87.207 118.319)">
              <path id="Trazado_208326" data-name="Trazado 208326" d="M1134.059,270.324l29.063-16.779,29.081,16.779-29.081,16.8Z" transform="translate(-1133.494 -252.98)" fill="#00defc" fill-rule="evenodd"/>
              <path id="Trazado_208327" data-name="Trazado 208327" d="M1163.043,287.606a.559.559,0,0,1-.282-.076l-29.063-16.8a.565.565,0,0,1,0-.979l29.064-16.779a.563.563,0,0,1,.564,0l29.08,16.779a.565.565,0,0,1,0,.979l-29.081,16.8A.559.559,0,0,1,1163.043,287.606Zm-27.934-17.36,27.934,16.143,27.951-16.143-27.951-16.127Z" transform="translate(-1133.415 -252.902)"/>
            </g>
            <g id="Grupo_175267" data-name="Grupo 175267" transform="translate(0 33.575)">
              <g id="Grupo_175264" data-name="Grupo 175264" transform="translate(0 16.779)">
                <path id="Trazado_208328" data-name="Trazado 208328" d="M1063.766,192.891,1034.7,176.112V210.1l29.064,16.779Z" transform="translate(-1034.138 -175.547)" fill="#a6f4fe" fill-rule="evenodd"/>
                <path id="Trazado_208329" data-name="Trazado 208329" d="M1063.687,227.368a.571.571,0,0,1-.282-.076l-29.063-16.779a.565.565,0,0,1-.283-.489V176.033a.565.565,0,0,1,.847-.489l29.064,16.779a.564.564,0,0,1,.282.489V226.8a.563.563,0,0,1-.565.565Zm-28.5-17.67,27.934,16.127V193.138l-27.934-16.126Z" transform="translate(-1034.059 -175.468)"/>
              </g>
              <g id="Grupo_175265" data-name="Grupo 175265" transform="translate(29.063 16.779)">
                <path id="Trazado_208330" data-name="Trazado 208330" d="M1067.815,192.891l29.08-16.779V210.1l-29.08,16.779Z" transform="translate(-1067.25 -175.547)" fill="#00defc" fill-rule="evenodd"/>
                <path id="Trazado_208331" data-name="Trazado 208331" d="M1067.736,227.368a.572.572,0,0,1-.283-.075.566.566,0,0,1-.283-.49V192.812a.565.565,0,0,1,.283-.489l29.081-16.779a.566.566,0,0,1,.847.49v33.991a.565.565,0,0,1-.283.489l-29.081,16.779A.564.564,0,0,1,1067.736,227.368Zm.564-34.229v32.686l27.951-16.127V177.011Z" transform="translate(-1067.171 -175.468)"/>
              </g>
              <g id="Grupo_175266" data-name="Grupo 175266">
                <path id="Trazado_208332" data-name="Trazado 208332" d="M1034.7,173.774,1063.766,157l29.08,16.779-29.08,16.779Z" transform="translate(-1034.138 -156.43)" fill="#d9faff" fill-rule="evenodd"/>
                <path id="Trazado_208333" data-name="Trazado 208333" d="M1063.687,191.04a.572.572,0,0,1-.282-.075l-29.063-16.779a.564.564,0,0,1,0-.978l29.063-16.779a.564.564,0,0,1,.564,0l29.081,16.779a.565.565,0,0,1,0,.979l-29.081,16.779A.565.565,0,0,1,1063.687,191.04ZM1035.753,173.7l27.934,16.126,27.951-16.126-27.951-16.127Z" transform="translate(-1034.059 -156.352)"/>
              </g>
            </g>
            <g id="Grupo_175268" data-name="Grupo 175268" transform="translate(0 84.344)">
              <path id="Trazado_208334" data-name="Trazado 208334" d="M1063.766,231.617,1034.7,214.838v33.974l29.064,16.779Z" transform="translate(-1034.138 -214.273)" fill="#ffb30b" fill-rule="evenodd"/>
              <path id="Trazado_208335" data-name="Trazado 208335" d="M1063.687,266.077a.572.572,0,0,1-.282-.075l-29.063-16.779a.565.565,0,0,1-.283-.489V214.759a.565.565,0,0,1,.847-.489l29.064,16.779a.564.564,0,0,1,.282.489v33.975a.564.564,0,0,1-.282.489A.571.571,0,0,1,1063.687,266.077Zm-28.5-17.67,27.934,16.127v-32.67l-27.934-16.127Z" transform="translate(-1034.059 -214.194)"/>
            </g>
            <g id="Grupo_175269" data-name="Grupo 175269" transform="translate(0 118.319)">
              <path id="Trazado_208336" data-name="Trazado 208336" d="M1063.766,270.324,1034.7,253.545v33.991l29.064,16.779Z" transform="translate(-1034.138 -252.98)" fill="#a6f4fe" fill-rule="evenodd"/>
              <path id="Trazado_208337" data-name="Trazado 208337" d="M1063.687,304.8a.572.572,0,0,1-.282-.075l-29.063-16.779a.565.565,0,0,1-.283-.489V253.466a.565.565,0,0,1,.847-.489l29.064,16.779a.565.565,0,0,1,.282.49v33.991a.564.564,0,0,1-.282.489A.571.571,0,0,1,1063.687,304.8Zm-28.5-17.67,27.934,16.127V270.571l-27.934-16.127Z" transform="translate(-1034.059 -252.902)"/>
            </g>
            <g id="Grupo_175270" data-name="Grupo 175270" transform="translate(58.144 50.353)">
              <path id="Trazado_208338" data-name="Trazado 208338" d="M1130.01,192.891l-29.063-16.779V210.1l29.063,16.779Z" transform="translate(-1100.382 -175.547)" fill="#00defc" fill-rule="evenodd"/>
              <path id="Trazado_208339" data-name="Trazado 208339" d="M1129.931,227.368a.57.57,0,0,1-.282-.076l-29.063-16.779a.565.565,0,0,1-.283-.489V176.033a.565.565,0,0,1,.847-.489l29.064,16.779a.564.564,0,0,1,.281.489V226.8a.565.565,0,0,1-.281.49A.571.571,0,0,1,1129.931,227.368Zm-28.5-17.67,27.933,16.127V193.138l-27.933-16.126Z" transform="translate(-1100.303 -175.468)"/>
            </g>
            <g id="Grupo_175271" data-name="Grupo 175271" transform="translate(87.207 50.353)">
              <path id="Trazado_208340" data-name="Trazado 208340" d="M1134.059,192.891l29.063-16.779V210.1l-29.063,16.779Z" transform="translate(-1133.494 -175.547)" fill="#00defc" fill-rule="evenodd"/>
              <path id="Trazado_208341" data-name="Trazado 208341" d="M1133.98,227.368a.565.565,0,0,1-.565-.565V192.812a.564.564,0,0,1,.283-.489l29.064-16.779a.565.565,0,0,1,.847.489v33.991a.565.565,0,0,1-.283.489l-29.063,16.779A.571.571,0,0,1,1133.98,227.368Zm.564-34.229v32.686l27.934-16.127V177.012Z" transform="translate(-1133.415 -175.468)"/>
            </g>
            <g id="Grupo_175272" data-name="Grupo 175272" transform="translate(58.144 33.575)">
              <path id="Trazado_208342" data-name="Trazado 208342" d="M1100.946,173.774,1130.01,157l29.063,16.779-29.063,16.779Z" transform="translate(-1100.382 -156.43)" fill="#d9faff" fill-rule="evenodd"/>
              <path id="Trazado_208343" data-name="Trazado 208343" d="M1129.931,191.04a.571.571,0,0,1-.282-.075l-29.063-16.779a.564.564,0,0,1,0-.978l29.063-16.779a.566.566,0,0,1,.565,0l29.063,16.779a.564.564,0,0,1,0,.978l-29.063,16.779A.572.572,0,0,1,1129.931,191.04ZM1102,173.7l27.934,16.126,27.934-16.126-27.934-16.127Z" transform="translate(-1100.303 -156.352)"/>
            </g>
            <g id="Grupo_175273" data-name="Grupo 175273" transform="translate(29.063 16.779)">
              <path id="Trazado_208344" data-name="Trazado 208344" d="M1067.815,154.655l29.08-16.8,29.064,16.8L1096.9,171.434Z" transform="translate(-1067.25 -137.295)" fill="#d9faff" fill-rule="evenodd"/>
              <path id="Trazado_208345" data-name="Trazado 208345" d="M1096.816,171.92a.557.557,0,0,1-.282-.075l-29.081-16.778a.565.565,0,0,1,0-.979l29.081-16.8a.559.559,0,0,1,.564,0l29.064,16.8a.566.566,0,0,1,0,.979L1097.1,171.845A.559.559,0,0,1,1096.816,171.92Zm-27.95-17.344,27.95,16.127,27.934-16.127-27.934-16.143Z" transform="translate(-1067.171 -137.216)"/>
            </g>
            <g id="Grupo_175274" data-name="Grupo 175274" transform="translate(116.271 50.354)">
              <path id="Trazado_208346" data-name="Trazado 208346" d="M1196.252,192.891l-29.081-16.779V210.1l29.081,16.779Z" transform="translate(-1166.607 -175.547)" fill="#00defc" fill-rule="evenodd"/>
              <path id="Trazado_208347" data-name="Trazado 208347" d="M1196.173,227.368a.571.571,0,0,1-.282-.075l-29.08-16.779a.564.564,0,0,1-.283-.489V176.033a.566.566,0,0,1,.847-.49l29.08,16.779a.563.563,0,0,1,.282.489V226.8a.563.563,0,0,1-.564.565Zm-28.515-17.67,27.951,16.127V193.138l-27.951-16.127Z" transform="translate(-1166.528 -175.469)"/>
            </g>
            <g id="Grupo_175275" data-name="Grupo 175275" transform="translate(145.351 50.353)">
              <path id="Trazado_208348" data-name="Trazado 208348" d="M1200.3,192.891l29.064-16.779V210.1L1200.3,226.882Z" transform="translate(-1199.738 -175.547)" fill="#00defc" fill-rule="evenodd"/>
              <path id="Trazado_208349" data-name="Trazado 208349" d="M1200.224,227.368a.565.565,0,0,1-.565-.565V192.812a.564.564,0,0,1,.283-.489l29.064-16.779a.565.565,0,0,1,.847.489v33.991a.565.565,0,0,1-.282.489l-29.063,16.779A.569.569,0,0,1,1200.224,227.368Zm.565-34.229v32.686l27.934-16.127V177.012Z" transform="translate(-1199.659 -175.468)"/>
            </g>
            <g id="Grupo_175276" data-name="Grupo 175276" transform="translate(116.271 33.575)">
              <path id="Trazado_208350" data-name="Trazado 208350" d="M1167.171,173.774,1196.252,157l29.063,16.779-29.063,16.779Z" transform="translate(-1166.607 -156.43)" fill="#d9faff" fill-rule="evenodd"/>
              <path id="Trazado_208351" data-name="Trazado 208351" d="M1196.173,191.04a.571.571,0,0,1-.282-.075l-29.08-16.779a.565.565,0,0,1,0-.979l29.08-16.779a.565.565,0,0,1,.565,0l29.063,16.779a.564.564,0,0,1,0,.978l-29.063,16.779A.57.57,0,0,1,1196.173,191.04Zm-27.95-17.344,27.95,16.126,27.934-16.126-27.934-16.127Z" transform="translate(-1166.528 -156.352)"/>
            </g>
            <g id="Grupo_175277" data-name="Grupo 175277" transform="translate(87.207 16.779)">
              <path id="Trazado_208352" data-name="Trazado 208352" d="M1134.059,154.655l29.063-16.8,29.081,16.8-29.081,16.779Z" transform="translate(-1133.494 -137.295)" fill="#d9faff" fill-rule="evenodd"/>
              <path id="Trazado_208353" data-name="Trazado 208353" d="M1163.043,171.92a.555.555,0,0,1-.282-.075L1133.7,155.066a.565.565,0,0,1,0-.979l29.063-16.8a.56.56,0,0,1,.565,0l29.081,16.8a.565.565,0,0,1,0,.979l-29.08,16.778A.558.558,0,0,1,1163.043,171.92Zm-27.934-17.344,27.934,16.127,27.951-16.127-27.951-16.143Z" transform="translate(-1133.415 -137.216)"/>
            </g>
            <g id="Grupo_175278" data-name="Grupo 175278" transform="translate(58.144)">
              <path id="Trazado_208354" data-name="Trazado 208354" d="M1100.946,135.522l29.063-16.779,29.063,16.779-29.063,16.8Z" transform="translate(-1100.382 -118.178)" fill="#d9faff" fill-rule="evenodd"/>
              <path id="Trazado_208355" data-name="Trazado 208355" d="M1129.931,152.8a.568.568,0,0,1-.282-.075l-29.064-16.8a.565.565,0,0,1,0-.978l29.063-16.779a.566.566,0,0,1,.565,0l29.063,16.779a.564.564,0,0,1,0,.978l-29.063,16.8A.572.572,0,0,1,1129.931,152.8ZM1102,135.444l27.934,16.143,27.935-16.143-27.935-16.127Z" transform="translate(-1100.303 -118.1)"/>
            </g>
            <g id="Grupo_175279" data-name="Grupo 175279" transform="translate(116.271 84.345)">
              <path id="Trazado_208356" data-name="Trazado 208356" d="M1196.252,231.617l-29.081-16.779v33.974l29.081,16.779Z" transform="translate(-1166.607 -214.273)" fill="#00defc" fill-rule="evenodd"/>
              <path id="Trazado_208357" data-name="Trazado 208357" d="M1196.173,266.077a.571.571,0,0,1-.282-.075l-29.08-16.779a.564.564,0,0,1-.283-.489V214.759a.566.566,0,0,1,.847-.49l29.08,16.779a.563.563,0,0,1,.282.489v33.975a.564.564,0,0,1-.282.489A.57.57,0,0,1,1196.173,266.077Zm-28.515-17.67,27.951,16.127v-32.67l-27.951-16.127Z" transform="translate(-1166.528 -214.195)"/>
            </g>
            <g id="Grupo_175280" data-name="Grupo 175280" transform="translate(145.351 84.344)">
              <path id="Trazado_208358" data-name="Trazado 208358" d="M1200.3,231.617l29.064-16.779v33.974L1200.3,265.591Z" transform="translate(-1199.738 -214.273)" fill="#ffb30b" fill-rule="evenodd"/>
              <path id="Trazado_208359" data-name="Trazado 208359" d="M1200.224,266.077a.572.572,0,0,1-.283-.075.564.564,0,0,1-.283-.489V231.538a.564.564,0,0,1,.283-.489l29.064-16.779a.565.565,0,0,1,.847.489v33.974a.565.565,0,0,1-.282.489L1200.507,266A.57.57,0,0,1,1200.224,266.077Zm.565-34.213v32.67l27.934-16.127v-32.67Z" transform="translate(-1199.659 -214.194)"/>
            </g>
            <g id="Grupo_175281" data-name="Grupo 175281" transform="translate(145.351 118.319)">
              <path id="Trazado_208360" data-name="Trazado 208360" d="M1200.3,270.324l29.064-16.779v33.991L1200.3,304.315Z" transform="translate(-1199.738 -252.98)" fill="#00defc" fill-rule="evenodd"/>
              <path id="Trazado_208361" data-name="Trazado 208361" d="M1200.224,304.8a.572.572,0,0,1-.283-.075.564.564,0,0,1-.283-.489V270.246a.566.566,0,0,1,.283-.49l29.064-16.779a.565.565,0,0,1,.847.489v33.991a.565.565,0,0,1-.282.489l-29.063,16.779A.57.57,0,0,1,1200.224,304.8Zm.565-34.229v32.686l27.934-16.127V254.444Z" transform="translate(-1199.659 -252.902)"/>
            </g>
            <g id="Grupo_175282" data-name="Grupo 175282" transform="translate(87.207 84.344)">
              <path id="Trazado_208362" data-name="Trazado 208362" d="M1134.059,231.617l29.063-16.779v33.974l-29.063,16.779Z" transform="translate(-1133.494 -214.273)" fill="#00defc" fill-rule="evenodd"/>
              <path id="Trazado_208363" data-name="Trazado 208363" d="M1133.98,266.077a.565.565,0,0,1-.565-.564V231.538a.564.564,0,0,1,.283-.489l29.064-16.779a.565.565,0,0,1,.847.489v33.974a.565.565,0,0,1-.283.489L1134.263,266A.571.571,0,0,1,1133.98,266.077Zm.564-34.213v32.67l27.934-16.127v-32.67Z" transform="translate(-1133.415 -214.194)"/>
            </g>
            <g id="Grupo_175283" data-name="Grupo 175283" transform="translate(58.144 117.903)">
              <path id="Trazado_208364" data-name="Trazado 208364" d="M1130.01,269.85l-29.063-16.779v33.991l29.063,16.779Z" transform="translate(-1100.382 -252.506)" fill="#a6f4fe" fill-rule="evenodd"/>
              <path id="Trazado_208365" data-name="Trazado 208365" d="M1129.931,304.327a.57.57,0,0,1-.282-.076l-29.063-16.779a.564.564,0,0,1-.283-.489V252.992a.565.565,0,0,1,.847-.489l29.064,16.779a.564.564,0,0,1,.281.489v33.992a.564.564,0,0,1-.281.489A.571.571,0,0,1,1129.931,304.327Zm-28.5-17.669,27.933,16.126V270.1l-27.933-16.126Z" transform="translate(-1100.303 -252.428)"/>
            </g>
            <g id="Grupo_175284" data-name="Grupo 175284" transform="translate(87.207 117.903)">
              <path id="Trazado_208366" data-name="Trazado 208366" d="M1134.059,269.85l29.063-16.779v33.991l-29.063,16.779Z" transform="translate(-1133.494 -252.506)" fill="#00b1c9" fill-rule="evenodd"/>
              <path id="Trazado_208367" data-name="Trazado 208367" d="M1133.98,304.327a.565.565,0,0,1-.565-.564V269.771a.564.564,0,0,1,.283-.489l29.064-16.779a.565.565,0,0,1,.847.489v33.991a.564.564,0,0,1-.283.489l-29.063,16.779A.571.571,0,0,1,1133.98,304.327Zm.564-34.229v32.686l27.934-16.126V253.971Z" transform="translate(-1133.415 -252.428)"/>
            </g>
            <g id="Grupo_175285" data-name="Grupo 175285" transform="translate(58.144 101.123)">
              <path id="Trazado_208368" data-name="Trazado 208368" d="M1100.946,250.733l29.063-16.779,29.063,16.779-29.063,16.779Z" transform="translate(-1100.382 -233.389)" fill="#00defc" fill-rule="evenodd"/>
              <path id="Trazado_208369" data-name="Trazado 208369" d="M1129.931,268a.57.57,0,0,1-.282-.076l-29.063-16.779a.564.564,0,0,1,0-.978l29.063-16.779a.566.566,0,0,1,.565,0l29.063,16.779a.564.564,0,0,1,0,.978l-29.063,16.779A.571.571,0,0,1,1129.931,268ZM1102,250.655l27.934,16.126,27.934-16.126-27.934-16.126Z" transform="translate(-1100.303 -233.311)"/>
            </g>
            <g id="Grupo_175294" data-name="Grupo 175294" transform="translate(58.069 84.34)">
              <g id="Grupo_175289" data-name="Grupo 175289" transform="translate(28.995)">
                <g id="Grupo_175286" data-name="Grupo 175286" transform="translate(0 16.779)">
                  <path id="Trazado_208370" data-name="Trazado 208370" d="M1162.959,250.729,1133.9,233.95V267.94l29.063,16.779Z" transform="translate(-1133.331 -233.384)" fill="#a6f4fe" fill-rule="evenodd"/>
                  <path id="Trazado_208371" data-name="Trazado 208371" d="M1162.88,285.206a.557.557,0,0,1-.282-.076l-29.064-16.779a.565.565,0,0,1-.283-.489V233.871a.566.566,0,0,1,.848-.49l29.063,16.779a.564.564,0,0,1,.283.489V284.64a.567.567,0,0,1-.565.565Zm-28.5-17.67,27.935,16.126V250.976l-27.935-16.127Z" transform="translate(-1133.252 -233.306)"/>
                </g>
                <g id="Grupo_175287" data-name="Grupo 175287" transform="translate(29.064 16.779)">
                  <path id="Trazado_208372" data-name="Trazado 208372" d="M1167.008,250.729l29.08-16.779V267.94l-29.08,16.779Z" transform="translate(-1166.444 -233.384)" fill="#ffb30b" fill-rule="evenodd"/>
                  <path id="Trazado_208373" data-name="Trazado 208373" d="M1166.929,285.206a.567.567,0,0,1-.564-.565V250.65a.565.565,0,0,1,.282-.489l29.08-16.779a.565.565,0,0,1,.847.49v33.991a.564.564,0,0,1-.282.489l-29.081,16.779A.571.571,0,0,1,1166.929,285.206Zm.565-34.229v32.686l27.95-16.127V234.849Z" transform="translate(-1166.365 -233.306)"/>
                </g>
                <g id="Grupo_175288" data-name="Grupo 175288">
                  <path id="Trazado_208374" data-name="Trazado 208374" d="M1133.9,231.612l29.063-16.779,29.08,16.779-29.08,16.779Z" transform="translate(-1133.331 -214.268)" fill="#a6f4fe" fill-rule="evenodd"/>
                  <path id="Trazado_208375" data-name="Trazado 208375" d="M1162.88,248.878a.558.558,0,0,1-.282-.076l-29.064-16.779a.565.565,0,0,1,0-.979l29.064-16.779a.564.564,0,0,1,.564,0l29.081,16.779a.566.566,0,0,1,0,.979L1163.163,248.8A.57.57,0,0,1,1162.88,248.878Zm-27.933-17.344,27.933,16.126,27.95-16.126-27.95-16.127Z" transform="translate(-1133.252 -214.19)"/>
                </g>
              </g>
              <g id="Grupo_175293" data-name="Grupo 175293" transform="translate(0 16.945)">
                <g id="Grupo_175290" data-name="Grupo 175290" transform="translate(0 16.779)">
                  <path id="Trazado_208376" data-name="Trazado 208376" d="M1129.925,270.034l-29.064-16.779v33.991l29.064,16.779Z" transform="translate(-1100.297 -252.69)" fill="#ffb30b" fill-rule="evenodd"/>
                  <path id="Trazado_208377" data-name="Trazado 208377" d="M1129.846,304.511a.559.559,0,0,1-.282-.076L1100.5,287.657a.566.566,0,0,1-.283-.49V253.176a.565.565,0,0,1,.847-.489l29.064,16.779a.564.564,0,0,1,.283.489v33.991a.565.565,0,0,1-.565.564Zm-28.5-17.669,27.935,16.126V270.281l-27.935-16.126Z" transform="translate(-1100.218 -252.612)"/>
                </g>
                <g id="Grupo_175291" data-name="Grupo 175291" transform="translate(29.064 16.779)">
                  <path id="Trazado_208378" data-name="Trazado 208378" d="M1133.974,270.034l29.08-16.779v33.991l-29.08,16.779Z" transform="translate(-1133.41 -252.69)" fill="#ffb30b" fill-rule="evenodd"/>
                  <path id="Trazado_208379" data-name="Trazado 208379" d="M1133.9,304.511a.564.564,0,0,1-.565-.564V269.956a.564.564,0,0,1,.283-.49l29.08-16.779a.564.564,0,0,1,.847.489v33.991a.565.565,0,0,1-.282.49l-29.08,16.778A.561.561,0,0,1,1133.9,304.511Zm.565-34.229v32.687l27.95-16.127V254.155Z" transform="translate(-1133.331 -252.612)"/>
                </g>
                <g id="Grupo_175292" data-name="Grupo 175292">
                  <path id="Trazado_208380" data-name="Trazado 208380" d="M1100.862,250.918l29.064-16.779,29.08,16.779-29.08,16.779Z" transform="translate(-1100.297 -233.574)" fill="#a6f4fe" fill-rule="evenodd"/>
                  <path id="Trazado_208381" data-name="Trazado 208381" d="M1129.846,268.183a.56.56,0,0,1-.282-.075L1100.5,251.329a.565.565,0,0,1,0-.979l29.063-16.779a.565.565,0,0,1,.565,0l29.08,16.779a.565.565,0,0,1,0,.979l-29.08,16.779A.561.561,0,0,1,1129.846,268.183Zm-27.933-17.344,27.933,16.127,27.95-16.127-27.95-16.126Z" transform="translate(-1100.218 -233.495)"/>
                </g>
              </g>
            </g>
            <g id="Grupo_175307" data-name="Grupo 175307" transform="translate(29.075 50.45)">
              <g id="Grupo_175298" data-name="Grupo 175298">
                <g id="Grupo_175295" data-name="Grupo 175295" transform="translate(0 16.779)">
                  <path id="Trazado_208382" data-name="Trazado 208382" d="M1096.891,212.117l-29.064-16.779v33.991l29.064,16.779Z" transform="translate(-1067.263 -194.773)" fill="#a6f4fe" fill-rule="evenodd"/>
                  <path id="Trazado_208383" data-name="Trazado 208383" d="M1096.812,246.594a.562.562,0,0,1-.282-.075l-29.063-16.779a.563.563,0,0,1-.283-.489V195.259a.565.565,0,0,1,.847-.489l29.064,16.779a.564.564,0,0,1,.283.489v33.991a.565.565,0,0,1-.566.564Zm-28.5-17.669,27.935,16.126V212.364l-27.935-16.126Z" transform="translate(-1067.184 -194.695)"/>
                </g>
                <g id="Grupo_175296" data-name="Grupo 175296" transform="translate(29.064 16.779)">
                  <path id="Trazado_208384" data-name="Trazado 208384" d="M1100.94,212.117l29.08-16.779v33.991l-29.08,16.779Z" transform="translate(-1100.375 -194.773)" fill="#00defc" fill-rule="evenodd"/>
                  <path id="Trazado_208385" data-name="Trazado 208385" d="M1100.861,246.594a.564.564,0,0,1-.564-.564V212.039a.564.564,0,0,1,.283-.49l29.08-16.779a.565.565,0,0,1,.847.489V229.25a.566.566,0,0,1-.283.49l-29.08,16.779A.561.561,0,0,1,1100.861,246.594Zm.565-34.229v32.687l27.95-16.127V196.238Z" transform="translate(-1100.297 -194.695)"/>
                </g>
                <g id="Grupo_175297" data-name="Grupo 175297">
                  <path id="Trazado_208386" data-name="Trazado 208386" d="M1067.827,193l29.064-16.779L1125.971,193l-29.08,16.779Z" transform="translate(-1067.263 -175.657)" fill="#d9faff" fill-rule="evenodd"/>
                  <path id="Trazado_208387" data-name="Trazado 208387" d="M1096.812,210.266a.562.562,0,0,1-.282-.076l-29.063-16.779a.565.565,0,0,1,0-.979l29.063-16.779a.566.566,0,0,1,.565,0l29.08,16.779a.565.565,0,0,1,0,.979l-29.08,16.779A.562.562,0,0,1,1096.812,210.266Zm-27.933-17.344,27.933,16.127,27.951-16.127L1096.812,176.8Z" transform="translate(-1067.184 -175.578)"/>
                </g>
              </g>
              <g id="Grupo_175302" data-name="Grupo 175302" transform="translate(57.989)">
                <g id="Grupo_175299" data-name="Grupo 175299" transform="translate(0 16.779)">
                  <path id="Trazado_208388" data-name="Trazado 208388" d="M1162.959,212.117,1133.9,195.338v33.991l29.063,16.779Z" transform="translate(-1133.331 -194.773)" fill="#a6f4fe" fill-rule="evenodd"/>
                  <path id="Trazado_208389" data-name="Trazado 208389" d="M1162.88,246.594a.557.557,0,0,1-.282-.075l-29.064-16.779a.564.564,0,0,1-.283-.489V195.259a.566.566,0,0,1,.848-.489l29.063,16.779a.563.563,0,0,1,.283.489v33.991a.565.565,0,0,1-.283.489A.558.558,0,0,1,1162.88,246.594Zm-28.5-17.669,27.935,16.126V212.364l-27.935-16.126Z" transform="translate(-1133.252 -194.695)"/>
                </g>
                <g id="Grupo_175300" data-name="Grupo 175300" transform="translate(29.064 16.779)">
                  <path id="Trazado_208390" data-name="Trazado 208390" d="M1167.008,212.117l29.08-16.779v33.991l-29.08,16.779Z" transform="translate(-1166.444 -194.773)" fill="#00defc" fill-rule="evenodd"/>
                  <path id="Trazado_208391" data-name="Trazado 208391" d="M1166.929,246.594a.557.557,0,0,1-.282-.075.563.563,0,0,1-.282-.489V212.039a.566.566,0,0,1,.282-.49l29.08-16.779a.565.565,0,0,1,.847.489V229.25a.565.565,0,0,1-.282.49l-29.081,16.779A.562.562,0,0,1,1166.929,246.594Zm.565-34.229v32.687l27.95-16.127V196.238Z" transform="translate(-1166.365 -194.695)"/>
                </g>
                <g id="Grupo_175301" data-name="Grupo 175301">
                  <path id="Trazado_208392" data-name="Trazado 208392" d="M1133.9,193l29.063-16.779L1192.039,193l-29.08,16.779Z" transform="translate(-1133.331 -175.657)" fill="#d9faff" fill-rule="evenodd"/>
                  <path id="Trazado_208393" data-name="Trazado 208393" d="M1162.88,210.266a.556.556,0,0,1-.282-.076l-29.064-16.779a.565.565,0,0,1,0-.979l29.064-16.779a.564.564,0,0,1,.564,0l29.081,16.779a.566.566,0,0,1,0,.979l-29.081,16.779A.561.561,0,0,1,1162.88,210.266Zm-27.933-17.344,27.933,16.127,27.95-16.127L1162.88,176.8Z" transform="translate(-1133.252 -175.578)"/>
                </g>
              </g>
              <g id="Grupo_175306" data-name="Grupo 175306" transform="translate(28.995 16.945)">
                <g id="Grupo_175303" data-name="Grupo 175303" transform="translate(0 16.779)">
                  <path id="Trazado_208394" data-name="Trazado 208394" d="M1129.925,231.423l-29.064-16.779v33.991l29.064,16.779Z" transform="translate(-1100.297 -214.079)" fill="#a6f4fe" fill-rule="evenodd"/>
                  <path id="Trazado_208395" data-name="Trazado 208395" d="M1129.846,265.9a.569.569,0,0,1-.282-.076L1100.5,249.045a.565.565,0,0,1-.283-.489V214.565a.565.565,0,0,1,.847-.489l29.064,16.779a.566.566,0,0,1,.283.49v33.99a.565.565,0,0,1-.565.565Zm-28.5-17.67,27.935,16.127V231.67l-27.935-16.126Z" transform="translate(-1100.218 -214.001)"/>
                </g>
                <g id="Grupo_175304" data-name="Grupo 175304" transform="translate(29.064 16.779)">
                  <path id="Trazado_208396" data-name="Trazado 208396" d="M1133.974,231.423l29.08-16.779v33.991l-29.08,16.779Z" transform="translate(-1133.41 -214.079)" fill="#00defc" fill-rule="evenodd"/>
                  <path id="Trazado_208397" data-name="Trazado 208397" d="M1133.9,265.9a.564.564,0,0,1-.565-.565v-33.99a.564.564,0,0,1,.283-.49l29.08-16.779a.564.564,0,0,1,.847.489v33.991a.563.563,0,0,1-.282.489l-29.08,16.779A.57.57,0,0,1,1133.9,265.9Zm.565-34.229v32.686l27.95-16.127V215.543Z" transform="translate(-1133.331 -214.001)"/>
                </g>
                <g id="Grupo_175305" data-name="Grupo 175305">
                  <path id="Trazado_208398" data-name="Trazado 208398" d="M1100.862,212.306l29.064-16.779,29.08,16.779-29.08,16.779Z" transform="translate(-1100.297 -194.962)" fill="#d9faff" fill-rule="evenodd"/>
                  <path id="Trazado_208399" data-name="Trazado 208399" d="M1129.846,229.572a.569.569,0,0,1-.282-.075L1100.5,212.717a.564.564,0,0,1,0-.978l29.063-16.779a.565.565,0,0,1,.565,0l29.08,16.779a.564.564,0,0,1,0,.978l-29.08,16.779A.57.57,0,0,1,1129.846,229.572Zm-27.933-17.344,27.933,16.126,27.95-16.126-27.95-16.126Z" transform="translate(-1100.218 -194.884)"/>
                </g>
              </g>
            </g>
          </g>
          <g id="Grupo_175360" data-name="Grupo 175360" transform="translate(0 0)">
            <g id="Grupo_175309" data-name="Grupo 175309" transform="translate(58.144 151.893)">
              <path id="Trazado_208400" data-name="Trazado 208400" d="M889.01,308.576,859.946,291.8v33.974l29.064,16.8Z" transform="translate(-859.381 -291.232)" fill="#a6f4fe" fill-rule="evenodd"/>
              <path id="Trazado_208401" data-name="Trazado 208401" d="M888.931,343.053a.567.567,0,0,1-.282-.076l-29.064-16.8a.564.564,0,0,1-.282-.489V291.718a.565.565,0,0,1,.847-.489l29.064,16.779a.565.565,0,0,1,.282.49v33.991a.564.564,0,0,1-.282.489A.57.57,0,0,1,888.931,343.053Zm-28.5-17.686,27.933,16.142V308.823L860.433,292.7Z" transform="translate(-859.303 -291.154)"/>
            </g>
            <g id="Grupo_175310" data-name="Grupo 175310" transform="translate(87.207 151.893)">
              <path id="Trazado_208402" data-name="Trazado 208402" d="M893.059,308.576,922.123,291.8v33.974l-29.064,16.8Z" transform="translate(-892.494 -291.232)" fill="#00defc" fill-rule="evenodd"/>
              <path id="Trazado_208403" data-name="Trazado 208403" d="M892.98,343.053a.565.565,0,0,1-.565-.564V308.5a.566.566,0,0,1,.283-.49l29.064-16.779a.565.565,0,0,1,.847.489v33.974a.565.565,0,0,1-.283.489l-29.063,16.8A.57.57,0,0,1,892.98,343.053Zm.564-34.229v32.685l27.934-16.142V292.7Z" transform="translate(-892.415 -291.154)"/>
            </g>
            <g id="Grupo_175311" data-name="Grupo 175311" transform="translate(29.063 101.123)">
              <path id="Trazado_208404" data-name="Trazado 208404" d="M855.9,250.733l-29.08-16.779v33.974l29.08,16.8Z" transform="translate(-826.25 -233.389)" fill="#ffb30b" fill-rule="evenodd"/>
              <path id="Trazado_208405" data-name="Trazado 208405" d="M855.816,285.211a.559.559,0,0,1-.282-.076l-29.081-16.8a.565.565,0,0,1-.282-.489V233.875a.565.565,0,0,1,.847-.489L856.1,250.166a.565.565,0,0,1,.283.489v33.991a.567.567,0,0,1-.565.565ZM827.3,267.524l27.951,16.143V250.981L827.3,234.854Z" transform="translate(-826.171 -233.311)"/>
            </g>
            <g id="Grupo_175312" data-name="Grupo 175312" transform="translate(29.063 84.344)">
              <path id="Trazado_208406" data-name="Trazado 208406" d="M826.815,231.617l29.08-16.779,29.064,16.779L855.9,248.4Z" transform="translate(-826.25 -214.273)" fill="#00defc" fill-rule="evenodd"/>
              <path id="Trazado_208407" data-name="Trazado 208407" d="M855.816,248.882a.559.559,0,0,1-.282-.076l-29.081-16.779a.565.565,0,0,1,0-.979l29.081-16.779a.564.564,0,0,1,.564,0l29.064,16.778a.566.566,0,0,1,0,.979L856.1,248.806A.56.56,0,0,1,855.816,248.882Zm-27.949-17.345,27.949,16.127,27.934-16.127-27.934-16.126Z" transform="translate(-826.171 -214.194)"/>
            </g>
            <g id="Grupo_175313" data-name="Grupo 175313" transform="translate(29.063 135.098)">
              <path id="Trazado_208408" data-name="Trazado 208408" d="M855.9,289.457l-29.08-16.8v33.991l29.08,16.779Z" transform="translate(-826.25 -272.097)" fill="#ffb30b" fill-rule="evenodd"/>
              <path id="Trazado_208409" data-name="Trazado 208409" d="M855.816,323.918a.558.558,0,0,1-.282-.076l-29.081-16.779a.565.565,0,0,1-.282-.489V272.583a.565.565,0,0,1,.848-.49l29.08,16.8a.565.565,0,0,1,.283.489v33.974a.567.567,0,0,1-.565.565ZM827.3,306.247l27.951,16.127v-32.67L827.3,273.561Z" transform="translate(-826.171 -272.018)"/>
            </g>
            <g id="Grupo_175314" data-name="Grupo 175314" transform="translate(116.271 135.098)">
              <path id="Trazado_208410" data-name="Trazado 208410" d="M926.172,289.457l29.08-16.8v33.991l-29.08,16.779Z" transform="translate(-925.607 -272.097)" fill="#00defc" fill-rule="evenodd"/>
              <path id="Trazado_208411" data-name="Trazado 208411" d="M926.092,323.918a.567.567,0,0,1-.564-.565V289.379a.563.563,0,0,1,.283-.489l29.08-16.8a.564.564,0,0,1,.847.49v33.991a.563.563,0,0,1-.283.489l-29.08,16.779A.561.561,0,0,1,926.092,323.918Zm.565-34.213v32.67l27.95-16.127V273.561Z" transform="translate(-925.528 -272.018)"/>
            </g>
            <g id="Grupo_175315" data-name="Grupo 175315" transform="translate(87.207 118.319)">
              <path id="Trazado_208412" data-name="Trazado 208412" d="M893.059,270.324l29.064-16.779,29.08,16.779-29.08,16.8Z" transform="translate(-892.494 -252.98)" fill="#00defc" fill-rule="evenodd"/>
              <path id="Trazado_208413" data-name="Trazado 208413" d="M922.043,287.606a.562.562,0,0,1-.283-.076l-29.063-16.8a.565.565,0,0,1,0-.979l29.064-16.779a.564.564,0,0,1,.565,0l29.08,16.779a.565.565,0,0,1,0,.979l-29.081,16.8A.561.561,0,0,1,922.043,287.606Zm-27.933-17.36,27.933,16.143,27.951-16.143-27.951-16.127Z" transform="translate(-892.415 -252.902)"/>
            </g>
            <g id="Grupo_175319" data-name="Grupo 175319" transform="translate(0 33.575)">
              <g id="Grupo_175316" data-name="Grupo 175316" transform="translate(0 16.779)">
                <path id="Trazado_208414" data-name="Trazado 208414" d="M822.766,192.891,793.7,176.112V210.1l29.064,16.779Z" transform="translate(-793.138 -175.547)" fill="#a6f4fe" fill-rule="evenodd"/>
                <path id="Trazado_208415" data-name="Trazado 208415" d="M822.687,227.368a.571.571,0,0,1-.283-.076l-29.063-16.779a.565.565,0,0,1-.283-.489V176.033a.565.565,0,0,1,.847-.489l29.064,16.779a.564.564,0,0,1,.282.489V226.8a.564.564,0,0,1-.564.565Zm-28.5-17.67,27.933,16.127V193.138l-27.933-16.126Z" transform="translate(-793.059 -175.468)"/>
              </g>
              <g id="Grupo_175317" data-name="Grupo 175317" transform="translate(29.063 16.779)">
                <path id="Trazado_208416" data-name="Trazado 208416" d="M826.815,192.891l29.08-16.779V210.1l-29.08,16.779Z" transform="translate(-826.25 -175.547)" fill="#00defc" fill-rule="evenodd"/>
                <path id="Trazado_208417" data-name="Trazado 208417" d="M826.736,227.368a.564.564,0,0,1-.565-.565V192.812a.565.565,0,0,1,.282-.489l29.081-16.779a.566.566,0,0,1,.847.49v33.991a.565.565,0,0,1-.283.489l-29.081,16.779A.566.566,0,0,1,826.736,227.368Zm.565-34.229v32.686L855.252,209.7V177.011Z" transform="translate(-826.171 -175.468)"/>
              </g>
              <g id="Grupo_175318" data-name="Grupo 175318">
                <path id="Trazado_208418" data-name="Trazado 208418" d="M793.7,173.774,822.766,157l29.08,16.779-29.08,16.779Z" transform="translate(-793.138 -156.43)" fill="#d9faff" fill-rule="evenodd"/>
                <path id="Trazado_208419" data-name="Trazado 208419" d="M822.687,191.04a.571.571,0,0,1-.283-.075l-29.063-16.779a.564.564,0,0,1,0-.978L822.4,156.427a.564.564,0,0,1,.565,0l29.08,16.779a.565.565,0,0,1,0,.979l-29.08,16.779A.566.566,0,0,1,822.687,191.04ZM794.753,173.7l27.934,16.126,27.95-16.126-27.95-16.127Z" transform="translate(-793.059 -156.352)"/>
              </g>
            </g>
            <g id="Grupo_175320" data-name="Grupo 175320" transform="translate(0 84.344)">
              <path id="Trazado_208420" data-name="Trazado 208420" d="M822.766,231.617,793.7,214.838v33.974l29.064,16.779Z" transform="translate(-793.138 -214.273)" fill="#a6f4fe" fill-rule="evenodd"/>
              <path id="Trazado_208421" data-name="Trazado 208421" d="M822.687,266.077A.571.571,0,0,1,822.4,266l-29.063-16.779a.565.565,0,0,1-.283-.489V214.759a.565.565,0,0,1,.847-.489l29.064,16.779a.563.563,0,0,1,.282.489v33.975a.564.564,0,0,1-.282.489A.571.571,0,0,1,822.687,266.077Zm-28.5-17.67,27.933,16.127v-32.67l-27.933-16.127Z" transform="translate(-793.059 -214.194)"/>
            </g>
            <g id="Grupo_175321" data-name="Grupo 175321" transform="translate(0 118.319)">
              <path id="Trazado_208422" data-name="Trazado 208422" d="M822.766,270.324,793.7,253.545v33.991l29.064,16.779Z" transform="translate(-793.138 -252.98)" fill="#a6f4fe" fill-rule="evenodd"/>
              <path id="Trazado_208423" data-name="Trazado 208423" d="M822.687,304.8a.571.571,0,0,1-.283-.075l-29.063-16.779a.565.565,0,0,1-.283-.489V253.466a.565.565,0,0,1,.847-.489l29.064,16.779a.565.565,0,0,1,.282.49v33.991a.564.564,0,0,1-.282.489A.571.571,0,0,1,822.687,304.8Zm-28.5-17.67,27.933,16.127V270.571l-27.933-16.127Z" transform="translate(-793.059 -252.902)"/>
            </g>
            <g id="Grupo_175322" data-name="Grupo 175322" transform="translate(58.144 50.353)">
              <path id="Trazado_208424" data-name="Trazado 208424" d="M889.01,192.891l-29.064-16.779V210.1l29.064,16.779Z" transform="translate(-859.381 -175.547)" fill="#00defc" fill-rule="evenodd"/>
              <path id="Trazado_208425" data-name="Trazado 208425" d="M888.931,227.368a.57.57,0,0,1-.282-.076l-29.063-16.779a.565.565,0,0,1-.282-.489V176.033a.565.565,0,0,1,.847-.489l29.064,16.779a.564.564,0,0,1,.282.489V226.8a.564.564,0,0,1-.565.565Zm-28.5-17.67,27.933,16.127V193.138l-27.933-16.126Z" transform="translate(-859.303 -175.468)"/>
            </g>
            <g id="Grupo_175323" data-name="Grupo 175323" transform="translate(87.207 50.353)">
              <path id="Trazado_208426" data-name="Trazado 208426" d="M893.059,192.891l29.064-16.779V210.1l-29.064,16.779Z" transform="translate(-892.494 -175.547)" fill="#00defc" fill-rule="evenodd"/>
              <path id="Trazado_208427" data-name="Trazado 208427" d="M892.98,227.368a.565.565,0,0,1-.565-.565V192.812a.565.565,0,0,1,.283-.489l29.064-16.779a.565.565,0,0,1,.847.489v33.991a.565.565,0,0,1-.283.489l-29.063,16.779A.57.57,0,0,1,892.98,227.368Zm.564-34.229v32.686L921.479,209.7V177.012Z" transform="translate(-892.415 -175.468)"/>
            </g>
            <g id="Grupo_175324" data-name="Grupo 175324" transform="translate(58.144 33.575)">
              <path id="Trazado_208428" data-name="Trazado 208428" d="M859.946,173.774,889.01,157l29.064,16.779L889.01,190.553Z" transform="translate(-859.381 -156.43)" fill="#ffb30b" fill-rule="evenodd"/>
              <path id="Trazado_208429" data-name="Trazado 208429" d="M888.931,191.04a.57.57,0,0,1-.282-.075l-29.063-16.779a.564.564,0,0,1,0-.978l29.063-16.779a.565.565,0,0,1,.565,0l29.063,16.779a.564.564,0,0,1,0,.978l-29.063,16.779A.57.57,0,0,1,888.931,191.04ZM861,173.7l27.934,16.126L916.865,173.7l-27.934-16.127Z" transform="translate(-859.303 -156.352)"/>
            </g>
            <g id="Grupo_175325" data-name="Grupo 175325" transform="translate(29.063 16.779)">
              <path id="Trazado_208430" data-name="Trazado 208430" d="M826.815,154.655l29.08-16.8,29.064,16.8L855.9,171.434Z" transform="translate(-826.25 -137.295)" fill="#d9faff" fill-rule="evenodd"/>
              <path id="Trazado_208431" data-name="Trazado 208431" d="M855.816,171.92a.557.557,0,0,1-.282-.075l-29.081-16.778a.565.565,0,0,1,0-.979l29.081-16.8a.56.56,0,0,1,.564,0l29.064,16.8a.566.566,0,0,1,0,.979L856.1,171.845A.558.558,0,0,1,855.816,171.92Zm-27.95-17.344,27.95,16.127,27.934-16.127-27.934-16.143Z" transform="translate(-826.171 -137.216)"/>
            </g>
            <g id="Grupo_175326" data-name="Grupo 175326" transform="translate(116.271 50.354)">
              <path id="Trazado_208432" data-name="Trazado 208432" d="M955.252,192.891l-29.08-16.779V210.1l29.08,16.779Z" transform="translate(-925.607 -175.547)" fill="#00defc" fill-rule="evenodd"/>
              <path id="Trazado_208433" data-name="Trazado 208433" d="M955.173,227.368a.571.571,0,0,1-.283-.075l-29.08-16.779a.565.565,0,0,1-.283-.489V176.033a.566.566,0,0,1,.847-.49l29.08,16.779a.563.563,0,0,1,.283.489V226.8a.564.564,0,0,1-.564.565ZM926.657,209.7l27.95,16.127V193.138l-27.95-16.127Z" transform="translate(-925.528 -175.469)"/>
            </g>
            <g id="Grupo_175327" data-name="Grupo 175327" transform="translate(145.351 50.353)">
              <path id="Trazado_208434" data-name="Trazado 208434" d="M959.3,192.891l29.064-16.779V210.1L959.3,226.882Z" transform="translate(-958.738 -175.547)" fill="#00defc" fill-rule="evenodd"/>
              <path id="Trazado_208435" data-name="Trazado 208435" d="M959.224,227.368a.565.565,0,0,1-.565-.565V192.812a.565.565,0,0,1,.283-.489l29.064-16.779a.565.565,0,0,1,.847.489v33.991a.565.565,0,0,1-.283.489l-29.063,16.779A.572.572,0,0,1,959.224,227.368Zm.564-34.229v32.686L987.723,209.7V177.012Z" transform="translate(-958.659 -175.468)"/>
            </g>
            <g id="Grupo_175328" data-name="Grupo 175328" transform="translate(116.271 33.575)">
              <path id="Trazado_208436" data-name="Trazado 208436" d="M926.172,173.774,955.252,157l29.063,16.779-29.063,16.779Z" transform="translate(-925.607 -156.43)" fill="#d9faff" fill-rule="evenodd"/>
              <path id="Trazado_208437" data-name="Trazado 208437" d="M955.173,191.04a.571.571,0,0,1-.283-.075l-29.08-16.779a.565.565,0,0,1,0-.979l29.08-16.779a.565.565,0,0,1,.565,0l29.063,16.779a.564.564,0,0,1,0,.978l-29.063,16.779A.57.57,0,0,1,955.173,191.04ZM927.223,173.7l27.95,16.126L983.106,173.7l-27.933-16.127Z" transform="translate(-925.528 -156.352)"/>
            </g>
            <g id="Grupo_175329" data-name="Grupo 175329" transform="translate(87.207 16.779)">
              <path id="Trazado_208438" data-name="Trazado 208438" d="M893.059,154.655l29.064-16.8,29.08,16.8-29.08,16.779Z" transform="translate(-892.494 -137.295)" fill="#ffb30b" fill-rule="evenodd"/>
              <path id="Trazado_208439" data-name="Trazado 208439" d="M922.043,171.92a.557.557,0,0,1-.282-.075L892.7,155.066a.565.565,0,0,1,0-.979l29.063-16.8a.561.561,0,0,1,.565,0l29.081,16.8a.565.565,0,0,1,0,.979l-29.08,16.778A.56.56,0,0,1,922.043,171.92ZM894.11,154.576,922.043,170.7l27.951-16.127-27.951-16.143Z" transform="translate(-892.415 -137.216)"/>
            </g>
            <g id="Grupo_175330" data-name="Grupo 175330" transform="translate(58.144)">
              <path id="Trazado_208440" data-name="Trazado 208440" d="M859.946,135.522l29.064-16.779,29.064,16.779-29.064,16.8Z" transform="translate(-859.381 -118.178)" fill="#d9faff" fill-rule="evenodd"/>
              <path id="Trazado_208441" data-name="Trazado 208441" d="M888.931,152.8a.568.568,0,0,1-.282-.075l-29.064-16.8a.565.565,0,0,1,0-.978l29.063-16.779a.565.565,0,0,1,.565,0l29.063,16.779a.564.564,0,0,1,0,.978l-29.063,16.8A.57.57,0,0,1,888.931,152.8ZM861,135.444l27.934,16.143,27.934-16.143-27.934-16.127Z" transform="translate(-859.303 -118.1)"/>
            </g>
            <g id="Grupo_175331" data-name="Grupo 175331" transform="translate(116.271 84.345)">
              <path id="Trazado_208442" data-name="Trazado 208442" d="M955.252,231.617l-29.08-16.779v33.974l29.08,16.779Z" transform="translate(-925.607 -214.273)" fill="#00defc" fill-rule="evenodd"/>
              <path id="Trazado_208443" data-name="Trazado 208443" d="M955.173,266.077a.571.571,0,0,1-.283-.075l-29.08-16.779a.565.565,0,0,1-.283-.489V214.759a.566.566,0,0,1,.847-.49l29.08,16.779a.563.563,0,0,1,.283.489v33.975a.564.564,0,0,1-.282.489A.57.57,0,0,1,955.173,266.077Zm-28.516-17.67,27.95,16.127v-32.67l-27.95-16.127Z" transform="translate(-925.528 -214.195)"/>
            </g>
            <g id="Grupo_175332" data-name="Grupo 175332" transform="translate(145.351 84.344)">
              <path id="Trazado_208444" data-name="Trazado 208444" d="M959.3,231.617l29.064-16.779v33.974L959.3,265.591Z" transform="translate(-958.738 -214.273)" fill="#00defc" fill-rule="evenodd"/>
              <path id="Trazado_208445" data-name="Trazado 208445" d="M959.224,266.077a.571.571,0,0,1-.283-.075.565.565,0,0,1-.283-.489V231.538a.565.565,0,0,1,.283-.489l29.064-16.779a.565.565,0,0,1,.847.489v33.974a.565.565,0,0,1-.283.489L959.507,266A.573.573,0,0,1,959.224,266.077Zm.564-34.213v32.67l27.935-16.127v-32.67Z" transform="translate(-958.659 -214.194)"/>
            </g>
            <g id="Grupo_175333" data-name="Grupo 175333" transform="translate(145.351 118.319)">
              <path id="Trazado_208446" data-name="Trazado 208446" d="M959.3,270.324l29.064-16.779v33.991L959.3,304.315Z" transform="translate(-958.738 -252.98)" fill="#00defc" fill-rule="evenodd"/>
              <path id="Trazado_208447" data-name="Trazado 208447" d="M959.224,304.8a.571.571,0,0,1-.283-.075.565.565,0,0,1-.283-.489V270.246a.566.566,0,0,1,.283-.49l29.064-16.779a.565.565,0,0,1,.847.489v33.991a.565.565,0,0,1-.283.489l-29.063,16.779A.573.573,0,0,1,959.224,304.8Zm.564-34.229v32.686l27.935-16.127V254.444Z" transform="translate(-958.659 -252.902)"/>
            </g>
            <g id="Grupo_175334" data-name="Grupo 175334" transform="translate(87.207 84.344)">
              <path id="Trazado_208448" data-name="Trazado 208448" d="M893.059,231.617l29.064-16.779v33.974l-29.064,16.779Z" transform="translate(-892.494 -214.273)" fill="#00defc" fill-rule="evenodd"/>
              <path id="Trazado_208449" data-name="Trazado 208449" d="M892.98,266.077A.571.571,0,0,1,892.7,266a.565.565,0,0,1-.283-.489V231.538a.565.565,0,0,1,.283-.489l29.064-16.779a.565.565,0,0,1,.847.489v33.974a.565.565,0,0,1-.283.489L893.263,266A.571.571,0,0,1,892.98,266.077Zm.564-34.213v32.67l27.934-16.127v-32.67Z" transform="translate(-892.415 -214.194)"/>
            </g>
            <g id="Grupo_175335" data-name="Grupo 175335" transform="translate(58.144 117.903)">
              <path id="Trazado_208450" data-name="Trazado 208450" d="M889.01,269.85l-29.064-16.779v33.991l29.064,16.779Z" transform="translate(-859.381 -252.506)" fill="#a6f4fe" fill-rule="evenodd"/>
              <path id="Trazado_208451" data-name="Trazado 208451" d="M888.931,304.327a.57.57,0,0,1-.282-.076l-29.063-16.779a.564.564,0,0,1-.282-.489V252.992a.565.565,0,0,1,.847-.489l29.064,16.779a.564.564,0,0,1,.282.489v33.992a.564.564,0,0,1-.282.489A.57.57,0,0,1,888.931,304.327Zm-28.5-17.669,27.933,16.126V270.1l-27.933-16.126Z" transform="translate(-859.303 -252.428)"/>
            </g>
            <g id="Grupo_175336" data-name="Grupo 175336" transform="translate(87.207 117.903)">
              <path id="Trazado_208452" data-name="Trazado 208452" d="M893.059,269.85l29.064-16.779v33.991l-29.064,16.779Z" transform="translate(-892.494 -252.506)" fill="#00b1c9" fill-rule="evenodd"/>
              <path id="Trazado_208453" data-name="Trazado 208453" d="M892.98,304.327a.565.565,0,0,1-.565-.564V269.771a.565.565,0,0,1,.283-.489L921.761,252.5a.565.565,0,0,1,.847.489v33.991a.564.564,0,0,1-.283.489l-29.063,16.779A.57.57,0,0,1,892.98,304.327Zm.564-34.229v32.686l27.934-16.126V253.971Z" transform="translate(-892.415 -252.428)"/>
            </g>
            <g id="Grupo_175337" data-name="Grupo 175337" transform="translate(58.144 101.123)">
              <path id="Trazado_208454" data-name="Trazado 208454" d="M859.946,250.733l29.064-16.779,29.064,16.779L889.01,267.512Z" transform="translate(-859.381 -233.389)" fill="#00defc" fill-rule="evenodd"/>
              <path id="Trazado_208455" data-name="Trazado 208455" d="M888.931,268a.569.569,0,0,1-.282-.076l-29.063-16.779a.564.564,0,0,1,0-.978l29.063-16.779a.565.565,0,0,1,.565,0l29.063,16.779a.564.564,0,0,1,0,.978l-29.063,16.779A.569.569,0,0,1,888.931,268ZM861,250.655l27.934,16.126,27.934-16.126-27.934-16.126Z" transform="translate(-859.303 -233.311)"/>
            </g>
            <g id="Grupo_175346" data-name="Grupo 175346" transform="translate(58.069 84.34)">
              <g id="Grupo_175341" data-name="Grupo 175341" transform="translate(28.995)">
                <g id="Grupo_175338" data-name="Grupo 175338" transform="translate(0 16.779)">
                  <path id="Trazado_208456" data-name="Trazado 208456" d="M921.959,250.729,892.9,233.95V267.94l29.063,16.779Z" transform="translate(-892.331 -233.384)" fill="#a6f4fe" fill-rule="evenodd"/>
                  <path id="Trazado_208457" data-name="Trazado 208457" d="M921.88,285.206a.557.557,0,0,1-.282-.076l-29.064-16.779a.565.565,0,0,1-.282-.489V233.871a.565.565,0,0,1,.848-.49l29.063,16.779a.565.565,0,0,1,.283.489V284.64a.567.567,0,0,1-.565.565Zm-28.5-17.67,27.934,16.126V250.976l-27.934-16.127Z" transform="translate(-892.252 -233.306)"/>
                </g>
                <g id="Grupo_175339" data-name="Grupo 175339" transform="translate(29.064 16.779)">
                  <path id="Trazado_208458" data-name="Trazado 208458" d="M926.008,250.729l29.08-16.779V267.94l-29.08,16.779Z" transform="translate(-925.443 -233.384)" fill="#00defc" fill-rule="evenodd"/>
                  <path id="Trazado_208459" data-name="Trazado 208459" d="M925.929,285.206a.567.567,0,0,1-.565-.565V250.65a.565.565,0,0,1,.283-.489l29.08-16.779a.564.564,0,0,1,.847.49v33.991a.564.564,0,0,1-.282.489L926.212,285.13A.571.571,0,0,1,925.929,285.206Zm.565-34.229v32.686l27.95-16.127V234.849Z" transform="translate(-925.365 -233.306)"/>
                </g>
                <g id="Grupo_175340" data-name="Grupo 175340">
                  <path id="Trazado_208460" data-name="Trazado 208460" d="M892.9,231.612l29.063-16.779,29.08,16.779-29.08,16.779Z" transform="translate(-892.331 -214.268)" fill="#a6f4fe" fill-rule="evenodd"/>
                  <path id="Trazado_208461" data-name="Trazado 208461" d="M921.88,248.878a.558.558,0,0,1-.282-.076l-29.064-16.779a.565.565,0,0,1,0-.979L921.6,214.265a.564.564,0,0,1,.564,0l29.081,16.779a.566.566,0,0,1,0,.979L922.163,248.8A.572.572,0,0,1,921.88,248.878Zm-27.933-17.344L921.88,247.66l27.95-16.126-27.95-16.127Z" transform="translate(-892.252 -214.19)"/>
                </g>
              </g>
              <g id="Grupo_175345" data-name="Grupo 175345" transform="translate(0 16.945)">
                <g id="Grupo_175342" data-name="Grupo 175342" transform="translate(0 16.779)">
                  <path id="Trazado_208462" data-name="Trazado 208462" d="M888.925,270.034l-29.064-16.779v33.991l29.064,16.779Z" transform="translate(-859.297 -252.69)" fill="#a6f4fe" fill-rule="evenodd"/>
                  <path id="Trazado_208463" data-name="Trazado 208463" d="M888.846,304.511a.562.562,0,0,1-.283-.076L859.5,287.657a.566.566,0,0,1-.283-.49V253.176a.565.565,0,0,1,.847-.489l29.064,16.779a.564.564,0,0,1,.282.489v33.991a.565.565,0,0,1-.565.564Zm-28.5-17.669,27.934,16.126V270.281l-27.934-16.126Z" transform="translate(-859.218 -252.612)"/>
                </g>
                <g id="Grupo_175343" data-name="Grupo 175343" transform="translate(29.064 16.779)">
                  <path id="Trazado_208464" data-name="Trazado 208464" d="M892.974,270.034l29.08-16.779v33.991l-29.08,16.779Z" transform="translate(-892.41 -252.69)" fill="#00defc" fill-rule="evenodd"/>
                  <path id="Trazado_208465" data-name="Trazado 208465" d="M892.9,304.511a.563.563,0,0,1-.564-.564V269.956a.564.564,0,0,1,.283-.49l29.08-16.779a.564.564,0,0,1,.847.489v33.991a.564.564,0,0,1-.283.49l-29.08,16.778A.562.562,0,0,1,892.9,304.511Zm.566-34.229v32.687l27.95-16.127V254.155Z" transform="translate(-892.331 -252.612)"/>
                </g>
                <g id="Grupo_175344" data-name="Grupo 175344">
                  <path id="Trazado_208466" data-name="Trazado 208466" d="M859.862,250.918l29.064-16.779,29.08,16.779L888.925,267.7Z" transform="translate(-859.297 -233.574)" fill="#a6f4fe" fill-rule="evenodd"/>
                  <path id="Trazado_208467" data-name="Trazado 208467" d="M888.846,268.183a.562.562,0,0,1-.283-.075L859.5,251.329a.565.565,0,0,1,0-.979l29.063-16.779a.566.566,0,0,1,.565,0l29.08,16.779a.565.565,0,0,1,0,.979l-29.08,16.779A.562.562,0,0,1,888.846,268.183Zm-27.934-17.344,27.934,16.127,27.95-16.127-27.95-16.126Z" transform="translate(-859.218 -233.495)"/>
                </g>
              </g>
            </g>
            <g id="Grupo_175359" data-name="Grupo 175359" transform="translate(29.075 50.45)">
              <g id="Grupo_175350" data-name="Grupo 175350">
                <g id="Grupo_175347" data-name="Grupo 175347" transform="translate(0 16.779)">
                  <path id="Trazado_208468" data-name="Trazado 208468" d="M855.891,212.117l-29.063-16.779v33.991l29.063,16.779Z" transform="translate(-826.263 -194.773)" fill="#ffb30b" fill-rule="evenodd"/>
                  <path id="Trazado_208469" data-name="Trazado 208469" d="M855.812,246.594a.562.562,0,0,1-.283-.075l-29.063-16.779a.564.564,0,0,1-.282-.489V195.259a.565.565,0,0,1,.847-.489l29.064,16.779a.563.563,0,0,1,.283.489v33.991a.564.564,0,0,1-.565.564Zm-28.5-17.669,27.934,16.126V212.364l-27.934-16.126Z" transform="translate(-826.184 -194.695)"/>
                </g>
                <g id="Grupo_175348" data-name="Grupo 175348" transform="translate(29.064 16.779)">
                  <path id="Trazado_208470" data-name="Trazado 208470" d="M859.94,212.117l29.081-16.779v33.991L859.94,246.108Z" transform="translate(-859.376 -194.773)" fill="#00defc" fill-rule="evenodd"/>
                  <path id="Trazado_208471" data-name="Trazado 208471" d="M859.861,246.594a.563.563,0,0,1-.564-.564V212.039a.564.564,0,0,1,.283-.49l29.08-16.779a.565.565,0,0,1,.847.489V229.25a.566.566,0,0,1-.282.49l-29.08,16.779A.561.561,0,0,1,859.861,246.594Zm.565-34.229v32.687l27.95-16.127V196.238Z" transform="translate(-859.297 -194.695)"/>
                </g>
                <g id="Grupo_175349" data-name="Grupo 175349">
                  <path id="Trazado_208472" data-name="Trazado 208472" d="M826.828,193l29.063-16.779L884.971,193l-29.08,16.779Z" transform="translate(-826.263 -175.657)" fill="#ffb30b" fill-rule="evenodd"/>
                  <path id="Trazado_208473" data-name="Trazado 208473" d="M855.812,210.266a.562.562,0,0,1-.283-.076l-29.063-16.779a.565.565,0,0,1,0-.979l29.063-16.779a.566.566,0,0,1,.565,0l29.08,16.779a.565.565,0,0,1,0,.979l-29.08,16.779A.562.562,0,0,1,855.812,210.266Zm-27.934-17.344,27.934,16.127,27.95-16.127L855.812,176.8Z" transform="translate(-826.184 -175.578)"/>
                </g>
              </g>
              <g id="Grupo_175354" data-name="Grupo 175354" transform="translate(57.989)">
                <g id="Grupo_175351" data-name="Grupo 175351" transform="translate(0 16.779)">
                  <path id="Trazado_208474" data-name="Trazado 208474" d="M921.959,212.117,892.9,195.338v33.991l29.063,16.779Z" transform="translate(-892.331 -194.773)" fill="#a6f4fe" fill-rule="evenodd"/>
                  <path id="Trazado_208475" data-name="Trazado 208475" d="M921.88,246.594a.557.557,0,0,1-.282-.075l-29.064-16.779a.564.564,0,0,1-.282-.489V195.259a.565.565,0,0,1,.848-.489l29.063,16.779a.564.564,0,0,1,.283.489v33.991a.565.565,0,0,1-.565.564Zm-28.5-17.669,27.934,16.126V212.364l-27.934-16.126Z" transform="translate(-892.252 -194.695)"/>
                </g>
                <g id="Grupo_175352" data-name="Grupo 175352" transform="translate(29.064 16.779)">
                  <path id="Trazado_208476" data-name="Trazado 208476" d="M926.008,212.117l29.08-16.779v33.991l-29.08,16.779Z" transform="translate(-925.443 -194.773)" fill="#00defc" fill-rule="evenodd"/>
                  <path id="Trazado_208477" data-name="Trazado 208477" d="M925.929,246.594a.557.557,0,0,1-.282-.075.563.563,0,0,1-.283-.489V212.039a.566.566,0,0,1,.283-.49l29.08-16.779a.564.564,0,0,1,.847.489V229.25a.565.565,0,0,1-.282.49l-29.081,16.779A.563.563,0,0,1,925.929,246.594Zm.565-34.229v32.687l27.95-16.127V196.238Z" transform="translate(-925.365 -194.695)"/>
                </g>
                <g id="Grupo_175353" data-name="Grupo 175353">
                  <path id="Trazado_208478" data-name="Trazado 208478" d="M892.9,193l29.063-16.779L951.04,193l-29.08,16.779Z" transform="translate(-892.331 -175.657)" fill="#d9faff" fill-rule="evenodd"/>
                  <path id="Trazado_208479" data-name="Trazado 208479" d="M921.88,210.266a.556.556,0,0,1-.282-.076l-29.064-16.779a.565.565,0,0,1,0-.979L921.6,175.654a.564.564,0,0,1,.564,0l29.081,16.779a.566.566,0,0,1,0,.979L922.163,210.19A.562.562,0,0,1,921.88,210.266Zm-27.933-17.344,27.933,16.127,27.95-16.127L921.88,176.8Z" transform="translate(-892.252 -175.578)"/>
                </g>
              </g>
              <g id="Grupo_175358" data-name="Grupo 175358" transform="translate(28.995 16.945)">
                <g id="Grupo_175355" data-name="Grupo 175355" transform="translate(0 16.779)">
                  <path id="Trazado_208480" data-name="Trazado 208480" d="M888.925,231.423l-29.064-16.779v33.991l29.064,16.779Z" transform="translate(-859.297 -214.079)" fill="#a6f4fe" fill-rule="evenodd"/>
                  <path id="Trazado_208481" data-name="Trazado 208481" d="M888.846,265.9a.571.571,0,0,1-.283-.076L859.5,249.045a.565.565,0,0,1-.283-.489V214.565a.565.565,0,0,1,.847-.489l29.064,16.779a.566.566,0,0,1,.282.49v33.99a.564.564,0,0,1-.565.565Zm-28.5-17.67,27.934,16.127V231.67l-27.934-16.126Z" transform="translate(-859.218 -214.001)"/>
                </g>
                <g id="Grupo_175356" data-name="Grupo 175356" transform="translate(29.064 16.779)">
                  <path id="Trazado_208482" data-name="Trazado 208482" d="M892.974,231.423l29.08-16.779v33.991l-29.08,16.779Z" transform="translate(-892.41 -214.079)" fill="#00defc" fill-rule="evenodd"/>
                  <path id="Trazado_208483" data-name="Trazado 208483" d="M892.9,265.9a.563.563,0,0,1-.564-.565v-33.99a.564.564,0,0,1,.283-.49l29.08-16.779a.564.564,0,0,1,.847.489v33.991a.563.563,0,0,1-.283.489l-29.08,16.779A.571.571,0,0,1,892.9,265.9Zm.566-34.229v32.686l27.95-16.127V215.543Z" transform="translate(-892.331 -214.001)"/>
                </g>
                <g id="Grupo_175357" data-name="Grupo 175357">
                  <path id="Trazado_208484" data-name="Trazado 208484" d="M859.862,212.306l29.064-16.779,29.08,16.779-29.08,16.779Z" transform="translate(-859.297 -194.962)" fill="#d9faff" fill-rule="evenodd"/>
                  <path id="Trazado_208485" data-name="Trazado 208485" d="M888.846,229.572a.572.572,0,0,1-.283-.075L859.5,212.717a.564.564,0,0,1,0-.978l29.063-16.779a.566.566,0,0,1,.565,0l29.08,16.779a.564.564,0,0,1,0,.978L889.129,229.5A.571.571,0,0,1,888.846,229.572Zm-27.934-17.344,27.934,16.126,27.95-16.126L888.846,196.1Z" transform="translate(-859.218 -194.884)"/>
                </g>
              </g>
            </g>
          </g>
          <path id="Trazado_212722" data-name="Trazado 212722" d="M9.565-2.426a1.677,1.677,0,0,0-.654-1.422A8.575,8.575,0,0,0,6.558-4.894,16.684,16.684,0,0,1,3.866-5.978q-2.7-1.46-2.7-3.933a3.831,3.831,0,0,1,.725-2.294A4.726,4.726,0,0,1,3.97-13.78a7.833,7.833,0,0,1,3.045-.567,7.13,7.13,0,0,1,3.029.616,4.823,4.823,0,0,1,2.065,1.738,4.548,4.548,0,0,1,.735,2.55H9.576a2.139,2.139,0,0,0-.686-1.694,2.822,2.822,0,0,0-1.929-.6,3.015,3.015,0,0,0-1.863.507A1.6,1.6,0,0,0,4.433-9.9a1.531,1.531,0,0,0,.779,1.3,8.8,8.8,0,0,0,2.294.981A9.91,9.91,0,0,1,11.57-5.542a4.145,4.145,0,0,1,1.275,3.094A3.818,3.818,0,0,1,11.286.783,6.821,6.821,0,0,1,7.091,1.954a8.1,8.1,0,0,1-3.334-.67A5.276,5.276,0,0,1,1.464-.552a4.7,4.7,0,0,1-.79-2.7h3.28q0,2.626,3.138,2.626A3.053,3.053,0,0,0,8.911-1.1,1.542,1.542,0,0,0,9.565-2.426Zm8.608,4.162h-3.16V-15h3.16Zm5.916,0h-3.16V-10.053h3.16ZM20.744-13.1a1.551,1.551,0,0,1,.474-1.166,1.781,1.781,0,0,1,1.291-.458,1.785,1.785,0,0,1,1.286.458,1.542,1.542,0,0,1,.479,1.166,1.546,1.546,0,0,1-.485,1.177,1.789,1.789,0,0,1-1.28.458,1.789,1.789,0,0,1-1.28-.458A1.546,1.546,0,0,1,20.744-13.1ZM31.585-.585A2.065,2.065,0,0,0,33-1.064a1.68,1.68,0,0,0,.567-1.275h2.953a4.039,4.039,0,0,1-.654,2.2A4.314,4.314,0,0,1,34.108,1.4a5.507,5.507,0,0,1-2.468.55A5.118,5.118,0,0,1,27.652.347a6.36,6.36,0,0,1-1.46-4.44V-4.3a6.287,6.287,0,0,1,1.449-4.347,5.059,5.059,0,0,1,3.977-1.623,4.959,4.959,0,0,1,3.547,1.258,4.456,4.456,0,0,1,1.357,3.35H33.568A2.164,2.164,0,0,0,33-7.157a1.889,1.889,0,0,0-1.438-.575,1.9,1.9,0,0,0-1.662.8,4.648,4.648,0,0,0-.561,2.6V-4A4.707,4.707,0,0,0,29.9-1.381,1.92,1.92,0,0,0,31.585-.585Zm12.16,2.539A5.787,5.787,0,0,1,39.523.363a5.655,5.655,0,0,1-1.629-4.238V-4.18a7.122,7.122,0,0,1,.686-3.176,5.038,5.038,0,0,1,1.945-2.157,5.459,5.459,0,0,1,2.871-.757A4.893,4.893,0,0,1,47.2-8.746,6.2,6.2,0,0,1,48.594-4.42v1.286H41.087a2.925,2.925,0,0,0,.921,1.852,2.783,2.783,0,0,0,1.945.7A3.4,3.4,0,0,0,46.8-1.9L48.343-.171a4.727,4.727,0,0,1-1.918,1.564A6.292,6.292,0,0,1,43.745,1.954Zm-.36-9.686a1.968,1.968,0,0,0-1.52.635,3.287,3.287,0,0,0-.746,1.817H45.5v-.252a2.344,2.344,0,0,0-.567-1.625A2.03,2.03,0,0,0,43.386-7.732Z" transform="translate(63.303 237.779)"/>
          <path id="Trazado_212721" data-name="Trazado 212721" d="M1.206,1.622V-13.449H5.843a7.042,7.042,0,0,1,3.556.9,6.244,6.244,0,0,1,2.448,2.546,7.854,7.854,0,0,1,.88,3.752v.694a7.876,7.876,0,0,1-.864,3.737A6.19,6.19,0,0,1,9.425.711a7.1,7.1,0,0,1-3.55.911ZM4.311-10.933V-.872h1.5A3.372,3.372,0,0,0,8.6-2.063,5.379,5.379,0,0,0,9.58-5.468v-.8a5.465,5.465,0,0,0-.952-3.483,3.361,3.361,0,0,0-2.784-1.185ZM17.944,1.622h-3v-11.2h3Zm-3.178-14.1a1.473,1.473,0,0,1,.45-1.108,1.692,1.692,0,0,1,1.227-.435,1.7,1.7,0,0,1,1.221.435,1.465,1.465,0,0,1,.455,1.108,1.469,1.469,0,0,1-.461,1.118,1.7,1.7,0,0,1-1.216.435,1.7,1.7,0,0,1-1.216-.435A1.469,1.469,0,0,1,14.766-12.476ZM25.065-.582a1.962,1.962,0,0,0,1.346-.455,1.6,1.6,0,0,0,.538-1.211h2.805a3.837,3.837,0,0,1-.621,2.086,4.1,4.1,0,0,1-1.672,1.47,5.232,5.232,0,0,1-2.345.523A4.862,4.862,0,0,1,21.329.3a6.042,6.042,0,0,1-1.387-4.218v-.2a5.973,5.973,0,0,1,1.377-4.13A4.806,4.806,0,0,1,25.1-9.784a4.711,4.711,0,0,1,3.369,1.2,4.233,4.233,0,0,1,1.289,3.183H26.949a2.056,2.056,0,0,0-.538-1.42,1.8,1.8,0,0,0-1.366-.546,1.8,1.8,0,0,0-1.579.762,4.416,4.416,0,0,0-.533,2.472v.311a4.472,4.472,0,0,0,.528,2.488A1.824,1.824,0,0,0,25.065-.582ZM36.617,1.829A5.5,5.5,0,0,1,32.606.318a5.372,5.372,0,0,1-1.547-4.027V-4a6.766,6.766,0,0,1,.652-3.017,4.786,4.786,0,0,1,1.848-2.05,5.186,5.186,0,0,1,2.728-.719A4.648,4.648,0,0,1,39.9-8.335a5.889,5.889,0,0,1,1.32,4.109V-3H34.091a2.779,2.779,0,0,0,.875,1.76,2.644,2.644,0,0,0,1.848.662,3.229,3.229,0,0,0,2.7-1.252l1.47,1.646A4.491,4.491,0,0,1,39.163,1.3,5.977,5.977,0,0,1,36.617,1.829Zm-.342-9.2a1.869,1.869,0,0,0-1.444.6,3.123,3.123,0,0,0-.709,1.726h4.161v-.239a2.227,2.227,0,0,0-.538-1.544A1.929,1.929,0,0,0,36.275-7.373Z" transform="translate(278.244 236.777)"/>
        </g>
      </g>
    </g>
  </g>
</svg>
