<svg xmlns="http://www.w3.org/2000/svg" width="85" height="85" viewBox="0 0 85 85">
  <g id="Grupo_176817" data-name="Grupo 176817" transform="translate(-180 -3825)">
    <g id="big-data" transform="translate(179 3824)">
      <g id="Grupo_176783" data-name="Grupo 176783" transform="translate(2.371 2.371)">
        <g id="Grupo_176768" data-name="Grupo 176768" transform="translate(60.323 76.774)">
          <path id="Trazado_212726" data-name="Trazado 212726" d="M46,58H56.968v5.484H46Z" transform="translate(-46 -58)" fill="#aab2bd"/>
        </g>
        <g id="Grupo_176769" data-name="Grupo 176769" transform="translate(10.968 76.774)">
          <path id="Trazado_212727" data-name="Trazado 212727" d="M10,58H20.968v5.484H10Z" transform="translate(-10 -58)" fill="#aab2bd"/>
        </g>
        <g id="Grupo_176770" data-name="Grupo 176770" transform="translate(49.355 71.29)">
          <path id="Trazado_212728" data-name="Trazado 212728" d="M70.9,54v1.371a4.107,4.107,0,0,1-4.113,4.113H42.113A4.107,4.107,0,0,1,38,55.371V54Z" transform="translate(-38 -54)" fill="#ccd1d9"/>
        </g>
        <g id="Grupo_176771" data-name="Grupo 176771" transform="translate(0 71.29)">
          <path id="Trazado_212729" data-name="Trazado 212729" d="M34.9,54v1.371a4.107,4.107,0,0,1-4.113,4.113H6.113A4.107,4.107,0,0,1,2,55.371V54Z" transform="translate(-2 -54)" fill="#ccd1d9"/>
        </g>
        <g id="Grupo_176772" data-name="Grupo 176772" transform="translate(49.355 54.839)">
          <path id="Trazado_212730" data-name="Trazado 212730" d="M70.9,46.113V58.452H38V46.113A4.107,4.107,0,0,1,42.113,42H66.79A4.107,4.107,0,0,1,70.9,46.113Z" transform="translate(-38 -42)" fill="#00defc"/>
        </g>
        <g id="Grupo_176773" data-name="Grupo 176773" transform="translate(76.774 20.565)">
          <circle id="Elipse_13917" data-name="Elipse 13917" cx="2.742" cy="2.742" r="2.742" fill="#00defc"/>
        </g>
        <g id="Grupo_176774" data-name="Grupo 176774" transform="translate(69.919 0)">
          <circle id="Elipse_13918" data-name="Elipse 13918" cx="2.742" cy="2.742" r="2.742" fill="#00defc"/>
        </g>
        <g id="Grupo_176775" data-name="Grupo 176775" transform="translate(68.548 35.645)">
          <circle id="Elipse_13919" data-name="Elipse 13919" cx="2.742" cy="2.742" r="2.742" fill="#00defc"/>
        </g>
        <g id="Grupo_176776" data-name="Grupo 176776" transform="translate(19.194 21.935)">
          <path id="Trazado_212731" data-name="Trazado 212731" d="M59.871,20.742V48.161A2.75,2.75,0,0,1,57.129,50.9H18.742A2.75,2.75,0,0,1,16,48.161V20.742A2.75,2.75,0,0,1,18.742,18H57.129A2.75,2.75,0,0,1,59.871,20.742Z" transform="translate(-16 -18)" fill="#ffb30b"/>
        </g>
        <g id="Grupo_176777" data-name="Grupo 176777" transform="translate(24.677 2.742)">
          <path id="Trazado_212732" data-name="Trazado 212732" d="M52.9,19.766v3.427H44.211a8.226,8.226,0,1,0-15.519,0H20V19.766a2.857,2.857,0,0,1,1.96-2.7,2.8,2.8,0,0,0,1.727-1.618l.206-.494a2.685,2.685,0,0,0,.219-1.083,2.769,2.769,0,0,0-.3-1.275,2.831,2.831,0,0,1,.521-3.29l.973-.973a2.837,2.837,0,0,1,2-.836,2.883,2.883,0,0,1,1.289.315,2.785,2.785,0,0,0,2.358.082l.494-.206A2.8,2.8,0,0,0,33.065,5.96,2.857,2.857,0,0,1,35.766,4h1.371a2.857,2.857,0,0,1,2.7,1.96,2.8,2.8,0,0,0,1.618,1.727l.494.206a2.685,2.685,0,0,0,1.083.219,2.769,2.769,0,0,0,1.275-.3,2.831,2.831,0,0,1,3.29.521l.973.973a2.836,2.836,0,0,1,.836,2,2.883,2.883,0,0,1-.315,1.289,2.785,2.785,0,0,0-.082,2.358l.206.494a2.8,2.8,0,0,0,1.727,1.618,2.857,2.857,0,0,1,1.96,2.7Z" transform="translate(-20 -4)" fill="#b9ddfc"/>
        </g>
        <g id="Grupo_176778" data-name="Grupo 176778" transform="translate(32.903 10.968)">
          <path id="Trazado_212733" data-name="Trazado 212733" d="M42.452,18.226a8.284,8.284,0,0,1-.466,2.742h-7.76a2.742,2.742,0,1,0-2.742-2.742,2.75,2.75,0,0,0,2.742,2.742h-7.76a8.228,8.228,0,1,1,15.985-2.742Z" transform="translate(-26 -10)" fill="#084a93"/>
        </g>
        <g id="Grupo_176779" data-name="Grupo 176779" transform="translate(0 54.839)">
          <path id="Trazado_212734" data-name="Trazado 212734" d="M34.9,46.113V58.452H2V46.113A4.107,4.107,0,0,1,6.113,42H30.79A4.107,4.107,0,0,1,34.9,46.113Z" transform="translate(-2 -42)" fill="#00defc"/>
        </g>
        <g id="Grupo_176780" data-name="Grupo 176780" transform="translate(8.226 35.645)">
          <circle id="Elipse_13920" data-name="Elipse 13920" cx="2.742" cy="2.742" r="2.742" fill="#00defc"/>
        </g>
        <g id="Grupo_176781" data-name="Grupo 176781" transform="translate(6.855 0)">
          <circle id="Elipse_13921" data-name="Elipse 13921" cx="2.742" cy="2.742" r="2.742" fill="#00defc"/>
        </g>
        <g id="Grupo_176782" data-name="Grupo 176782" transform="translate(0 20.565)">
          <circle id="Elipse_13922" data-name="Elipse 13922" cx="2.742" cy="2.742" r="2.742" fill="#00defc"/>
        </g>
      </g>
      <g id="Grupo_176784" data-name="Grupo 176784" transform="translate(1 1)">
        <path id="Trazado_212735" data-name="Trazado 212735" d="M80.516,55.1H66.554a4.067,4.067,0,0,0,.252-1.371V26.306a4.118,4.118,0,0,0-4.113-4.113H61.323V20.14a4.208,4.208,0,0,0-2.9-4,1.405,1.405,0,0,1-.886-.814c-.07-.181-.143-.361-.221-.539a1.412,1.412,0,0,1,.052-1.2A4.205,4.205,0,0,0,56.586,8.7l-.967-.965a4.205,4.205,0,0,0-4.882-.781,1.4,1.4,0,0,1-1.2.052c-.175-.077-.355-.149-.535-.221a1.407,1.407,0,0,1-.817-.888,4.208,4.208,0,0,0-4-2.9H42.817a4.208,4.208,0,0,0-4,2.9A1.4,1.4,0,0,1,38,6.787c-.18.07-.358.143-.536.221a1.412,1.412,0,0,1-1.2-.052,4.205,4.205,0,0,0-4.882.781l-.965.967a4.205,4.205,0,0,0-.781,4.882,1.41,1.41,0,0,1,.052,1.2c-.077.177-.151.356-.221.535a1.4,1.4,0,0,1-.888.817,4.208,4.208,0,0,0-2.9,4v2.054H24.306a4.118,4.118,0,0,0-4.113,4.113V53.726a4.067,4.067,0,0,0,.252,1.371H6.484A5.489,5.489,0,0,0,1,60.581V74.29a5.489,5.489,0,0,0,5.484,5.484h5.484v2.742H6.484v2.742H31.161V82.516H25.677V79.774h5.484a5.489,5.489,0,0,0,5.484-5.484V60.581a5.427,5.427,0,0,0-.762-2.742H51.118a5.415,5.415,0,0,0-.764,2.742V74.29a5.489,5.489,0,0,0,5.484,5.484h5.484v2.742H55.839v2.742H80.516V82.516H75.032V79.774h5.484A5.489,5.489,0,0,0,86,74.29V60.581A5.489,5.489,0,0,0,80.516,55.1ZM64.065,44.129H22.935V35.9H64.065ZM28.419,20.14a1.472,1.472,0,0,1,1.013-1.4,4.134,4.134,0,0,0,2.587-2.429c.058-.147.118-.293.18-.436a4.139,4.139,0,0,0-.119-3.526,1.471,1.471,0,0,1,.273-1.707l.965-.965A1.464,1.464,0,0,1,35.025,9.4a4.137,4.137,0,0,0,3.525.119c.145-.063.292-.123.439-.18a4.148,4.148,0,0,0,2.429-2.587,1.47,1.47,0,0,1,1.4-1.015h1.365a1.471,1.471,0,0,1,1.4,1.015A4.14,4.14,0,0,0,48.01,9.342c.147.058.293.118.437.18A4.145,4.145,0,0,0,51.974,9.4a1.469,1.469,0,0,1,1.707.273l.965.965a1.471,1.471,0,0,1,.273,1.707,4.137,4.137,0,0,0-.119,3.525q.093.216.181.44a4.139,4.139,0,0,0,2.587,2.428,1.471,1.471,0,0,1,1.013,1.4v2.054h-5.6a9.717,9.717,0,0,0,.115-1.371,9.6,9.6,0,0,0-19.194,0,9.718,9.718,0,0,0,.115,1.371h-5.6Zm13.71.683A1.371,1.371,0,1,1,43.5,22.194,1.373,1.373,0,0,1,42.129,20.823ZM43.5,16.71a4.118,4.118,0,0,0-4.113,4.113,4.067,4.067,0,0,0,.252,1.371H36.8a6.855,6.855,0,1,1,13.405,0H47.361a4.067,4.067,0,0,0,.252-1.371A4.118,4.118,0,0,0,43.5,16.71ZM24.306,24.935H62.694a1.373,1.373,0,0,1,1.371,1.371v6.855H22.935V26.306A1.373,1.373,0,0,1,24.306,24.935Zm-1.371,28.79V46.871H64.065v6.855A1.373,1.373,0,0,1,62.694,55.1H24.306A1.373,1.373,0,0,1,22.935,53.726Zm0,28.79H14.71V79.774h8.226Zm8.226-5.484H6.484A2.745,2.745,0,0,1,3.742,74.29H33.9A2.745,2.745,0,0,1,31.161,77.032ZM33.9,60.581V71.548H3.742V60.581a2.745,2.745,0,0,1,2.742-2.742H31.161A2.745,2.745,0,0,1,33.9,60.581Zm28.79-2.742H80.516a2.745,2.745,0,0,1,2.742,2.742V71.548H53.1V60.581a2.745,2.745,0,0,1,2.742-2.742Zm9.6,24.677H64.065V79.774H72.29Zm8.226-5.484H55.839A2.745,2.745,0,0,1,53.1,74.29H83.258A2.745,2.745,0,0,1,80.516,77.032Z" transform="translate(-1 -0.258)"/>
        <path id="Trazado_212736" data-name="Trazado 212736" d="M27,21h2.742v2.742H27Z" transform="translate(8.645 6.419)"/>
        <path id="Trazado_212737" data-name="Trazado 212737" d="M23,21h2.742v2.742H23Z" transform="translate(7.161 6.419)"/>
        <path id="Trazado_212738" data-name="Trazado 212738" d="M19,21h2.742v2.742H19Z" transform="translate(5.677 6.419)"/>
        <path id="Trazado_212739" data-name="Trazado 212739" d="M19,37h2.742v2.742H19Z" transform="translate(5.677 12.355)"/>
        <path id="Trazado_212740" data-name="Trazado 212740" d="M27,37h2.742v2.742H27Z" transform="translate(8.645 12.355)"/>
        <path id="Trazado_212741" data-name="Trazado 212741" d="M23,37h2.742v2.742H23Z" transform="translate(7.161 12.355)"/>
        <path id="Trazado_212742" data-name="Trazado 212742" d="M43,29h2.742v2.742H43Z" transform="translate(14.581 9.387)"/>
        <path id="Trazado_212743" data-name="Trazado 212743" d="M39,29h2.742v2.742H39Z" transform="translate(13.097 9.387)"/>
        <path id="Trazado_212744" data-name="Trazado 212744" d="M35,29h2.742v2.742H35Z" transform="translate(11.613 9.387)"/>
        <path id="Trazado_212745" data-name="Trazado 212745" d="M56.113,9.226A4.113,4.113,0,1,0,52,5.113,4.118,4.118,0,0,0,56.113,9.226Zm0-5.484a1.371,1.371,0,1,1-1.371,1.371A1.373,1.373,0,0,1,56.113,3.742Z" transform="translate(17.919 -1)"/>
        <path id="Trazado_212746" data-name="Trazado 212746" d="M57,20.113A4.113,4.113,0,1,0,61.113,16,4.118,4.118,0,0,0,57,20.113Zm5.484,0a1.371,1.371,0,1,1-1.371-1.371A1.373,1.373,0,0,1,62.484,20.113Z" transform="translate(19.774 4.565)"/>
        <path id="Trazado_212747" data-name="Trazado 212747" d="M55.113,35.226A4.113,4.113,0,1,0,51,31.113,4.118,4.118,0,0,0,55.113,35.226Zm0-5.484a1.371,1.371,0,1,1-1.371,1.371A1.373,1.373,0,0,1,55.113,29.742Z" transform="translate(17.548 8.645)"/>
        <path id="Trazado_212748" data-name="Trazado 212748" d="M57.968,29.081V14H47v2.742h8.226V29.081Z" transform="translate(16.065 3.823)"/>
        <path id="Trazado_212749" data-name="Trazado 212749" d="M47,12.742H63.452v2.742h2.742V10H47Z" transform="translate(16.065 2.339)"/>
        <path id="Trazado_212750" data-name="Trazado 212750" d="M49.484,5.742h2.742V3H46.742V7.113H44V9.855h5.484Z" transform="translate(14.952 -0.258)"/>
        <path id="Trazado_212751" data-name="Trazado 212751" d="M10.113,9.226A4.113,4.113,0,1,0,6,5.113,4.118,4.118,0,0,0,10.113,9.226Zm0-5.484A1.371,1.371,0,1,1,8.742,5.113,1.373,1.373,0,0,1,10.113,3.742Z" transform="translate(0.855 -1)"/>
        <path id="Trazado_212752" data-name="Trazado 212752" d="M5.113,24.226A4.113,4.113,0,1,0,1,20.113,4.118,4.118,0,0,0,5.113,24.226Zm0-5.484a1.371,1.371,0,1,1-1.371,1.371A1.373,1.373,0,0,1,5.113,18.742Z" transform="translate(-1 4.565)"/>
        <path id="Trazado_212753" data-name="Trazado 212753" d="M7,31.113A4.113,4.113,0,1,0,11.113,27,4.118,4.118,0,0,0,7,31.113Zm5.484,0a1.371,1.371,0,1,1-1.371-1.371A1.373,1.373,0,0,1,12.484,31.113Z" transform="translate(1.226 8.645)"/>
        <path id="Trazado_212754" data-name="Trazado 212754" d="M19.968,14H9V29.081h2.742V16.742h8.226Z" transform="translate(1.968 3.823)"/>
        <path id="Trazado_212755" data-name="Trazado 212755" d="M5.742,12.742H22.194V10H3v5.484H5.742Z" transform="translate(-0.258 2.339)"/>
        <path id="Trazado_212756" data-name="Trazado 212756" d="M16.742,9.855h5.484V7.113H19.484V3H14V5.742h2.742Z" transform="translate(3.823 -0.258)"/>
      </g>
    </g>
  </g>
</svg>
