<svg xmlns="http://www.w3.org/2000/svg" width="610" height="274" viewBox="0 0 610 274">
  <g id="Grupo_176818" data-name="Grupo 176818" transform="translate(-705 -2970)">
    <g id="Grupo_176746" data-name="Grupo 176746">
      <rect id="Rectángulo_298448" data-name="Rectángulo 298448" width="610" height="274" transform="translate(705 2970)" fill="none"/>
      <g id="Grupo_175197" data-name="Grupo 175197" transform="translate(400.379 377.529)">
        <g id="Grupo_175196" data-name="Grupo 175196" transform="translate(472 2595)">
          <g id="Grupo_175171" data-name="Grupo 175171" transform="translate(190.799 0)">
            <path id="Trazado_208171" data-name="Trazado 208171" d="M513.9,5.932a1.6,1.6,0,0,1-1.128-2.725L515.511.468a1.6,1.6,0,1,1,2.257,2.257l-2.739,2.739A1.59,1.59,0,0,1,513.9,5.932Z" transform="translate(-512.304 0)" fill="#231f20"/>
          </g>
          <g id="Grupo_175172" data-name="Grupo 175172" transform="translate(182.224 8.576)">
            <path id="Trazado_208172" data-name="Trazado 208172" d="M492.49,27.343a1.6,1.6,0,0,1-1.129-2.725l2.739-2.737a1.6,1.6,0,1,1,2.257,2.257l-2.739,2.737A1.592,1.592,0,0,1,492.49,27.343Z" transform="translate(-490.894 -21.413)" fill="#231f20"/>
          </g>
          <g id="Grupo_175173" data-name="Grupo 175173" transform="translate(190.799 8.576)">
            <path id="Trazado_208173" data-name="Trazado 208173" d="M516.64,27.343a1.591,1.591,0,0,1-1.128-.468l-2.74-2.737a1.6,1.6,0,1,1,2.257-2.257l2.74,2.737a1.6,1.6,0,0,1-1.129,2.725Z" transform="translate(-512.304 -21.413)" fill="#231f20"/>
          </g>
          <g id="Grupo_175174" data-name="Grupo 175174" transform="translate(182.224 0)">
            <path id="Trazado_208174" data-name="Trazado 208174" d="M495.23,5.932a1.59,1.59,0,0,1-1.129-.468l-2.739-2.739A1.6,1.6,0,0,1,493.619.468l2.739,2.739a1.6,1.6,0,0,1-1.128,2.725Z" transform="translate(-490.894 0)" fill="#231f20"/>
          </g>
          <g id="Grupo_175175" data-name="Grupo 175175" transform="translate(9.664 165.816)">
            <path id="Trazado_208175" data-name="Trazado 208175" d="M61.627,419.957a1.6,1.6,0,0,1-1.129-2.725l2.739-2.74a1.6,1.6,0,0,1,2.257,2.257l-2.739,2.739A1.59,1.59,0,0,1,61.627,419.957Z" transform="translate(-60.03 -414.025)" fill="#231f20"/>
          </g>
          <g id="Grupo_175176" data-name="Grupo 175176" transform="translate(1.089 174.39)">
            <path id="Trazado_208176" data-name="Trazado 208176" d="M40.217,441.365a1.6,1.6,0,0,1-1.129-2.725l2.739-2.739a1.6,1.6,0,0,1,2.257,2.257L41.345,440.9A1.593,1.593,0,0,1,40.217,441.365Z" transform="translate(-38.62 -435.433)" fill="#231f20"/>
          </g>
          <g id="Grupo_175177" data-name="Grupo 175177" transform="translate(9.664 174.39)">
            <path id="Trazado_208177" data-name="Trazado 208177" d="M64.365,441.365a1.592,1.592,0,0,1-1.129-.468L60.5,438.158a1.6,1.6,0,0,1,2.257-2.257l2.739,2.739a1.6,1.6,0,0,1-1.129,2.725Z" transform="translate(-60.03 -435.433)" fill="#231f20"/>
          </g>
          <g id="Grupo_175178" data-name="Grupo 175178" transform="translate(1.089 165.816)">
            <path id="Trazado_208178" data-name="Trazado 208178" d="M42.956,419.957a1.59,1.59,0,0,1-1.129-.468l-2.739-2.739a1.6,1.6,0,0,1,2.257-2.257l2.739,2.74a1.6,1.6,0,0,1-1.129,2.725Z" transform="translate(-38.62 -414.025)" fill="#231f20"/>
          </g>
          <g id="Grupo_175179" data-name="Grupo 175179" transform="translate(229.945 253.699)">
            <path id="Trazado_208179" data-name="Trazado 208179" d="M611.645,639.392a1.6,1.6,0,0,1-1.128-2.725l2.739-2.74a1.6,1.6,0,0,1,2.257,2.257l-2.739,2.739A1.591,1.591,0,0,1,611.645,639.392Z" transform="translate(-610.049 -633.459)" fill="#231f20"/>
          </g>
          <g id="Grupo_175180" data-name="Grupo 175180" transform="translate(221.372 262.273)">
            <path id="Trazado_208180" data-name="Trazado 208180" d="M590.237,660.8a1.6,1.6,0,0,1-1.128-2.725l2.74-2.739a1.6,1.6,0,1,1,2.257,2.257l-2.74,2.74A1.591,1.591,0,0,1,590.237,660.8Z" transform="translate(-588.641 -654.867)" fill="#231f20"/>
          </g>
          <g id="Grupo_175181" data-name="Grupo 175181" transform="translate(229.947 262.273)">
            <path id="Trazado_208181" data-name="Trazado 208181" d="M614.387,660.8a1.59,1.59,0,0,1-1.128-.467l-2.739-2.74a1.6,1.6,0,0,1,2.258-2.257l2.738,2.739a1.6,1.6,0,0,1-1.129,2.725Z" transform="translate(-610.052 -654.867)" fill="#231f20"/>
          </g>
          <g id="Grupo_175182" data-name="Grupo 175182" transform="translate(221.372 253.699)">
            <path id="Trazado_208182" data-name="Trazado 208182" d="M592.977,639.392a1.589,1.589,0,0,1-1.128-.468l-2.74-2.739a1.6,1.6,0,1,1,2.257-2.257l2.74,2.74a1.6,1.6,0,0,1-1.129,2.725Z" transform="translate(-588.641 -633.459)" fill="#231f20"/>
          </g>
          <path id="Trazado_208183" data-name="Trazado 208183" d="M380,136.761v45.4l45.4-20.325v-45.4Z" transform="translate(-242.19 -69.803)" fill="#fff"/>
          <path id="Trazado_208184" data-name="Trazado 208184" d="M312.039,136.761v45.4l-45.4-20.325v-45.4Z" transform="translate(-174.227 -69.803)" fill="#fff"/>
          <path id="Trazado_208185" data-name="Trazado 208185" d="M309.649,181.369a1.592,1.592,0,0,1-.652-.139l-45.4-20.323a1.6,1.6,0,0,1-.944-1.457v-45.4a1.6,1.6,0,0,1,2.249-1.457l45.4,20.326a1.6,1.6,0,0,1,.944,1.457v45.4a1.594,1.594,0,0,1-1.6,1.6Zm-43.806-22.955,42.21,18.9v-41.9l-42.21-18.9Z" transform="translate(-171.837 -67.414)" fill="#231f20"/>
          <path id="Trazado_208186" data-name="Trazado 208186" d="M357.431,86.021l-45.4,20.315-45.4-20.315,45.4-20.327Z" transform="translate(-174.22 -39.384)" fill="#fff"/>
          <path id="Trazado_208187" data-name="Trazado 208187" d="M606.748,136.761v45.4l45.4-20.325v-45.4Z" transform="translate(-378.124 -69.803)" fill="#fff"/>
          <path id="Trazado_208188" data-name="Trazado 208188" d="M538.784,136.761v45.4l-45.4-20.325v-45.4Z" transform="translate(-310.161 -69.803)" fill="#fff"/>
          <path id="Trazado_208189" data-name="Trazado 208189" d="M584.176,86.021l-45.4,20.315-45.4-20.315,45.4-20.327Z" transform="translate(-310.154 -39.384)" fill="#e7f3fe"/>
          <path id="Trazado_208190" data-name="Trazado 208190" d="M266.63,300.925v45.4L312.033,326V280.6Z" transform="translate(-174.223 -168.22)" fill="#ffe4a9"/>
          <path id="Trazado_208191" data-name="Trazado 208191" d="M198.666,300.925v45.4L153.263,326V280.6Z" transform="translate(-106.26 -168.22)" fill="#a6f4fe"/>
          <path id="Trazado_208192" data-name="Trazado 208192" d="M244.059,250.185l-45.4,20.315-45.4-20.315,45.4-20.327Z" transform="translate(-106.253 -137.801)" fill="#fff"/>
          <path id="Trazado_208193" data-name="Trazado 208193" d="M380,466.419v45.4l45.4-20.326v-45.4Z" transform="translate(-242.19 -267.434)" fill="#b9ddfc"/>
          <path id="Trazado_208194" data-name="Trazado 208194" d="M312.039,466.419v45.4l-45.4-20.326v-45.4Z" transform="translate(-174.227 -267.434)" fill="#fff"/>
          <path id="Trazado_208195" data-name="Trazado 208195" d="M357.431,415.679l-45.4,20.315-45.4-20.315,45.4-20.327Z" transform="translate(-174.22 -237.014)" fill="#fff"/>
          <g id="Grupo_175183" data-name="Grupo 175183" transform="translate(0 24.702)">
            <rect id="Rectángulo_298146" data-name="Rectángulo 298146" width="3.193" height="2.128" transform="translate(181.615 139.934)" fill="#231f20"/>
            <rect id="Rectángulo_298147" data-name="Rectángulo 298147" width="3.193" height="2.128" transform="translate(181.615 146.319)" fill="#231f20"/>
            <rect id="Rectángulo_298148" data-name="Rectángulo 298148" width="2.128" height="3.192" transform="translate(185.297 105.325) rotate(-24.094)" fill="#231f20"/>
            <rect id="Rectángulo_298149" data-name="Rectángulo 298149" width="2.128" height="3.192" transform="matrix(0.913, -0.408, 0.408, 0.913, 214.437, 92.28)" fill="#231f20"/>
            <rect id="Rectángulo_298150" data-name="Rectángulo 298150" width="2.129" height="3.192" transform="translate(220.264 89.672) rotate(-24.094)" fill="#231f20"/>
            <rect id="Rectángulo_298151" data-name="Rectángulo 298151" width="3.193" height="2.128" transform="translate(181.615 114.394)" fill="#231f20"/>
            <rect id="Rectángulo_298152" data-name="Rectángulo 298152" width="2.129" height="3.193" transform="translate(208.607 94.891) rotate(-24.13)" fill="#231f20"/>
            <rect id="Rectángulo_298153" data-name="Rectángulo 298153" width="2.128" height="3.192" transform="matrix(0.913, -0.408, 0.408, 0.913, 191.125, 102.716)" fill="#231f20"/>
            <rect id="Rectángulo_298154" data-name="Rectángulo 298154" width="3.193" height="2.128" transform="translate(181.615 133.549)" fill="#231f20"/>
            <rect id="Rectángulo_298155" data-name="Rectángulo 298155" width="3.193" height="2.128" transform="translate(181.615 108.008)" fill="#231f20"/>
            <rect id="Rectángulo_298156" data-name="Rectángulo 298156" width="2.129" height="3.193" transform="translate(202.779 97.499) rotate(-24.131)" fill="#231f20"/>
            <rect id="Rectángulo_298157" data-name="Rectángulo 298157" width="2.129" height="3.192" transform="matrix(0.913, -0.408, 0.408, 0.913, 196.952, 100.108)" fill="#231f20"/>
            <rect id="Rectángulo_298158" data-name="Rectángulo 298158" width="3.193" height="2.128" transform="translate(181.615 120.779)" fill="#231f20"/>
            <rect id="Rectángulo_298159" data-name="Rectángulo 298159" width="3.193" height="2.128" transform="translate(181.615 127.164)" fill="#231f20"/>
            <rect id="Rectángulo_298160" data-name="Rectángulo 298160" width="3.193" height="2.13" transform="matrix(0.409, -0.913, 0.913, 0.409, 172.121, 104.793)" fill="#231f20"/>
            <rect id="Rectángulo_298161" data-name="Rectángulo 298161" width="3.193" height="2.129" transform="translate(177.949 107.401) rotate(-65.849)" fill="#231f20"/>
            <rect id="Rectángulo_298162" data-name="Rectángulo 298162" width="3.192" height="2.128" transform="translate(160.467 99.576) rotate(-65.896)" fill="#231f20"/>
            <rect id="Rectángulo_298163" data-name="Rectángulo 298163" width="3.192" height="2.128" transform="translate(166.295 102.184) rotate(-65.902)" fill="#231f20"/>
            <rect id="Rectángulo_298164" data-name="Rectángulo 298164" width="3.193" height="2.129" transform="translate(142.982 91.748) rotate(-65.849)" fill="#231f20"/>
            <rect id="Rectángulo_298165" data-name="Rectángulo 298165" width="3.192" height="2.128" transform="translate(154.639 96.967) rotate(-65.902)" fill="#231f20"/>
            <rect id="Rectángulo_298166" data-name="Rectángulo 298166" width="3.193" height="2.13" transform="translate(148.81 94.357) rotate(-65.861)" fill="#231f20"/>
            <rect id="Rectángulo_298167" data-name="Rectángulo 298167" width="3.193" height="2.128" transform="translate(45.405 67.796)" fill="#231f20"/>
            <rect id="Rectángulo_298168" data-name="Rectángulo 298168" width="3.193" height="2.128" transform="translate(45.405 55.025)" fill="#231f20"/>
            <rect id="Rectángulo_298169" data-name="Rectángulo 298169" width="3.193" height="2.128" transform="translate(45.405 61.41)" fill="#231f20"/>
            <rect id="Rectángulo_298170" data-name="Rectángulo 298170" width="3.193" height="2.128" transform="translate(45.405 74.181)" fill="#231f20"/>
            <rect id="Rectángulo_298171" data-name="Rectángulo 298171" width="3.193" height="2.128" transform="translate(45.405 80.566)" fill="#231f20"/>
            <rect id="Rectángulo_298172" data-name="Rectángulo 298172" width="2.13" height="3.193" transform="translate(66.57 31.746) rotate(-24.126)" fill="#231f20"/>
            <rect id="Rectángulo_298173" data-name="Rectángulo 298173" width="2.128" height="3.192" transform="translate(72.399 29.135) rotate(-24.094)" fill="#231f20"/>
            <rect id="Rectángulo_298174" data-name="Rectángulo 298174" width="2.128" height="3.192" transform="translate(78.227 26.527) rotate(-24.096)" fill="#231f20"/>
            <rect id="Rectángulo_298175" data-name="Rectángulo 298175" width="2.129" height="3.192" transform="translate(84.055 23.919) rotate(-24.096)" fill="#231f20"/>
            <rect id="Rectángulo_298176" data-name="Rectángulo 298176" width="2.129" height="3.193" transform="translate(60.743 34.354) rotate(-24.126)" fill="#231f20"/>
            <rect id="Rectángulo_298177" data-name="Rectángulo 298177" width="3.193" height="2.128" transform="translate(45.405 42.255)" fill="#231f20"/>
            <rect id="Rectángulo_298178" data-name="Rectángulo 298178" width="2.128" height="3.192" transform="translate(49.088 39.572) rotate(-24.096)" fill="#231f20"/>
            <rect id="Rectángulo_298179" data-name="Rectángulo 298179" width="2.128" height="3.192" transform="translate(54.916 36.963) rotate(-24.096)" fill="#231f20"/>
            <rect id="Rectángulo_298180" data-name="Rectángulo 298180" width="3.193" height="2.128" transform="translate(45.405 48.64)" fill="#231f20"/>
            <rect id="Rectángulo_298181" data-name="Rectángulo 298181" width="3.193" height="2.129" transform="matrix(0.409, -0.913, 0.913, 0.409, 6.772, 25.995)" fill="#231f20"/>
            <rect id="Rectángulo_298182" data-name="Rectángulo 298182" width="3.193" height="2.13" transform="translate(12.599 28.603) rotate(-65.86)" fill="#231f20"/>
            <rect id="Rectángulo_298183" data-name="Rectángulo 298183" width="3.193" height="2.13" transform="matrix(0.409, -0.913, 0.913, 0.409, 35.911, 39.04)" fill="#231f20"/>
            <rect id="Rectángulo_298184" data-name="Rectángulo 298184" width="3.192" height="2.128" transform="translate(30.085 36.431) rotate(-65.901)" fill="#231f20"/>
            <rect id="Rectángulo_298185" data-name="Rectángulo 298185" width="3.193" height="2.129" transform="translate(41.739 41.648) rotate(-65.854)" fill="#231f20"/>
            <rect id="Rectángulo_298186" data-name="Rectángulo 298186" width="3.192" height="2.128" transform="translate(24.257 33.823) rotate(-65.902)" fill="#231f20"/>
            <rect id="Rectángulo_298187" data-name="Rectángulo 298187" width="3.192" height="2.128" transform="translate(18.429 31.214) rotate(-65.901)" fill="#231f20"/>
            <path id="Trazado_208196" data-name="Trazado 208196" d="M311.512,83.56a1.564,1.564,0,0,0-.157-.615,1.454,1.454,0,0,0-.067-.146,1.573,1.573,0,0,0-.427-.462c-.027-.02-.038-.053-.066-.072s-.068-.016-.1-.033-.077-.057-.121-.077l-45.4-20.328a1.585,1.585,0,0,0-1.305,0L219.114,81.865,174.361,61.829a1.586,1.586,0,0,0-1.306,0L128.312,81.861,83.548,61.818a1.588,1.588,0,0,0-1.305,0l-45.4,20.328A1.6,1.6,0,0,0,35.9,83.6V129a1.6,1.6,0,0,0,.944,1.457l44.463,19.907v44.394a1.6,1.6,0,0,0,.944,1.457l44.462,19.9v44.918a1.6,1.6,0,0,0,.944,1.457l45.4,20.326c.024.011.05.007.075.016a1.415,1.415,0,0,0,1.155,0c.024-.009.051-.005.075-.016l45.4-20.326a1.6,1.6,0,0,0,.944-1.457v-44.93l44.464-19.9a1.6,1.6,0,0,0,.945-1.457V150.369l44.458-19.9a1.6,1.6,0,0,0,.943-1.457v-45.4C311.523,83.59,311.512,83.577,311.512,83.56Zm-90.795,2.518,31.807,14.232,10.4,4.658v41.9l-42.211-18.9Zm-45.408,60.794v-41.9l27.226-12.189,14.985-6.705v41.9Zm-1.6-81.839L215.2,83.612l-18.3,8.194-23.187,10.375-41.5-18.568Zm-43.8,21.047,42.2,18.884V146.9l-42.2-18.894ZM39.093,127.966V85.252l.343-.768L82.9,65.023l43.823,19.623v43.32L82.9,147.579Zm87.618,84.655L84.5,193.724v-41.9l29.24,13.083,12.972,5.807Zm-2.46-46.507L86.814,149.357,128.3,130.783,169.8,149.359,128.3,167.928Zm5.652,4.6,42.207-18.892v41.9l-42.207,18.9ZM172.117,278.9,129.906,260v-41.9l25.557,11.435L172.117,237Zm1.592-44.694-11.856-5.3-29.63-13.265,41.486-18.576L215.2,215.639l-14.761,6.608ZM217.52,260l-42.211,18.9V237l29.9-13.388L217.52,218.1Zm45.409-66.285L219.106,213.33l-43.8-19.611V151l.341-.763,43.458-19.458L262.929,150.4Zm1.59-91.537-3.13-1.4L223.033,83.609,264.52,65.034l41.491,18.578-18.473,8.269Zm43.811,25.8-42.21,18.9v-41.9l26.768-11.984,15.442-6.909Z" transform="translate(-35.901 -61.678)" fill="#231f20"/>
          </g>
          <g id="Grupo_175184" data-name="Grupo 175184" transform="translate(71.937 13.08)">
            <path id="Trazado_208197" data-name="Trazado 208197" d="M234.34,35.852H217.115a1.6,1.6,0,0,1,0-3.193H234.34a1.6,1.6,0,0,1,0,3.193Z" transform="translate(-215.519 -32.659)" fill="#231f20"/>
          </g>
          <g id="Grupo_175185" data-name="Grupo 175185" transform="translate(87.509 19.349)">
            <path id="Trazado_208198" data-name="Trazado 208198" d="M264.422,51.5H256a1.6,1.6,0,1,1,0-3.192h8.424a1.6,1.6,0,1,1,0,3.192Z" transform="translate(-254.401 -48.312)" fill="#231f20"/>
          </g>
          <g id="Grupo_175186" data-name="Grupo 175186" transform="translate(96.973 13.08)">
            <path id="Trazado_208199" data-name="Trazado 208199" d="M287.656,35.852h-8.027a1.6,1.6,0,0,1,0-3.193h8.027a1.6,1.6,0,1,1,0,3.193Z" transform="translate(-278.033 -32.659)" fill="#231f20"/>
          </g>
          <g id="Grupo_175187" data-name="Grupo 175187" transform="translate(79.722 19.349)">
            <path id="Trazado_208200" data-name="Trazado 208200" d="M238.2,51.5h-1.643a1.6,1.6,0,1,1,0-3.192H238.2a1.6,1.6,0,0,1,0,3.192Z" transform="translate(-234.958 -48.312)" fill="#231f20"/>
          </g>
          <g id="Grupo_175188" data-name="Grupo 175188" transform="translate(217.58 194.248)">
            <path id="Trazado_208201" data-name="Trazado 208201" d="M597.992,488.209H580.769a1.6,1.6,0,0,1,0-3.193h17.223a1.6,1.6,0,0,1,0,3.193Z" transform="translate(-579.173 -485.016)" fill="#231f20"/>
          </g>
          <g id="Grupo_175189" data-name="Grupo 175189" transform="translate(233.151 200.519)">
            <path id="Trazado_208202" data-name="Trazado 208202" d="M628.073,503.866h-8.425a1.6,1.6,0,1,1,0-3.192h8.425a1.6,1.6,0,1,1,0,3.192Z" transform="translate(-618.052 -500.674)" fill="#231f20"/>
          </g>
          <g id="Grupo_175190" data-name="Grupo 175190" transform="translate(242.616 194.248)">
            <path id="Trazado_208203" data-name="Trazado 208203" d="M651.309,488.209h-8.027a1.6,1.6,0,0,1,0-3.193h8.027a1.6,1.6,0,0,1,0,3.193Z" transform="translate(-641.686 -485.016)" fill="#231f20"/>
          </g>
          <g id="Grupo_175191" data-name="Grupo 175191" transform="translate(225.364 200.519)">
            <path id="Trazado_208204" data-name="Trazado 208204" d="M601.849,503.866h-1.642a1.6,1.6,0,1,1,0-3.192h1.642a1.6,1.6,0,0,1,0,3.192Z" transform="translate(-598.611 -500.674)" fill="#231f20"/>
          </g>
          <g id="Grupo_175192" data-name="Grupo 175192" transform="translate(28.878 244.806)">
            <path id="Trazado_208205" data-name="Trazado 208205" d="M126.825,614.446H109.6a1.6,1.6,0,1,1,0-3.193h17.223a1.6,1.6,0,1,1,0,3.193Z" transform="translate(-108.005 -611.253)" fill="#231f20"/>
          </g>
          <g id="Grupo_175193" data-name="Grupo 175193" transform="translate(44.449 251.074)">
            <path id="Trazado_208206" data-name="Trazado 208206" d="M156.906,630.1H148.48a1.6,1.6,0,1,1,0-3.193h8.425a1.6,1.6,0,1,1,0,3.193Z" transform="translate(-146.884 -626.905)" fill="#231f20"/>
          </g>
          <g id="Grupo_175194" data-name="Grupo 175194" transform="translate(53.913 244.806)">
            <path id="Trazado_208207" data-name="Trazado 208207" d="M180.141,614.446h-8.028a1.6,1.6,0,1,1,0-3.193h8.028a1.6,1.6,0,0,1,0,3.193Z" transform="translate(-170.516 -611.253)" fill="#231f20"/>
          </g>
          <g id="Grupo_175195" data-name="Grupo 175195" transform="translate(36.662 251.074)">
            <path id="Trazado_208208" data-name="Trazado 208208" d="M130.681,630.1h-1.642a1.6,1.6,0,1,1,0-3.193h1.642a1.6,1.6,0,1,1,0,3.193Z" transform="translate(-127.443 -626.905)" fill="#231f20"/>
          </g>
          <path id="Trazado_208209" data-name="Trazado 208209" d="M642.739,16.568a5.9,5.9,0,1,1-5.9-5.9A5.9,5.9,0,0,1,642.739,16.568Z" transform="translate(-392.63 -6.397)" fill="#ffe4a9"/>
          <circle id="Elipse_13283" data-name="Elipse 13283" cx="5.898" cy="5.898" r="5.898" transform="translate(8.101 10.171)" fill="#b9ddfc"/>
          <circle id="Elipse_13284" data-name="Elipse 13284" cx="5.898" cy="5.898" r="5.898" transform="translate(41.107 193.082)" fill="#e7f3fe"/>
          <circle id="Elipse_13285" data-name="Elipse 13285" cx="5.898" cy="5.898" r="5.898" transform="translate(160.278 249.398)" fill="#ffe4a9"/>
        </g>
      </g>
    </g>
  </g>
</svg>
