<svg xmlns="http://www.w3.org/2000/svg" width="400" height="523.188" viewBox="0 0 400 523.188">
  <g id="Grupo_176832" data-name="Grupo 176832" transform="translate(-180 -1986.544)">
    <g id="Grupo_175158" data-name="Grupo 175158" transform="translate(0 41)">
      <g id="Grupo_175157" data-name="Grupo 175157" transform="translate(180 1943)">
        <g id="Grupo_175069" data-name="Grupo 175069" transform="translate(14.091 2.544)">
          <path id="Trazado_212322" data-name="Trazado 212322" d="M185.506,0C287.958,0,371.012,83.054,371.012,185.506v273.27H0V185.506C0,83.054,83.054,0,185.506,0Z" fill="#c3dcfb"/>
          <path id="Rectángulo_298043" data-name="Rectángulo 298043" d="M0,0H371.012a0,0,0,0,1,0,0V0a64.74,64.74,0,0,1-64.74,64.74H64.74A64.74,64.74,0,0,1,0,0V0A0,0,0,0,1,0,0Z" transform="translate(0 458.448)" fill="#eaf5fa"/>
        </g>
        <g id="Grupo_175076" data-name="Grupo 175076" transform="translate(48.042 176.461)">
          <g id="Grupo_175072" data-name="Grupo 175072" transform="translate(179.669 18.435)" opacity="0.49">
            <g id="Rectángulo_298044" data-name="Rectángulo 298044" transform="translate(0 0)" fill="#fdfdfd" stroke="#87b5ff" stroke-linecap="round" stroke-linejoin="round" stroke-width="1.5">
              <rect width="112.114" height="52.515" rx="7.133" stroke="none"/>
              <rect x="-0.75" y="-0.75" width="113.614" height="54.015" rx="7.883" fill="none"/>
            </g>
            <g id="Grupo_175070" data-name="Grupo 175070" transform="translate(16.074 21.112)" opacity="0.52">
              <rect id="Rectángulo_298045" data-name="Rectángulo 298045" width="79.967" height="3.29" fill="#a7bfd9"/>
              <rect id="Rectángulo_298046" data-name="Rectángulo 298046" width="79.967" height="3.29" transform="translate(0 8.71)" fill="#a7bfd9"/>
              <rect id="Rectángulo_298047" data-name="Rectángulo 298047" width="79.967" height="3.29" transform="translate(0 17.419)" fill="#a7bfd9"/>
            </g>
            <path id="Trazado_208030" data-name="Trazado 208030" d="M391.99,200.729V196.32a6.616,6.616,0,0,0-6.616-6.617H286.492a6.617,6.617,0,0,0-6.616,6.617v4.409Z" transform="translate(-279.876 -189.703)" fill="#a5d9f5"/>
            <g id="Grupo_175071" data-name="Grupo 175071" transform="translate(6.677 2.641)">
              <path id="Trazado_208031" data-name="Trazado 208031" d="M292.82,195.422a2.873,2.873,0,1,1-2.873-2.872A2.872,2.872,0,0,1,292.82,195.422Z" transform="translate(-287.075 -192.55)" fill="#fefefe"/>
              <path id="Trazado_208032" data-name="Trazado 208032" d="M305.026,195.422a2.873,2.873,0,1,1-2.873-2.872A2.872,2.872,0,0,1,305.026,195.422Z" transform="translate(-287.959 -192.55)" fill="#fefefe"/>
              <path id="Trazado_208033" data-name="Trazado 208033" d="M317.233,195.422a2.873,2.873,0,1,1-2.873-2.872A2.872,2.872,0,0,1,317.233,195.422Z" transform="translate(-288.844 -192.55)" fill="#fefefe"/>
            </g>
          </g>
          <g id="Grupo_175075" data-name="Grupo 175075" transform="translate(0)" opacity="0.49">
            <g id="Rectángulo_298048" data-name="Rectángulo 298048" transform="translate(0 0)" fill="#fff" stroke="#a7bfd9" stroke-miterlimit="10" stroke-width="1.104">
              <rect width="130.954" height="87.676" rx="4.165" stroke="none"/>
              <rect x="-0.552" y="-0.552" width="132.058" height="88.78" rx="4.717" fill="none"/>
            </g>
            <path id="Trazado_208034" data-name="Trazado 208034" d="M217.124,177.791v-4.1a3.863,3.863,0,0,0-3.863-3.863H90.033a3.864,3.864,0,0,0-3.863,3.863v4.1Z" transform="translate(-86.17 -169.828)" fill="#a5d9f5"/>
            <g id="Grupo_175073" data-name="Grupo 175073" transform="translate(3.411 2.396)">
              <path id="Trazado_208035" data-name="Trazado 208035" d="M93.018,174a1.586,1.586,0,1,1-1.585-1.585A1.585,1.585,0,0,1,93.018,174Z" transform="translate(-89.847 -172.412)" fill="#fefefe"/>
              <circle id="Elipse_13272" data-name="Elipse 13272" cx="1.585" cy="1.585" r="1.585" transform="translate(6.249)" fill="#fefefe"/>
              <circle id="Elipse_13273" data-name="Elipse 13273" cx="1.585" cy="1.585" r="1.585" transform="translate(12.498)" fill="#fefefe"/>
            </g>
            <g id="Grupo_175074" data-name="Grupo 175074" transform="translate(15.908 20.238)">
              <rect id="Rectángulo_298049" data-name="Rectángulo 298049" width="100.082" height="2.489" fill="#a7bfd9"/>
              <rect id="Rectángulo_298050" data-name="Rectángulo 298050" width="100.082" height="2.489" transform="translate(0 10.326)" fill="#a7bfd9"/>
              <rect id="Rectángulo_298051" data-name="Rectángulo 298051" width="100.082" height="2.489" transform="translate(0 20.653)" fill="#a7bfd9"/>
              <rect id="Rectángulo_298052" data-name="Rectángulo 298052" width="100.082" height="2.489" transform="translate(0 30.979)" fill="#a7bfd9"/>
              <rect id="Rectángulo_298053" data-name="Rectángulo 298053" width="100.082" height="2.489" transform="translate(0 41.306)" fill="#a7bfd9"/>
              <rect id="Rectángulo_298054" data-name="Rectángulo 298054" width="100.082" height="2.489" transform="translate(0 51.632)" fill="#a7bfd9"/>
            </g>
          </g>
        </g>
        <g id="Grupo_175091" data-name="Grupo 175091" transform="translate(0 286.594)">
          <g id="Grupo_175083" data-name="Grupo 175083">
            <g id="Grupo_175077" data-name="Grupo 175077">
              <rect id="Rectángulo_298055" data-name="Rectángulo 298055" width="44.378" height="24.116" transform="translate(58.664 104.18)" fill="#2c5b94"/>
              <rect id="Rectángulo_298056" data-name="Rectángulo 298056" width="161.705" height="118.455" rx="11.093" fill="#2c4b90"/>
              <path id="Rectángulo_298057" data-name="Rectángulo 298057" d="M6.786,0H143.841a6.785,6.785,0,0,1,6.785,6.785v93.805a6.785,6.785,0,0,1-6.785,6.785H6.785A6.785,6.785,0,0,1,0,100.591V6.786A6.786,6.786,0,0,1,6.786,0Z" transform="translate(5.54 5.54)" fill="#d4e5f8"/>
              <rect id="Rectángulo_298058" data-name="Rectángulo 298058" width="82.587" height="6.029" rx="1.483" transform="translate(39.559 128.296)" fill="#2c4b90"/>
            </g>
            <g id="Grupo_175081" data-name="Grupo 175081" transform="translate(13.391 13.037)">
              <path id="Trazado_208036" data-name="Trazado 208036" d="M173.726,221.384H55.111a6.3,6.3,0,0,0-6.3,6.3v79.786a6.3,6.3,0,0,0,6.3,6.3H173.726a6.3,6.3,0,0,0,6.3-6.3V227.682A6.3,6.3,0,0,0,173.726,221.384Z" transform="translate(-48.812 -219.529)" fill="#a7bfd9"/>
              <g id="Grupo_175080" data-name="Grupo 175080" transform="translate(1.855)">
                <rect id="Rectángulo_298059" data-name="Rectángulo 298059" width="131.213" height="92.382" rx="6.791" fill="#fefefe"/>
                <g id="Grupo_175079" data-name="Grupo 175079" transform="translate(0 0)">
                  <path id="Trazado_208037" data-name="Trazado 208037" d="M182.025,227.049v-1.367a6.3,6.3,0,0,0-6.3-6.3H57.111a6.3,6.3,0,0,0-6.3,6.3v1.367Z" transform="translate(-50.812 -219.384)" fill="#a5d9f5"/>
                  <g id="Grupo_175078" data-name="Grupo 175078" transform="translate(6.396 2.286)">
                    <path id="Trazado_208038" data-name="Trazado 208038" d="M60.8,223.4a1.546,1.546,0,1,1-1.545-1.546A1.545,1.545,0,0,1,60.8,223.4Z" transform="translate(-57.708 -221.849)" fill="#fefefe"/>
                    <path id="Trazado_208039" data-name="Trazado 208039" d="M67.758,223.4a1.546,1.546,0,1,1-1.546-1.546A1.546,1.546,0,0,1,67.758,223.4Z" transform="translate(-58.212 -221.849)" fill="#fefefe"/>
                    <path id="Trazado_208040" data-name="Trazado 208040" d="M74.716,223.4a1.546,1.546,0,1,1-1.546-1.546A1.546,1.546,0,0,1,74.716,223.4Z" transform="translate(-58.716 -221.849)" fill="#fefefe"/>
                  </g>
                </g>
              </g>
            </g>
            <g id="Grupo_175082" data-name="Grupo 175082" transform="translate(34.736 27.087)">
              <path id="Trazado_208041" data-name="Trazado 208041" d="M156.52,239.9H115.752l-8.8-4.83a4.4,4.4,0,0,0-2.118-.543H80.749a2.878,2.878,0,0,0-2.878,2.877v44.543h79l3.1-38.314A3.456,3.456,0,0,0,156.52,239.9Z" transform="translate(-72.263 -234.532)" fill="#bc8e24"/>
              <path id="Trazado_208042" data-name="Trazado 208042" d="M153.866,276.715H84.49a2.062,2.062,0,0,1-2.009-1.849L80.05,248.4a1.846,1.846,0,0,1,1.786-2.121h74.684a1.845,1.845,0,0,1,1.786,2.121l-2.43,26.464A2.062,2.062,0,0,1,153.866,276.715Z" transform="translate(-72.42 -235.383)" fill="#fcfffd"/>
              <path id="Trazado_208043" data-name="Trazado 208043" d="M156.2,280.739H81.926a2.208,2.208,0,0,1-2.151-1.978l-2.6-28.333a1.975,1.975,0,0,1,1.912-2.271h79.96a1.976,1.976,0,0,1,1.913,2.271l-2.6,28.333A2.207,2.207,0,0,1,156.2,280.739Z" transform="translate(-72.211 -235.519)" fill="#fcfffd"/>
              <path id="Trazado_208044" data-name="Trazado 208044" d="M158.078,284.507H79.69a2.33,2.33,0,0,1-2.271-2.088l-2.745-29.9a2.084,2.084,0,0,1,2.017-2.4h84.385a2.085,2.085,0,0,1,2.017,2.4l-2.746,29.9A2.329,2.329,0,0,1,158.078,284.507Z" transform="translate(-72.03 -235.662)" fill="#fcfffd"/>
              <path id="Trazado_208045" data-name="Trazado 208045" d="M75.647,252.157h85.542a3.822,3.822,0,0,1,3.8,4.258L159.928,300.5a2.672,2.672,0,0,1-2.654,2.367H79.563a2.672,2.672,0,0,1-2.655-2.367L71.85,256.415A3.822,3.822,0,0,1,75.647,252.157Z" transform="translate(-71.825 -235.809)" fill="#ecb12d"/>
            </g>
          </g>
          <g id="Grupo_175090" data-name="Grupo 175090" transform="translate(238.295)">
            <g id="Grupo_175084" data-name="Grupo 175084">
              <rect id="Rectángulo_298060" data-name="Rectángulo 298060" width="44.378" height="24.116" transform="translate(58.664 104.18)" fill="#2c5b94"/>
              <path id="Rectángulo_298061" data-name="Rectángulo 298061" d="M11.093,0H150.612a11.093,11.093,0,0,1,11.093,11.093v96.269a11.094,11.094,0,0,1-11.094,11.094H11.093A11.093,11.093,0,0,1,0,107.362V11.093A11.093,11.093,0,0,1,11.093,0Z" fill="#2c4b90"/>
              <path id="Rectángulo_298062" data-name="Rectángulo 298062" d="M6.786,0H143.841a6.785,6.785,0,0,1,6.785,6.785v93.805a6.785,6.785,0,0,1-6.785,6.785H6.785A6.785,6.785,0,0,1,0,100.591V6.786A6.786,6.786,0,0,1,6.786,0Z" transform="translate(5.54 5.54)" fill="#d4e5f8"/>
              <rect id="Rectángulo_298063" data-name="Rectángulo 298063" width="82.587" height="6.029" rx="1.483" transform="translate(39.559 128.296)" fill="#2c4b90"/>
            </g>
            <g id="Grupo_175088" data-name="Grupo 175088" transform="translate(13.391 13.037)">
              <path id="Trazado_208046" data-name="Trazado 208046" d="M430.638,221.384H312.022a6.3,6.3,0,0,0-6.3,6.3v79.786a6.3,6.3,0,0,0,6.3,6.3H430.638a6.3,6.3,0,0,0,6.3-6.3V227.682A6.3,6.3,0,0,0,430.638,221.384Z" transform="translate(-305.724 -219.529)" fill="#a7bfd9"/>
              <g id="Grupo_175087" data-name="Grupo 175087" transform="translate(1.855)">
                <rect id="Rectángulo_298064" data-name="Rectángulo 298064" width="131.213" height="92.382" rx="6.791" fill="#fefefe"/>
                <g id="Grupo_175086" data-name="Grupo 175086" transform="translate(0 0)">
                  <path id="Trazado_208047" data-name="Trazado 208047" d="M438.937,227.049v-1.367a6.3,6.3,0,0,0-6.3-6.3H314.022a6.3,6.3,0,0,0-6.3,6.3v1.367Z" transform="translate(-307.724 -219.384)" fill="#a5d9f5"/>
                  <g id="Grupo_175085" data-name="Grupo 175085" transform="translate(6.396 2.286)">
                    <path id="Trazado_208048" data-name="Trazado 208048" d="M317.711,223.4a1.546,1.546,0,1,1-1.546-1.546A1.546,1.546,0,0,1,317.711,223.4Z" transform="translate(-314.62 -221.849)" fill="#fefefe"/>
                    <path id="Trazado_208049" data-name="Trazado 208049" d="M324.669,223.4a1.546,1.546,0,1,1-1.545-1.546A1.545,1.545,0,0,1,324.669,223.4Z" transform="translate(-315.124 -221.849)" fill="#fefefe"/>
                    <path id="Trazado_208050" data-name="Trazado 208050" d="M331.628,223.4a1.546,1.546,0,1,1-1.546-1.546A1.546,1.546,0,0,1,331.628,223.4Z" transform="translate(-315.628 -221.849)" fill="#fefefe"/>
                  </g>
                </g>
              </g>
            </g>
            <g id="Grupo_175089" data-name="Grupo 175089" transform="translate(34.735 27.087)">
              <path id="Trazado_208051" data-name="Trazado 208051" d="M413.432,239.9H372.664l-8.795-4.83a4.4,4.4,0,0,0-2.118-.543H337.66a2.877,2.877,0,0,0-2.877,2.877v44.543h78.995l3.1-38.314A3.455,3.455,0,0,0,413.432,239.9Z" transform="translate(-329.174 -234.532)" fill="#bc8e24"/>
              <path id="Trazado_208052" data-name="Trazado 208052" d="M410.778,276.715H341.4a2.063,2.063,0,0,1-2.01-1.849l-2.43-26.464a1.845,1.845,0,0,1,1.786-2.121h74.685a1.846,1.846,0,0,1,1.786,2.121l-2.43,26.464A2.063,2.063,0,0,1,410.778,276.715Z" transform="translate(-329.331 -235.383)" fill="#fcfffd"/>
              <path id="Trazado_208053" data-name="Trazado 208053" d="M413.116,280.739H338.838a2.207,2.207,0,0,1-2.151-1.978l-2.6-28.333A1.975,1.975,0,0,1,336,248.157h79.96a1.975,1.975,0,0,1,1.912,2.271l-2.6,28.333A2.207,2.207,0,0,1,413.116,280.739Z" transform="translate(-329.123 -235.519)" fill="#fcfffd"/>
              <path id="Trazado_208054" data-name="Trazado 208054" d="M414.989,284.507H336.6a2.329,2.329,0,0,1-2.27-2.088l-2.746-29.9a2.085,2.085,0,0,1,2.017-2.4h84.386a2.085,2.085,0,0,1,2.017,2.4l-2.746,29.9A2.33,2.33,0,0,1,414.989,284.507Z" transform="translate(-328.941 -235.662)" fill="#fcfffd"/>
              <path id="Trazado_208055" data-name="Trazado 208055" d="M332.559,252.157H418.1a3.822,3.822,0,0,1,3.8,4.258L416.84,300.5a2.672,2.672,0,0,1-2.655,2.367H336.474a2.672,2.672,0,0,1-2.654-2.367l-5.06-44.084A3.823,3.823,0,0,1,332.559,252.157Z" transform="translate(-328.736 -235.809)" fill="#ecb12d"/>
            </g>
          </g>
        </g>
        <g id="Grupo_175097" data-name="Grupo 175097" transform="translate(55.81 25.762)">
          <g id="Grupo_175092" data-name="Grupo 175092" transform="translate(0 75.754)">
            <rect id="Rectángulo_298065" data-name="Rectángulo 298065" width="40.929" height="55.782" transform="matrix(0.446, -0.895, 0.895, 0.446, 0, 36.632)" fill="#f7e3aa"/>
            <rect id="Rectángulo_298066" data-name="Rectángulo 298066" width="31.641" height="1.755" transform="translate(6.643 34.754) rotate(-63.508)" fill="#eabf68"/>
            <rect id="Rectángulo_298067" data-name="Rectángulo 298067" width="31.641" height="1.755" transform="matrix(0.446, -0.895, 0.895, 0.446, 10.025, 36.44)" fill="#eabf68"/>
            <rect id="Rectángulo_298068" data-name="Rectángulo 298068" width="21.034" height="1.755" transform="translate(13.408 38.126) rotate(-63.508)" fill="#eabf68"/>
            <rect id="Rectángulo_298069" data-name="Rectángulo 298069" width="31.641" height="1.755" transform="matrix(0.446, -0.895, 0.895, 0.446, 16.791, 39.811)" fill="#eabf68"/>
            <rect id="Rectángulo_298070" data-name="Rectángulo 298070" width="31.641" height="1.755" transform="matrix(0.446, -0.895, 0.895, 0.446, 20.173, 41.497)" fill="#eabf68"/>
            <rect id="Rectángulo_298071" data-name="Rectángulo 298071" width="20.495" height="1.755" transform="matrix(0.446, -0.895, 0.895, 0.446, 23.556, 43.183)" fill="#eabf68"/>
            <rect id="Rectángulo_298072" data-name="Rectángulo 298072" width="31.641" height="1.755" transform="matrix(0.446, -0.895, 0.895, 0.446, 26.938, 44.869)" fill="#eabf68"/>
            <rect id="Rectángulo_298073" data-name="Rectángulo 298073" width="20.495" height="1.755" transform="matrix(0.446, -0.895, 0.895, 0.446, 30.321, 46.555)" fill="#eabf68"/>
            <rect id="Rectángulo_298074" data-name="Rectángulo 298074" width="31.641" height="1.755" transform="translate(33.703 48.241) rotate(-63.508)" fill="#eabf68"/>
            <rect id="Rectángulo_298075" data-name="Rectángulo 298075" width="31.641" height="1.755" transform="matrix(0.446, -0.895, 0.895, 0.446, 37.086, 49.927)" fill="#eabf68"/>
            <rect id="Rectángulo_298076" data-name="Rectángulo 298076" width="21.524" height="1.755" transform="translate(40.468 51.612) rotate(-63.508)" fill="#eabf68"/>
            <rect id="Rectángulo_298077" data-name="Rectángulo 298077" width="31.641" height="1.755" transform="matrix(0.446, -0.895, 0.895, 0.446, 43.851, 53.298)" fill="#eabf68"/>
            <rect id="Rectángulo_298078" data-name="Rectángulo 298078" width="21.524" height="1.755" transform="translate(47.233 54.984) rotate(-63.508)" fill="#eabf68"/>
          </g>
          <g id="Grupo_175093" data-name="Grupo 175093" transform="translate(47.606 16.035)">
            <rect id="Rectángulo_298079" data-name="Rectángulo 298079" width="40.929" height="55.782" transform="matrix(0.88, -0.475, 0.475, 0.88, 0, 19.437)" fill="#f7e3aa"/>
            <rect id="Rectángulo_298080" data-name="Rectángulo 298080" width="31.641" height="1.755" transform="translate(6.513 21.727) rotate(-28.353)" fill="#eabf68"/>
            <rect id="Rectángulo_298081" data-name="Rectángulo 298081" width="31.641" height="1.755" transform="matrix(0.88, -0.475, 0.475, 0.88, 8.307, 25.053)" fill="#eabf68"/>
            <rect id="Rectángulo_298082" data-name="Rectángulo 298082" width="21.034" height="1.755" transform="translate(10.102 28.379) rotate(-28.353)" fill="#eabf68"/>
            <rect id="Rectángulo_298083" data-name="Rectángulo 298083" width="31.641" height="1.755" transform="translate(11.897 31.705) rotate(-28.353)" fill="#eabf68"/>
            <rect id="Rectángulo_298084" data-name="Rectángulo 298084" width="31.641" height="1.755" transform="matrix(0.88, -0.475, 0.475, 0.88, 13.692, 35.031)" fill="#eabf68"/>
            <rect id="Rectángulo_298085" data-name="Rectángulo 298085" width="20.495" height="1.755" transform="translate(15.487 38.357) rotate(-28.353)" fill="#eabf68"/>
            <rect id="Rectángulo_298086" data-name="Rectángulo 298086" width="31.641" height="1.755" transform="matrix(0.88, -0.475, 0.475, 0.88, 17.282, 41.683)" fill="#eabf68"/>
            <rect id="Rectángulo_298087" data-name="Rectángulo 298087" width="20.495" height="1.755" transform="translate(19.076 45.009) rotate(-28.353)" fill="#eabf68"/>
            <rect id="Rectángulo_298088" data-name="Rectángulo 298088" width="31.641" height="1.755" transform="matrix(0.88, -0.475, 0.475, 0.88, 20.871, 48.335)" fill="#eabf68"/>
            <rect id="Rectángulo_298089" data-name="Rectángulo 298089" width="31.641" height="1.755" transform="translate(22.666 51.661) rotate(-28.353)" fill="#eabf68"/>
            <rect id="Rectángulo_298090" data-name="Rectángulo 298090" width="21.523" height="1.755" transform="translate(24.461 54.987) rotate(-28.353)" fill="#eabf68"/>
            <rect id="Rectángulo_298091" data-name="Rectángulo 298091" width="31.641" height="1.755" transform="matrix(0.88, -0.475, 0.475, 0.88, 26.256, 58.313)" fill="#eabf68"/>
            <rect id="Rectángulo_298092" data-name="Rectángulo 298092" width="21.523" height="1.755" transform="translate(28.051 61.639) rotate(-28.353)" fill="#eabf68"/>
          </g>
          <g id="Grupo_175094" data-name="Grupo 175094" transform="translate(124.206 0)">
            <rect id="Rectángulo_298093" data-name="Rectángulo 298093" width="40.929" height="55.782" transform="translate(6.607 0) rotate(6.803)" fill="#f7e3aa"/>
            <rect id="Rectángulo_298094" data-name="Rectángulo 298094" width="31.641" height="1.755" transform="translate(10.614 5.622) rotate(6.803)" fill="#eabf68"/>
            <rect id="Rectángulo_298095" data-name="Rectángulo 298095" width="31.641" height="1.755" transform="translate(10.166 9.375) rotate(6.803)" fill="#eabf68"/>
            <rect id="Rectángulo_298096" data-name="Rectángulo 298096" width="21.034" height="1.755" transform="translate(9.718 13.127) rotate(6.803)" fill="#eabf68"/>
            <rect id="Rectángulo_298097" data-name="Rectángulo 298097" width="31.641" height="1.755" transform="matrix(0.993, 0.118, -0.118, 0.993, 9.271, 16.88)" fill="#eabf68"/>
            <rect id="Rectángulo_298098" data-name="Rectángulo 298098" width="31.641" height="1.755" transform="translate(8.823 20.633) rotate(6.803)" fill="#eabf68"/>
            <rect id="Rectángulo_298099" data-name="Rectángulo 298099" width="20.495" height="1.755" transform="translate(8.375 24.386) rotate(6.803)" fill="#eabf68"/>
            <rect id="Rectángulo_298100" data-name="Rectángulo 298100" width="31.641" height="1.755" transform="matrix(0.993, 0.118, -0.118, 0.993, 7.928, 28.139)" fill="#eabf68"/>
            <rect id="Rectángulo_298101" data-name="Rectángulo 298101" width="20.495" height="1.755" transform="translate(7.48 31.891) rotate(6.803)" fill="#eabf68"/>
            <rect id="Rectángulo_298102" data-name="Rectángulo 298102" width="31.641" height="1.755" transform="translate(7.032 35.644) rotate(6.803)" fill="#eabf68"/>
            <rect id="Rectángulo_298103" data-name="Rectángulo 298103" width="31.641" height="1.755" transform="matrix(0.993, 0.118, -0.118, 0.993, 6.585, 39.397)" fill="#eabf68"/>
            <rect id="Rectángulo_298104" data-name="Rectángulo 298104" width="21.524" height="1.755" transform="translate(6.137 43.15) rotate(6.803)" fill="#eabf68"/>
            <rect id="Rectángulo_298105" data-name="Rectángulo 298105" width="31.641" height="1.755" transform="translate(5.689 46.902) rotate(6.803)" fill="#eabf68"/>
            <rect id="Rectángulo_298106" data-name="Rectángulo 298106" width="21.524" height="1.755" transform="matrix(0.993, 0.118, -0.118, 0.993, 5.242, 50.655)" fill="#eabf68"/>
          </g>
          <g id="Grupo_175095" data-name="Grupo 175095" transform="translate(181.973 18.909)">
            <rect id="Rectángulo_298107" data-name="Rectángulo 298107" width="40.929" height="55.783" transform="matrix(0.744, 0.669, -0.669, 0.744, 37.295, 0)" fill="#f7e3aa"/>
            <rect id="Rectángulo_298108" data-name="Rectángulo 298108" width="31.641" height="1.755" transform="matrix(0.744, 0.669, -0.669, 0.744, 37.334, 6.903)" fill="#eabf68"/>
            <rect id="Rectángulo_298109" data-name="Rectángulo 298109" width="31.641" height="1.755" transform="translate(34.807 9.714) rotate(41.958)" fill="#eabf68"/>
            <rect id="Rectángulo_298110" data-name="Rectángulo 298110" width="21.034" height="1.755" transform="translate(32.28 12.524) rotate(41.958)" fill="#eabf68"/>
            <rect id="Rectángulo_298111" data-name="Rectángulo 298111" width="31.641" height="1.755" transform="translate(29.753 15.335) rotate(41.958)" fill="#eabf68"/>
            <rect id="Rectángulo_298112" data-name="Rectángulo 298112" width="31.641" height="1.755" transform="matrix(0.744, 0.669, -0.669, 0.744, 27.227, 18.145)" fill="#eabf68"/>
            <rect id="Rectángulo_298113" data-name="Rectángulo 298113" width="20.495" height="1.755" transform="matrix(0.744, 0.669, -0.669, 0.744, 24.7, 20.956)" fill="#eabf68"/>
            <rect id="Rectángulo_298114" data-name="Rectángulo 298114" width="31.641" height="1.755" transform="translate(22.173 23.766) rotate(41.958)" fill="#eabf68"/>
            <rect id="Rectángulo_298115" data-name="Rectángulo 298115" width="20.495" height="1.755" transform="matrix(0.744, 0.669, -0.669, 0.744, 19.646, 26.577)" fill="#eabf68"/>
            <rect id="Rectángulo_298116" data-name="Rectángulo 298116" width="31.641" height="1.755" transform="translate(17.119 29.387) rotate(41.958)" fill="#eabf68"/>
            <rect id="Rectángulo_298117" data-name="Rectángulo 298117" width="31.641" height="1.755" transform="translate(14.592 32.198) rotate(41.958)" fill="#eabf68"/>
            <rect id="Rectángulo_298118" data-name="Rectángulo 298118" width="21.524" height="1.755" transform="matrix(0.744, 0.669, -0.669, 0.744, 12.066, 35.008)" fill="#eabf68"/>
            <rect id="Rectángulo_298119" data-name="Rectángulo 298119" width="31.641" height="1.755" transform="translate(9.539 37.819) rotate(41.958)" fill="#eabf68"/>
            <rect id="Rectángulo_298120" data-name="Rectángulo 298120" width="21.524" height="1.755" transform="matrix(0.744, 0.669, -0.669, 0.744, 7.012, 40.629)" fill="#eabf68"/>
          </g>
          <g id="Grupo_175096" data-name="Grupo 175096" transform="translate(221.684 77.15)">
            <rect id="Rectángulo_298121" data-name="Rectángulo 298121" width="40.929" height="55.783" transform="translate(52.897 0) rotate(71.492)" fill="#f7e3aa"/>
            <rect id="Rectángulo_298122" data-name="Rectángulo 298122" width="31.641" height="1.755" transform="translate(49.528 6.025) rotate(71.492)" fill="#eabf68"/>
            <rect id="Rectángulo_298123" data-name="Rectángulo 298123" width="31.641" height="1.755" transform="translate(45.944 7.225) rotate(71.492)" fill="#eabf68"/>
            <rect id="Rectángulo_298124" data-name="Rectángulo 298124" width="21.034" height="1.755" transform="translate(42.36 8.425) rotate(71.492)" fill="#eabf68"/>
            <rect id="Rectángulo_298125" data-name="Rectángulo 298125" width="31.641" height="1.755" transform="translate(38.776 9.624) rotate(71.492)" fill="#eabf68"/>
            <rect id="Rectángulo_298126" data-name="Rectángulo 298126" width="31.641" height="1.755" transform="translate(35.192 10.824) rotate(71.492)" fill="#eabf68"/>
            <rect id="Rectángulo_298127" data-name="Rectángulo 298127" width="20.495" height="1.755" transform="matrix(0.317, 0.948, -0.948, 0.317, 31.608, 12.024)" fill="#eabf68"/>
            <rect id="Rectángulo_298128" data-name="Rectángulo 298128" width="31.641" height="1.755" transform="translate(28.025 13.224) rotate(71.492)" fill="#eabf68"/>
            <rect id="Rectángulo_298129" data-name="Rectángulo 298129" width="20.495" height="1.755" transform="translate(24.441 14.423) rotate(71.492)" fill="#eabf68"/>
            <rect id="Rectángulo_298130" data-name="Rectángulo 298130" width="31.641" height="1.755" transform="translate(20.857 15.623) rotate(71.492)" fill="#eabf68"/>
            <rect id="Rectángulo_298131" data-name="Rectángulo 298131" width="31.641" height="1.755" transform="translate(17.273 16.823) rotate(71.492)" fill="#eabf68"/>
            <rect id="Rectángulo_298132" data-name="Rectángulo 298132" width="21.524" height="1.755" transform="translate(13.689 18.023) rotate(71.492)" fill="#eabf68"/>
            <rect id="Rectángulo_298133" data-name="Rectángulo 298133" width="31.641" height="1.755" transform="translate(10.105 19.222) rotate(71.492)" fill="#eabf68"/>
            <rect id="Rectángulo_298134" data-name="Rectángulo 298134" width="21.523" height="1.755" transform="translate(6.521 20.422) rotate(71.492)" fill="#eabf68"/>
          </g>
        </g>
        <g id="Grupo_175098" data-name="Grupo 175098" transform="translate(125.319 100.977)">
          <path id="Trazado_208056" data-name="Trazado 208056" d="M179.151,214.184c11.272-22.138,35.938-37.5,64.554-37.5,28.912,0,53.793,15.68,64.9,38.188" transform="translate(-170.185 -176.687)" fill="none" stroke="#1c3057" stroke-miterlimit="10" stroke-width="6.398"/>
          <path id="Trazado_208057" data-name="Trazado 208057" d="M169.484,211.768l17.931,9.286-15.025,7.057Z" transform="translate(-169.484 -179.229)" fill="#1c3057"/>
          <path id="Trazado_208058" data-name="Trazado 208058" d="M326.985,211.768l-17.931,9.286,15.025,7.057Z" transform="translate(-179.598 -179.229)" fill="#1c3057"/>
        </g>
        <g id="Grupo_175128" data-name="Grupo 175128" transform="translate(212.729 395.918)">
          <g id="Grupo_175126" data-name="Grupo 175126" transform="translate(7.751)">
            <g id="Grupo_175101" data-name="Grupo 175101" transform="translate(46.44 25.58)">
              <g id="Grupo_175099" data-name="Grupo 175099" transform="translate(11.682 21.542)">
                <rect id="Rectángulo_298135" data-name="Rectángulo 298135" width="2.365" height="24.14" transform="translate(3.633 24.307) rotate(-176.758)" fill="#666488"/>
                <rect id="Rectángulo_298136" data-name="Rectángulo 298136" width="2.549" height="24.14" transform="matrix(-0.998, -0.057, 0.057, -0.998, 2.545, 24.246)" fill="#9692c6"/>
              </g>
              <g id="Grupo_175100" data-name="Grupo 175100">
                <path id="Trazado_208059" data-name="Trazado 208059" d="M324.509,332.288l.381-22.994c.847-2.122,3.03-2.251,4.014-2.251h18.462a1.922,1.922,0,0,1,1.912,2.124l-2.545,24.109a1.926,1.926,0,0,1-1.174,1.574l-2.565.467,1.078-.906H326.421A1.922,1.922,0,0,1,324.509,332.288Z" transform="translate(-322.318 -307.043)" fill="#ce6a77"/>
                <path id="Trazado_208060" data-name="Trazado 208060" d="M324.07,335.388h18.462a1.923,1.923,0,0,0,1.912-1.72l2.483-23.525a1.922,1.922,0,0,0-1.912-2.123H326.553a1.923,1.923,0,0,0-1.912,1.72l-2.483,23.524A1.922,1.922,0,0,0,324.07,335.388Z" transform="translate(-322.147 -307.114)" fill="#bd4d5c"/>
              </g>
            </g>
            <path id="Trazado_208061" data-name="Trazado 208061" d="M316.416,353.586v6.362l-15.541-2.615v-3.785Z" transform="translate(-274.166 -284.833)" fill="#bd4d5c"/>
            <ellipse id="Elipse_13274" data-name="Elipse 13274" cx="34.235" cy="7.047" rx="34.235" ry="7.047" transform="translate(2.401 93.672)" fill="#d2dce0"/>
            <g id="Grupo_175120" data-name="Grupo 175120">
              <g id="Grupo_175103" data-name="Grupo 175103" transform="translate(4.342 53.293)">
                <path id="Trazado_208062" data-name="Trazado 208062" d="M320.123,337.142c-.339-.052-.479-.058-.7-.083a50.786,50.786,0,0,0-16.561,1.555c-4.549,1.171-12.252,5.076-15.835,6.948-3.174,1.658-3.11,6.421-3.494,12.78-.118,1.951.6,15.545.45,21.42.593-.109,1.571.007,2.538-.15.557-.09,2.272-8.44,3.627-11.921a19.359,19.359,0,0,0,.65-10.053c-.385-1.8-.681-4.212,1.511-4.729,10.44-2.465,17.838-4.877,25.811-5.469C318.894,343.569,319.369,341.017,320.123,337.142Z" transform="translate(-277.251 -336.921)" fill="#de856c"/>
                <g id="Grupo_175102" data-name="Grupo 175102" transform="translate(0 41.507)">
                  <path id="Trazado_208063" data-name="Trazado 208063" d="M277.574,385.607l8.941-.025a.764.764,0,0,0,.764-.763l0-1.6c-.022-.673-.083-1.424-.729-1.549,0,0-2.153.2-3.063.4-1.184.262-1.768.416-3.282.756-2.245.5-3.181.828-3.369,1.5C276.581,385.258,276.992,385.5,277.574,385.607Z" transform="translate(-276.761 -381.67)" fill="#752056"/>
                </g>
              </g>
              <g id="Grupo_175105" data-name="Grupo 175105" transform="translate(9.752 56.088)">
                <path id="Trazado_208064" data-name="Trazado 208064" d="M325.878,340.155c-.339-.053-.479-.058-.7-.083a50.8,50.8,0,0,0-16.56,1.555c-4.55,1.171-12.253,5.076-15.836,6.948-3.173,1.658-3.11,6.421-3.494,12.78-.118,1.951.6,15.545.45,21.421.593-.109,1.571.006,2.538-.15.557-.09,2.272-8.44,3.627-11.921a19.359,19.359,0,0,0,.65-10.053c-.385-1.8-.681-4.212,1.511-4.729,10.44-2.464,17.838-4.877,25.811-5.469C324.65,346.582,325.124,344.03,325.878,340.155Z" transform="translate(-283.077 -339.934)" fill="#ffb39f"/>
                <g id="Grupo_175104" data-name="Grupo 175104" transform="translate(0 41.539)">
                  <path id="Trazado_208065" data-name="Trazado 208065" d="M283.446,389.093l8.928-.466a.765.765,0,0,0,.725-.8l-.075-1.6c-.055-.672-.152-1.419-.8-1.512,0,0-2.141.3-3.039.549-1.17.32-1.745.5-3.24.917-2.218.614-3.137.983-3.292,1.667C282.436,388.793,282.858,389.016,283.446,389.093Z" transform="translate(-282.593 -384.718)" fill="#9f2b74"/>
                </g>
              </g>
              <g id="Grupo_175106" data-name="Grupo 175106" transform="translate(21.527 41.994)">
                <path id="Trazado_208066" data-name="Trazado 208066" d="M316.911,330.294s-1.824,6.246-5.214,7.592c0,0,19.114,7.493,20.136,5.478,0,0-2.784-11.845-3.2-18.625Z" transform="translate(-296.478 -324.739)" fill="#9f3a79"/>
                <path id="Trazado_208067" data-name="Trazado 208067" d="M327.382,338.488c6.053,3.938,7.637,16.567-11.371,13.932,0,0-7.4.938-12.522,4.716a22.124,22.124,0,0,1-8.2-15.369,35.48,35.48,0,0,1,15.161-4.214C321.845,337.04,327.382,338.488,327.382,338.488Z" transform="translate(-295.289 -325.66)" fill="#9f3a79"/>
              </g>
              <g id="Grupo_175109" data-name="Grupo 175109" transform="translate(17.969 27.803)">
                <path id="Trazado_208068" data-name="Trazado 208068" d="M317.241,309.44s.553,14.112-.534,16.853c-.71,1.793-13.293,5.434-16.774,6.527" transform="translate(-292.067 -309.44)" fill="none" stroke="#243d73" stroke-miterlimit="10" stroke-width="7.176"/>
                <g id="Grupo_175108" data-name="Grupo 175108" transform="translate(0 20.965)">
                  <g id="Grupo_175107" data-name="Grupo 175107" transform="translate(0 1.861)">
                    <path id="Trazado_208069" data-name="Trazado 208069" d="M295.411,335.135s-1.742.364-3.853,3.2" transform="translate(-291.46 -334.128)" fill="none" stroke="#243d73" stroke-linecap="round" stroke-linejoin="round" stroke-width="1.7"/>
                    <path id="Trazado_208070" data-name="Trazado 208070" d="M296.295,334.049a6.762,6.762,0,0,0-4.843,3.021" transform="translate(-291.452 -334.049)" fill="none" stroke="#243d73" stroke-linecap="round" stroke-linejoin="round" stroke-width="1.7"/>
                    <path id="Trazado_208071" data-name="Trazado 208071" d="M296.791,336.1a12.428,12.428,0,0,0-5.01,3" transform="translate(-291.476 -334.198)" fill="none" stroke="#243d73" stroke-linecap="round" stroke-linejoin="round" stroke-width="1.7"/>
                    <path id="Trazado_208072" data-name="Trazado 208072" d="M297.826,336.514c-1.1.2-2.895.849-5.549,3.325" transform="translate(-291.512 -334.228)" fill="none" stroke="#243d73" stroke-linecap="round" stroke-linejoin="round" stroke-width="1.7"/>
                  </g>
                  <path id="Trazado_208073" data-name="Trazado 208073" d="M300.858,335.8c1.185-1.062.385-3.758.385-3.758a15.957,15.957,0,0,0-7.38,1.937l.673,1.554a3.936,3.936,0,0,0,1.3,1.787C296.694,337.889,299.741,336.8,300.858,335.8Z" transform="translate(-291.627 -332.043)" fill="#de856c"/>
                  <path id="Trazado_208074" data-name="Trazado 208074" d="M296.995,338.491s3.385-1.6,3.827-2.733" transform="translate(-291.854 -332.312)" fill="none" stroke="#243d73" stroke-linecap="round" stroke-linejoin="round" stroke-width="1.7"/>
                </g>
              </g>
              <path id="Trazado_208075" data-name="Trazado 208075" d="M309.354,288.878s1.716,13.612,4.755,15.137c6.483,3.254,15.484.993,17.777-4.892.765-1.965-4.769-5.728-5.554-9.746C325.452,284.869,309.354,288.878,309.354,288.878Z" transform="translate(-274.781 -280.028)" fill="#6278bf"/>
              <g id="Grupo_175110" data-name="Grupo 175110" transform="translate(37.244 23.354)">
                <path id="Trazado_208076" data-name="Trazado 208076" d="M318.743,304.647l8.451.467a2.667,2.667,0,0,1,1.85.91c2.444,2.771,2.149,5.45,1.649,8.548-.523,3.245-2.051,5.888-1.885,9.34a20.538,20.538,0,0,0,2.1,7.431s-2.259,1.269-7.993.952-8.374-1.823-8.374-1.823l-.288-19.179a21.271,21.271,0,0,1,2.164-5.486A2.591,2.591,0,0,1,318.743,304.647Z" transform="translate(-312.38 -304.643)" fill="#1c3057"/>
                <path id="Trazado_208077" data-name="Trazado 208077" d="M322.5,319.892A3.454,3.454,0,0,1,319.446,318a3.149,3.149,0,0,0,3.053,2.62,3.319,3.319,0,0,0,3.148-2.4A3.725,3.725,0,0,1,322.5,319.892Z" transform="translate(-312.756 -305.611)" fill="#5c44a8" stroke="#243d73" stroke-miterlimit="10" stroke-width="1"/>
                <path id="Trazado_208078" data-name="Trazado 208078" d="M314.681,310.321l-2.294,4.187a1.231,1.231,0,0,0,.056,1.281l2.488,3.894,3.3-2.661Z" transform="translate(-312.234 -305.054)" fill="#1c3057"/>
              </g>
              <g id="Grupo_175114" data-name="Grupo 175114" transform="translate(31.891)">
                <g id="Grupo_175111" data-name="Grupo 175111" transform="translate(10.167 18.044)">
                  <path id="Trazado_208079" data-name="Trazado 208079" d="M324.736,304.947l-1.968-6.029-5.344,1.745,1.98,6.025Z" transform="translate(-317.424 -298.918)" fill="#de856c"/>
                  <path id="Trazado_208080" data-name="Trazado 208080" d="M324.89,305.387c.165.506-.894,1.308-2.367,1.788s-2.8.459-2.966-.047.894-1.308,2.367-1.788S324.724,304.88,324.89,305.387Z" transform="translate(-317.577 -299.358)" fill="#de856c"/>
                </g>
                <g id="Grupo_175113" data-name="Grupo 175113">
                  <path id="Trazado_208081" data-name="Trazado 208081" d="M313.092,300.109c1.382,2.466,3.99,3.192,8.478.338a5.835,5.835,0,0,0,2.95-3.975l-1.159-10.68a2.4,2.4,0,0,0-3.088-1.74l-10.746,3.508a2.4,2.4,0,0,0-1.48,3.194S313.088,300.1,313.092,300.109Z" transform="translate(-306.564 -279.788)" fill="#ffac91"/>
                  <g id="Grupo_175112" data-name="Grupo 175112">
                    <path id="Trazado_208082" data-name="Trazado 208082" d="M321.924,281.472s6.339.858,5.977,10.042c-.071,1.828-2.347,4.471-2.347,4.471Z" transform="translate(-307.583 -279.61)" fill="#6278bf"/>
                    <path id="Trazado_208083" data-name="Trazado 208083" d="M309.655,287.236s7.081,4.309,13.843.029c0,0,3.777-.79.745-4.866s-10.635-3.846-12.525.319C310.18,286.1,309.655,287.236,309.655,287.236Z" transform="translate(-306.694 -279.464)" fill="#6278bf"/>
                    <path id="Trazado_208084" data-name="Trazado 208084" d="M306.465,288.755c.1-3.421,2.113-6.116,6.8-8.03,0,0,4.613,11.137-2.94,12.148C308,293.184,306.4,291.1,306.465,288.755Z" transform="translate(-306.463 -279.556)" fill="#6278bf"/>
                    <path id="Trazado_208085" data-name="Trazado 208085" d="M325.56,290.09a2.225,2.225,0,0,0-2.611-1.665c-.985.274.68,4.939,1.872,4.154A2.195,2.195,0,0,0,325.56,290.09Z" transform="translate(-307.636 -280.109)" fill="#ffac91"/>
                    <path id="Trazado_208086" data-name="Trazado 208086" d="M319.912,288.735l2.346-1.222,1.088,2.432c.7,1.839.355,1.876.332,1.884C322.386,292.28,320.3,289.726,319.912,288.735Z" transform="translate(-307.437 -280.048)" fill="#6278bf"/>
                  </g>
                </g>
              </g>
              <g id="Grupo_175116" data-name="Grupo 175116" transform="translate(0 38.158)">
                <path id="Trazado_208087" data-name="Trazado 208087" d="M272.08,322.739l1.44-1.127,2.467-.106,20.931-.9,6.222,18.685-23.4,1.008-5.872-17.635Z" transform="translate(-272.08 -320.604)" fill="#8147b5"/>
                <path id="Trazado_208088" data-name="Trazado 208088" d="M278.3,341.512l23.4-1.008-6.222-18.685-23.4,1.008Z" transform="translate(-272.08 -320.692)" fill="#a06dce"/>
                <g id="Grupo_175115" data-name="Grupo 175115" transform="translate(12.159 7.133)">
                  <path id="Trazado_208089" data-name="Trazado 208089" d="M285.776,328.294s.932.022,1.173,1.286" transform="translate(-285.232 -328.294)" fill="none" stroke="#243d73" stroke-linecap="round" stroke-linejoin="round" stroke-width="0.401"/>
                  <path id="Trazado_208090" data-name="Trazado 208090" d="M285.766,330.651a1.639,1.639,0,0,0,1.62,1.3,1.146,1.146,0,0,0,1.1-1.409,1.64,1.64,0,0,0-1.621-1.3A1.146,1.146,0,0,0,285.766,330.651Z" transform="translate(-285.229 -328.362)" fill="#c7f5ec"/>
                  <path id="Trazado_208091" data-name="Trazado 208091" d="M286.288,333.176a1.423,1.423,0,0,0-1.1-1.092,2.029,2.029,0,0,1,1.9-1.383,2.936,2.936,0,0,1,2.9,2.324,2.052,2.052,0,0,1-1.977,2.523,2.9,2.9,0,0,1-2.393-1.209A.983.983,0,0,0,286.288,333.176Z" transform="translate(-285.189 -328.468)" fill="#c7f5ec"/>
                </g>
                <rect id="Rectángulo_298137" data-name="Rectángulo 298137" width="14.909" height="2.63" transform="matrix(-0.999, 0.043, -0.043, -0.999, 43.764, 19.202)" fill="#8147b5"/>
              </g>
              <g id="Grupo_175119" data-name="Grupo 175119" transform="translate(20.829 28.041)">
                <g id="Grupo_175118" data-name="Grupo 175118">
                  <path id="Trazado_208092" data-name="Trazado 208092" d="M327.52,309.7l-3.577,18.625s-16.467,4.051-18.759,4.745" transform="translate(-295.308 -309.696)" fill="none" stroke="#243d73" stroke-linecap="round" stroke-linejoin="round" stroke-width="7.03"/>
                  <g id="Grupo_175117" data-name="Grupo 175117" transform="translate(0 19.606)">
                    <path id="Trazado_208093" data-name="Trazado 208093" d="M301.187,330.834a4.157,4.157,0,0,1,2.372,2.384" transform="translate(-295.018 -330.834)" fill="none" stroke="#ffac91" stroke-linecap="round" stroke-linejoin="round" stroke-width="2.562"/>
                    <path id="Trazado_208094" data-name="Trazado 208094" d="M304.406,332.8a2.077,2.077,0,0,1,1.324,1.114c.224.475.482,1.795-.06,2.134a6.694,6.694,0,0,1-4.887.72c-1.058-.149-1.436-.221-1.277-1.219a12.958,12.958,0,0,1,.392-1.755,1.486,1.486,0,0,1,1.207-.976A7.9,7.9,0,0,1,304.406,332.8Z" transform="translate(-294.894 -330.964)" fill="#ffac91"/>
                    <path id="Trazado_208095" data-name="Trazado 208095" d="M301.361,333.564a28.791,28.791,0,0,1-5.3-.057" transform="translate(-294.647 -331.028)" fill="none" stroke="#ffac91" stroke-linecap="round" stroke-linejoin="round" stroke-width="1.644"/>
                    <path id="Trazado_208096" data-name="Trazado 208096" d="M300.46,334.709a15.125,15.125,0,0,1-5.861-.511" transform="translate(-294.541 -331.078)" fill="none" stroke="#ffac91" stroke-linecap="round" stroke-linejoin="round" stroke-width="1.644"/>
                    <path id="Trazado_208097" data-name="Trazado 208097" d="M299.78,335.964a17.464,17.464,0,0,1-5.244-.97" transform="translate(-294.536 -331.135)" fill="none" stroke="#ffac91" stroke-linecap="round" stroke-linejoin="round" stroke-width="1.644"/>
                    <path id="Trazado_208098" data-name="Trazado 208098" d="M301.537,335.837a10.434,10.434,0,0,1-5.927-.36" transform="translate(-294.614 -331.17)" fill="none" stroke="#ffac91" stroke-linecap="round" stroke-linejoin="round" stroke-width="1.644"/>
                  </g>
                </g>
              </g>
            </g>
            <g id="Grupo_175124" data-name="Grupo 175124" transform="translate(38.037 71.389)">
              <g id="Grupo_175121" data-name="Grupo 175121" transform="translate(0 25.11)">
                <path id="Trazado_208099" data-name="Trazado 208099" d="M313.088,388.116a2.042,2.042,0,1,0,2.042-2.041A2.042,2.042,0,0,0,313.088,388.116Z" transform="translate(-313.088 -383.689)" fill="#666488"/>
                <line id="Línea_447" data-name="Línea 447" y2="4.428" transform="translate(1.994)" fill="none" stroke="#243d73" stroke-linecap="round" stroke-linejoin="round" stroke-width="2.352"/>
              </g>
              <g id="Grupo_175122" data-name="Grupo 175122" transform="translate(20.779 25.11)">
                <circle id="Elipse_13275" data-name="Elipse 13275" cx="2.042" cy="2.042" r="2.042" transform="translate(0 2.386)" fill="#666488"/>
                <line id="Línea_448" data-name="Línea 448" y2="4.428" transform="translate(1.995)" fill="none" stroke="#243d73" stroke-linecap="round" stroke-linejoin="round" stroke-width="2.352"/>
              </g>
              <line id="Línea_449" data-name="Línea 449" y2="24.122" transform="translate(12.483)" fill="none" stroke="#243d73" stroke-linecap="round" stroke-linejoin="round" stroke-width="3.333"/>
              <line id="Línea_450" data-name="Línea 450" x2="20.779" transform="translate(2.042 25.11)" fill="none" stroke="#243d73" stroke-linecap="round" stroke-linejoin="round" stroke-width="2.352"/>
              <g id="Grupo_175123" data-name="Grupo 175123" transform="translate(10.441 25.11)">
                <path id="Trazado_208100" data-name="Trazado 208100" d="M324.345,388.116a2.042,2.042,0,1,0,2.042-2.041A2.042,2.042,0,0,0,324.345,388.116Z" transform="translate(-324.345 -383.689)" fill="#9692c6"/>
                <line id="Línea_451" data-name="Línea 451" y2="4.22" transform="translate(2.042)" fill="none" stroke="#243d73" stroke-linecap="round" stroke-linejoin="round" stroke-width="2.352"/>
              </g>
            </g>
            <g id="Grupo_175125" data-name="Grupo 175125" transform="translate(42.25 52.514)">
              <path id="Trazado_208101" data-name="Trazado 208101" d="M317.63,359.951l26.084-1.091V353.59H317.63Z" transform="translate(-317.63 -337.35)" fill="#ce6a77"/>
              <path id="Rectángulo_298138" data-name="Rectángulo 298138" d="M5.009,0h9.2A5.008,5.008,0,0,1,19.22,5.008V15.24a5.008,5.008,0,0,1-5.008,5.008h-9.2A5.009,5.009,0,0,1,0,15.24V5.009A5.009,5.009,0,0,1,5.009,0Z" transform="translate(25.033 20.249) rotate(180)" fill="none" stroke="#243d73" stroke-miterlimit="10" stroke-width="2.352"/>
            </g>
          </g>
          <g id="Grupo_175127" data-name="Grupo 175127" transform="translate(0 4.801)" opacity="0.64">
            <path id="Trazado_208102" data-name="Trazado 208102" d="M287.687,315.372l-7.111-5.732,4.986-2.949Z" transform="translate(-264.945 -286.238)" fill="#4b8495"/>
            <circle id="Elipse_13276" data-name="Elipse 13276" cx="12.292" cy="12.292" r="12.292" fill="#4b8495"/>
            <path id="Trazado_208103" data-name="Trazado 208103" d="M283.15,295.44a3.354,3.354,0,0,0-6.7,0,3.353,3.353,0,0,0-6.7,0s-.312,3.95,6.7,8.595C283.462,299.391,283.15,295.44,283.15,295.44Z" transform="translate(-264.16 -285.192)" fill="#fff"/>
          </g>
        </g>
        <g id="Grupo_175149" data-name="Grupo 175149" transform="translate(135.471 127.809)">
          <g id="Grupo_175145" data-name="Grupo 175145" transform="translate(0 32.451)">
            <ellipse id="Elipse_13277" data-name="Elipse 13277" cx="23.27" cy="5" rx="23.27" ry="5" transform="translate(38.568 116.333)" fill="#d2dce0"/>
            <g id="Grupo_175144" data-name="Grupo 175144">
              <g id="Grupo_175129" data-name="Grupo 175129" transform="translate(50.31 61.364)">
                <path id="Trazado_208104" data-name="Trazado 208104" d="M251.019,292.065c.723,5.576-4.371,21.334-5.92,27.564a57.336,57.336,0,0,1,2.321,15.705s-1.163,8.5-1.161,9.961l-3.052-.1c-.122-1.447-4.151-19.432-5.623-26.281-1.1-5.124.835-16.851,3.037-27.716C245.7,290.279,250.511,288.15,251.019,292.065Z" transform="translate(-234.858 -289.79)" fill="#e3a5a2"/>
                <path id="Trazado_208105" data-name="Trazado 208105" d="M243.019,349.524l-3.352,1.1c-1.8.4-3.166.812-4.159,1.14-.642.212-1.052.751-.721,1.243a.768.768,0,0,0,.544.336l10.1-.014a.708.708,0,0,0,.766-.63l0-.544h0v-2.627Z" transform="translate(-234.669 -294.118)" fill="#8c3878"/>
              </g>
              <g id="Grupo_175130" data-name="Grupo 175130" transform="translate(53.011 57.96)">
                <path id="Trazado_208106" data-name="Trazado 208106" d="M257.425,293.679c.768,2.289,1.081,7.68,1.044,11.933-.046,5.441-3.6,12.058-3.579,18.771,3.34,4.083,2.74,8.7,2.721,12.425,0,0-.011,10.025.012,11.484l-3.062.444c-.142-1.445-4.662-15.892-6.874-23.714-1.956-6.919-4.347-23.136-2.44-33.13C250.368,292.55,252.323,292.885,257.425,293.679Z" transform="translate(-238.087 -286.537)" fill="#ffb9b6"/>
                <path id="Trazado_208107" data-name="Trazado 208107" d="M257.384,286.119s4.771,9.187,1.64,22.047c-3.254,1.3-17.975.875-21.442-3.038,0,0-.009-10.564,3.309-17.694Z" transform="translate(-237.582 -286.119)" fill="#7dddfb"/>
                <path id="Trazado_208108" data-name="Trazado 208108" d="M254.567,352.352l-3.176,1.141c-1.793.429-3.153.857-4.141,1.2-.639.222-1.042.766-.7,1.253a.773.773,0,0,0,.549.328l10.093-.159a.707.707,0,0,0,.757-.64l-.006-.544h0l-.037-2.626Z" transform="translate(-238.223 -290.915)" fill="#8c3878"/>
              </g>
              <g id="Grupo_175133" data-name="Grupo 175133" transform="translate(27.936 25.881)">
                <path id="Trazado_208109" data-name="Trazado 208109" d="M240.989,260.646l-7.862,10.161a73.507,73.507,0,0,1-14.083-1.349" transform="translate(-211.163 -252.194)" fill="none" stroke="#243d73" stroke-linecap="round" stroke-linejoin="round" stroke-width="8.23"/>
                <path id="Trazado_208110" data-name="Trazado 208110" d="M243.607,251.579c-2.2.664-3.836,3.355-4.561,4.6l-4.089,7.464c1.3.823,2.581,1.685,3.865,2.545q1.159.775,2.308,1.554l6.381-9.821-1.717-6.388Z" transform="translate(-212.316 -251.534)" fill="#cf8655"/>
                <g id="Grupo_175132" data-name="Grupo 175132" transform="translate(0 15.192)">
                  <g id="Grupo_175131" data-name="Grupo 175131" transform="translate(0 0.919)">
                    <path id="Trazado_208111" data-name="Trazado 208111" d="M215.149,269.778s-1.774-.145-4.6,1.976" transform="translate(-210.547 -268.966)" fill="none" stroke="#243d73" stroke-linecap="round" stroke-linejoin="round" stroke-width="2.058"/>
                    <path id="Trazado_208112" data-name="Trazado 208112" d="M216.308,269a6.759,6.759,0,0,0-5.5,1.525" transform="translate(-210.566 -268.903)" fill="none" stroke="#243d73" stroke-linecap="round" stroke-linejoin="round" stroke-width="2.058"/>
                    <path id="Trazado_208113" data-name="Trazado 208113" d="M216.2,271.122a12.431,12.431,0,0,0-5.655,1.458" transform="translate(-210.547 -269.064)" fill="none" stroke="#243d73" stroke-linecap="round" stroke-linejoin="round" stroke-width="2.058"/>
                    <path id="Trazado_208114" data-name="Trazado 208114" d="M217.072,271.82c-1.107-.117-3.016-.007-6.264,1.616" transform="translate(-210.566 -269.112)" fill="none" stroke="#243d73" stroke-linecap="round" stroke-linejoin="round" stroke-width="2.058"/>
                  </g>
                  <path id="Trazado_208115" data-name="Trazado 208115" d="M220.212,271.993c1.438-.683,1.434-3.495,1.434-3.495a15.956,15.956,0,0,0-7.626-.235l.2,1.681a3.938,3.938,0,0,0,.743,2.084C215.626,272.815,218.856,272.638,220.212,271.993Z" transform="translate(-210.799 -267.913)" fill="#e3a5a2"/>
                  <path id="Trazado_208116" data-name="Trazado 208116" d="M215.727,273.445s3.7-.578,4.445-1.537" transform="translate(-210.922 -268.202)" fill="none" stroke="#e3a5a2" stroke-linecap="round" stroke-linejoin="round" stroke-width="2.058"/>
                </g>
              </g>
              <path id="Trazado_208117" data-name="Trazado 208117" d="M258.1,242.381c-3.188-2.484.448-4.782.448-4.782l-7.34-2.976s-5.978,6.319-8.288,7.321-6.212,5.085-.4,7.971a6.674,6.674,0,0,0,6.081.289,21.472,21.472,0,0,0,3.432.616,8.313,8.313,0,0,0,1.623-.1,10.13,10.13,0,0,0,1.884.424C260.808,251.861,261.291,244.864,258.1,242.381Z" transform="translate(-184.708 -224.428)" fill="#5e7cff"/>
              <path id="Trazado_208118" data-name="Trazado 208118" d="M255.43,256.3c-.971-4.181-2.379-5.748-6.31-5.755-1.619,0-3.237-.013-4.855-.019a2.354,2.354,0,0,0-.435.034,3.943,3.943,0,0,0-3.4,3.828,2.681,2.681,0,0,1-.033.48,34.608,34.608,0,0,1-2.032,6.318c-.452,1.135-1.2,4.174,1.21,6.314a2.532,2.532,0,0,1,.876,1.83c.119,5.273,1.245,9.265.392,13.842a2.47,2.47,0,0,0,1.966,2.858c5.659,1.119,8.116,1.108,13.043.226,1.323-.237,2.528-1.554,2.017-2.8C253.547,272.952,256.11,259.229,255.43,256.3Z" transform="translate(-184.593 -225.58)" fill="#f29e64"/>
              <g id="Grupo_175136" data-name="Grupo 175136" transform="translate(54.116)">
                <path id="Trazado_208119" data-name="Trazado 208119" d="M251.052,250.77s-3.748,3.5-4.65,2.935c-.51-.317-.709-2.973-.709-2.973a12.675,12.675,0,0,0-.181-6.166c.638-1.408,4.486-1.7,5.582.2A21.626,21.626,0,0,0,251.052,250.77Z" transform="translate(-239.262 -225.065)" fill="#e3a5a2"/>
                <g id="Grupo_175134" data-name="Grupo 175134" transform="translate(13.979 15.417)">
                  <path id="Trazado_208120" data-name="Trazado 208120" d="M256.892,242.194s.542,1.88-3.048,3.13l2.617-5.072Z" transform="translate(-253.844 -240.253)" fill="#5e7cff"/>
                </g>
                <g id="Grupo_175135" data-name="Grupo 175135">
                  <path id="Trazado_208121" data-name="Trazado 208121" d="M242.1,232.923s-3.116,5.6-.181,9.1l1.092-.208Z" transform="translate(-238.91 -224.304)" fill="#5e7cff"/>
                  <path id="Trazado_208122" data-name="Trazado 208122" d="M240.437,239.33c.281,1.153,1.03,1.96,1.673,1.8s.935-1.219.653-2.372-1.03-1.96-1.673-1.8S240.155,238.178,240.437,239.33Z" transform="translate(-238.886 -224.595)" fill="#e3a5a2"/>
                  <path id="Trazado_208123" data-name="Trazado 208123" d="M242.833,234.613s.279,5.152-.836,5.18c-1.643.045-2.064-3.841-1.277-5.869Z" transform="translate(-238.887 -224.377)" fill="#5e7cff"/>
                  <path id="Trazado_208124" data-name="Trazado 208124" d="M255.857,231.776a8.119,8.119,0,0,0-6.335-3.646c-.086,0-.177,0-.267,0s-.18-.018-.266-.021c-2.6-.109-3.59-.3-5.292,1.638-2.195,2.5-1.6,7.558-1.67,9.163-.19,4.55.138,7.828,4.368,7.984,4.427.163,9.02-2.673,9.482-7.388C256.034,237.908,256.768,233.1,255.857,231.776Z" transform="translate(-239.006 -223.951)" fill="#ffb9b6"/>
                  <path id="Trazado_208125" data-name="Trazado 208125" d="M257.4,232.261a6.262,6.262,0,0,1,3.175,6.554c-.221,2.118-1.916,3.693-4.986,3.295Z" transform="translate(-239.991 -224.256)" fill="#5e7cff"/>
                  <path id="Trazado_208126" data-name="Trazado 208126" d="M246.163,225.686a10.156,10.156,0,0,1,2.515-.42c2.489-.157,5.221-.1,7.288,1.4,4.062,2.945,4.726,8.836,1.213,13.115-.432.253-5.43-.09-8.1-1.586-2.281-1.28-4-4.6-3.3-6.434-2.246.381-2.835.546-1.578-1.84.937-1.779,0,0,.085-2.183A2.325,2.325,0,0,1,246.163,225.686Z" transform="translate(-239.119 -223.745)" fill="#5e7cff"/>
                  <path id="Trazado_208127" data-name="Trazado 208127" d="M245.321,226.08s4.067-4.776,10.189-.988c2.469,1.528,4.981,5.276,3.436,8.128Z" transform="translate(-239.248 -223.631)" fill="#5e7cff"/>
                  <path id="Trazado_208128" data-name="Trazado 208128" d="M246.495,229.466s-.172,5.231-4.812,5.9c0,0-4.577-2.515-2.249-6.943,1.087-2.067,2.791-2.566,5.413-2.161Z" transform="translate(-238.773 -223.812)" fill="#5e7cff"/>
                  <path id="Trazado_208129" data-name="Trazado 208129" d="M258.017,240.695c-.444,1.327-1.4,2.2-2.144,1.953s-.979-1.524-.534-2.851,1.405-2.2,2.144-1.953S258.462,239.369,258.017,240.695Z" transform="translate(-239.957 -224.658)" fill="#ffb9b6"/>
                  <path id="Trazado_208130" data-name="Trazado 208130" d="M255.1,239.879s1.564,2.584-.051,2.814c0,0-3.681-.032-3.183-3.757Z" transform="translate(-239.719 -224.74)" fill="#5e7cff"/>
                </g>
              </g>
              <g id="Grupo_175139" data-name="Grupo 175139" transform="translate(0 26.311)">
                <g id="Grupo_175138" data-name="Grupo 175138">
                  <path id="Trazado_208131" data-name="Trazado 208131" d="M180.429,253.28,182.221,252h28.22l6.521,22.816H188.742l-6.155-21.534Z" transform="translate(-180.429 -251.997)" fill="#1c3057"/>
                  <path id="Trazado_208132" data-name="Trazado 208132" d="M186.95,276.2h28.22l-6.521-22.816h-28.22Z" transform="translate(-180.429 -252.098)" fill="#7dddfb"/>
                  <g id="Grupo_175137" data-name="Grupo 175137" transform="translate(14.033 7.889)">
                    <path id="Trazado_208133" data-name="Trazado 208133" d="M197.928,260.5s-.959.116-.589,1.538" transform="translate(-195.682 -260.503)" fill="none" stroke="#243d73" stroke-linecap="round" stroke-linejoin="round" stroke-width="0.483"/>
                    <path id="Trazado_208134" data-name="Trazado 208134" d="M199,263.162a1.154,1.154,0,0,1-1.069,1.581,2.021,2.021,0,0,1-1.829-1.51,1.154,1.154,0,0,1,1.03-1.567A2.007,2.007,0,0,1,199,263.162Z" transform="translate(-195.594 -260.587)" fill="#c7e5f5"/>
                    <path id="Trazado_208135" data-name="Trazado 208135" d="M199.6,266.1a1.018,1.018,0,0,1,.636-1.324,3.543,3.543,0,0,0-2.738-1.456,2.028,2.028,0,0,0-1.843,2.765,3.808,3.808,0,0,0,3.3,2.824,1.888,1.888,0,0,0,1.994-1.47A1.964,1.964,0,0,1,199.6,266.1Z" transform="translate(-195.559 -260.707)" fill="#c7e5f5"/>
                  </g>
                  <rect id="Rectángulo_298139" data-name="Rectángulo 298139" width="17.964" height="3.169" transform="translate(51.799 24.098) rotate(180)" fill="#614eb5"/>
                </g>
              </g>
              <g id="Grupo_175143" data-name="Grupo 175143" transform="translate(25.707 26.956)">
                <g id="Grupo_175141" data-name="Grupo 175141">
                  <path id="Trazado_208136" data-name="Trazado 208136" d="M248.055,260.689l-7.149,16.218s-18.579,1.507-21.19,1.858" transform="translate(-208.983 -253.273)" fill="none" stroke="#243d73" stroke-linecap="round" stroke-linejoin="round" stroke-width="8.999"/>
                  <g id="Grupo_175140" data-name="Grupo 175140" transform="translate(0 20.757)">
                    <path id="Trazado_208137" data-name="Trazado 208137" d="M216.09,275.072a4.57,4.57,0,0,1,2.157,3" transform="translate(-208.72 -275.072)" fill="none" stroke="#243d73" stroke-linecap="round" stroke-linejoin="round" stroke-width="2.817"/>
                    <path id="Trazado_208138" data-name="Trazado 208138" d="M219.192,277.809a2.282,2.282,0,0,1,1.241,1.441c.16.555.209,2.032-.44,2.306a7.358,7.358,0,0,1-5.43-.078c-1.122-.348-1.519-.491-1.172-1.546a14.464,14.464,0,0,1,.734-1.835,1.634,1.634,0,0,1,1.48-.848A8.719,8.719,0,0,1,219.192,277.809Z" transform="translate(-208.515 -275.23)" fill="#ffb9b6"/>
                    <path id="Trazado_208139" data-name="Trazado 208139" d="M215.8,278.065a31.627,31.627,0,0,1-5.74-.992" transform="translate(-208.283 -275.217)" fill="none" stroke="#e3a5a2" stroke-linecap="round" stroke-linejoin="round" stroke-width="1.807"/>
                    <path id="Trazado_208140" data-name="Trazado 208140" d="M214.622,279.149a16.613,16.613,0,0,1-6.27-1.583" transform="translate(-208.159 -275.253)" fill="none" stroke="#e3a5a2" stroke-linecap="round" stroke-linejoin="round" stroke-width="1.807"/>
                    <path id="Trazado_208141" data-name="Trazado 208141" d="M213.664,280.393a19.232,19.232,0,0,1-5.52-1.973" transform="translate(-208.144 -275.315)" fill="none" stroke="#e3a5a2" stroke-linecap="round" stroke-linejoin="round" stroke-width="1.807"/>
                    <path id="Trazado_208142" data-name="Trazado 208142" d="M215.593,280.562a11.469,11.469,0,0,1-6.368-1.431" transform="translate(-208.222 -275.366)" fill="none" stroke="#e3a5a2" stroke-linecap="round" stroke-linejoin="round" stroke-width="1.807"/>
                  </g>
                  <path id="Trazado_208143" data-name="Trazado 208143" d="M250.6,269.593l-8.41-1.655,3.143-10.395s1.069-5,4.137-4.846C251.671,252.805,259.025,256.091,250.6,269.593Z" transform="translate(-210.611 -252.693)" fill="#f29e64"/>
                </g>
                <g id="Grupo_175142" data-name="Grupo 175142" transform="translate(31.58 2.8)">
                  <line id="Línea_452" data-name="Línea 452" x1="2.892" y2="9.562" transform="translate(0 2.883)" fill="none" stroke="#243d73" stroke-miterlimit="10" stroke-width="0.515"/>
                  <path id="Trazado_208144" data-name="Trazado 208144" d="M251.259,269.811s5.02-7.176,3-14.1" transform="translate(-242.849 -255.712)" fill="none" stroke="#243d73" stroke-miterlimit="10" stroke-width="0.722"/>
                </g>
              </g>
            </g>
          </g>
          <g id="Grupo_175148" data-name="Grupo 175148" transform="translate(53.702)" opacity="0.64">
            <path id="Trazado_208145" data-name="Trazado 208145" d="M246.774,222.115l4.872-7.726-5.672-1.176Z" transform="translate(-238.88 -190.425)" fill="#4b8495"/>
            <circle id="Elipse_13278" data-name="Elipse 13278" cx="12.292" cy="12.292" r="12.292" fill="#4b8495"/>
            <g id="Grupo_175147" data-name="Grupo 175147" transform="translate(5.26 5.392)">
              <path id="Trazado_208146" data-name="Trazado 208146" d="M257.732,199.3a6.987,6.987,0,1,1-13.406,0,7.061,7.061,0,0,1,13.406,0Z" transform="translate(-243.997 -194.458)" fill="#fff"/>
              <path id="Trazado_208147" data-name="Trazado 208147" d="M254.673,204.133a5.209,5.209,0,0,1-6.714,0" transform="translate(-244.284 -195.159)" fill="none" stroke="#4b8495" stroke-linecap="round" stroke-linejoin="round" stroke-width="1"/>
              <g id="Grupo_175146" data-name="Grupo 175146" transform="translate(3.336 4.908)">
                <path id="Trazado_208148" data-name="Trazado 208148" d="M255.467,200.519a.626.626,0,1,1-.61-.77A.7.7,0,0,1,255.467,200.519Z" transform="translate(-248.076 -199.749)" fill="#4b8495"/>
                <path id="Trazado_208149" data-name="Trazado 208149" d="M248.815,200.519a.627.627,0,1,1-.61-.77A.7.7,0,0,1,248.815,200.519Z" transform="translate(-247.594 -199.749)" fill="#4b8495"/>
              </g>
            </g>
          </g>
        </g>
        <g id="Grupo_175156" data-name="Grupo 175156" transform="translate(129.061 73.199)">
          <g id="Grupo_175151" data-name="Grupo 175151" transform="translate(0 226.877)" opacity="0.64">
            <ellipse id="Elipse_13279" data-name="Elipse 13279" cx="12.292" cy="12.563" rx="12.292" ry="12.563" fill="#4b8495"/>
            <g id="Grupo_175150" data-name="Grupo 175150" transform="translate(3.816 5.121)">
              <rect id="Rectángulo_298140" data-name="Rectángulo 298140" width="5.386" height="8.727" rx="0.978" transform="translate(0 4.303)" fill="#fff"/>
              <path id="Trazado_208150" data-name="Trazado 208150" d="M194.117,359.052H190.29a.748.748,0,0,1-.74-.757v-.668l0-.095-.112-1.43a1.175,1.175,0,0,0-1.16-1.1h0a1.177,1.177,0,0,0-1.165,1.19v1.367a1.212,1.212,0,0,1-.186.644l-.323.547a2.385,2.385,0,0,1-.631.7l-1.014.759a1,1,0,0,0-.388.792V365.2a1,1,0,0,0,.391.794l.753.573a.957.957,0,0,0,.579.2h6.367a.965.965,0,0,0,.551-.175,1.175,1.175,0,0,0,.555-1.317,1.035,1.035,0,0,1,.237-.928,1.175,1.175,0,0,0,.277-.968,1.131,1.131,0,0,1,.2-.863,1.279,1.279,0,0,0,.242-1.089,1.01,1.01,0,0,1,.189-.8A.992.992,0,0,0,194.117,359.052Z" transform="translate(-178.135 -355.007)" fill="#fff"/>
            </g>
          </g>
          <g id="Grupo_175153" data-name="Grupo 175153" transform="translate(24.583 -47)" opacity="0.64">
            <ellipse id="Elipse_13280" data-name="Elipse 13280" cx="8.476" cy="8.663" rx="8.476" ry="8.663" fill="#4b8495"/>
            <g id="Grupo_175152" data-name="Grupo 175152" transform="translate(2.631 3.531)">
              <rect id="Rectángulo_298141" data-name="Rectángulo 298141" width="3.714" height="6.018" rx="0.674" transform="translate(11.69 8.986) rotate(180)" fill="#fff"/>
              <path id="Trazado_208151" data-name="Trazado 208151" d="M205.488,111.48h2.639a.516.516,0,0,0,.51-.521V110.5l0-.065.077-.987a.81.81,0,0,1,.8-.755h0a.812.812,0,0,1,.8.821v.942a.834.834,0,0,0,.128.444l.223.377a1.654,1.654,0,0,0,.435.486c.285.211.7.523.7.523a.684.684,0,0,1,.267.545v2.887a.687.687,0,0,1-.269.548l-.519.4a.655.655,0,0,1-.4.135h-4.39a.668.668,0,0,1-.38-.121.811.811,0,0,1-.382-.909.714.714,0,0,0-.163-.64.811.811,0,0,1-.191-.668.788.788,0,0,0-.134-.6.881.881,0,0,1-.168-.75.7.7,0,0,0-.13-.551A.684.684,0,0,1,205.488,111.48Z" transform="translate(-204.818 -108.691)" fill="#fff"/>
            </g>
          </g>
          <g id="Grupo_175155" data-name="Grupo 175155" transform="translate(219.625 102.353)" opacity="0.64">
            <ellipse id="Elipse_13281" data-name="Elipse 13281" cx="8.476" cy="8.663" rx="8.476" ry="8.663" fill="#4b8495"/>
            <g id="Grupo_175154" data-name="Grupo 175154" transform="translate(2.631 3.531)">
              <rect id="Rectángulo_298142" data-name="Rectángulo 298142" width="3.714" height="6.018" rx="0.674" transform="translate(0 2.968)" fill="#fff"/>
              <path id="Trazado_208152" data-name="Trazado 208152" d="M414.8,183.018h-2.639a.516.516,0,0,1-.51-.522v-.461l0-.065-.077-.986a.811.811,0,0,0-.8-.756h0a.812.812,0,0,0-.8.822v.942a.829.829,0,0,1-.128.443l-.223.378a1.65,1.65,0,0,1-.435.485l-.7.523a.687.687,0,0,0-.268.546v2.887a.688.688,0,0,0,.27.547l.519.4a.656.656,0,0,0,.4.135h4.39a.668.668,0,0,0,.38-.121.812.812,0,0,0,.382-.909.714.714,0,0,1,.162-.639.81.81,0,0,0,.192-.668.783.783,0,0,1,.135-.6.885.885,0,0,0,.168-.751.7.7,0,0,1,.13-.55A.684.684,0,0,0,414.8,183.018Z" transform="translate(-403.782 -180.228)" fill="#fff"/>
            </g>
          </g>
        </g>
      </g>
    </g>
  </g>
</svg>
