<svg xmlns="http://www.w3.org/2000/svg" width="400" height="260" viewBox="0 0 400 260">
  <g id="Grupo_176831" data-name="Grupo 176831" transform="translate(11713 7336)">
    <g id="Grupo_176767" data-name="Grupo 176767">
      <rect id="Rectángulo_298445" data-name="Rectángulo 298445" width="400" height="260" transform="translate(-11713 -7336)" fill="none"/>
      <g id="Grupo_175060" data-name="Grupo 175060" transform="translate(228.09 -195.5)">
        <g id="Grupo_175059" data-name="Grupo 175059" transform="translate(-11910.09 -7140.5)">
          <path id="Trazado_208026" data-name="Trazado 208026" d="M738.555,551.011a15.858,15.858,0,0,1-5.622-.983,13.236,13.236,0,0,1-4.536-2.844,14.222,14.222,0,0,1-4.189-9.888c-.125-2.92-.093-5.869-.062-8.72l.006-.58a25.24,25.24,0,0,1-2.813,3.013c-3.734,3.307-7.841,5.055-11.879,5.055a14.184,14.184,0,0,1-9.825-4.053,13.3,13.3,0,0,1-3.25-4.61,11.323,11.323,0,0,1-.822-5.254c.283-3.568,2.182-7.119,5.492-10.269,7.637-7.269,14.419-13.543,20.735-19.18a6.731,6.731,0,0,0,2.509-5.668c-.1-14.873-.088-29.992-.076-44.613,0-4.776.008-9.714.008-14.571v-1.124c-12.284,6.557-24.925,13.3-37.664,19.987a7.072,7.072,0,0,0-4.048,4.842c-2.123,7.889-4.608,16.471-7.6,26.235a17.468,17.468,0,0,1-5.391,8.47,13.819,13.819,0,0,1-8.9,3.171,16.168,16.168,0,0,1-3.819-.47,13.418,13.418,0,0,1-9.037-6.5c-1.7-3.149-1.988-7.112-.837-11.46a23.435,23.435,0,0,1,1.415-3.763l-.537.293c-2.65,1.445-5.391,2.94-8.183,4.294a18.19,18.19,0,0,1-7.961,1.935,13.823,13.823,0,0,1-12.1-6.811,13.1,13.1,0,0,1-1.794-4.928,11.524,11.524,0,0,1,.38-4.982,14.642,14.642,0,0,1,6.867-8.193c2.768-1.649,5.662-3.148,8.462-4.6l.86-.445a32.275,32.275,0,0,1-5.144-.926,16.56,16.56,0,0,1-9.415-6.255,11.775,11.775,0,0,1-1.924-4.76,12.648,12.648,0,0,1,.278-5.269,12.873,12.873,0,0,1,5.052-7.358,15.524,15.524,0,0,1,9.058-2.707,20.758,20.758,0,0,1,4.523.516c8.615,1.929,17.281,4.164,25.663,6.326l3.779.974a11.127,11.127,0,0,0,2.758.432,5.6,5.6,0,0,0,2.783-.742c11.073-5.981,22.24-11.947,32.164-17.237-9.921-5.289-21.087-11.254-32.164-17.237a5.6,5.6,0,0,0-2.783-.742,11.126,11.126,0,0,0-2.758.432l-3.779.974c-8.382,2.161-17.049,4.4-25.663,6.326a20.758,20.758,0,0,1-4.523.516,15.523,15.523,0,0,1-9.058-2.708,12.873,12.873,0,0,1-5.053-7.357,12.647,12.647,0,0,1-.278-5.269,11.775,11.775,0,0,1,1.924-4.76,16.56,16.56,0,0,1,9.414-6.255,32.268,32.268,0,0,1,5.145-.926l-.861-.446c-2.8-1.449-5.694-2.947-8.461-4.6a14.642,14.642,0,0,1-6.867-8.193,11.524,11.524,0,0,1-.38-4.982,13.1,13.1,0,0,1,1.794-4.928,13.823,13.823,0,0,1,12.1-6.811,18.191,18.191,0,0,1,7.961,1.935c2.794,1.355,5.536,2.851,8.188,4.3l.532.29a23.434,23.434,0,0,1-1.415-3.764c-1.151-4.348-.861-8.31.837-11.46a13.417,13.417,0,0,1,9.037-6.5,16.167,16.167,0,0,1,3.819-.471,13.819,13.819,0,0,1,8.9,3.171,17.467,17.467,0,0,1,5.391,8.47c2.991,9.764,5.476,18.346,7.6,26.235a7.071,7.071,0,0,0,4.048,4.842c12.766,6.705,25.388,13.434,37.65,19.979,0-11.6.014-21.659.082-31.859a6.732,6.732,0,0,0-2.509-5.669c-6.309-5.63-13.091-11.9-20.735-19.18-3.31-3.15-5.209-6.7-5.492-10.269a11.323,11.323,0,0,1,.822-5.254,13.3,13.3,0,0,1,3.25-4.61,14.184,14.184,0,0,1,9.825-4.052c4.037,0,8.145,1.748,11.879,5.055a25.242,25.242,0,0,1,2.813,3.013l-.006-.58c-.031-2.851-.063-5.8.062-8.72a14.223,14.223,0,0,1,4.189-9.888,13.234,13.234,0,0,1,4.535-2.844,15.856,15.856,0,0,1,5.622-.983h.206a15.85,15.85,0,0,1,5.5,1.011,13.455,13.455,0,0,1,4.467,2.787,13.926,13.926,0,0,1,4.238,9.605c.163,3.048.122,6.122.082,9.095q-.006.455-.012.917a28.7,28.7,0,0,1,3.428-3.677,19,19,0,0,1,5.356-3.324,15.439,15.439,0,0,1,5.774-1.146,14.376,14.376,0,0,1,9.6,3.684,12.414,12.414,0,0,1,4.475,9.589,12.827,12.827,0,0,1-1.276,5.274,17.154,17.154,0,0,1-3.554,4.884c-6.091,5.966-12.493,11.822-18.684,17.485l-2.8,2.565c-1.648,1.51-2.483,2.637-2.47,4.611.07,11.074.087,22.19.09,32.708,12.464-6.653,25.279-13.485,38.076-20.206a7.071,7.071,0,0,0,4.048-4.842c2.122-7.887,4.608-16.468,7.6-26.235a17.468,17.468,0,0,1,5.391-8.47,13.819,13.819,0,0,1,8.9-3.171,16.167,16.167,0,0,1,3.819.471,13.417,13.417,0,0,1,9.037,6.5c1.7,3.149,1.988,7.112.837,11.46a23.435,23.435,0,0,1-1.415,3.764l.531-.29c2.652-1.446,5.394-2.942,8.189-4.3a18.19,18.19,0,0,1,7.961-1.935,13.822,13.822,0,0,1,12.1,6.811,13.1,13.1,0,0,1,1.794,4.928,11.523,11.523,0,0,1-.38,4.982,14.641,14.641,0,0,1-6.867,8.193c-2.768,1.649-5.662,3.148-8.461,4.6l-.861.446a32.273,32.273,0,0,1,5.145.926,16.56,16.56,0,0,1,9.414,6.255,11.775,11.775,0,0,1,1.924,4.76,12.65,12.65,0,0,1-.278,5.269,12.874,12.874,0,0,1-5.052,7.358,15.523,15.523,0,0,1-9.058,2.707,20.761,20.761,0,0,1-4.523-.516c-8.616-1.93-17.285-4.165-25.668-6.327l-3.774-.972a11.124,11.124,0,0,0-2.758-.432,5.6,5.6,0,0,0-2.783.742c-11.1,6-22.258,11.957-32.164,17.237,9.908,5.282,21.065,11.242,32.164,17.237a5.6,5.6,0,0,0,2.783.742,11.125,11.125,0,0,0,2.758-.432l3.775-.973c8.383-2.162,17.051-4.4,25.668-6.327a20.755,20.755,0,0,1,4.523-.516,15.523,15.523,0,0,1,9.058,2.708,12.873,12.873,0,0,1,5.053,7.357,12.65,12.65,0,0,1,.278,5.269,11.775,11.775,0,0,1-1.924,4.76,16.56,16.56,0,0,1-9.414,6.255,32.273,32.273,0,0,1-5.145.926l.86.446c2.8,1.449,5.694,2.947,8.462,4.6a14.642,14.642,0,0,1,6.867,8.193,11.523,11.523,0,0,1,.38,4.982,13.1,13.1,0,0,1-1.794,4.928,13.822,13.822,0,0,1-12.1,6.811h0a18.194,18.194,0,0,1-7.961-1.936c-2.793-1.355-5.534-2.849-8.184-4.295l-.536-.292a23.433,23.433,0,0,1,1.415,3.764c1.151,4.348.861,8.31-.837,11.46a13.417,13.417,0,0,1-9.037,6.5,16.167,16.167,0,0,1-3.819.471,13.819,13.819,0,0,1-8.9-3.171,17.468,17.468,0,0,1-5.391-8.47c-2.991-9.766-5.477-18.347-7.6-26.235a7.071,7.071,0,0,0-4.048-4.842c-12.725-6.683-25.572-13.532-38.075-20.205,0,4.955,0,9.938,0,14.787,0,15.195.007,30.907-.091,46.363-.013,1.974.822,3.1,2.47,4.612l2.783,2.547c6.2,5.669,12.607,11.531,18.7,17.5a17.153,17.153,0,0,1,3.555,4.884,12.826,12.826,0,0,1,1.276,5.274,12.414,12.414,0,0,1-4.475,9.589,14.377,14.377,0,0,1-9.6,3.684,15.441,15.441,0,0,1-5.774-1.146,19,19,0,0,1-5.356-3.324,28.686,28.686,0,0,1-3.428-3.678q.006.461.012.916c.04,2.973.081,6.047-.082,9.094a13.926,13.926,0,0,1-4.238,9.605A13.454,13.454,0,0,1,744.259,550a15.849,15.849,0,0,1-5.5,1.011Zm-14.2-30.317,1.785,1.176,1.107.73,1.537,1.014v1.1c0,1.3-.014,2.623-.028,3.9-.03,2.8-.062,5.693.059,8.508.253,5.927,3.985,9.608,9.74,9.608h.149c5.566-.063,9.356-3.729,9.656-9.339.156-2.915.115-5.922.076-8.829-.018-1.326-.036-2.7-.036-4.05v-1.182l1.681-.979,1.233-.718,1.739-1.012,1.284,1.486c.6.69,1.164,1.4,1.714,2.085a29.824,29.824,0,0,0,3.561,3.956,12.274,12.274,0,0,0,7.98,3.316,9.657,9.657,0,0,0,6.429-2.512,8.223,8.223,0,0,0,3.035-6.411,10.619,10.619,0,0,0-3.569-7.289c-6.043-5.919-12.423-11.755-18.594-17.4l-2.785-2.549c-2.009-1.84-3.864-4.044-3.841-7.681.1-15.443.094-31.148.091-46.337,0-6.015,0-12.235,0-18.353a2.462,2.462,0,0,1,.018-.295l.227-3.4,3.221,1.719c13.572,7.245,27.606,14.736,41.488,22.027a11.356,11.356,0,0,1,6.249,7.528c2.11,7.842,4.583,16.38,7.561,26.1,1.636,5.343,5.322,8.533,9.858,8.533a11.221,11.221,0,0,0,2.648-.33c5.944-1.448,8.338-6.115,6.568-12.8a26.284,26.284,0,0,0-1.812-4.45c-.347-.728-.707-1.481-1.037-2.247l-.813-1.887,2.431-1.038,1.426-.609,1.08-.461,1.031.549c1.217.649,2.443,1.317,3.628,1.964,2.6,1.419,5.293,2.886,7.984,4.192a13.361,13.361,0,0,0,5.826,1.449h0a9.145,9.145,0,0,0,8.079-4.619c2.714-4.509,1.175-9.384-3.919-12.419-2.648-1.578-5.479-3.043-8.216-4.46-1.247-.646-2.537-1.313-3.8-1.987l-1.105-.589-.214-5.092,2.029-.293c.941-.136,1.887-.24,2.8-.34a33.715,33.715,0,0,0,5.472-.895c6.226-1.768,9.264-6.057,7.928-11.191-1.107-4.253-4.706-6.792-9.629-6.792a15.805,15.805,0,0,0-3.442.4c-8.539,1.912-17.169,4.138-25.515,6.29l-3.778.973a15.722,15.722,0,0,1-3.989.587,10.5,10.5,0,0,1-5.1-1.323c-12.408-6.7-24.892-13.362-35.619-19.079l-3.48-1.854,3.48-1.854c10.725-5.715,23.206-12.374,35.619-19.079a10.5,10.5,0,0,1,5.1-1.323,15.719,15.719,0,0,1,3.989.587l3.778.973c8.346,2.152,16.976,4.378,25.515,6.29a15.809,15.809,0,0,0,3.442.4c4.923,0,8.523-2.539,9.629-6.792,1.336-5.134-1.7-9.423-7.928-11.191a33.7,33.7,0,0,0-5.469-.894c-.916-.1-1.863-.2-2.8-.341l-2.028-.293.214-5.091,1.105-.589c1.265-.674,2.555-1.342,3.8-1.988,2.738-1.417,5.568-2.883,8.216-4.46,5.094-3.036,6.633-7.911,3.919-12.419a9.146,9.146,0,0,0-8.08-4.619,13.359,13.359,0,0,0-5.825,1.449c-2.693,1.306-5.385,2.775-7.989,4.194-1.184.646-2.408,1.313-3.624,1.961l-1.031.55-4.937-2.108.813-1.887c.33-.765.689-1.518,1.036-2.246a26.29,26.29,0,0,0,1.812-4.451c1.77-6.688-.623-11.355-6.568-12.8a11.223,11.223,0,0,0-2.648-.33c-4.536,0-8.221,3.19-9.857,8.533-2.978,9.721-5.451,18.259-7.561,26.1a11.355,11.355,0,0,1-6.249,7.528c-13.968,7.336-27.965,14.808-41.5,22.035l-3.454,1.844v-3.7c0-11.585-.013-24.011-.091-36.38-.024-3.636,1.832-5.84,3.841-7.68l2.806-2.568c6.164-5.638,12.537-11.467,18.573-17.38a10.619,10.619,0,0,0,3.568-7.289,8.222,8.222,0,0,0-3.035-6.411,9.657,9.657,0,0,0-6.429-2.512,12.273,12.273,0,0,0-7.98,3.316,29.829,29.829,0,0,0-3.562,3.956c-.549.686-1.117,1.4-1.713,2.085l-1.284,1.486L748.4,318.69v-1.183c0-1.354.018-2.725.036-4.051.039-2.908.079-5.914-.076-8.83-.3-5.61-4.09-9.276-9.656-9.339h-.15c-5.755,0-9.487,3.682-9.74,9.608-.12,2.815-.089,5.709-.059,8.508.014,1.277.028,2.6.028,3.9v1.1l-.97.639-1.012.667-2.447,1.614L723,319.734c-.551-.646-1.075-1.31-1.582-1.951a28.048,28.048,0,0,0-3.258-3.675c-2.86-2.533-5.867-3.872-8.7-3.872a9.379,9.379,0,0,0-6.542,2.778c-4.163,3.919-3.612,9.339,1.438,14.146,7.609,7.243,14.357,13.485,20.63,19.083a10.819,10.819,0,0,1,3.923,8.777c-.076,11.257-.087,22.345-.081,35.529l0,3.7-3.456-1.845c-13.335-7.118-27.124-14.479-41.078-21.809a11.355,11.355,0,0,1-6.25-7.528c-2.111-7.844-4.584-16.382-7.561-26.1-1.636-5.343-5.321-8.533-9.857-8.533a11.222,11.222,0,0,0-2.648.33c-5.944,1.448-8.338,6.114-6.568,12.8a26.3,26.3,0,0,0,1.812,4.451c.347.728.706,1.48,1.036,2.245l.813,1.887-4.937,2.108-1.031-.55c-1.216-.648-2.44-1.316-3.624-1.962-2.6-1.42-5.295-2.888-7.988-4.194a13.359,13.359,0,0,0-5.825-1.449,9.147,9.147,0,0,0-8.08,4.619c-2.713,4.509-1.175,9.384,3.919,12.419,2.647,1.578,5.478,3.043,8.216,4.46,1.247.646,2.537,1.313,3.8,1.987l1.105.589.214,5.091-2.028.293c-.942.136-1.889.24-2.8.341a33.693,33.693,0,0,0-5.469.894c-6.226,1.768-9.264,6.057-7.928,11.191,1.107,4.253,4.706,6.792,9.629,6.792a15.805,15.805,0,0,0,3.442-.4c8.538-1.912,17.166-4.137,25.511-6.289l3.782-.974a15.723,15.723,0,0,1,3.989-.587,10.5,10.5,0,0,1,5.1,1.323c12.381,6.688,24.878,13.355,35.619,19.079l3.48,1.854-3.48,1.854c-10.744,5.725-23.243,12.394-35.619,19.079a10.5,10.5,0,0,1-5.1,1.323,15.722,15.722,0,0,1-3.99-.587l-3.782-.974c-8.344-2.152-16.972-4.377-25.51-6.289a15.805,15.805,0,0,0-3.442-.4c-4.923,0-8.523,2.539-9.629,6.792-1.336,5.135,1.7,9.423,7.928,11.191a33.708,33.708,0,0,0,5.472.895c.915.1,1.86.2,2.8.34l2.029.293-.214,5.091-1.105.589c-1.265.674-2.554,1.342-3.8,1.987-2.738,1.417-5.569,2.883-8.217,4.461-5.094,3.036-6.633,7.911-3.92,12.419a9.147,9.147,0,0,0,8.08,4.619,13.359,13.359,0,0,0,5.825-1.449c2.691-1.306,5.382-2.773,7.983-4.191,1.186-.647,2.412-1.315,3.629-1.964l1.031-.549,1.08.46,1.868.8,1.989.85-.813,1.887c-.33.766-.689,1.518-1.037,2.247a26.3,26.3,0,0,0-1.812,4.45c-1.77,6.688.624,11.355,6.568,12.8a11.222,11.222,0,0,0,2.648.33c4.6,0,8.2-3.11,9.857-8.533,2.977-9.719,5.45-18.257,7.561-26.1a11.356,11.356,0,0,1,6.25-7.528c13.923-7.313,27.734-14.686,41.091-21.816l3.455-1.844v8.519c0,4.858,0,9.8-.008,14.574-.012,14.614-.024,29.725.076,44.583a10.818,10.818,0,0,1-3.923,8.777c-6.28,5.6-13.028,11.847-20.63,19.083-5.05,4.807-5.6,10.227-1.438,14.146a9.379,9.379,0,0,0,6.542,2.778c2.829,0,5.836-1.339,8.7-3.871a28.042,28.042,0,0,0,3.257-3.674c.507-.642,1.032-1.306,1.583-1.953Z" transform="translate(-571.491 -291.011)" fill="#a7c7e3" opacity="0.4"/>
          <path id="Trazado_212697" data-name="Trazado 212697" d="M-13.07-7.244H-15.4L-16.538-.691h-1.583l1.134-6.553h-2.307l.232-1.313h6.223Zm1.318,6.553h-1.534l1.016-5.845h1.534Zm-.34-7.331a.761.761,0,0,1,.238-.6.836.836,0,0,1,.6-.238.84.84,0,0,1,.6.211.758.758,0,0,1,.265.573.783.783,0,0,1-.224.583.84.84,0,0,1-.613.259.854.854,0,0,1-.6-.205A.754.754,0,0,1-12.092-8.022ZM-7.684-.583A2.543,2.543,0,0,1-9.043-.959a2.276,2.276,0,0,1-.883-1.016A2.831,2.831,0,0,1-10.153-3.4l.016-.216a3.779,3.779,0,0,1,.5-1.567,3,3,0,0,1,1.07-1.1,2.646,2.646,0,0,1,1.448-.365,2.022,2.022,0,0,1,1.71.831,2.847,2.847,0,0,1,.44,2.048l-.086.665H-8.64a1.254,1.254,0,0,0,.276.908,1.052,1.052,0,0,0,.81.351A1.869,1.869,0,0,0-6.1-2.49l.7.864a2.168,2.168,0,0,1-.951.775A3.109,3.109,0,0,1-7.684-.583Zm.486-4.8a1.082,1.082,0,0,0-.748.265,2.326,2.326,0,0,0-.586.956h2.1l.032-.14A1.432,1.432,0,0,0-6.4-4.716.784.784,0,0,0-6.663-5.2.83.83,0,0,0-7.2-5.386Zm5.024-1.156-.124.664A2.152,2.152,0,0,1-.585-6.644a1.645,1.645,0,0,1,.9.249,1.161,1.161,0,0,1,.481.643,2.251,2.251,0,0,1,1.815-.891,1.47,1.47,0,0,1,1.213.551,2.262,2.262,0,0,1,.343,1.545l-.011.135L3.531-.691H2l.621-3.737A2.7,2.7,0,0,0,2.64-4.8a.579.579,0,0,0-.648-.584,1.286,1.286,0,0,0-1.075.671L.9-4.591.22-.691H-1.3l.621-3.722a2.7,2.7,0,0,0,.016-.373.578.578,0,0,0-.643-.589,1.291,1.291,0,0,0-1.043.546L-3.081-.691H-4.6l1.01-5.845ZM10.354-3.6a4.828,4.828,0,0,1-.481,1.631A2.645,2.645,0,0,1,8.96-.907a2.115,2.115,0,0,1-1.21.33,1.687,1.687,0,0,1-1.34-.632L5.876,1.556H4.352l1.4-8.093,1.4-.005-.1.589a1.866,1.866,0,0,1,1.491-.691,1.66,1.66,0,0,1,1.334.624,2.712,2.712,0,0,1,.508,1.634A6.315,6.315,0,0,1,10.354-3.6ZM8.842-3.709l.032-.519a1.445,1.445,0,0,0-.192-.833.688.688,0,0,0-.592-.319,1.257,1.257,0,0,0-1.1.563L6.556-2.4a.852.852,0,0,0,.859.568,1.1,1.1,0,0,0,.918-.427A2.928,2.928,0,0,0,8.842-3.709Zm5.337-2.936a2.344,2.344,0,0,1,1.332.4,2.236,2.236,0,0,1,.821,1.064,3.293,3.293,0,0,1,.186,1.5,3.557,3.557,0,0,1-.97,2.255,2.738,2.738,0,0,1-2.088.84,2.337,2.337,0,0,1-1.318-.392,2.228,2.228,0,0,1-.821-1.056,3.22,3.22,0,0,1-.189-1.491,3.662,3.662,0,0,1,.983-2.3A2.682,2.682,0,0,1,14.179-6.644Zm-1.54,3.675a1.349,1.349,0,0,0,.243.817.808.808,0,0,0,.654.31,1.184,1.184,0,0,0,1.1-.645,3.213,3.213,0,0,0,.373-1.75,1.467,1.467,0,0,0-.251-.828.8.8,0,0,0-.656-.321,1.186,1.186,0,0,0-1.089.639A3.18,3.18,0,0,0,12.639-2.969ZM-20.071.231H3.43v.922h-23.5Zm27.125,0H16.94v.922H7.054Z" transform="translate(165.93 16.512)"/>
          <g id="Grupo_175043" data-name="Grupo 175043" transform="translate(137.303 99.959)">
            <path id="Trazado_212701" data-name="Trazado 212701" d="M-25.625-.644v-7.21h2.219a3.369,3.369,0,0,1,1.7.428,2.987,2.987,0,0,1,1.171,1.218,3.757,3.757,0,0,1,.421,1.8v.332a3.768,3.768,0,0,1-.413,1.788,2.961,2.961,0,0,1-1.166,1.213,3.4,3.4,0,0,1-1.7.436ZM-24.14-6.65v4.813h.718a1.613,1.613,0,0,0,1.332-.569,2.573,2.573,0,0,0,.47-1.629v-.381a2.614,2.614,0,0,0-.456-1.666,1.608,1.608,0,0,0-1.332-.567Zm6.522,6.007h-1.436V-6h1.436Zm-1.52-6.745a.7.7,0,0,1,.215-.53.809.809,0,0,1,.587-.208.811.811,0,0,1,.584.208.7.7,0,0,1,.218.53.7.7,0,0,1-.22.535.813.813,0,0,1-.582.208.813.813,0,0,1-.582-.208A.7.7,0,0,1-19.138-7.388ZM-15.1-6l.045.6a1.883,1.883,0,0,1,1.54-.7,1.429,1.429,0,0,1,1.421.817A1.84,1.84,0,0,1-10.482-6.1a1.6,1.6,0,0,1,1.3.508,2.333,2.333,0,0,1,.426,1.528V-.644h-1.436V-4.061a1.02,1.02,0,0,0-.178-.666A.79.79,0,0,0-11-4.937a.893.893,0,0,0-.891.614l0,3.679H-13.32V-4.056a1.008,1.008,0,0,0-.183-.673.8.8,0,0,0-.624-.208.927.927,0,0,0-.881.505V-.644h-1.431V-6Zm9.9,5.457a2.63,2.63,0,0,1-1.919-.723,2.57,2.57,0,0,1-.74-1.926v-.139a3.237,3.237,0,0,1,.312-1.444,2.29,2.29,0,0,1,.884-.981,2.481,2.481,0,0,1,1.3-.344,2.224,2.224,0,0,1,1.731.693A2.817,2.817,0,0,1-2.99-3.442v.584H-6.4a1.329,1.329,0,0,0,.418.842A1.265,1.265,0,0,0-5.1-1.7a1.545,1.545,0,0,0,1.292-.6l.7.787A2.148,2.148,0,0,1-3.975-.8,2.859,2.859,0,0,1-5.193-.545Zm-.163-4.4a.894.894,0,0,0-.691.288,1.494,1.494,0,0,0-.339.826H-4.4v-.114a1.065,1.065,0,0,0-.258-.739A.923.923,0,0,0-5.357-4.947ZM-.86-6l.045.619A1.871,1.871,0,0,1,.724-6.1a1.555,1.555,0,0,1,1.268.5,2.334,2.334,0,0,1,.426,1.5V-.644H.987V-4.07a.928.928,0,0,0-.2-.661A.887.887,0,0,0,.13-4.937a.985.985,0,0,0-.906.515V-.644H-2.207V-6ZM6.4-2.124a.461.461,0,0,0-.26-.413,2.953,2.953,0,0,0-.834-.27Q3.4-3.209,3.4-4.432A1.472,1.472,0,0,1,3.99-5.623,2.387,2.387,0,0,1,5.538-6.1a2.569,2.569,0,0,1,1.632.48,1.514,1.514,0,0,1,.612,1.248H6.35a.692.692,0,0,0-.2-.508.838.838,0,0,0-.619-.2.857.857,0,0,0-.56.163.516.516,0,0,0-.2.416A.441.441,0,0,0,5-4.117a2.318,2.318,0,0,0,.76.253,6.209,6.209,0,0,1,.9.24A1.481,1.481,0,0,1,7.8-2.184,1.4,1.4,0,0,1,7.167-1a2.713,2.713,0,0,1-1.624.453,2.834,2.834,0,0,1-1.2-.24,2.007,2.007,0,0,1-.82-.659,1.53,1.53,0,0,1-.3-.9H4.587a.747.747,0,0,0,.282.584,1.12,1.12,0,0,0,.7.2,1.036,1.036,0,0,0,.621-.156A.485.485,0,0,0,6.4-2.124ZM10.227-.644H8.791V-6h1.436ZM8.707-7.388a.7.7,0,0,1,.215-.53.809.809,0,0,1,.587-.208.811.811,0,0,1,.584.208.7.7,0,0,1,.218.53.7.7,0,0,1-.22.535.813.813,0,0,1-.582.208.813.813,0,0,1-.582-.208A.7.7,0,0,1,8.707-7.388Zm2.476,4.016a3.178,3.178,0,0,1,.307-1.421,2.248,2.248,0,0,1,.884-.966,2.579,2.579,0,0,1,1.34-.342,2.44,2.44,0,0,1,1.77.664,2.663,2.663,0,0,1,.765,1.8l.01.366a2.8,2.8,0,0,1-.688,1.978,2.393,2.393,0,0,1-1.847.745,2.4,2.4,0,0,1-1.85-.743,2.85,2.85,0,0,1-.691-2.02Zm1.431.1A2,2,0,0,0,12.9-2.1a.947.947,0,0,0,.822.4.95.95,0,0,0,.812-.4,2.192,2.192,0,0,0,.292-1.277,1.983,1.983,0,0,0-.292-1.161.95.95,0,0,0-.822-.412.934.934,0,0,0-.812.409A2.229,2.229,0,0,0,12.614-3.271ZM14-8.25h1.56L14.184-6.715H13.02ZM18.458-6l.045.619a1.871,1.871,0,0,1,1.54-.718,1.555,1.555,0,0,1,1.268.5,2.334,2.334,0,0,1,.426,1.5V-.644H20.3V-4.07a.928.928,0,0,0-.2-.661.887.887,0,0,0-.659-.206.985.985,0,0,0-.906.515V-.644H17.111V-6ZM-14.518,9.554l1.634-5.423h1.654l-2.511,7.21h-1.55l-2.5-7.21h1.649ZM-8.4,11.441a2.63,2.63,0,0,1-1.919-.723,2.57,2.57,0,0,1-.74-1.926V8.653a3.237,3.237,0,0,1,.312-1.444,2.29,2.29,0,0,1,.884-.981,2.481,2.481,0,0,1,1.3-.344,2.224,2.224,0,0,1,1.731.693,2.817,2.817,0,0,1,.631,1.966v.584H-9.606a1.329,1.329,0,0,0,.418.842,1.265,1.265,0,0,0,.884.317,1.545,1.545,0,0,0,1.292-.6l.7.787a2.148,2.148,0,0,1-.872.711A2.859,2.859,0,0,1-8.4,11.441Zm-.163-4.4a.894.894,0,0,0-.691.288,1.494,1.494,0,0,0-.339.826H-7.6V8.039A1.065,1.065,0,0,0-7.857,7.3.923.923,0,0,0-8.561,7.039Zm4.5-1.055.045.619a1.871,1.871,0,0,1,1.54-.718,1.555,1.555,0,0,1,1.268.5,2.334,2.334,0,0,1,.426,1.5v3.461H-2.217V7.915a.928.928,0,0,0-.2-.661.887.887,0,0,0-.659-.206.985.985,0,0,0-.906.515v3.778H-5.411V5.984ZM2.012,4.667V5.984h.916v1.05H2.012V9.708a.639.639,0,0,0,.114.426.572.572,0,0,0,.436.129,2.282,2.282,0,0,0,.421-.035v1.085a2.946,2.946,0,0,1-.867.129A1.366,1.366,0,0,1,.581,9.921V7.034H-.2V5.984H.581V4.667ZM6.83,11.342a1.589,1.589,0,0,1-.144-.48,1.732,1.732,0,0,1-1.352.579,1.9,1.9,0,0,1-1.3-.456,1.465,1.465,0,0,1-.517-1.149,1.514,1.514,0,0,1,.631-1.307,3.116,3.116,0,0,1,1.825-.461h.659V7.762a.883.883,0,0,0-.191-.594.75.75,0,0,0-.6-.223.853.853,0,0,0-.567.173.589.589,0,0,0-.206.475H3.631a1.438,1.438,0,0,1,.287-.862,1.9,1.9,0,0,1,.812-.621,2.96,2.96,0,0,1,1.179-.225,2.338,2.338,0,0,1,1.572.5,1.741,1.741,0,0,1,.582,1.4V10.1a2.562,2.562,0,0,0,.213,1.154v.084Zm-1.184-1a1.233,1.233,0,0,0,.584-.141.927.927,0,0,0,.4-.379V8.906H6.093q-1.075,0-1.144.743l0,.084a.573.573,0,0,0,.188.441A.731.731,0,0,0,5.647,10.347Zm6.418-.485a.461.461,0,0,0-.26-.413,2.953,2.953,0,0,0-.834-.27q-1.911-.4-1.911-1.624a1.472,1.472,0,0,1,.592-1.191A2.387,2.387,0,0,1,11.2,5.885a2.569,2.569,0,0,1,1.632.48,1.514,1.514,0,0,1,.612,1.248H12.01a.692.692,0,0,0-.2-.508.838.838,0,0,0-.619-.2.857.857,0,0,0-.56.163.516.516,0,0,0-.2.416.441.441,0,0,0,.225.384,2.318,2.318,0,0,0,.76.253,6.209,6.209,0,0,1,.9.24A1.481,1.481,0,0,1,13.456,9.8a1.4,1.4,0,0,1-.629,1.186,2.713,2.713,0,0,1-1.624.453,2.834,2.834,0,0,1-1.2-.24,2.007,2.007,0,0,1-.82-.659,1.53,1.53,0,0,1-.3-.9h1.357a.747.747,0,0,0,.282.584,1.12,1.12,0,0,0,.7.2,1.036,1.036,0,0,0,.621-.156A.485.485,0,0,0,12.065,9.862Z" transform="translate(31.23 23.407)"/>
            <g id="Grupo_175042" data-name="Grupo 175042" transform="translate(0 0)">
              <rect id="Rectángulo_298028" data-name="Rectángulo 298028" width="58.188" height="43.945" fill="none" stroke="#084a93" stroke-miterlimit="10" stroke-width="1"/>
              <line id="Línea_422" data-name="Línea 422" x2="58.188" transform="translate(0 8.705)" fill="none" stroke="#084a93" stroke-miterlimit="10" stroke-width="1"/>
            </g>
          </g>
          <g id="Grupo_175045" data-name="Grupo 175045" transform="translate(108.656 21.837)">
            <g id="Grupo_175044" data-name="Grupo 175044" transform="translate(0)">
              <rect id="Rectángulo_298029" data-name="Rectángulo 298029" width="43.55" height="25.184" fill="none" stroke="#084a93" stroke-miterlimit="10" stroke-width="1"/>
              <line id="Línea_423" data-name="Línea 423" x2="43.55" transform="translate(0 4.989)" fill="none" stroke="#084a93" stroke-miterlimit="10" stroke-width="1"/>
            </g>
            <path id="Trazado_212698" data-name="Trazado 212698" d="M-4.586-1.935H-6.954L-7.4-.584H-8.84L-6.4-7.139h1.252L-2.7-.584H-4.131Zm-2-1.094h1.639l-.824-2.454Zm5.4-2.427.041.563a1.7,1.7,0,0,1,1.4-.653,1.413,1.413,0,0,1,1.152.455,2.121,2.121,0,0,1,.387,1.36V-.584H.492V-3.7a.844.844,0,0,0-.18-.6.806.806,0,0,0-.6-.187.9.9,0,0,0-.824.468V-.584h-1.3V-5.455ZM1.4-7.441a1.26,1.26,0,0,1-.3.853.923.923,0,0,1-.725.344,1.1,1.1,0,0,1-.3-.038A2.039,2.039,0,0,1-.3-6.446,1.979,1.979,0,0,0-.633-6.6.825.825,0,0,0-.858-6.63a.361.361,0,0,0-.268.113.438.438,0,0,0-.11.32l-.756-.045A1.279,1.279,0,0,1-1.7-7.094a.909.909,0,0,1,.723-.351.93.93,0,0,1,.254.034,2.8,2.8,0,0,1,.389.164,2.531,2.531,0,0,0,.374.158.853.853,0,0,0,.216.027.38.38,0,0,0,.272-.11A.42.42,0,0,0,.645-7.49ZM2.576-3.065a2.889,2.889,0,0,1,.279-1.292,2.043,2.043,0,0,1,.8-.878,2.344,2.344,0,0,1,1.218-.311,2.218,2.218,0,0,1,1.609.6,2.421,2.421,0,0,1,.7,1.639l.009.333a2.546,2.546,0,0,1-.626,1.8,2.175,2.175,0,0,1-1.679.678A2.186,2.186,0,0,1,3.2-1.17a2.591,2.591,0,0,1-.628-1.837Zm1.3.092a1.821,1.821,0,0,0,.261,1.062.861.861,0,0,0,.747.367.863.863,0,0,0,.738-.363A1.992,1.992,0,0,0,5.89-3.067a1.8,1.8,0,0,0-.266-1.055A.863.863,0,0,0,4.877-4.5a.849.849,0,0,0-.738.372A2.026,2.026,0,0,0,3.877-2.973Z" transform="translate(19.976 16.778)"/>
          </g>
          <g id="Grupo_175046" data-name="Grupo 175046" transform="translate(0 63.762)">
            <rect id="Rectángulo_298030" data-name="Rectángulo 298030" width="43.55" height="25.184" transform="translate(0 0)" fill="none" stroke="#084a93" stroke-miterlimit="10" stroke-width="1"/>
            <line id="Línea_424" data-name="Línea 424" x2="43.55" transform="translate(0 4.989)" fill="none" stroke="#084a93" stroke-miterlimit="10" stroke-width="1"/>
          </g>
          <path id="Trazado_212703" data-name="Trazado 212703" d="M-16.558-1.5h2.581v.976h-3.8v-5.9h1.216Zm3.019-1.256a2.6,2.6,0,0,1,.251-1.163,1.839,1.839,0,0,1,.723-.79,2.11,2.11,0,0,1,1.1-.28,2,2,0,0,1,1.448.543,2.179,2.179,0,0,1,.626,1.475l.008.3A2.291,2.291,0,0,1-9.95-1.055a1.958,1.958,0,0,1-1.511.61,1.967,1.967,0,0,1-1.513-.608,2.332,2.332,0,0,1-.565-1.653Zm1.171.083a1.639,1.639,0,0,0,.235.956.775.775,0,0,0,.673.331.777.777,0,0,0,.664-.327,1.793,1.793,0,0,0,.239-1.045,1.622,1.622,0,0,0-.239-.95.777.777,0,0,0-.673-.337.764.764,0,0,0-.664.335A1.823,1.823,0,0,0-12.369-2.676ZM-6.842-1.39a.768.768,0,0,0,.527-.178A.625.625,0,0,0-6.1-2.042h1.1a1.5,1.5,0,0,1-.243.816A1.6,1.6,0,0,1-5.9-.65a2.048,2.048,0,0,1-.918.2,1.9,1.9,0,0,1-1.483-.6,2.365,2.365,0,0,1-.543-1.651v-.077a2.338,2.338,0,0,1,.539-1.617,1.881,1.881,0,0,1,1.479-.6,1.844,1.844,0,0,1,1.319.468,1.657,1.657,0,0,1,.5,1.246H-6.1a.8.8,0,0,0-.211-.556.7.7,0,0,0-.535-.214.705.705,0,0,0-.618.3,1.728,1.728,0,0,0-.209.968v.122a1.75,1.75,0,0,0,.207.974A.714.714,0,0,0-6.842-1.39ZM-1.8-.527A1.3,1.3,0,0,1-1.915-.92a1.417,1.417,0,0,1-1.106.474A1.557,1.557,0,0,1-4.089-.818a1.2,1.2,0,0,1-.423-.94A1.239,1.239,0,0,1-4-2.828,2.549,2.549,0,0,1-2.5-3.2h.539v-.251a.722.722,0,0,0-.156-.486.614.614,0,0,0-.492-.182.7.7,0,0,0-.464.142.482.482,0,0,0-.168.389H-4.415a1.176,1.176,0,0,1,.235-.7,1.553,1.553,0,0,1,.664-.508,2.422,2.422,0,0,1,.964-.184,1.913,1.913,0,0,1,1.286.407A1.424,1.424,0,0,1-.789-3.44v1.9A2.1,2.1,0,0,0-.615-.6v.069Zm-.968-.814a1.008,1.008,0,0,0,.478-.115.758.758,0,0,0,.324-.31V-2.52H-2.4q-.879,0-.936.608l0,.069a.469.469,0,0,0,.154.361A.6.6,0,0,0-2.766-1.341Zm4.7-.049a.768.768,0,0,0,.527-.178.625.625,0,0,0,.211-.474h1.1a1.5,1.5,0,0,1-.243.816,1.6,1.6,0,0,1-.654.575,2.048,2.048,0,0,1-.918.2,1.9,1.9,0,0,1-1.483-.6A2.365,2.365,0,0,1-.072-2.694v-.077A2.338,2.338,0,0,1,.467-4.388a1.881,1.881,0,0,1,1.479-.6,1.844,1.844,0,0,1,1.319.468,1.657,1.657,0,0,1,.5,1.246h-1.1a.8.8,0,0,0-.211-.556.7.7,0,0,0-.535-.214.705.705,0,0,0-.618.3,1.728,1.728,0,0,0-.209.968v.122a1.75,1.75,0,0,0,.207.974A.714.714,0,0,0,1.934-1.39Zm3.74.863H4.5V-4.911H5.673ZM4.43-6.045a.577.577,0,0,1,.176-.434.662.662,0,0,1,.48-.17.664.664,0,0,1,.478.17.573.573,0,0,1,.178.434.575.575,0,0,1-.18.438.665.665,0,0,1-.476.17.665.665,0,0,1-.476-.17A.575.575,0,0,1,4.43-6.045ZM6.455-2.759a2.6,2.6,0,0,1,.251-1.163,1.839,1.839,0,0,1,.723-.79,2.11,2.11,0,0,1,1.1-.28,2,2,0,0,1,1.448.543A2.179,2.179,0,0,1,10.6-2.974l.008.3a2.291,2.291,0,0,1-.563,1.619,1.958,1.958,0,0,1-1.511.61,1.967,1.967,0,0,1-1.513-.608,2.332,2.332,0,0,1-.565-1.653Zm1.171.083a1.639,1.639,0,0,0,.235.956.775.775,0,0,0,.673.331A.777.777,0,0,0,9.2-1.716a1.793,1.793,0,0,0,.239-1.045,1.622,1.622,0,0,0-.239-.95.777.777,0,0,0-.673-.337.764.764,0,0,0-.664.335A1.823,1.823,0,0,0,7.626-2.676ZM8.757-6.75h1.276L8.911-5.494H7.959Zm3.651,1.839.036.506a1.531,1.531,0,0,1,1.26-.587,1.272,1.272,0,0,1,1.037.409,1.909,1.909,0,0,1,.348,1.224V-.527H13.919v-2.8a.76.76,0,0,0-.162-.541.726.726,0,0,0-.539-.168.806.806,0,0,0-.741.421V-.527H11.305V-4.911Z" transform="translate(19.978 80.254)"/>
          <g id="Grupo_175047" data-name="Grupo 175047" transform="translate(60.742 74.775)">
            <rect id="Rectángulo_298031" data-name="Rectángulo 298031" width="43.55" height="25.184" fill="none" stroke="#084a93" stroke-miterlimit="10" stroke-width="1"/>
            <line id="Línea_425" data-name="Línea 425" x2="43.55" transform="translate(0 4.989)" fill="none" stroke="#084a93" stroke-miterlimit="10" stroke-width="1"/>
          </g>
          <path id="Trazado_212702" data-name="Trazado 212702" d="M-9.049-2.492a2.088,2.088,0,0,1-.7,1.5,2.469,2.469,0,0,1-1.671.547,2.22,2.22,0,0,1-1.785-.764,3.132,3.132,0,0,1-.65-2.1v-.361a3.536,3.536,0,0,1,.3-1.5A2.247,2.247,0,0,1-12.7-6.16a2.4,2.4,0,0,1,1.295-.346,2.4,2.4,0,0,1,1.645.547,2.243,2.243,0,0,1,.721,1.536h-1.216a1.232,1.232,0,0,0-.318-.829,1.178,1.178,0,0,0-.833-.257,1.033,1.033,0,0,0-.91.436,2.441,2.441,0,0,0-.31,1.351v.446a2.613,2.613,0,0,0,.29,1.4,1.014,1.014,0,0,0,.914.442,1.2,1.2,0,0,0,.841-.257,1.162,1.162,0,0,0,.318-.8ZM-7.092-.527H-8.267V-6.75h1.175Zm2.2,0H-6.067V-4.911h1.175ZM-6.136-6.045a.577.577,0,0,1,.176-.434.662.662,0,0,1,.48-.17A.664.664,0,0,1-5-6.479a.573.573,0,0,1,.178.434A.575.575,0,0,1-5-5.607a.665.665,0,0,1-.476.17.665.665,0,0,1-.476-.17A.575.575,0,0,1-6.136-6.045Zm4.226,5.6a2.152,2.152,0,0,1-1.57-.592,2.1,2.1,0,0,1-.606-1.576v-.113A2.648,2.648,0,0,1-3.83-3.908a1.873,1.873,0,0,1,.723-.8,2.03,2.03,0,0,1,1.068-.282,1.819,1.819,0,0,1,1.416.567A2.3,2.3,0,0,1-.107-2.816v.478H-2.9a1.088,1.088,0,0,0,.342.689,1.035,1.035,0,0,0,.723.259A1.264,1.264,0,0,0-.775-1.88l.575.644a1.758,1.758,0,0,1-.713.581A2.34,2.34,0,0,1-1.91-.446Zm-.134-3.6a.732.732,0,0,0-.565.236,1.222,1.222,0,0,0-.278.676h1.629V-3.23a.872.872,0,0,0-.211-.6A.755.755,0,0,0-2.043-4.048Zm3.679-.863.036.506a1.531,1.531,0,0,1,1.26-.587,1.272,1.272,0,0,1,1.037.409,1.909,1.909,0,0,1,.348,1.224V-.527H3.147v-2.8a.76.76,0,0,0-.162-.541.726.726,0,0,0-.539-.168.806.806,0,0,0-.741.421V-.527H.533V-4.911ZM6.607-5.988v1.078h.75v.859h-.75v2.188a.522.522,0,0,0,.093.348.468.468,0,0,0,.357.105A1.867,1.867,0,0,0,7.4-1.438v.887a2.411,2.411,0,0,1-.709.105A1.118,1.118,0,0,1,5.436-1.689V-4.052H4.8v-.859h.64V-5.988Zm3.42,5.543a2.152,2.152,0,0,1-1.57-.592,2.1,2.1,0,0,1-.606-1.576v-.113a2.648,2.648,0,0,1,.255-1.181,1.873,1.873,0,0,1,.723-.8A2.03,2.03,0,0,1,9.9-4.992a1.819,1.819,0,0,1,1.416.567,2.3,2.3,0,0,1,.517,1.609v.478H9.038a1.088,1.088,0,0,0,.342.689,1.035,1.035,0,0,0,.723.259,1.264,1.264,0,0,0,1.057-.49l.575.644a1.758,1.758,0,0,1-.713.581A2.34,2.34,0,0,1,10.027-.446Zm-.134-3.6a.732.732,0,0,0-.565.236,1.222,1.222,0,0,0-.278.676h1.629V-3.23a.872.872,0,0,0-.211-.6A.755.755,0,0,0,9.893-4.048Z" transform="translate(81.238 91.267)"/>
          <g id="Grupo_175048" data-name="Grupo 175048" transform="translate(225.18 79.914)">
            <rect id="Rectángulo_298032" data-name="Rectángulo 298032" width="43.55" height="25.184" transform="translate(0)" fill="none" stroke="#084a93" stroke-miterlimit="10" stroke-width="1"/>
            <line id="Línea_426" data-name="Línea 426" x2="43.55" transform="translate(0 4.989)" fill="none" stroke="#084a93" stroke-miterlimit="10" stroke-width="1"/>
          </g>
          <path id="Trazado_212714" data-name="Trazado 212714" d="M-11.175-2.605V-.527H-12.39v-5.9h2.3a2.663,2.663,0,0,1,1.169.243,1.791,1.791,0,0,1,.776.691,1.926,1.926,0,0,1,.271,1.019,1.694,1.694,0,0,1-.594,1.367,2.472,2.472,0,0,1-1.643.5Zm0-.985h1.086a1.068,1.068,0,0,0,.735-.227A.825.825,0,0,0-9.1-4.465a.973.973,0,0,0-.255-.7.954.954,0,0,0-.7-.276h-1.114Zm5.3,3.063H-7.054V-6.75h1.175Zm3.5,0A1.3,1.3,0,0,1-2.492-.92,1.417,1.417,0,0,1-3.6-.446,1.557,1.557,0,0,1-4.666-.818a1.2,1.2,0,0,1-.423-.94,1.239,1.239,0,0,1,.517-1.07A2.549,2.549,0,0,1-3.08-3.2h.539v-.251A.722.722,0,0,0-2.7-3.942a.614.614,0,0,0-.492-.182.7.7,0,0,0-.464.142.482.482,0,0,0-.168.389H-4.992a1.176,1.176,0,0,1,.235-.7,1.553,1.553,0,0,1,.664-.508,2.422,2.422,0,0,1,.964-.184,1.913,1.913,0,0,1,1.286.407A1.424,1.424,0,0,1-1.366-3.44v1.9A2.1,2.1,0,0,0-1.192-.6v.069Zm-.968-.814a1.008,1.008,0,0,0,.478-.115.758.758,0,0,0,.324-.31V-2.52h-.438q-.879,0-.936.608l0,.069a.469.469,0,0,0,.154.361A.6.6,0,0,0-3.343-1.341ZM.611-4.911.648-4.4a1.531,1.531,0,0,1,1.26-.587,1.272,1.272,0,0,1,1.037.409,1.909,1.909,0,0,1,.348,1.224V-.527H2.123v-2.8a.76.76,0,0,0-.162-.541.726.726,0,0,0-.539-.168.806.806,0,0,0-.741.421V-.527H-.491V-4.911ZM5.583-5.988v1.078h.75v.859h-.75v2.188a.522.522,0,0,0,.093.348.468.468,0,0,0,.357.105,1.867,1.867,0,0,0,.344-.028v.887a2.411,2.411,0,0,1-.709.105A1.118,1.118,0,0,1,4.412-1.689V-4.052h-.64v-.859h.64V-5.988ZM9.525-.527A1.3,1.3,0,0,1,9.408-.92,1.417,1.417,0,0,1,8.3-.446,1.557,1.557,0,0,1,7.234-.818a1.2,1.2,0,0,1-.423-.94,1.239,1.239,0,0,1,.517-1.07A2.549,2.549,0,0,1,8.82-3.2h.539v-.251A.722.722,0,0,0,9.2-3.942a.614.614,0,0,0-.492-.182.7.7,0,0,0-.464.142.482.482,0,0,0-.168.389H6.908a1.176,1.176,0,0,1,.235-.7,1.553,1.553,0,0,1,.664-.508,2.422,2.422,0,0,1,.964-.184,1.913,1.913,0,0,1,1.286.407,1.424,1.424,0,0,1,.476,1.145v1.9a2.1,2.1,0,0,0,.174.944v.069Zm-.968-.814a1.008,1.008,0,0,0,.478-.115.758.758,0,0,0,.324-.31V-2.52H8.922q-.879,0-.936.608l0,.069a.469.469,0,0,0,.154.361A.6.6,0,0,0,8.557-1.341Z" transform="translate(247.871 98.25)"/>
          <g id="Grupo_175049" data-name="Grupo 175049" transform="translate(225.18 144.542)">
            <rect id="Rectángulo_298033" data-name="Rectángulo 298033" width="43.55" height="25.184" fill="none" stroke="#084a93" stroke-miterlimit="10" stroke-width="1"/>
            <line id="Línea_427" data-name="Línea 427" x2="43.55" transform="translate(0 4.989)" fill="none" stroke="#084a93" stroke-miterlimit="10" stroke-width="1"/>
          </g>
          <path id="Trazado_212710" data-name="Trazado 212710" d="M-16.622-2.605V-.527h-1.216v-5.9h2.3a2.663,2.663,0,0,1,1.169.243,1.791,1.791,0,0,1,.776.691,1.926,1.926,0,0,1,.271,1.019,1.694,1.694,0,0,1-.594,1.367,2.472,2.472,0,0,1-1.643.5Zm0-.985h1.086a1.068,1.068,0,0,0,.735-.227.825.825,0,0,0,.253-.648.973.973,0,0,0-.255-.7.954.954,0,0,0-.7-.276h-1.114Zm6.523-.223a3.181,3.181,0,0,0-.421-.032.858.858,0,0,0-.871.45V-.527h-1.171V-4.911h1.106l.032.523a1.085,1.085,0,0,1,.976-.6,1.227,1.227,0,0,1,.365.053Zm.235,1.053a2.6,2.6,0,0,1,.251-1.163,1.839,1.839,0,0,1,.723-.79,2.11,2.11,0,0,1,1.1-.28,2,2,0,0,1,1.448.543,2.179,2.179,0,0,1,.626,1.475l.008.3a2.291,2.291,0,0,1-.563,1.619,1.958,1.958,0,0,1-1.511.61A1.967,1.967,0,0,1-9.3-1.053a2.332,2.332,0,0,1-.565-1.653Zm1.171.083a1.639,1.639,0,0,0,.235.956.775.775,0,0,0,.673.331.777.777,0,0,0,.664-.327,1.793,1.793,0,0,0,.239-1.045,1.622,1.622,0,0,0-.239-.95.777.777,0,0,0-.673-.337.764.764,0,0,0-.664.335A1.823,1.823,0,0,0-8.693-2.676Zm3.521-.075a2.642,2.642,0,0,1,.46-1.633,1.492,1.492,0,0,1,1.258-.608A1.343,1.343,0,0,1-2.4-4.513V-6.75h1.175V-.527H-2.279l-.057-.466a1.378,1.378,0,0,1-1.126.547A1.488,1.488,0,0,1-4.7-1.055,2.727,2.727,0,0,1-5.172-2.751ZM-4-2.664a1.731,1.731,0,0,0,.215.946.7.7,0,0,0,.624.329A.784.784,0,0,0-2.4-1.848V-3.581a.772.772,0,0,0-.758-.459Q-4-4.039-4-2.664ZM2.312-.972a1.468,1.468,0,0,1-1.2.527A1.385,1.385,0,0,1,.037-.851,1.73,1.73,0,0,1-.342-2.038V-4.911H.829v2.835q0,.685.624.685A.845.845,0,0,0,2.271-1.8V-4.911H3.446V-.527h-1.1ZM6.153-1.39a.768.768,0,0,0,.527-.178.625.625,0,0,0,.211-.474h1.1a1.5,1.5,0,0,1-.243.816,1.6,1.6,0,0,1-.654.575,2.048,2.048,0,0,1-.918.2,1.9,1.9,0,0,1-1.483-.6,2.365,2.365,0,0,1-.543-1.651v-.077a2.338,2.338,0,0,1,.539-1.617,1.881,1.881,0,0,1,1.479-.6,1.844,1.844,0,0,1,1.319.468,1.657,1.657,0,0,1,.5,1.246H6.89a.8.8,0,0,0-.211-.556.7.7,0,0,0-.535-.214.705.705,0,0,0-.618.3,1.728,1.728,0,0,0-.209.968v.122a1.75,1.75,0,0,0,.207.974A.714.714,0,0,0,6.153-1.39Zm3.906-4.6v1.078h.75v.859h-.75v2.188a.522.522,0,0,0,.093.348.468.468,0,0,0,.357.105,1.867,1.867,0,0,0,.344-.028v.887a2.411,2.411,0,0,1-.709.105A1.118,1.118,0,0,1,8.888-1.689V-4.052h-.64v-.859h.64V-5.988Zm1.1,3.229a2.6,2.6,0,0,1,.251-1.163,1.839,1.839,0,0,1,.723-.79,2.11,2.11,0,0,1,1.1-.28,2,2,0,0,1,1.448.543A2.179,2.179,0,0,1,15.3-2.974l.008.3a2.291,2.291,0,0,1-.563,1.619,1.958,1.958,0,0,1-1.511.61,1.967,1.967,0,0,1-1.513-.608,2.332,2.332,0,0,1-.565-1.653Zm1.171.083a1.639,1.639,0,0,0,.235.956.775.775,0,0,0,.673.331.777.777,0,0,0,.664-.327,1.793,1.793,0,0,0,.239-1.045,1.622,1.622,0,0,0-.239-.95.777.777,0,0,0-.673-.337.764.764,0,0,0-.664.335A1.823,1.823,0,0,0,12.327-2.676Z" transform="translate(247.928 162.878)"/>
          <g id="Grupo_175050" data-name="Grupo 175050" transform="translate(251.819 184.142)">
            <rect id="Rectángulo_298034" data-name="Rectángulo 298034" width="43.55" height="25.184" transform="translate(0)" fill="none" stroke="#084a93" stroke-miterlimit="10" stroke-width="1"/>
            <line id="Línea_428" data-name="Línea 428" x2="43.55" transform="translate(0 4.989)" fill="none" stroke="#084a93" stroke-miterlimit="10" stroke-width="1"/>
          </g>
          <path id="Trazado_212711" data-name="Trazado 212711" d="M-13.032-6.426l1.515,4.279,1.507-4.279h1.6v5.9h-1.22V-2.139l.122-2.784L-11.1-.527h-.835l-1.588-4.392.122,2.779V-.527h-1.216v-5.9Zm5.421,3.667A2.6,2.6,0,0,1-7.36-3.922a1.839,1.839,0,0,1,.723-.79,2.11,2.11,0,0,1,1.1-.28,2,2,0,0,1,1.448.543,2.179,2.179,0,0,1,.626,1.475l.008.3a2.291,2.291,0,0,1-.563,1.619,1.958,1.958,0,0,1-1.511.61,1.967,1.967,0,0,1-1.513-.608,2.332,2.332,0,0,1-.565-1.653Zm1.171.083a1.639,1.639,0,0,0,.235.956.775.775,0,0,0,.673.331.777.777,0,0,0,.664-.327,1.793,1.793,0,0,0,.239-1.045,1.622,1.622,0,0,0-.239-.95.777.777,0,0,0-.673-.337.764.764,0,0,0-.664.335A1.823,1.823,0,0,0-6.44-2.676Zm3.521-.075a2.642,2.642,0,0,1,.46-1.633A1.492,1.492,0,0,1-1.2-4.992a1.343,1.343,0,0,1,1.057.478V-6.75H1.031V-.527H-.026L-.083-.993A1.378,1.378,0,0,1-1.21-.446a1.488,1.488,0,0,1-1.242-.61A2.727,2.727,0,0,1-2.919-2.751Zm1.171.087a1.731,1.731,0,0,0,.215.946A.7.7,0,0,0-.91-1.39a.784.784,0,0,0,.766-.459V-3.581A.772.772,0,0,0-.9-4.039Q-1.748-4.039-1.748-2.664Zm5.7,2.218a2.152,2.152,0,0,1-1.57-.592,2.1,2.1,0,0,1-.606-1.576v-.113a2.648,2.648,0,0,1,.255-1.181,1.873,1.873,0,0,1,.723-.8,2.03,2.03,0,0,1,1.068-.282,1.819,1.819,0,0,1,1.416.567,2.3,2.3,0,0,1,.517,1.609v.478H2.968a1.088,1.088,0,0,0,.342.689,1.035,1.035,0,0,0,.723.259,1.264,1.264,0,0,0,1.057-.49l.575.644a1.758,1.758,0,0,1-.713.581A2.34,2.34,0,0,1,3.956-.446Zm-.134-3.6a.732.732,0,0,0-.565.236,1.222,1.222,0,0,0-.278.676H4.609V-3.23a.872.872,0,0,0-.211-.6A.755.755,0,0,0,3.823-4.048ZM7.66-.527H6.485V-6.75H7.66Zm.782-2.232a2.6,2.6,0,0,1,.251-1.163,1.839,1.839,0,0,1,.723-.79,2.11,2.11,0,0,1,1.1-.28,2,2,0,0,1,1.448.543,2.179,2.179,0,0,1,.626,1.475l.008.3a2.291,2.291,0,0,1-.563,1.619,1.958,1.958,0,0,1-1.511.61,1.967,1.967,0,0,1-1.513-.608,2.332,2.332,0,0,1-.565-1.653Zm1.171.083a1.639,1.639,0,0,0,.235.956.775.775,0,0,0,.673.331.777.777,0,0,0,.664-.327,1.793,1.793,0,0,0,.239-1.045,1.622,1.622,0,0,0-.239-.95.777.777,0,0,0-.673-.337.764.764,0,0,0-.664.335A1.823,1.823,0,0,0,9.613-2.676Z" transform="translate(274.099 202.478)"/>
          <g id="Grupo_175051" data-name="Grupo 175051" transform="translate(289.679 63.762)">
            <rect id="Rectángulo_298035" data-name="Rectángulo 298035" width="43.55" height="25.184" transform="translate(0 0)" fill="none" stroke="#084a93" stroke-miterlimit="10" stroke-width="1"/>
            <line id="Línea_429" data-name="Línea 429" x2="43.55" transform="translate(0 4.989)" fill="none" stroke="#084a93" stroke-miterlimit="10" stroke-width="1"/>
          </g>
          <path id="Trazado_212713" data-name="Trazado 212713" d="M-11.375-2.686h-.968v2.16h-1.216v-5.9h2.192a2.478,2.478,0,0,1,1.613.466,1.608,1.608,0,0,1,.567,1.317,1.815,1.815,0,0,1-.261,1.007,1.782,1.782,0,0,1-.792.642L-8.965-.583v.057h-1.3Zm-.968-.985h.981a1,1,0,0,0,.709-.233.833.833,0,0,0,.251-.642A.891.891,0,0,0-10.64-5.2a.985.985,0,0,0-.727-.239h-.976ZM-6.323-.446a2.152,2.152,0,0,1-1.57-.592A2.1,2.1,0,0,1-8.5-2.613v-.113a2.648,2.648,0,0,1,.255-1.181,1.873,1.873,0,0,1,.723-.8,2.03,2.03,0,0,1,1.068-.282,1.819,1.819,0,0,1,1.416.567A2.3,2.3,0,0,1-4.52-2.816v.478H-7.312a1.088,1.088,0,0,0,.342.689,1.035,1.035,0,0,0,.723.259,1.264,1.264,0,0,0,1.057-.49l.575.644a1.758,1.758,0,0,1-.713.581A2.34,2.34,0,0,1-6.323-.446Zm-.134-3.6a.732.732,0,0,0-.565.236,1.222,1.222,0,0,0-.278.676h1.629V-3.23a.872.872,0,0,0-.211-.6A.755.755,0,0,0-6.457-4.048Zm2.431,1.3a2.569,2.569,0,0,1,.48-1.625,1.556,1.556,0,0,1,1.295-.616A1.364,1.364,0,0,1-1.129-4.5l.049-.413H-.019V-.672a1.874,1.874,0,0,1-.261,1,1.678,1.678,0,0,1-.735.648,2.585,2.585,0,0,1-1.11.223,2.4,2.4,0,0,1-.94-.192,1.668,1.668,0,0,1-.693-.5L-3.24-.2a1.372,1.372,0,0,0,1.062.49A1,1,0,0,0-1.453.039a.935.935,0,0,0,.259-.707V-.9a1.354,1.354,0,0,1-1.066.458,1.552,1.552,0,0,1-1.278-.618A2.569,2.569,0,0,1-4.026-2.7Zm1.171.087a1.6,1.6,0,0,0,.239.935.76.76,0,0,0,.656.339.813.813,0,0,0,.766-.4V-3.638a.811.811,0,0,0-.758-.4.765.765,0,0,0-.662.345A1.8,1.8,0,0,0-2.855-2.664ZM2.117-.527H.942V-4.911H2.117ZM.873-6.045a.577.577,0,0,1,.176-.434.662.662,0,0,1,.48-.17.664.664,0,0,1,.478.17.573.573,0,0,1,.178.434.575.575,0,0,1-.18.438.665.665,0,0,1-.476.17.665.665,0,0,1-.476-.17A.575.575,0,0,1,.873-6.045ZM2.9-2.759A2.6,2.6,0,0,1,3.15-3.922a1.839,1.839,0,0,1,.723-.79,2.11,2.11,0,0,1,1.1-.28,2,2,0,0,1,1.448.543,2.179,2.179,0,0,1,.626,1.475l.008.3a2.291,2.291,0,0,1-.563,1.619,1.958,1.958,0,0,1-1.511.61,1.967,1.967,0,0,1-1.513-.608A2.332,2.332,0,0,1,2.9-2.706Zm1.171.083A1.639,1.639,0,0,0,4.3-1.72a.775.775,0,0,0,.673.331.777.777,0,0,0,.664-.327,1.793,1.793,0,0,0,.239-1.045,1.622,1.622,0,0,0-.239-.95.777.777,0,0,0-.673-.337.764.764,0,0,0-.664.335A1.823,1.823,0,0,0,4.07-2.676ZM5.2-6.75H6.476L5.354-5.494H4.4ZM8.851-4.911l.036.506a1.531,1.531,0,0,1,1.26-.587,1.272,1.272,0,0,1,1.037.409,1.909,1.909,0,0,1,.348,1.224V-.527H10.362v-2.8a.76.76,0,0,0-.162-.541.726.726,0,0,0-.539-.168.806.806,0,0,0-.741.421V-.527H7.749V-4.911Z" transform="translate(312.917 82.098)"/>
          <g id="Grupo_175052" data-name="Grupo 175052" transform="translate(60.742 144.542)">
            <rect id="Rectángulo_298036" data-name="Rectángulo 298036" width="43.55" height="25.184" fill="none" stroke="#084a93" stroke-miterlimit="10" stroke-width="1"/>
            <line id="Línea_430" data-name="Línea 430" x2="43.55" transform="translate(0 4.989)" fill="none" stroke="#084a93" stroke-miterlimit="10" stroke-width="1"/>
          </g>
          <path id="Trazado_212705" data-name="Trazado 212705" d="M-14.952-2.578V-.5h-1.216V-6.4h2.3a2.663,2.663,0,0,1,1.169.243,1.791,1.791,0,0,1,.776.691,1.926,1.926,0,0,1,.271,1.019,1.694,1.694,0,0,1-.594,1.367,2.472,2.472,0,0,1-1.643.5Zm0-.985h1.086a1.068,1.068,0,0,0,.735-.227.825.825,0,0,0,.253-.648.973.973,0,0,0-.255-.7.954.954,0,0,0-.7-.276h-1.114ZM-8.927-.418A2.152,2.152,0,0,1-10.5-1.01,2.1,2.1,0,0,1-11.1-2.586V-2.7a2.648,2.648,0,0,1,.255-1.181,1.873,1.873,0,0,1,.723-.8,2.03,2.03,0,0,1,1.068-.282A1.819,1.819,0,0,1-7.641-4.4a2.3,2.3,0,0,1,.517,1.609v.478H-9.916a1.088,1.088,0,0,0,.342.689,1.035,1.035,0,0,0,.723.259,1.264,1.264,0,0,0,1.057-.49l.575.644a1.758,1.758,0,0,1-.713.581A2.34,2.34,0,0,1-8.927-.418Zm-.134-3.6a.732.732,0,0,0-.565.236,1.222,1.222,0,0,0-.278.676h1.629V-3.2a.872.872,0,0,0-.211-.6A.755.755,0,0,0-9.061-4.02ZM-4-3.785a3.181,3.181,0,0,0-.421-.032.858.858,0,0,0-.871.45V-.5H-6.46V-4.883h1.106l.032.523a1.085,1.085,0,0,1,.976-.6,1.227,1.227,0,0,1,.365.053Zm2.937,2.074a.377.377,0,0,0-.213-.338,2.416,2.416,0,0,0-.683-.221Q-3.518-2.6-3.518-3.6a1.2,1.2,0,0,1,.484-.974,1.953,1.953,0,0,1,1.266-.391,2.1,2.1,0,0,1,1.335.393,1.239,1.239,0,0,1,.5,1.021H-1.1a.567.567,0,0,0-.162-.415.686.686,0,0,0-.506-.164A.7.7,0,0,0-2.23-4a.422.422,0,0,0-.162.34.361.361,0,0,0,.184.314,1.9,1.9,0,0,0,.622.207,5.08,5.08,0,0,1,.737.2A1.212,1.212,0,0,1,.08-1.759a1.144,1.144,0,0,1-.515.97,2.22,2.22,0,0,1-1.329.371,2.318,2.318,0,0,1-.978-.2,1.642,1.642,0,0,1-.671-.539,1.252,1.252,0,0,1-.243-.739h1.11a.611.611,0,0,0,.231.478.916.916,0,0,0,.575.166.848.848,0,0,0,.508-.128A.4.4,0,0,0-1.059-1.711ZM.651-2.732A2.6,2.6,0,0,1,.9-3.894a1.839,1.839,0,0,1,.723-.79,2.11,2.11,0,0,1,1.1-.28,2,2,0,0,1,1.448.543A2.179,2.179,0,0,1,4.8-2.946l.008.3a2.291,2.291,0,0,1-.563,1.619,1.958,1.958,0,0,1-1.511.61,1.967,1.967,0,0,1-1.513-.608A2.332,2.332,0,0,1,.651-2.679Zm1.171.083a1.639,1.639,0,0,0,.235.956.775.775,0,0,0,.673.331.777.777,0,0,0,.664-.327,1.793,1.793,0,0,0,.239-1.045,1.622,1.622,0,0,0-.239-.95.777.777,0,0,0-.673-.337.764.764,0,0,0-.664.335A1.823,1.823,0,0,0,1.822-2.649ZM6.6-4.883l.036.506A1.531,1.531,0,0,1,7.9-4.964a1.272,1.272,0,0,1,1.037.409,1.909,1.909,0,0,1,.348,1.224V-.5H8.114V-3.3a.76.76,0,0,0-.162-.541.726.726,0,0,0-.539-.168.806.806,0,0,0-.741.421V-.5H5.5V-4.883ZM12.713-.5A1.3,1.3,0,0,1,12.6-.892a1.417,1.417,0,0,1-1.106.474,1.557,1.557,0,0,1-1.068-.373A1.2,1.2,0,0,1,10-1.731a1.239,1.239,0,0,1,.517-1.07,2.549,2.549,0,0,1,1.493-.377h.539v-.251a.722.722,0,0,0-.156-.486A.614.614,0,0,0,11.9-4.1a.7.7,0,0,0-.464.142.482.482,0,0,0-.168.389H10.1a1.176,1.176,0,0,1,.235-.7A1.553,1.553,0,0,1,11-4.78a2.422,2.422,0,0,1,.964-.184,1.913,1.913,0,0,1,1.286.407,1.424,1.424,0,0,1,.476,1.145v1.9a2.1,2.1,0,0,0,.174.944V-.5Zm-.968-.814a1.008,1.008,0,0,0,.478-.115.758.758,0,0,0,.324-.31v-.754h-.438q-.879,0-.936.608l0,.069a.469.469,0,0,0,.154.361A.6.6,0,0,0,11.745-1.314ZM-9.371,4.492-8.034.055H-6.68l-2.054,5.9H-10l-2.046-5.9H-10.7Zm5.008,1.544a2.152,2.152,0,0,1-1.57-.592,2.1,2.1,0,0,1-.606-1.576V3.755a2.648,2.648,0,0,1,.255-1.181,1.873,1.873,0,0,1,.723-.8A2.03,2.03,0,0,1-4.493,1.49a1.819,1.819,0,0,1,1.416.567A2.3,2.3,0,0,1-2.56,3.666v.478H-5.351a1.088,1.088,0,0,0,.342.689,1.035,1.035,0,0,0,.723.259A1.264,1.264,0,0,0-3.228,4.6l.575.644a1.758,1.758,0,0,1-.713.581A2.34,2.34,0,0,1-4.363,6.036Zm-.134-3.6a.732.732,0,0,0-.565.236,1.222,1.222,0,0,0-.278.676h1.629V3.252a.872.872,0,0,0-.211-.6A.755.755,0,0,0-4.5,2.434Zm3.679-.863.036.506A1.531,1.531,0,0,1,.479,1.49,1.272,1.272,0,0,1,1.516,1.9a1.909,1.909,0,0,1,.348,1.224V5.955H.694v-2.8A.76.76,0,0,0,.532,2.61a.726.726,0,0,0-.539-.168.806.806,0,0,0-.741.421V5.955H-1.92V1.571ZM4.154.493V1.571H4.9V2.43h-.75V4.618a.522.522,0,0,0,.093.348.468.468,0,0,0,.357.105,1.867,1.867,0,0,0,.344-.028V5.93a2.411,2.411,0,0,1-.709.105A1.118,1.118,0,0,1,2.983,4.792V2.43h-.64V1.571h.64V.493ZM8.1,5.955a1.3,1.3,0,0,1-.117-.393,1.417,1.417,0,0,1-1.106.474A1.557,1.557,0,0,1,5.8,5.663a1.2,1.2,0,0,1-.423-.94A1.239,1.239,0,0,1,5.9,3.653a2.549,2.549,0,0,1,1.493-.377H7.93V3.025a.722.722,0,0,0-.156-.486.614.614,0,0,0-.492-.182.7.7,0,0,0-.464.142.482.482,0,0,0-.168.389H5.479a1.176,1.176,0,0,1,.235-.7,1.553,1.553,0,0,1,.664-.508,2.422,2.422,0,0,1,.964-.184A1.913,1.913,0,0,1,8.629,1.9,1.424,1.424,0,0,1,9.1,3.042v1.9a2.1,2.1,0,0,0,.174.944v.069ZM7.128,5.14a1.008,1.008,0,0,0,.478-.115.758.758,0,0,0,.324-.31V3.961H7.492q-.879,0-.936.608l0,.069A.469.469,0,0,0,6.706,5,.6.6,0,0,0,7.128,5.14Z" transform="translate(81.408 157.603)"/>
          <g id="Grupo_175053" data-name="Grupo 175053" transform="translate(36.445 184.142)">
            <rect id="Rectángulo_298037" data-name="Rectángulo 298037" width="43.55" height="25.184" transform="translate(0)" fill="none" stroke="#084a93" stroke-miterlimit="10" stroke-width="1"/>
            <line id="Línea_431" data-name="Línea 431" x2="43.55" transform="translate(0 4.989)" fill="none" stroke="#084a93" stroke-miterlimit="10" stroke-width="1"/>
          </g>
          <path id="Trazado_212706" data-name="Trazado 212706" d="M-4.074-5.433H-5.881V-.518H-7.1V-5.433H-8.879v-.985h4.805ZM-2.222-.518H-3.4V-4.9h1.175ZM-3.466-6.036A.577.577,0,0,1-3.29-6.47a.662.662,0,0,1,.48-.17.664.664,0,0,1,.478.17.573.573,0,0,1,.178.434.575.575,0,0,1-.18.438.665.665,0,0,1-.476.17.665.665,0,0,1-.476-.17A.575.575,0,0,1-3.466-6.036ZM2.688-2.669a2.629,2.629,0,0,1-.46,1.623,1.474,1.474,0,0,1-1.242.61A1.366,1.366,0,0,1-.087-.9V1.167H-1.258V-4.9H-.172l.041.429a1.376,1.376,0,0,1,1.11-.511,1.484,1.484,0,0,1,1.26.6,2.7,2.7,0,0,1,.45,1.653ZM1.517-2.755A1.725,1.725,0,0,0,1.3-3.7a.706.706,0,0,0-.63-.332.767.767,0,0,0-.758.421v1.795a.78.78,0,0,0,.766.434Q1.517-1.381,1.517-2.755Zm1.714,0a2.6,2.6,0,0,1,.251-1.163,1.839,1.839,0,0,1,.723-.79,2.11,2.11,0,0,1,1.1-.28A2,2,0,0,1,6.75-4.44a2.179,2.179,0,0,1,.626,1.475l.008.3a2.291,2.291,0,0,1-.563,1.619,1.958,1.958,0,0,1-1.511.61A1.967,1.967,0,0,1,3.8-1.045,2.332,2.332,0,0,1,3.231-2.7ZM4.4-2.667a1.639,1.639,0,0,0,.235.956.775.775,0,0,0,.673.331.777.777,0,0,0,.664-.327,1.793,1.793,0,0,0,.239-1.045,1.622,1.622,0,0,0-.239-.95A.777.777,0,0,0,5.3-4.039a.764.764,0,0,0-.664.335A1.823,1.823,0,0,0,4.4-2.667Z" transform="translate(57.494 199.999)"/>
          <g id="Grupo_175054" data-name="Grupo 175054" transform="translate(2.55 221.61)">
            <rect id="Rectángulo_298038" data-name="Rectángulo 298038" width="43.55" height="25.184" fill="none" stroke="#084a93" stroke-miterlimit="10" stroke-width="1"/>
            <line id="Línea_432" data-name="Línea 432" x2="43.55" transform="translate(0 4.989)" fill="none" stroke="#084a93" stroke-miterlimit="10" stroke-width="1"/>
          </g>
          <path id="Trazado_212707" data-name="Trazado 212707" d="M-11.375-2.686h-.968v2.16h-1.216v-5.9h2.192a2.478,2.478,0,0,1,1.613.466,1.608,1.608,0,0,1,.567,1.317,1.815,1.815,0,0,1-.261,1.007,1.782,1.782,0,0,1-.792.642L-8.965-.583v.057h-1.3Zm-.968-.985h.981a1,1,0,0,0,.709-.233.833.833,0,0,0,.251-.642A.891.891,0,0,0-10.64-5.2a.985.985,0,0,0-.727-.239h-.976ZM-6.323-.446a2.152,2.152,0,0,1-1.57-.592A2.1,2.1,0,0,1-8.5-2.613v-.113a2.648,2.648,0,0,1,.255-1.181,1.873,1.873,0,0,1,.723-.8,2.03,2.03,0,0,1,1.068-.282,1.819,1.819,0,0,1,1.416.567A2.3,2.3,0,0,1-4.52-2.816v.478H-7.312a1.088,1.088,0,0,0,.342.689,1.035,1.035,0,0,0,.723.259,1.264,1.264,0,0,0,1.057-.49l.575.644a1.758,1.758,0,0,1-.713.581A2.34,2.34,0,0,1-6.323-.446Zm-.134-3.6a.732.732,0,0,0-.565.236,1.222,1.222,0,0,0-.278.676h1.629V-3.23a.872.872,0,0,0-.211-.6A.755.755,0,0,0-6.457-4.048Zm2.431,1.3a2.569,2.569,0,0,1,.48-1.625,1.556,1.556,0,0,1,1.295-.616A1.364,1.364,0,0,1-1.129-4.5l.049-.413H-.019V-.672a1.874,1.874,0,0,1-.261,1,1.678,1.678,0,0,1-.735.648,2.585,2.585,0,0,1-1.11.223,2.4,2.4,0,0,1-.94-.192,1.668,1.668,0,0,1-.693-.5L-3.24-.2a1.372,1.372,0,0,0,1.062.49A1,1,0,0,0-1.453.039a.935.935,0,0,0,.259-.707V-.9a1.354,1.354,0,0,1-1.066.458,1.552,1.552,0,0,1-1.278-.618A2.569,2.569,0,0,1-4.026-2.7Zm1.171.087a1.6,1.6,0,0,0,.239.935.76.76,0,0,0,.656.339.813.813,0,0,0,.766-.4V-3.638a.811.811,0,0,0-.758-.4.765.765,0,0,0-.662.345A1.8,1.8,0,0,0-2.855-2.664ZM2.117-.527H.942V-4.911H2.117ZM.873-6.045a.577.577,0,0,1,.176-.434.662.662,0,0,1,.48-.17.664.664,0,0,1,.478.17.573.573,0,0,1,.178.434.575.575,0,0,1-.18.438.665.665,0,0,1-.476.17.665.665,0,0,1-.476-.17A.575.575,0,0,1,.873-6.045ZM2.9-2.759A2.6,2.6,0,0,1,3.15-3.922a1.839,1.839,0,0,1,.723-.79,2.11,2.11,0,0,1,1.1-.28,2,2,0,0,1,1.448.543,2.179,2.179,0,0,1,.626,1.475l.008.3a2.291,2.291,0,0,1-.563,1.619,1.958,1.958,0,0,1-1.511.61,1.967,1.967,0,0,1-1.513-.608A2.332,2.332,0,0,1,2.9-2.706Zm1.171.083A1.639,1.639,0,0,0,4.3-1.72a.775.775,0,0,0,.673.331.777.777,0,0,0,.664-.327,1.793,1.793,0,0,0,.239-1.045,1.622,1.622,0,0,0-.239-.95.777.777,0,0,0-.673-.337.764.764,0,0,0-.664.335A1.823,1.823,0,0,0,4.07-2.676ZM5.2-6.75H6.476L5.354-5.494H4.4ZM8.851-4.911l.036.506a1.531,1.531,0,0,1,1.26-.587,1.272,1.272,0,0,1,1.037.409,1.909,1.909,0,0,1,.348,1.224V-.527H10.362v-2.8a.76.76,0,0,0-.162-.541.726.726,0,0,0-.539-.168.806.806,0,0,0-.741.421V-.527H7.749V-4.911Z" transform="translate(23.022 237.475)"/>
          <path id="Trazado_212704" data-name="Trazado 212704" d="M-9.071-2.5a2.206,2.206,0,0,1-.417,1.084,2.269,2.269,0,0,1-.908.725A2.764,2.764,0,0,1-11.6-.446a2.041,2.041,0,0,1-1.017-.269,1.786,1.786,0,0,1-.683-.746,2.755,2.755,0,0,1-.282-1.124,5.515,5.515,0,0,1,.1-1.24,3.93,3.93,0,0,1,.47-1.317,2.938,2.938,0,0,1,.8-.912,2.427,2.427,0,0,1,1.5-.454,1.991,1.991,0,0,1,1.453.565,2.274,2.274,0,0,1,.59,1.525l-1.183,0a1.24,1.24,0,0,0-.223-.818.909.909,0,0,0-.693-.276,1.2,1.2,0,0,0-1,.434,2.607,2.607,0,0,0-.525,1.325A7.341,7.341,0,0,0-12.4-2.488a1.262,1.262,0,0,0,.239.788.8.8,0,0,0,.612.265,1.222,1.222,0,0,0,.869-.257,1.361,1.361,0,0,0,.432-.8ZM-7.439-.527H-8.589L-7.507-6.75h1.147Zm2.176,0H-6.413l.762-4.384H-4.5Zm-.255-5.5a.571.571,0,0,1,.178-.45.627.627,0,0,1,.45-.178.63.63,0,0,1,.45.158.568.568,0,0,1,.2.429.587.587,0,0,1-.168.438.63.63,0,0,1-.46.194.641.641,0,0,1-.448-.154A.566.566,0,0,1-5.518-6.025ZM-2.212-.446A1.907,1.907,0,0,1-3.231-.727a1.707,1.707,0,0,1-.662-.762,2.123,2.123,0,0,1-.17-1.068l.012-.162a2.834,2.834,0,0,1,.373-1.175,2.251,2.251,0,0,1,.8-.825A1.985,1.985,0,0,1-1.79-4.992a1.517,1.517,0,0,1,1.282.623,2.135,2.135,0,0,1,.33,1.536l-.065.5H-2.929a.941.941,0,0,0,.207.681.789.789,0,0,0,.608.263,1.4,1.4,0,0,0,1.094-.486l.523.648a1.626,1.626,0,0,1-.713.581A2.332,2.332,0,0,1-2.212-.446Zm.365-3.6a.812.812,0,0,0-.561.2,1.744,1.744,0,0,0-.44.717h1.572l.024-.105a1.074,1.074,0,0,0,0-.308.588.588,0,0,0-.2-.367A.622.622,0,0,0-1.847-4.048ZM1.9-4.915l-.1.519a1.577,1.577,0,0,1,1.276-.6A1.052,1.052,0,0,1,4-4.538a1.829,1.829,0,0,1,.215,1.224L3.752-.527H2.61l.47-2.8a1.311,1.311,0,0,0,.008-.288.464.464,0,0,0-.519-.425.983.983,0,0,0-.806.417l-.547,3.1H.073L.835-4.911ZM6.965-5.988l-.19,1.078H7.5l-.15.859H6.625l-.373,2.2a.558.558,0,0,0,.032.316q.057.109.276.117.065,0,.348-.02l-.081.9a1.922,1.922,0,0,1-.656.093,1.03,1.03,0,0,1-.839-.352,1.274,1.274,0,0,1-.227-.932l.377-2.314h-.62l.15-.859h.62l.186-1.078ZM9.489-.446A1.907,1.907,0,0,1,8.47-.727a1.707,1.707,0,0,1-.662-.762,2.123,2.123,0,0,1-.17-1.068l.012-.162a2.834,2.834,0,0,1,.373-1.175,2.251,2.251,0,0,1,.8-.825,1.985,1.985,0,0,1,1.086-.273,1.517,1.517,0,0,1,1.282.623,2.135,2.135,0,0,1,.33,1.536l-.065.5H8.772a.941.941,0,0,0,.207.681.789.789,0,0,0,.608.263,1.4,1.4,0,0,0,1.094-.486l.523.648a1.626,1.626,0,0,1-.713.581A2.332,2.332,0,0,1,9.489-.446Zm.365-3.6a.812.812,0,0,0-.561.2,1.744,1.744,0,0,0-.44.717h1.572l.024-.105a1.074,1.074,0,0,0,0-.308.588.588,0,0,0-.2-.367A.622.622,0,0,0,9.854-4.048ZM-13.966.4H11.787v.922H-13.966Z" transform="translate(26.057 108.275)"/>
          <path id="Trazado_212712" data-name="Trazado 212712" d="M-19-1.67h2.782L-16.4-.585h-4.1l1.139-6.555h1.319Zm6.087-3.876a1.954,1.954,0,0,1,1.11.331,1.863,1.863,0,0,1,.684.887,2.744,2.744,0,0,1,.155,1.254A2.964,2.964,0,0,1-11.77-1.2a2.282,2.282,0,0,1-1.74.7,1.948,1.948,0,0,1-1.1-.326,1.856,1.856,0,0,1-.684-.88,2.683,2.683,0,0,1-.158-1.243,3.051,3.051,0,0,1,.819-1.918A2.235,2.235,0,0,1-12.911-5.546Zm-1.283,3.063a1.124,1.124,0,0,0,.2.681.673.673,0,0,0,.545.258.987.987,0,0,0,.918-.537,2.678,2.678,0,0,0,.311-1.459,1.223,1.223,0,0,0-.209-.69.662.662,0,0,0-.547-.267.988.988,0,0,0-.907.533A2.65,2.65,0,0,0-14.194-2.483Zm5.731.944a.834.834,0,0,0,.585-.191.94.94,0,0,0,.306-.533l1.193,0a1.75,1.75,0,0,1-.322.923,1.956,1.956,0,0,1-.774.639,2.217,2.217,0,0,1-1.02.216A1.8,1.8,0,0,1-9.9-1.1,2.285,2.285,0,0,1-10.4-2.7l.014-.248,0-.05a3.045,3.045,0,0,1,.8-1.884A2.167,2.167,0,0,1-7.9-5.546a1.756,1.756,0,0,1,1.308.538,1.9,1.9,0,0,1,.475,1.371H-7.3a1,1,0,0,0-.171-.617A.65.65,0,0,0-7.986-4.5q-.909-.027-1.1,1.328a4.484,4.484,0,0,0-.05.828Q-9.093-1.553-8.463-1.54Zm5.393.954a1.314,1.314,0,0,1-.05-.441A1.65,1.65,0,0,1-4.362-.5a1.5,1.5,0,0,1-1.06-.416,1.26,1.26,0,0,1-.394-1.006A1.456,1.456,0,0,1-5.147-3.14a3.035,3.035,0,0,1,1.708-.425l.594.009.063-.293a1.016,1.016,0,0,0,.014-.284.488.488,0,0,0-.16-.331.551.551,0,0,0-.362-.124.775.775,0,0,0-.5.146.709.709,0,0,0-.266.448l-1.274,0a1.416,1.416,0,0,1,.642-1.132,2.484,2.484,0,0,1,1.506-.425,1.8,1.8,0,0,1,1.3.493A1.442,1.442,0,0,1-1.5-3.831L-1.872-1.5l-.023.288a1.39,1.39,0,0,0,.077.54l0,.086Zm-.977-.9a1.163,1.163,0,0,0,.959-.477L-2.93-2.8l-.441,0a1.233,1.233,0,0,0-1.013.428.745.745,0,0,0-.14.365.432.432,0,0,0,.1.385A.513.513,0,0,0-4.047-1.481ZM1.086-1.54a.834.834,0,0,0,.585-.191.94.94,0,0,0,.306-.533l1.193,0a1.75,1.75,0,0,1-.322.923,1.956,1.956,0,0,1-.774.639,2.217,2.217,0,0,1-1.02.216A1.8,1.8,0,0,1-.351-1.1,2.285,2.285,0,0,1-.85-2.7l.014-.248,0-.05a3.045,3.045,0,0,1,.8-1.884,2.167,2.167,0,0,1,1.679-.669,1.756,1.756,0,0,1,1.308.538,1.9,1.9,0,0,1,.475,1.371H2.247a1,1,0,0,0-.171-.617A.65.65,0,0,0,1.563-4.5Q.653-4.524.46-3.169a4.484,4.484,0,0,0-.05.828Q.455-1.553,1.086-1.54ZM5-.585H3.724L4.57-5.456H5.849ZM4.719-6.694a.634.634,0,0,1,.2-.5.7.7,0,0,1,.5-.2.7.7,0,0,1,.5.176.631.631,0,0,1,.221.477.652.652,0,0,1-.187.486.7.7,0,0,1-.511.216.712.712,0,0,1-.5-.171A.629.629,0,0,1,4.719-6.694ZM8.865-5.546a1.954,1.954,0,0,1,1.11.331,1.863,1.863,0,0,1,.684.887,2.744,2.744,0,0,1,.155,1.254,2.964,2.964,0,0,1-.808,1.88,2.282,2.282,0,0,1-1.74.7,1.948,1.948,0,0,1-1.1-.326,1.856,1.856,0,0,1-.684-.88,2.683,2.683,0,0,1-.158-1.243,3.051,3.051,0,0,1,.819-1.918A2.235,2.235,0,0,1,8.865-5.546ZM7.582-2.483a1.124,1.124,0,0,0,.2.681.673.673,0,0,0,.545.258.987.987,0,0,0,.918-.537A2.678,2.678,0,0,0,9.558-3.54a1.223,1.223,0,0,0-.209-.69A.662.662,0,0,0,8.8-4.5a.988.988,0,0,0-.907.533A2.65,2.65,0,0,0,7.582-2.483ZM9.45-7.5h1.472L9.491-6.1H8.37Zm3.737,2.039-.108.576A1.753,1.753,0,0,1,14.5-5.546a1.169,1.169,0,0,1,1.017.5,2.032,2.032,0,0,1,.239,1.36l-.513,3.1H13.97L14.492-3.7a1.457,1.457,0,0,0,.009-.32.516.516,0,0,0-.576-.473,1.093,1.093,0,0,0-.9.464L12.421-.585h-1.27L12-5.456ZM-20.6.337H16.221v.922H-20.6Zm-4.54,3.587.806,4.74,2.445-4.74h1.756l-1.139,6.555H-22.6l.324-1.868.639-2.917-2.512,4.785h-.9l-.878-4.952-.423,3.228-.3,1.724h-1.319l1.139-6.555Zm7.784,6.555a1.314,1.314,0,0,1-.05-.441,1.65,1.65,0,0,1-1.243.531,1.5,1.5,0,0,1-1.06-.416A1.26,1.26,0,0,1-20.1,9.146a1.456,1.456,0,0,1,.669-1.222A3.035,3.035,0,0,1-17.726,7.5l.594.009.063-.293a1.016,1.016,0,0,0,.014-.284.487.487,0,0,0-.16-.331.551.551,0,0,0-.362-.124.775.775,0,0,0-.5.146.709.709,0,0,0-.266.448l-1.274,0a1.416,1.416,0,0,1,.642-1.132,2.484,2.484,0,0,1,1.506-.425,1.8,1.8,0,0,1,1.3.493,1.442,1.442,0,0,1,.392,1.222l-.374,2.332-.023.288a1.39,1.39,0,0,0,.077.54l0,.086Zm-.977-.9a1.163,1.163,0,0,0,.959-.477l.158-.842-.441,0a1.233,1.233,0,0,0-1.013.428.745.745,0,0,0-.14.365.432.432,0,0,0,.1.385A.513.513,0,0,0-18.333,9.583Zm5.006-3.98-.108.576a1.753,1.753,0,0,1,1.418-.662,1.169,1.169,0,0,1,1.017.5,2.032,2.032,0,0,1,.239,1.36l-.513,3.1h-1.27l.522-3.111a1.456,1.456,0,0,0,.009-.32.516.516,0,0,0-.576-.473,1.093,1.093,0,0,0-.9.464l-.608,3.439h-1.27l.846-4.871Zm6.064,4.371a1.682,1.682,0,0,1-1.342.594,1.251,1.251,0,0,1-1.062-.5,1.843,1.843,0,0,1-.279-1.306l.527-3.151h1.27l-.536,3.168a1.253,1.253,0,0,0,0,.279.463.463,0,0,0,.5.464,1.16,1.16,0,0,0,.977-.455l.608-3.457h1.279l-.846,4.871H-7.358Zm2.377.5.68-3.921h-.7l.167-.95.7,0,.063-.486a1.92,1.92,0,0,1,.635-1.222A1.921,1.921,0,0,1-2.023,3.46a4.224,4.224,0,0,1,.689.094l-.113,1.009a1.574,1.574,0,0,0-.374-.054.931.931,0,0,0-.578.172.781.781,0,0,0-.3.529l-.068.4h.941l-.167.95h-.936l-.68,3.921Zm5.726,0a1.314,1.314,0,0,1-.05-.441,1.65,1.65,0,0,1-1.243.531,1.5,1.5,0,0,1-1.06-.416,1.26,1.26,0,0,1-.394-1.006,1.456,1.456,0,0,1,.669-1.222A3.035,3.035,0,0,1,.471,7.5l.594.009.063-.293a1.016,1.016,0,0,0,.014-.284A.488.488,0,0,0,.982,6.6.551.551,0,0,0,.62,6.477a.775.775,0,0,0-.5.146.709.709,0,0,0-.266.448l-1.274,0A1.416,1.416,0,0,1-.783,5.943,2.484,2.484,0,0,1,.723,5.518a1.8,1.8,0,0,1,1.3.493,1.442,1.442,0,0,1,.392,1.222L2.038,9.565l-.023.288a1.39,1.39,0,0,0,.077.54l0,.086Zm-.977-.9a1.163,1.163,0,0,0,.959-.477L.98,8.264l-.441,0a1.233,1.233,0,0,0-1.013.428.745.745,0,0,0-.14.365.432.432,0,0,0,.1.385A.513.513,0,0,0-.137,9.583ZM5,9.524a.834.834,0,0,0,.585-.191A.94.94,0,0,0,5.887,8.8l1.193,0a1.75,1.75,0,0,1-.322.923,1.956,1.956,0,0,1-.774.639,2.217,2.217,0,0,1-1.02.216,1.8,1.8,0,0,1-1.4-.612,2.285,2.285,0,0,1-.5-1.594l.014-.248,0-.05a3.045,3.045,0,0,1,.8-1.884,2.167,2.167,0,0,1,1.679-.669,1.756,1.756,0,0,1,1.308.538,1.9,1.9,0,0,1,.475,1.371H6.157a1,1,0,0,0-.171-.617.65.65,0,0,0-.513-.243q-.909-.027-1.1,1.328a4.484,4.484,0,0,0-.05.828Q4.365,9.511,5,9.524Zm5.15-5.114-.212,1.2h.81l-.167.954h-.81L9.353,9a.62.62,0,0,0,.036.351q.063.122.306.131.072,0,.387-.023l-.09.995a2.135,2.135,0,0,1-.729.1,1.144,1.144,0,0,1-.932-.392,1.415,1.415,0,0,1-.252-1.035L8.5,6.562H7.809l.167-.954h.689l.207-1.2Zm3.507,5.564a1.682,1.682,0,0,1-1.342.594,1.251,1.251,0,0,1-1.062-.5,1.843,1.843,0,0,1-.279-1.306L11.5,5.608h1.27L12.23,8.776a1.253,1.253,0,0,0,0,.279.463.463,0,0,0,.5.464,1.16,1.16,0,0,0,.977-.455l.608-3.457h1.279l-.846,4.871H13.558Zm5.371-3.147a2.621,2.621,0,0,0-.428-.045,1.231,1.231,0,0,0-1.076.509l-.563,3.187h-1.27l.846-4.871,1.193,0L17.61,6.2a1.34,1.34,0,0,1,1.134-.689,1.852,1.852,0,0,1,.441.063Zm2.656,3.651a1.314,1.314,0,0,1-.05-.441,1.65,1.65,0,0,1-1.243.531,1.5,1.5,0,0,1-1.06-.416,1.26,1.26,0,0,1-.394-1.006A1.456,1.456,0,0,1,19.6,7.924,3.035,3.035,0,0,1,21.31,7.5l.594.009.063-.293a1.016,1.016,0,0,0,.014-.284.488.488,0,0,0-.16-.331.551.551,0,0,0-.362-.124.775.775,0,0,0-.5.146.709.709,0,0,0-.266.448l-1.274,0a1.416,1.416,0,0,1,.642-1.132,2.484,2.484,0,0,1,1.506-.425,1.8,1.8,0,0,1,1.3.493,1.442,1.442,0,0,1,.392,1.222l-.374,2.332-.023.288a1.39,1.39,0,0,0,.077.54l0,.086Zm-.977-.9a1.163,1.163,0,0,0,.959-.477l.158-.842-.441,0a1.233,1.233,0,0,0-1.013.428.745.745,0,0,0-.14.365.432.432,0,0,0,.1.385A.513.513,0,0,0,20.7,9.583ZM-28.066,11.4H23.687v.922H-28.066Z" transform="translate(313.567 109.255)"/>
          <path id="Trazado_212708" data-name="Trazado 212708" d="M-16.621-2l1.985-4.424h1.361l-2.913,5.9h-1.24l-1.062-5.9h1.276Zm4.765,1.556a1.907,1.907,0,0,1-1.019-.282,1.707,1.707,0,0,1-.662-.762,2.123,2.123,0,0,1-.17-1.068l.012-.162a2.834,2.834,0,0,1,.373-1.175,2.251,2.251,0,0,1,.8-.825,1.985,1.985,0,0,1,1.086-.273,1.517,1.517,0,0,1,1.282.623,2.135,2.135,0,0,1,.33,1.536l-.065.5h-2.686a.941.941,0,0,0,.207.681.789.789,0,0,0,.608.263,1.4,1.4,0,0,0,1.094-.486l.523.648a1.626,1.626,0,0,1-.713.581A2.332,2.332,0,0,1-11.857-.446Zm.365-3.6a.812.812,0,0,0-.561.2,1.744,1.744,0,0,0-.44.717h1.572l.024-.105a1.074,1.074,0,0,0,0-.308.588.588,0,0,0-.2-.367A.622.622,0,0,0-11.492-4.048Zm3.752-.867-.1.519a1.577,1.577,0,0,1,1.276-.6,1.052,1.052,0,0,1,.916.454,1.829,1.829,0,0,1,.215,1.224L-5.892-.527H-7.035l.47-2.8a1.311,1.311,0,0,0,.008-.288.464.464,0,0,0-.519-.425.983.983,0,0,0-.806.417l-.547,3.1H-9.571l.762-4.384ZM-2.821-5a1.248,1.248,0,0,1,.989.49L-1.4-6.75H-.257L-1.334-.527H-2.355L-2.291-1a1.419,1.419,0,0,1-1.143.555A1.262,1.262,0,0,1-4.15-.656a1.352,1.352,0,0,1-.476-.606,2.44,2.44,0,0,1-.184-.881A3.321,3.321,0,0,1-4.8-2.638l.024-.182A3.509,3.509,0,0,1-4.4-4a1.953,1.953,0,0,1,.681-.758A1.6,1.6,0,0,1-2.821-5Zm-.831,2.358a3.281,3.281,0,0,0-.02.519q.041.713.575.725a.978.978,0,0,0,.839-.454l.312-1.742a.647.647,0,0,0-.632-.454.833.833,0,0,0-.695.322A2.166,2.166,0,0,0-3.652-2.638ZM1.66-.446A1.907,1.907,0,0,1,.641-.727a1.707,1.707,0,0,1-.662-.762,2.123,2.123,0,0,1-.17-1.068l.012-.162A2.834,2.834,0,0,1,.193-3.894,2.251,2.251,0,0,1,1-4.718a1.985,1.985,0,0,1,1.086-.273,1.517,1.517,0,0,1,1.282.623,2.135,2.135,0,0,1,.33,1.536l-.065.5H.943a.941.941,0,0,0,.207.681.789.789,0,0,0,.608.263,1.4,1.4,0,0,0,1.094-.486l.523.648a1.626,1.626,0,0,1-.713.581A2.332,2.332,0,0,1,1.66-.446Zm.365-3.6a.812.812,0,0,0-.561.2,1.744,1.744,0,0,0-.44.717H2.6l.024-.105a1.074,1.074,0,0,0,0-.308.588.588,0,0,0-.2-.367A.622.622,0,0,0,2.025-4.048ZM6.145-5a1.248,1.248,0,0,1,.989.49L7.563-6.75H8.71L7.632-.527H6.611L6.676-1a1.419,1.419,0,0,1-1.143.555,1.262,1.262,0,0,1-.717-.215,1.352,1.352,0,0,1-.476-.606,2.44,2.44,0,0,1-.184-.881,3.321,3.321,0,0,1,.012-.494l.024-.182A3.509,3.509,0,0,1,4.567-4a1.953,1.953,0,0,1,.681-.758A1.6,1.6,0,0,1,6.145-5ZM5.315-2.638a3.281,3.281,0,0,0-.02.519q.041.713.575.725a.978.978,0,0,0,.839-.454L7.02-3.59a.647.647,0,0,0-.632-.454.833.833,0,0,0-.695.322A2.166,2.166,0,0,0,5.315-2.638Zm5.737-2.354a1.758,1.758,0,0,1,1,.3,1.677,1.677,0,0,1,.616.8,2.469,2.469,0,0,1,.14,1.128,2.667,2.667,0,0,1-.727,1.692,2.054,2.054,0,0,1-1.566.63,1.753,1.753,0,0,1-.989-.294,1.671,1.671,0,0,1-.616-.792A2.415,2.415,0,0,1,8.767-2.65,2.746,2.746,0,0,1,9.5-4.376,2.011,2.011,0,0,1,11.052-4.992ZM9.9-2.235a1.012,1.012,0,0,0,.182.613.606.606,0,0,0,.49.233.888.888,0,0,0,.827-.483,2.41,2.41,0,0,0,.28-1.313,1.1,1.1,0,0,0-.188-.621.6.6,0,0,0-.492-.241.889.889,0,0,0-.816.479A2.385,2.385,0,0,0,9.9-2.235Zm6.24-1.577a2.359,2.359,0,0,0-.385-.041,1.108,1.108,0,0,0-.968.458L14.277-.527H13.134L13.9-4.911l1.074,0-.105.535A1.206,1.206,0,0,1,15.885-5a1.667,1.667,0,0,1,.4.057ZM-19.077.4H16.1v.922H-19.077Z" transform="translate(111.595 208.087)"/>
          <path id="Trazado_212709" data-name="Trazado 212709" d="M-16.389-2.605l-.365,2.079h-1.187l1.025-5.9,2.066,0a2.067,2.067,0,0,1,1.5.531,1.646,1.646,0,0,1,.478,1.386,1.863,1.863,0,0,1-.723,1.386,2.632,2.632,0,0,1-1.679.519Zm.166-.985.989.008a1.25,1.25,0,0,0,.794-.247,1,1,0,0,0,.377-.669A.854.854,0,0,0-14.2-5.17a.735.735,0,0,0-.581-.267l-1.118,0Zm6.442-.223a2.359,2.359,0,0,0-.385-.041,1.108,1.108,0,0,0-.968.458l-.506,2.869h-1.143l.762-4.384,1.074,0-.105.535A1.206,1.206,0,0,1-10.032-5a1.667,1.667,0,0,1,.4.057Zm2.338-1.179a1.758,1.758,0,0,1,1,.3,1.677,1.677,0,0,1,.616.8,2.469,2.469,0,0,1,.14,1.128,2.667,2.667,0,0,1-.727,1.692,2.054,2.054,0,0,1-1.566.63,1.753,1.753,0,0,1-.989-.294,1.671,1.671,0,0,1-.616-.792A2.415,2.415,0,0,1-9.729-2.65a2.746,2.746,0,0,1,.737-1.726A2.011,2.011,0,0,1-7.443-4.992ZM-8.6-2.235a1.012,1.012,0,0,0,.182.613.606.606,0,0,0,.49.233A.888.888,0,0,0-7.1-1.873a2.41,2.41,0,0,0,.28-1.313,1.1,1.1,0,0,0-.188-.621A.6.6,0,0,0-7.5-4.048a.889.889,0,0,0-.816.479A2.385,2.385,0,0,0-8.6-2.235ZM-3.185-5a1.248,1.248,0,0,1,.989.49l.429-2.245H-.62L-1.7-.527H-2.719L-2.654-1A1.419,1.419,0,0,1-3.8-.442a1.262,1.262,0,0,1-.717-.215,1.352,1.352,0,0,1-.476-.606,2.44,2.44,0,0,1-.184-.881,3.321,3.321,0,0,1,.012-.494l.024-.182A3.509,3.509,0,0,1-4.763-4a1.953,1.953,0,0,1,.681-.758A1.6,1.6,0,0,1-3.185-5Zm-.831,2.358a3.281,3.281,0,0,0-.02.519q.041.713.575.725a.978.978,0,0,0,.839-.454L-2.31-3.59a.647.647,0,0,0-.632-.454.833.833,0,0,0-.695.322A2.166,2.166,0,0,0-4.016-2.638ZM1.928-.98A1.514,1.514,0,0,1,.721-.446,1.126,1.126,0,0,1-.235-.9,1.659,1.659,0,0,1-.487-2.074l.474-2.836H1.13L.648-2.059a1.128,1.128,0,0,0,0,.251.417.417,0,0,0,.45.418,1.044,1.044,0,0,0,.879-.41L2.52-4.911H3.67L2.909-.527H1.843ZM5.68-1.386a.75.75,0,0,0,.527-.172.846.846,0,0,0,.276-.48l1.074,0a1.575,1.575,0,0,1-.29.831,1.76,1.76,0,0,1-.7.575,2,2,0,0,1-.918.194A1.62,1.62,0,0,1,4.388-.993a2.056,2.056,0,0,1-.45-1.434L3.95-2.65l0-.045a2.741,2.741,0,0,1,.721-1.7,1.951,1.951,0,0,1,1.511-.6,1.58,1.58,0,0,1,1.177.484,1.71,1.71,0,0,1,.427,1.234H6.725a.9.9,0,0,0-.154-.555.585.585,0,0,0-.462-.219q-.818-.024-.993,1.2a4.036,4.036,0,0,0-.045.746Q5.113-1.4,5.68-1.386Zm4.635-4.6-.19,1.078h.729l-.15.859H9.975L9.6-1.856a.558.558,0,0,0,.032.316q.057.109.276.117.065,0,.348-.02l-.081.9a1.922,1.922,0,0,1-.656.093,1.03,1.03,0,0,1-.839-.352,1.274,1.274,0,0,1-.227-.932l.377-2.314h-.62l.15-.859h.62l.186-1.078Zm2.828,1a1.758,1.758,0,0,1,1,.3,1.677,1.677,0,0,1,.616.8,2.469,2.469,0,0,1,.14,1.128,2.667,2.667,0,0,1-.727,1.692,2.054,2.054,0,0,1-1.566.63,1.753,1.753,0,0,1-.989-.294A1.671,1.671,0,0,1,11-1.531a2.415,2.415,0,0,1-.142-1.118A2.746,2.746,0,0,1,11.6-4.376,2.011,2.011,0,0,1,13.143-4.992ZM11.989-2.235a1.012,1.012,0,0,0,.182.613.606.606,0,0,0,.49.233.888.888,0,0,0,.827-.483,2.41,2.41,0,0,0,.28-1.313,1.1,1.1,0,0,0-.188-.621.6.6,0,0,0-.492-.241.889.889,0,0,0-.816.479A2.385,2.385,0,0,0,11.989-2.235ZM-18.026.4h33.24v.922h-33.24Z" transform="translate(218.651 197.101)"/>
          <g id="Grupo_175056" data-name="Grupo 175056" transform="translate(179.712 21.837)">
            <g id="Grupo_175055" data-name="Grupo 175055">
              <rect id="Rectángulo_298039" data-name="Rectángulo 298039" width="43.55" height="25.184" fill="none" stroke="#084a93" stroke-miterlimit="10" stroke-width="1"/>
              <line id="Línea_433" data-name="Línea 433" x2="43.55" transform="translate(0 4.989)" fill="none" stroke="#084a93" stroke-miterlimit="10" stroke-width="1"/>
            </g>
            <path id="Trazado_212699" data-name="Trazado 212699" d="M-7.254-7.109-5.57-2.355-3.9-7.109h1.774V-.555H-3.477V-2.346l.135-3.093L-5.111-.555h-.927L-7.8-5.435l.135,3.088V-.555H-9.019V-7.109ZM1.214-.465A2.391,2.391,0,0,1-.53-1.122,2.336,2.336,0,0,1-1.2-2.873V-3A2.943,2.943,0,0,1-.92-4.311a2.081,2.081,0,0,1,.8-.891A2.255,2.255,0,0,1,1.07-5.516a2.022,2.022,0,0,1,1.573.63A2.561,2.561,0,0,1,3.218-3.1v.531H.116A1.209,1.209,0,0,0,.5-1.8a1.15,1.15,0,0,0,.8.288,1.4,1.4,0,0,0,1.175-.545l.639.716A1.953,1.953,0,0,1,2.322-.7,2.6,2.6,0,0,1,1.214-.465Zm-.149-4A.813.813,0,0,0,.438-4.2a1.358,1.358,0,0,0-.308.751h1.81v-.1A.969.969,0,0,0,1.7-4.229.839.839,0,0,0,1.066-4.467ZM6.594-1.9a.419.419,0,0,0-.236-.376A2.685,2.685,0,0,0,5.6-2.522Q3.861-2.887,3.861-4A1.338,1.338,0,0,1,4.4-5.081a2.17,2.17,0,0,1,1.407-.434,2.336,2.336,0,0,1,1.483.437,1.376,1.376,0,0,1,.556,1.134h-1.3a.63.63,0,0,0-.18-.461A.762.762,0,0,0,5.8-4.588a.779.779,0,0,0-.509.149.469.469,0,0,0-.18.378.4.4,0,0,0,.2.349,2.107,2.107,0,0,0,.691.23,5.644,5.644,0,0,1,.819.218,1.346,1.346,0,0,1,1.031,1.31A1.271,1.271,0,0,1,7.287-.877a2.466,2.466,0,0,1-1.477.412A2.576,2.576,0,0,1,4.723-.683a1.824,1.824,0,0,1-.745-.6,1.391,1.391,0,0,1-.27-.822H4.942a.679.679,0,0,0,.257.531,1.018,1.018,0,0,0,.639.185A.942.942,0,0,0,6.4-1.529.441.441,0,0,0,6.594-1.9Z" transform="translate(20.218 16.748)"/>
          </g>
          <g id="Grupo_175058" data-name="Grupo 175058" transform="translate(144.622 56.677)">
            <g id="Grupo_175057" data-name="Grupo 175057" transform="translate(0)">
              <rect id="Rectángulo_298040" data-name="Rectángulo 298040" width="43.55" height="25.184" fill="none" stroke="#084a93" stroke-miterlimit="10" stroke-width="1"/>
              <line id="Línea_434" data-name="Línea 434" x2="43.55" transform="translate(0 4.989)" fill="none" stroke="#084a93" stroke-miterlimit="10" stroke-width="1"/>
            </g>
            <path id="Trazado_212700" data-name="Trazado 212700" d="M-6.665-.579V-7.134h2.017A3.063,3.063,0,0,1-3.1-6.745,2.715,2.715,0,0,1-2.037-5.637a3.416,3.416,0,0,1,.383,1.632v.3A3.425,3.425,0,0,1-2.03-2.079a2.692,2.692,0,0,1-1.06,1.1,3.086,3.086,0,0,1-1.544.4ZM-5.314-6.04v4.376h.653a1.467,1.467,0,0,0,1.211-.518,2.34,2.34,0,0,0,.428-1.481V-4.01a2.377,2.377,0,0,0-.414-1.515A1.462,1.462,0,0,0-4.648-6.04ZM.646-.579h-1.3V-5.45h1.3ZM.263-7.427H1.681L.434-6.031H-.624ZM4.59-.579a1.445,1.445,0,0,1-.131-.437A1.574,1.574,0,0,1,3.23-.489,1.729,1.729,0,0,1,2.044-.9a1.332,1.332,0,0,1-.47-1.044,1.377,1.377,0,0,1,.574-1.188,2.832,2.832,0,0,1,1.659-.419h.6v-.279a.8.8,0,0,0-.173-.54.682.682,0,0,0-.547-.2.775.775,0,0,0-.515.158.535.535,0,0,0-.187.432h-1.3a1.307,1.307,0,0,1,.261-.783,1.726,1.726,0,0,1,.738-.565,2.691,2.691,0,0,1,1.071-.2,2.126,2.126,0,0,1,1.429.452,1.583,1.583,0,0,1,.529,1.272V-1.7A2.329,2.329,0,0,0,5.9-.656v.077Zm-1.076-.9a1.121,1.121,0,0,0,.531-.128.843.843,0,0,0,.36-.344v-.837H3.919q-.977,0-1.04.675l0,.077a.521.521,0,0,0,.171.4A.665.665,0,0,0,3.514-1.484Z" transform="translate(19.697 16.773)"/>
          </g>
          <line id="Línea_435" data-name="Línea 435" x2="27.505" transform="translate(152.206 32.883)" fill="none" stroke="#00defc" stroke-miterlimit="10" stroke-width="1"/>
          <line id="Línea_436" data-name="Línea 436" x1="36.507" y2="9.656" transform="translate(164.98 47.021)" fill="none" stroke="#00defc" stroke-miterlimit="10" stroke-width="1"/>
          <line id="Línea_437" data-name="Línea 437" y2="18.098" transform="translate(166.398 81.861)" fill="none" stroke="#00defc" stroke-miterlimit="10" stroke-width="1"/>
          <line id="Línea_438" data-name="Línea 438" x2="17.192" y2="14.556" transform="translate(43.55 76.354)" fill="none" stroke="#00defc" stroke-miterlimit="10" stroke-width="1"/>
          <line id="Línea_439" data-name="Línea 439" x2="33.011" y2="27.634" transform="translate(104.292 87.367)" fill="none" stroke="#00defc" stroke-miterlimit="10" stroke-width="1"/>
          <line id="Línea_440" data-name="Línea 440" x1="29.688" y2="34.19" transform="translate(195.492 92.506)" fill="none" stroke="#00defc" stroke-miterlimit="10" stroke-width="1"/>
          <line id="Línea_441" data-name="Línea 441" x1="20.949" y2="15.746" transform="translate(268.73 76.354)" fill="none" stroke="#00defc" stroke-miterlimit="10" stroke-width="1"/>
          <line id="Línea_442" data-name="Línea 442" x2="29.688" y2="21.541" transform="translate(195.492 137.328)" fill="none" stroke="#00defc" stroke-miterlimit="10" stroke-width="1"/>
          <line id="Línea_443" data-name="Línea 443" x2="19.314" y2="14.416" transform="translate(254.279 169.726)" fill="none" stroke="#00defc" stroke-miterlimit="10" stroke-width="1"/>
          <line id="Línea_444" data-name="Línea 444" x1="33.011" y2="28.666" transform="translate(104.292 133.607)" fill="none" stroke="#00defc" stroke-miterlimit="10" stroke-width="1"/>
          <line id="Línea_445" data-name="Línea 445" x1="17.05" y2="13.324" transform="translate(60.742 170.818)" fill="none" stroke="#00defc" stroke-miterlimit="10" stroke-width="1"/>
          <line id="Línea_446" data-name="Línea 446" x1="15.701" y2="12.284" transform="translate(36.445 209.326)" fill="none" stroke="#00defc" stroke-miterlimit="10" stroke-width="1"/>
        </g>
      </g>
    </g>
  </g>
</svg>
