<svg xmlns="http://www.w3.org/2000/svg" width="120" height="120" viewBox="0 0 120 120">
  <g id="Grupo_176829" data-name="Grupo 176829" transform="translate(4648 10833)">
    <g id="Grupo_176796" data-name="Grupo 176796">
      <rect id="Figura9" width="120" height="120" transform="translate(-4648 -10833)" fill="none"/>
      <g id="Grupo_175891" data-name="Grupo 175891" transform="translate(-4911.998 -11755)">
        <g id="Grupo_175890" data-name="Grupo 175890" transform="translate(267.998 926)">
          <g id="Grupo_175888" data-name="Grupo 175888" transform="translate(1.806 1.807)">
            <g id="Grupo_175864" data-name="Grupo 175864" transform="translate(79.484 97.549)">
              <g id="Grupo_175863" data-name="Grupo 175863">
                <path id="Trazado_209265" data-name="Trazado 209265" d="M499.191,1176.858v3.613a3.624,3.624,0,0,1-3.613,3.613H473.9a3.624,3.624,0,0,1-3.613-3.613v-3.613a3.623,3.623,0,0,1,3.613-3.613h21.677A3.623,3.623,0,0,1,499.191,1176.858Z" transform="translate(-470.288 -1173.245)" fill="#ffb30b"/>
              </g>
            </g>
            <g id="Grupo_175866" data-name="Grupo 175866" transform="translate(79.484 86.71)">
              <g id="Grupo_175865" data-name="Grupo 175865">
                <path id="Trazado_209266" data-name="Trazado 209266" d="M499.191,1149.885v3.613a3.624,3.624,0,0,1-3.613,3.613H473.9a3.624,3.624,0,0,1-3.613-3.613v-3.613a3.623,3.623,0,0,1,3.613-3.613h21.677A3.623,3.623,0,0,1,499.191,1149.885Z" transform="translate(-470.288 -1146.273)" fill="#ffb30b"/>
              </g>
            </g>
            <g id="Grupo_175868" data-name="Grupo 175868" transform="translate(79.484 75.871)">
              <g id="Grupo_175867" data-name="Grupo 175867">
                <path id="Trazado_209267" data-name="Trazado 209267" d="M499.191,1122.913v3.613a3.624,3.624,0,0,1-3.613,3.613H473.9a3.624,3.624,0,0,1-3.613-3.613v-3.613a3.624,3.624,0,0,1,3.613-3.613h21.677A3.624,3.624,0,0,1,499.191,1122.913Z" transform="translate(-470.288 -1119.3)" fill="#ffb30b"/>
              </g>
            </g>
            <g id="Grupo_175869" data-name="Grupo 175869" transform="translate(86.71 25.29)">
              <path id="Trazado_209268" data-name="Trazado 209268" d="M488.27,993.431h10.839v7.226H488.27Z" transform="translate(-488.27 -993.431)" fill="#aab2bd"/>
            </g>
            <g id="Grupo_175870" data-name="Grupo 175870" transform="translate(75.871 18.064)">
              <path id="Trazado_209269" data-name="Trazado 209269" d="M493.814,975.449v3.613a3.624,3.624,0,0,1-3.613,3.613h-25.29a3.624,3.624,0,0,1-3.613-3.613v-3.613Z" transform="translate(-461.298 -975.449)" fill="#ccd1d9"/>
            </g>
            <g id="Grupo_175871" data-name="Grupo 175871" transform="translate(3.613 75.871)">
              <path id="Trazado_209270" data-name="Trazado 209270" d="M314,1122.913v21.677H281.484v-21.677a3.624,3.624,0,0,1,3.613-3.613h25.29A3.624,3.624,0,0,1,314,1122.913Z" transform="translate(-281.484 -1119.3)" fill="#ccd1d9"/>
            </g>
            <g id="Grupo_175872" data-name="Grupo 175872" transform="translate(0 101.161)">
              <path id="Trazado_209271" data-name="Trazado 209271" d="M312.235,1184.042a5.428,5.428,0,0,1-5.419,5.419h-28.9a5.412,5.412,0,0,1-5.419-5.419,1.812,1.812,0,0,1,1.806-1.807h36.129A1.812,1.812,0,0,1,312.235,1184.042Z" transform="translate(-272.493 -1182.235)" fill="#969faa"/>
            </g>
            <g id="Grupo_175873" data-name="Grupo 175873">
              <path id="Trazado_209272" data-name="Trazado 209272" d="M294.17,934.109v3.613H272.493v-3.613a3.624,3.624,0,0,1,3.613-3.613h14.452A3.624,3.624,0,0,1,294.17,934.109Z" transform="translate(-272.493 -930.496)" fill="#969faa"/>
            </g>
            <g id="Grupo_175874" data-name="Grupo 175874" transform="translate(0 25.29)">
              <path id="Trazado_209273" data-name="Trazado 209273" d="M294.17,993.431v3.613a3.624,3.624,0,0,1-3.613,3.613H276.106a3.624,3.624,0,0,1-3.613-3.613v-3.613Z" transform="translate(-272.493 -993.431)" fill="#969faa"/>
            </g>
            <g id="Grupo_175875" data-name="Grupo 175875" transform="translate(23.484 28.903)">
              <path id="Trazado_209274" data-name="Trazado 209274" d="M385.126,1020.486a10.839,10.839,0,1,1,0,21.677H341.772a10.839,10.839,0,1,1,0-21.677h.09a19.856,19.856,0,0,1,39.6.65A10.722,10.722,0,0,1,385.126,1020.486Z" transform="translate(-330.933 -1002.421)" fill="#e6e9ed"/>
            </g>
            <g id="Grupo_175877" data-name="Grupo 175877" transform="translate(65.032 54.194)">
              <g id="Grupo_175876" data-name="Grupo 175876">
                <circle id="Elipse_13310" data-name="Elipse 13310" cx="3.613" cy="3.613" r="3.613" fill="#a6f4fe"/>
              </g>
            </g>
            <g id="Grupo_175879" data-name="Grupo 175879" transform="translate(50.581 54.194)">
              <g id="Grupo_175878" data-name="Grupo 175878">
                <circle id="Elipse_13311" data-name="Elipse 13311" cx="3.613" cy="3.613" r="3.613" fill="#a6f4fe"/>
              </g>
            </g>
            <g id="Grupo_175881" data-name="Grupo 175881" transform="translate(36.129 54.194)">
              <g id="Grupo_175880" data-name="Grupo 175880">
                <circle id="Elipse_13312" data-name="Elipse 13312" cx="3.613" cy="3.613" r="3.613" fill="#a6f4fe"/>
              </g>
            </g>
            <g id="Grupo_175883" data-name="Grupo 175883" transform="translate(10.839 83.097)">
              <g id="Grupo_175882" data-name="Grupo 175882">
                <path id="Trazado_209275" data-name="Trazado 209275" d="M299.465,1137.282H317.53v10.839H299.465Z" transform="translate(-299.465 -1137.282)" fill="#a6f4fe"/>
              </g>
            </g>
            <g id="Grupo_175885" data-name="Grupo 175885" transform="translate(75.871)">
              <g id="Grupo_175884" data-name="Grupo 175884">
                <path id="Trazado_209276" data-name="Trazado 209276" d="M493.814,934.109V948.56H461.3V934.109a3.624,3.624,0,0,1,3.613-3.613H490.2A3.624,3.624,0,0,1,493.814,934.109Z" transform="translate(-461.298 -930.496)" fill="#a6f4fe"/>
              </g>
            </g>
            <g id="Grupo_175887" data-name="Grupo 175887" transform="translate(0 7.226)">
              <g id="Grupo_175886" data-name="Grupo 175886">
                <path id="Trazado_209277" data-name="Trazado 209277" d="M272.493,948.477H294.17v18.065H272.493Z" transform="translate(-272.493 -948.477)" fill="#a6f4fe"/>
              </g>
            </g>
          </g>
          <g id="Grupo_175889" data-name="Grupo 175889">
            <path id="Trazado_209278" data-name="Trazado 209278" d="M326.437,1028.636a12.66,12.66,0,0,0,12.645,12.645h43.355a12.645,12.645,0,1,0,0-25.29,12.3,12.3,0,0,0-2.1.18,21.66,21.66,0,0,0-42.764-.09,12.664,12.664,0,0,0-11.133,12.555Zm12.629-9.03h0l1.745.1.157-1.741a18.046,18.046,0,0,1,35.99.587l.139,2.415,2.276-.818a9.028,9.028,0,1,1,3.06,17.519H339.082a9.031,9.031,0,0,1-.016-18.063Z" transform="translate(-302.953 -969.023)"/>
            <path id="Trazado_209279" data-name="Trazado 209279" d="M385.843,1019.52v-3.613a14.469,14.469,0,0,0-14.452,14.452H375A10.85,10.85,0,0,1,385.843,1019.52Z" transform="translate(-329.843 -979.778)"/>
            <path id="Trazado_209280" data-name="Trazado 209280" d="M393.867,1066.281a5.42,5.42,0,1,0,5.42-5.419A5.426,5.426,0,0,0,393.867,1066.281Zm7.226,0a1.807,1.807,0,1,1-1.806-1.806A1.808,1.808,0,0,1,401.093,1066.281Z" transform="translate(-343.287 -1006.667)"/>
            <path id="Trazado_209281" data-name="Trazado 209281" d="M363.324,1071.7a5.419,5.419,0,1,0-5.419-5.419A5.426,5.426,0,0,0,363.324,1071.7Zm0-7.226a1.806,1.806,0,1,1-1.807,1.806A1.808,1.808,0,0,1,363.324,1064.474Z" transform="translate(-321.776 -1006.667)"/>
            <path id="Trazado_209282" data-name="Trazado 209282" d="M435.249,1071.7a5.419,5.419,0,1,0-5.419-5.419A5.426,5.426,0,0,0,435.249,1071.7Zm0-7.226a1.806,1.806,0,1,1-1.806,1.806A1.808,1.808,0,0,1,435.249,1064.474Z" transform="translate(-364.798 -1006.667)"/>
            <path id="Trazado_209283" data-name="Trazado 209283" d="M397.933,952.37l2.554-2.554a19.894,19.894,0,0,0-28.1,0l2.555,2.554A16.276,16.276,0,0,1,397.933,952.37Z" transform="translate(-330.436 -936.77)"/>
            <path id="Trazado_209284" data-name="Trazado 209284" d="M402.986,965.668a12.642,12.642,0,0,0-17.884,0l2.554,2.555a9.032,9.032,0,0,1,12.775,0Z" transform="translate(-338.044 -947.511)"/>
            <path id="Trazado_209285" data-name="Trazado 209285" d="M397.814,981.611l2.556,2.554a1.843,1.843,0,0,1,2.553,0l2.556-2.554a5.552,5.552,0,0,0-7.665,0Z" transform="translate(-345.647 -958.346)"/>
            <path id="Trazado_209286" data-name="Trazado 209286" d="M372.389,1134.126l2.554,2.555a16.275,16.275,0,0,1,22.994,0l2.555-2.555A19.9,19.9,0,0,0,372.389,1134.126Z" transform="translate(-330.44 -1047.015)"/>
            <path id="Trazado_209287" data-name="Trazado 209287" d="M385.1,1149.978l2.554,2.554a9.031,9.031,0,0,1,12.775,0l2.554-2.554a12.642,12.642,0,0,0-17.884,0Z" transform="translate(-338.044 -1057.756)"/>
            <path id="Trazado_209288" data-name="Trazado 209288" d="M397.814,1165.92l2.556,2.555a1.842,1.842,0,0,1,2.553,0l2.556-2.555a5.552,5.552,0,0,0-7.665,0Z" transform="translate(-345.647 -1068.59)"/>
            <path id="Trazado_209289" data-name="Trazado 209289" d="M269,1030.733l2.554,2.555a16.275,16.275,0,0,1,22.994,0l2.555-2.555A19.9,19.9,0,0,0,269,1030.733Z" transform="translate(-268.595 -985.17)"/>
            <path id="Trazado_209290" data-name="Trazado 209290" d="M299.592,1046.585a12.644,12.644,0,0,0-17.884,0l2.555,2.555a9.032,9.032,0,0,1,12.775,0Z" transform="translate(-276.199 -995.912)"/>
            <path id="Trazado_209291" data-name="Trazado 209291" d="M294.421,1062.527l2.556,2.555a1.842,1.842,0,0,1,2.553,0l2.556-2.555A5.552,5.552,0,0,0,294.421,1062.527Z" transform="translate(-283.803 -1006.746)"/>
            <path id="Trazado_209292" data-name="Trazado 209292" d="M503.88,1030.733a19.9,19.9,0,0,0-28.1,0l2.555,2.555a16.275,16.275,0,0,1,22.994,0Z" transform="translate(-392.281 -985.17)"/>
            <path id="Trazado_209293" data-name="Trazado 209293" d="M506.379,1046.585a12.644,12.644,0,0,0-17.884,0l2.554,2.555a9.032,9.032,0,0,1,12.775,0Z" transform="translate(-399.888 -995.912)"/>
            <path id="Trazado_209294" data-name="Trazado 209294" d="M501.207,1062.527l2.556,2.555a1.843,1.843,0,0,1,2.553,0l2.556-2.555A5.552,5.552,0,0,0,501.207,1062.527Z" transform="translate(-407.492 -1006.746)"/>
            <path id="Trazado_209295" data-name="Trazado 209295" d="M487.512,926h-25.29a5.426,5.426,0,0,0-5.419,5.419v18.065a5.426,5.426,0,0,0,5.419,5.419h5.419v3.613h-3.613v3.613h21.677v-3.613h-3.613V954.9h5.419a5.426,5.426,0,0,0,5.419-5.419V931.419A5.426,5.426,0,0,0,487.512,926Zm-25.29,3.613h25.29a1.808,1.808,0,0,1,1.807,1.806v12.645h-28.9V931.419A1.808,1.808,0,0,1,462.221,929.613Zm16.258,28.9h-7.226V954.9h7.226Zm9.032-7.226h-25.29a1.808,1.808,0,0,1-1.806-1.806v-1.806h28.9v1.806A1.809,1.809,0,0,1,487.512,951.291Z" transform="translate(-380.931 -926)"/>
            <path id="Trazado_209296" data-name="Trazado 209296" d="M273.417,962.129h14.452a5.426,5.426,0,0,0,5.419-5.419v-25.29A5.426,5.426,0,0,0,287.869,926H273.417A5.426,5.426,0,0,0,268,931.419v25.29A5.426,5.426,0,0,0,273.417,962.129Zm14.452-3.613H273.417a1.809,1.809,0,0,1-1.807-1.807V954.9h18.065v1.806A1.809,1.809,0,0,1,287.869,958.517Zm-16.258-7.226V936.839h18.065v14.451Zm1.807-21.677h14.452a1.808,1.808,0,0,1,1.806,1.806v1.807H271.611v-1.807A1.808,1.808,0,0,1,273.417,929.613Z" transform="translate(-267.998 -926)"/>
            <path id="Trazado_209297" data-name="Trazado 209297" d="M492.89,1114.805H471.212a5.426,5.426,0,0,0-5.419,5.419v3.613a5.337,5.337,0,0,1,0,7.226v3.613a5.337,5.337,0,0,1,0,7.226v3.613a5.426,5.426,0,0,0,5.419,5.419H492.89a5.426,5.426,0,0,0,5.419-5.419V1141.9a5.337,5.337,0,0,1,0-7.226v-3.613a5.337,5.337,0,0,1,0-7.226v-3.613A5.426,5.426,0,0,0,492.89,1114.805Zm-23.484,5.419a1.808,1.808,0,0,1,1.806-1.806H492.89a1.808,1.808,0,0,1,1.807,1.806v3.613a1.808,1.808,0,0,1-1.807,1.806H471.212a1.808,1.808,0,0,1-1.806-1.806Zm25.29,10.839v3.613a1.808,1.808,0,0,1-1.807,1.806H471.212a1.808,1.808,0,0,1-1.806-1.806v-3.613a1.808,1.808,0,0,1,1.806-1.806H492.89A1.809,1.809,0,0,1,494.7,1131.063Zm0,14.452a1.808,1.808,0,0,1-1.807,1.806H471.212a1.808,1.808,0,0,1-1.806-1.806V1141.9a1.808,1.808,0,0,1,1.806-1.806H492.89a1.808,1.808,0,0,1,1.807,1.806Z" transform="translate(-386.309 -1038.934)"/>
            <path id="Trazado_209298" data-name="Trazado 209298" d="M307.74,1140.1v-19.871a5.426,5.426,0,0,0-5.419-5.419H277.03a5.426,5.426,0,0,0-5.419,5.419V1140.1a3.616,3.616,0,0,0-3.613,3.613,7.233,7.233,0,0,0,7.226,7.226h28.9a7.233,7.233,0,0,0,7.226-7.226A3.616,3.616,0,0,0,307.74,1140.1Zm-32.516-19.871a1.808,1.808,0,0,1,1.806-1.806h25.29a1.808,1.808,0,0,1,1.807,1.806V1140.1h-28.9Zm28.9,27.1h-28.9a3.617,3.617,0,0,1-3.613-3.613H307.74A3.616,3.616,0,0,1,304.127,1147.321Z" transform="translate(-267.998 -1038.934)"/>
            <path id="Trazado_209299" data-name="Trazado 209299" d="M294.97,1147.238h21.677v-14.451H294.97Zm3.613-10.839h14.452v7.226H298.583Z" transform="translate(-284.131 -1049.69)"/>
          </g>
        </g>
      </g>
    </g>
  </g>
</svg>
