<svg xmlns="http://www.w3.org/2000/svg" width="1286" height="448" viewBox="0 0 1286 448">
  <g id="Grupo_176845" data-name="Grupo 176845" transform="translate(-180.034 -3659)">
    <g id="Rectángulo_298426" data-name="Rectángulo 298426" transform="translate(180.034 3707)" fill="none" stroke="#00defc" stroke-width="3" stroke-dasharray="6 6">
      <rect width="230" height="399" rx="50" stroke="none"/>
      <rect x="1.5" y="1.5" width="227" height="396" rx="48.5" fill="none"/>
    </g>
    <path id="Rectángulo_298428" data-name="Rectángulo 298428" d="M20,0H66a50,50,0,0,1,50,50V349a50,50,0,0,1-50,50H20A20,20,0,0,1,0,379V20A20,20,0,0,1,20,0Z" transform="translate(294.034 3707)" fill="#00defc"/>
    <rect id="Rectángulo_298427" data-name="Rectángulo 298427" width="202" height="367" rx="40" transform="translate(196.034 3724)" fill="#f6f6f6"/>
    <path id="Polígono_46" data-name="Polígono 46" d="M21,0,42,18H0Z" transform="translate(428.034 3887.252) rotate(90)" fill="#00defc"/>
    <g id="Rectángulo_298429" data-name="Rectángulo 298429" transform="translate(428.034 3707)" fill="none" stroke="#ffb30b" stroke-width="3" stroke-dasharray="6 6">
      <rect width="230" height="399" rx="50" stroke="none"/>
      <rect x="1.5" y="1.5" width="227" height="396" rx="48.5" fill="none"/>
    </g>
    <path id="Rectángulo_298430" data-name="Rectángulo 298430" d="M20,0H66a50,50,0,0,1,50,50V349a50,50,0,0,1-50,50H20A20,20,0,0,1,0,379V20A20,20,0,0,1,20,0Z" transform="translate(542.034 3707)" fill="#ffb30b"/>
    <rect id="Rectángulo_298431" data-name="Rectángulo 298431" width="202" height="367" rx="40" transform="translate(444.034 3724)" fill="#f6f6f6"/>
    <path id="Polígono_47" data-name="Polígono 47" d="M21,0,42,18H0Z" transform="translate(676.034 3887.379) rotate(90)" fill="#ffb30b"/>
    <g id="Rectángulo_298429-2" data-name="Rectángulo 298429" transform="translate(676.034 3707)" fill="none" stroke="#b9ddfc" stroke-width="3" stroke-dasharray="6 6">
      <rect width="230" height="399" rx="50" stroke="none"/>
      <rect x="1.5" y="1.5" width="227" height="396" rx="48.5" fill="none"/>
    </g>
    <path id="Rectángulo_298430-2" data-name="Rectángulo 298430" d="M20,0H66a50,50,0,0,1,50,50V349a50,50,0,0,1-50,50H20A20,20,0,0,1,0,379V20A20,20,0,0,1,20,0Z" transform="translate(790.034 3707)" fill="#b9ddfc"/>
    <rect id="Rectángulo_298431-2" data-name="Rectángulo 298431" width="202" height="367" rx="40" transform="translate(692.034 3724)" fill="#f6f6f6"/>
    <path id="Polígono_47-2" data-name="Polígono 47" d="M21,0,42,18H0Z" transform="translate(924.034 3887.379) rotate(90)" fill="#b9ddfc"/>
    <g id="Rectángulo_298429-3" data-name="Rectángulo 298429" transform="translate(924.034 3707)" fill="none" stroke="#ffb30b" stroke-width="3" stroke-dasharray="6 6">
      <rect width="230" height="399" rx="50" stroke="none"/>
      <rect x="1.5" y="1.5" width="227" height="396" rx="48.5" fill="none"/>
    </g>
    <path id="Rectángulo_298430-3" data-name="Rectángulo 298430" d="M20,0H66a50,50,0,0,1,50,50V349a50,50,0,0,1-50,50H20A20,20,0,0,1,0,379V20A20,20,0,0,1,20,0Z" transform="translate(1038.034 3707)" fill="#ffb30b"/>
    <rect id="Rectángulo_298431-3" data-name="Rectángulo 298431" width="202" height="367" rx="40" transform="translate(940.034 3724)" fill="#f6f6f6"/>
    <path id="Polígono_47-3" data-name="Polígono 47" d="M21,0,42,18H0Z" transform="translate(1172.034 3887.379) rotate(90)" fill="#ffb30b"/>
    <g id="Rectángulo_298429-4" data-name="Rectángulo 298429" transform="translate(1172.034 3708)" fill="none" stroke="#00defc" stroke-width="3" stroke-dasharray="6 6">
      <rect width="230" height="399" rx="50" stroke="none"/>
      <rect x="1.5" y="1.5" width="227" height="396" rx="48.5" fill="none"/>
    </g>
    <path id="Rectángulo_298430-4" data-name="Rectángulo 298430" d="M20,0H66a50,50,0,0,1,50,50V349a50,50,0,0,1-50,50H20A20,20,0,0,1,0,379V20A20,20,0,0,1,20,0Z" transform="translate(1286.034 3708)" fill="#00defc"/>
    <rect id="Rectángulo_298431-4" data-name="Rectángulo 298431" width="202" height="367" rx="40" transform="translate(1188.034 3725)" fill="#f6f6f6"/>
    <path id="Polígono_47-4" data-name="Polígono 47" d="M21,0,42,18H0Z" transform="translate(1420.034 3888.379) rotate(90)" fill="#00defc"/>
    <text id="Un_proceso_que_se_ejecuta_en_un_entorno_de_almacenamiento_de_datos_centrado_en_la_aplicación_de_extracción_transformación_y_carga_también_conocido_como_flujos_de_trabajo_de_extracción_transformación_y_carga_ETL_." data-name="Un proceso que se ejecuta en un entorno de
almacenamiento de datos centrado en la aplicación de extracción, transformación y carga (también conocido como flujos de trabajo de extracción, transformación y carga (ETL)." transform="translate(291.034 3779)" fill="#12263f" font-size="16" font-family="Roboto-Regular, Roboto"><tspan x="-65.895" y="17">Un proceso que se </tspan><tspan x="-87.531" y="41">ejecuta en un entorno de</tspan><tspan x="-70.281" y="65">almacenamiento de </tspan><tspan x="-72.402" y="89">datos centrado en la </tspan><tspan x="-87.66" y="113">aplicación de extracción, </tspan><tspan x="-82.402" y="137">transformación y carga </tspan><tspan x="-89.008" y="161">(también conocido como </tspan><tspan x="-67.82" y="185">flujos de trabajo de </tspan><tspan x="-38.582" y="209">extracción, </tspan><tspan x="-82.402" y="233">transformación y carga </tspan><tspan x="-21.324" y="257">(ETL).</tspan></text>
    <text id="El_proceso_de_extracción_se_centra_en_la_recuperación_de_datos_pero_Qué_tipo_de_datos_Los_datos_únicos_y_necesarios_se_almacenan_de_alguna_manera_desde_varias_fuentes_fuera_del_almacén_de_datos." data-name="El proceso de extracción se centra en la recuperación de datos, pero ¿Qué tipo de datos? Los datos únicos y necesarios se almacenan de alguna manera desde varias fuentes fuera del almacén de datos." transform="translate(539.034 3803)" fill="#12263f" font-size="16" font-family="Roboto-Regular, Roboto"><tspan x="-86.984" y="17">El proceso de extracción </tspan><tspan x="-51.605" y="41">se centra en la </tspan><tspan x="-80.645" y="65">recuperación de datos, </tspan><tspan x="-87.992" y="89">pero ¿Qué tipo de datos? </tspan><tspan x="-66.445" y="113">Los datos únicos y </tspan><tspan x="-90.477" y="137">necesarios se almacenan </tspan><tspan x="-87.191" y="161">de alguna manera desde </tspan><tspan x="-83.07" y="185">varias fuentes fuera del </tspan><tspan x="-65.398" y="209">almacén de datos.</tspan></text>
    <text id="El_siguiente_paso_es_la_conversión._Este_se_considera_el_paso_más_importante_y_se_realiza_con_mucho_cuidado_ya_que_la_confiabilidad_de_los_datos_debe_ser_máxima_durante_el_proceso_de_conversión._Se_limpia_y_transforma_para_poder_cargarlo_en_el_almacén." data-name="El siguiente paso es la conversión. Este se considera el paso más importante y se realiza con mucho cuidado ya que la confiabilidad de los datos debe ser máxima durante el proceso de conversión. Se limpia y transforma para poder cargarlo en el almacén." transform="translate(787.034 3767)" fill="#12263f" font-size="16" font-family="Roboto-Regular, Roboto"><tspan x="-79.004" y="17">El siguiente paso es la </tspan><tspan x="-68.98" y="41">conversión. Este se </tspan><tspan x="-80.02" y="65">considera el paso más </tspan><tspan x="-80.723" y="89">importante y se realiza </tspan><tspan x="-80.297" y="113">con mucho cuidado ya </tspan><tspan x="-79.813" y="137">que la confiabilidad de </tspan><tspan x="-65.203" y="161">los datos debe ser </tspan><tspan x="-65.863" y="185">máxima durante el </tspan><tspan x="-82.637" y="209">proceso de conversión. </tspan><tspan x="-79.852" y="233">Se limpia y transforma </tspan><tspan x="-88.301" y="257">para poder cargarlo en el </tspan><tspan x="-32.602" y="281">almacén.</tspan></text>
    <text id="Esto_se_debe_a_que_la_obtención_de_datos_de_diferentes_fuentes_a_menudo_da_como_resultado_diferentes_formas_de_datos_y_una_integración_deficiente_de_los_datos_en_el_almacén_de_datos." data-name="Esto se debe a que la obtención de datos de diferentes fuentes a menudo da como resultado diferentes formas de datos y una integración deficiente de los datos en el almacén de datos." transform="translate(1035.034 3803)" fill="#12263f" font-size="16" font-family="Roboto-Regular, Roboto"><tspan x="-75.352" y="17">Esto se debe a que la </tspan><tspan x="-78.949" y="41">obtención de datos de </tspan><tspan x="-70.934" y="65">diferentes fuentes a </tspan><tspan x="-62.297" y="89">menudo da como </tspan><tspan x="-71.246" y="113">resultado diferentes </tspan><tspan x="-79.254" y="137">formas de datos y una </tspan><tspan x="-87.227" y="161">integración deficiente de </tspan><tspan x="-83.965" y="185">los datos en el almacén </tspan><tspan x="-32.922" y="209">de datos.</tspan></text>
    <text id="El_último_paso_es_cargar._Cargar_es_simplemente_guardar_los_resultados_de_los_pasos_anteriores._En_otras_palabras_los_datos_extraídos_y_transformados_se_cargan_en_el_almacén_de_datos_para_nuevos_procesos_en_la_arquitectura_del_almacén_de_datos." data-name="El último paso es cargar. Cargar es simplemente guardar los resultados de los pasos anteriores. En otras palabras, los datos extraídos y transformados se cargan en el almacén de datos para nuevos procesos en la arquitectura del almacén de datos." transform="translate(1283.034 3779)" fill="#12263f" font-size="16" font-family="Roboto-Regular, Roboto"><tspan x="-87.199" y="17">El último paso es cargar. </tspan><tspan x="-82.398" y="41">Cargar es simplemente </tspan><tspan x="-90.434" y="65">guardar los resultados de </tspan><tspan x="-85.188" y="89">los pasos anteriores. En </tspan><tspan x="-87.078" y="113">otras palabras, los datos </tspan><tspan x="-38.66" y="137">extraídos y </tspan><tspan x="-89.488" y="161">transformados se cargan </tspan><tspan x="-82.086" y="185">en el almacén de datos </tspan><tspan x="-88.77" y="209">para nuevos procesos en </tspan><tspan x="-63.867" y="233">la arquitectura del </tspan><tspan x="-65.398" y="257">almacén de datos.</tspan></text>
    <circle id="Elipse_13891" data-name="Elipse 13891" cx="47" cy="47" r="47" transform="translate(250.034 3659)" fill="#00defc"/>
    <circle id="Elipse_13941" data-name="Elipse 13941" cx="47" cy="47" r="47" transform="translate(1242.034 3659)" fill="#00defc"/>
    <circle id="Elipse_13938" data-name="Elipse 13938" cx="47" cy="47" r="47" transform="translate(498.034 3659)" fill="#ffb30b"/>
    <circle id="Elipse_13940" data-name="Elipse 13940" cx="47" cy="47" r="47" transform="translate(994.034 3659)" fill="#ffb30b"/>
    <circle id="Elipse_13939" data-name="Elipse 13939" cx="47" cy="47" r="47" transform="translate(746.034 3659)" fill="#b9ddfc"/>
    <g id="procesamiento-por-lotes" transform="translate(515.034 3676)">
      <path id="Trazado_212766" data-name="Trazado 212766" d="M49.548,7A6.548,6.548,0,1,0,56.1,13.548,6.556,6.556,0,0,0,49.548,7Zm0,11.226a4.677,4.677,0,1,1,4.677-4.677A4.683,4.683,0,0,1,49.548,18.226Z" transform="translate(-2.71 -0.387)" fill="#12263f"/>
      <path id="Trazado_212767" data-name="Trazado 212767" d="M49.806,11a2.806,2.806,0,1,0,2.806,2.806A2.81,2.81,0,0,0,49.806,11Zm0,3.742a.935.935,0,1,1,.935-.935A.937.937,0,0,1,49.806,14.742Z" transform="translate(-2.968 -0.645)" fill="#12263f"/>
      <path id="Trazado_212768" data-name="Trazado 212768" d="M57.15,9.963a.959.959,0,0,1-.6-.556c-.048-.123-.1-.246-.151-.368a.963.963,0,0,1,.036-.817A2.869,2.869,0,0,0,55.9,4.892l-.66-.659A2.869,2.869,0,0,0,51.906,3.7a.955.955,0,0,1-.818.036c-.12-.052-.242-.1-.365-.151a.96.96,0,0,1-.558-.606A2.871,2.871,0,0,0,47.434,1H46.5a2.871,2.871,0,0,0-2.733,1.979.957.957,0,0,1-.558.6c-.123.048-.244.1-.366.151a.963.963,0,0,1-.817-.036,2.869,2.869,0,0,0-3.331.533l-.659.66a2.869,2.869,0,0,0-.533,3.331.962.962,0,0,1,.036.818c-.052.121-.1.243-.151.365a.958.958,0,0,1-.606.558A2.871,2.871,0,0,0,34.806,12.7v.932a2.871,2.871,0,0,0,1.979,2.733.959.959,0,0,1,.6.556c.048.123.1.246.151.368a.963.963,0,0,1-.036.817,2.869,2.869,0,0,0,.533,3.331l.659.66a2.871,2.871,0,0,0,3.331.533.959.959,0,0,1,.818-.036c.121.052.243.1.365.151a.958.958,0,0,1,.558.606,2.871,2.871,0,0,0,2.263,1.939v9.393H40.418v-.935a2.8,2.8,0,0,0-1.871-2.634V25.323H32.935V19.71H8.613V49.645h5.613v3.742h5.785a2.8,2.8,0,0,0,2.634,1.871H37.613a2.81,2.81,0,0,0,2.806-2.806v-.935h5.613v4.677a.936.936,0,0,1-.935.935H5.806a.936.936,0,0,1-.935-.935V38.419H3V56.194A2.81,2.81,0,0,0,5.806,59H45.1A2.81,2.81,0,0,0,47.9,56.194V51.516h7.484V34.677H47.9V25.283a2.871,2.871,0,0,0,2.263-1.94.959.959,0,0,1,.556-.6c.123-.048.246-.1.368-.151a.963.963,0,0,1,.817.036,2.871,2.871,0,0,0,3.331-.533l.66-.659A2.869,2.869,0,0,0,56.43,18.1a.962.962,0,0,1-.036-.818c.052-.121.1-.243.151-.365a.958.958,0,0,1,.606-.558,2.874,2.874,0,0,0,1.978-2.733V12.7A2.871,2.871,0,0,0,57.15,9.963ZM14.226,47.774H10.484V21.581H31.065v3.742H14.226Zm5.613-14.032V51.516H16.1V27.194H36.677v3.742H22.645A2.81,2.81,0,0,0,19.839,33.742Zm18.71,18.71a.936.936,0,0,1-.935.935H22.645a.936.936,0,0,1-.935-.935V47.774H38.548Zm0-6.548H21.71V40.29H38.548Zm0-7.484H21.71V33.742a.936.936,0,0,1,.935-.935H37.613a.936.936,0,0,1,.935.935Zm14.968-1.871v13.1h-13.1v-13.1Zm3.742-22.921a1,1,0,0,1-.692.955A2.822,2.822,0,0,0,54.8,16.24c-.039.1-.08.2-.123.3a2.825,2.825,0,0,0,.081,2.406,1,1,0,0,1-.186,1.164l-.66.66a1,1,0,0,1-1.164.186,2.829,2.829,0,0,0-2.405-.081q-.147.063-.3.123a2.824,2.824,0,0,0-1.657,1.765,1,1,0,0,1-.955.691H46.5a1,1,0,0,1-.955-.692A2.822,2.822,0,0,0,43.889,21c-.1-.039-.2-.08-.3-.123a2.769,2.769,0,0,0-1.109-.231,2.882,2.882,0,0,0-1.3.312,1,1,0,0,1-1.164-.186l-.66-.66a1,1,0,0,1-.186-1.164,2.823,2.823,0,0,0,.081-2.405q-.063-.147-.123-.3a2.824,2.824,0,0,0-1.765-1.657,1,1,0,0,1-.691-.954V12.7a1,1,0,0,1,.691-.955,2.821,2.821,0,0,0,1.765-1.658c.039-.1.08-.2.123-.3a2.825,2.825,0,0,0-.081-2.406,1,1,0,0,1,.186-1.165l.659-.659a1,1,0,0,1,1.165-.186,2.819,2.819,0,0,0,2.405.081c.1-.043.2-.084.3-.123a2.83,2.83,0,0,0,1.658-1.765,1,1,0,0,1,.955-.692h.932a1,1,0,0,1,.955.692,2.825,2.825,0,0,0,1.657,1.764c.1.039.2.08.3.123a2.828,2.828,0,0,0,2.406-.081,1,1,0,0,1,1.165.186l.659.659a1,1,0,0,1,.186,1.165,2.823,2.823,0,0,0-.081,2.405q.063.147.123.3a2.824,2.824,0,0,0,1.765,1.657,1,1,0,0,1,.691.955Z" transform="translate(-0.129)" fill="#12263f"/>
      <path id="Trazado_212769" data-name="Trazado 212769" d="M3.806,30.613A2.806,2.806,0,1,0,1,27.806,2.81,2.81,0,0,0,3.806,30.613Zm0-3.742a.935.935,0,1,1-.935.935A.937.937,0,0,1,3.806,26.871Z" transform="translate(0 -1.548)" fill="#12263f"/>
      <path id="Trazado_212770" data-name="Trazado 212770" d="M6.613,35.806a2.806,2.806,0,1,0-2.806,2.806A2.81,2.81,0,0,0,6.613,35.806Zm-3.742,0a.935.935,0,1,1,.935.935A.936.936,0,0,1,2.871,35.806Z" transform="translate(0 -2.065)" fill="#12263f"/>
      <path id="Trazado_212771" data-name="Trazado 212771" d="M45,41h9.355v1.871H45Z" transform="translate(-2.839 -2.581)" fill="#12263f"/>
      <path id="Trazado_212772" data-name="Trazado 212772" d="M45,45h9.355v1.871H45Z" transform="translate(-2.839 -2.839)" fill="#12263f"/>
      <path id="Trazado_212773" data-name="Trazado 212773" d="M45,49h1.871v1.871H45Z" transform="translate(-2.839 -3.097)" fill="#12263f"/>
      <path id="Trazado_212774" data-name="Trazado 212774" d="M49,49h1.871v1.871H49Z" transform="translate(-3.097 -3.097)" fill="#12263f"/>
      <path id="Trazado_212775" data-name="Trazado 212775" d="M53,49h1.871v1.871H53Z" transform="translate(-3.355 -3.097)" fill="#12263f"/>
      <path id="Trazado_212776" data-name="Trazado 212776" d="M25,37h1.871v1.871H25Z" transform="translate(-1.548 -2.323)" fill="#12263f"/>
      <path id="Trazado_212777" data-name="Trazado 212777" d="M29,37h1.871v1.871H29Z" transform="translate(-1.806 -2.323)" fill="#12263f"/>
      <path id="Trazado_212778" data-name="Trazado 212778" d="M33,37h1.871v1.871H33Z" transform="translate(-2.065 -2.323)" fill="#12263f"/>
      <path id="Trazado_212779" data-name="Trazado 212779" d="M4.871,15.494a.937.937,0,0,1,.935-.935H28.738L24.02,17.507l.992,1.587,8.753-5.471L25.012,8.152,24.02,9.739l4.718,2.949H5.806A2.81,2.81,0,0,0,3,15.494v6.548H4.871Z" transform="translate(-0.129 -0.461)" fill="#12263f"/>
      <path id="Trazado_212780" data-name="Trazado 212780" d="M37,45h1.871v1.871H37Z" transform="translate(-2.323 -2.839)" fill="#12263f"/>
      <path id="Trazado_212781" data-name="Trazado 212781" d="M29,45h1.871v1.871H29Z" transform="translate(-1.806 -2.839)" fill="#12263f"/>
      <path id="Trazado_212782" data-name="Trazado 212782" d="M33,45h1.871v1.871H33Z" transform="translate(-2.065 -2.839)" fill="#12263f"/>
      <path id="Trazado_212783" data-name="Trazado 212783" d="M25,53h1.871v1.871H25Z" transform="translate(-1.548 -3.355)" fill="#12263f"/>
      <path id="Trazado_212784" data-name="Trazado 212784" d="M33,53h1.871v1.871H33Z" transform="translate(-2.065 -3.355)" fill="#12263f"/>
      <path id="Trazado_212785" data-name="Trazado 212785" d="M29,53h1.871v1.871H29Z" transform="translate(-1.806 -3.355)" fill="#12263f"/>
    </g>
    <g id="proceso-de-trabajo" transform="translate(268.034 3677)">
      <path id="Trazado_212786" data-name="Trazado 212786" d="M209.535,203.347a5.968,5.968,0,0,0-5.6,8.013.851.851,0,1,0,1.6-.585,4.262,4.262,0,1,1,1.808,2.189.851.851,0,0,0-.879,1.458,5.965,5.965,0,1,0,3.075-11.076Z" transform="translate(-180.51 -180.312)" fill="#12263f"/>
      <path id="Trazado_212787" data-name="Trazado 212787" d="M161.812,146.943l-1.579-.237a10.844,10.844,0,0,0-1.262-3.045l.949-1.285a1.615,1.615,0,0,0-.158-2.113l-1.118-1.118a1.614,1.614,0,0,0-2.113-.158l-1.285.949a10.84,10.84,0,0,0-3.045-1.262l-.237-1.579a1.614,1.614,0,0,0-1.606-1.382h-1.581a1.614,1.614,0,0,0-1.606,1.382l-.237,1.579a10.84,10.84,0,0,0-3.045,1.262l-1.285-.949a1.614,1.614,0,0,0-2.113.158l-1.118,1.118a1.614,1.614,0,0,0-.158,2.113l.949,1.285a10.833,10.833,0,0,0-1.262,3.045l-1.578.237a1.614,1.614,0,0,0-1.383,1.606v1.581a1.614,1.614,0,0,0,1.382,1.606l1.579.237a10.841,10.841,0,0,0,1.262,3.045l-.949,1.284a1.614,1.614,0,0,0,.158,2.113l1.118,1.118a1.614,1.614,0,0,0,2.113.158l1.285-.949A10.839,10.839,0,0,0,146.935,160l.237,1.579a1.614,1.614,0,0,0,1.606,1.382h1.581a1.614,1.614,0,0,0,1.606-1.383L152.2,160a10.839,10.839,0,0,0,3.045-1.262l1.285.949a1.614,1.614,0,0,0,2.113-.158l1.118-1.118a1.615,1.615,0,0,0,.158-2.113l-.949-1.284a10.837,10.837,0,0,0,1.262-3.045l1.578-.237a1.614,1.614,0,0,0,1.383-1.606v-1.581a1.614,1.614,0,0,0-1.382-1.606Zm-.32,3.119-2.093.315a.851.851,0,0,0-.71.685,9.178,9.178,0,0,1-1.454,3.509.851.851,0,0,0,.018.986l1.258,1.7-1.022,1.022-1.7-1.258a.852.852,0,0,0-.986-.018,9.178,9.178,0,0,1-3.509,1.454.851.851,0,0,0-.685.71l-.314,2.093h-1.445l-.315-2.093a.851.851,0,0,0-.685-.71,9.179,9.179,0,0,1-3.509-1.454.851.851,0,0,0-.986.018l-1.7,1.258-1.022-1.022,1.258-1.7a.851.851,0,0,0,.018-.986,9.177,9.177,0,0,1-1.454-3.509.851.851,0,0,0-.71-.685l-2.093-.315v-1.445l2.093-.315a.851.851,0,0,0,.71-.685,9.177,9.177,0,0,1,1.454-3.509.851.851,0,0,0-.018-.986l-1.258-1.7,1.022-1.022,1.7,1.258a.851.851,0,0,0,.986.018,9.181,9.181,0,0,1,3.509-1.454.851.851,0,0,0,.685-.71l.315-2.093h1.445l.314,2.093a.852.852,0,0,0,.685.71,9.176,9.176,0,0,1,3.509,1.454.851.851,0,0,0,.986-.018l1.7-1.258,1.022,1.022-1.258,1.7a.851.851,0,0,0-.018.986,9.178,9.178,0,0,1,1.454,3.509.851.851,0,0,0,.71.685l2.093.315Z" transform="translate(-120.543 -120.339)" fill="#12263f"/>
      <path id="Trazado_212788" data-name="Trazado 212788" d="M57.932,28.693a.851.851,0,0,0-.783-.518H55.686A26.674,26.674,0,0,0,31.953,2.487L29.616.236a.857.857,0,0,0-1.442.613V2.338a26.485,26.485,0,0,0-14.5,4.846.851.851,0,1,0,.981,1.392A24.809,24.809,0,0,1,29.025,4.028a.851.851,0,0,0,.851-.851V2.851l4.454,4.29-4.455,3.6V9.9a.851.851,0,0,0-.851-.851A19.955,19.955,0,0,0,9.683,24.105L7.859,21.847a.857.857,0,0,0-1.275-.055l-2,2.076a24.94,24.94,0,0,1,7.508-13.221A.851.851,0,0,0,10.937,9.4,26.621,26.621,0,0,0,2.519,26.013L.236,28.383a.857.857,0,0,0,.613,1.442H2.364A26.675,26.675,0,0,0,26.039,55.507l2.343,2.257a.857.857,0,0,0,1.442-.613V55.663A26.469,26.469,0,0,0,44.56,50.686a.851.851,0,0,0-.993-1.383,24.8,24.8,0,0,1-14.552,4.669h-.042a.851.851,0,0,0-.851.851v.326l-4.454-4.29,4.454-3.6V48.1a.851.851,0,0,0,.846.851h.058A19.955,19.955,0,0,0,48.354,33.944l1.785,2.209a.857.857,0,0,0,1.275.055l2.065-2.145a24.955,24.955,0,0,1-7.366,13.145.851.851,0,0,0,1.165,1.241,26.637,26.637,0,0,0,8.259-16.524l2.224-2.31a.851.851,0,0,0,.17-.923ZM21.846,50.141a.857.857,0,0,0-.055,1.275l2.1,2.026A24.979,24.979,0,0,1,4.054,29v-.029a.851.851,0,0,0-.851-.851H2.851l4.29-4.455,3.6,4.455H9.927a.849.849,0,0,0-.851.848V29a19.956,19.956,0,0,0,15.01,19.331ZM40.93,42.828a18.238,18.238,0,0,1-11.106,4.4V45.477a.857.857,0,0,0-1.386-.662l-2.653,2.144A18.252,18.252,0,0,1,10.8,29.825h1.725a.857.857,0,0,0,.662-1.386l-2.126-2.632A18.251,18.251,0,0,1,28.174,10.773v1.75a.857.857,0,0,0,1.386.662l2.663-2.152a18.252,18.252,0,0,1,15.03,17.142H45.476a.857.857,0,0,0-.662,1.386l2.169,2.685A18.256,18.256,0,0,1,40.93,42.828Zm9.927-8.5-3.6-4.455h.865a.849.849,0,0,0,.851-.848V29A19.956,19.956,0,0,0,33.924,9.658l2.227-1.8a.857.857,0,0,0,.055-1.275L34.089,4.544A24.978,24.978,0,0,1,54,29v.029a.851.851,0,0,0,.851.851h.3Z" transform="translate(0)" fill="#12263f"/>
    </g>
    <g id="servidor" transform="translate(708.534 3621.5)">
      <path id="Trazado_212806" data-name="Trazado 212806" d="M104.495,58.025A71.668,71.668,0,0,0,84.5,55.5a71.668,71.668,0,0,0-19.995,2.525c-5.891,1.792-9.005,4.262-9.005,7.147,0,.207.051,38.679.051,38.684,0,2.884,3.063,5.327,8.956,7.118A71.592,71.592,0,0,0,84.5,113.5a71.668,71.668,0,0,0,19.995-2.525c5.891-1.791,9.005-4.262,9.005-7.147V65.172C113.5,62.288,110.386,59.817,104.495,58.025Zm-.754,50.6q-1.133.345-2.423.658V98.925q1.258-.284,2.423-.615ZM101.317,96.4V86.039q1.258-.284,2.423-.615V95.738C102.986,95.968,102.178,96.19,101.317,96.4Zm2.424-13.542q-1.133.345-2.423.658V73.155q1.258-.284,2.423-.615Zm-4.883,1.183A77.816,77.816,0,0,1,84.5,85.271c-15.789,0-25.725-3.873-26.492-6.849v-9.1a21.233,21.233,0,0,0,6.5,3A71.661,71.661,0,0,0,84.5,74.844a82.123,82.123,0,0,0,14.358-1.193Zm-40.85-1.831a21.233,21.233,0,0,0,6.5,3A71.66,71.66,0,0,0,84.5,87.73a82.122,82.122,0,0,0,14.358-1.193V96.923A77.816,77.816,0,0,1,84.5,98.157c-15.789,0-25.725-3.873-26.492-6.849Zm48.192,2.43a18.344,18.344,0,0,0,4.841-2.469v8.775c0,1.235-1.7,2.671-4.841,3.936Zm4.841-6.578c0,1.235-1.7,2.671-4.841,3.936V71.753a18.344,18.344,0,0,0,4.841-2.47ZM84.5,57.959c16.444,0,26.541,4.2,26.541,7.213s-10.1,7.213-26.541,7.213-26.541-4.2-26.541-7.213S68.056,57.959,84.5,57.959ZM57.983,104.078a1.194,1.194,0,0,0,.026-.25V95.092a21.268,21.268,0,0,0,6.5,3A71.66,71.66,0,0,0,84.5,100.616,82.122,82.122,0,0,0,98.86,99.422v10.386A77.816,77.816,0,0,1,84.5,111.043C68.506,111.041,58.519,107.066,57.983,104.078Zm48.217,3.685V97.522a18.344,18.344,0,0,0,4.841-2.47v8.777C111.041,105.063,109.34,106.5,106.2,107.764Z" fill="#12263f"/>
      <path id="Trazado_212807" data-name="Trazado 212807" d="M111.493,192.428c-7.918-.233-15.061-1.494-19.6-3.461a1.23,1.23,0,0,0-.978,2.256c4.812,2.086,12.286,3.421,20.5,3.662h.036a1.229,1.229,0,0,0,.036-2.457Z" transform="translate(-29.66 -114.076)" fill="#12263f"/>
      <path id="Trazado_212808" data-name="Trazado 212808" d="M90.923,283.4c4.812,2.086,12.286,3.421,20.5,3.662h.036a1.23,1.23,0,0,0,.035-2.459c-7.918-.233-15.061-1.494-19.6-3.461a1.23,1.23,0,1,0-.976,2.258Z" transform="translate(-29.665 -192.914)" fill="#12263f"/>
      <path id="Trazado_212809" data-name="Trazado 212809" d="M111.493,376.788c-7.918-.233-15.061-1.494-19.6-3.461a1.23,1.23,0,0,0-.978,2.256c4.812,2.086,12.286,3.421,20.5,3.662h.036a1.229,1.229,0,0,0,.036-2.457Z" transform="translate(-29.66 -271.77)" fill="#12263f"/>
    </g>
    <path id="archivo-de-base-de-datos" d="M33.21,8.922V28.094h2.751a.906.906,0,0,1,0,1.813H33.21V49.078h2.751a.906.906,0,0,1,0,1.813H32.3a.906.906,0,0,1-.906-.906V29.906H28.854a.906.906,0,0,1,0-1.812H31.4V8.016A.906.906,0,0,1,32.3,7.11h3.658a.906.906,0,0,1,0,1.813ZM58,48.424v7.2A2.374,2.374,0,0,1,55.629,58H41.652a2.374,2.374,0,0,1-2.371-2.371V44.34a2.374,2.374,0,0,1,2.371-2.371H45.94a2.545,2.545,0,0,1,2.225,1.284l1.619,2.8h5.844A2.374,2.374,0,0,1,58,48.424ZM41.093,44.34v1.713h6.6L46.6,44.159a.723.723,0,0,0-.656-.379H41.652a.559.559,0,0,0-.559.559Zm15.094,4.085a.559.559,0,0,0-.559-.559H41.093v7.763a.559.559,0,0,0,.559.559H55.629a.559.559,0,0,0,.559-.559v-7.2ZM58,6.456v7.2a2.374,2.374,0,0,1-2.371,2.371H41.652a2.374,2.374,0,0,1-2.371-2.371V2.371A2.374,2.374,0,0,1,41.652,0H45.94a2.545,2.545,0,0,1,2.225,1.284l1.619,2.8h5.844A2.374,2.374,0,0,1,58,6.456ZM41.093,2.371V4.085h6.6L46.6,2.191a.723.723,0,0,0-.656-.379H41.652a.559.559,0,0,0-.559.559ZM56.187,6.456a.559.559,0,0,0-.559-.559H41.093V13.66a.559.559,0,0,0,.559.559H55.629a.559.559,0,0,0,.559-.559v-7.2ZM58,27.44v7.2a2.374,2.374,0,0,1-2.371,2.371H41.652a2.374,2.374,0,0,1-2.371-2.371V23.355a2.374,2.374,0,0,1,2.371-2.371H45.94a2.545,2.545,0,0,1,2.225,1.284l1.619,2.8h5.844A2.374,2.374,0,0,1,58,27.44ZM41.093,23.355v1.713h6.6L46.6,23.175a.723.723,0,0,0-.656-.379H41.652A.559.559,0,0,0,41.093,23.355ZM56.187,27.44a.559.559,0,0,0-.559-.559H41.093v7.763a.559.559,0,0,0,.559.559H55.629a.559.559,0,0,0,.559-.559v-7.2ZM25.535,15.162V42.9c0,1.636-1.469,2.88-4.367,3.7a32.338,32.338,0,0,1-8.4.976,32.343,32.343,0,0,1-8.4-.976C1.469,45.784,0,44.54,0,42.9V15.162H0c0-3.112,6.423-4.741,12.768-4.741S25.535,12.05,25.535,15.162Zm-23.723,0h0c0,.64,1.6,1.668,4.634,2.321a34.927,34.927,0,0,0,6.321.54,34.932,34.932,0,0,0,6.321-.54c3.03-.652,4.633-1.681,4.634-2.321h0c0-.994-3.867-2.928-10.955-2.928S1.813,14.168,1.812,15.162ZM23.723,42.9V38.629a10.668,10.668,0,0,1-2.554,1.038,32.338,32.338,0,0,1-8.4.976,32.343,32.343,0,0,1-8.4-.976,10.674,10.674,0,0,1-2.554-1.038V42.9c0,.674,1.167,1.423,3.047,1.954a30.966,30.966,0,0,0,7.909.908,30.968,30.968,0,0,0,7.908-.908c1.879-.531,3.046-1.279,3.046-1.954Zm0-6.936V31.694a10.669,10.669,0,0,1-2.554,1.038,32.336,32.336,0,0,1-8.4.976,32.343,32.343,0,0,1-8.4-.976,10.673,10.673,0,0,1-2.554-1.038v4.275c0,.674,1.167,1.423,3.047,1.954a30.966,30.966,0,0,0,7.909.908,30.969,30.969,0,0,0,7.908-.908C22.555,37.392,23.723,36.643,23.723,35.969Zm0-6.936V24.758A10.669,10.669,0,0,1,21.168,25.8a32.336,32.336,0,0,1-8.4.976,32.343,32.343,0,0,1-8.4-.976,10.669,10.669,0,0,1-2.554-1.038v4.275c0,.674,1.167,1.423,3.047,1.954a30.971,30.971,0,0,0,7.909.908,30.97,30.97,0,0,0,7.908-.908C22.555,30.456,23.723,29.708,23.723,29.033Zm0-6.936V17.822a10.669,10.669,0,0,1-2.554,1.038c-.608.172-1.274.321-1.983.45a33.346,33.346,0,0,1-6.418.594,33.34,33.34,0,0,1-6.418-.594c-.709-.128-1.375-.278-1.983-.45a10.669,10.669,0,0,1-2.554-1.038V22.1c0,.674,1.167,1.423,3.047,1.954a30.971,30.971,0,0,0,7.909.908,30.97,30.97,0,0,0,7.908-.908c1.879-.531,3.046-1.279,3.046-1.954Z" transform="translate(1260.034 3677)" fill="#12263f"/>
    <g id="recopilacion-de-datos" transform="translate(1010.034 3675)">
      <path id="Trazado_212789" data-name="Trazado 212789" d="M27,12h9.667v1.933H27Z" transform="translate(-0.833 -0.333)" fill="#12263f"/>
      <path id="Trazado_212790" data-name="Trazado 212790" d="M27,16h9.667v1.933H27Z" transform="translate(-0.833 -0.467)" fill="#12263f"/>
      <path id="Trazado_212791" data-name="Trazado 212791" d="M55.333,52.267V44.533a.967.967,0,0,0-.7-.928l-22.5-6.564V25.2H38.9a.966.966,0,0,0,.967-.967V8.767a.964.964,0,0,0-.283-.683l-5.8-5.8A.962.962,0,0,0,33.1,2H23.433a.966.966,0,0,0-.967.967V24.233a.966.966,0,0,0,.967.967H30.2V37.042L7.7,43.605a.967.967,0,0,0-.7.928v7.733a.967.967,0,0,0,.7.928l23.2,6.767a.967.967,0,0,0,.541,0l23.2-6.767A.967.967,0,0,0,55.333,52.267ZM34.067,5.3l2.5,2.5h-2.5ZM24.4,3.933h7.733V8.767a.966.966,0,0,0,.967.967h4.833V23.267H24.4Zm5.8,35.122v5.078l-2.217-2.217-1.367,1.367,3.867,3.867a.966.966,0,0,0,1.367,0l3.867-3.867L34.35,41.917l-2.217,2.217V39.055l18.781,5.478L31.167,50.293,11.419,44.533ZM8.933,45.822l21.267,6.2v5.72l-21.267-6.2Zm23.2,11.923v-5.72l21.267-6.2v5.72Z" transform="translate(-0.167 0)" fill="#12263f"/>
      <path id="Trazado_212792" data-name="Trazado 212792" d="M27,8h3.867V9.933H27Z" transform="translate(-0.833 -0.2)" fill="#12263f"/>
      <path id="Trazado_212793" data-name="Trazado 212793" d="M2.967,25.2H9.733a4.839,4.839,0,0,0,4.833,4.833h2.9a2.9,2.9,0,0,1,2.9,2.9v1.533L18.15,32.25l-1.367,1.367,3.867,3.867a.966.966,0,0,0,1.367,0l3.867-3.867L24.517,32.25,22.3,34.466V32.933A4.839,4.839,0,0,0,17.467,28.1h-2.9a2.9,2.9,0,0,1-2.9-2.9h6.767a.966.966,0,0,0,.967-.967V8.767a.964.964,0,0,0-.283-.683l-5.8-5.8A.962.962,0,0,0,12.633,2H2.967A.966.966,0,0,0,2,2.967V24.233a.966.966,0,0,0,.967.967ZM13.6,5.3l2.5,2.5H13.6ZM3.933,3.933h7.733V8.767a.966.966,0,0,0,.967.967h4.833V23.267H3.933Z" transform="translate(0 0)" fill="#12263f"/>
      <path id="Trazado_212794" data-name="Trazado 212794" d="M6,12h9.667v1.933H6Z" transform="translate(-0.133 -0.333)" fill="#12263f"/>
      <path id="Trazado_212795" data-name="Trazado 212795" d="M6,16h9.667v1.933H6Z" transform="translate(-0.133 -0.467)" fill="#12263f"/>
      <path id="Trazado_212796" data-name="Trazado 212796" d="M6,20h9.667v1.933H6Z" transform="translate(-0.133 -0.6)" fill="#12263f"/>
      <path id="Trazado_212797" data-name="Trazado 212797" d="M6,8H9.867V9.933H6Z" transform="translate(-0.133 -0.2)" fill="#12263f"/>
      <path id="Trazado_212798" data-name="Trazado 212798" d="M61.176,24.233V8.767a.964.964,0,0,0-.283-.683l-5.8-5.8A.962.962,0,0,0,54.41,2H44.743a.966.966,0,0,0-.967.967V24.233a.966.966,0,0,0,.967.967H51.51a2.9,2.9,0,0,1-2.9,2.9h-2.9a4.839,4.839,0,0,0-4.833,4.833v1.533L38.66,32.25l-1.367,1.367,3.867,3.867a.966.966,0,0,0,1.367,0l3.867-3.867L45.026,32.25,42.81,34.466V32.933a2.9,2.9,0,0,1,2.9-2.9h2.9A4.839,4.839,0,0,0,53.443,25.2H60.21A.966.966,0,0,0,61.176,24.233ZM55.376,5.3l2.5,2.5h-2.5ZM45.71,23.267V3.933h7.733V8.767a.966.966,0,0,0,.967.967h4.833V23.267Z" transform="translate(-1.176 0)" fill="#12263f"/>
      <path id="Trazado_212799" data-name="Trazado 212799" d="M48,12h9.667v1.933H48Z" transform="translate(-1.533 -0.333)" fill="#12263f"/>
      <path id="Trazado_212800" data-name="Trazado 212800" d="M48,16h9.667v1.933H48Z" transform="translate(-1.533 -0.467)" fill="#12263f"/>
      <path id="Trazado_212801" data-name="Trazado 212801" d="M48,20h9.667v1.933H48Z" transform="translate(-1.533 -0.6)" fill="#12263f"/>
      <path id="Trazado_212802" data-name="Trazado 212802" d="M48,8h3.867V9.933H48Z" transform="translate(-1.533 -0.2)" fill="#12263f"/>
      <path id="Trazado_212803" data-name="Trazado 212803" d="M27,20h1.933v1.933H27Z" transform="translate(-0.833 -0.6)" fill="#12263f"/>
      <path id="Trazado_212804" data-name="Trazado 212804" d="M31,20h1.933v1.933H31Z" transform="translate(-0.967 -0.6)" fill="#12263f"/>
      <path id="Trazado_212805" data-name="Trazado 212805" d="M35,20h1.933v1.933H35Z" transform="translate(-1.1 -0.6)" fill="#12263f"/>
    </g>
  </g>
</svg>
