<svg xmlns="http://www.w3.org/2000/svg" width="120" height="120" viewBox="0 0 120 120">
  <g id="Grupo_176828" data-name="Grupo 176828" transform="translate(-285.034 -867)">
    <g id="Grupo_176791" data-name="Grupo 176791">
      <rect id="Figura9" width="120" height="120" transform="translate(285.034 867)" fill="none"/>
      <g id="Grupo_176786" data-name="Grupo 176786" transform="translate(102.923 -169.042)">
        <g id="Grupo_175820" data-name="Grupo 175820" transform="translate(187.919 1041.849)">
          <g id="Grupo_175798" data-name="Grupo 175798" transform="translate(0 59.612)">
            <g id="Grupo_175797" data-name="Grupo 175797">
              <path id="Trazado_209196" data-name="Trazado 209196" d="M224.677,1194.464l7.226-9.032,7.641,1.517a14.062,14.062,0,0,0,2.872.289h2.041a15.331,15.331,0,0,0,3.992-.542,37.456,37.456,0,0,1,4.371,10.405,21.573,21.573,0,0,1-6.431.975H208a6.815,6.815,0,0,0-6.81,6.81,6.384,6.384,0,0,0,.054.831l2.2,17.631-.163.018h-2.059a10.855,10.855,0,0,1-10.838-10.839,27.052,27.052,0,0,1,25.308-26.988l1.789-.109Z" transform="translate(-190.391 -1185.432)" fill="#00defc"/>
            </g>
          </g>
          <g id="Grupo_175800" data-name="Grupo 175800" transform="translate(97.547 0)">
            <g id="Grupo_175799" data-name="Grupo 175799">
              <circle id="Elipse_13292" data-name="Elipse 13292" cx="3.613" cy="3.613" r="3.613" fill="#ffb30b"/>
            </g>
          </g>
          <g id="Grupo_175801" data-name="Grupo 175801" transform="translate(97.547 46.967)">
            <path id="Trazado_209197" data-name="Trazado 209197" d="M424.918,1155.5a3.613,3.613,0,1,1-3.613,3.613,3.5,3.5,0,0,1,.849-2.312A3.582,3.582,0,0,1,424.918,1155.5Z" transform="translate(-421.305 -1155.499)" fill="#ffb30b"/>
          </g>
          <g id="Grupo_175802" data-name="Grupo 175802" transform="translate(101.16 28.903)">
            <circle id="Elipse_13293" data-name="Elipse 13293" cx="3.613" cy="3.613" r="3.613" fill="#ffb30b"/>
          </g>
          <g id="Grupo_175804" data-name="Grupo 175804" transform="translate(12.645 7.226)">
            <g id="Grupo_175803" data-name="Grupo 175803">
              <path id="Trazado_209198" data-name="Trazado 209198" d="M256.453,1081.294H242.381a7.21,7.21,0,0,1-4.01-1.21l-.379-.253a7.1,7.1,0,0,1-2.908-3.956h-.307a7.224,7.224,0,0,0-7.226,7.226v3.613h-1.806a5.4,5.4,0,0,0-4.137,1.914,35.424,35.424,0,0,1-1.283-9.429,11.3,11.3,0,0,1,6.2-10.044l1.029-.505a13.339,13.339,0,0,1,4.823-5.275,13.085,13.085,0,0,1,6.864-1.951H245.9a17.759,17.759,0,0,1,17.215,13.331,18.03,18.03,0,0,1,.56,4.444,35.424,35.424,0,0,1-1.283,9.429,5.4,5.4,0,0,0-4.137-1.914h-1.806Z" transform="translate(-220.324 -1061.423)" fill="#042c58"/>
            </g>
          </g>
          <g id="Grupo_175806" data-name="Grupo 175806" transform="translate(13.512 101.16)">
            <g id="Grupo_175805" data-name="Grupo 175805">
              <path id="Trazado_209199" data-name="Trazado 209199" d="M263.762,1285.049a6.776,6.776,0,0,1-6.738,5.961H229.3a6.794,6.794,0,0,1-6.756-5.961l-.163-1.264h41.548Z" transform="translate(-222.377 -1283.785)" fill="#6f8497"/>
            </g>
          </g>
          <g id="Grupo_175808" data-name="Grupo 175808" transform="translate(10.803 72.257)">
            <g id="Grupo_175807" data-name="Grupo 175807">
              <path id="Trazado_209200" data-name="Trazado 209200" d="M262.93,1222.176a6.382,6.382,0,0,1-.054.831l-2.655,21.262H218.673l-.452-3.631-2.2-17.631a6.384,6.384,0,0,1-.054-.831,6.815,6.815,0,0,1,6.81-6.81h33.365a6.771,6.771,0,0,1,4.805,1.987,6.845,6.845,0,0,1,1.987,4.823Z" transform="translate(-215.963 -1215.366)" fill="#94b0c9"/>
            </g>
          </g>
          <g id="Grupo_175809" data-name="Grupo 175809" transform="translate(30.709 79.483)">
            <circle id="Elipse_13294" data-name="Elipse 13294" cx="3.613" cy="3.613" r="3.613" fill="#69d6f4"/>
          </g>
          <g id="Grupo_175810" data-name="Grupo 175810" transform="translate(58.059 37.935)">
            <path id="Trazado_209201" data-name="Trazado 209201" d="M347.446,1141.344v5.42a21.663,21.663,0,0,1-15.246,20.7,37.459,37.459,0,0,0-4.371-10.405,14.738,14.738,0,0,0,10.585-12.1l-3.721-2.475a3.812,3.812,0,0,1-.578-5.871l1.752-1.752a2.672,2.672,0,0,1,.813-.542,2.7,2.7,0,0,1,.994-.2,2.218,2.218,0,0,1,.7.109c1.355.722,1.842,1.517,1.842,2.439v1.066a3.624,3.624,0,0,0,3.613,3.613Z" transform="translate(-327.828 -1134.118)" fill="#f0d0b4"/>
          </g>
          <g id="Grupo_175811" data-name="Grupo 175811" transform="translate(68.608 37.935)">
            <path id="Trazado_209202" data-name="Trazado 209202" d="M358.256,1134.118h3.613a3.639,3.639,0,0,1,3.613,3.613,3.624,3.624,0,0,1-3.613,3.613h-3.613a3.624,3.624,0,0,1-3.613-3.613v-1.066c0-.921-.488-1.716-1.842-2.439l.036-.109Z" transform="translate(-352.801 -1134.118)" fill="#f0d0b4"/>
          </g>
          <g id="Grupo_175813" data-name="Grupo 175813" transform="translate(59.612 0)">
            <g id="Grupo_175812" data-name="Grupo 175812">
              <circle id="Elipse_13295" data-name="Elipse 13295" cx="14.451" cy="14.451" r="14.451" fill="#b9ddfc"/>
            </g>
          </g>
          <g id="Grupo_175814" data-name="Grupo 175814" transform="translate(66.838 27.096)">
            <path id="Trazado_209203" data-name="Trazado 209203" d="M350.416,1119.3l-.036.109a2.215,2.215,0,0,0-.7-.109,2.7,2.7,0,0,0-.994.2l-.072-.2v-7.226a3.7,3.7,0,0,1,1.554-2.963,3.613,3.613,0,0,1,5.672,2.963v7.226Z" transform="translate(-348.61 -1108.461)" fill="#f0d0b4"/>
          </g>
          <g id="Grupo_175815" data-name="Grupo 175815" transform="translate(27.096 53.976)">
            <path id="Trazado_209204" data-name="Trazado 209204" d="M267.179,1172.308l1.77,5.419-7.226,9.032-7.189-9.032,1.409-5.636a10.987,10.987,0,0,0,2.2.217h7.226a9.66,9.66,0,0,0,1.788-.163Z" transform="translate(-254.534 -1172.091)" fill="#f0d0b4"/>
          </g>
          <g id="Grupo_175816" data-name="Grupo 175816" transform="translate(48.773 32.516)">
            <path id="Trazado_209205" data-name="Trazado 209205" d="M311.791,1123.2a5.424,5.424,0,0,1-4.137,8.924h-1.806V1121.29h1.806a5.4,5.4,0,0,1,4.137,1.915Z" transform="translate(-305.848 -1121.29)" fill="#f0d0b4"/>
          </g>
          <g id="Grupo_175817" data-name="Grupo 175817" transform="translate(12.645 32.516)">
            <path id="Trazado_209206" data-name="Trazado 209206" d="M227.55,1121.29v10.839h-1.806a5.419,5.419,0,1,1,0-10.839Z" transform="translate(-220.324 -1121.29)" fill="#f0d0b4"/>
          </g>
          <g id="Grupo_175818" data-name="Grupo 175818" transform="translate(19.871 21.677)">
            <path id="Trazado_209207" data-name="Trazado 209207" d="M266.332,1106.471v10.838a10.836,10.836,0,0,1-9.05,10.676,9.659,9.659,0,0,1-1.788.163h-7.226a11.005,11.005,0,0,1-2.2-.217,10.866,10.866,0,0,1-8.635-10.622v-14.452a7.224,7.224,0,0,1,7.226-7.226h.307a7.1,7.1,0,0,0,2.908,3.956l.379.253a7.21,7.21,0,0,0,4.01,1.21h14.072Z" transform="translate(-237.429 -1095.632)" fill="#f0d0b4"/>
          </g>
          <g id="Grupo_175819" data-name="Grupo 175819" transform="translate(27.096 39.741)">
            <path id="Trazado_209208" data-name="Trazado 209208" d="M254.534,1138.394h14.451a7.226,7.226,0,1,1-14.451,0Z" transform="translate(-254.534 -1138.394)" fill="#ff826e"/>
          </g>
        </g>
        <g id="Grupo_175821" data-name="Grupo 175821" transform="translate(186.111 1040.042)">
          <path id="Trazado_209209" data-name="Trazado 209209" d="M264.225,1228.194a5.419,5.419,0,1,0,5.419,5.42A5.426,5.426,0,0,0,264.225,1228.194Zm0,7.226a1.806,1.806,0,1,1,1.807-1.806A1.808,1.808,0,0,1,264.225,1235.42Z" transform="translate(-228.097 -1148.711)"/>
          <circle id="Elipse_13296" data-name="Elipse 13296" cx="1.806" cy="1.806" r="1.806" transform="translate(27.098 32.516)"/>
          <circle id="Elipse_13297" data-name="Elipse 13297" cx="1.806" cy="1.806" r="1.806" transform="translate(41.549 32.516)"/>
          <path id="Trazado_209210" data-name="Trazado 209210" d="M268.317,1135.924v-1.806H250.253v1.806a9.032,9.032,0,1,0,18.064,0Zm-14.142,1.807H264.4a5.421,5.421,0,0,1-10.221,0Z" transform="translate(-223.157 -1094.377)"/>
          <path id="Trazado_209211" data-name="Trazado 209211" d="M292.692,1079.783a5.419,5.419,0,1,0,0-10.839,5.233,5.233,0,0,0-.656.067l-3.647-7.292h-11.1a16.052,16.052,0,0,0,.841-3.613h6.642l3.645-7.293a5.323,5.323,0,0,0,.658.067,5.447,5.447,0,1,0-3.895-1.667l-2.641,5.281h-4.409a16.255,16.255,0,1,0-24.611,15.688,5.342,5.342,0,0,0-.572,2.375v6.527c-.071.062-.154.1-.219.17l-1.75,1.749a5.614,5.614,0,0,0,.856,8.64l2.733,1.821a13,13,0,0,1-12.587,10h-2.03a12.86,12.86,0,0,1-2.525-.249l-6.6-1.317-.894-2.733a12.664,12.664,0,0,0,8.425-10.152h.144a7.233,7.233,0,0,0,7.226-7.226,7.154,7.154,0,0,0-1.145-3.871,37.021,37.021,0,0,0,1.145-9.066,19.6,19.6,0,0,0-19.578-19.578h-6.666a14.8,14.8,0,0,0-13.021,7.677l-.5.253a12.953,12.953,0,0,0-7.2,11.65,36.941,36.941,0,0,0,1.147,9.063,7.154,7.154,0,0,0-1.149,3.873,7.233,7.233,0,0,0,7.226,7.226h.144a12.665,12.665,0,0,0,8.129,10.044l-.674,2.69-.481.03a28.9,28.9,0,0,0-26.99,28.784,12.66,12.66,0,0,0,12.645,12.645h.632l.412,3.3a8.622,8.622,0,0,0,8.543,7.542h27.734a8.625,8.625,0,0,0,8.543-7.54l2.816-22.525a8.853,8.853,0,0,0,.067-1.069,8.528,8.528,0,0,0-1.7-5.091,23.5,23.5,0,0,0,21.6-23.387v-3.945a5.406,5.406,0,0,0-1.806-10.506h-1.806v-5.42c0-.036-.009-.068-.011-.1a16.135,16.135,0,0,0,7.237-2.644v3.716l5.419,3.613v7.1l7.578,6.315a5.482,5.482,0,1,0,2.316-2.771l-6.281-5.235V1075.2l-5.419-3.613V1066.5c.3-.376.594-.762.863-1.163h10.665l2.641,5.28a5.406,5.406,0,0,0,3.894,9.169Zm-3.613-36.128a1.807,1.807,0,1,1-1.806,1.807A1.808,1.808,0,0,1,289.079,1043.655Zm1.806,48.774a1.806,1.806,0,1,1-1.806-1.807A1.808,1.808,0,0,1,290.885,1092.428Zm-34.6-24.873a12.556,12.556,0,0,1-3.114-2.224h10.288a20.163,20.163,0,0,1-1.79,2.959,5.34,5.34,0,0,0-5.383-.735Zm16.532-5.837h-4.24a23.635,23.635,0,0,0,.558-3.613h5.343a12.528,12.528,0,0,1-1.093,3.613Zm-13.7,0a20.151,20.151,0,0,1-.665-3.613H265.5a20.253,20.253,0,0,1-.654,3.613Zm5.735-10.839a20.267,20.267,0,0,1,.654,3.613H258.46a20.261,20.261,0,0,1,.654-3.613Zm-4.348-3.613a20.439,20.439,0,0,1,1.478-2.52,20.232,20.232,0,0,1,1.478,2.52Zm8.635,7.226a23.64,23.64,0,0,0-.558-3.613h4.809a12.479,12.479,0,0,1,1.093,3.613Zm-1.7-7.226a23.9,23.9,0,0,0-1.447-2.95,12.656,12.656,0,0,1,4.823,2.95Zm-10.915,0h-3.376a12.648,12.648,0,0,1,4.823-2.95,23.959,23.959,0,0,0-1.447,2.95Zm-1.141,3.613a23.587,23.587,0,0,0-.558,3.613h-5.343a12.533,12.533,0,0,1,1.093-3.613Zm-.553,7.226a23.9,23.9,0,0,0,.562,3.613h-4.836a12.617,12.617,0,0,1-1.086-3.613Zm12.609,7.226h3.376a12.645,12.645,0,0,1-4.823,2.95,23.887,23.887,0,0,0,1.447-2.95Zm-27.486,39.741h2.03a16.339,16.339,0,0,0,3.1-.3,36.562,36.562,0,0,1,3.04,7.068,19.87,19.87,0,0,1-4.209.459H223.078l7.081-8.854,6.563,1.31a16.738,16.738,0,0,0,3.232.318ZM238.5,1083.4v-7.226a3.613,3.613,0,0,1,0,7.226Zm-36.129-3.613a3.617,3.617,0,0,1,3.613-3.613v7.226A3.617,3.617,0,0,1,202.368,1079.783Zm3.613-9.032v1.806a7.151,7.151,0,0,0-2.986.665,33.255,33.255,0,0,1-.627-6.377,9.364,9.364,0,0,1,5.2-8.418l1.563-.782.269-.538a11.21,11.21,0,0,1,10.078-6.227h6.666a15.982,15.982,0,0,1,15.963,15.965,33.386,33.386,0,0,1-.625,6.377,7.166,7.166,0,0,0-2.988-.665v-5.419h-1.806a5.426,5.426,0,0,1-5.419-5.419v-3.613h-3.613v3.613a8.941,8.941,0,0,0,1.853,5.419h-.047a5.426,5.426,0,0,1-5.419-5.419v-3.613h-3.613v3.613a8.94,8.94,0,0,0,1.832,5.392,5.422,5.422,0,0,1-2.652-.885l-.379-.253a5.408,5.408,0,0,1-2.413-4.509v-3.358h-3.613v3.358q0,.216.011.434a9.05,9.05,0,0,0-7.236,8.853Zm3.613,14.452v-14.452a5.426,5.426,0,0,1,4.516-5.344,9.01,9.01,0,0,0,3.123,3.575l.379.251a8.985,8.985,0,0,0,5.009,1.517h12.262V1085.2a9.043,9.043,0,0,1-9.032,9.032h-7.226A9.043,9.043,0,0,1,209.594,1085.2Zm9.032,12.645h7.226c.166,0,.327-.018.491-.025l1.069,3.27-5.2,6.5-5.229-6.564.807-3.228c.276.022.555.045.836.045Zm-19.871,39.741a9.042,9.042,0,0,1-9.032-9.032,25.284,25.284,0,0,1,23.61-25.178l.854-.055,7.15,8.975h-15.81a8.619,8.619,0,0,0-8.609,8.609,8.8,8.8,0,0,0,.067,1.068l.6,4.774h-4.247v3.613h4.7l.9,7.226Zm37.319,10.838H208.343a5,5,0,0,1-4.789-3.612h37.31A5,5,0,0,1,236.075,1148.427Zm7.773-26.9-2.46,19.676H203.03l-2.458-19.678a4.641,4.641,0,0,1-.038-.618,5,5,0,0,1,5-5h33.363a5,5,0,0,1,5,5,5.53,5.53,0,0,1-.042.619Zm7.723-10.764a39.876,39.876,0,0,0-2.977-7.1,16.609,16.609,0,0,0,9.758-12.783l.161-1.127-4.673-3.116a2,2,0,0,1-.3-3.075l1.752-1.75a.777.777,0,0,1,1.275.529v1.059a5.426,5.426,0,0,0,5.419,5.419h1.806v3.613a19.9,19.9,0,0,1-12.219,18.333ZM267.4,1083.4a1.808,1.808,0,0,1-1.806,1.806h-3.613a1.808,1.808,0,0,1-1.806-1.806v-1.059a4.464,4.464,0,0,0-.063-.748H265.6A1.808,1.808,0,0,1,267.4,1083.4Zm-10.839-5.419v-5.42a1.807,1.807,0,0,1,3.613,0v5.42Zm37.935-3.613a1.806,1.806,0,1,1-1.806-1.807A1.808,1.808,0,0,1,294.5,1074.364Z" transform="translate(-186.111 -1040.042)"/>
        </g>
      </g>
    </g>
  </g>
</svg>
