<svg xmlns="http://www.w3.org/2000/svg" width="295.579" height="297.901" viewBox="0 0 295.579 297.901">
  <g id="Grupo_176836" data-name="Grupo 176836" transform="translate(-179.421 -2356.5)">
    <g id="Grupo_175994" data-name="Grupo 175994" transform="translate(-90.29 2114.074)">
      <g id="Grupo_175927" data-name="Grupo 175927" transform="translate(312.348 242.425)">
        <path id="Trazado_209352" data-name="Trazado 209352" d="M398.672,374.658l6.8-3.671-3.408-10.632a42.749,42.749,0,0,0,7.786-7.349l10.416,4,4.051-6.581-8.269-7.505a43.423,43.423,0,0,0,3.06-10.254l11.03-1.74.22-7.727-10.9-2.361a42.963,42.963,0,0,0-2.48-10.418l8.677-7.018-3.675-6.8-10.628,3.41A42.964,42.964,0,0,0,404,292.225l4-10.414-6.581-4.053-7.5,8.271a43.479,43.479,0,0,0-10.254-3.062l-1.742-11.03-7.725-.218-2.361,10.9a42.865,42.865,0,0,0-10.418,2.484l-7.02-8.679-6.8,3.673L351,290.731a42.808,42.808,0,0,0-7.786,7.349l-10.416-4-4.053,6.581,8.271,7.505a43.44,43.44,0,0,0-3.062,10.252l-11.03,1.744-.218,7.726,10.9,2.361a42.883,42.883,0,0,0,2.484,10.418l-8.677,7.02,3.673,6.8,10.628-3.41a42.778,42.778,0,0,0,7.354,7.788l-4,10.414,6.581,4.053,7.505-8.271a43.427,43.427,0,0,0,10.254,3.062l1.742,11.03,7.725.22,2.363-10.907a42.849,42.849,0,0,0,10.414-2.482l7.022,8.677Zm-8.88-24.567a27.788,27.788,0,0,0,12.273-13.3l7.683,2.3a35.874,35.874,0,0,1-40.1,21.662l2.292-7.685a27.791,27.791,0,0,0,17.852-2.975Zm14.26-19.958a27.9,27.9,0,0,0-16.272-30.121l2.3-7.687a35.878,35.878,0,0,1,21.662,40.1l-7.687-2.294Zm-22.932-32.11A27.9,27.9,0,0,0,351,314.292L343.312,312a35.874,35.874,0,0,1,40.1-21.66l-2.294,7.685Zm-32.11,22.932a27.9,27.9,0,0,0,16.27,30.121l-2.292,7.685a35.876,35.876,0,0,1-21.664-40.1l7.687,2.3Zm47.47,10.545a20.818,20.818,0,1,1-1.631-15.851A20.75,20.75,0,0,1,396.481,331.5Z" transform="translate(-322.707 -271.719)" fill="#d3dce3" fill-rule="evenodd"/>
        <path id="Trazado_209353" data-name="Trazado 209353" d="M417.51,374.62l3.859-3.18-3.485-6.325a27.614,27.614,0,0,0,4.029-5.635l7.109,1.247,1.753-4.684-6.183-3.735a28.089,28.089,0,0,0,.669-6.891l6.785-2.476-.823-4.932-7.216-.144a27.689,27.689,0,0,0-2.87-6.3l4.635-5.536-3.177-3.861-6.323,3.485a27.794,27.794,0,0,0-5.635-4.028l1.245-7.109-4.683-1.753-3.733,6.183a28.105,28.105,0,0,0-6.891-.667l-2.478-6.788-4.932.823-.144,7.216a27.829,27.829,0,0,0-6.3,2.872l-5.536-4.635-3.859,3.175,3.485,6.327a27.736,27.736,0,0,0-4.028,5.633l-7.107-1.245-1.756,4.681,6.185,3.735a28.107,28.107,0,0,0-.669,6.891l-6.785,2.478.823,4.932,7.214.142a27.83,27.83,0,0,0,2.872,6.3l-4.635,5.536,3.178,3.861,6.323-3.487a27.86,27.86,0,0,0,5.635,4.028l-1.245,7.109,4.681,1.755,3.737-6.183a28.087,28.087,0,0,0,6.889.667l2.48,6.786,4.93-.821.146-7.216a27.886,27.886,0,0,0,6.3-2.872l5.538,4.637ZM412.1,364.108a23.207,23.207,0,1,1,3.165-32.666A23.2,23.2,0,0,1,412.1,364.108Z" transform="translate(-281.919 -231.1)" fill="#d3dce3" fill-rule="evenodd"/>
        <path id="Trazado_209354" data-name="Trazado 209354" d="M427.7,357.193l5.526-2.228-1.694-8.433a33.012,33.012,0,0,0,6.6-4.956l7.628,3.964,3.671-4.689-5.686-6.46a33.394,33.394,0,0,0,3.23-7.588l8.6-.384.833-5.9-8.148-2.747a33.037,33.037,0,0,0-1-8.192l7.25-4.627-2.225-5.524-8.433,1.694a33.154,33.154,0,0,0-4.958-6.6l3.966-7.628-4.693-3.673-6.458,5.688a33.525,33.525,0,0,0-7.59-3.23l-.382-8.6-5.9-.835-2.751,8.146a33.14,33.14,0,0,0-8.19,1l-4.629-7.252-5.524,2.228,1.694,8.435a33.04,33.04,0,0,0-6.6,4.956l-7.63-3.964-3.673,4.689,5.688,6.462A33.418,33.418,0,0,0,383,308.54l-8.6.382-.833,5.9,8.146,2.749a32.964,32.964,0,0,0,1,8.192l-7.25,4.627,2.224,5.526,8.435-1.694a33.005,33.005,0,0,0,4.958,6.6l-3.964,7.63,4.689,3.671,6.46-5.684a33.537,33.537,0,0,0,7.588,3.226l.382,8.6,5.9.835,2.751-8.148a32.921,32.921,0,0,0,8.188-1l4.627,7.252Zm-4.677-19.58a21.5,21.5,0,1,1,11.748-11.523,21.437,21.437,0,0,1-11.748,11.523Zm6.725-13.658a16.045,16.045,0,1,1,.119-12.281,15.984,15.984,0,0,1-.119,12.281Zm-4.429,19.358a27.645,27.645,0,1,1,15.307-35.975A27.647,27.647,0,0,1,425.322,343.313Z" transform="translate(-270.761 -267.091)" fill="#d3dce3" fill-rule="evenodd"/>
      </g>
      <g id="Grupo_175960" data-name="Grupo 175960" transform="translate(432.701 332.603)">
        <g id="Grupo_175954" data-name="Grupo 175954" transform="translate(0 0)">
          <g id="Grupo_175940" data-name="Grupo 175940" transform="translate(64.136 5.893)">
            <rect id="Rectángulo_298270" data-name="Rectángulo 298270" width="68.453" height="163.884" fill="#004f61"/>
            <g id="Grupo_175929" data-name="Grupo 175929" transform="translate(3.571 5.976)">
              <rect id="Rectángulo_298271" data-name="Rectángulo 298271" width="61.311" height="20.132" fill="#06677d"/>
              <rect id="Rectángulo_298272" data-name="Rectángulo 298272" width="44.067" height="3.203" transform="translate(3.317 8.464)" fill="#067c96"/>
              <g id="Grupo_175928" data-name="Grupo 175928" transform="translate(3.317 2.463)">
                <rect id="Rectángulo_298273" data-name="Rectángulo 298273" width="44.067" height="3.202" fill="#067c96"/>
                <rect id="Rectángulo_298274" data-name="Rectángulo 298274" width="44.067" height="3.202" transform="translate(0 12.005)" fill="#067c96"/>
              </g>
              <path id="Trazado_209355" data-name="Trazado 209355" d="M473.466,328.909a2.545,2.545,0,1,1-2.545,2.546A2.546,2.546,0,0,1,473.466,328.909Z" transform="translate(-419.19 -321.388)" fill="#268a34" fill-rule="evenodd"/>
            </g>
            <g id="Grupo_175931" data-name="Grupo 175931" transform="translate(3.571 31.191)">
              <rect id="Rectángulo_298275" data-name="Rectángulo 298275" width="61.311" height="20.132" fill="#06677d"/>
              <rect id="Rectángulo_298276" data-name="Rectángulo 298276" width="44.068" height="3.202" transform="translate(13.925 8.464)" fill="#067c96"/>
              <g id="Grupo_175930" data-name="Grupo 175930" transform="translate(13.925 2.462)">
                <rect id="Rectángulo_298277" data-name="Rectángulo 298277" width="44.068" height="3.202" fill="#067c96"/>
                <rect id="Rectángulo_298278" data-name="Rectángulo 298278" width="44.068" height="3.202" transform="translate(0 12.005)" fill="#067c96"/>
              </g>
              <circle id="Elipse_13313" data-name="Elipse 13313" cx="2.546" cy="2.546" r="2.546" transform="translate(4.489 7.52)" fill="#268a34"/>
            </g>
            <g id="Grupo_175933" data-name="Grupo 175933" transform="translate(3.571 56.911)">
              <rect id="Rectángulo_298279" data-name="Rectángulo 298279" width="61.311" height="20.132" fill="#06677d"/>
              <rect id="Rectángulo_298280" data-name="Rectángulo 298280" width="44.067" height="3.203" transform="translate(3.317 8.464)" fill="#067c96"/>
              <g id="Grupo_175932" data-name="Grupo 175932" transform="translate(3.317 2.463)">
                <rect id="Rectángulo_298281" data-name="Rectángulo 298281" width="44.067" height="3.202" fill="#067c96"/>
                <rect id="Rectángulo_298282" data-name="Rectángulo 298282" width="44.067" height="3.203" transform="translate(0 12.004)" fill="#067c96"/>
              </g>
              <path id="Trazado_209356" data-name="Trazado 209356" d="M473.466,365.2a2.545,2.545,0,1,1-2.545,2.546A2.546,2.546,0,0,1,473.466,365.2Z" transform="translate(-419.19 -357.675)" fill="#268a34" fill-rule="evenodd"/>
            </g>
            <g id="Grupo_175935" data-name="Grupo 175935" transform="translate(3.571 82.126)">
              <rect id="Rectángulo_298283" data-name="Rectángulo 298283" width="61.311" height="20.132" fill="#06677d"/>
              <rect id="Rectángulo_298284" data-name="Rectángulo 298284" width="44.068" height="3.202" transform="translate(13.925 8.464)" fill="#067c96"/>
              <g id="Grupo_175934" data-name="Grupo 175934" transform="translate(13.925 2.462)">
                <rect id="Rectángulo_298285" data-name="Rectángulo 298285" width="44.068" height="3.202" fill="#067c96"/>
                <rect id="Rectángulo_298286" data-name="Rectángulo 298286" width="44.068" height="3.202" transform="translate(0 12.005)" fill="#067c96"/>
              </g>
              <circle id="Elipse_13314" data-name="Elipse 13314" cx="2.546" cy="2.546" r="2.546" transform="translate(4.489 7.52)" fill="#268a34"/>
            </g>
            <g id="Grupo_175937" data-name="Grupo 175937" transform="translate(3.571 108.15)">
              <rect id="Rectángulo_298287" data-name="Rectángulo 298287" width="61.311" height="20.132" fill="#06677d"/>
              <rect id="Rectángulo_298288" data-name="Rectángulo 298288" width="44.067" height="3.202" transform="translate(3.317 8.464)" fill="#067c96"/>
              <g id="Grupo_175936" data-name="Grupo 175936" transform="translate(3.317 2.462)">
                <rect id="Rectángulo_298289" data-name="Rectángulo 298289" width="44.067" height="3.202" fill="#067c96"/>
                <rect id="Rectángulo_298290" data-name="Rectángulo 298290" width="44.067" height="3.202" transform="translate(0 12.005)" fill="#067c96"/>
              </g>
              <path id="Trazado_209357" data-name="Trazado 209357" d="M473.466,401.7a2.546,2.546,0,1,1-2.545,2.546A2.547,2.547,0,0,1,473.466,401.7Z" transform="translate(-419.19 -394.179)" fill="#268a34" fill-rule="evenodd"/>
            </g>
            <g id="Grupo_175939" data-name="Grupo 175939" transform="translate(3.571 133.363)">
              <rect id="Rectángulo_298291" data-name="Rectángulo 298291" width="61.311" height="20.132" fill="#06677d"/>
              <rect id="Rectángulo_298292" data-name="Rectángulo 298292" width="44.068" height="3.203" transform="translate(13.925 8.464)" fill="#067c96"/>
              <g id="Grupo_175938" data-name="Grupo 175938" transform="translate(13.925 2.462)">
                <rect id="Rectángulo_298293" data-name="Rectángulo 298293" width="44.068" height="3.203" fill="#067c96"/>
                <rect id="Rectángulo_298294" data-name="Rectángulo 298294" width="44.068" height="3.203" transform="translate(0 12.005)" fill="#067c96"/>
              </g>
              <path id="Trazado_209358" data-name="Trazado 209358" d="M439.81,419.663a2.545,2.545,0,1,0,2.546,2.545A2.544,2.544,0,0,0,439.81,419.663Z" transform="translate(-432.775 -412.142)" fill="#268a34" fill-rule="evenodd"/>
            </g>
          </g>
          <g id="Grupo_175953" data-name="Grupo 175953">
            <rect id="Rectángulo_298295" data-name="Rectángulo 298295" width="71.05" height="170.102" fill="#00657c"/>
            <g id="Grupo_175942" data-name="Grupo 175942" transform="translate(3.707 6.203)">
              <rect id="Rectángulo_298296" data-name="Rectángulo 298296" width="63.638" height="20.896" fill="#067c96"/>
              <rect id="Rectángulo_298297" data-name="Rectángulo 298297" width="45.741" height="3.324" transform="translate(3.442 8.787)" fill="#0393b0"/>
              <g id="Grupo_175941" data-name="Grupo 175941" transform="translate(3.442 2.556)">
                <rect id="Rectángulo_298298" data-name="Rectángulo 298298" width="45.741" height="3.324" fill="#0393b0"/>
                <rect id="Rectángulo_298299" data-name="Rectángulo 298299" width="45.741" height="3.324" transform="translate(0 12.46)" fill="#0393b0"/>
              </g>
              <path id="Trazado_209359" data-name="Trazado 209359" d="M429.364,325.075a2.642,2.642,0,1,1-2.64,2.642A2.643,2.643,0,0,1,429.364,325.075Z" transform="translate(-373.03 -317.269)" fill="#3ab54a" fill-rule="evenodd"/>
            </g>
            <g id="Grupo_175944" data-name="Grupo 175944" transform="translate(3.707 32.373)">
              <rect id="Rectángulo_298300" data-name="Rectángulo 298300" width="63.638" height="20.897" fill="#067c96"/>
              <rect id="Rectángulo_298301" data-name="Rectángulo 298301" width="45.739" height="3.324" transform="translate(14.454 8.786)" fill="#0393b0"/>
              <g id="Grupo_175943" data-name="Grupo 175943" transform="translate(14.454 2.556)">
                <rect id="Rectángulo_298302" data-name="Rectángulo 298302" width="45.739" height="3.324" fill="#0393b0"/>
                <rect id="Rectángulo_298303" data-name="Rectángulo 298303" width="45.739" height="3.324" transform="translate(0 12.46)" fill="#0393b0"/>
              </g>
              <path id="Trazado_209360" data-name="Trazado 209360" d="M394.432,343.72a2.642,2.642,0,1,0,2.642,2.642A2.642,2.642,0,0,0,394.432,343.72Z" transform="translate(-387.131 -335.913)" fill="#3ab54a" fill-rule="evenodd"/>
            </g>
            <g id="Grupo_175946" data-name="Grupo 175946" transform="translate(3.707 59.07)">
              <rect id="Rectángulo_298304" data-name="Rectángulo 298304" width="63.638" height="20.896" fill="#067c96"/>
              <rect id="Rectángulo_298305" data-name="Rectángulo 298305" width="45.741" height="3.324" transform="translate(3.442 8.787)" fill="#0393b0"/>
              <g id="Grupo_175945" data-name="Grupo 175945" transform="translate(3.442 2.556)">
                <rect id="Rectángulo_298306" data-name="Rectángulo 298306" width="45.741" height="3.324" fill="#0393b0"/>
                <rect id="Rectángulo_298307" data-name="Rectángulo 298307" width="45.741" height="3.324" transform="translate(0 12.46)" fill="#0393b0"/>
              </g>
              <path id="Trazado_209361" data-name="Trazado 209361" d="M429.364,362.739a2.642,2.642,0,1,1-2.64,2.642A2.643,2.643,0,0,1,429.364,362.739Z" transform="translate(-373.03 -354.933)" fill="#3ab54a" fill-rule="evenodd"/>
            </g>
            <g id="Grupo_175948" data-name="Grupo 175948" transform="translate(3.707 85.24)">
              <rect id="Rectángulo_298308" data-name="Rectángulo 298308" width="63.638" height="20.897" fill="#067c96"/>
              <rect id="Rectángulo_298309" data-name="Rectángulo 298309" width="45.739" height="3.324" transform="translate(14.454 8.787)" fill="#0393b0"/>
              <g id="Grupo_175947" data-name="Grupo 175947" transform="translate(14.454 2.556)">
                <rect id="Rectángulo_298310" data-name="Rectángulo 298310" width="45.739" height="3.324" fill="#0393b0"/>
                <rect id="Rectángulo_298311" data-name="Rectángulo 298311" width="45.739" height="3.324" transform="translate(0 12.46)" fill="#0393b0"/>
              </g>
              <path id="Trazado_209362" data-name="Trazado 209362" d="M394.432,381.384a2.642,2.642,0,1,0,2.642,2.643A2.643,2.643,0,0,0,394.432,381.384Z" transform="translate(-387.131 -373.577)" fill="#3ab54a" fill-rule="evenodd"/>
            </g>
            <g id="Grupo_175950" data-name="Grupo 175950" transform="translate(3.707 112.252)">
              <rect id="Rectángulo_298312" data-name="Rectángulo 298312" width="63.638" height="20.896" fill="#067c96"/>
              <rect id="Rectángulo_298313" data-name="Rectángulo 298313" width="45.741" height="3.324" transform="translate(3.442 8.786)" fill="#0393b0"/>
              <g id="Grupo_175949" data-name="Grupo 175949" transform="translate(3.442 2.555)">
                <rect id="Rectángulo_298314" data-name="Rectángulo 298314" width="45.741" height="3.325" fill="#0393b0"/>
                <rect id="Rectángulo_298315" data-name="Rectángulo 298315" width="45.741" height="3.324" transform="translate(0 12.461)" fill="#0393b0"/>
              </g>
              <path id="Trazado_209363" data-name="Trazado 209363" d="M429.364,400.628a2.642,2.642,0,1,1-2.64,2.642A2.643,2.643,0,0,1,429.364,400.628Z" transform="translate(-373.03 -392.821)" fill="#3ab54a" fill-rule="evenodd"/>
            </g>
            <g id="Grupo_175952" data-name="Grupo 175952" transform="translate(3.707 138.423)">
              <rect id="Rectángulo_298316" data-name="Rectángulo 298316" width="63.638" height="20.897" fill="#067c96"/>
              <rect id="Rectángulo_298317" data-name="Rectángulo 298317" width="45.739" height="3.324" transform="translate(14.454 8.787)" fill="#0393b0"/>
              <g id="Grupo_175951" data-name="Grupo 175951" transform="translate(14.454 2.556)">
                <rect id="Rectángulo_298318" data-name="Rectángulo 298318" width="45.739" height="3.324" fill="#0393b0"/>
                <rect id="Rectángulo_298319" data-name="Rectángulo 298319" width="45.739" height="3.324" transform="translate(0 12.46)" fill="#0393b0"/>
              </g>
              <path id="Trazado_209364" data-name="Trazado 209364" d="M394.432,419.272a2.642,2.642,0,1,0,2.642,2.642A2.642,2.642,0,0,0,394.432,419.272Z" transform="translate(-387.131 -411.466)" fill="#3ab54a" fill-rule="evenodd"/>
            </g>
          </g>
        </g>
        <path id="Trazado_209365" data-name="Trazado 209365" d="M430.553,433.38l.154,6.209,11.277-.2-3.708-6.691Z" transform="translate(-367.778 -267.624)" fill="#1f1c1d" fill-rule="evenodd"/>
        <path id="Trazado_209366" data-name="Trazado 209366" d="M431.2,433.395l-.152,6.347-11.279-.2,3.709-6.839Z" transform="translate(-372.131 -267.624)" fill="#1f1c1d" fill-rule="evenodd"/>
        <rect id="Rectángulo_298320" data-name="Rectángulo 298320" width="10.035" height="8.345" transform="translate(55.873 37.257)" fill="#f0c17d"/>
        <path id="Trazado_209367" data-name="Trazado 209367" d="M431.766,350.74c-.028,0-.056,0-.086,0a5.022,5.022,0,0,1-2.111-.248c-.545-.232-.807-.765-1.554-1.485-.636-.612-1.778-1.237-2.056-1.9a11.476,11.476,0,0,1-.4-2.878c-.591.326-1.223-1.364-1.348-1.917-.185-.817-.773-2.207-.957-3.14-.105-.535-.041-.96.138-1.093.383-.285.779-.131,1.349.646.035-.658.079-1.336.058-2.058a17.765,17.765,0,0,1,.086-3.415A4.014,4.014,0,0,1,426.2,330.8h0v0a6.82,6.82,0,0,1,1.454-.978l.017-.006c.034-.015.069-.034.105-.052.02-.008.038-.017.059-.028a.712.712,0,0,1,.083-.038c.028-.011.055-.025.083-.036a.908.908,0,0,1,.088-.038c.027-.014.053-.025.08-.036s.076-.031.114-.044l.055-.022c.055-.022.112-.044.168-.062l0,0a9.47,9.47,0,0,1,4.551-.432,7.734,7.734,0,0,1,4.014,1.767,4.013,4.013,0,0,1,1.315,2.437,17.918,17.918,0,0,1,.094,3.4c-.021.726.024,1.408.063,2.069.56-.755.95-.907,1.329-.623.181.133.244.559.139,1.093-.182.933-.772,2.323-.957,3.14-.124.547-.743,2.2-1.326,1.927a10.892,10.892,0,0,1-.387,2.806c-.278.669-1.411,1.3-2.042,1.92-.744.73-1.006,1.265-1.545,1.5A4.715,4.715,0,0,1,431.766,350.74Z" transform="translate(-370.745 -309.513)" fill="#f0c17d" fill-rule="evenodd"/>
        <path id="Trazado_209368" data-name="Trazado 209368" d="M424.034,339.065c-1.43-5.789-.189-12.63,7.928-11.823,7.632-.411,9.134,6.169,7.246,12.181-1.026,7.25-4.073,10.48-7.681,11.389C427.4,349.245,425.891,348.768,424.034,339.065Z" transform="translate(-370.616 -310.218)" fill="#632404" fill-rule="evenodd"/>
        <path id="Trazado_209369" data-name="Trazado 209369" d="M432.541,396.962l-.833,60.181-4.636.9-4.441-1.13-3.306-63.873,1.827-15.775,11.991-1.7v21.108Z" transform="translate(-372.31 -290.685)" fill="#05345e" fill-rule="evenodd"/>
        <path id="Trazado_209370" data-name="Trazado 209370" d="M430.622,396.962l-.807,60.181-4.477.927-1.261-71.338.328-10.2,7.022-.966.3,17.335-.17,3.774Z" transform="translate(-370.392 -290.685)" fill="#032747" fill-rule="evenodd"/>
        <path id="Trazado_209371" data-name="Trazado 209371" d="M430.076,396.962l1.493,59.8,3.9.617,4.486-1.454,3.332-62.883-1.827-15.775-11.991-1.7v21.108Z" transform="translate(-368.214 -290.685)" fill="#032747" fill-rule="evenodd"/>
        <path id="Trazado_209372" data-name="Trazado 209372" d="M430.156,396.947l.476,59.9,4.985.5,1.083-70.628-.328-10.2-7.1-.917.128,21.085Z" transform="translate(-368.294 -290.67)" fill="#05345e" fill-rule="evenodd"/>
        <path id="Trazado_209373" data-name="Trazado 209373" d="M436.155,344.367a2.785,2.785,0,0,0,1.214,2.143l-3.113,5.316h-6.447L424.7,346.51a2.78,2.78,0,0,0,1.213-2.143C428.347,345.416,433.853,345.63,436.155,344.367Z" transform="translate(-370.142 -303.279)" fill="#d8ebed" fill-rule="evenodd"/>
        <path id="Trazado_209374" data-name="Trazado 209374" d="M452.125,359.353,448.51,374.41c-1.086,4.53-1.461,6.9-.9,11.751l1.863,18.379H435.479l-.528-10.209-.6,10.209H420.362c.794-7.858,1.819-18.375.045-25.761l-5.212-22.8c-.306-1.335.167-4.939,1.5-5.368,6.614-2.132,9.229-2.716,11.809-4.791.978,1.068,11.567.782,12.908.042,2.546,2.294,4.121,3.067,10.794,5.717C454.656,352.554,452.55,357.582,452.125,359.353Z" transform="translate(-374.013 -302.692)" fill="#05345e" fill-rule="evenodd"/>
        <path id="Trazado_209375" data-name="Trazado 209375" d="M452.72,335.644h.056a.854.854,0,0,1,.876-.675h.069a.847.847,0,0,1,.877.7h.059a.843.843,0,0,1,.879-.719h.07a.837.837,0,0,1,.882.755l.07.008V335.7a.611.611,0,0,1,.644-.564h.051a.611.611,0,0,1,.644.564v2.743l.055,3.2a3.036,3.036,0,0,1-1.2,2.185l-.445.372-.733,4.18h-4.51l.748-4.268a1.765,1.765,0,0,1-1.155-1.408l-.561-2.842a.758.758,0,0,1,.2-.987l.618-.494-.021-1.249c0-.049,0-.1,0-.146v-5.721a.884.884,0,0,1,.881-.882h.069a.884.884,0,0,1,.88.882Z" transform="translate(-359.932 -308.924)" fill="#f0c07d" fill-rule="evenodd"/>
        <g id="Grupo_175956" data-name="Grupo 175956" transform="translate(74.685 35.368)">
          <path id="Trazado_209376" data-name="Trazado 209376" d="M458.008,364.059c.835.313,2.755-.675,3.853-2.193,3.421-4.73-3.287-6.521-5.822-7.723l-10.616-3.276c-5.414-2.306-3.012,1.727-5.793,3.349l-.592,6.712Z" transform="translate(-439.038 -336.304)" fill="#05345e" fill-rule="evenodd"/>
          <g id="Grupo_175955" data-name="Grupo 175955" transform="translate(15.263)">
            <path id="Trazado_209377" data-name="Trazado 209377" d="M456.452,341.519l-.048-1.032-5.593-.195-.081,1.633Z" transform="translate(-449.582 -340.292)" fill="#d8ebed" fill-rule="evenodd"/>
            <path id="Trazado_209378" data-name="Trazado 209378" d="M449.912,362.321,450.93,340.8l6.124.328,1.332,19.947A12.863,12.863,0,0,1,458.2,364C457.476,366.753,451.143,363.4,449.912,362.321Z" transform="translate(-449.912 -340.085)" fill="#05345e" fill-rule="evenodd"/>
          </g>
        </g>
        <g id="Grupo_175957" data-name="Grupo 175957" transform="translate(21.903 15.165)">
          <path id="Trazado_209379" data-name="Trazado 209379" d="M403.294,335.517l-.738,2.976c-.072.285,3.374,2.543,3.227,1.248l-.216-1.92,1.338-2.5a5.467,5.467,0,0,0-.466-2.456h0a.584.584,0,0,0-.823.018C405.166,333.354,403.445,334.9,403.294,335.517Z" transform="translate(-400.982 -323.151)" fill="#f0c07d" fill-rule="evenodd"/>
          <path id="Trazado_209380" data-name="Trazado 209380" d="M405.6,332.21l-2.38,2.487a.923.923,0,0,0-.067.081,1.066,1.066,0,0,0-.23.47l-.776,3.115a5.485,5.485,0,0,0,.066,1.206c.069.282.257-.229.491-.236.661-.024,1.442.858,1.475-.81l.062-2.953,2.329-2.433A.671.671,0,0,0,405.6,332.21Z" transform="translate(-401.153 -323.438)" fill="#ffdba7" fill-rule="evenodd"/>
          <path id="Trazado_209381" data-name="Trazado 209381" d="M408.13,336.175l-1.363.219c-.212.034-1.267,2.353-2.513.022-.213-.4-2.125-.117-2.11.337a10.262,10.262,0,0,0,.343,2.632,8.81,8.81,0,0,0,2.155,2.75l.428,3.988,3.106-1.251.55-2.5c.1-.445.858-1.133.759-1.784L409,337.333C408.932,336.886,408.578,336.1,408.13,336.175Z" transform="translate(-401.148 -321.752)" fill="#ffdba7" fill-rule="evenodd"/>
          <circle id="Elipse_13315" data-name="Elipse 13315" cx="6.655" cy="6.655" r="6.655" fill="#a5c2d9"/>
          <path id="Trazado_209382" data-name="Trazado 209382" d="M406.863,328.938a2.388,2.388,0,1,1-2.388,2.389A2.388,2.388,0,0,1,406.863,328.938Z" transform="translate(-400.207 -324.671)" fill="#676e73" fill-rule="evenodd"/>
          <path id="Trazado_209383" data-name="Trazado 209383" d="M405.883,332.9h0a.8.8,0,0,0-.768.83c.053,1.44.33,2.971.3,4.409l-.087,1.336a.778.778,0,0,0,.83.769h0c.439-.017.487-.493.768-.83l.8-.962-1.018-4.784A.864.864,0,0,0,405.883,332.9Z" transform="translate(-399.949 -323.074)" fill="#ffdba7" fill-rule="evenodd"/>
        </g>
        <g id="Grupo_175959" data-name="Grupo 175959" transform="translate(24.503 34.722)">
          <path id="Trazado_209384" data-name="Trazado 209384" d="M409.75,364.47c-.806.421-2.868-.331-4.169-1.724-4.058-4.343,2.489-7,4.895-8.54l8.378-4c7.022-3.132,5.186.7,8.2,1.983l1.451,6.7Z" transform="translate(-402.884 -336.128)" fill="#05345e" fill-rule="evenodd"/>
          <g id="Grupo_175958" data-name="Grupo 175958">
            <path id="Trazado_209385" data-name="Trazado 209385" d="M403.521,341.788l-.081-1.047,5.621-.909.291,1.639Z" transform="translate(-403.225 -339.832)" fill="#d8ebed" fill-rule="evenodd"/>
            <path id="Trazado_209386" data-name="Trazado 209386" d="M413.193,361.928l-3.762-21.6-6.144,1.112,1.192,20.312a13.132,13.132,0,0,0,.557,2.928C406.118,367.366,412.088,363.176,413.193,361.928Z" transform="translate(-403.287 -339.631)" fill="#05345e" fill-rule="evenodd"/>
          </g>
        </g>
      </g>
      <g id="Grupo_175974" data-name="Grupo 175974" transform="translate(337.719 334.004)">
        <path id="Trazado_209387" data-name="Trazado 209387" d="M389.189,436.727c-4.085,5.911-5.573,6.694-11.521,7.49-1.856.248-2.454.647-2.406,2.6,5.706.434,10.574.392,16.295.331.838-1.36,1.148-2.219,2.653-2.368l.142,2.319h5.07l.251-4.781-1.2-5.121Z" transform="translate(-295.115 -267.399)" fill-rule="evenodd"/>
        <path id="Trazado_209388" data-name="Trazado 209388" d="M400.125,394.249c1.363-5.735,1.662-7.929.945-11.687-.9-4.7-2.5-7.55-4.684-11.674l-16.017,4.262-.821,13.572,1.589,5.119,2.08,23.378.142,1.371,2.609,46.809,11.473.216.873-32.854L396.9,416.938A154.613,154.613,0,0,1,400.125,394.249Z" transform="translate(-293.384 -293.975)" fill="#111417" fill-rule="evenodd"/>
        <path id="Trazado_209389" data-name="Trazado 209389" d="M391.544,437.046c-4.083,5.912-5.573,6.693-11.52,7.49-1.856.248-2.455.647-2.407,2.6,5.706.434,10.572.393,16.295.333.838-1.362,1.148-2.218,2.653-2.369l.143,2.32h5.067l.254-4.781-1.2-5.118Z" transform="translate(-294.164 -267.27)" fill="#1f1c1d" fill-rule="evenodd"/>
        <path id="Trazado_209390" data-name="Trazado 209390" d="M401.249,394c1.223-5.737,1.47-7.929.66-11.687-1.015-4.7-2.687-7.552-4.969-11.676L381.028,374.9l-.491,13.572,1.714,5.119,2.65,23.378.174,1.37,3.753,46.809,11.478.218.073-32.854-1.8-15.825A152.979,152.979,0,0,1,401.249,394Z" transform="translate(-292.985 -294.078)" fill="#22282e" fill-rule="evenodd"/>
        <path id="Trazado_209391" data-name="Trazado 209391" d="M395.361,343.254l-7.26,9.185-1.8-1.652c-.706-1.512-1.141-3.045-1.485-3.974-1.126-3.04-1.719-2.1-4.906-3l7.664-16.737,5.021,5.519c.31,2.514.218,4.086.653,6.812A10.083,10.083,0,0,0,395.361,343.254Z" transform="translate(-293.238 -311.66)" fill="#f0c17d" fill-rule="evenodd"/>
        <path id="Trazado_209392" data-name="Trazado 209392" d="M378.692,326.255l-.969,2.23a8.823,8.823,0,0,0-.345,2.779,9.362,9.362,0,0,0,.065,2.406,7.849,7.849,0,0,1,.612,1.839c.014,1.262-.653,2.273-1.368,3.55-.543.977.933,1.333,1.785,1.325.458-.006.535.218.439.481a1.622,1.622,0,0,1-.394.567c.129.689.488.689,1.364.651-.869.274-.939.54-.7,1.456.591.07.924.036,1.04.518.389,1.6.121,2.689,2.184,2.379,1.812-.274,4.895-2.942,6.078-4.36a3.418,3.418,0,0,0,.364-2.278l-.1-1.468c.561-1.806,1.241-2.9,1.122-4.05l.23-2.086-2.406-6.451Z" transform="translate(-294.586 -312.197)" fill="#ffdba7" fill-rule="evenodd"/>
        <path id="Trazado_209393" data-name="Trazado 209393" d="M377.023,331.779c.213-5.953,4.675-8.762,9.472-9.264,6.259-.657,12.41,5.405,10.369,12.142-.8,2.646-1.743,3.265-2.448,6.176-4.555-1.443-2.859-3.7-5.471-6.467-2.824-2.99-4,2.31-4.684,3.906-.542-2.07-1.213-5.512-3.157-5.212C381.381,329.821,379.2,328.853,377.023,331.779Z" transform="translate(-294.403 -313.52)" fill="#632404" fill-rule="evenodd"/>
        <path id="Trazado_209394" data-name="Trazado 209394" d="M395.967,338.664c5.262,5.382,7.41,7.452,8.27,11.75,1.722,8.592-.768,14.838-1.837,22.082s-1.861,11.211-1.669,16.915c-7.609,1.127-13.392.772-19.841-1.19-.648-9.691-1.493-13.971-1.43-20.371-2.281-11.094.932-12.82,5.241-22.872Z" transform="translate(-293.724 -306.982)" fill="#dde5e6" fill-rule="evenodd"/>
        <path id="Trazado_209395" data-name="Trazado 209395" d="M385.6,342.249l.637,4.062c-.611.887-1.362,1.286-1.937,2.247L383.059,355c-1.865,6.517-2.27,9.644-2.8,18.961-2-10.091-.926-16.056,2.659-25.914a8.679,8.679,0,0,1,2.089-6.034Z" transform="translate(-293.498 -305.629)" fill="#333d45" fill-rule="evenodd"/>
        <path id="Trazado_209396" data-name="Trazado 209396" d="M393.295,337.053a22.889,22.889,0,0,1-10.185,6.672l.714,5a19.922,19.922,0,0,0,10.781-9.292Z" transform="translate(-291.946 -307.632)" fill="#ebf4f5" fill-rule="evenodd"/>
        <path id="Trazado_209397" data-name="Trazado 209397" d="M400.992,361.551c-.188,5.331-1.566,17.37-4.353,18.9a4.43,4.43,0,0,1-1.482.372c-3.454.576-5.981-3.24-5.368-4.52l1.006-2.2c.347-3.433-1.3-14.571-1.732-20.339-.469-6.245.9-9.588,5.314-9.83C402.278,343.5,401.179,356.22,400.992,361.551Z" transform="translate(-289.578 -304.859)" fill="#ebf4f5" fill-rule="evenodd"/>
        <path id="Trazado_209398" data-name="Trazado 209398" d="M328.889,316.093q14.342,3.855,27.169,7.3l23.134,6.213q0,38.364.008,76.684t.008,76.653q-10.982,2.922-23.136,6.155l-27.183,7.23V316.093Z" transform="translate(-313.832 -316.093)" fill="#00657c" fill-rule="evenodd"/>
        <g id="Grupo_175962" data-name="Grupo 175962" transform="translate(18.1 7.357)">
          <path id="Trazado_209399" data-name="Trazado 209399" d="M331.057,321.334q12.669,3.154,24.126,6.006l20.876,5.2q0,9.5,0,18.994-9.959-1.828-20.878-3.828-11.46-2.1-24.126-4.422Z" transform="translate(-331.057 -321.334)" fill="#067c96" fill-rule="evenodd"/>
          <path id="Trazado_209400" data-name="Trazado 209400" d="M333.049,328.352q9.009,2,17.405,3.854,8.1,1.792,15.676,3.47v3.108l-15.676-3.306-17.405-3.672Z" transform="translate(-330.253 -318.501)" fill="#0393b0" fill-rule="evenodd"/>
          <g id="Grupo_175961" data-name="Grupo 175961" transform="translate(2.796 3.353)">
            <path id="Trazado_209401" data-name="Trazado 209401" d="M333.049,323.723l17.405,4.194,15.676,3.776v3.126l-15.676-3.613-17.405-4.013Z" transform="translate(-333.049 -323.723)" fill="#0393b0" fill-rule="evenodd"/>
            <path id="Trazado_209402" data-name="Trazado 209402" d="M333.049,332.971l17.405,3.513q8.1,1.634,15.676,3.162,0,1.554,0,3.108l-15.676-3q-8.382-1.606-17.407-3.331Z" transform="translate(-333.049 -319.99)" fill="#0393b0" fill-rule="evenodd"/>
          </g>
          <path id="Trazado_209403" data-name="Trazado 209403" d="M360.37,333.653c.922.206,1.659,1.457,1.659,2.792s-.735,2.282-1.658,2.09-1.683-1.463-1.683-2.813S359.446,333.446,360.37,333.653Z" transform="translate(-319.904 -316.373)" fill="#3ab54a" fill-rule="evenodd"/>
        </g>
        <g id="Grupo_175964" data-name="Grupo 175964" transform="translate(18.1 34.825)">
          <path id="Trazado_209404" data-name="Trazado 209404" d="M376.062,348.425q-9.961-1.661-20.878-3.5Q343.724,343,331.057,340.9v21.933l24.127,2.44q10.927,1.1,20.879,2.111C376.062,361.068,376.062,354.76,376.062,348.425Z" transform="translate(-331.057 -340.903)" fill="#067c96" fill-rule="evenodd"/>
          <path id="Trazado_209405" data-name="Trazado 209405" d="M370.656,353q-7.219-1-14.929-2.076-7.98-1.122-16.538-2.317v3.38q8.559,1.1,16.538,2.128l14.931,1.922C370.656,355.019,370.656,354.023,370.656,353Z" transform="translate(-327.774 -337.795)" fill="#0393b0" fill-rule="evenodd"/>
          <g id="Grupo_175963" data-name="Grupo 175963" transform="translate(11.413 4.492)">
            <path id="Trazado_209406" data-name="Trazado 209406" d="M370.656,349.114q-7.22-1.145-14.931-2.369-7.978-1.278-16.538-2.642v3.365q8.559,1.268,16.538,2.469,7.71,1.154,14.931,2.214Z" transform="translate(-339.188 -344.103)" fill="#0393b0" fill-rule="evenodd"/>
            <path id="Trazado_209407" data-name="Trazado 209407" d="M370.657,356.862l-14.931-1.785L339.189,353.1v3.38l16.538,1.805,14.931,1.628Z" transform="translate(-339.188 -340.471)" fill="#0393b0" fill-rule="evenodd"/>
          </g>
          <path id="Trazado_209408" data-name="Trazado 209408" d="M335.838,347.344c-1.151-.163-2.1.918-2.1,2.438a2.889,2.889,0,0,0,2.1,3c1.154.145,2.075-.943,2.075-2.442A2.893,2.893,0,0,0,335.838,347.344Z" transform="translate(-329.974 -338.31)" fill="#3ab54a" fill-rule="evenodd"/>
        </g>
        <path id="Trazado_209409" data-name="Trazado 209409" d="M331.057,360.868q12.671,1.049,24.129,2,10.925.907,20.878,1.731,0,9.506,0,18.994l-20.881-.358-24.129-.415Z" transform="translate(-312.957 -298.02)" fill="#067c96" fill-rule="evenodd"/>
        <g id="Grupo_175966" data-name="Grupo 175966" transform="translate(18.1 90.336)">
          <path id="Trazado_209410" data-name="Trazado 209410" d="M376.066,380.478l-20.879-.013-24.13-.014v21.932q12.671-.825,24.13-1.569l20.882-1.359Q376.067,389.974,376.066,380.478Z" transform="translate(-331.057 -380.451)" fill="#067c96" fill-rule="evenodd"/>
          <path id="Trazado_209411" data-name="Trazado 209411" d="M370.661,386.192q-7.222.194-14.932.4l-16.539.446v3.381l16.539-.62,14.932-.559Z" transform="translate(-327.774 -378.134)" fill="#0393b0" fill-rule="evenodd"/>
          <g id="Grupo_175965" data-name="Grupo 175965" transform="translate(11.414 2.361)">
            <path id="Trazado_209412" data-name="Trazado 209412" d="M370.66,382.133q-7.22.053-14.932.111-7.978.057-16.539.122,0,1.682,0,3.363l16.538-.295q7.712-.137,14.933-.265Q370.659,383.649,370.66,382.133Z" transform="translate(-339.189 -382.133)" fill="#0393b0" fill-rule="evenodd"/>
            <path id="Trazado_209413" data-name="Trazado 209413" d="M370.661,390.251q-7.222.335-14.932.7-7.971.371-16.539.769V395.1q8.559-.489,16.539-.945l14.933-.851C370.661,392.29,370.661,391.278,370.661,390.251Z" transform="translate(-339.189 -378.856)" fill="#0393b0" fill-rule="evenodd"/>
          </g>
          <path id="Trazado_209414" data-name="Trazado 209414" d="M335.839,386.191c-1.152.028-2.1,1.269-2.1,2.788s.946,2.7,2.1,2.652,2.073-1.287,2.073-2.786S336.993,386.164,335.839,386.191Z" transform="translate(-329.974 -378.134)" fill="#3ab54a" fill-rule="evenodd"/>
        </g>
        <g id="Grupo_175968" data-name="Grupo 175968" transform="translate(18.1 114.904)">
          <path id="Trazado_209415" data-name="Trazado 209415" d="M331.057,401.747l24.132-2.032q10.925-.92,20.881-1.76,0,9.5,0,18.979l-20.883,3.13-24.132,3.617Z" transform="translate(-331.057 -397.954)" fill="#067c96" fill-rule="evenodd"/>
          <path id="Trazado_209416" data-name="Trazado 209416" d="M333.047,408.065l17.414-1.948q8.106-.905,15.679-1.755v3.126l-15.679,1.917-17.414,2.131Z" transform="translate(-330.254 -395.367)" fill="#0393b0" fill-rule="evenodd"/>
          <g id="Grupo_175967" data-name="Grupo 175967" transform="translate(2.793 3.161)">
            <path id="Trazado_209417" data-name="Trazado 209417" d="M333.047,403.26l17.414-1.607,15.677-1.447q0,1.554,0,3.109-7.571.777-15.679,1.609-8.384.863-17.414,1.79Z" transform="translate(-333.047 -400.206)" fill="#0393b0" fill-rule="evenodd"/>
            <path id="Trazado_209418" data-name="Trazado 209418" d="M333.047,412.868l17.414-2.289,15.679-2.059v3.125q-7.569,1.076-15.679,2.225l-17.414,2.47Z" transform="translate(-333.047 -396.85)" fill="#0393b0" fill-rule="evenodd"/>
          </g>
          <path id="Trazado_209419" data-name="Trazado 209419" d="M360.374,403.361c.921-.1,1.661.9,1.661,2.239s-.74,2.512-1.661,2.628-1.676-.879-1.676-2.237S359.453,403.462,360.374,403.361Z" transform="translate(-319.9 -395.774)" fill="#3ab54a" fill-rule="evenodd"/>
        </g>
        <g id="Grupo_175970" data-name="Grupo 175970" transform="translate(18.1 138.688)">
          <path id="Trazado_209420" data-name="Trazado 209420" d="M376.072,414.9l-20.882,3.478-24.133,4.019v21.95l24.134-5.6,20.882-4.85Q376.071,424.411,376.072,414.9Z" transform="translate(-331.057 -414.898)" fill="#067c96" fill-rule="evenodd"/>
          <path id="Trazado_209421" data-name="Trazado 209421" d="M370.665,420.885q-7.216,1.4-14.933,2.9L339.191,427v3.363l16.541-3.383,14.933-3.057Z" transform="translate(-327.774 -412.481)" fill="#0393b0" fill-rule="evenodd"/>
          <g id="Grupo_175969" data-name="Grupo 175969" transform="translate(11.417 2.689)">
            <path id="Trazado_209422" data-name="Trazado 209422" d="M370.665,416.814l-14.933,2.607-16.541,2.887v3.381l16.541-3.06,14.933-2.764Z" transform="translate(-339.191 -416.814)" fill="#0393b0" fill-rule="evenodd"/>
            <path id="Trazado_209423" data-name="Trazado 209423" d="M370.665,424.943q-7.216,1.545-14.933,3.193l-16.541,3.536v3.365l16.541-3.71q7.715-1.727,14.935-3.348Q370.666,426.463,370.665,424.943Z" transform="translate(-339.191 -413.533)" fill="#0393b0" fill-rule="evenodd"/>
          </g>
          <path id="Trazado_209424" data-name="Trazado 209424" d="M335.84,425.289a3.134,3.134,0,0,0-2.1,3.138c0,1.51.946,2.557,2.1,2.319a3.168,3.168,0,0,0,2.073-3.15C337.914,426.1,336.993,425.07,335.84,425.289Z" transform="translate(-329.973 -410.715)" fill="#3ab54a" fill-rule="evenodd"/>
        </g>
        <path id="Trazado_209425" data-name="Trazado 209425" d="M333.217,316.191l-15.055,5.853v169.29l15.055,4.953Z" transform="translate(-318.162 -316.053)" fill="#004554" fill-rule="evenodd"/>
        <path id="Trazado_209426" data-name="Trazado 209426" d="M330.812,376.483l45.007.811,43.587,5.026-45.009-.773Z" transform="translate(-313.056 -291.716)" fill="#0393b0" fill-rule="evenodd"/>
        <path id="Trazado_209427" data-name="Trazado 209427" d="M361.938,373.98l45,1.387-.069,7.964-45.009-.773Z" transform="translate(-300.522 -292.727)" fill="#13b1d1" fill-rule="evenodd"/>
        <path id="Trazado_209428" data-name="Trazado 209428" d="M330.812,378.782l.068-7.993,17.093,1.121,26.523.677-.1,11.259Z" transform="translate(-313.056 -294.015)" fill="#0d9cb8" fill-rule="evenodd"/>
        <path id="Trazado_209429" data-name="Trazado 209429" d="M330.812,370.776l45.007.811,43.587,5.027-45.009-.773Z" transform="translate(-313.056 -294.02)" fill="#0393b0" fill-rule="evenodd"/>
        <g id="Grupo_175971" data-name="Grupo 175971" transform="translate(34.431 54.031)">
          <path id="Trazado_209430" data-name="Trazado 209430" d="M364.213,373.369l22.992-.089-18.077-2.1-14.235-.164Z" transform="translate(-337.767 -347.954)" fill="#032747" fill-rule="evenodd"/>
          <path id="Trazado_209431" data-name="Trazado 209431" d="M361.392,354.975l-18.7-.389,7.288,24.739,18.723,1.809Z" transform="translate(-342.691 -354.586)" fill="#084478" fill-rule="evenodd"/>
          <path id="Trazado_209432" data-name="Trazado 209432" d="M356.015,354.863l1.028.017,7.066,24.9-.888,1.242Z" transform="translate(-337.313 -354.474)" fill="#05345e" fill-rule="evenodd"/>
          <path id="Trazado_209433" data-name="Trazado 209433" d="M361.686,372.533l22.992.134.015,1.5-23.543-.295Z" transform="translate(-335.24 -347.341)" fill="#05345e" fill-rule="evenodd"/>
        </g>
        <g id="Grupo_175973" data-name="Grupo 175973" transform="translate(63.113 66.981)">
          <g id="Grupo_175972" data-name="Grupo 175972" transform="translate(0 6.281)">
            <path id="Trazado_209434" data-name="Trazado 209434" d="M369.077,370.556a.973.973,0,0,0-.032,1.832c.265.9,1.7,1.235,2.354,1.474l1,.383,4.014.065,2.371-1.166s.313-2.548.267-2.727a17.9,17.9,0,0,0-3.249-1.55C375.6,368.881,368.971,370.49,369.077,370.556Z" transform="translate(-360.996 -368.053)" fill="#f0c17d" fill-rule="evenodd"/>
            <path id="Trazado_209435" data-name="Trazado 209435" d="M376.2,368.482a15.316,15.316,0,0,0-3.755-.132,7.042,7.042,0,0,0-1.9.807c-.758.345-1.764.651-3.137,1.284-2.689,1.239-4.388,1.79-4.278,2.41.086.493,1.272.568,3.857-.219l4.426-1.516c.532.107,1.077.236,1.707.359s1.461.281,2.191.42l7.084-.168.041-1.9C379.969,369.253,378.34,368.841,376.2,368.482Z" transform="translate(-363.125 -368.287)" fill="#f0c17d" fill-rule="evenodd"/>
            <path id="Trazado_209436" data-name="Trazado 209436" d="M374.346,370.585c-2.826.1-4.271-.794-5.382,1.346A1.1,1.1,0,0,0,370.1,373.5c.059.824.779,1.063,1.464.978,1.342-.168,1.711.46,3.5.368a6.578,6.578,0,0,0,4.487-1.637l3.9-2.828-3.216-.274S374.315,370.661,374.346,370.585Z" transform="translate(-360.813 -367.553)" fill="#f0c17d" fill-rule="evenodd"/>
          </g>
          <path id="Trazado_209437" data-name="Trazado 209437" d="M401.164,373.073c-7.977,2.331-16.068,2.159-24.463,3.481-.643-3.53-1.127-4.688-2.117-6.243,0,0,17.332-4.414,24.042-6.483C400.7,363.429,408.164,370.888,401.164,373.073Z" transform="translate(-358.5 -363.812)" fill="#ebf4f5" fill-rule="evenodd"/>
        </g>
      </g>
      <g id="Grupo_175993" data-name="Grupo 175993" transform="translate(269.711 316.633)">
        <g id="Grupo_175988" data-name="Grupo 175988" transform="translate(0 0)">
          <g id="Grupo_175987" data-name="Grupo 175987" transform="translate(18.008)">
            <path id="Trazado_209438" data-name="Trazado 209438" d="M282.54,303.717q17.155,4.611,32.5,8.729,14.547,3.908,27.672,7.431.006,45.889.01,91.723t.011,91.686l-27.676,7.362q-15.366,4.085-32.514,8.649V303.717Z" transform="translate(-282.54 -303.717)" fill="#00657c" fill-rule="evenodd"/>
            <g id="Grupo_175976" data-name="Grupo 175976" transform="translate(3.64 8.798)">
              <path id="Trazado_209439" data-name="Trazado 209439" d="M285.133,309.985q15.155,3.773,28.858,7.185l24.971,6.22q0,11.367,0,22.718-11.913-2.183-24.971-4.577l-28.859-5.29Z" transform="translate(-285.133 -309.985)" fill="#067c96" fill-rule="evenodd"/>
              <path id="Trazado_209440" data-name="Trazado 209440" d="M287.517,318.381q10.776,2.388,20.819,4.61,9.683,2.145,18.749,4.149,0,1.861,0,3.72-9.053-1.912-18.75-3.955l-20.819-4.392Z" transform="translate(-284.171 -306.596)" fill="#0393b0" fill-rule="evenodd"/>
              <g id="Grupo_175975" data-name="Grupo 175975" transform="translate(3.346 4.012)">
                <path id="Trazado_209441" data-name="Trazado 209441" d="M287.517,312.843l20.819,5.017,18.749,4.518v3.738q-9.053-2.089-18.749-4.322-10.028-2.314-20.819-4.8Z" transform="translate(-287.517 -312.843)" fill="#0393b0" fill-rule="evenodd"/>
                <path id="Trazado_209442" data-name="Trazado 209442" d="M287.517,323.9q10.776,2.175,20.819,4.2l18.75,3.784v3.717q-9.053-1.731-18.749-3.588-10.028-1.918-20.82-3.984Z" transform="translate(-287.517 -308.378)" fill="#0393b0" fill-rule="evenodd"/>
              </g>
              <path id="Trazado_209443" data-name="Trazado 209443" d="M320.194,324.721c1.1.247,1.986,1.743,1.986,3.339s-.882,2.729-1.986,2.5-2.01-1.749-2.01-3.363S319.089,324.474,320.194,324.721Z" transform="translate(-271.792 -304.051)" fill="#3ab54a" fill-rule="evenodd"/>
            </g>
            <g id="Grupo_175978" data-name="Grupo 175978" transform="translate(3.64 41.656)">
              <path id="Trazado_209444" data-name="Trazado 209444" d="M338.964,342.389q-11.915-1.988-24.972-4.183-13.707-2.3-28.859-4.812,0,13.138,0,26.233,15.155,1.531,28.859,2.918,13.071,1.32,24.972,2.525C338.966,357.509,338.964,349.967,338.964,342.389Z" transform="translate(-285.133 -333.394)" fill="#067c96" fill-rule="evenodd"/>
              <path id="Trazado_209445" data-name="Trazado 209445" d="M332.5,347.858q-8.639-1.2-17.86-2.486-9.542-1.341-19.78-2.771v4.042q10.237,1.318,19.78,2.546,9.224,1.185,17.86,2.3Z" transform="translate(-281.207 -329.678)" fill="#0393b0" fill-rule="evenodd"/>
              <g id="Grupo_175977" data-name="Grupo 175977" transform="translate(13.653 5.372)">
                <path id="Trazado_209446" data-name="Trazado 209446" d="M332.5,343.213q-8.639-1.369-17.86-2.833-9.542-1.531-19.779-3.16v4.023q10.237,1.518,19.779,2.953,9.224,1.381,17.86,2.647Z" transform="translate(-294.86 -337.221)" fill="#0393b0" fill-rule="evenodd"/>
                <path id="Trazado_209447" data-name="Trazado 209447" d="M332.5,352.483q-8.639-1.034-17.86-2.136-9.54-1.141-19.78-2.367v4.044l19.78,2.159,17.861,1.95C332.5,354.922,332.5,353.711,332.5,352.483Z" transform="translate(-294.86 -332.878)" fill="#0393b0" fill-rule="evenodd"/>
              </g>
              <path id="Trazado_209448" data-name="Trazado 209448" d="M290.853,341.1c-1.378-.2-2.508,1.1-2.508,2.915s1.13,3.416,2.508,3.591,2.479-1.129,2.479-2.921S292.23,341.29,290.853,341.1Z" transform="translate(-283.836 -330.293)" fill="#3ab54a" fill-rule="evenodd"/>
            </g>
            <g id="Grupo_175980" data-name="Grupo 175980" transform="translate(3.641 75.174)">
              <path id="Trazado_209449" data-name="Trazado 209449" d="M285.134,357.273l28.859,2.392,24.974,2.069q0,11.37,0,22.719l-24.974-.43q-13.711-.236-28.86-.5Z" transform="translate(-285.134 -357.273)" fill="#067c96" fill-rule="evenodd"/>
              <path id="Trazado_209450" data-name="Trazado 209450" d="M287.517,365.273l20.82,1.15,18.753,1.036v3.718l-18.753-.839-20.82-.933Z" transform="translate(-284.172 -354.044)" fill="#0393b0" fill-rule="evenodd"/>
              <g id="Grupo_175979" data-name="Grupo 175979" transform="translate(3.345 3.454)">
                <path id="Trazado_209451" data-name="Trazado 209451" d="M287.517,359.734l20.82,1.559q9.7.724,18.751,1.4v3.738q-9.051-.585-18.751-1.208l-20.82-1.341Z" transform="translate(-287.517 -359.734)" fill="#0393b0" fill-rule="evenodd"/>
                <path id="Trazado_209452" data-name="Trazado 209452" d="M287.517,370.8l20.82.742q9.7.345,18.753.67v3.717l-18.751-.473-20.822-.526Z" transform="translate(-287.517 -355.268)" fill="#0393b0" fill-rule="evenodd"/>
              </g>
              <path id="Trazado_209453" data-name="Trazado 209453" d="M320.2,366.272c1.1.063,1.986,1.412,1.986,3.008s-.883,2.876-1.986,2.831-2.011-1.416-2.011-3.032S319.094,366.207,320.2,366.272Z" transform="translate(-271.792 -353.642)" fill="#3ab54a" fill-rule="evenodd"/>
            </g>
            <g id="Grupo_175982" data-name="Grupo 175982" transform="translate(3.641 108.051)">
              <path id="Trazado_209454" data-name="Trazado 209454" d="M338.97,380.728l-24.975-.015-28.86-.017V406.93L314,405.052l24.977-1.624Q338.97,392.088,338.97,380.728Z" transform="translate(-285.134 -380.696)" fill="#067c96" fill-rule="evenodd"/>
              <path id="Trazado_209455" data-name="Trazado 209455" d="M332.505,387.563l-17.861.481-19.783.535v4.044l19.783-.741q9.224-.345,17.861-.67Z" transform="translate(-281.208 -377.924)" fill="#0393b0" fill-rule="evenodd"/>
              <g id="Grupo_175981" data-name="Grupo 175981" transform="translate(13.653 2.824)">
                <path id="Trazado_209456" data-name="Trazado 209456" d="M332.5,382.708l-17.861.132q-9.54.072-19.782.147v4.023l19.782-.354q9.226-.164,17.863-.317Q332.5,384.522,332.5,382.708Z" transform="translate(-294.861 -382.708)" fill="#0393b0" fill-rule="evenodd"/>
                <path id="Trazado_209457" data-name="Trazado 209457" d="M332.507,392.418q-8.641.4-17.863.832l-19.783.921c0,1.362,0,2.7,0,4.044l19.782-1.129q9.224-.526,17.863-1.018Z" transform="translate(-294.861 -378.789)" fill="#0393b0" fill-rule="evenodd"/>
              </g>
              <path id="Trazado_209458" data-name="Trazado 209458" d="M290.855,387.561c-1.38.035-2.51,1.52-2.51,3.336s1.13,3.227,2.51,3.171,2.479-1.538,2.479-3.334S292.232,387.53,290.855,387.561Z" transform="translate(-283.838 -377.925)" fill="#3ab54a" fill-rule="evenodd"/>
            </g>
            <g id="Grupo_175984" data-name="Grupo 175984" transform="translate(3.641 137.438)">
              <path id="Trazado_209459" data-name="Trazado 209459" d="M285.134,406.169,314,403.736q13.071-1.1,24.975-2.1,0,11.367,0,22.7L314,428.075q-13.711,2.055-28.863,4.327Z" transform="translate(-285.134 -401.632)" fill="#067c96" fill-rule="evenodd"/>
              <path id="Trazado_209460" data-name="Trazado 209460" d="M287.513,413.724q10.788-1.2,20.829-2.329l18.754-2.1c0,1.258,0,2.5,0,3.738l-18.756,2.295-20.829,2.546Z" transform="translate(-284.174 -398.538)" fill="#0393b0" fill-rule="evenodd"/>
              <g id="Grupo_175983" data-name="Grupo 175983" transform="translate(3.339 3.78)">
                <path id="Trazado_209461" data-name="Trazado 209461" d="M287.513,407.979l20.829-1.922q9.7-.895,18.754-1.732v3.72q-9.056.928-18.754,1.926-10.028,1.03-20.829,2.138Z" transform="translate(-287.513 -404.325)" fill="#0393b0" fill-rule="evenodd"/>
                <path id="Trazado_209462" data-name="Trazado 209462" d="M287.513,419.471l20.829-2.737L327.1,414.27v3.737l-18.754,2.661q-10.028,1.423-20.83,2.956Z" transform="translate(-287.513 -400.311)" fill="#0393b0" fill-rule="evenodd"/>
              </g>
              <path id="Trazado_209463" data-name="Trazado 209463" d="M320.2,408.1c1.1-.121,1.986,1.071,1.986,2.677s-.884,3.005-1.985,3.141-2.006-1.051-2.006-2.674S319.1,408.22,320.2,408.1Z" transform="translate(-271.789 -399.024)" fill="#3ab54a" fill-rule="evenodd"/>
            </g>
            <g id="Grupo_175986" data-name="Grupo 175986" transform="translate(3.641 165.886)">
              <path id="Trazado_209464" data-name="Trazado 209464" d="M338.977,421.9q-11.909,1.986-24.978,4.159-13.713,2.284-28.865,4.808v26.255q15.157-3.52,28.866-6.7l24.978-5.8Q338.976,433.277,338.977,421.9Z" transform="translate(-285.134 -421.899)" fill="#067c96" fill-rule="evenodd"/>
              <path id="Trazado_209465" data-name="Trazado 209465" d="M332.509,429.059q-8.63,1.676-17.863,3.468l-19.783,3.842v4.024l19.783-4.05q9.226-1.889,17.863-3.654Z" transform="translate(-281.207 -419.009)" fill="#0393b0" fill-rule="evenodd"/>
              <g id="Grupo_175985" data-name="Grupo 175985" transform="translate(13.656 3.216)">
                <path id="Trazado_209466" data-name="Trazado 209466" d="M332.509,424.19l-17.863,3.117-19.783,3.454v4.045q10.237-1.9,19.783-3.661,9.226-1.71,17.863-3.306Z" transform="translate(-294.863 -424.19)" fill="#0393b0" fill-rule="evenodd"/>
                <path id="Trazado_209467" data-name="Trazado 209467" d="M332.509,433.914q-8.628,1.847-17.863,3.819-9.532,2.036-19.783,4.228v4.024l19.784-4.437q9.226-2.065,17.863-4Q332.51,435.73,332.509,433.914Z" transform="translate(-294.863 -420.265)" fill="#0393b0" fill-rule="evenodd"/>
              </g>
              <path id="Trazado_209468" data-name="Trazado 209468" d="M290.856,434.327c-1.38.264-2.51,1.948-2.51,3.755s1.13,3.06,2.51,2.774,2.479-1.985,2.479-3.769S292.233,434.066,290.856,434.327Z" transform="translate(-283.837 -416.896)" fill="#3ab54a" fill-rule="evenodd"/>
            </g>
          </g>
          <path id="Trazado_209469" data-name="Trazado 209469" d="M287.717,303.835l-18.006,7v202.49l18.006,5.924Z" transform="translate(-269.711 -303.669)" fill="#004554" fill-rule="evenodd"/>
        </g>
        <path id="Trazado_209470" data-name="Trazado 209470" d="M287.513,413.724l3.515-.392v4.114l-3.515.43v-4.152Zm4.976-.556,4.062-.455v4.058l-4.062.5v-4.1Zm5.525-.619,4.062-.453v4l-4.062.5v-4.042Zm5.525-.616,4.062-.455v3.941l-4.062.5v-3.984Zm5.525-.619,3.644-.407V414.8l-3.644.445v-3.926Zm5.106-.571,4.061-.453v3.829l-4.061.5v-3.874Zm5.523-.618,3.273-.366v3.781l-3.273.4v-3.815Zm4.735-.529,2.668-.3c0,1.258,0,2.5,0,3.738l-2.67.326Z" transform="translate(-262.525 -261.1)" fill="#31454a" fill-rule="evenodd"/>
        <g id="Grupo_175992" data-name="Grupo 175992" transform="translate(30.625 117.271)">
          <path id="Trazado_209471" data-name="Trazado 209471" d="M309.977,419.263l-7.767-.814-1.948,5.423,7.765.814Z" transform="translate(-288.003 -374.676)" fill="#ffdba7" fill-rule="evenodd"/>
          <path id="Trazado_209472" data-name="Trazado 209472" d="M300.709,417.8l5.069,1.936a.973.973,0,0,1,.6,1.269l-1.611,3.429c-.066.142-5.848,1.85-6.255,1.493l-.814-.71c-1.409-1.42-3.064-3.2-3.077-3.613l4.822-3.206C299.9,418.1,300.2,417.609,300.709,417.8Z" transform="translate(-290.281 -374.955)" fill="#ffdba7" fill-rule="evenodd"/>
          <path id="Trazado_209473" data-name="Trazado 209473" d="M302.645,420.849c-.535,1.3.055,3.745-.5,3.965-1.614.444-3.418.858-3.638.664l-.814-.71c-1.409-1.42-3.064-3.2-3.077-3.613l3.543-2.24C298.625,418.624,302.851,420.345,302.645,420.849Z" transform="translate(-290.281 -374.502)" fill="#f0c17d" fill-rule="evenodd"/>
          <path id="Trazado_209474" data-name="Trazado 209474" d="M302.43,422.851l24.369-.683,12.016-15.07,4.086,11.74-13.842,11.847-27.537-1.5Z" transform="translate(-287.495 -379.258)" fill="#dae2e3" fill-rule="evenodd"/>
          <g id="Grupo_175989" data-name="Grupo 175989" transform="translate(4.04 45.427)">
            <path id="Trazado_209475" data-name="Trazado 209475" d="M297.255,420.75h0a.709.709,0,0,1-.069,1.085l-.713.625a.8.8,0,0,1-1.134.1h0a.8.8,0,0,1,.086-1.166l.714-.626A.771.771,0,0,1,297.255,420.75Z" transform="translate(-294.116 -419.268)" fill="#ffdba7" fill-rule="evenodd"/>
            <path id="Trazado_209476" data-name="Trazado 209476" d="M298.368,422.622h0a.658.658,0,0,1-.007.943l-.564.494a.684.684,0,0,1-.943-.007h0a.655.655,0,0,1,.007-.943l.564-.493A.686.686,0,0,1,298.368,422.622Z" transform="translate(-293.499 -418.496)" fill="#ffdba7" fill-rule="evenodd"/>
            <path id="Trazado_209477" data-name="Trazado 209477" d="M296.538,419.857h0a.711.711,0,0,1-.07,1.086l-.714.625a.8.8,0,0,1-1.133.1h0a.8.8,0,0,1,.084-1.166l.716-.623A.774.774,0,0,1,296.538,419.857Z" transform="translate(-294.407 -419.628)" fill="#ffdba7" fill-rule="evenodd"/>
            <path id="Trazado_209478" data-name="Trazado 209478" d="M298.027,421.6h0a.712.712,0,0,1-.07,1.086l-.714.625a.8.8,0,0,1-1.131.1h0a.8.8,0,0,1,.083-1.166l.714-.623A.776.776,0,0,1,298.027,421.6Z" transform="translate(-293.806 -418.924)" fill="#ffdba7" fill-rule="evenodd"/>
          </g>
          <path id="Trazado_209479" data-name="Trazado 209479" d="M364.4,447.5l.327,2.271c.084.681-.22,1.155-.177,1.752.105,1.442.118,2.7.132,4.054.041,3.56-.366,5.835-1.2,6.928-.743.97-1.8,1.349-4.406,2.009L353,464.284c-.327-1.359-.178-1.926.375-2.44,3.4-3.168,3.317-5.146,2.892-9.8-.271-2.967-.111-4.625,1.324-5.408,1.712-.935,3.241-1.186,4.542-.644A7.409,7.409,0,0,1,364.4,447.5Z" transform="translate(-266.787 -363.671)" fill="#131314" fill-rule="evenodd"/>
          <path id="Trazado_209480" data-name="Trazado 209480" d="M324.778,452.682c-4.194,6.071-5.723,6.874-11.831,7.692-1.9.255-2.521.664-2.47,2.67,5.857.446,10.859.4,16.733.341.862-1.4,1.18-2.278,2.726-2.433l.145,2.382h5.206l.26-4.911-1.232-5.257Z" transform="translate(-283.882 -360.858)" fill="#1f1c1d" fill-rule="evenodd"/>
          <path id="Trazado_209481" data-name="Trazado 209481" d="M312.3,437.22l9.564,28.355,12-2.885-4.824-18.353-7.219-13.507C313.81,429.4,311.255,433.057,312.3,437.22Z" transform="translate(-283.234 -369.806)" fill="#22282e" fill-rule="evenodd"/>
          <path id="Trazado_209482" data-name="Trazado 209482" d="M333.171,448.346c5.181,2.3,18.264,5.367,23.55,3.745l-.8-16.977-13.535-3.363-5.508.64L317.782,430c-6.061-.536-5.944,3.878-5.478,7.422l1.8,4.692C321.911,444.17,327.033,445.625,333.171,448.346Z" transform="translate(-283.222 -370.031)" fill="#22282e" fill-rule="evenodd"/>
          <g id="Grupo_175990" data-name="Grupo 175990" transform="translate(31.199)">
            <path id="Trazado_209483" data-name="Trazado 209483" d="M330.566,404.546l-5.713,7.625-.772-.24c-1.938-5.522-1.861-6.353-2.885-12.251l8.051-4.333c.189,2.131.706,3.085,1,5.4A36.761,36.761,0,0,1,330.566,404.546Z" transform="translate(-310.752 -384.001)" fill="#f0c17d" fill-rule="evenodd"/>
            <path id="Trazado_209484" data-name="Trazado 209484" d="M317.462,404.687a.928.928,0,0,1-.152,1.151.778.778,0,0,0,.693.7c1.45-.465,1.123.623,1.011.661-1.047.364-.82.724-.554,1.023.319,0,.48.09.547.234.206.445-.434,1.569.418,2.226,1.026.79,4.949-2.268,6.778-3.683,1.516-1.169.722-2.215.164-3.991.985-.072,1.666-.512,1.4-2.02a22.135,22.135,0,0,0,1.4-5.716s-4.779-7.34-4.986-7.347-6.258,2.082-6.258,2.082c-.5,1.352-1.5,2.71-1.992,4.268a12.834,12.834,0,0,0-.54,4.306,2.031,2.031,0,0,0,.392,1.536,1.726,1.726,0,0,1,.341.547c.32,1.527-.886,3.169-.717,3.576A1.76,1.76,0,0,0,317.462,404.687Z" transform="translate(-313.098 -386.996)" fill="#ffdba7" fill-rule="evenodd"/>
            <path id="Trazado_209485" data-name="Trazado 209485" d="M323.334,399.119a15.735,15.735,0,0,0,.639,1.686c.152.484.239.755.473.881a6.284,6.284,0,0,0,1.023-2.136c.613-1.074,1.506-2.281,2.447-2.191,1.015.1,1.036,1.912.639,3.284a2.158,2.158,0,0,0,.213,1.8c.609.862,1.381.174,2.529.869a13.135,13.135,0,0,1,2.135,2.108,14.07,14.07,0,0,1,.5-5.185c.737-2.368.237-6.693-1.623-8.7l.183.1c-1.481-1.531-1.9-2.145-4.019-2.7a6.5,6.5,0,0,0-6.236-1.446,6.885,6.885,0,0,1,2.23.225c-7.912.218-8.435,6.415-10.713,6.311,2.208,2.47,4.19,1.788,6.738.682a5.938,5.938,0,0,1,2.4,4.955l.382-.678Z" transform="translate(-313.756 -387.264)" fill="#632404" fill-rule="evenodd"/>
          </g>
          <path id="Trazado_209486" data-name="Trazado 209486" d="M356.935,438.843c-1.161-4.8-2.95-7.684-5.4-11.861l-18.35,4.782,1.962,13.138.577,4-5.749,17.634c-.6,1.846-1.092,2.532-.578,4.537,1.049,4.092,5.063,3.919,11.66,2.943,3.861-5.435,8.579-12.29,11.35-17.32C355.883,450.392,358.643,445.913,356.935,438.843Z" transform="translate(-276.33 -371.232)" fill="#333d45" fill-rule="evenodd"/>
          <path id="Trazado_209487" data-name="Trazado 209487" d="M331.017,400.495c7.262,2.646,10.172,3.609,12.878,7.206,5.41,7.192,5.877,14.08,8.1,21.263s1.037,6.563,3.749,11.76c-6.545,4.424-12.059,6.663-18.9,7.71-5.13-4.914-6.954-7.543-8.15-13.582-7.041-9.26-4.831-12.283-5.3-23.507Z" transform="translate(-278.667 -381.924)" fill="#e4eced" fill-rule="evenodd"/>
          <path id="Trazado_209488" data-name="Trazado 209488" d="M323.976,406.961l2.4,3.478c-.174,1.093-.691,1.8-.794,2.941l1.711,6.523c1.168,6.862,2.184,9.938,5.834,18.8-6.34-8.454-7.991-14.456-9.049-25.176a8.91,8.91,0,0,1-.748-6.517Z" transform="translate(-278.823 -379.314)" fill="#333d45" fill-rule="evenodd"/>
          <path id="Trazado_209489" data-name="Trazado 209489" d="M329.378,399.285a23.476,23.476,0,0,1-6.467,10.7L325.8,414.3a20.471,20.471,0,0,0,5.856-13.394Z" transform="translate(-278.861 -382.412)" fill="#ebf4f5" fill-rule="evenodd"/>
          <path id="Trazado_209490" data-name="Trazado 209490" d="M342.314,465.873l26.153-8.94-.124-10.554-11.212.467-25.249,9.271-2.694,5.584C327.673,468.225,336.5,467.734,342.314,465.873Z" transform="translate(-276.397 -363.402)" fill="#333d45" fill-rule="evenodd"/>
          <path id="Trazado_209491" data-name="Trazado 209491" d="M346.3,421.281c1.586,5.39,3.08,16.587.782,18.9-2.643,2.371-7.517-.536-8.324-3.978-2.128-9.056-4.7-11.827-8.155-20.913-2.285-6.013-1.915-9.7,2.365-11.231C340.623,401.335,345.006,416.879,346.3,421.281Z" transform="translate(-276.316 -380.612)" fill="#ebf4f5" fill-rule="evenodd"/>
          <path id="Trazado_209492" data-name="Trazado 209492" d="M294.662,412.8a8.576,8.576,0,0,1,1.712.192,1.846,1.846,0,0,1,1.5,1.242,19.588,19.588,0,0,1,.56,3.475,12.344,12.344,0,0,0,1.454,5.368l0,0c1.555,2.809,5.432,3.971,10.578,5.515,1.077.321,2.205.66,3.314,1.011,3.257,1.034,5.877,1.868,8.053,2.671a28.214,28.214,0,0,1,5.32,2.463c6.949,4.389,10.6,11.847,14.41,19.646,5.087,10.405,10.482,21.442,24.557,25.968,5.087,1.637,23.178,1.095,28.891.719l.119,1.9c-6.024.4-24.2.928-29.593-.807-14.842-4.772-20.422-16.186-25.681-26.946-3.692-7.55-7.222-14.766-13.716-18.868a26.517,26.517,0,0,0-4.963-2.287c-2.1-.775-4.718-1.609-7.971-2.64-1.179-.373-2.257-.7-3.282-1-5.568-1.669-9.764-2.928-11.7-6.427h0a13.962,13.962,0,0,1-1.677-6.106c-.069-.712-.139-1.432-.278-2.178-.108-.578-.1-.726-.317-.827a4.261,4.261,0,0,0-1.35-.182Z" transform="translate(-290.291 -376.955)" fill="#1cbad9" fill-rule="evenodd"/>
          <path id="Trazado_209493" data-name="Trazado 209493" d="M292.516,412.1l4.3,1.145v1.736l-4.3.72C291.213,415.2,291.187,412.72,292.516,412.1Z" transform="translate(-291.529 -377.238)" fill="#25d4f7" fill-rule="evenodd"/>
          <g id="Grupo_175991" data-name="Grupo 175991" transform="translate(29.126 50.857)">
            <path id="Trazado_209494" data-name="Trazado 209494" d="M326.123,427.281c-1.2-.073-5.08-1.669-6.757-1.843a3.662,3.662,0,0,0-2.316.348c-.86.3-2.16.59-2.3.644a23.686,23.686,0,0,0-1.745,1.6c-.561,1.474-1.086,2.128-.4,2.517.417.237.929-.319,1.868-1.576l.663-.486a3.464,3.464,0,0,0-1.015,1.682,1.217,1.217,0,0,0,1.134,1.564c.268.036.248-.2.347-.472l.262-.724c.834-.272,1.568-.546,2.383-.867a6.473,6.473,0,0,0-2.037,1.241c-.422.51-.036.949.35,1.381.54.6,1.275-.466,2.987-1a4.056,4.056,0,0,0-1.742,1.144c-.323.532.357.828.855.853a31.474,31.474,0,0,0,6.583-.442c.872-.177,1.286-.872,1.877-.842l1.23-3.537Z" transform="translate(-312.279 -422.733)" fill="#ffdba7" fill-rule="evenodd"/>
            <path id="Trazado_209495" data-name="Trazado 209495" d="M348.024,433.336c-8.425,1.377-16.636-.169-25.36.128a21.438,21.438,0,0,0-.932-5.965s17.168-2.2,24.255-3.894C351.207,422.356,353.739,432.293,348.024,433.336Z" transform="translate(-308.464 -423.496)" fill="#ebf4f5" fill-rule="evenodd"/>
          </g>
          <path id="Trazado_209496" data-name="Trazado 209496" d="M301.7,417.161a.856.856,0,0,1,.422.184l2.312,1.836-1.328,1.369a5.377,5.377,0,0,1-2.5-1.29l-1.712.428c-1.328,2-1.238,2.395-2.02,2.044a.809.809,0,0,1-.369-1.077l1.154-2.355h0a.576.576,0,0,1,.378-.317l3.162-.79A1.289,1.289,0,0,1,301.7,417.161Z" transform="translate(-289.552 -375.201)" fill="#ffdba7" fill-rule="evenodd"/>
        </g>
      </g>
    </g>
  </g>
</svg>
