<svg xmlns="http://www.w3.org/2000/svg" width="400" height="237.367" viewBox="0 0 400 237.367">
  <g id="Grupo_176827" data-name="Grupo 176827" transform="translate(-180 -399.568)">
    <g id="Grupo_176664" data-name="Grupo 176664" transform="translate(7095.189 14929.992)">
      <path id="Trazado_212323" data-name="Trazado 212323" d="M567.107,406.617,398.214,504.77l231.1,133.43,168.9-98.153Zm0,.645,19.731,11.392-19.381,11.263.56.323L587.4,418.978h0L608.222,431,588.84,442.261l.561.324,19.382-11.264L629.6,443.34,610.219,454.6l.56.323,19.382-11.264h0l20.82,12.021L631.6,466.948l.56.323,19.382-11.263,20.819,12.02-19.381,11.263.558.322,19.381-11.263h0l20.822,12.02-19.382,11.264.56.323L694.3,480.694l20.819,12.02.06-.035-.059.034-19.383,11.264.561.324,19.383-11.264.275-.16h0l-.276.161,19.729,11.39-19.382,11.263.56.323,19.382-11.263h0l20.82,12.021-19.381,11.263.558.322L757.346,517.1l20.82,12.02-19.382,11.264.561.324,19.382-11.264L797.1,540.047l-19.382,11.264h0L759.345,540.7l-.561-.324-20.819-12.02-.559-.323-20.821-12.021-.559-.323L696.3,504.3l-.561-.324-20.819-12.02-.559-.323-20.821-12.021-.559-.323-20.819-12.02-.559-.323-20.821-12.021-.559-.323L589.4,442.585l-.561-.324-20.819-12.02-.559-.323-19.732-11.392ZM525.2,455.125l20.853-12.118h0l20.819,12.02.514.3-.514-.3-20.854,12.118L525.2,455.126l-.559-.323L504.91,443.412l20.853-12.12,19.73,11.391L524.64,454.8ZM418.71,493.506l19.729,11.39-19.38,11.263h0L399.33,504.77ZM610.382,626.621,589.561,614.6h0l19.38-11.263h0l20.818,12.019-19.38,11.263ZM589,614.278h0l-20.82-12.021h0l19.38-11.263h0l20.821,12.021Zm-21.381-12.344h0l-19.731-11.39,0,0,19.38-11.263h0L587,590.671Zm-41.669-24.058h0l-20.819-12.022h0l19.38-11.263h0l20.82,12.02Zm-21.379-12.343h0l-20.82-12.019h0l19.38-11.263h0l20.819,12.02ZM483.2,553.19h0l-20.819-12.02h0l19.38-11.263h0l20.82,12.02Zm-21.38-12.344h0L441,528.828h0l19.38-11.263h0L481.2,529.583ZM440.438,528.5h0l-20.818-12.021h0L439,505.22h0l20.819,12.02Zm188.877,109.05-18.372-10.608h0l19.38-11.263h0L648.7,626.29Zm19.94-11.586h0l-18.373-10.608-.561-.324L609.5,603.015l-.559-.323-20.821-12.021-.559-.323-19.73-11.391-.561-.324-20.819-12.02-.559-.323L525.073,554.27l-.559-.323-20.819-12.02-.559-.323-20.821-12.021-.559-.323-20.819-12.02-.561-.324L439.556,504.9l-.559-.323-19.73-11.391h0l20.853-12.12h0l19.73,11.391L439,504.573l.56.323,20.854-12.119h0l20.819,12.02-20.854,12.119.561.324,20.854-12.119h0l20.818,12.019-20.854,12.119.56.323,20.854-12.119h0l20.82,12.02L503.135,541.6l.56.323,20.854-12.119h0l20.819,12.02-20.854,12.119.558.322,20.854-12.119h0l20.82,12.02L545.893,566.29l.56.323,20.854-12.119h0l20.819,12.02-20.854,12.119.561.324,20.854-12.119h0l19.729,11.391-20.854,12.119.56.323,20.854-12.119h0L629.8,590.572l-20.854,12.119.558.322,20.854-12.119h0l20.819,12.02L630.32,615.034l.561.324,20.854-12.119h0l18.372,10.607h0Zm21.409-12.442-18.372-10.607-.561-.324-20.819-12.02-.559-.323-20.821-12.021-.559-.323-19.73-11.391-.561-.324-20.819-12.02-.559-.323-20.821-12.021-.559-.323L525.1,529.485l-.559-.323-20.821-12.021-.559-.323L482.346,504.8l-.561-.324-20.819-12.02-.559-.323L440.675,480.74l20.856-12.12h0l19.73,11.391-20.855,12.12.56.323,20.855-12.12h0l20.819,12.02-20.855,12.12.561.324,20.855-12.12h0L524.019,504.7l-20.856,12.12.56.323,20.856-12.12h0l20.82,12.021-20.855,12.12.56.323,20.856-12.12h0l20.819,12.02L545.923,541.5l.558.322,20.856-12.12h0l20.82,12.02L567.3,553.848l.56.323,20.855-12.12h0l20.819,12.02-20.855,12.12.561.324,20.855-12.12h0l19.729,11.391-20.855,12.12.56.323,20.856-12.12h0l20.821,12.021-20.855,12.12.558.322,20.855-12.12h0l20.819,12.02-20.856,12.12.561.324,20.855-12.12h0L691.52,601.4h0Zm21.412-12.443L673.7,590.474l-.561-.324-20.819-12.02-.559-.323-20.821-12.021-.559-.323-19.73-11.391-.561-.324-20.819-12.02-.559-.323-20.821-12.021-.559-.323-20.819-12.02-.559-.323L525.135,504.7l-.559-.323-20.819-12.02-.561-.324-20.819-12.02-.559-.323L462.086,468.3l20.856-12.12,19.73,11.391-20.856,12.12.56.323,20.856-12.12h0l20.819,12.02L503.2,492.032l.561.324,20.856-12.12h0l20.818,12.019-20.856,12.12.56.323,20.856-12.12h0l20.82,12.02-20.856,12.12.56.323,20.856-12.12h0l20.819,12.02-20.856,12.12.558.322,20.856-12.12h0l20.82,12.02-20.856,12.12.56.323,20.856-12.12h0l20.819,12.02-20.856,12.12.561.324,20.856-12.12h0l19.729,11.391-20.856,12.12.56.323,20.856-12.12h0l20.821,12.021-20.856,12.12.558.322,20.856-12.12h0L694,578.029l-20.856,12.12.561.324,20.856-12.12h0l18.373,10.608h0Zm21.411-12.443h0l-18.373-10.608-.561-.324-20.819-12.02-.559-.323-20.821-12.021-.559-.323-19.73-11.391-.561-.324-20.819-12.02-.559-.323L589.3,516.942l-.559-.323L567.926,504.6l-.559-.323-20.821-12.021-.559-.323-20.819-12.02-.561-.324-20.819-12.02-.559-.323L483.5,455.854l20.854-12.119,19.73,11.391-20.853,12.118.56.323,20.853-12.118h0l20.819,12.02-20.853,12.118.561.324,20.853-12.118h0l20.818,12.019-20.853,12.118.56.323L567.4,480.136h0l20.82,12.02-20.853,12.118.56.323L588.78,492.48h0L609.6,504.5l-20.853,12.118.558.322,20.853-12.118h0l20.82,12.02-20.853,12.118.56.323,20.853-12.118h0l20.819,12.02L631.5,541.3l.561.324,20.853-12.118h0L672.648,540.9,651.8,553.019l.559.323,20.853-12.118h0l20.821,12.021-20.853,12.118.558.322,20.853-12.118h0l20.818,12.02-20.853,12.119.561.324,20.853-12.118h0l18.373,10.607h0ZM734.9,576.2l-18.373-10.607-.561-.324-20.819-12.02-.559-.323L673.765,540.9l-.559-.323-19.73-11.391-.561-.324L632.1,516.843l-.559-.323L610.716,504.5l-.559-.323-20.819-12.02-.559-.323-20.821-12.021-.559-.323L546.58,467.47l20.854-12.119,20.818,12.019L567.4,479.489l.559.323,20.853-12.119h0l20.82,12.02-20.853,12.119.56.323,20.853-12.119h0l20.819,12.02-20.853,12.119.558.322,20.853-12.119h0l20.82,12.02-20.853,12.119.56.323,20.853-12.118h0l20.819,12.02-20.853,12.118.561.324,20.853-12.119h0l19.729,11.391-20.853,12.119.56.323,20.853-12.119h0L715.439,540.8l-20.853,12.119.558.322L716,541.125h0l20.818,12.02-20.853,12.119.561.324,20.853-12.119h0l18.373,10.608h0Zm21.41-12.442-18.373-10.608-.561-.324L716.554,540.8,716,540.48l-20.821-12.021-.559-.323-19.73-11.391-.561-.324L653.505,504.4l-.559-.323-20.821-12.021-.559-.323-20.819-12.02-.559-.323-20.821-12.021-.559-.323-20.819-12.02-.561-.324-20.819-12.02-.559-.323L526.318,430.97h0l20.856-12.121h0l19.73,11.391L546.05,442.36l.56.323,20.855-12.12h0l20.819,12.02L567.429,454.7l.561.324,20.855-12.12h0l20.818,12.019-20.855,12.119.56.323,20.854-12.119h0l20.82,12.02-20.855,12.119.56.323L631.6,467.594h0l20.819,12.02-20.855,12.12.558.322,20.855-12.119h0l20.82,12.02-20.855,12.119.56.323,20.855-12.119h0L695.18,504.3,674.325,516.42l.561.324,20.855-12.119h0l19.729,11.391-20.855,12.119.56.323,20.855-12.119h0l20.821,12.021L716,540.479l.558.322,20.855-12.119h0l20.819,12.02-20.855,12.119.561.324,20.854-12.119h0l18.373,10.608h0Z" transform="translate(-7313.403 -14931.257)" fill="#dae4ef"/>
      <g id="Grupo_176463" data-name="Grupo 176463" transform="translate(-6615.325 -14459.007)">
        <g id="Grupo_176462" data-name="Grupo 176462" transform="translate(0 0)">
          <path id="Trazado_212324" data-name="Trazado 212324" d="M2624.006,988.582c-.17-2.5-1.409-3.1-2.312-3.2a1.315,1.315,0,0,0-.181-.054,1.33,1.33,0,0,0-1.587,1.067l-3.687,20.649a.612.612,0,0,0,.79.692,2.127,2.127,0,0,0,1.725-1.345C2620.239,1002.538,2624.226,991.839,2624.006,988.582Z" transform="translate(-2606.66 -956.641)" fill="#d7ac94"/>
          <path id="Trazado_212325" data-name="Trazado 212325" d="M2681.04,1138.336a1.581,1.581,0,0,0-1.692-.709,1.33,1.33,0,0,0-.953,1.658l5.813,20.154a.613.613,0,0,0,1.189-.3l-.191-.886C2682.843,1144.053,2682.757,1140.647,2681.04,1138.336Z" transform="translate(-2660.108 -1087.675)" fill="#f3cbb6"/>
          <path id="Trazado_212326" data-name="Trazado 212326" d="M2668.466,990.726c-.843-2.365-2.2-2.6-3.093-2.453a1.375,1.375,0,0,0-.189,0,1.329,1.329,0,0,0-1.238,1.457L2666,1010.6a.613.613,0,0,0,.948.452,2.126,2.126,0,0,0,1.3-1.762C2668.626,1005.18,2669.561,993.8,2668.466,990.726Z" transform="translate(-2647.714 -959.17)" fill="#d7ac94"/>
          <path id="Trazado_212327" data-name="Trazado 212327" d="M2689.467,1290.906a2.954,2.954,0,0,1-1.08-.18c-1.575.2-4.786.907-4.695,1.694.034.29,6.284.167,6.719.122.306-.032.191-.938.1-1.471a.275.275,0,0,0-.322-.22A3.845,3.845,0,0,1,2689.467,1290.906Z" transform="translate(-2664.71 -1219.457)" fill="#3b3e53"/>
          <g id="Grupo_176455" data-name="Grupo 176455" transform="translate(0 28.546)">
            <path id="Trazado_212328" data-name="Trazado 212328" d="M2590.953,1142.475c-.163-.8-.469-1.266-1.131-1.444a1.33,1.33,0,0,0-1.641.982l-4.76,20.428a.614.614,0,0,0,1.184.319l.266-.867C2589.738,1148.345,2591.325,1145.33,2590.953,1142.475Z" transform="translate(-2578.416 -1119.153)" fill="#f3cbb6"/>
            <path id="Trazado_212329" data-name="Trazado 212329" d="M2553.415,1290.906a2.957,2.957,0,0,1-1.08-.18c-1.575.2-4.785.907-4.695,1.694.033.29,6.284.167,6.719.122.306-.032.191-.938.1-1.471a.275.275,0,0,0-.322-.22A3.842,3.842,0,0,1,2553.415,1290.906Z" transform="translate(-2547.638 -1248.003)" fill="#3b3e53"/>
            <path id="Trazado_212330" data-name="Trazado 212330" d="M2598.829,985.6a133.582,133.582,0,0,1-6.44,21.24s1.585,4.454-5.254,18.2l-2.23-.141s4.231-17.772,4.449-19.251,3.389-20.189,3.823-21.157Z" transform="translate(-2579.705 -984.498)" fill="#042c58"/>
          </g>
          <path id="Trazado_212331" data-name="Trazado 212331" d="M2661.908,975.7s.933,6.9-.261,21.879c0,0,3.119,3.8,4.171,18.675l-2.362-.025s-5.024-16.987-5.1-17.739-2.612-23.678-2.612-23.678Z" transform="translate(-2640.662 -947.615)" fill="#042c58"/>
          <path id="Trazado_212332" data-name="Trazado 212332" d="M2580.768,810.814a1.38,1.38,0,0,0,1.856-1.175c.245-.464-.26-1.358-.849-1.61l-13.42-4.956c-.208-.1-1.027.354-1.135.558a.428.428,0,0,0-.049.214c-.082.536.872,1.1,1.346,1.387C2570.844,806.637,2578.537,810.346,2580.768,810.814Z" transform="translate(-2564.441 -799.825)" fill="#fff"/>
          <g id="Grupo_176456" data-name="Grupo 176456" transform="translate(12.526 7.222)">
            <path id="Trazado_212333" data-name="Trazado 212333" d="M2647.013,850.378c.072-.522.14-1.054.2-1.576.042-.345.08-.7.12-1.042.09-.77.178-1.55.262-2.309.04-.359.076-.735.109-1.07.083-.83.166-1.737.227-2.519.026-.338.07-.7.08-.931.062-1.5.184-2.968.152-4.39a7.026,7.026,0,0,0-.135-2.058c-.669-2.55-2.716-3.6-5.147-2.244a2.537,2.537,0,0,0-.438.3c-.966.956-1.721,1.489-1.693,3.082a30.677,30.677,0,0,1-.96,6.056c-.025.116-.1.563-.145.815-.068.359-.152.813-.23,1.245-.109.6-.238,1.283-.348,1.929-.067.39-.144.83-.219,1.244-.134.732-.267,1.5-.4,2.236-.037.206-.078.421-.119.626-.032.159-.062.314-.093.472-.075.373-.154.767-.235,1.133-.071.319-.149.608-.232.917-.112.416-.225.83-.344,1.246a7.53,7.53,0,0,0,2.8.191,21.065,21.065,0,0,1,4.681-.382,9.658,9.658,0,0,1,1.52.378c.168-.792.314-1.591.446-2.394C2646.925,851.021,2646.969,850.7,2647.013,850.378Z" transform="translate(-2637.427 -831.644)" fill="#fff"/>
          </g>
          <g id="Grupo_176457" data-name="Grupo 176457" transform="translate(16.054)">
            <path id="Trazado_212334" data-name="Trazado 212334" d="M2662.8,806.167a2.394,2.394,0,0,1,.861-1.529c.751-.542.584.432.584.432Z" transform="translate(-2662.787 -801.043)" fill="#ffe4a9"/>
            <path id="Trazado_212335" data-name="Trazado 212335" d="M2695.175,821.84c-.081.058-1.429,1.259-1.7,1.153-.367-.145.34-1.248.34-1.248Z" transform="translate(-2689.095 -815.904)" fill="#ffe4a9"/>
            <path id="Trazado_212336" data-name="Trazado 212336" d="M2680.169,781.5a1.863,1.863,0,0,1,.594-1.323c.537-.367,1.3-.657,3.07.742a.668.668,0,0,1,.175.836l-.426.806Z" transform="translate(-2677.733 -779.879)" fill="#ffe4a9"/>
            <path id="Trazado_212337" data-name="Trazado 212337" d="M2669.516,789.242c-.782,1.076-1.51,1.91-2.507,2.02a2.521,2.521,0,0,1-1.926-.567,1.641,1.641,0,0,1-.677-1.745,7.492,7.492,0,0,1,1.37-2.426c1.228-1.69,2.69-1.941,3.723-1.191S2670.745,787.553,2669.516,789.242Z" transform="translate(-2664.13 -784.228)" fill="#f3cbb6"/>
            <path id="Trazado_212338" data-name="Trazado 212338" d="M2685.382,809.692l-2.141-.476a34.9,34.9,0,0,0-.657,4.17c.039.338.561.554,1.166.483.543-.063.965-.338,1.017-.638h0A28.855,28.855,0,0,1,2685.382,809.692Z" transform="translate(-2679.811 -805.123)" fill="#f3cbb6"/>
            <path id="Trazado_212339" data-name="Trazado 212339" d="M2700.168,793.009a1.047,1.047,0,0,1-.739-.754,7.127,7.127,0,0,1,.09-2.932c.295-1.089.714-1.2.714-1.2s1.779,1.136,1.847,1.966C2702.181,791.333,2700.168,793.009,2700.168,793.009Z" transform="translate(-2694.205 -786.974)" fill="#ffe4a9"/>
            <path id="Trazado_212340" data-name="Trazado 212340" d="M2668.086,806.809l-1.791,2.467a.8.8,0,0,1-.828.311l-.36-.082a.361.361,0,0,1-.248-.5l.255-.567a.311.311,0,0,0-.082-.366l-1.053-.9a.313.313,0,0,0-.394-.009l-.486.376a1,1,0,0,0-.084,1.5l.605.586a1.1,1.1,0,0,0,.459.267l.039.011.024.005h0l.278.064h0l.909.208a1.419,1.419,0,0,0,1.466-.55l1.791-2.466Z" transform="translate(-2662.712 -803.052)" fill="#ffe4a9"/>
            <path id="Trazado_212341" data-name="Trazado 212341" d="M2698.05,814.153a1.133,1.133,0,0,1-1.233.383c-.266-.191-.119-.537.146-.9s.727-.556.993-.365A.584.584,0,0,1,2698.05,814.153Z" transform="translate(-2691.938 -808.544)" fill="#f3cbb6"/>
            <path id="Trazado_212342" data-name="Trazado 212342" d="M2685.227,783.891l-1.1-.781a1.874,1.874,0,0,0-1.265-.341l-.611.057,1.243-.659,1.117.3,1.058.882Z" transform="translate(-2679.529 -781.848)" fill="#ffe4a9"/>
          </g>
          <g id="Grupo_176459" data-name="Grupo 176459" transform="translate(15.833 9.706)">
            <g id="Grupo_176458" data-name="Grupo 176458">
              <path id="Trazado_212343" data-name="Trazado 212343" d="M2664.724,849.6c-.959,4.389.651,8.334-.814,12.816-.6.451-1.235.861-1.861,1.277a22.806,22.806,0,0,1-.92-2.166c2.061-4.227,1.3-7.983,2.744-12.082C2664.158,849.5,2664.44,849.55,2664.724,849.6Z" transform="translate(-2661.129 -849.448)" fill="#ffb30b"/>
            </g>
          </g>
          <path id="Trazado_212344" data-name="Trazado 212344" d="M2695.6,846.322a1.425,1.425,0,0,1,.593-2.055,1.327,1.327,0,0,1,1.677.16l7.909,9.971c.144.146-.122.422-.279.59a.473.473,0,0,1-.182.121,1.572,1.572,0,0,1-1.538-.069A42.971,42.971,0,0,1,2695.6,846.322Z" transform="translate(-2674.754 -835.085)" fill="#fff"/>
          <path id="Trazado_212345" data-name="Trazado 212345" d="M2687.354,1001.311a1.608,1.608,0,0,0-1.425-.12c-1.2.474-3.433,1.444-3.693,2.194-.358,1.033,3.691.1,5.362-1.926Z" transform="translate(-2663.44 -970.219)" fill="#f3cbb6"/>
          <g id="Grupo_176460" data-name="Grupo 176460" transform="translate(22.695 19.064)">
            <path id="Trazado_212346" data-name="Trazado 212346" d="M2710.316,928.268c1.215-3.078,4.86-9.4,6.3-10.958,1.2-1.293,1.957-.589,2-.57a1.355,1.355,0,0,1,.387,1.719L2711.695,929Z" transform="translate(-2710.316 -916.532)" fill="#fff"/>
          </g>
          <path id="Trazado_212347" data-name="Trazado 212347" d="M2652.541,786.161a1.607,1.607,0,0,1,1.235-.72c1.287-.087,3.72-.17,4.277.4.767.779-3.293,1.67-5.67.562Z" transform="translate(-2637.77 -784.612)" fill="#e8c3af"/>
          <g id="Grupo_176461" data-name="Grupo 176461" transform="translate(2.824 0.846)">
            <path id="Trazado_212348" data-name="Trazado 212348" d="M2580.127,785.942a49,49,0,0,0-11.16,2.03c-1.44.627-1.037,1.492-1.032,1.533a1.283,1.283,0,0,0,1.378.858l11.077-3.017Z" transform="translate(-2567.879 -785.942)" fill="#fff"/>
          </g>
        </g>
      </g>
      <g id="Grupo_176596" data-name="Grupo 176596" transform="translate(-6792.981 -14517.544)">
        <g id="Grupo_176480" data-name="Grupo 176480" transform="translate(50.303 0)">
          <g id="Grupo_176468" data-name="Grupo 176468" transform="translate(0 59.435)">
            <g id="Grupo_176467" data-name="Grupo 176467" style="isolation: isolate">
              <g id="Grupo_176464" data-name="Grupo 176464" transform="translate(0.075)">
                <path id="Trazado_212349" data-name="Trazado 212349" d="M1681.335,799.656,1658.4,812.987l-23.089-13.33,22.939-13.331Z" transform="translate(-1635.308 -786.326)" fill="#fff4da"/>
              </g>
              <g id="Grupo_176465" data-name="Grupo 176465" transform="translate(23.089 13.33)">
                <path id="Trazado_212350" data-name="Trazado 212350" d="M1823.281,881.877l-.075,26.531-22.939,13.331.075-26.531Z" transform="translate(-1800.267 -881.877)" fill="#ffb30b"/>
              </g>
              <g id="Grupo_176466" data-name="Grupo 176466" transform="translate(0 13.331)">
                <path id="Trazado_212351" data-name="Trazado 212351" d="M1657.933,895.21l-.075,26.531-23.089-13.33.075-26.531Z" transform="translate(-1634.769 -881.88)" fill="#ffe4a9"/>
              </g>
            </g>
          </g>
          <g id="Grupo_176473" data-name="Grupo 176473" transform="translate(0 29.718)">
            <g id="Grupo_176472" data-name="Grupo 176472" style="isolation: isolate">
              <g id="Grupo_176469" data-name="Grupo 176469" transform="translate(0.075)">
                <path id="Trazado_212352" data-name="Trazado 212352" d="M1681.335,586.641,1658.4,599.971l-23.089-13.33,22.939-13.331Z" transform="translate(-1635.308 -573.31)" fill="#fff4da"/>
              </g>
              <g id="Grupo_176470" data-name="Grupo 176470" transform="translate(23.089 13.33)">
                <path id="Trazado_212353" data-name="Trazado 212353" d="M1823.281,668.861l-.075,26.531-22.939,13.331.075-26.531Z" transform="translate(-1800.267 -668.861)" fill="#ffb30b"/>
              </g>
              <g id="Grupo_176471" data-name="Grupo 176471" transform="translate(0 13.331)">
                <path id="Trazado_212354" data-name="Trazado 212354" d="M1657.933,682.194l-.075,26.531-23.089-13.33.075-26.531Z" transform="translate(-1634.769 -668.864)" fill="#ffe4a9"/>
              </g>
            </g>
          </g>
          <g id="Grupo_176479" data-name="Grupo 176479">
            <g id="Grupo_176478" data-name="Grupo 176478" style="isolation: isolate">
              <g id="Grupo_176475" data-name="Grupo 176475" transform="translate(0.075)">
                <g id="Grupo_176474" data-name="Grupo 176474">
                  <path id="Trazado_212355" data-name="Trazado 212355" d="M1681.335,373.625,1658.4,386.956l-23.089-13.33,22.939-13.331Z" transform="translate(-1635.308 -360.295)" fill="#fff4da"/>
                </g>
              </g>
              <g id="Grupo_176476" data-name="Grupo 176476" transform="translate(23.089 13.33)">
                <path id="Trazado_212356" data-name="Trazado 212356" d="M1823.281,455.845l-.075,26.531-22.939,13.331.075-26.531Z" transform="translate(-1800.267 -455.845)" fill="#ffb30b"/>
              </g>
              <g id="Grupo_176477" data-name="Grupo 176477" transform="translate(0 13.331)">
                <path id="Trazado_212357" data-name="Trazado 212357" d="M1657.933,469.179l-.075,26.531-23.089-13.33.075-26.531Z" transform="translate(-1634.769 -455.849)" fill="#ffe4a9"/>
              </g>
            </g>
          </g>
        </g>
        <g id="Grupo_176496" data-name="Grupo 176496" transform="translate(75.677 14.875)">
          <g id="Grupo_176485" data-name="Grupo 176485" transform="translate(0 59.435)">
            <g id="Grupo_176484" data-name="Grupo 176484" style="isolation: isolate">
              <g id="Grupo_176481" data-name="Grupo 176481" transform="translate(0.075)">
                <path id="Trazado_212358" data-name="Trazado 212358" d="M1863.22,906.278l-22.939,13.331-23.089-13.33,22.939-13.331Z" transform="translate(-1817.193 -892.948)" fill="#fff4da"/>
              </g>
              <g id="Grupo_176482" data-name="Grupo 176482" transform="translate(23.089 13.33)">
                <path id="Trazado_212359" data-name="Trazado 212359" d="M2005.166,988.5l-.075,26.531-22.939,13.331.075-26.531Z" transform="translate(-1982.152 -988.499)" fill="#ffb30b"/>
              </g>
              <g id="Grupo_176483" data-name="Grupo 176483" transform="translate(0 13.331)">
                <path id="Trazado_212360" data-name="Trazado 212360" d="M1839.817,1001.832l-.075,26.531-23.089-13.33.075-26.531Z" transform="translate(-1816.653 -988.502)" fill="#ffe4a9"/>
              </g>
            </g>
          </g>
          <g id="Grupo_176490" data-name="Grupo 176490" transform="translate(0 29.718)">
            <g id="Grupo_176489" data-name="Grupo 176489" style="isolation: isolate">
              <g id="Grupo_176486" data-name="Grupo 176486" transform="translate(0.075)">
                <path id="Trazado_212361" data-name="Trazado 212361" d="M1863.22,693.263l-22.939,13.331-23.089-13.33,22.939-13.331Z" transform="translate(-1817.193 -679.933)" fill="#fff4da"/>
              </g>
              <g id="Grupo_176487" data-name="Grupo 176487" transform="translate(23.089 13.33)">
                <path id="Trazado_212362" data-name="Trazado 212362" d="M2005.166,775.483l-.075,26.531-22.939,13.331.075-26.531Z" transform="translate(-1982.152 -775.483)" fill="#ffb30b"/>
              </g>
              <g id="Grupo_176488" data-name="Grupo 176488" transform="translate(0 13.331)">
                <path id="Trazado_212363" data-name="Trazado 212363" d="M1839.817,788.817l-.075,26.531-23.089-13.33.075-26.531Z" transform="translate(-1816.653 -775.486)" fill="#ffe4a9"/>
              </g>
            </g>
          </g>
          <g id="Grupo_176495" data-name="Grupo 176495">
            <g id="Grupo_176494" data-name="Grupo 176494" style="isolation: isolate">
              <g id="Grupo_176491" data-name="Grupo 176491" transform="translate(0.075)">
                <path id="Trazado_212364" data-name="Trazado 212364" d="M1863.22,480.247l-22.939,13.331-23.089-13.33,22.939-13.331Z" transform="translate(-1817.193 -466.917)" fill="#fff4da"/>
              </g>
              <g id="Grupo_176492" data-name="Grupo 176492" transform="translate(23.089 13.33)">
                <path id="Trazado_212365" data-name="Trazado 212365" d="M2005.166,562.468,2005.091,589l-22.939,13.331.075-26.531Z" transform="translate(-1982.152 -562.468)" fill="#ffb30b"/>
              </g>
              <g id="Grupo_176493" data-name="Grupo 176493" transform="translate(0 13.331)">
                <path id="Trazado_212366" data-name="Trazado 212366" d="M1839.817,575.8l-.075,26.531L1816.653,589l.075-26.531Z" transform="translate(-1816.653 -562.471)" fill="#ffe4a9"/>
              </g>
            </g>
          </g>
        </g>
        <g id="Grupo_176507" data-name="Grupo 176507" transform="translate(24.928 44.593)">
          <g id="Grupo_176501" data-name="Grupo 176501" transform="translate(0 29.718)">
            <g id="Grupo_176500" data-name="Grupo 176500" style="isolation: isolate">
              <g id="Grupo_176497" data-name="Grupo 176497" transform="translate(0.075)">
                <path id="Trazado_212367" data-name="Trazado 212367" d="M1499.45,906.278l-22.939,13.331-23.089-13.33,22.939-13.331Z" transform="translate(-1453.423 -892.948)" fill="#fff4da"/>
              </g>
              <g id="Grupo_176498" data-name="Grupo 176498" transform="translate(23.089 13.33)">
                <path id="Trazado_212368" data-name="Trazado 212368" d="M1641.4,988.5l-.075,26.531-22.939,13.331.075-26.531Z" transform="translate(-1618.382 -988.499)" fill="#ffb30b"/>
              </g>
              <g id="Grupo_176499" data-name="Grupo 176499" transform="translate(0 13.331)">
                <path id="Trazado_212369" data-name="Trazado 212369" d="M1476.047,1001.832l-.075,26.531-23.089-13.33.075-26.531Z" transform="translate(-1452.884 -988.502)" fill="#ffe4a9"/>
              </g>
            </g>
          </g>
          <g id="Grupo_176506" data-name="Grupo 176506">
            <g id="Grupo_176505" data-name="Grupo 176505" style="isolation: isolate">
              <g id="Grupo_176502" data-name="Grupo 176502" transform="translate(0.075)">
                <path id="Trazado_212370" data-name="Trazado 212370" d="M1499.45,693.263l-22.939,13.331-23.089-13.33,22.939-13.331Z" transform="translate(-1453.423 -679.933)" fill="#fff4da"/>
              </g>
              <g id="Grupo_176503" data-name="Grupo 176503" transform="translate(23.089 13.33)">
                <path id="Trazado_212371" data-name="Trazado 212371" d="M1641.4,775.483l-.075,26.531-22.939,13.331.075-26.531Z" transform="translate(-1618.382 -775.483)" fill="#ffb30b"/>
              </g>
              <g id="Grupo_176504" data-name="Grupo 176504" transform="translate(0 13.331)">
                <path id="Trazado_212372" data-name="Trazado 212372" d="M1476.047,788.817l-.075,26.531-23.089-13.33.075-26.531Z" transform="translate(-1452.884 -775.486)" fill="#ffe4a9"/>
              </g>
            </g>
          </g>
        </g>
        <g id="Grupo_176523" data-name="Grupo 176523" transform="translate(50.303 29.317)">
          <g id="Grupo_176512" data-name="Grupo 176512" transform="translate(0 59.435)">
            <g id="Grupo_176511" data-name="Grupo 176511" style="isolation: isolate">
              <g id="Grupo_176508" data-name="Grupo 176508" transform="translate(0.075)">
                <path id="Trazado_212373" data-name="Trazado 212373" d="M1681.335,1009.8,1658.4,1023.13l-23.089-13.33,22.939-13.331Z" transform="translate(-1635.308 -996.469)" fill="#fff4da"/>
              </g>
              <g id="Grupo_176509" data-name="Grupo 176509" transform="translate(23.089 13.33)">
                <path id="Trazado_212374" data-name="Trazado 212374" d="M1823.281,1092.02l-.075,26.531-22.939,13.331.075-26.531Z" transform="translate(-1800.267 -1092.02)" fill="#ffb30b"/>
              </g>
              <g id="Grupo_176510" data-name="Grupo 176510" transform="translate(0 13.331)">
                <path id="Trazado_212375" data-name="Trazado 212375" d="M1657.933,1105.353l-.075,26.531-23.089-13.33.075-26.531Z" transform="translate(-1634.769 -1092.023)" fill="#ffe4a9"/>
              </g>
            </g>
          </g>
          <g id="Grupo_176517" data-name="Grupo 176517" transform="translate(0 29.718)">
            <g id="Grupo_176516" data-name="Grupo 176516" style="isolation: isolate">
              <g id="Grupo_176513" data-name="Grupo 176513" transform="translate(0.075)">
                <path id="Trazado_212376" data-name="Trazado 212376" d="M1681.335,796.784,1658.4,810.114l-23.089-13.33,22.939-13.331Z" transform="translate(-1635.308 -783.453)" fill="#fff4da"/>
              </g>
              <g id="Grupo_176514" data-name="Grupo 176514" transform="translate(23.089 13.33)">
                <path id="Trazado_212377" data-name="Trazado 212377" d="M1823.281,879l-.075,26.531-22.939,13.331.075-26.531Z" transform="translate(-1800.267 -879.004)" fill="#ffb30b"/>
              </g>
              <g id="Grupo_176515" data-name="Grupo 176515" transform="translate(0 13.331)">
                <path id="Trazado_212378" data-name="Trazado 212378" d="M1657.933,892.337l-.075,26.531-23.089-13.33.075-26.531Z" transform="translate(-1634.769 -879.007)" fill="#ffe4a9"/>
              </g>
            </g>
          </g>
          <g id="Grupo_176522" data-name="Grupo 176522">
            <g id="Grupo_176521" data-name="Grupo 176521" style="isolation: isolate">
              <g id="Grupo_176518" data-name="Grupo 176518" transform="translate(0.075)">
                <path id="Trazado_212379" data-name="Trazado 212379" d="M1681.335,583.768,1658.4,597.1l-23.089-13.33,22.939-13.331Z" transform="translate(-1635.308 -570.438)" fill="#fff4da"/>
              </g>
              <g id="Grupo_176519" data-name="Grupo 176519" transform="translate(23.089 13.33)">
                <path id="Trazado_212380" data-name="Trazado 212380" d="M1823.281,665.989l-.075,26.531-22.939,13.331.075-26.531Z" transform="translate(-1800.267 -665.989)" fill="#ffb30b"/>
              </g>
              <g id="Grupo_176520" data-name="Grupo 176520" transform="translate(0 13.331)">
                <path id="Trazado_212381" data-name="Trazado 212381" d="M1657.933,679.322l-.075,26.531-23.089-13.33.075-26.531Z" transform="translate(-1634.769 -665.992)" fill="#ffe4a9"/>
              </g>
            </g>
          </g>
        </g>
        <g id="Grupo_176535" data-name="Grupo 176535" transform="translate(100.605 29.492)">
          <g id="Grupo_176528" data-name="Grupo 176528" transform="translate(0 59.435)">
            <g id="Grupo_176527" data-name="Grupo 176527" style="isolation: isolate">
              <g id="Grupo_176524" data-name="Grupo 176524" transform="translate(0.075)">
                <path id="Trazado_212382" data-name="Trazado 212382" d="M2041.9,1011.054l-22.939,13.331-23.089-13.33,22.939-13.331Z" transform="translate(-1995.875 -997.723)" fill="#fff4da"/>
              </g>
              <g id="Grupo_176525" data-name="Grupo 176525" transform="translate(23.089 13.33)">
                <path id="Trazado_212383" data-name="Trazado 212383" d="M2183.849,1093.274l-.075,26.531-22.939,13.331.075-26.531Z" transform="translate(-2160.834 -1093.274)" fill="#ffb30b"/>
              </g>
              <g id="Grupo_176526" data-name="Grupo 176526" transform="translate(0 13.331)">
                <path id="Trazado_212384" data-name="Trazado 212384" d="M2018.5,1106.608l-.075,26.531-23.089-13.33.075-26.531Z" transform="translate(-1995.336 -1093.277)" fill="#ffe4a9"/>
              </g>
            </g>
          </g>
          <g id="Grupo_176534" data-name="Grupo 176534">
            <g id="Grupo_176533" data-name="Grupo 176533" style="isolation: isolate">
              <g id="Grupo_176529" data-name="Grupo 176529" transform="translate(0.075)">
                <path id="Trazado_212385" data-name="Trazado 212385" d="M2041.9,585.023l-22.939,13.331-23.089-13.33,22.939-13.331Z" transform="translate(-1995.875 -571.692)" fill="#fff4da"/>
              </g>
              <g id="Grupo_176531" data-name="Grupo 176531" transform="translate(23.089 13.33)">
                <g id="Grupo_176530" data-name="Grupo 176530">
                  <path id="Trazado_212386" data-name="Trazado 212386" d="M2183.849,667.243l-.075,26.531L2160.834,707.1l.075-26.531Z" transform="translate(-2160.834 -667.243)" fill="#ffb30b"/>
                </g>
              </g>
              <g id="Grupo_176532" data-name="Grupo 176532" transform="translate(0 13.331)">
                <path id="Trazado_212387" data-name="Trazado 212387" d="M2018.5,680.576l-.075,26.531-23.089-13.33.075-26.531Z" transform="translate(-1995.336 -667.246)" fill="#ffe4a9"/>
              </g>
            </g>
          </g>
        </g>
        <g id="Grupo_176551" data-name="Grupo 176551" transform="translate(75.568 43.993)">
          <g id="Grupo_176540" data-name="Grupo 176540" transform="translate(0 59.435)">
            <g id="Grupo_176539" data-name="Grupo 176539" style="isolation: isolate">
              <g id="Grupo_176536" data-name="Grupo 176536" transform="translate(0.075)">
                <path id="Trazado_212388" data-name="Trazado 212388" d="M1862.434,1115l-22.939,13.331L1816.406,1115l22.939-13.331Z" transform="translate(-1816.406 -1101.666)" fill="#fff4da"/>
              </g>
              <g id="Grupo_176537" data-name="Grupo 176537" transform="translate(23.089 13.33)">
                <path id="Trazado_212389" data-name="Trazado 212389" d="M2004.38,1197.216l-.075,26.531-22.939,13.331.075-26.531Z" transform="translate(-1981.366 -1197.216)" fill="#ffb30b"/>
              </g>
              <g id="Grupo_176538" data-name="Grupo 176538" transform="translate(0 13.331)">
                <path id="Trazado_212390" data-name="Trazado 212390" d="M1839.031,1210.549l-.075,26.531-23.088-13.33.075-26.531Z" transform="translate(-1815.867 -1197.219)" fill="#ffe4a9"/>
              </g>
            </g>
          </g>
          <g id="Grupo_176545" data-name="Grupo 176545" transform="translate(0 29.718)">
            <g id="Grupo_176544" data-name="Grupo 176544" style="isolation: isolate">
              <g id="Grupo_176541" data-name="Grupo 176541" transform="translate(0.075)">
                <path id="Trazado_212391" data-name="Trazado 212391" d="M1862.434,901.98l-22.939,13.331-23.089-13.33,22.939-13.331Z" transform="translate(-1816.406 -888.65)" fill="#fff4da"/>
              </g>
              <g id="Grupo_176542" data-name="Grupo 176542" transform="translate(23.089 13.33)">
                <path id="Trazado_212392" data-name="Trazado 212392" d="M2004.38,984.2l-.075,26.531-22.939,13.331.075-26.531Z" transform="translate(-1981.366 -984.201)" fill="#ffb30b"/>
              </g>
              <g id="Grupo_176543" data-name="Grupo 176543" transform="translate(0 13.331)">
                <path id="Trazado_212393" data-name="Trazado 212393" d="M1839.031,997.534l-.075,26.531-23.088-13.33.075-26.531Z" transform="translate(-1815.867 -984.204)" fill="#ffe4a9"/>
              </g>
            </g>
          </g>
          <g id="Grupo_176550" data-name="Grupo 176550">
            <g id="Grupo_176549" data-name="Grupo 176549" style="isolation: isolate">
              <g id="Grupo_176546" data-name="Grupo 176546" transform="translate(0.075)">
                <path id="Trazado_212394" data-name="Trazado 212394" d="M1862.434,688.965,1839.495,702.3l-23.089-13.33,22.939-13.331Z" transform="translate(-1816.406 -675.634)" fill="#fff4da"/>
              </g>
              <g id="Grupo_176547" data-name="Grupo 176547" transform="translate(23.089 13.33)">
                <path id="Trazado_212395" data-name="Trazado 212395" d="M2004.38,771.185l-.075,26.531-22.939,13.331.075-26.531Z" transform="translate(-1981.366 -771.185)" fill="#ffb30b"/>
              </g>
              <g id="Grupo_176548" data-name="Grupo 176548" transform="translate(0 13.331)">
                <path id="Trazado_212396" data-name="Trazado 212396" d="M1839.031,784.518l-.075,26.531-23.088-13.33.075-26.531Z" transform="translate(-1815.867 -771.188)" fill="#ffe4a9"/>
              </g>
            </g>
          </g>
        </g>
        <g id="Grupo_176568" data-name="Grupo 176568" transform="translate(0 29.777)">
          <g id="Grupo_176556" data-name="Grupo 176556" transform="translate(0 59.435)">
            <g id="Grupo_176555" data-name="Grupo 176555" style="isolation: isolate">
              <g id="Grupo_176552" data-name="Grupo 176552" transform="translate(0.075)">
                <path id="Trazado_212397" data-name="Trazado 212397" d="M1320.767,1013.1l-22.939,13.331-23.089-13.33,22.939-13.331Z" transform="translate(-1274.74 -999.767)" fill="#fff4da"/>
              </g>
              <g id="Grupo_176553" data-name="Grupo 176553" transform="translate(23.089 13.33)">
                <path id="Trazado_212398" data-name="Trazado 212398" d="M1462.714,1095.317l-.075,26.531-22.939,13.331.075-26.531Z" transform="translate(-1439.699 -1095.317)" fill="#ffb30b"/>
              </g>
              <g id="Grupo_176554" data-name="Grupo 176554" transform="translate(0 13.331)">
                <path id="Trazado_212399" data-name="Trazado 212399" d="M1297.365,1108.651l-.075,26.531-23.089-13.33.075-26.531Z" transform="translate(-1274.201 -1095.321)" fill="#ffe4a9"/>
              </g>
            </g>
          </g>
          <g id="Grupo_176561" data-name="Grupo 176561" transform="translate(0 29.718)">
            <g id="Grupo_176560" data-name="Grupo 176560" style="isolation: isolate">
              <g id="Grupo_176557" data-name="Grupo 176557" transform="translate(0.075)">
                <path id="Trazado_212400" data-name="Trazado 212400" d="M1320.767,800.082l-22.939,13.331-23.089-13.33,22.939-13.331Z" transform="translate(-1274.74 -786.751)" fill="#fff4da"/>
              </g>
              <g id="Grupo_176558" data-name="Grupo 176558" transform="translate(23.089 13.33)">
                <path id="Trazado_212401" data-name="Trazado 212401" d="M1462.714,882.3l-.075,26.531L1439.7,922.163l.075-26.531Z" transform="translate(-1439.699 -882.302)" fill="#ffb30b"/>
              </g>
              <g id="Grupo_176559" data-name="Grupo 176559" transform="translate(0 13.331)">
                <path id="Trazado_212402" data-name="Trazado 212402" d="M1297.365,895.635l-.075,26.531-23.089-13.33.075-26.531Z" transform="translate(-1274.201 -882.305)" fill="#ffe4a9"/>
              </g>
            </g>
          </g>
          <g id="Grupo_176567" data-name="Grupo 176567">
            <g id="Grupo_176566" data-name="Grupo 176566" style="isolation: isolate">
              <g id="Grupo_176562" data-name="Grupo 176562" transform="translate(0.075)">
                <path id="Trazado_212403" data-name="Trazado 212403" d="M1320.767,587.066,1297.829,600.4l-23.089-13.33,22.939-13.331Z" transform="translate(-1274.74 -573.736)" fill="#fff4da"/>
              </g>
              <g id="Grupo_176563" data-name="Grupo 176563" transform="translate(23.089 13.33)">
                <path id="Trazado_212404" data-name="Trazado 212404" d="M1462.714,669.286l-.075,26.531L1439.7,709.148l.075-26.531Z" transform="translate(-1439.699 -669.286)" fill="#ffb30b"/>
              </g>
              <g id="Grupo_176565" data-name="Grupo 176565" transform="translate(0 13.331)">
                <g id="Grupo_176564" data-name="Grupo 176564">
                  <path id="Trazado_212405" data-name="Trazado 212405" d="M1297.365,682.62l-.075,26.531L1274.2,695.82l.075-26.531Z" transform="translate(-1274.201 -669.289)" fill="#ffe4a9"/>
                </g>
              </g>
            </g>
          </g>
        </g>
        <g id="Grupo_176579" data-name="Grupo 176579" transform="translate(25.271 44.479)">
          <g id="Grupo_176573" data-name="Grupo 176573" transform="translate(0 59.435)">
            <g id="Grupo_176572" data-name="Grupo 176572" style="isolation: isolate">
              <g id="Grupo_176569" data-name="Grupo 176569" transform="translate(0.075)">
                <path id="Trazado_212406" data-name="Trazado 212406" d="M1501.91,1118.48l-22.939,13.331-23.089-13.33,22.939-13.331Z" transform="translate(-1455.883 -1105.15)" fill="#fff4da"/>
              </g>
              <g id="Grupo_176570" data-name="Grupo 176570" transform="translate(23.089 13.33)">
                <path id="Trazado_212407" data-name="Trazado 212407" d="M1643.856,1200.7l-.075,26.531-22.939,13.331.075-26.531Z" transform="translate(-1620.842 -1200.701)" fill="#ffb30b"/>
              </g>
              <g id="Grupo_176571" data-name="Grupo 176571" transform="translate(0 13.331)">
                <path id="Trazado_212408" data-name="Trazado 212408" d="M1478.507,1214.034l-.075,26.531-23.089-13.33.075-26.531Z" transform="translate(-1455.343 -1200.704)" fill="#ffe4a9"/>
              </g>
            </g>
          </g>
          <g id="Grupo_176578" data-name="Grupo 176578">
            <g id="Grupo_176577" data-name="Grupo 176577" style="isolation: isolate">
              <g id="Grupo_176574" data-name="Grupo 176574" transform="translate(0.075)">
                <path id="Trazado_212409" data-name="Trazado 212409" d="M1501.91,692.449l-22.939,13.331-23.089-13.33,22.939-13.331Z" transform="translate(-1455.883 -679.119)" fill="#fff4da"/>
              </g>
              <g id="Grupo_176575" data-name="Grupo 176575" transform="translate(23.089 13.33)">
                <path id="Trazado_212410" data-name="Trazado 212410" d="M1643.856,774.67l-.075,26.531-22.939,13.331.075-26.531Z" transform="translate(-1620.842 -774.67)" fill="#ffb30b"/>
              </g>
              <g id="Grupo_176576" data-name="Grupo 176576" transform="translate(0 13.331)">
                <path id="Trazado_212411" data-name="Trazado 212411" d="M1478.507,788l-.075,26.531-23.089-13.33.075-26.531Z" transform="translate(-1455.343 -774.673)" fill="#ffe4a9"/>
              </g>
            </g>
          </g>
        </g>
        <g id="Grupo_176595" data-name="Grupo 176595" transform="translate(50.455 58.97)">
          <g id="Grupo_176584" data-name="Grupo 176584" transform="translate(0 59.435)">
            <g id="Grupo_176583" data-name="Grupo 176583" style="isolation: isolate">
              <g id="Grupo_176580" data-name="Grupo 176580" transform="translate(0.075)">
                <path id="Trazado_212412" data-name="Trazado 212412" d="M1682.425,1222.349l-22.939,13.331-23.089-13.33,22.939-13.331Z" transform="translate(-1636.398 -1209.019)" fill="#fff4da"/>
              </g>
              <g id="Grupo_176581" data-name="Grupo 176581" transform="translate(23.089 13.33)">
                <path id="Trazado_212413" data-name="Trazado 212413" d="M1824.371,1304.569l-.075,26.531-22.939,13.331.075-26.531Z" transform="translate(-1801.357 -1304.569)" fill="#ffb30b"/>
              </g>
              <g id="Grupo_176582" data-name="Grupo 176582" transform="translate(0 13.331)">
                <path id="Trazado_212414" data-name="Trazado 212414" d="M1659.023,1317.9l-.075,26.531-23.089-13.33.075-26.531Z" transform="translate(-1635.859 -1304.572)" fill="#ffe4a9"/>
              </g>
            </g>
          </g>
          <g id="Grupo_176589" data-name="Grupo 176589" transform="translate(0 29.718)">
            <g id="Grupo_176588" data-name="Grupo 176588" style="isolation: isolate">
              <g id="Grupo_176585" data-name="Grupo 176585" transform="translate(0.075)">
                <path id="Trazado_212415" data-name="Trazado 212415" d="M1682.425,1009.333l-22.939,13.331-23.089-13.33L1659.337,996Z" transform="translate(-1636.398 -996.003)" fill="#fff4da"/>
              </g>
              <g id="Grupo_176586" data-name="Grupo 176586" transform="translate(23.089 13.33)">
                <path id="Trazado_212416" data-name="Trazado 212416" d="M1824.371,1091.553l-.075,26.531-22.939,13.331.075-26.531Z" transform="translate(-1801.357 -1091.553)" fill="#ffb30b"/>
              </g>
              <g id="Grupo_176587" data-name="Grupo 176587" transform="translate(0 13.331)">
                <path id="Trazado_212417" data-name="Trazado 212417" d="M1659.023,1104.887l-.075,26.531-23.089-13.33.075-26.531Z" transform="translate(-1635.859 -1091.557)" fill="#ffe4a9"/>
              </g>
            </g>
          </g>
          <g id="Grupo_176594" data-name="Grupo 176594">
            <g id="Grupo_176593" data-name="Grupo 176593" style="isolation: isolate">
              <g id="Grupo_176590" data-name="Grupo 176590" transform="translate(0.075)">
                <path id="Trazado_212418" data-name="Trazado 212418" d="M1682.425,796.318l-22.939,13.331-23.089-13.33,22.939-13.331Z" transform="translate(-1636.398 -782.988)" fill="#fff4da"/>
              </g>
              <g id="Grupo_176591" data-name="Grupo 176591" transform="translate(23.089 13.33)">
                <path id="Trazado_212419" data-name="Trazado 212419" d="M1824.371,878.538l-.075,26.531L1801.357,918.4l.075-26.531Z" transform="translate(-1801.357 -878.538)" fill="#ffb30b"/>
              </g>
              <g id="Grupo_176592" data-name="Grupo 176592" transform="translate(0 13.331)">
                <path id="Trazado_212420" data-name="Trazado 212420" d="M1659.023,891.871l-.075,26.531-23.089-13.33.075-26.531Z" transform="translate(-1635.859 -878.541)" fill="#ffe4a9"/>
              </g>
            </g>
          </g>
        </g>
      </g>
      <g id="Grupo_176604" data-name="Grupo 176604" transform="translate(-6795.695 -14530.424)">
        <g id="Grupo_176603" data-name="Grupo 176603" transform="translate(0 0)" style="isolation: isolate">
          <g id="Grupo_176598" data-name="Grupo 176598" transform="translate(0.058)">
            <g id="Grupo_176597" data-name="Grupo 176597">
              <path id="Trazado_212421" data-name="Trazado 212421" d="M1290.795,278.284l-17.758,10.32-17.873-10.319,17.758-10.32Z" transform="translate(-1255.164 -267.964)" fill="#f5faff"/>
            </g>
          </g>
          <g id="Grupo_176600" data-name="Grupo 176600" transform="translate(17.873 10.319)">
            <g id="Grupo_176599" data-name="Grupo 176599">
              <path id="Trazado_212422" data-name="Trazado 212422" d="M1400.678,341.932l-.058,20.538-17.758,10.32.058-20.538Z" transform="translate(-1382.863 -341.932)" fill="#e7f3fe"/>
            </g>
          </g>
          <g id="Grupo_176602" data-name="Grupo 176602" transform="translate(0 10.32)">
            <g id="Grupo_176601" data-name="Grupo 176601">
              <path id="Trazado_212423" data-name="Trazado 212423" d="M1272.678,352.254l-.058,20.538-17.873-10.319.058-20.538Z" transform="translate(-1254.746 -341.935)" fill="#b9ddfc"/>
            </g>
          </g>
        </g>
      </g>
      <g id="Grupo_176612" data-name="Grupo 176612" transform="translate(-6780.197 -14440.041)">
        <g id="Grupo_176611" data-name="Grupo 176611" transform="translate(0 0)" style="isolation: isolate">
          <g id="Grupo_176606" data-name="Grupo 176606" transform="translate(0.077)">
            <g id="Grupo_176605" data-name="Grupo 176605">
              <path id="Trazado_212424" data-name="Trazado 212424" d="M1413.764,929.55l-23.61,13.721-23.764-13.72L1390,915.829Z" transform="translate(-1366.39 -915.829)" fill="#f5faff"/>
            </g>
          </g>
          <g id="Grupo_176608" data-name="Grupo 176608" transform="translate(23.764 13.72)">
            <g id="Grupo_176607" data-name="Grupo 176607">
              <path id="Trazado_212425" data-name="Trazado 212425" d="M1559.865,1014.176l-.078,27.307-23.61,13.721.077-27.307Z" transform="translate(-1536.177 -1014.176)" fill="#e7f3fe"/>
            </g>
          </g>
          <g id="Grupo_176610" data-name="Grupo 176610" transform="translate(0 13.721)">
            <g id="Grupo_176609" data-name="Grupo 176609">
              <path id="Trazado_212426" data-name="Trazado 212426" d="M1389.676,1027.9l-.077,27.307-23.765-13.721.077-27.307Z" transform="translate(-1365.834 -1014.18)" fill="#b9ddfc"/>
            </g>
          </g>
        </g>
      </g>
      <g id="Grupo_176620" data-name="Grupo 176620" transform="translate(-6662.152 -14358.174)">
        <g id="Grupo_176619" data-name="Grupo 176619" transform="translate(0 0)" style="isolation: isolate">
          <g id="Grupo_176614" data-name="Grupo 176614" transform="translate(0.062)">
            <g id="Grupo_176613" data-name="Grupo 176613">
              <path id="Trazado_212427" data-name="Trazado 212427" d="M2250.656,1513.709,2231.6,1524.78l-19.175-11.071,19.051-11.071Z" transform="translate(-2212.43 -1502.638)" fill="#f5faff"/>
            </g>
          </g>
          <g id="Grupo_176616" data-name="Grupo 176616" transform="translate(19.175 11.071)">
            <g id="Grupo_176615" data-name="Grupo 176615">
              <path id="Trazado_212428" data-name="Trazado 212428" d="M2368.541,1581.992l-.063,22.034-19.051,11.071.063-22.034Z" transform="translate(-2349.427 -1581.992)" fill="#e7f3fe"/>
            </g>
          </g>
          <g id="Grupo_176618" data-name="Grupo 176618" transform="translate(0 11.071)">
            <g id="Grupo_176617" data-name="Grupo 176617">
              <path id="Trazado_212429" data-name="Trazado 212429" d="M2231.219,1593.065l-.062,22.034-19.175-11.071.063-22.034Z" transform="translate(-2211.982 -1581.995)" fill="#b9ddfc"/>
            </g>
          </g>
        </g>
      </g>
      <g id="Grupo_176625" data-name="Grupo 176625" transform="translate(-6644.232 -14452.627)">
        <g id="Grupo_176624" data-name="Grupo 176624" transform="translate(0 0)" style="isolation: isolate">
          <g id="Grupo_176621" data-name="Grupo 176621" transform="translate(0.05)">
            <path id="Trazado_212430" data-name="Trazado 212430" d="M2371.2,834.421l-15.157,8.809-15.256-8.808,15.158-8.808Z" transform="translate(-2340.783 -825.613)" fill="#fff4da"/>
          </g>
          <g id="Grupo_176622" data-name="Grupo 176622" transform="translate(15.256 8.808)">
            <path id="Trazado_212431" data-name="Trazado 212431" d="M2464.99,888.75l-.05,17.531-15.157,8.808.049-17.531Z" transform="translate(-2449.783 -888.75)" fill="#ffb30b"/>
          </g>
          <g id="Grupo_176623" data-name="Grupo 176623" transform="translate(0 8.809)">
            <path id="Trazado_212432" data-name="Trazado 212432" d="M2355.733,897.56l-.05,17.531-15.257-8.808.05-17.531Z" transform="translate(-2340.427 -888.752)" fill="#ffe4a9"/>
          </g>
        </g>
      </g>
      <g id="Grupo_176630" data-name="Grupo 176630" transform="translate(-6691.505 -14339.323)">
        <g id="Grupo_176629" data-name="Grupo 176629" transform="translate(0 0)" style="isolation: isolate">
          <g id="Grupo_176626" data-name="Grupo 176626" transform="translate(0.025)">
            <path id="Trazado_212433" data-name="Trazado 212433" d="M2016.925,1642.162l-7.56,4.393-7.609-4.393,7.56-4.394Z" transform="translate(-2001.755 -1637.769)" fill="#cba498"/>
          </g>
          <g id="Grupo_176627" data-name="Grupo 176627" transform="translate(7.61 4.393)">
            <path id="Trazado_212434" data-name="Trazado 212434" d="M2063.707,1669.26l-.025,8.744-7.56,4.393.025-8.744Z" transform="translate(-2056.122 -1669.26)" fill="#af7260"/>
          </g>
          <g id="Grupo_176628" data-name="Grupo 176628" transform="translate(0 4.393)">
            <path id="Trazado_212435" data-name="Trazado 212435" d="M2009.212,1673.655l-.025,8.744-7.609-4.394.025-8.744Z" transform="translate(-2001.578 -1669.261)" fill="#9a4d36"/>
          </g>
        </g>
      </g>
      <g id="Grupo_176635" data-name="Grupo 176635" transform="translate(-6843.917 -14428.854)">
        <g id="Grupo_176634" data-name="Grupo 176634" transform="translate(0 0)" style="isolation: isolate">
          <g id="Grupo_176631" data-name="Grupo 176631" transform="translate(0.036)">
            <path id="Trazado_212436" data-name="Trazado 212436" d="M931.529,1002.44l-11.049,6.421-11.121-6.421,11.049-6.421Z" transform="translate(-909.359 -996.02)" fill="#fff4da"/>
          </g>
          <g id="Grupo_176632" data-name="Grupo 176632" transform="translate(11.121 6.421)">
            <path id="Trazado_212437" data-name="Trazado 212437" d="M999.9,1042.043l-.036,12.779-11.049,6.421.036-12.779Z" transform="translate(-988.814 -1042.043)" fill="#ffb30b"/>
          </g>
          <g id="Grupo_176633" data-name="Grupo 176633" transform="translate(0 6.421)">
            <path id="Trazado_212438" data-name="Trazado 212438" d="M920.257,1048.465l-.036,12.779-11.121-6.421.036-12.779Z" transform="translate(-909.1 -1042.044)" fill="#ffe4a9"/>
          </g>
        </g>
      </g>
      <g id="Grupo_176641" data-name="Grupo 176641" transform="translate(-6638.307 -14389.684)">
        <g id="Grupo_176640" data-name="Grupo 176640" transform="translate(0 0)" style="isolation: isolate">
          <g id="Grupo_176636" data-name="Grupo 176636" transform="translate(0.036)">
            <path id="Trazado_212439" data-name="Trazado 212439" d="M2405.331,1283.209l-11.049,6.421-11.121-6.421,11.048-6.421Z" transform="translate(-2383.162 -1276.789)" fill="#f5faff"/>
          </g>
          <g id="Grupo_176638" data-name="Grupo 176638" transform="translate(11.121 6.421)">
            <g id="Grupo_176637" data-name="Grupo 176637">
              <path id="Trazado_212440" data-name="Trazado 212440" d="M2473.7,1322.812l-.036,12.779-11.049,6.421.036-12.779Z" transform="translate(-2462.616 -1322.812)" fill="#e7f3fe"/>
            </g>
          </g>
          <g id="Grupo_176639" data-name="Grupo 176639" transform="translate(0 6.421)">
            <path id="Trazado_212441" data-name="Trazado 212441" d="M2394.059,1329.234l-.036,12.779-11.121-6.421.036-12.779Z" transform="translate(-2382.902 -1322.813)" fill="#b9ddfc"/>
          </g>
        </g>
      </g>
      <g id="Grupo_176648" data-name="Grupo 176648" transform="translate(-6704.886 -14464.043)">
        <g id="Grupo_176647" data-name="Grupo 176647" transform="translate(0 0)" style="isolation: isolate">
          <g id="Grupo_176643" data-name="Grupo 176643" transform="translate(0.038)">
            <g id="Grupo_176642" data-name="Grupo 176642">
              <path id="Trazado_212442" data-name="Trazado 212442" d="M1929.009,750.461l-11.5,6.682-11.573-6.681,11.5-6.682Z" transform="translate(-1905.938 -743.78)" fill="#f5faff"/>
            </g>
          </g>
          <g id="Grupo_176645" data-name="Grupo 176645" transform="translate(11.573 6.681)">
            <g id="Grupo_176644" data-name="Grupo 176644">
              <path id="Trazado_212443" data-name="Trazado 212443" d="M2000.155,791.672l-.038,13.3-11.5,6.682.038-13.3Z" transform="translate(-1988.62 -791.672)" fill="#e7f3fe"/>
            </g>
          </g>
          <g id="Grupo_176646" data-name="Grupo 176646" transform="translate(0 6.682)">
            <path id="Trazado_212444" data-name="Trazado 212444" d="M1917.278,798.355l-.038,13.3-11.573-6.681.038-13.3Z" transform="translate(-1905.668 -791.673)" fill="#b9ddfc"/>
          </g>
        </g>
      </g>
      <g id="Grupo_176653" data-name="Grupo 176653" transform="translate(-6739.758 -14480.192)">
        <g id="Grupo_176652" data-name="Grupo 176652" transform="translate(0 0)">
          <path id="Trazado_212445" data-name="Trazado 212445" d="M1730.261,866.873c-2.058-.566-2.383-1.855-2.339-2.738a1.5,1.5,0,0,1-.02-.183,1.23,1.23,0,0,1,1.107-1.355l17.677-.223a.556.556,0,0,1,.522.572.668.668,0,0,1-.057.3,1.92,1.92,0,0,1-1.358,1.442C1742.385,865.5,1732.938,867.609,1730.261,866.873Z" transform="translate(-1717.829 -829.681)" fill="#db957f"/>
          <path id="Trazado_212446" data-name="Trazado 212446" d="M1833.458,862.389c.443-.615.854-.87,1.416-.718a1.321,1.321,0,0,1,.825,1.6l-4.437,19.769a.7.7,0,0,1-.806.4.6.6,0,0,1-.389-.7l.149-.867C1832.016,867.991,1832.043,864.669,1833.458,862.389Z" transform="translate(-1805.734 -829.039)" fill="#db957f"/>
          <path id="Trazado_212447" data-name="Trazado 212447" d="M1830.17,923.116a1.7,1.7,0,0,1,.377-1.735,1.024,1.024,0,0,1,1.6.226l10.791,16.164a.942.942,0,0,1-.221.981.469.469,0,0,1-.716-.072l-.5-.667C1833.115,927.865,1830.861,925.807,1830.17,923.116Z" transform="translate(-1805.771 -880.206)" fill="#db957f"/>
          <path id="Trazado_212448" data-name="Trazado 212448" d="M1716.732,862.057c-1.618-1.577-1.406-2.9-1.022-3.663a1.4,1.4,0,0,1,.053-.173,1.062,1.062,0,0,1,1.516-.633l15.871,9.009a.643.643,0,0,1,.244.782.589.589,0,0,1-.168.238,1.638,1.638,0,0,1-1.774.58C1728.095,867.142,1718.836,864.108,1716.732,862.057Z" transform="translate(-1707.104 -825.446)" fill="#db957f"/>
          <path id="Trazado_212449" data-name="Trazado 212449" d="M1711.055,856.888s-.986,4.378,2.566,6.163,12.43,5.1,13.49,5.148c0,0,1.989,4.257,9.784,12.849l1.532-1.467s-8.354-13.385-9.256-13.914-14.937-8.645-14.937-8.645Z" transform="translate(-1703.225 -824.959)" fill="#996b06"/>
          <path id="Trazado_212450" data-name="Trazado 212450" d="M1724.261,855.183s15.553-.722,16.095.179.654,1.79.229,3.515-3.5,15.3-3.5,15.3l-1.951-.745s1.529-12.531,1.845-13.989c0,0-10.809,1.591-12.9,1.149s-4.626-4.209-4.626-4.209Z" transform="translate(-1710.561 -823.257)" fill="#996b06"/>
          <path id="Trazado_212451" data-name="Trazado 212451" d="M1913.459,1038.079s.072,1.519.306,1.514,5.2-1.769,5.48-2.155-.9-.36-.9-.36a28.6,28.6,0,0,0-3.909.6S1913.434,1038,1913.459,1038.079Z" transform="translate(-1877.499 -980.01)" fill="#db957f"/>
          <path id="Trazado_212452" data-name="Trazado 212452" d="M1916.057,1036.781a6.389,6.389,0,0,1-2.173,1.37,8.37,8.37,0,0,1-.888.309c.09.526.24,1.12.458,1.062.385-.1,5.765-2.1,5.708-2.4C1919.051,1036.537,1917.458,1036.583,1916.057,1036.781Z" transform="translate(-1877.101 -979.64)" fill="#3b3e54"/>
          <path id="Trazado_212453" data-name="Trazado 212453" d="M1825.31,1009.387s-1.033.941-.894,1.16,4.244,3.908,4.675,3.947-.261-1.057-.261-1.057a36.582,36.582,0,0,0-2.673-3.354S1825.353,1009.317,1825.31,1009.387Z" transform="translate(-1800.868 -956.179)" fill="#db957f"/>
          <path id="Trazado_212454" data-name="Trazado 212454" d="M1826.5,1014a6.251,6.251,0,0,1-2.219-1.269,9.64,9.64,0,0,1-.729-.663c-.321.387-.654.871-.488,1.044.293.306,4.8,4.25,4.977,4.025C1828.4,1016.691,1827.448,1015.209,1826.5,1014Z" transform="translate(-1799.681 -958.488)" fill="#3b3e54"/>
          <g id="Grupo_176649" data-name="Grupo 176649" transform="translate(6.05 11.953)">
            <path id="Trazado_212455" data-name="Trazado 212455" d="M1700.765,735.845a62.545,62.545,0,0,1-.807-8.257c-.208-3.442-1.05-7.672-.859-10.19.24-3.163.62-4.188,3.351-3.489,1.321.338,1.9,1.589,2.428,3.165a7.076,7.076,0,0,1,.246,5.479c-.481,1.7.816,6.03,1.939,8.938a9.49,9.49,0,0,0,1.627,2.8,1.954,1.954,0,0,1-.773.535C1705.52,735.9,1703.269,735.022,1700.765,735.845Z" transform="translate(-1699.071 -713.701)" fill="#00b1c9"/>
          </g>
          <path id="Trazado_212456" data-name="Trazado 212456" d="M1718.577,721.319a1.373,1.373,0,0,1,.248-2.006c.258-.382,1.073-.294,1.448.105l7.492,8.726c.141.137-.051.412-.164.58a.349.349,0,0,1-.14.122c-.363.272-.435.916-.821.669A46.126,46.126,0,0,1,1718.577,721.319Z" transform="translate(-1709.535 -706.366)" fill="#00b1c9"/>
          <path id="Trazado_212457" data-name="Trazado 212457" d="M1663.962,720.932c.569-1.584-.609-1.9-.637-1.924-.332-.3-1.13.066-1.428.592l-6.164,12.108c-.115.184.131.395.277.525a.3.3,0,0,0,.163.075,1.334,1.334,0,0,0,1.315-.464A58.074,58.074,0,0,0,1663.962,720.932Z" transform="translate(-1655.703 -706.223)" fill="#00b1c9"/>
          <path id="Trazado_212458" data-name="Trazado 212458" d="M1697.208,666.482s-2.512-.7-2.647-2.925c-.214-3.519,3.074-4.532,4.478-3.529a2.136,2.136,0,0,1,.9,2.525C1699.779,662.869,1697.208,666.482,1697.208,666.482Z" transform="translate(-1689.131 -655.247)" fill="#563a3d"/>
          <path id="Trazado_212459" data-name="Trazado 212459" d="M1704.5,682.986l2.027-.505a43.728,43.728,0,0,1,.595,4.565c-.04.369-.534.6-1.105.52a1.051,1.051,0,0,1-.957-.705h0A36.165,36.165,0,0,0,1704.5,682.986Z" transform="translate(-1697.691 -674.884)" fill="#db957f"/>
          <path id="Trazado_212460" data-name="Trazado 212460" d="M1709.966,670.469c.325,1.886,1.725,3.152,2.721,2.922s1.212-1.87.886-3.756-1.3-2.659-2.294-2.429S1709.641,668.583,1709.966,670.469Z" transform="translate(-1702.323 -661.707)" fill="#db957f"/>
          <path id="Trazado_212461" data-name="Trazado 212461" d="M1703.356,662.33a4.771,4.771,0,0,1-2.425,3.4c-1.043.448-1.39-1.458-1.39-1.458l1.026-1.814s.839-.773,1.481-.7C1702.1,661.77,1703.356,662.33,1703.356,662.33Z" transform="translate(-1693.424 -657.052)" fill="#563a3d"/>
          <path id="Trazado_212462" data-name="Trazado 212462" d="M1720.687,663.166s-1.823-.755-2.1-1.488.664-.645.664-.645A2.683,2.683,0,0,1,1720.687,663.166Z" transform="translate(-1709.775 -656.425)" fill="#563a3d"/>
          <path id="Trazado_212463" data-name="Trazado 212463" d="M1667.768,634.737s2.552-2.3.823-5.054-4.707-1.7-5.386.442a3.946,3.946,0,0,0,1.141,4.543A3.068,3.068,0,0,0,1667.768,634.737Z" transform="translate(-1661.934 -628.024)" fill="#563a3d"/>
          <path id="Trazado_212464" data-name="Trazado 212464" d="M1704.329,690.135c.165.438.751.809,1.026.671s.209-.528.044-.966-.541-.736-.815-.6A.656.656,0,0,0,1704.329,690.135Z" transform="translate(-1697.485 -680.673)" fill="#db957f"/>
          <path id="Trazado_212465" data-name="Trazado 212465" d="M1671.708,881.92a1.6,1.6,0,0,0-.183.457c-.267,1.149-.707,3.336-.351,3.941.467.792,1.686-2.347,1.375-4.677Z" transform="translate(-1668.901 -846.26)" fill="#db957f"/>
          <g id="Grupo_176650" data-name="Grupo 176650" transform="translate(0.029 24.677)">
            <path id="Trazado_212466" data-name="Trazado 212466" d="M1658.719,816.015c-1.019-2.489-2.709-7.842-2.8-9.584-.079-1.446.68-1.48.711-1.493.361-.152.99.26,1.111.769l1.843,10.085Z" transform="translate(-1655.909 -804.905)" fill="#db957f"/>
          </g>
          <path id="Trazado_212467" data-name="Trazado 212467" d="M1819.506,714.4a1.186,1.186,0,0,0,.407-.179c.885-.605,2.522-1.812,2.633-2.533.145-.944-2.624.313-3.81,2.23Z" transform="translate(-1795.991 -699.739)" fill="#db957f"/>
          <g id="Grupo_176651" data-name="Grupo 176651" transform="translate(16.543 14.025)">
            <path id="Trazado_212468" data-name="Trazado 212468" d="M1781.325,729.03c-1.154,2.409-4.125,7.266-5.294,8.372-.969.917-1.436.223-1.463.2a1.327,1.327,0,0,1-.107-1.493l6.123-7.557Z" transform="translate(-1774.283 -728.553)" fill="#db957f"/>
          </g>
        </g>
      </g>
      <g id="Grupo_176658" data-name="Grupo 176658" transform="translate(-6842.849 -14415.484)">
        <path id="Trazado_212469" data-name="Trazado 212469" d="M1125.278,1157.885a1.207,1.207,0,0,1-.9-1.694c.015-.459.784-.919,1.34-.856l12.333,2.028c.2.013.185.347.179.549a.373.373,0,0,1-.055.184,1.509,1.509,0,0,1-1.178.837A47.544,47.544,0,0,1,1125.278,1157.885Z" transform="translate(-1095.319 -1146.471)" fill="#a1bfca"/>
        <path id="Trazado_212470" data-name="Trazado 212470" d="M1058.634,1291.737c-2.179-.617-2.476-1.823-2.393-2.638a1.182,1.182,0,0,1-.014-.17,1.2,1.2,0,0,1,1.238-1.2l18.916.6a.553.553,0,0,1,.464.827,1.919,1.919,0,0,1-1.509,1.271C1071.656,1291.016,1061.468,1292.539,1058.634,1291.737Z" transform="translate(-1036.768 -1260.398)" fill="#a45f4a"/>
        <path id="Trazado_212471" data-name="Trazado 212471" d="M1152.134,1296a1.427,1.427,0,0,1,1.59-.461,1.2,1.2,0,0,1,.683,1.584l-7.088,17.519c-.115.276-.624.359-.9.253a.554.554,0,0,1-.329-.7l.262-.774C1149.93,1300.942,1150.358,1297.9,1152.134,1296Z" transform="translate(-1114.067 -1267.044)" fill="#a45f4a"/>
        <path id="Trazado_212472" data-name="Trazado 212472" d="M950.323,1393.731a1.426,1.426,0,0,1,.657,1.519,1.2,1.2,0,0,1-1.486.876l-18.268-4.839c-.288-.079-.434-.574-.364-.864a.554.554,0,0,1,.649-.413l.8.164C945.148,1392.163,948.221,1392.206,950.323,1393.731Z" transform="translate(-928.877 -1348.403)" fill="#a45f4a"/>
        <path id="Trazado_212473" data-name="Trazado 212473" d="M1040.41,1279.184c.445-2.221,1.625-2.61,2.443-2.591a1.192,1.192,0,0,1,1.463,1.113l.879,18.9a.553.553,0,0,1-.788.527,1.919,1.919,0,0,1-1.385-1.405C1042.145,1292.11,1039.832,1282.072,1040.41,1279.184Z" transform="translate(-1023.079 -1250.791)" fill="#a45f4a"/>
        <path id="Trazado_212474" data-name="Trazado 212474" d="M919.446,1387.7a2.306,2.306,0,0,1,.071-1.128,3.277,3.277,0,0,1,.252-.669.267.267,0,0,0-.12-.367c-.467-.219-1.2-.51-1.3-.251-.151.384-1.834,6.042-1.578,6.146C917.448,1391.7,918.836,1389.116,919.446,1387.7Z" transform="translate(-916.747 -1344.26)" fill="#3b3e54"/>
        <path id="Trazado_212475" data-name="Trazado 212475" d="M1144.82,1427.447a2.3,2.3,0,0,1-1.107.226,3.276,3.276,0,0,1-.712-.069.266.266,0,0,0-.323.212c-.089.508-.18,1.288.1,1.318.41.045,6.311.192,6.345-.082C1149.206,1428.33,1146.344,1427.667,1144.82,1427.447Z" transform="translate(-1111.082 -1380.627)" fill="#3b3e54"/>
        <path id="Trazado_212476" data-name="Trazado 212476" d="M1060.312,1281.271s14.182.14,15.477.688.91,2.066.308,3.69-5.433,13.693-5.433,13.693l-2.181-.374s2.239-11.539,3.678-13.381c0,0-15.1,1.708-16.534-.3s1.978-4.66,1.978-4.66Z" transform="translate(-1035.949 -1254.287)" fill="#042c58"/>
        <path id="Trazado_212477" data-name="Trazado 212477" d="M967.718,1270.5s-4.163,3.558,1.024,18.479l.133.655s-3.355-1.1-14.162-2.462l.294,2.462s13.888,4.171,14.889,4.112,1.824-.169,2-1.35-.364-20.64-.364-20.64Z" transform="translate(-949.416 -1245.576)" fill="#042c58"/>
        <g id="Grupo_176654" data-name="Grupo 176654" transform="translate(16.952 7.583)">
          <path id="Trazado_212478" data-name="Trazado 212478" d="M1049.24,1160.837c-.093.246-2.158,5.847-2.34,6.188a15.491,15.491,0,0,0-2.5-.722c-1.4-.27-2.713-.7-4.082-1.089-.7-.2-1.356-.581-2.054-.818.347-.636,3.53-6.992,3.792-7.464.184-.331,2.526-4.707,4.383-7.562,1.266-1.947,2.891-3.041,4.095-3.166,2.369-.154,3.633,1.234,3.446,3.644-.092,1.187-1.826,4.537-2.011,4.9C1051.3,1156.047,1049.471,1160.226,1049.24,1160.837Z" transform="translate(-1038.262 -1146.193)" fill="#a1bfca"/>
        </g>
        <g id="Grupo_176655" data-name="Grupo 176655" transform="translate(27.779 0)">
          <path id="Trazado_212479" data-name="Trazado 212479" d="M1123.634,1094.7c-.058-.2-.245-.347-.331-.529a4.225,4.225,0,0,0-.2-.593c-.115-.17-.34-.253-.479-.4s-.209-.378-.37-.5-.4-.135-.579-.233-.314-.3-.507-.365a4.173,4.173,0,0,0-.623-.043,4.024,4.024,0,0,0-.594-.19,4.235,4.235,0,0,0-.605.152,4,4,0,0,0-.625,0c-.2.057-.347.245-.529.331a4.193,4.193,0,0,0-.593.2c-.17.115-.253.34-.4.479s-.378.209-.5.37-.134.4-.233.579-.3.314-.365.507a4.144,4.144,0,0,0-.043.623,4.059,4.059,0,0,0-.19.594,4.247,4.247,0,0,0,.152.605,4.02,4.02,0,0,0,0,.624c.058.2.246.347.331.53a4.234,4.234,0,0,0,.2.593c.116.17.34.253.479.4s.209.378.37.5.4.135.579.233.314.3.506.365a4.176,4.176,0,0,0,.623.043,4.043,4.043,0,0,0,.595.19,4.23,4.23,0,0,0,.605-.152,4.005,4.005,0,0,0,.624,0c.2-.058.347-.246.529-.331a4.254,4.254,0,0,0,.593-.2c.17-.115.253-.34.4-.479s.378-.209.5-.37.135-.4.233-.579.3-.314.365-.507a4.175,4.175,0,0,0,.043-.623,4.042,4.042,0,0,0,.19-.594,4.2,4.2,0,0,0-.152-.605A4.01,4.01,0,0,0,1123.634,1094.7Z" transform="translate(-1115.869 -1091.839)" fill="#ffe4a9"/>
          <path id="Trazado_212480" data-name="Trazado 212480" d="M1166.635,1131.442a2.2,2.2,0,0,0-.435-1.551c-.551-.647-.615.258-.615.258Z" transform="translate(-1158.65 -1124.381)" fill="#ffe4a9"/>
          <path id="Trazado_212481" data-name="Trazado 212481" d="M1133.055,1138.151c.06.069,1,1.434,1.261,1.4.359-.049-.031-1.187-.031-1.187Z" transform="translate(-1130.657 -1131.69)" fill="#ffe4a9"/>
          <path id="Trazado_212482" data-name="Trazado 212482" d="M1141.512,1105.092a1.709,1.709,0,0,0-.242-1.309c-.4-.445-1.019-.87-2.9-.008a.613.613,0,0,0-.338.707l.2.811Z" transform="translate(-1134.925 -1101.681)" fill="#ffe4a9"/>
          <path id="Trazado_212483" data-name="Trazado 212483" d="M1136.832,1110.962c.463,1.13.93,2.033,1.795,2.348a2.316,2.316,0,0,0,1.841-.085,1.507,1.507,0,0,0,.984-1.409,6.879,6.879,0,0,0-.693-2.462c-.727-1.775-1.976-2.318-3.06-1.874S1136.105,1109.187,1136.832,1110.962Z" transform="translate(-1133.615 -1105.171)" fill="#a45f4a"/>
          <path id="Trazado_212484" data-name="Trazado 212484" d="M1131.751,1126.971l1.936.554a32,32,0,0,1-1.3,3.652c-.18.255-.7.2-1.152-.121-.411-.289-.63-.7-.541-.96h0A26.584,26.584,0,0,0,1131.751,1126.971Z" transform="translate(-1128.612 -1122.07)" fill="#a45f4a"/>
          <path id="Trazado_212485" data-name="Trazado 212485" d="M1126.7,1112.01a.961.961,0,0,0,.823-.511,6.537,6.537,0,0,0,.559-2.635c-.025-1.036-.376-1.224-.376-1.224s-1.834.625-2.075,1.351C1125.267,1110.077,1126.7,1112.01,1126.7,1112.01Z" transform="translate(-1124.216 -1105.436)" fill="#ffe4a9"/>
          <path id="Trazado_212486" data-name="Trazado 212486" d="M1137.732,1125.325l1.059,2.59a.736.736,0,0,0,.671.458l.339.005a.331.331,0,0,0,.331-.391l-.1-.561a.288.288,0,0,1,.154-.309l1.135-.569a.287.287,0,0,1,.353.078l.351.441a.915.915,0,0,1-.254,1.359l-.667.391a1.015,1.015,0,0,1-.468.138h-.061l-.262,0h0l-.856-.013a1.3,1.3,0,0,1-1.187-.81l-1.059-2.59Z" transform="translate(-1134.231 -1120.653)" fill="#ffe4a9"/>
          <path id="Trazado_212487" data-name="Trazado 212487" d="M1132.281,1130.886c.091.406.609.834.9.768s.294-.411.2-.816-.414-.731-.707-.666A.536.536,0,0,0,1132.281,1130.886Z" transform="translate(-1129.972 -1124.817)" fill="#a45f4a"/>
          <path id="Trazado_212488" data-name="Trazado 212488" d="M1139.849,1106.706l1.147-.458a1.722,1.722,0,0,1,1.2-.028l.532.185-.965-.859-1.061.023-1.136.555Z" transform="translate(-1136.262 -1103.633)" fill="#ffe4a9"/>
        </g>
        <g id="Grupo_176656" data-name="Grupo 176656" transform="translate(41.592 3.507)">
          <path id="Trazado_212489" data-name="Trazado 212489" d="M1222.164,1116.98a44.629,44.629,0,0,0-6.989,7.224c-.691,1.185.039,1.587.064,1.613a1.121,1.121,0,0,0,1.414-.107l6.06-8.024Z" transform="translate(-1214.878 -1116.98)" fill="#a45f4a"/>
        </g>
        <path id="Trazado_212490" data-name="Trazado 212490" d="M1116.579,1169.54a1.207,1.207,0,0,1-.424-1.872c.135-.438,1-.68,1.519-.473l11.361,5.211c.191.066.087.384.028.577a.371.371,0,0,1-.1.163,1.509,1.509,0,0,1-1.358.5A47.548,47.548,0,0,1,1116.579,1169.54Z" transform="translate(-1088.09 -1156.617)" fill="#a1bfca"/>
        <path id="Trazado_212491" data-name="Trazado 212491" d="M1280.027,1172.662a1.406,1.406,0,0,0,1.207.32c1.1-.225,3.173-.719,3.511-1.326.465-.833-3.161-.644-4.907.841Z" transform="translate(-1229.184 -1160.098)" fill="#a45f4a"/>
        <g id="Grupo_176657" data-name="Grupo 176657" transform="translate(41.127 12.045)">
          <path id="Trazado_212492" data-name="Trazado 212492" d="M1222.158,1179.043a42.818,42.818,0,0,1-9.055,4.027c-1.348.256-1.483-.566-1.5-.6a1.121,1.121,0,0,1,.572-1.3l9.63-2.994Z" transform="translate(-1211.544 -1178.18)" fill="#a45f4a"/>
        </g>
        <path id="Trazado_212493" data-name="Trazado 212493" d="M1199.3,1196.446s.021,2.123.5,2.393.879.1,1.459-.033,1.033.006,1.069-.629.039-2.522-.774-2.4S1199.278,1195.845,1199.3,1196.446Z" transform="translate(-1159.884 -1181.274)" fill="#8eb2bf"/>
        <path id="Trazado_212494" data-name="Trazado 212494" d="M1265.7,1096.77a1.406,1.406,0,0,1-.061-1.248c.45-1.033,1.365-2.953,2.029-3.157.912-.281-.03,3.226-1.846,4.623Z" transform="translate(-1216.868 -1092.277)" fill="#a45f4a"/>
        <path id="Trazado_212495" data-name="Trazado 212495" d="M1206.32,1162.021s-1.422-.4-1.459.3-.607,2.627.336,2.963a3.071,3.071,0,0,0,2.573-.527c.058-.251-.559-1.139-.583-1.75A1.045,1.045,0,0,0,1206.32,1162.021Z" transform="translate(-1164.49 -1152.131)" fill="#8eb2bf"/>
      </g>
      <g id="Grupo_176663" data-name="Grupo 176663" transform="translate(-6813.201 -14503.423)">
        <g id="Grupo_176662" data-name="Grupo 176662" transform="translate(0 0)">
          <path id="Trazado_212496" data-name="Trazado 212496" d="M1181.082,623.13a14.03,14.03,0,0,1,1.515,4.709c.617,3.336.1,10.256,1.006,12.573a8.494,8.494,0,0,1-2.521.993L1180,630.032Z" transform="translate(-1172.923 -600.581)" fill="#c7c0bc"/>
          <path id="Trazado_212497" data-name="Trazado 212497" d="M1221.889,466.334a1.414,1.414,0,0,0,.825-.95c.287-1.1.758-3.189.359-3.764-.548-.791-1.985,2.573-1.417,4.811Z" transform="translate(-1208.655 -461.502)" fill="#c99375"/>
          <g id="Grupo_176659" data-name="Grupo 176659" transform="translate(10.597 4.43)">
            <path id="Trazado_212498" data-name="Trazado 212498" d="M1207.318,493.253a43.122,43.122,0,0,0-2.09,9.763c.028,1.382.866,1.345.9,1.354a1.129,1.129,0,0,0,1.161-.834l1.26-10.027Z" transform="translate(-1205.227 -493.253)" fill="#c7c0bc"/>
          </g>
          <path id="Trazado_212499" data-name="Trazado 212499" d="M1153.421,572.695a1.216,1.216,0,0,0,.652,1.821c.352.3,1.216.038,1.547-.419l6.843-10.57c.126-.159-.134-.374-.289-.506a.372.372,0,0,0-.174-.083,1.52,1.52,0,0,0-1.423.312A47.915,47.915,0,0,0,1153.421,572.695Z" transform="translate(-1149.896 -548.726)" fill="#c7c0bc"/>
          <path id="Trazado_212500" data-name="Trazado 212500" d="M1184.2,896.736c.328-.655.7-.983,1.31-.983a1.188,1.188,0,0,1,1.187,1.228l-.639,18.72a.548.548,0,0,1-1.1,0l-.027-.809C1183.888,902.079,1183.22,899.111,1184.2,896.736Z" transform="translate(-1176.126 -835.171)" fill="#c99375"/>
          <path id="Trazado_212501" data-name="Trazado 212501" d="M1191.359,1038.2s-.41,1.393-.164,1.475a41.352,41.352,0,0,0,6.389.082c.41-.246-.819-.655-.819-.655a36.266,36.266,0,0,0-4.259-.9A5.358,5.358,0,0,0,1191.359,1038.2Z" transform="translate(-1182.488 -957.715)" fill="#c99375"/>
          <path id="Trazado_212502" data-name="Trazado 212502" d="M1194.041,1040.356a7.261,7.261,0,0,1-2.7.431c-.357,0-.7-.018-1.023-.05-.074.506-.107,1.1.138,1.124.433.05,6.667.239,6.7-.05C1197.234,1041.241,1195.562,1040.7,1194.041,1040.356Z" transform="translate(-1181.756 -959.6)" fill="#3b3e54"/>
          <path id="Trazado_212503" data-name="Trazado 212503" d="M1172.7,768.263c.467-2.193,1.639-2.564,2.449-2.536a1.181,1.181,0,0,1,1.435,1.119l.646,18.72a.548.548,0,0,1-.786.512,1.9,1.9,0,0,1-1.354-1.407C1174.263,781.077,1172.092,771.114,1172.7,768.263Z" transform="translate(-1166.549 -723.261)" fill="#f2bc7b"/>
          <path id="Trazado_212504" data-name="Trazado 212504" d="M1134.15,897.489a1.412,1.412,0,0,1,1.436-.787,1.188,1.188,0,0,1,1,1.384l-3.282,18.441a.548.548,0,0,1-1.084-.155l.087-.8C1133.082,902.734,1132.841,899.7,1134.15,897.489Z" transform="translate(-1131.806 -835.973)" fill="#c99375"/>
          <path id="Trazado_212505" data-name="Trazado 212505" d="M1130.359,1038.2s-.409,1.393-.164,1.475a41.353,41.353,0,0,0,6.389.082c.41-.246-.819-.655-.819-.655a36.265,36.265,0,0,0-4.26-.9A5.359,5.359,0,0,0,1130.359,1038.2Z" transform="translate(-1129.999 -957.715)" fill="#c99375"/>
          <path id="Trazado_212506" data-name="Trazado 212506" d="M1133.042,1040.356a7.26,7.26,0,0,1-2.7.431c-.357,0-.7-.018-1.023-.05-.074.506-.107,1.1.139,1.124.433.05,6.667.239,6.7-.05C1136.235,1041.241,1134.563,1040.7,1133.042,1040.356Z" transform="translate(-1129.267 -959.6)" fill="#3b3e54"/>
          <path id="Trazado_212507" data-name="Trazado 212507" d="M1145.771,768.625c.772-2.1,1.985-2.307,2.783-2.164a1.162,1.162,0,0,1,.169,0,1.188,1.188,0,0,1,1.094,1.312l-2.008,18.623a.547.547,0,0,1-.85.4,1.9,1.9,0,0,1-1.142-1.584C1145.507,781.531,1144.767,771.361,1145.771,768.625Z" transform="translate(-1143.031 -723.885)" fill="#f2bc7b"/>
          <path id="Trazado_212508" data-name="Trazado 212508" d="M1141.84,773.918a163.287,163.287,0,0,1,1.926,20.639s.654,1.072-2.873.6-6-.747-6.855-.33a5.118,5.118,0,0,1-1.82.451s.95-4.212,1.423-4.773c0,0-1.151-12.206-.068-16.132Z" transform="translate(-1131.806 -730.333)" fill="#063b75"/>
          <g id="Grupo_176660" data-name="Grupo 176660" transform="translate(1.168 21.389)">
            <path id="Trazado_212509" data-name="Trazado 212509" d="M1137.756,638.537c-.232.075-.12-4.7.432-8.114a56.369,56.369,0,0,1,1.346-12.167c.85-2.688,2.193-4.161,4.431-3.086.7.338,1.372,2.318,1.669,4.425s.715,1.683-.444,4.77c-.412,1.1.624,8.53,1.136,10.5a26.5,26.5,0,0,0,.642,3.08,5.03,5.03,0,0,1-1.247.67C1142.636,639.731,1140.847,637.537,1137.756,638.537Z" transform="translate(-1137.642 -614.816)" fill="#fff"/>
          </g>
          <path id="Trazado_212510" data-name="Trazado 212510" d="M1155.748,568.919a3.777,3.777,0,0,1-3.09-2.327c-.989-2.842,1.573-5.037,3.416-4.5a1.991,1.991,0,0,1,1.683,2.171C1157.666,564.618,1155.748,568.919,1155.748,568.919Z" transform="translate(-1149.205 -547.99)" fill="#ffe4a9"/>
          <path id="Trazado_212511" data-name="Trazado 212511" d="M1165.744,590.486l2.283-.161a36.424,36.424,0,0,1,.035,4.4c-.093.342-.665.485-1.278.319-.551-.149-.944-.5-.951-.815h0A30.14,30.14,0,0,0,1165.744,590.486Z" transform="translate(-1160.655 -572.353)" fill="#c99375"/>
          <path id="Trazado_212512" data-name="Trazado 212512" d="M1166.534,573.918c.825,1.639,2.636,2.393,3.637,1.889s.815-2.076-.01-3.715-2.057-2.065-3.059-1.56S1165.709,572.279,1166.534,573.918Z" transform="translate(-1160.951 -555.149)" fill="#c99375"/>
          <path id="Trazado_212513" data-name="Trazado 212513" d="M1160.2,567.009a4.556,4.556,0,0,1-1.717,3.841c-1,.718-1.85-.932-1.85-.932l.631-1.97s.7-.958,1.4-1.077C1158.727,566.862,1160.2,567.009,1160.2,567.009Z" transform="translate(-1152.818 -552.171)" fill="#ffe4a9"/>
          <path id="Trazado_212514" data-name="Trazado 212514" d="M1173.675,566.318s-2.133-.159-2.608-.754.543-.788.543-.788A2.651,2.651,0,0,1,1173.675,566.318Z" transform="translate(-1165.127 -550.368)" fill="#ffe4a9"/>
          <path id="Trazado_212515" data-name="Trazado 212515" d="M1135.124,555.984s1.76-1.778.2-3.434a2.363,2.363,0,0,0-4.094.831,2.433,2.433,0,0,0,1.267,2.9A2.685,2.685,0,0,0,1135.124,555.984Z" transform="translate(-1130.878 -539.11)" fill="#ffe4a9"/>
          <path id="Trazado_212516" data-name="Trazado 212516" d="M1163.327,596.246a1.141,1.141,0,0,0,1.262.316c.257-.208.089-.547-.2-.9s-.763-.518-1.019-.31A.588.588,0,0,0,1163.327,596.246Z" transform="translate(-1158.417 -576.598)" fill="#c99375"/>
          <path id="Trazado_212517" data-name="Trazado 212517" d="M1139.259,614.816a1.6,1.6,0,0,0,.3,1.853,5.568,5.568,0,0,0,1.28,1.295s-1.355,4.659-.874,6.9a52.363,52.363,0,0,1,.874,10.979s-5.646,1.554-6.016,1.167c0,0,1.148-12.534,1.068-13.535S1136.956,616.114,1139.259,614.816Z" transform="translate(-1134.052 -593.427)" fill="#c7c0bc"/>
          <path id="Trazado_212518" data-name="Trazado 212518" d="M1252.142,493.39a1.416,1.416,0,0,1-.516-1.148c.042-1.135.194-3.272.742-3.707.752-.6,1.158,3.036-.031,5.015Z" transform="translate(-1234.555 -484.707)" fill="#c99375"/>
          <path id="Trazado_212519" data-name="Trazado 212519" d="M1152.823,588.542a1.245,1.245,0,0,0,.359,1.858,1.191,1.191,0,0,0,1.5-.04l7.858-8.36c.14-.12-.073-.381-.2-.54a.4.4,0,0,0-.152-.118,1.408,1.408,0,0,0-1.374-.032A39.7,39.7,0,0,0,1152.823,588.542Z" transform="translate(-1149.294 -564.455)" fill="#c7c0bc"/>
          <g id="Grupo_176661" data-name="Grupo 176661" transform="translate(11.389 7.953)">
            <path id="Trazado_212520" data-name="Trazado 212520" d="M1216.56,518.508a43.121,43.121,0,0,0-5.5,8.331c-.478,1.3.317,1.568.346,1.589a1.129,1.129,0,0,0,1.385-.354l4.825-8.879Z" transform="translate(-1210.905 -518.508)" fill="#c7c0bc"/>
          </g>
        </g>
      </g>
      <circle id="Elipse_13397" data-name="Elipse 13397" cx="2.318" cy="2.318" r="2.318" transform="translate(-6677.234 -14442.358)" fill="#fff"/>
      <circle id="Elipse_13398" data-name="Elipse 13398" cx="2.318" cy="2.318" r="2.318" transform="translate(-6678.628 -14390.721)" fill="#fff"/>
      <circle id="Elipse_13399" data-name="Elipse 13399" cx="2.318" cy="2.318" r="2.318" transform="translate(-6789.047 -14461.324)" fill="#fff"/>
      <circle id="Elipse_13400" data-name="Elipse 13400" cx="2.318" cy="2.318" r="2.318" transform="translate(-6766.465 -14399.804)" fill="#fff"/>
      <circle id="Elipse_13401" data-name="Elipse 13401" cx="4.175" cy="4.175" r="4.175" transform="translate(-6689.453 -14410.074)" fill="#fff"/>
      <circle id="Elipse_13402" data-name="Elipse 13402" cx="4.175" cy="4.175" r="4.175" transform="translate(-6775.07 -14415.7)" fill="#fff"/>
      <circle id="Elipse_13403" data-name="Elipse 13403" cx="4.175" cy="4.175" r="4.175" transform="translate(-6624.821 -14468.957)" fill="#fff"/>
      <circle id="Elipse_13404" data-name="Elipse 13404" cx="4.175" cy="4.175" r="4.175" transform="translate(-6723.538 -14508.388)" fill="#fff"/>
    </g>
  </g>
</svg>
