<svg xmlns="http://www.w3.org/2000/svg" width="43.579" height="50" viewBox="0 0 43.579 50">
  <g id="Grupo_176832" data-name="Grupo 176832" transform="translate(-365.034 -1586)">
    <g id="Grupo_176703" data-name="Grupo 176703" transform="translate(259.751 106.809)">
      <path id="Trazado_209351" data-name="Trazado 209351" d="M146.546,1504.191c.628.347,1.177.667,1.742.957a.934.934,0,0,1,.549.937q-.016,5.417,0,10.836a.986.986,0,0,1-.577.972q-4.239,2.294-8.463,4.615a.979.979,0,0,1-1.084-.01c-.664-.391-1.351-.744-2.086-1.145,0,.764-.014,1.454.005,2.145a.89.89,0,0,1-.534.889q-4.284,2.318-8.552,4.662a.916.916,0,0,1-.991-.008q-4.245-2.335-8.507-4.638a.9.9,0,0,1-.556-.922c.028-.677.007-1.355.007-2.114-.669.361-1.315.678-1.926,1.051a1.22,1.22,0,0,1-1.4.019c-2.746-1.534-5.515-3.027-8.284-4.518a1,1,0,0,1-.607-1q.025-5.393,0-10.785a1,1,0,0,1,.633-1.032c.548-.261,1.071-.574,1.692-.911-.607-.335-1.148-.661-1.713-.937a.982.982,0,0,1-.6-1.007q.022-5.394,0-10.786a.931.931,0,0,1,.52-.945q4.264-2.3,8.505-4.644a1.012,1.012,0,0,1,1.13.014c.65.386,1.325.73,2.055,1.128,0-.746.014-1.433-.005-2.118a.879.879,0,0,1,.519-.893q4.286-2.314,8.552-4.664a.917.917,0,0,1,.991-.009q4.268,2.345,8.552,4.662a.881.881,0,0,1,.526.891c-.024.689-.006,1.378-.006,2.134.765-.412,1.484-.777,2.181-1.181a.863.863,0,0,1,.945,0q4.27,2.343,8.554,4.66a.937.937,0,0,1,.54.935q-.019,5.418,0,10.837a.977.977,0,0,1-.606,1C147.7,1503.541,147.165,1503.854,146.546,1504.191Zm-6.649,16.79c.23.029.354-.106.495-.183,2.287-1.245,4.567-2.5,6.86-3.73a.636.636,0,0,0,.386-.663c-.014-3.017-.007-6.034-.011-9.051,0-.14.061-.3-.076-.453-.118.063-.234.122-.349.185-2.314,1.263-4.624,2.534-6.946,3.783a.6.6,0,0,0-.366.622c.012,3.033.007,6.067.007,9.1Zm-21.169-7.621c0,3.313,0,6.515-.007,9.717a.451.451,0,0,0,.308.45q2.875,1.561,5.742,3.133c.541.3,1.086.585,1.653.89a1.517,1.517,0,0,0,.035-.2c0-3.152,0-6.3.009-9.457a.486.486,0,0,0-.331-.487c-1.191-.64-2.375-1.294-3.562-1.942Zm9.009,14.142c.165.023.276-.1.4-.17,2.3-1.251,4.6-2.515,6.9-3.753a.636.636,0,0,0,.38-.667c-.012-3.017-.006-6.034-.011-9.05,0-.14.066-.3-.058-.424a.366.366,0,0,0-.1.018c-2.434,1.325-4.866,2.656-7.305,3.972a.5.5,0,0,0-.266.53q.008,4.628.006,9.254C127.687,1527.305,127.645,1527.412,127.737,1527.5Zm-13.531-6.461a1.293,1.293,0,0,0,.041-.2c0-3.153,0-6.3.009-9.457a.492.492,0,0,0-.324-.494q-3.544-1.921-7.079-3.857c-.1-.054-.186-.161-.338-.071q0,4.788-.005,9.6a.426.426,0,0,0,.253.435C109.23,1518.329,111.692,1519.672,114.207,1521.041Zm21.211-22.236a.688.688,0,0,0-.449.166c-2.3,1.249-4.6,2.508-6.908,3.744a.634.634,0,0,0-.384.664c.013,3.017.007,6.033.011,9.048,0,.141-.062.3.062.434a.679.679,0,0,0,.144-.042c2.42-1.317,4.835-2.64,7.262-3.944.276-.149.264-.344.263-.58q0-4.549,0-9.1Zm-21.169,7.6c0-3.312,0-6.53.008-9.747,0-.3-.2-.359-.383-.456q-3.45-1.882-6.905-3.752c-.127-.068-.236-.194-.44-.163,0,.061-.013.122-.013.183,0,3.135,0,6.27-.007,9.4a.485.485,0,0,0,.317.5c.735.383,1.458.786,2.185,1.182Zm25.648-.029a1.737,1.737,0,0,0,.217-.071c2.4-1.309,4.8-2.628,7.216-3.921.291-.156.3-.345.3-.607q-.006-4.577-.005-9.151c0-.11.046-.233-.073-.366-.122.064-.253.133-.382.2-2.286,1.244-4.569,2.493-6.861,3.727a.668.668,0,0,0-.426.688c.024,1.712.011,3.423.011,5.135Zm-13.471,6.526a1.87,1.87,0,0,0,.034-.213c0-3.152,0-6.3.008-9.454a.489.489,0,0,0-.326-.49q-3.546-1.915-7.08-3.85c-.1-.053-.186-.16-.334-.068q0,4.789,0,9.6a.384.384,0,0,0,.22.4C121.424,1510.165,123.9,1511.518,126.426,1512.9Zm-7.027-28.245c2.543,1.389,4.993,2.721,7.436,4.069.249.137.406.032.6-.073q3.5-1.909,6.993-3.817c.089-.049.246-.053.238-.231q-3.645-1.992-7.294-3.993a.583.583,0,0,0-.645.042c-1.586.872-3.177,1.733-4.766,2.6C121.133,1483.7,120.308,1484.156,119.4,1484.655Zm-12.151,6.478c.057.073.072.107.1.121,2.419,1.322,4.841,2.639,7.255,3.971a.539.539,0,0,0,.6-.047q2.268-1.246,4.542-2.481l2.8-1.534c-2.554-1.39-5.032-2.736-7.5-4.092a.376.376,0,0,0-.417.032Zm24.36.036c2.5,1.361,4.907,2.662,7.3,3.991a.7.7,0,0,0,.779-.011c2.207-1.217,4.423-2.418,6.635-3.626.2-.108.391-.224.631-.362-2.506-1.369-4.941-2.7-7.37-4.033a.541.541,0,0,0-.6.006c-.779.442-1.571.862-2.358,1.292Zm-12.17,6.489a1.539,1.539,0,0,0,.162.129c2.4,1.315,4.809,2.624,7.207,3.947a.543.543,0,0,0,.6-.038q2.556-1.4,5.119-2.8l2.23-1.221c-2.557-1.393-5.033-2.739-7.5-4.093a.374.374,0,0,0-.417.032Zm3.767-5.413a2.343,2.343,0,0,0-.228.093c-2.42,1.313-4.837,2.633-7.263,3.935-.26.14-.243.325-.243.543q0,3.582,0,7.165v2.446c.587-.319,1.107-.626,1.65-.886a.617.617,0,0,0,.392-.665c-.016-2.3,0-4.607-.017-6.911a.955.955,0,0,1,.578-.96c1.6-.847,3.18-1.719,4.766-2.586.167-.091.379-.133.369-.416C123.191,1493.434,123.205,1492.865,123.205,1492.244Zm7.736-.049c0,.609.02,1.117-.008,1.622a.549.549,0,0,0,.35.585c1.58.845,3.143,1.72,4.729,2.553a1.058,1.058,0,0,1,.638,1.082c-.023,2.288-.011,4.576-.007,6.864,0,.174-.076.378.147.495.607.319,1.212.643,1.866.99.009-.127.018-.188.018-.25,0-3.136,0-6.271.007-9.406a.49.49,0,0,0-.315-.5c-1.075-.571-2.139-1.16-3.208-1.742Zm-11.467,20.1c.036.064.044.1.067.118,2.431,1.329,4.865,2.651,7.291,3.99.246.135.4.036.6-.069q3.424-1.872,6.847-3.744c.135-.074.327-.095.386-.3-.434-.239-.874-.457-1.286-.718a.585.585,0,0,0-.685.015c-1.685.931-3.385,1.838-5.068,2.773a.993.993,0,0,1-1.083.009c-1.7-.945-3.408-1.866-5.116-2.792-.138-.074-.258-.223-.458-.109C120.473,1511.749,119.973,1512.018,119.474,1512.293Zm-3.926,8.733c.528-.286,1.05-.589,1.59-.852a.586.586,0,0,0,.376-.621c-.015-2.339,0-4.677-.013-7.015a.838.838,0,0,1,.5-.848c.594-.3,1.169-.636,1.814-.992-.564-.308-1.057-.562-1.533-.844a.508.508,0,0,0-.6,0c-.6.351-1.2.687-1.824,1a.617.617,0,0,0-.4.65c.017,3.033.009,6.066.012,9.1A.568.568,0,0,0,115.547,1521.026Zm23.127.041c0-3.326,0-6.557.005-9.788,0-.223-.136-.284-.282-.363-.652-.356-1.3-.714-1.958-1.066-.125-.067-.237-.179-.412-.078-.536.306-1.081.6-1.694.933.618.336,1.151.654,1.707.92a1,1,0,0,1,.609,1.047c-.023,2.3-.01,4.606-.01,6.908,0,.2-.035.382.216.506C137.444,1520.374,138.011,1520.705,138.674,1521.066Zm-19.946-35.386c0,.6.025,1.1-.009,1.6a.579.579,0,0,0,.377.619c1.593.851,3.174,1.724,4.768,2.574a.938.938,0,0,1,.571.967c-.032.671-.008,1.344-.008,2.08a12.7,12.7,0,0,1,1.242-.647,1.111,1.111,0,0,0,.805-1.336c-.071-.533.16-1.193-.082-1.59-.252-.414-.907-.586-1.393-.852C122.943,1487.975,120.883,1486.855,118.728,1485.681Zm10.99,7.86c0-.737.03-1.4-.01-2.056a.986.986,0,0,1,.629-1.032c1.582-.835,3.15-1.7,4.719-2.558.163-.089.379-.128.368-.415-.023-.566-.007-1.133-.007-1.728a1.118,1.118,0,0,0-.193.051q-3.649,1.982-7.3,3.963a.42.42,0,0,0-.247.438c.014.642.012,1.286,0,1.929a.411.411,0,0,0,.238.441C128.5,1492.871,129.072,1493.189,129.719,1493.54Zm17.247,12.28c-.517-.283-.957-.5-1.373-.76a.591.591,0,0,0-.686.01c-1.7.941-3.417,1.858-5.119,2.8a.891.891,0,0,1-.99.006c-.692-.405-1.41-.768-2.158-1.171,0,.565.013,1.057-.006,1.547a.445.445,0,0,0,.281.472c.675.351,1.348.707,2,1.092a.632.632,0,0,0,.734.006c.7-.409,1.423-.781,2.135-1.17Zm-39.745.022c2.514,1.372,4.986,2.716,7.452,4.072a.376.376,0,0,0,.417-.031q1.088-.6,2.176-1.193c.121-.066.237-.117.235-.289-.006-.546,0-1.093,0-1.7-.711.384-1.369.694-1.976,1.082a1.146,1.146,0,0,1-1.35-.01c-1.243-.716-2.515-1.382-3.777-2.064-.5-.272-1.017-.752-1.516-.739-.526.011-1.041.5-1.56.777A1.063,1.063,0,0,0,107.221,1505.842Z" transform="translate(0)" fill="#ffb30b"/>
    </g>
  </g>
</svg>
